<?xml version="1.0" encoding="UTF-8"?>
<svg id="Layer_1" data-name="Layer 1" xmlns="http://www.w3.org/2000/svg" xmlns:xlink="http://www.w3.org/1999/xlink" viewBox="0 0 800 600">
  <defs>
    <style>
      .cls-1, .cls-2, .cls-3, .cls-4, .cls-5, .cls-6, .cls-7, .cls-8, .cls-9, .cls-10, .cls-11, .cls-12, .cls-13 {
        fill: none;
      }

      .cls-2 {
        stroke: #84909b;
        stroke-width: .74px;
      }

      .cls-2, .cls-3, .cls-4, .cls-5, .cls-6, .cls-7, .cls-8, .cls-10, .cls-11, .cls-12, .cls-14 {
        stroke-miterlimit: 10;
      }

      .cls-15, .cls-16 {
        fill: #5889ef;
      }

      .cls-15, .cls-8, .cls-17, .cls-18 {
        opacity: .5;
      }

      .cls-19 {
        filter: url(#drop-shadow-1);
      }

      .cls-20 {
        fill: #84909b;
      }

      .cls-21 {
        fill: #accdf8;
      }

      .cls-22 {
        fill: #f28181;
      }

      .cls-23 {
        fill: #bab3b3;
      }

      .cls-3 {
        stroke-width: 1.34px;
      }

      .cls-3, .cls-5, .cls-6, .cls-7, .cls-9, .cls-10, .cls-13 {
        stroke: #060a25;
      }

      .cls-3, .cls-13 {
        stroke-linecap: round;
      }

      .cls-4 {
        stroke: #7db0f2;
        stroke-width: 2.23px;
      }

      .cls-4, .cls-24 {
        opacity: .2;
      }

      .cls-25 {
        fill: #072045;
      }

      .cls-26, .cls-27 {
        opacity: .3;
      }

      .cls-26, .cls-28 {
        fill: #d3dde6;
      }

      .cls-29 {
        fill: #c4dbfc;
      }

      .cls-30, .cls-14 {
        fill: #f39b47;
      }

      .cls-5, .cls-9 {
        stroke-width: .81px;
      }

      .cls-6 {
        stroke-width: .73px;
      }

      .cls-7 {
        stroke-width: .68px;
      }

      .cls-31 {
        fill: #0d2243;
      }

      .cls-32 {
        filter: url(#drop-shadow-2);
      }

      .cls-32, .cls-33 {
        fill: #024881;
      }

      .cls-8 {
        stroke: #fff;
      }

      .cls-34 {
        fill: #7ace84;
      }

      .cls-35 {
        fill: #fff;
      }

      .cls-27 {
        fill: #ff7bac;
      }

      .cls-36 {
        fill: #9aa4af;
      }

      .cls-37 {
        fill: #dceaff;
      }

      .cls-9, .cls-13 {
        stroke-linejoin: round;
      }

      .cls-10 {
        stroke-width: .76px;
      }

      .cls-38 {
        fill: #101e35;
      }

      .cls-39 {
        fill: #524e59;
      }

      .cls-40 {
        fill: #060a25;
      }

      .cls-11 {
        stroke: #d3dde6;
        stroke-width: .6px;
      }

      .cls-41 {
        fill: #999292;
      }

      .cls-42 {
        fill: #013057;
      }

      .cls-12 {
        stroke: #dceaff;
        stroke-width: 2.1px;
      }

      .cls-13 {
        stroke-width: 1.71px;
      }

      .cls-14 {
        filter: url(#drop-shadow-3);
        stroke: #0d2243;
        stroke-width: .72px;
      }

      .cls-43 {
        fill: #0d2e5e;
      }

      .cls-44 {
        fill: #c0c8ce;
      }

      .cls-45 {
        opacity: .1;
      }

      .cls-45, .cls-46, .cls-18, .cls-24 {
        fill: #7db0f2;
      }

      .cls-46 {
        opacity: .15;
      }

      .cls-47 {
        fill: #626b72;
      }

      .cls-48 {
        clip-path: url(#clippath);
      }

      .cls-49 {
        fill: #f4b2a0;
      }
    </style>
    <clipPath id="clippath">
      <rect class="cls-1" x="194.85" y="-81.45" width="410.75" height="758.17" transform="translate(102.59 697.85) rotate(-90)"/>
    </clipPath>
    <filter id="drop-shadow-1" x="574.18" y="337.51" width="42.74" height="17.93" filterUnits="userSpaceOnUse">
      <feOffset dx="1.99" dy="1.99"/>
      <feGaussianBlur result="blur" stdDeviation="0"/>
      <feFlood flood-color="#000" flood-opacity=".1"/>
      <feComposite in2="blur" operator="in"/>
      <feComposite in="SourceGraphic"/>
    </filter>
    <filter id="drop-shadow-2" x="572.67" y="356.98" width="45.76" height="17.42" filterUnits="userSpaceOnUse">
      <feOffset dx="1.99" dy="1.99"/>
      <feGaussianBlur result="blur-2" stdDeviation="0"/>
      <feFlood flood-color="#000" flood-opacity=".1"/>
      <feComposite in2="blur-2" operator="in"/>
      <feComposite in="SourceGraphic"/>
    </filter>
    <filter id="drop-shadow-3" x="674.82" y="345.13" width="46.44" height="24.05" filterUnits="userSpaceOnUse">
      <feOffset dx="2.16" dy="2.16"/>
      <feGaussianBlur result="blur-3" stdDeviation="0"/>
      <feFlood flood-color="#000" flood-opacity=".1"/>
      <feComposite in2="blur-3" operator="in"/>
      <feComposite in="SourceGraphic"/>
    </filter>
  </defs>
  <g>
    <g>
      <rect class="cls-35" width="800" height="600" rx="30" ry="30"/>
      <g>
        <path class="cls-42" d="M99.34,75.7c-.44-.47-.66-1.13-.66-1.97v-8.62c0-1.91.58-3.29,1.74-4.13h-4.06v-2.53h8.02v2.36c-.94.38-1.62.9-2.04,1.54-.42.64-.63,1.54-.63,2.69v7.73c0,.41.09.7.26.86.18.16.46.24.86.24h.84v2.53h-2.43c-.83,0-1.46-.23-1.9-.7Z"/>
        <path class="cls-42" d="M107.26,75.13c-1.12-1.09-1.68-2.69-1.68-4.79,0-1.46.29-2.72.87-3.78.58-1.06,1.42-1.87,2.51-2.43,1.09-.56,2.37-.85,3.85-.85,2.34,0,4.05.54,5.13,1.62,1.08,1.08,1.62,2.49,1.62,4.22v7.28h-3.03v-7.3c0-1.11-.29-1.97-.87-2.57-.58-.6-1.53-.9-2.85-.9s-2.28.41-3.02,1.23c-.74.82-1.11,1.98-1.11,3.47,0,1.37.32,2.39.95,3.05.64.67,1.55,1,2.74,1,.59,0,1.14-.08,1.65-.24v2.32c-.62.19-1.34.29-2.17.29-1.94,0-3.47-.54-4.59-1.63Z"/>
        <path class="cls-42" d="M114.13,60.39c0-.17-.04-.3-.11-.38-.07-.08-.2-.12-.39-.12h-1.1v-2.1h2.03c.54,0,.94.13,1.19.39.25.26.38.58.38.97v.76h4.89v1.98h-6.9v-1.5Z"/>
        <path class="cls-42" d="M124.23,76.48c-.93-.19-1.66-.48-2.18-.86v-2.36c.7.41,1.48.72,2.33.93.85.21,1.64.31,2.35.31.95,0,1.64-.1,2.06-.29.42-.19.63-.55.63-1.07,0-.37-.11-.66-.33-.87-.22-.21-.52-.39-.91-.54-.38-.14-1.1-.37-2.15-.69-1.37-.43-2.39-.95-3.07-1.55-.68-.6-1.01-1.42-1.01-2.46,0-1.19.48-2.12,1.43-2.77.95-.65,2.24-.98,3.87-.98.86,0,1.68.09,2.47.27.79.18,1.44.43,1.94.73v2.48c-.52-.33-1.16-.6-1.9-.81-.74-.21-1.48-.31-2.23-.31-1.7,0-2.55.46-2.55,1.38,0,.33.1.6.31.81.21.21.49.38.84.51.35.14.88.31,1.6.54l.79.24c1.02.32,1.81.66,2.38,1.03.56.37.96.79,1.19,1.26.23.48.35,1.07.35,1.77,0,1.07-.45,1.93-1.36,2.59-.91.66-2.27.99-4.08.99-.91,0-1.83-.1-2.76-.29Z"/>
        <path class="cls-42" d="M125.5,61.32c-.34-.38-.51-.95-.51-1.72v-1.38h2.72v1.1c0,.25.05.43.14.51.1.09.27.13.52.13h5.68v1.93h-6.92c-.75,0-1.29-.19-1.64-.57Z"/>
        <path class="cls-42" d="M137.86,76.07c-.96-.46-1.7-1.1-2.22-1.92-.52-.82-.78-1.75-.78-2.8v-7.71h3.03v7.59c0,1,.28,1.78.84,2.34.56.56,1.38.84,2.48.84s1.9-.28,2.46-.84.84-1.34.84-2.34v-7.59h3.03v7.71c0,1.05-.26,1.98-.78,2.8-.52.82-1.25,1.46-2.21,1.92-.96.46-2.07.69-3.34.69s-2.39-.23-3.35-.69Z"/>
        <path class="cls-42" d="M151.12,68.62l-1.19-1.98c.88-1.1,1.88-1.93,3.02-2.51s2.45-.86,3.95-.86c1.99,0,3.51.45,4.57,1.34,1.06.89,1.59,2.12,1.59,3.7v8.09h-3.03v-7.85c0-.99-.26-1.72-.79-2.2-.52-.48-1.3-.72-2.34-.72-.78,0-1.47.11-2.06.33s-1.15.59-1.66,1.1l.98,1.58v7.76h-3.03v-7.78Z"/>
        <path class="cls-42" d="M170.02,68.24c0-.94-.19-1.61-.56-2-.37-.4-1.05-.6-2.02-.6-.89,0-1.8.23-2.72.69v-2.36c.38-.19.89-.35,1.52-.49.63-.14,1.24-.2,1.85-.2,1.64,0,2.88.45,3.71,1.34.83.89,1.25,2.16,1.25,3.82v7.97h-3.03v-8.16Z"/>
        <path class="cls-42" d="M177.72,76.48c-.93-.19-1.66-.48-2.18-.86v-2.36c.7.41,1.48.72,2.33.93.85.21,1.64.31,2.35.31.95,0,1.64-.1,2.06-.29.42-.19.63-.55.63-1.07,0-.37-.11-.66-.33-.87-.22-.21-.52-.39-.91-.54-.38-.14-1.1-.37-2.15-.69-1.37-.43-2.39-.95-3.07-1.55-.68-.6-1.01-1.42-1.01-2.46,0-1.19.48-2.12,1.43-2.77.95-.65,2.24-.98,3.87-.98.86,0,1.68.09,2.47.27.79.18,1.44.43,1.94.73v2.48c-.52-.33-1.16-.6-1.9-.81-.74-.21-1.48-.31-2.23-.31-1.7,0-2.55.46-2.55,1.38,0,.33.1.6.31.81.21.21.49.38.84.51.35.14.88.31,1.6.54l.79.24c1.02.32,1.81.66,2.38,1.03.56.37.96.79,1.19,1.26.23.48.35,1.07.35,1.77,0,1.07-.45,1.93-1.36,2.59-.91.66-2.27.99-4.08.99-.91,0-1.83-.1-2.76-.29Z"/>
        <path class="cls-42" d="M189.13,75.69c-.87-.72-1.3-1.73-1.3-3.03,0-.86.22-1.61.66-2.27.44-.65,1.06-1.16,1.86-1.53.8-.37,1.75-.55,2.83-.55,1.54,0,2.88.26,4.01.79v-.57c0-.99-.29-1.71-.87-2.18-.58-.47-1.52-.7-2.8-.7-.78,0-1.55.08-2.3.24-.76.16-1.41.37-1.97.64v-2.36c.51-.24,1.21-.45,2.11-.62.9-.17,1.78-.26,2.64-.26,1.29,0,2.4.2,3.34.6l1.05-1.19h3.34l-2.46,2.82c.62.7.93,1.69.93,2.96v7.95h-3.01v-4.92c-1.07-.54-2.28-.81-3.65-.81-.89,0-1.56.17-1.99.51-.44.34-.66.84-.66,1.49,0,.59.2,1.02.6,1.3.4.28,1.03.42,1.89.42.54,0,1.01-.08,1.41-.24v2.32c-.59.19-1.33.29-2.22.29-1.42,0-2.56-.36-3.42-1.07Z"/>
        <path class="cls-42" d="M205.92,76.13c-.75-.42-1.32-1-1.71-1.74-.39-.74-.58-1.56-.58-2.47v-8.28h3.03v8.14c0,1.75.93,2.63,2.79,2.63,1.46,0,2.61-.65,3.44-1.96v-8.81h3.03v12.77h-2.91v-1.58c-.6.64-1.29,1.12-2.06,1.44-.77.33-1.56.49-2.35.49-1.03,0-1.93-.21-2.67-.63Z"/>
        <path class="cls-42" d="M209.46,61.32c-.34-.38-.51-.95-.51-1.72v-1.38h2.72v1.1c0,.25.05.43.14.51.1.09.27.13.52.13h5.68v1.93h-6.92c-.75,0-1.29-.19-1.64-.57Z"/>
        <path class="cls-42" d="M221.83,76.07c-.96-.46-1.7-1.1-2.22-1.92-.52-.82-.78-1.75-.78-2.8v-7.71h3.03v7.59c0,1,.28,1.78.84,2.34.56.56,1.38.84,2.48.84s1.9-.28,2.46-.84.84-1.34.84-2.34v-7.59h3.03v7.71c0,1.05-.26,1.98-.78,2.8-.52.82-1.25,1.46-2.21,1.92-.96.46-2.07.69-3.34.69s-2.39-.23-3.35-.69Z"/>
        <path class="cls-42" d="M235.19,75.69c-.87-.72-1.3-1.73-1.3-3.03,0-.86.22-1.61.66-2.27.44-.65,1.06-1.16,1.86-1.53.8-.37,1.75-.55,2.83-.55,1.54,0,2.88.26,4.01.79v-.57c0-.99-.29-1.71-.87-2.18-.58-.47-1.52-.7-2.8-.7-.78,0-1.55.08-2.3.24-.76.16-1.41.37-1.97.64v-2.36c.51-.24,1.21-.45,2.11-.62.9-.17,1.78-.26,2.64-.26,1.29,0,2.4.2,3.34.6l1.05-1.19h3.34l-2.46,2.82c.62.7.93,1.69.93,2.96v7.95h-3.01v-4.92c-1.07-.54-2.28-.81-3.65-.81-.89,0-1.56.17-1.99.51-.44.34-.66.84-.66,1.49,0,.59.2,1.02.6,1.3.4.28,1.03.42,1.89.42.54,0,1.01-.08,1.41-.24v2.32c-.59.19-1.33.29-2.22.29-1.42,0-2.56-.36-3.42-1.07Z"/>
        <path class="cls-42" d="M251.98,76.13c-.75-.42-1.32-1-1.71-1.74-.39-.74-.58-1.56-.58-2.47v-8.28h3.03v8.14c0,1.75.93,2.63,2.79,2.63,1.46,0,2.61-.65,3.44-1.96v-8.81h3.03v12.77h-2.91v-1.58c-.6.64-1.29,1.12-2.06,1.44-.77.33-1.56.49-2.35.49-1.03,0-1.93-.21-2.67-.63Z"/>
        <path class="cls-42" d="M259.33,80.34c0-.29-.05-.49-.14-.6-.1-.11-.29-.17-.57-.17h-.84v-1.93h2.22c.8,0,1.34.15,1.62.44s.43.83.43,1.61v3.1h-2.72v-2.46Z"/>
        <path class="cls-42" d="M267.14,76.13c-.75-.42-1.32-1-1.71-1.74-.39-.74-.58-1.56-.58-2.47v-8.28h3.03v8.14c0,1.75.93,2.63,2.79,2.63,1.46,0,2.61-.65,3.44-1.96v-8.81h3.03v12.77h-2.91v-1.58c-.6.64-1.29,1.12-2.06,1.44-.77.33-1.56.49-2.35.49-1.03,0-1.93-.21-2.67-.63Z"/>
      </g>
      <rect class="cls-24" x="96.49" y="24.56" width="316.66" height="22.83" rx="5.78" ry="5.78"/>
      <path class="cls-21" d="M49.98,21.13h0c15.92,0,28.85,12.93,28.85,28.85h0c0,15.92-12.93,28.85-28.85,28.85h0c-15.92,0-28.84-12.92-28.84-28.84h0c0-15.92,12.93-28.85,28.85-28.85Z"/>
      <g>
        <g>
          <g>
            <path class="cls-21" d="M170.56,566.85h-3.97c-.67,0-1.21.54-1.21,1.22v13.02c0,.67.54,1.22,1.21,1.22h3.97c.67,0,1.22-.55,1.22-1.22v-13.02c0-.68-.55-1.22-1.22-1.22Z"/>
            <path class="cls-21" d="M191.61,571.37c0-1.82-1.51-1.82-1.51-1.82,0,0,1.51-.6,1.51-2.42,0-2.13-1.52-2.43-2.43-2.43h-6.67c1.51-3.35,1.52-5.47,1.52-6.68s-.91-3.64-2.73-3.64-2.13,1.21-2.13,1.21c0,0,.46,3.18,0,3.64-.46.46-5.76,6.68-5.76,7.9,0,.9,0,2.15,0,2.72h0v9.42c0,.84.68,1.52,1.52,1.52h11.6c2.76-.08,3.89-.96,3.89-2.12s-.91-1.52-.91-1.52c0,0,1.2-.3,1.2-1.82s-.91-1.82-.91-1.82c0,0,1.81-.31,1.81-2.13Z"/>
          </g>
          <rect class="cls-24" x="201.88" y="565.74" width="46.67" height="13.94" rx="3.48" ry="3.48"/>
          <rect class="cls-45" x="75.66" y="518.05" width="46.67" height="13.94" rx="3.48" ry="3.48"/>
          <rect class="cls-45" x="696.7" y="518.05" width="82.6" height="13.94" rx="3.48" ry="3.48"/>
          <rect class="cls-45" x="565.3" y="518.05" width="116.89" height="13.94" rx="3.48" ry="3.48"/>
        </g>
        <g>
          <path class="cls-21" d="M361.73,560.28h-17.01c-2.15,0-3.9,1.75-3.9,3.89v11.74c0,2.14,1.75,3.89,3.9,3.89h3.15v4.38s0,1.2.58.91c.43-.09,1.37-.91,1.37-.91l4.85-4.38h7.07c2.14,0,3.89-1.75,3.89-3.89v-11.74c0-2.14-1.75-3.89-3.89-3.89"/>
          <rect class="cls-24" x="375.89" y="566" width="87.45" height="13.94" rx="3.48" ry="3.48"/>
        </g>
        <g>
          <path class="cls-21" d="M577.4,572.04l-10.37-10.37c-.37-.37-.97-.37-1.35,0v6.11s-14.85-.55-16.18,16.26c0,0,4.75-8.16,16.18-7.27v6.99c.37.37.98.37,1.35,0l10.37-10.36c.37-.37.37-.98,0-1.35"/>
          <rect class="cls-24" x="587.95" y="567.51" width="46.67" height="13.94" rx="3.48" ry="3.48"/>
        </g>
      </g>
      <g>
        <path class="cls-27" d="M65.12,523.12c0,6.71-5.44,12.15-12.15,12.15s-12.15-5.44-12.15-12.15,5.44-12.15,12.15-12.15,12.15,5.44,12.15,12.15Z"/>
        <path class="cls-35" d="M56.86,518.72c-1.81-.41-3.33.3-3.88,2.04-.55-1.74-2.07-2.45-3.89-2.04-1.44.33-3.42,2.59-1.67,5.62,1.75,3.02,5.56,4.91,5.56,4.91,0,0,3.81-1.89,5.56-4.91,1.74-3.03-.23-5.29-1.67-5.62Z"/>
      </g>
      <g>
        <path class="cls-35" d="M44.18,523.13c0,7.37-5.98,13.35-13.36,13.35s-13.36-5.98-13.36-13.35,5.98-13.36,13.36-13.36,13.36,5.98,13.36,13.36Z"/>
        <path class="cls-18" d="M42.97,523.13c0,6.71-5.44,12.15-12.15,12.15s-12.15-5.44-12.15-12.15,5.44-12.15,12.15-12.15,12.15,5.44,12.15,12.15Z"/>
        <g>
          <path class="cls-35" d="M26.85,521.72h-1.9c-.27,0-.49.21-.49.48v5.63c0,.27.22.49.49.49h1.9c.27,0,.48-.22.48-.49v-5.63c0-.27-.22-.48-.48-.48Z"/>
          <path class="cls-35" d="M35.31,520.16h-2.66v-2.71c0-.47-.52-1.33-.94-1.33h-.99c-.18,0-.42.37-.42.97v1.64c0,.34-.49,1.3-.86,1.8-.36.5-1.1.94-1.1,1.61v4.8c0,.47.4,1.07,1.41,1.07h4.54c.62,0,1.12-.1,1.75-1.51.63-1.41.92-2.03.92-3.18v-1.93c0-.6-.52-1.22-1.65-1.22Z"/>
        </g>
      </g>
      <line class="cls-4" x1="22.41" y1="545.3" x2="777.49" y2="545.3"/>
    </g>
    <rect class="cls-37" x="194.85" y="-81.45" width="410.75" height="758.17" transform="translate(102.59 697.85) rotate(-90)"/>
  </g>
  <g class="cls-48">
    <g>
      <g>
        <g>
          <path class="cls-36" d="M511.04,481.66c-2.83,13.26,4.26,26.3,16.86,31.04,15.88,5.97,33.93-3.47,38.29-20.02l11.67-69.98-59.71-8.24-7.11,67.2Z"/>
          <path class="cls-36" d="M567.6,317.29c-18.38-5.23-37.85,6.55-41.84,25.32l-7.61,71.85,59.71,8.24,11.25-67.43c4.38-16.63-5.06-33.3-21.5-37.97Z"/>
          <line class="cls-5" x1="525.04" y1="349.4" x2="512.36" y2="469.12"/>
          <line class="cls-5" x1="582.36" y1="395.72" x2="567.67" y2="483.74"/>
        </g>
        <g>
          <polygon class="cls-38" points="562.94 511.69 743.02 511.69 739.9 607.25 560.64 607.25 562.94 511.69"/>
          <polygon class="cls-36" points="685.93 291.51 659.88 291.77 653.68 295.43 644.29 290.91 618.5 291.51 547.67 318.33 560.79 556.62 745.3 556.62 755.99 317.98 685.93 291.51"/>
          <line class="cls-5" x1="549.51" y1="351.77" x2="560.79" y2="556.62"/>
          <g>
            <path class="cls-49" d="M651.54,320.09c15.4-.08,27.82-12.96,27.74-28.77l-.31-60.93-55.78.28.31,60.93c.08,15.81,12.63,28.57,28.03,28.49Z"/>
            <path class="cls-22" d="M623.46,283.37c24.6.14,44.24-15.42,55.64-27.33l-.13-25.66-47.82.24-7.95,1.17.26,51.58Z"/>
            <g>
              <path class="cls-36" d="M678.9,288.19l3.41,22.75s-5.54,18.05-7.68,19.18c-2.14,1.13-44.33,3.95-44.95,3.57-.62-.38-10.16-16.92-10.16-16.92l5.31-20.31,20.21.94s22.02-3.57,22.1-3.57,11.75-5.64,11.75-5.64Z"/>
              <polygon class="cls-36" points="658.62 315.4 641.92 296.88 680.51 274.1 685.93 291.99 658.62 315.4"/>
              <polygon class="cls-36" points="625.21 315.4 641.92 296.88 622.19 274.1 616.66 291.99 625.21 315.4"/>
              <polyline class="cls-9" points="616.66 291.99 625.21 315.4 641.92 296.88 658.62 315.4 685.93 291.99"/>
            </g>
          </g>
          <g>
            <g class="cls-19">
              <rect class="cls-28" x="574.18" y="337.54" width="40.75" height="15.91"/>
              <rect class="cls-31" x="574.18" y="337.54" width="5.45" height="7.95"/>
              <rect class="cls-30" x="585.06" y="337.51" width="5.45" height="7.95"/>
              <rect class="cls-33" x="598.33" y="337.54" width="5.45" height="7.95"/>
              <rect class="cls-31" x="603.84" y="345.49" width="5.45" height="7.95"/>
              <rect class="cls-30" x="609.29" y="337.54" width="5.64" height="7.95"/>
              <rect class="cls-34" x="590.54" y="337.54" width="5.45" height="7.95"/>
              <rect class="cls-33" x="592.87" y="345.49" width="5.45" height="7.95"/>
              <rect class="cls-34" x="579.63" y="345.49" width="5.45" height="7.95"/>
            </g>
            <rect class="cls-32" x="572.67" y="356.98" width="43.77" height="15.43"/>
            <rect class="cls-11" x="574.97" y="358.37" width="39.16" height="12.66"/>
            <rect class="cls-44" x="565.15" y="375.96" width="58.72" height="15.7" rx="3.14" ry="3.14"/>
            <rect class="cls-44" x="663.25" y="374.21" width="66.89" height="17.03" rx="3.49" ry="3.49"/>
            <rect class="cls-31" x="668.08" y="380.48" width="57.76" height="4.48" rx="2.24" ry="2.24"/>
            <g>
              <rect class="cls-31" x="568.84" y="381.74" width="22.28" height="4.13" rx="2.07" ry="2.07"/>
              <rect class="cls-31" x="597.9" y="381.74" width="22.28" height="4.13" rx="2.07" ry="2.07"/>
            </g>
            <path class="cls-14" d="M716.39,350.81h-14.11c0-2.94-2.38-5.32-5.32-5.32s-5.32,2.38-5.32,5.32h-14.11c-2.2,0-3.18,2.76-1.48,4.15l6.24,5.1c1.12.91,2.5,1.49,3.95,1.46,1.4-.03,2.76.39,3.89,1.21l4.37,3.14c1.47,1.06,3.45,1.06,4.92,0l4.43-3.18c1.11-.8,2.45-1.14,3.82-1.17,1.44-.03,2.83-.54,3.95-1.45l6.25-5.1c1.7-1.39.72-4.15-1.48-4.15Z"/>
            <g>
              <rect class="cls-26" x="679.3" y="352.72" width="12.24" height="1.84" rx=".92" ry=".92"/>
              <rect class="cls-26" x="682.6" y="355.5" width="8.94" height="1.84" rx=".92" ry=".92"/>
              <rect class="cls-26" x="686.08" y="358.29" width="5.46" height="1.84" rx=".92" ry=".92"/>
              <rect class="cls-26" x="702.37" y="352.72" width="12.24" height="1.84" rx=".92" ry=".92" transform="translate(1416.98 707.28) rotate(180)"/>
              <rect class="cls-26" x="702.37" y="355.5" width="8.94" height="1.84" rx=".92" ry=".92" transform="translate(1413.68 712.85) rotate(-180)"/>
              <rect class="cls-26" x="702.37" y="358.29" width="5.46" height="1.84" rx=".92" ry=".92" transform="translate(1410.2 718.41) rotate(-180)"/>
            </g>
            <path class="cls-20" d="M575.49,396.58h38.04v28.6c0,5.21-4.23,9.45-9.45,9.45h-19.15c-5.21,0-9.45-4.23-9.45-9.45v-28.6h0Z"/>
            <path class="cls-20" d="M676.07,396.58h41.25v31.01c0,5.65-4.59,10.24-10.24,10.24h-20.76c-5.65,0-10.24-4.59-10.24-10.24v-31.01h0Z"/>
            <g>
              <line class="cls-2" x1="641.37" y1="320.09" x2="641.37" y2="512.12"/>
              <circle class="cls-20" cx="633.65" cy="332.51" r="3.96"/>
              <circle class="cls-20" cx="633.65" cy="359.27" r="3.96"/>
              <circle class="cls-20" cx="633.65" cy="386.02" r="3.96"/>
              <circle class="cls-20" cx="633.65" cy="412.77" r="3.96"/>
              <circle class="cls-20" cx="633.65" cy="439.53" r="3.96"/>
              <circle class="cls-20" cx="633.65" cy="466.28" r="3.96"/>
            </g>
          </g>
        </g>
        <g>
          <path class="cls-36" d="M714.72,486.35c-1.64,13.46,6.58,25.82,19.55,29.41,16.35,4.53,33.49-6.47,36.36-23.35l5.4-70.74-60.2-2.9-1.11,67.57Z"/>
          <path class="cls-36" d="M756.45,317.61c-18.77-3.57-37.11,9.89-39.43,28.94l-1.19,72.24,60.2,2.9,5.21-68.17c2.88-16.95-8-32.71-24.8-35.91Z"/>
          <line class="cls-5" x1="716.91" y1="353.38" x2="714.93" y2="473.75"/>
          <line class="cls-5" x1="778.12" y1="394.41" x2="771.32" y2="483.39"/>
        </g>
        <g>
          <g>
            <path class="cls-49" d="M591.3,443.84l-8.98,12.2,17.89,13.82c2.36.46,4.72.92,7.09,1.37.05-.14.26-.78.93-1.14.9-.49,1.81-.02,1.89.02,1.06,1.32,2.68,3.18,4.94,5.11,1.26,1.08,2.06,1.77,3.22,2.45,2.91,1.71,5.67,1.94,9.42,2.22,2.09.15,4.9.21,8.24-.14l4.36-.78,2.14-17.86-1.86-2.14c-1.62-1.98-3.62-4.12-6.09-6.24-5.5-4.71-11.07-7.36-15.2-8.88l-16.31-4.19c-4.37-1.12-8.99.52-11.66,4.16Z"/>
            <g>
              <path class="cls-49" d="M616.3,462.78h0c-.91-2.53-3.72-3.85-6.24-2.94l-18.27,6.15c-2.53.91-3.85,3.72-2.94,6.24h0c.91,2.53,3.72,3.85,6.24,2.94l18.27-6.15c2.53-.91,3.85-3.72,2.94-6.24Z"/>
              <path class="cls-7" d="M591.79,465.99c-2.53.91-3.85,3.72-2.94,6.24h0c.91,2.53,3.72,3.85,6.24,2.94l15.02-5.06"/>
            </g>
            <g>
              <path class="cls-49" d="M613.6,455.15h0c-.92-2.52-3.73-3.83-6.26-2.92l-24.14,8.39c-2.52.92-3.83,3.73-2.92,6.26h0c.92,2.52,3.73,3.83,6.26,2.92l24.14-8.39c2.52-.92,3.83-3.73,2.92-6.26Z"/>
              <path class="cls-7" d="M583.21,460.62c-2.52.92-3.83,3.73-2.92,6.26h0c.92,2.52,3.73,3.83,6.26,2.92l16.21-5.63"/>
            </g>
            <g>
              <path class="cls-49" d="M609.45,449.97h0c-.73-2.58-3.44-4.1-6.02-3.37l-24.7,6.59c-2.58.73-4.1,3.44-3.37,6.02h0c.73,2.58,3.44,4.1,6.02,3.37l24.7-6.59c2.58-.73,4.1-3.44,3.37-6.02Z"/>
              <path class="cls-7" d="M578.73,453.19c-2.58.73-4.1,3.44-3.37,6.02h0c.73,2.58,3.44,4.1,6.02,3.37l19.73-5.26"/>
            </g>
            <g>
              <path class="cls-49" d="M603.57,443.39h0c-.45-2.65-2.99-4.44-5.63-3.99l-25.25,3.94c-2.65.45-4.44,2.99-3.99,5.63h0c.45,2.65,2.99,4.44,5.63,3.99l25.25-3.94c2.65-.45,4.44-2.99,3.99-5.63Z"/>
              <path class="cls-7" d="M572.68,443.34c-2.65.45-4.44,2.99-3.99,5.63h0c.45,2.65,2.99,4.44,5.63,3.99l21.94-3.48"/>
            </g>
          </g>
          <path class="cls-36" d="M731.85,515.28l-104.36-30.69,9.04-37.79,111.14,14.09c15.27,2.83,25.46,17.37,22.89,32.68h0c-3,17.94-21.84,28.5-38.71,21.7Z"/>
          <path class="cls-10" d="M736.86,516.8c-1.68-.34-3.36-.84-5.01-1.51l-104.36-30.69,9.04-37.79"/>
        </g>
        <g>
          <path class="cls-23" d="M680.38,147.45c5.9-1.18,11.6,5.09,13.94,9.69,1.82,3.57,2.02,6.96,2.28,10.59.28,3.91-.08,7.3-.58,9.94-2.13,15.1-4.26,30.19-6.39,45.29-3.2,1.48-14.59,6.49-18.89,2.11-1.54-1.57-1.61-3.76-1.64-5.76-.12-9.5-.52-19.46-1.27-29.82-.45-6.28-1.01-12.39-1.66-18.32l-9,.92c-.88-1.73-.98-3.12-.89-4.06.4-4.67,5.97-8.95,13.93-10.29l4.62-6.55c1.09-1.39,2.93-3.21,5.55-3.73Z"/>
          <path class="cls-23" d="M588.87,150.04c3.76-.81,7.42,2.18,8.74,7.14.78,2.92,1.45,6.48,1.66,10.59.21,3.91-.05,7.3-.4,9.94l-2.76,42.34c-2.32,2.46-7,1.71-10.76.8-1.89-.46-3.3-2.04-3.55-3.96-1.61-12.34-3.22-24.68-4.84-37.02-.34-2.95-.51-6.99.23-11.69.68-4.32,1.9-7.85,3.02-10.44l3.32-6.54c1.78-.38,3.56-.77,5.34-1.15Z"/>
          <path class="cls-23" d="M580.2,157.74c-1.12,2.59-2.35,6.13-3.02,10.44-.74,4.7-.57,8.74-.23,11.69,1.37,10.49,2.74,20.98,4.11,31.46,2.61,2.57,5.08,4.68,6.94,5.56,2.35,1.12,5.35,1.13,8.26.69l2.6-39.88c.36-2.64.61-6.03.4-9.94-.22-4.11-.89-7.67-1.66-10.59-1.11-4.18-3.88-6.95-6.98-7.24l-8.34,3.69-2.08,4.1Z"/>
          <path class="cls-3" d="M612.54,251.99c1.52.74,4.63,1.91,8.63.95,2.15-.51,3.96-1.5,5.35-2.47"/>
          <g>
            <path class="cls-49" d="M651.83,270.59h0c-7.65,6.31-17.25,9.76-27.16,9.76h0c-11.61,0-22.26-6.45-27.64-16.74h0c-10.71-20.49-15.84-43.44-14.87-66.54l.85-20.33c.54-12.92,9.64-23.88,22.23-26.81h0s18.16-4.46,18.16-4.46l19.55,5.46,33.87,3.34c4.23-.03,7.68,3.38,4.07-4.51l.39,57.79c.16,24.37-10.65,47.52-29.45,63.03Z"/>
            <path class="cls-49" d="M681.2,196.82l-.28-41.9c-1.04-.18-2.51-.65-4.1-.64l-33.87-3.34-19.55-5.46-18.16,4.46c-12.59,2.92-21.69,13.89-22.23,26.81l-.85,20.33c-.22,5.21-.11,10.41.29,15.58,2.09,1.96,4.04,3.52,5.56,4.24,6.63,3.15,18.54-2.44,18.54-2.44,0,0,5.39,1.78,36.06,0,11.72-.68,25.74-8.38,38.6-17.63Z"/>
            <path class="cls-5" d="M669.06,250.89c-4.59,7.38-10.38,14.05-17.23,19.7h0c-7.65,6.31-17.25,9.76-27.16,9.76h0c-10.12,0-19.51-4.9-25.32-12.98"/>
          </g>
          <path class="cls-3" d="M607.95,195.02c-2.1,4.89-.42,19.51-2.25,25.61-.92,3.08-2.96,6.09-3.63,8.95-.47,1.99.71,4.01,2.67,4.57,1.49.42,3.24.76,5.21.85,2.33.1,4.32-.17,5.86-.5"/>
          <circle class="cls-40" cx="636.69" cy="205.43" r="3.08"/>
          <circle class="cls-40" cx="599.9" cy="205.65" r="3.08"/>
          <rect class="cls-23" x="668.55" y="156.59" width="16.67" height="56.85"/>
          <path class="cls-23" d="M663.01,160.37h6.04v60.48h0c-3.33,0-6.04-2.71-6.04-6.04v-54.43h0Z"/>
          <path class="cls-41" d="M651.83,154.76h0c6.18,0,11.18,5.01,11.18,11.18v6l13.46-19.63-3.79-8.05h-15.34l-5.52,10.5Z"/>
          <path class="cls-23" d="M696.01,177.67c-.4,2.84-.8,5.68-1.2,8.53-7.82,6.55-16.77,13.33-25.76,18.6-2.02,1.18-4.03,2.29-6.04,3.3v-48.06c1.62-.84,3.48-1.51,5.54-1.98v-1.47h2.45l3.82-5.41c1.09-1.38,2.94-3.21,5.55-3.73,5.9-1.18,11.6,5.09,13.95,9.69,1.82,3.56,2.02,6.96,2.28,10.58.27,3.91-.09,7.3-.59,9.95Z"/>
          <g>
            <circle class="cls-49" cx="680.63" cy="215.77" r="13.47"/>
            <path class="cls-5" d="M677.91,228.97c7.29,1.5,14.41-3.19,15.92-10.47.74-3.6-.03-7.16-1.88-10.03"/>
            <path class="cls-13" d="M688.86,213.89s.26,8.57-7.81,8.93"/>
          </g>
          <path d="M578.59,161.88s52.14-16.41,117.41.56c0,0-.38-33.94-58.81-33.94s-58.6,33.37-58.6,33.37Z"/>
          <path class="cls-3" d="M624.22,247.74s-6.89,6.96-15.12,0"/>
          <path class="cls-3" d="M587.97,197.08c1.72-.44,4.48-.92,7.84-.53,3.84.45,6.72,1.84,8.33,2.78"/>
          <path class="cls-3" d="M622.8,199.44c2.03-.91,4.98-1.97,8.67-2.44,3.35-.43,6.22-.23,8.3.08"/>
        </g>
        <g>
          <g>
            <path class="cls-49" d="M704.34,437.46l7.72,14.32-21.1,12.02c-2.58.13-5.16.27-7.74.4-.03-.16-.16-.87-.82-1.35-.89-.65-1.93-.29-2.01-.26-1.32,1.25-3.33,2.98-6.02,4.7-1.5.96-2.46,1.58-3.79,2.12-3.35,1.38-6.32,1.22-10.35.95-2.24-.15-5.25-.51-8.75-1.38l-4.52-1.48.4-19.32,2.3-2c2.01-1.86,4.47-3.84,7.41-5.72,6.56-4.18,12.88-6.17,17.5-7.16l17.97-2.01c4.82-.54,9.48,1.9,11.78,6.17Z"/>
            <g>
              <path class="cls-49" d="M674.9,453.86h0c1.34-2.55,4.53-3.54,7.08-2.2l18.51,9.28c2.55,1.34,3.54,4.53,2.2,7.08h0c-1.34,2.55-4.53,3.54-7.08,2.2l-18.51-9.28c-2.55-1.34-3.54-4.53-2.2-7.08Z"/>
              <path class="cls-6" d="M700.49,460.95c2.55,1.34,3.54,4.53,2.2,7.08h0c-1.34,2.55-4.53,3.54-7.08,2.2l-15.22-7.63"/>
            </g>
            <g>
              <path class="cls-49" d="M678.92,446.15h0c1.35-2.54,4.55-3.52,7.09-2.16l24.42,12.54c2.54,1.35,3.52,4.55,2.16,7.09h0c-1.35,2.54-4.55,3.52-7.09,2.16l-24.42-12.54c-2.54-1.35-3.52-4.55-2.16-7.09Z"/>
              <path class="cls-6" d="M710.43,456.52c2.54,1.35,3.52,4.55,2.16,7.09h0c-1.35,2.54-4.55,3.52-7.09,2.16l-16.4-8.42"/>
            </g>
            <g>
              <path class="cls-49" d="M684.11,441.26h0c1.16-2.64,4.27-3.84,6.91-2.68l25.28,10.71c2.64,1.16,3.84,4.27,2.68,6.91h0c-1.16,2.64-4.27,3.84-6.91,2.68l-25.28-10.71c-2.64-1.16-3.84-4.27-2.68-6.91Z"/>
              <path class="cls-6" d="M716.3,449.29c2.64,1.16,3.84,4.27,2.68,6.91h0c-1.16,2.64-4.27,3.84-6.91,2.68l-20.2-8.56"/>
            </g>
            <g>
              <path class="cls-49" d="M691.35,435.15h0c.88-2.75,3.84-4.27,6.59-3.4l26.27,7.97c2.75.88,4.27,3.84,3.4,6.59h0c-.88,2.75-3.84,4.27-6.59,3.4l-26.27-7.97c-2.75-.88-4.27-3.84-3.4-6.59Z"/>
              <path class="cls-6" d="M724.21,439.72c2.75.88,4.27,3.84,3.4,6.59h0c-.88,2.75-3.84,4.27-6.59,3.4l-22.81-7"/>
            </g>
          </g>
          <path class="cls-36" d="M538.5,454.5l115.55-17.37,8.31,40.9-114.64,36.61c-16.15,4.16-32.66-5.39-37.1-21.47h0c-5.2-18.84,8.36-37.65,27.88-38.67Z"/>
          <path class="cls-5" d="M532.93,455.3c1.79-.43,3.65-.7,5.57-.8l115.55-17.37,8.31,40.9"/>
        </g>
      </g>
      <g>
        <g>
          <path class="cls-20" d="M704.83,150.46h0c0-5.46-3.14-10.42-8.06-12.77l-69.56-33.17c-5.39-2.57-11.3-3.91-17.27-3.91h0c-11.65,0-22.73,5.06-30.35,13.87l-9.41,10.88c-4.26,4.93-6.61,11.22-6.61,17.73v4.03c0,7.69,4.23,14.76,11.01,18.39h0c2.16,1.16,4.57,1.73,7.02,1.67l109.42-2.59c7.68-.18,13.81-6.46,13.81-14.15Z"/>
          <path class="cls-20" d="M704.83,150.46h0c0-5.46-3.14-10.42-8.06-12.77l-69.56-33.17c-5.39-2.57-11.3-3.91-17.27-3.91h0c-11.65,0-22.73,5.06-30.35,13.87l-9.41,10.88c-4.26,4.93-6.61,11.22-6.61,17.73v4.03c0,7.69,4.23,14.76,11.01,18.39h0c2.16,1.16,4.57,1.73,7.02,1.67l109.42-2.59c7.68-.18,13.81-6.46,13.81-14.15Z"/>
          <path class="cls-5" d="M609.94,100.61h0c-11.65,0-22.73,5.06-30.35,13.87l-9.41,10.88c-4.26,4.93-6.61,11.22-6.61,17.73v4.03c0,7.69,4.23,14.76,11.01,18.39h0"/>
          <rect class="cls-47" x="575.77" y="164.31" width="120.1" height="11.48" rx="5.74" ry="5.74" transform="translate(1271.64 340.09) rotate(180)"/>
          <path class="cls-31" d="M581.51,175.78l-10.44,12.2c-2.95,3.45-.5,8.77,4.04,8.77h35.88c8.17,0,16.21-2.01,23.41-5.86l28.3-15.11h-81.19Z"/>
          <ellipse class="cls-47" cx="601.82" cy="137.47" rx="14.42" ry="19.64"/>
          <circle class="cls-39" cx="686.53" cy="170.04" r="2.58"/>
        </g>
        <path class="cls-5" d="M650.88,175.78h39.25c3.16,0,5.74-2.58,5.74-5.74,0-2.59-1.74-4.79-4.1-5.5,0,0-.78-.24-2.94-.24h-59.53"/>
        <path class="cls-5" d="M691.95,164.55c6.83-.61,12.23-6.05,12.83-12.84"/>
      </g>
    </g>
    <g class="cls-17">
      <g>
        <rect class="cls-46" x="-47.36" y="129.13" width="481.01" height="89.18" transform="translate(386.29 347.44) rotate(180)"/>
        <rect class="cls-8" x="-101.28" y="117.41" width="546.1" height="112.61" transform="translate(343.55 347.44) rotate(180)"/>
      </g>
      <g>
        <path class="cls-21" d="M36.59,445.99c-2.2,17.61,25.24,58.34,53.21,65.98,0,0-19.35-86.19-17.53-158.44l-35.67,92.45Z"/>
        <polygon class="cls-15" points="59.87 128.6 55.51 137.74 55.51 573.44 59.87 573.44 59.87 128.6"/>
        <path class="cls-29" d="M36.59,445.99c2.19-1.46,51.68-80.8,51.68-80.8,0,0-19.65-234.4-29.11-244.59-9.47-10.19-22.57,325.39-22.57,325.39Z"/>
        <path class="cls-15" d="M64.25,116.04c0-3.12-2.04-5.64-4.55-5.64s-4.55,2.53-4.55,5.64,2.04,5.64,4.55,5.64,4.55-2.53,4.55-5.64Z"/>
      </g>
    </g>
  </g>
  <g>
    <path class="cls-42" d="M56.92,137.76h7.49v12.63l13.63-12.63h8.61l-8.61,7.96c3.19.83,5.41,2.16,6.67,4.01,1.26,1.85,1.89,4.31,1.89,7.38v12.21h-7.49v-11.68c0-2.24-.4-3.93-1.21-5.07-.81-1.14-2.27-1.95-4.4-2.42l-9.09,8.44v10.74h-7.49v-31.56Z"/>
    <path class="cls-42" d="M103.88,149.15c0-2.32-.46-3.97-1.39-4.96-.92-.98-2.59-1.48-4.99-1.48-2.2,0-4.45.57-6.73,1.71v-5.84c.94-.47,2.19-.88,3.75-1.21,1.55-.33,3.08-.5,4.57-.5,4.05,0,7.11,1.1,9.17,3.3,2.06,2.2,3.1,5.35,3.1,9.44v19.71h-7.49v-20.18Z"/>
    <path class="cls-42" d="M120.22,150.09l-2.95-4.9c2.16-2.71,4.65-4.78,7.46-6.2,2.81-1.42,6.07-2.12,9.76-2.12,4.92,0,8.68,1.1,11.3,3.3,2.62,2.2,3.92,5.25,3.92,9.15v20h-7.49v-19.41c0-2.44-.65-4.25-1.95-5.43-1.3-1.18-3.23-1.77-5.78-1.77-1.93,0-3.63.28-5.1.83-1.48.55-2.84,1.46-4.1,2.71l2.42,3.89v19.17h-7.49v-19.23Z"/>
    <path class="cls-42" d="M156.8,150.21c0-4.25,1.41-7.53,4.22-9.85,2.81-2.32,6.62-3.48,11.42-3.48s8.59,1.16,11.39,3.48c2.79,2.32,4.19,5.61,4.19,9.85v19.12h-7.49v-19.41c0-2.4-.7-4.2-2.09-5.4-1.4-1.2-3.39-1.8-5.99-1.8s-4.6.59-6.02,1.77c-1.42,1.18-2.12,2.99-2.12,5.43v5.19c.51-.83,1.27-1.49,2.27-2.01,1-.51,2.17-.77,3.51-.77h4.78v6.25h-5.31c-1.53,0-2.79.5-3.78,1.5-.98,1-1.47,2.21-1.47,3.63v5.6h-7.49v-19.12Z"/>
    <path class="cls-42" d="M181.47,179.06c0-.71-.12-1.2-.35-1.48-.24-.28-.71-.41-1.42-.41h-2.06v-4.78h5.49c1.97,0,3.3.36,4.01,1.09.71.73,1.06,2.05,1.06,3.98v7.67h-6.73v-6.08Z"/>
    <path class="cls-42" d="M223.03,168.65c-1.75-1.04-3.08-2.48-3.98-4.31-.91-1.83-1.36-3.86-1.36-6.11v-8.32c0-2.48-.59-4.3-1.77-5.46-1.18-1.16-2.97-1.74-5.37-1.74-1.81,0-3.4.28-4.78.83-1.38.55-2.66,1.46-3.84,2.71l2.42,3.89v10.15c0,1.02.23,1.74.68,2.15.45.41,1.21.62,2.27.62h3.19v6.25h-7.2c-2.09,0-3.68-.59-4.78-1.77-1.1-1.18-1.65-2.79-1.65-4.84v-12.63l-2.95-4.9c2.16-2.71,4.59-4.78,7.29-6.2,2.69-1.42,5.81-2.12,9.35-2.12,4.76,0,8.38,1.09,10.86,3.27,2.48,2.18,3.72,5.24,3.72,9.17v8.56c0,2.2.51,3.83,1.53,4.9,1.02,1.06,2.63,1.59,4.84,1.59,1.73,0,3.31-.42,4.75-1.27,1.44-.85,2.51-2.04,3.22-3.57v-21.77h7.43v31.56h-7.2v-3.72c-2.48,3.07-5.92,4.6-10.33,4.6-2.48,0-4.59-.52-6.34-1.56Z"/>
    <path class="cls-42" d="M256.99,166.17c-2.79-2.69-4.19-6.64-4.19-11.83,0-3.54.51-6.63,1.53-9.26,1.02-2.63,2.44-4.66,4.25-6.08,1.81-1.42,3.83-2.12,6.08-2.12,2.91,0,5.03,1.12,6.37,3.36.75-1.18,1.81-2.04,3.19-2.57,1.38-.53,2.89-.8,4.54-.8,2.83,0,4.98.9,6.43,2.68,1.45,1.79,2.18,4.18,2.18,7.17v22.6h-7.49v-22.07c0-1.57-.24-2.72-.71-3.45-.47-.73-1.28-1.09-2.42-1.09-1.97,0-3.17,1.14-3.6,3.42h-4.19c-.24-2.28-1.26-3.42-3.07-3.42-1.61,0-2.92.99-3.92,2.98-1,1.99-1.5,4.87-1.5,8.64,0,6.69,3.05,10.03,9.15,10.03,1.46,0,2.81-.2,4.07-.59v5.72c-1.53.47-3.32.71-5.37.71-4.76,0-8.54-1.35-11.33-4.04Z"/>
    <path class="cls-42" d="M296.22,150.09l-2.95-4.9c2.16-2.71,4.65-4.78,7.46-6.2,2.81-1.42,6.07-2.12,9.76-2.12,4.92,0,8.68,1.1,11.3,3.3,2.62,2.2,3.92,5.25,3.92,9.15v20h-7.49v-19.41c0-2.44-.65-4.25-1.95-5.43-1.3-1.18-3.23-1.77-5.78-1.77-1.93,0-3.63.28-5.1.83-1.48.55-2.84,1.46-4.1,2.71l2.42,3.89v19.17h-7.49v-19.23Z"/>
    <path class="cls-42" d="M334.42,167.58c-1.08-1.16-1.62-2.78-1.62-4.87v-24.96h7.49v22.6c0,1.02.22,1.73.65,2.12.43.39,1.14.59,2.12.59h2.06v6.25h-6.02c-2.05,0-3.61-.58-4.69-1.74Z"/>
    <path class="cls-42" d="M358.44,168.5c-2.38-1.14-4.21-2.72-5.49-4.75-1.28-2.03-1.92-4.34-1.92-6.93v-19.06h7.49v18.76c0,2.48.69,4.41,2.06,5.78,1.38,1.38,3.42,2.06,6.14,2.06s4.7-.69,6.08-2.06,2.06-3.3,2.06-5.78v-29.32h7.49v29.62c0,2.6-.64,4.91-1.92,6.93-1.28,2.03-3.1,3.61-5.46,4.75-2.36,1.14-5.11,1.71-8.26,1.71s-5.91-.57-8.29-1.71Z"/>
    <path class="cls-42" d="M352.8,131.95c-1.3-1.2-1.95-2.8-1.95-4.81,0-2.52.73-4.42,2.18-5.69,1.46-1.28,3.44-1.92,5.96-1.92h13.16v4.07h-12.63c-1.18,0-2.07.24-2.68.71-.61.47-.91,1.24-.91,2.3,0,.94.25,1.66.74,2.15.49.49,1.19.74,2.09.74.98,0,1.74-.27,2.27-.83.53-.55.8-1.28.8-2.18h4.01c0,.94.28,1.64.83,2.09.55.45,1.32.68,2.3.68h2.3v4.25h-2.18c-1.34,0-2.49-.26-3.45-.77-.96-.51-1.58-1.14-1.86-1.89-.35.79-1.06,1.47-2.12,2.04-1.06.57-2.26.86-3.6.86-2.2,0-3.95-.6-5.25-1.8Z"/>
    <path class="cls-42" d="M395.11,168.65c-1.85-1.04-3.26-2.48-4.22-4.31-.96-1.83-1.45-3.86-1.45-6.11v-20.47h7.49v20.12c0,4.33,2.3,6.49,6.9,6.49,3.62,0,6.45-1.61,8.5-4.84v-21.77h7.49v31.56h-7.2v-3.89c-1.5,1.57-3.2,2.76-5.1,3.57-1.91.81-3.85,1.21-5.81,1.21-2.56,0-4.76-.52-6.61-1.56Z"/>
    <path class="cls-42" d="M428.53,167.58c-1.08-1.16-1.62-2.78-1.62-4.87v-24.96h7.49v22.6c0,1.02.22,1.73.65,2.12.43.39,1.14.59,2.12.59h2.06v6.25h-6.02c-2.05,0-3.61-.58-4.69-1.74Z"/>
    <path class="cls-42" d="M445.14,137.76h7.49v12.63l13.63-12.63h8.61l-8.61,7.96c3.19.83,5.41,2.16,6.67,4.01,1.26,1.85,1.89,4.31,1.89,7.38v12.21h-7.49v-11.68c0-2.24-.4-3.93-1.21-5.07-.81-1.14-2.27-1.95-4.4-2.42l-9.09,8.44v10.74h-7.49v-31.56Z"/>
    <path class="cls-42" d="M485.02,167.5c-2.83-1.81-4.25-4.37-4.25-7.67,0-1.61.47-3.07,1.42-4.37.94-1.3,2.16-2.2,3.66-2.71-1.42-.67-2.57-1.63-3.45-2.89-.88-1.26-1.33-2.67-1.33-4.25,0-2.63.9-4.75,2.71-6.34,1.81-1.59,4.48-2.39,8.02-2.39,1.1,0,2.16.07,3.19.21,1.02.14,1.83.31,2.42.5v5.84c-.51-.24-1.17-.41-1.98-.53-.81-.12-1.52-.18-2.15-.18-3.03,0-4.54,1.12-4.54,3.36,0,1.22.37,2.12,1.12,2.71.75.59,1.95.89,3.6.89h3.95v6.08h-3.95c-3.34,0-5.02,1.36-5.02,4.07,0,1.42.7,2.53,2.09,3.33,1.4.81,3.31,1.21,5.75,1.21,3.07,0,5.32-.63,6.76-1.89,1.44-1.26,2.15-3.11,2.15-5.55v-19.23h7.49v19.12c0,2.24-.54,4.38-1.62,6.4-1.08,2.03-2.85,3.7-5.31,5.02-2.46,1.32-5.62,1.98-9.47,1.98-4.68,0-8.44-.9-11.27-2.71Z"/>
    <path class="cls-42" d="M486.5,128.67h11.45v-6.37h5.25v6.37h4.48v-6.37h5.19v11.15h-26.37v-4.78Z"/>
    <path class="cls-42" d="M506.08,111.03h6.73v8.08h-6.73v-8.08Z"/>
    <path class="cls-42" d="M524.67,169.38c-2.44-.55-4.46-1.32-6.08-2.3v-16.52h14.16v6.08h-6.67v6.55c1.45.79,3.46,1.18,6.02,1.18,3.46,0,6.08-.94,7.85-2.83,1.77-1.89,2.66-4.64,2.66-8.26,0-2.48-.39-4.48-1.18-6.02-.79-1.53-2.08-2.67-3.89-3.42-1.81-.75-4.25-1.12-7.32-1.12-2.01,0-4.04.21-6.11.62-2.06.41-3.79,1.01-5.16,1.8v-5.84c1.57-.79,3.45-1.39,5.63-1.8s4.49-.62,6.93-.62c5.98,0,10.6,1.43,13.87,4.28,3.26,2.85,4.9,6.89,4.9,12.12s-1.56,9.36-4.69,12.39c-3.13,3.03-7.62,4.54-13.48,4.54-2.52,0-5-.28-7.43-.83Z"/>
    <path class="cls-42" d="M69.22,246.08c-1.91-.81-3.61-2-5.1-3.57v3.89h-7.2v-31.56h7.49v21.77c2.04,3.23,4.88,4.84,8.5,4.84,4.64,0,6.96-2.16,6.96-6.49v-20.12h7.43v20.47c0,2.24-.48,4.28-1.45,6.11-.96,1.83-2.37,3.27-4.22,4.31-1.85,1.04-4.05,1.56-6.61,1.56-1.97,0-3.9-.4-5.81-1.21Z"/>
    <path class="cls-42" d="M60.93,205.76h26.37v4.78h-26.37v-4.78Z"/>
    <path class="cls-42" d="M94.44,229.06h7.43l2.83,11.51c3.3,0,5.97-.88,7.99-2.63,2.03-1.75,3.04-4.24,3.04-7.46,0-3.46-.88-6.11-2.65-7.94-1.77-1.83-4.7-2.74-8.79-2.74-1.97,0-3.97.2-6.02.59-2.05.39-3.74.91-5.07,1.53v-5.84c1.53-.67,3.36-1.19,5.49-1.56,2.12-.37,4.31-.56,6.55-.56,5.7,0,10.16,1.44,13.36,4.31,3.21,2.87,4.81,6.94,4.81,12.21,0,3.19-.79,5.98-2.36,8.38-1.57,2.4-3.72,4.26-6.43,5.58-2.71,1.32-5.68,1.98-8.91,1.98h-6.96l-4.31-17.35Z"/>
    <path class="cls-42" d="M131.79,244.17c-2.01-2.08-3.01-4.94-3.01-8.55v-7.2h7.49v6.73c0,2.16.53,3.76,1.59,4.78,1.06,1.02,2.71,1.53,4.96,1.53,1.73,0,3.32-.42,4.78-1.27,1.45-.85,2.62-2.04,3.48-3.57v-6.96c0-3.38-.79-5.87-2.36-7.46-1.57-1.59-4.39-2.39-8.44-2.39-2.09,0-4.29.2-6.61.59-2.32.39-4.17.91-5.55,1.53v-5.84c1.49-.63,3.45-1.14,5.87-1.53,2.42-.39,4.77-.59,7.05-.59,6.14,0,10.59,1.29,13.36,3.86,2.77,2.58,4.16,6.42,4.16,11.53v17.05h-7.2v-3.89c-1.22,1.57-2.78,2.76-4.69,3.57-1.91.81-3.96,1.21-6.17,1.21-3.82,0-6.73-1.04-8.73-3.13Z"/>
    <path class="cls-42" d="M175.8,226.23c0-2.32-.46-3.97-1.39-4.96-.92-.98-2.59-1.48-4.99-1.48-2.2,0-4.45.57-6.73,1.71v-5.84c.94-.47,2.19-.88,3.75-1.21,1.55-.33,3.08-.5,4.57-.5,4.05,0,7.11,1.1,9.17,3.3,2.06,2.2,3.1,5.35,3.1,9.44v19.71h-7.49v-20.18Z"/>
    <path class="cls-42" d="M196.51,245.79c-2.2-1-3.91-2.4-5.13-4.19-1.22-1.79-1.83-3.82-1.83-6.11v-1.48c0-1.38.29-2.65.89-3.83.59-1.18,1.4-2.5,2.42-3.95.71-1.06,1.2-1.83,1.48-2.3.27-.47.41-.94.41-1.42,0-1.18-.73-1.77-2.18-1.77h-3.36v-5.9h7.32c1.77,0,3.18.5,4.22,1.5,1.04,1,1.56,2.35,1.56,4.04,0,1.18-.23,2.26-.68,3.25-.45.98-1.11,2.18-1.98,3.6-.87,1.42-1.51,2.59-1.95,3.51-.43.92-.65,1.92-.65,2.98v1.48c0,1.97.62,3.5,1.86,4.6,1.24,1.1,3,1.65,5.28,1.65,2.4,0,4.24-.66,5.52-1.98,1.28-1.32,1.92-3.25,1.92-5.81,0-5.15-2.1-7.73-6.31-7.73v-3.95l6.02-8.02h8.02l-6.55,8.73c2.24,1.06,3.85,2.48,4.84,4.25.98,1.77,1.48,4.01,1.48,6.73s-.61,4.99-1.83,7.05c-1.22,2.06-2.96,3.68-5.22,4.84-2.26,1.16-4.89,1.74-7.88,1.74s-5.47-.5-7.67-1.5Z"/>
    <path class="cls-42" d="M191.91,205.76h19.65v-6.37h6.73v11.15h-26.37v-4.78Z"/>
    <path class="cls-42" d="M223.47,214.84h7.49l5.07,21.18,6.14-21.18h5.55l6.14,21.18,5.07-21.18h7.49l-8.79,31.56h-6.31l-6.37-21.71-6.37,21.71h-6.31l-8.79-31.56Z"/>
  </g>
  <g>
    <path class="cls-42" d="M55.26,367.21h3.89l1.48,6.02c1.73,0,3.12-.46,4.18-1.37,1.06-.91,1.59-2.22,1.59-3.9,0-1.81-.46-3.19-1.39-4.15-.93-.96-2.46-1.43-4.6-1.43-1.03,0-2.08.1-3.15.31-1.07.21-1.95.47-2.65.8v-3.05c.8-.35,1.76-.62,2.87-.82,1.11-.2,2.25-.29,3.42-.29,2.98,0,5.31.75,6.99,2.25,1.68,1.5,2.51,3.63,2.51,6.39,0,1.67-.41,3.13-1.23,4.38-.82,1.25-1.94,2.23-3.36,2.92s-2.97,1.03-4.66,1.03h-3.64l-2.25-9.07Z"/>
    <path class="cls-42" d="M78.8,365.73c0-1.21-.24-2.08-.73-2.59-.48-.51-1.35-.77-2.61-.77-1.15,0-2.32.3-3.52.9v-3.05c.49-.25,1.15-.46,1.96-.63.81-.17,1.61-.26,2.39-.26,2.12,0,3.72.58,4.8,1.73,1.08,1.15,1.62,2.8,1.62,4.94v10.3h-3.92v-10.55Z"/>
    <path class="cls-42" d="M87.34,366.22l-1.54-2.56c1.13-1.42,2.43-2.5,3.9-3.24,1.47-.74,3.17-1.11,5.11-1.11,2.57,0,4.54.58,5.91,1.73,1.37,1.15,2.05,2.75,2.05,4.78v10.46h-3.92v-10.15c0-1.27-.34-2.22-1.02-2.84-.68-.62-1.69-.93-3.02-.93-1.01,0-1.9.14-2.67.43-.77.29-1.49.76-2.14,1.42l1.26,2.04v10.03h-3.92v-10.06Z"/>
    <path class="cls-42" d="M107.39,366.22l-1.54-2.56c1.13-1.42,2.43-2.5,3.9-3.24,1.47-.74,3.17-1.11,5.11-1.11,2.57,0,4.54.58,5.91,1.73,1.37,1.15,2.05,2.75,2.05,4.78v10.46h-3.92v-10.15c0-1.27-.34-2.22-1.02-2.84-.68-.62-1.69-.93-3.02-.93-1.01,0-1.9.14-2.67.43-.77.29-1.49.76-2.14,1.42l1.26,2.04v10.03h-3.92v-10.06Z"/>
    <path class="cls-42" d="M131.82,365.73c0-1.21-.24-2.08-.73-2.59-.48-.51-1.35-.77-2.61-.77-1.15,0-2.32.3-3.52.9v-3.05c.49-.25,1.15-.46,1.96-.63.81-.17,1.61-.26,2.39-.26,2.12,0,3.72.58,4.8,1.73,1.08,1.15,1.62,2.8,1.62,4.94v10.3h-3.92v-10.55Z"/>
    <path class="cls-42" d="M141.77,376.37c-1.2-.25-2.14-.62-2.82-1.11v-3.05c.9.53,1.91.94,3.01,1.2s2.11.4,3.04.4c1.23,0,2.12-.12,2.67-.37.54-.25.82-.71.82-1.39,0-.47-.14-.85-.43-1.13-.29-.28-.68-.51-1.17-.69s-1.42-.48-2.78-.89c-1.77-.56-3.09-1.22-3.96-2-.87-.78-1.31-1.84-1.31-3.18,0-1.54.62-2.73,1.85-3.58,1.23-.84,2.9-1.26,5-1.26,1.11,0,2.17.12,3.19.35s1.86.55,2.51.94v3.21c-.68-.43-1.5-.78-2.45-1.05-.96-.27-1.92-.4-2.88-.4-2.2,0-3.3.6-3.3,1.79,0,.43.13.78.4,1.05.27.27.63.49,1.08.66.45.17,1.14.41,2.07.69l1.02.31c1.32.41,2.34.85,3.07,1.33.73.47,1.24,1.02,1.54,1.63.3.62.45,1.38.45,2.28,0,1.38-.59,2.49-1.76,3.35-1.17.85-2.93,1.28-5.27,1.28-1.17,0-2.36-.12-3.56-.37Z"/>
    <path class="cls-42" d="M157.06,375.32c-1.48-.95-2.22-2.28-2.22-4.01,0-.84.25-1.6.74-2.28.49-.68,1.13-1.15,1.91-1.42-.74-.35-1.34-.85-1.8-1.51-.46-.66-.69-1.4-.69-2.22,0-1.38.47-2.48,1.42-3.32.95-.83,2.34-1.25,4.2-1.25.58,0,1.13.04,1.67.11.53.07.96.16,1.26.26v3.05c-.27-.12-.61-.22-1.03-.28s-.8-.09-1.13-.09c-1.58,0-2.38.59-2.38,1.76,0,.64.2,1.11.59,1.42.39.31,1.02.46,1.88.46h2.07v3.18h-2.07c-1.75,0-2.62.71-2.62,2.13,0,.74.36,1.32,1.1,1.74.73.42,1.73.63,3.01.63,1.6,0,2.78-.33,3.53-.99.75-.66,1.13-1.62,1.13-2.9v-10.06h3.92v10c0,1.17-.28,2.29-.85,3.35-.57,1.06-1.49,1.93-2.78,2.62-1.29.69-2.94,1.03-4.95,1.03-2.45,0-4.41-.47-5.89-1.42Z"/>
    <path class="cls-42" d="M157.83,355.03h8.11c-.06-.25-.09-.49-.09-.74,0-.86.3-1.58.89-2.14.6-.56,1.36-.85,2.28-.85.99,0,1.77.3,2.34.91.58.61.86,1.32.86,2.14,0,.93-.32,1.69-.97,2.28-.65.6-1.49.89-2.51.89h-10.92v-2.5ZM170.03,355.32c.28-.28.42-.6.42-.97s-.14-.69-.42-.97c-.28-.28-.6-.42-.97-.42s-.69.14-.97.42-.42.6-.42.97.14.69.42.97c.28.28.6.42.97.42s.69-.14.97-.42Z"/>
    <path class="cls-42" d="M176.78,374.63c-1.45-1.41-2.17-3.47-2.17-6.19,0-1.89.38-3.52,1.13-4.89.75-1.37,1.83-2.42,3.24-3.15,1.41-.73,3.07-1.1,4.98-1.1,3.02,0,5.23.7,6.63,2.1,1.4,1.4,2.1,3.22,2.1,5.46v9.41h-3.92v-9.44c0-1.44-.38-2.54-1.13-3.32-.75-.77-1.98-1.16-3.69-1.16s-2.95.53-3.9,1.59c-.96,1.06-1.43,2.56-1.43,4.49,0,1.77.41,3.08,1.23,3.95.82.86,2,1.3,3.55,1.3.76,0,1.47-.1,2.13-.31v2.99c-.8.25-1.74.37-2.81.37-2.51,0-4.49-.7-5.94-2.11Z"/>
    <path class="cls-42" d="M196.39,359.78h3.76v2.04c.78-.82,1.69-1.44,2.73-1.87,1.04-.42,2.08-.63,3.13-.63,2.04,0,3.59.57,4.66,1.71,1.07,1.14,1.6,2.61,1.6,4.4v10.86h-3.92v-10.67c0-2.16-1.15-3.24-3.46-3.24-1.99,0-3.53.84-4.6,2.53v11.38h-3.92v-16.5Z"/>
    <path class="cls-42" d="M218.31,376.37c-1.2-.25-2.14-.62-2.82-1.11v-3.05c.9.53,1.91.94,3.01,1.2s2.11.4,3.04.4c1.23,0,2.12-.12,2.67-.37.54-.25.82-.71.82-1.39,0-.47-.14-.85-.43-1.13-.29-.28-.68-.51-1.17-.69s-1.42-.48-2.78-.89c-1.77-.56-3.09-1.22-3.96-2-.87-.78-1.31-1.84-1.31-3.18,0-1.54.62-2.73,1.85-3.58,1.23-.84,2.9-1.26,5-1.26,1.11,0,2.17.12,3.19.35s1.86.55,2.51.94v3.21c-.68-.43-1.5-.78-2.45-1.05-.96-.27-1.92-.4-2.88-.4-2.2,0-3.3.6-3.3,1.79,0,.43.13.78.4,1.05.27.27.63.49,1.08.66.45.17,1.14.41,2.07.69l1.02.31c1.32.41,2.34.85,3.07,1.33.73.47,1.24,1.02,1.54,1.63.3.62.45,1.38.45,2.28,0,1.38-.59,2.49-1.76,3.35-1.17.85-2.93,1.28-5.27,1.28-1.17,0-2.36-.12-3.56-.37Z"/>
    <path class="cls-42" d="M219.94,356.78c-.44-.49-.66-1.23-.66-2.22v-1.79h3.52v1.42c0,.33.06.55.19.66.12.11.35.17.68.17h7.34v2.5h-8.95c-.97,0-1.67-.25-2.11-.74Z"/>
    <path class="cls-42" d="M231.06,359.78h3.92l2.65,11.07,3.21-11.07h2.9l3.21,11.07,2.65-11.07h3.92l-4.6,16.5h-3.3l-3.33-11.35-3.33,11.35h-3.3l-4.6-16.5Z"/>
    <path class="cls-42" d="M257.9,375.32c-1.48-.95-2.22-2.28-2.22-4.01,0-.84.25-1.6.74-2.28.49-.68,1.13-1.15,1.91-1.42-.74-.35-1.34-.85-1.8-1.51-.46-.66-.69-1.4-.69-2.22,0-1.38.47-2.48,1.42-3.32.95-.83,2.34-1.25,4.2-1.25.58,0,1.13.04,1.67.11.53.07.96.16,1.26.26v3.05c-.27-.12-.61-.22-1.03-.28s-.8-.09-1.13-.09c-1.58,0-2.38.59-2.38,1.76,0,.64.2,1.11.59,1.42.39.31,1.02.46,1.88.46h2.07v3.18h-2.07c-1.75,0-2.62.71-2.62,2.13,0,.74.36,1.32,1.1,1.74.73.42,1.73.63,3.01.63,1.6,0,2.78-.33,3.53-.99.75-.66,1.13-1.62,1.13-2.9v-10.06h3.92v10c0,1.17-.28,2.29-.85,3.35-.57,1.06-1.49,1.93-2.78,2.62-1.29.69-2.94,1.03-4.95,1.03-2.45,0-4.41-.47-5.89-1.42Z"/>
    <path class="cls-42" d="M264.56,355.55c0-.86.23-1.52.68-1.96.45-.44,1.18-.66,2.19-.66h6.82v2.5h-5.24c-.35,0-.59.07-.72.22-.13.14-.2.39-.2.74v1.14h-3.52v-1.97Z"/>
    <path class="cls-42" d="M276.99,366.22l-1.54-2.56c1.13-1.42,2.43-2.5,3.9-3.24,1.47-.74,3.17-1.11,5.11-1.11,2.57,0,4.54.58,5.91,1.73,1.37,1.15,2.05,2.75,2.05,4.78v10.46h-3.92v-10.15c0-1.27-.34-2.22-1.02-2.84-.68-.62-1.69-.93-3.02-.93-1.01,0-1.9.14-2.67.43-.77.29-1.49.76-2.14,1.42l1.26,2.04v10.03h-3.92v-10.06Z"/>
    <path class="cls-42" d="M295.5,375.42v-3.08c1.27.91,3.05,1.36,5.34,1.36,1.87,0,3.32-.47,4.35-1.4,1.03-.94,1.54-2.35,1.54-4.24s-.51-3.31-1.54-4.26-2.48-1.42-4.35-1.42c-2.16,0-3.91.45-5.24,1.36v-3.08c1.42-.88,3.43-1.33,6.05-1.33,2.84,0,5.06.77,6.68,2.3,1.61,1.53,2.42,3.68,2.42,6.43s-.81,4.87-2.44,6.4c-1.62,1.53-3.85,2.3-6.66,2.3s-4.74-.44-6.14-1.33Z"/>
    <path class="cls-42" d="M306.24,352.22h3.92v5.31h-3.92v-5.31Z"/>
    <path class="cls-42" d="M319.13,365.73c0-1.21-.24-2.08-.73-2.59-.48-.51-1.35-.77-2.61-.77-1.15,0-2.32.3-3.52.9v-3.05c.49-.25,1.15-.46,1.96-.63.81-.17,1.61-.26,2.39-.26,2.12,0,3.72.58,4.8,1.73,1.08,1.15,1.62,2.8,1.62,4.94v10.3h-3.92v-10.55Z"/>
    <path class="cls-42" d="M341.8,358.85l-4.57,3.3v-3.64l5.18-3.79h3.27v21.56h-3.89v-17.43Z"/>
    <path class="cls-42" d="M353.13,375.39c-1.4-.9-2.47-2.2-3.22-3.89-.75-1.69-1.13-3.68-1.13-5.98s.37-4.3,1.11-6c.74-1.7,1.8-3,3.19-3.9,1.39-.9,3.05-1.36,4.98-1.36s3.57.45,4.97,1.36c1.4.91,2.47,2.21,3.21,3.9.74,1.7,1.11,3.7,1.11,6s-.37,4.3-1.11,5.98c-.74,1.69-1.81,2.98-3.21,3.89-1.4.9-3.05,1.36-4.97,1.36s-3.54-.45-4.94-1.36ZM362.03,371.17c.94-1.37,1.4-3.24,1.4-5.63s-.46-4.27-1.39-5.65c-.93-1.38-2.24-2.07-3.95-2.07s-3.03.69-3.96,2.07c-.94,1.38-1.4,3.26-1.4,5.65s.47,4.26,1.4,5.63c.94,1.37,2.25,2.05,3.93,2.05s3.03-.68,3.96-2.05Z"/>
    <path class="cls-42" d="M374.16,375.39c-1.4-.9-2.47-2.2-3.22-3.89-.75-1.69-1.13-3.68-1.13-5.98s.37-4.3,1.11-6c.74-1.7,1.8-3,3.19-3.9,1.39-.9,3.05-1.36,4.98-1.36s3.57.45,4.97,1.36c1.4.91,2.47,2.21,3.21,3.9.74,1.7,1.11,3.7,1.11,6s-.37,4.3-1.11,5.98c-.74,1.69-1.81,2.98-3.21,3.89-1.4.9-3.05,1.36-4.97,1.36s-3.54-.45-4.94-1.36ZM383.06,371.17c.94-1.37,1.4-3.24,1.4-5.63s-.46-4.27-1.39-5.65c-.93-1.38-2.24-2.07-3.95-2.07s-3.03.69-3.96,2.07c-.94,1.38-1.4,3.26-1.4,5.65s.47,4.26,1.4,5.63c.94,1.37,2.25,2.05,3.93,2.05s3.03-.68,3.96-2.05Z"/>
    <path class="cls-42" d="M403.64,375.35c-1.12-.93-1.68-2.23-1.68-3.92,0-1.11.28-2.09.85-2.93s1.37-1.5,2.41-1.97c1.04-.47,2.26-.71,3.66-.71,1.99,0,3.72.34,5.18,1.02v-.74c0-1.27-.38-2.22-1.13-2.82-.75-.61-1.96-.91-3.62-.91-1.01,0-2,.1-2.98.31-.98.21-1.83.48-2.55.83v-3.05c.66-.31,1.57-.58,2.73-.8,1.16-.23,2.3-.34,3.41-.34,2.67,0,4.68.61,6.02,1.82,1.34,1.21,2,2.84,2,4.87v10.27h-3.89v-6.35c-1.38-.7-2.95-1.05-4.72-1.05-1.15,0-2.01.22-2.58.66-.57.44-.85,1.08-.85,1.93,0,.76.26,1.32.77,1.68.51.36,1.33.54,2.44.54.7,0,1.31-.1,1.82-.31v2.99c-.76.25-1.72.37-2.87.37-1.83,0-3.31-.46-4.43-1.39Z"/>
    <path class="cls-42" d="M410.9,355.58c0-.23-.05-.39-.14-.49-.09-.1-.26-.15-.51-.15h-1.42v-2.71h2.62c.7,0,1.21.17,1.54.51.33.34.49.76.49,1.25v.99h6.32v2.56h-8.92v-1.94Z"/>
    <path class="cls-42" d="M426.95,365.73c0-1.21-.24-2.08-.73-2.59-.48-.51-1.35-.77-2.61-.77-1.15,0-2.32.3-3.52.9v-3.05c.49-.25,1.15-.46,1.96-.63.81-.17,1.61-.26,2.39-.26,2.12,0,3.72.58,4.8,1.73,1.08,1.15,1.62,2.8,1.62,4.94v10.3h-3.92v-10.55Z"/>
    <path class="cls-42" d="M437.53,375.93c-.97-.54-1.7-1.3-2.21-2.25-.5-.96-.76-2.02-.76-3.19v-10.7h3.92v10.52c0,2.26,1.2,3.39,3.61,3.39,1.89,0,3.37-.84,4.44-2.53v-11.38h3.92v16.5h-3.76v-2.04c-.78.82-1.67,1.45-2.67,1.87-1,.42-2.01.63-3.04.63-1.34,0-2.49-.27-3.45-.82Z"/>
    <path class="cls-42" d="M458.09,375.85c-1.24-.6-2.2-1.42-2.87-2.48-.67-1.06-1-2.27-1-3.62v-9.96h3.92v9.81c0,1.3.36,2.3,1.08,3.02.72.72,1.79,1.08,3.21,1.08s2.46-.36,3.18-1.08,1.08-1.73,1.08-3.02v-9.81h3.92v9.96c0,1.36-.33,2.57-1,3.62-.67,1.06-1.62,1.89-2.85,2.48-1.23.6-2.67.89-4.32.89s-3.09-.3-4.33-.89Z"/>
    <path class="cls-42" d="M479.6,365.73c0-1.21-.24-2.08-.73-2.59-.48-.51-1.35-.77-2.61-.77-1.15,0-2.32.3-3.52.9v-3.05c.49-.25,1.15-.46,1.96-.63.81-.17,1.61-.26,2.39-.26,2.12,0,3.72.58,4.8,1.73,1.08,1.15,1.62,2.8,1.62,4.94v10.3h-3.92v-10.55Z"/>
    <path class="cls-42" d="M487.22,359.78h3.76v2.04c.78-.82,1.69-1.44,2.73-1.87,1.04-.42,2.08-.63,3.13-.63,2.04,0,3.59.57,4.66,1.71,1.07,1.14,1.6,2.61,1.6,4.4v10.86h-3.92v-10.67c0-2.16-1.15-3.24-3.46-3.24-1.99,0-3.53.84-4.6,2.53v11.38h-3.92v-16.5Z"/>
  </g>
  <g>
    <path class="cls-42" d="M56.35,326.05c-.62-.67-.93-1.6-.93-2.8v-14.35h4.31v12.99c0,.59.12,1,.37,1.22.25.23.66.34,1.22.34h1.19v3.6h-3.46c-1.18,0-2.07-.33-2.7-1Z"/>
    <path class="cls-42" d="M70.15,326.57c-1.37-.66-2.42-1.57-3.15-2.73-.73-1.16-1.1-2.49-1.1-3.98v-10.96h4.31v10.79c0,1.42.4,2.53,1.19,3.32.79.79,1.97,1.19,3.53,1.19s2.7-.4,3.49-1.19c.79-.79,1.19-1.9,1.19-3.32v-16.86h4.31v17.03c0,1.49-.37,2.82-1.1,3.98-.73,1.17-1.78,2.07-3.14,2.73-1.36.66-2.94.98-4.75.98s-3.4-.33-4.77-.98Z"/>
    <path class="cls-42" d="M64.81,303.68h12.58v2.75h-12.58v-2.75Z"/>
    <path class="cls-42" d="M89.68,325.23c-1.59-1.55-2.39-3.82-2.39-6.8,0-2.08.41-3.87,1.24-5.38.82-1.5,2.01-2.66,3.56-3.46,1.55-.8,3.37-1.2,5.48-1.2,3.32,0,5.75.77,7.29,2.31s2.31,3.54,2.31,6v10.34h-4.31v-10.38c0-1.58-.41-2.8-1.24-3.65-.83-.85-2.18-1.27-4.05-1.27s-3.24.58-4.29,1.75c-1.05,1.17-1.58,2.81-1.58,4.93,0,1.94.45,3.39,1.36,4.34s2.2,1.42,3.9,1.42c.84,0,1.62-.11,2.34-.34v3.29c-.88.27-1.91.41-3.09.41-2.76,0-4.93-.77-6.53-2.32Z"/>
    <path class="cls-42" d="M112.14,326.05c-.62-.67-.93-1.6-.93-2.8v-8.61c0-1.09.2-2.02.61-2.8.41-.78.98-1.61,1.73-2.49.5-.61.86-1.11,1.1-1.51.24-.4.36-.82.36-1.27,0-.7-.18-1.21-.54-1.53-.36-.32-1-.47-1.9-.47-1.36,0-2.59.4-3.7,1.19v-3.29c.7-.41,1.49-.72,2.37-.93.88-.21,1.79-.32,2.71-.32,1.83,0,3.2.43,4.1,1.29.9.86,1.36,1.98,1.36,3.36,0,.79-.16,1.49-.47,2.1-.32.61-.79,1.32-1.42,2.14-.68.86-1.18,1.6-1.51,2.22-.33.62-.49,1.37-.49,2.26v7.33c0,.59.12,1,.37,1.22.25.23.66.34,1.22.34h1.19v3.6h-3.46c-1.18,0-2.07-.33-2.7-1Z"/>
    <path class="cls-42" d="M121.79,308.9h4.31v7.26l7.83-7.26h4.95l-4.95,4.58c1.83.48,3.11,1.24,3.83,2.31.72,1.06,1.08,2.48,1.08,4.24v7.02h-4.31v-6.72c0-1.29-.23-2.26-.7-2.92s-1.31-1.12-2.53-1.39l-5.22,4.85v6.17h-4.31v-18.15Z"/>
    <path class="cls-42" d="M131.15,304.29c0-.25-.05-.43-.15-.54-.1-.11-.29-.17-.56-.17h-1.56v-2.98h2.88c.77,0,1.33.19,1.7.56.36.37.54.83.54,1.37v1.09h6.95v2.81h-9.8v-2.14Z"/>
    <path class="cls-42" d="M142.95,312.87c0-1.29.34-2.27,1.03-2.95.69-.68,1.68-1.02,2.97-1.02h3.09v3.6h-1.25c-.59,0-1,.12-1.22.37-.23.25-.34.69-.34,1.32v6.75l3.9-6.1h1.7l3.9,6.1v-12.04h4.27v18.15h-3.87l-5.15-8.17-5.16,8.17h-3.87v-14.18Z"/>
    <path class="cls-42" d="M152.94,335.44c-.85-.62-1.27-1.45-1.27-2.49v-.61c0-.32-.04-.53-.14-.63-.09-.1-.28-.15-.58-.15h-1.15v-2.75h3.43c.63,0,1.07.14,1.32.42.25.28.37.74.37,1.37v1.9c0,.9.49,1.36,1.46,1.36s1.42-.45,1.42-1.36v-3.7h3.26v4.04c0,1.04-.4,1.89-1.19,2.54-.79.66-1.91.98-3.36.98-1.54,0-2.73-.31-3.58-.93Z"/>
    <path class="cls-42" d="M153.26,304.29c0-.25-.05-.43-.15-.54-.1-.11-.29-.17-.56-.17h-1.56v-2.98h2.88c.77,0,1.33.19,1.7.56.36.37.54.83.54,1.37v1.09h6.95v2.81h-9.8v-2.14Z"/>
    <path class="cls-42" d="M165.99,326.05c-.62-.67-.93-1.6-.93-2.8v-14.35h4.31v12.99c0,.59.12,1,.37,1.22.25.23.66.34,1.22.34h1.19v3.6h-3.46c-1.18,0-2.07-.33-2.7-1Z"/>
    <path class="cls-42" d="M176.71,326.03c-1.23-1.02-1.85-2.45-1.85-4.31,0-1.22.31-2.29.93-3.22.62-.93,1.5-1.65,2.65-2.17,1.14-.52,2.48-.78,4.02-.78,2.19,0,4.09.37,5.7,1.12v-.81c0-1.4-.41-2.44-1.24-3.1-.83-.67-2.15-1-3.98-1-1.11,0-2.2.11-3.27.34-1.07.23-2.01.53-2.8.92v-3.36c.72-.34,1.72-.63,3-.88,1.28-.25,2.53-.37,3.75-.37,1.83,0,3.41.28,4.75.85l1.49-1.7h4.75l-3.49,4c.88,1,1.32,2.4,1.32,4.21v11.29h-4.27v-6.99c-1.52-.77-3.24-1.15-5.19-1.15-1.27,0-2.21.24-2.83.73-.62.49-.93,1.19-.93,2.12,0,.84.28,1.45.85,1.85.56.4,1.46.59,2.68.59.77,0,1.44-.11,2-.34v3.29c-.84.27-1.89.41-3.15.41-2.01,0-3.63-.51-4.87-1.53Z"/>
    <path class="cls-42" d="M177.34,303.68h11.29v-3.66h3.87v6.41h-15.16v-2.75Z"/>
    <path class="cls-42" d="M199.08,326c-1.63-1.04-2.44-2.51-2.44-4.41,0-.93.27-1.76.81-2.51.54-.75,1.24-1.27,2.1-1.56-.81-.38-1.48-.94-1.98-1.66-.51-.72-.76-1.54-.76-2.44,0-1.51.52-2.73,1.56-3.65,1.04-.92,2.58-1.37,4.61-1.37.63,0,1.24.04,1.83.12.59.08,1.05.18,1.39.29v3.36c-.29-.14-.67-.24-1.14-.31-.46-.07-.88-.1-1.24-.1-1.74,0-2.61.64-2.61,1.93,0,.7.21,1.22.64,1.56.43.34,1.12.51,2.07.51h2.27v3.49h-2.27c-1.92,0-2.88.78-2.88,2.34,0,.81.4,1.45,1.2,1.92.8.46,1.9.69,3.31.69,1.76,0,3.06-.36,3.88-1.08.83-.72,1.24-1.79,1.24-3.19v-11.06h4.31v10.99c0,1.29-.31,2.52-.93,3.68-.62,1.16-1.64,2.13-3.05,2.88s-3.23,1.14-5.44,1.14c-2.69,0-4.85-.52-6.48-1.56Z"/>
    <path class="cls-42" d="M219.06,308.9h4.31v7.26l7.83-7.26h4.95l-4.95,4.58c1.83.48,3.11,1.24,3.83,2.31.72,1.06,1.08,2.48,1.08,4.24v7.02h-4.31v-6.72c0-1.29-.23-2.26-.7-2.92s-1.31-1.12-2.53-1.39l-5.22,4.85v6.17h-4.31v-18.15Z"/>
    <path class="cls-42" d="M246.05,315.45c0-1.33-.27-2.28-.8-2.85-.53-.56-1.49-.85-2.87-.85-1.27,0-2.56.33-3.87.98v-3.36c.54-.27,1.26-.5,2.15-.7.89-.19,1.77-.29,2.63-.29,2.33,0,4.09.63,5.27,1.9,1.19,1.27,1.78,3.08,1.78,5.43v11.33h-4.31v-11.6Z"/>
    <path class="cls-42" d="M256.19,326c-1.63-1.04-2.44-2.51-2.44-4.41,0-.93.27-1.76.81-2.51.54-.75,1.24-1.27,2.1-1.56-.81-.38-1.48-.94-1.98-1.66-.51-.72-.76-1.54-.76-2.44,0-1.51.52-2.73,1.56-3.65,1.04-.92,2.58-1.37,4.61-1.37.63,0,1.24.04,1.83.12.59.08,1.05.18,1.39.29v3.36c-.29-.14-.67-.24-1.14-.31-.46-.07-.88-.1-1.24-.1-1.74,0-2.61.64-2.61,1.93,0,.7.21,1.22.64,1.56.43.34,1.12.51,2.07.51h2.27v3.49h-2.27c-1.92,0-2.88.78-2.88,2.34,0,.81.4,1.45,1.2,1.92.8.46,1.9.69,3.31.69,1.76,0,3.06-.36,3.88-1.08.83-.72,1.24-1.79,1.24-3.19v-11.06h4.31v10.99c0,1.29-.31,2.52-.93,3.68-.62,1.16-1.64,2.13-3.05,2.88s-3.23,1.14-5.44,1.14c-2.69,0-4.85-.52-6.48-1.56Z"/>
    <path class="cls-42" d="M277.9,325.23c-1.61-1.55-2.41-3.82-2.41-6.8,0-2.03.29-3.81.88-5.32.59-1.51,1.4-2.68,2.44-3.49s2.2-1.22,3.49-1.22c1.67,0,2.89.64,3.66,1.93.43-.68,1.04-1.17,1.83-1.48.79-.31,1.66-.46,2.61-.46,1.63,0,2.86.51,3.7,1.54.84,1.03,1.25,2.4,1.25,4.12v12.99h-4.31v-12.68c0-.9-.14-1.57-.41-1.98-.27-.42-.74-.63-1.39-.63-1.13,0-1.82.66-2.07,1.97h-2.41c-.14-1.31-.72-1.97-1.76-1.97-.93,0-1.68.57-2.26,1.71s-.86,2.8-.86,4.97c0,3.84,1.75,5.77,5.26,5.77.84,0,1.62-.11,2.34-.34v3.29c-.88.27-1.91.41-3.09.41-2.74,0-4.91-.77-6.51-2.32Z"/>
    <path class="cls-42" d="M280.2,303.68h15.16v2.75h-15.16v-2.75Z"/>
    <path class="cls-42" d="M301.15,325.23c-1.59-1.55-2.39-3.82-2.39-6.8,0-2.08.41-3.87,1.24-5.38.82-1.5,2.01-2.66,3.56-3.46,1.55-.8,3.37-1.2,5.48-1.2,3.32,0,5.75.77,7.29,2.31s2.31,3.54,2.31,6v10.34h-4.31v-10.38c0-1.58-.41-2.8-1.24-3.65-.83-.85-2.18-1.27-4.05-1.27s-3.24.58-4.29,1.75c-1.05,1.17-1.58,2.81-1.58,4.93,0,1.94.45,3.39,1.36,4.34s2.2,1.42,3.9,1.42c.84,0,1.62-.11,2.34-.34v3.29c-.88.27-1.91.41-3.09.41-2.76,0-4.93-.77-6.53-2.32Z"/>
    <path class="cls-42" d="M324.43,325.23c-1.61-1.55-2.41-3.82-2.41-6.8,0-2.03.29-3.81.88-5.32.59-1.51,1.4-2.68,2.44-3.49s2.2-1.22,3.49-1.22c1.67,0,2.89.64,3.66,1.93.43-.68,1.04-1.17,1.83-1.48.79-.31,1.66-.46,2.61-.46,1.63,0,2.86.51,3.7,1.54.84,1.03,1.25,2.4,1.25,4.12v12.99h-4.31v-12.68c0-.9-.14-1.57-.41-1.98-.27-.42-.74-.63-1.39-.63-1.13,0-1.82.66-2.07,1.97h-2.41c-.14-1.31-.72-1.97-1.76-1.97-.93,0-1.68.57-2.26,1.71s-.86,2.8-.86,4.97c0,3.84,1.75,5.77,5.26,5.77.84,0,1.62-.11,2.34-.34v3.29c-.88.27-1.91.41-3.09.41-2.74,0-4.91-.77-6.51-2.32Z"/>
    <path class="cls-42" d="M337.62,300.59h4.31v5.83h-4.31v-5.83Z"/>
    <path class="cls-42" d="M348.78,327.08c-1.4-.32-2.57-.76-3.49-1.32v-9.5h8.14v3.49h-3.83v3.76c.84.45,1.99.68,3.46.68,1.99,0,3.49-.54,4.51-1.63,1.02-1.08,1.53-2.67,1.53-4.75,0-1.42-.23-2.58-.68-3.46-.45-.88-1.2-1.54-2.24-1.97-1.04-.43-2.44-.64-4.21-.64-1.15,0-2.32.12-3.51.36s-2.18.58-2.97,1.03v-3.36c.9-.45,1.98-.8,3.24-1.03s2.58-.36,3.99-.36c3.44,0,6.09.82,7.97,2.46,1.88,1.64,2.81,3.96,2.81,6.97s-.9,5.38-2.7,7.12-4.38,2.61-7.75,2.61c-1.45,0-2.87-.16-4.27-.48Z"/>
    <path class="cls-42" d="M369.45,327.15c-1.32-.27-2.36-.68-3.1-1.22v-3.36c.99.59,2.1,1.03,3.31,1.32,1.21.29,2.32.44,3.34.44,1.36,0,2.33-.14,2.93-.41.6-.27.9-.78.9-1.53,0-.52-.16-.93-.47-1.24-.32-.31-.75-.56-1.29-.76-.54-.2-1.56-.53-3.05-.98-1.94-.61-3.4-1.35-4.36-2.2-.96-.86-1.44-2.02-1.44-3.49,0-1.7.68-3.01,2.04-3.93,1.36-.93,3.19-1.39,5.49-1.39,1.22,0,2.39.13,3.51.39,1.12.26,2.04.61,2.76,1.03v3.53c-.75-.48-1.65-.86-2.7-1.15-1.05-.29-2.11-.44-3.17-.44-2.42,0-3.63.66-3.63,1.97,0,.47.15.86.44,1.15.29.29.69.54,1.19.73.5.19,1.25.45,2.27.76l1.12.34c1.45.45,2.57.94,3.37,1.46.8.52,1.37,1.12,1.7,1.8.33.68.49,1.52.49,2.51,0,1.52-.64,2.74-1.93,3.68-1.29.94-3.22,1.41-5.8,1.41-1.29,0-2.59-.14-3.92-.41Z"/>
    <path class="cls-42" d="M371.25,305.61c-.49-.54-.73-1.36-.73-2.44v-1.97h3.87v1.56c0,.36.07.61.2.73.14.12.38.19.75.19h8.07v2.75h-9.84c-1.06,0-1.84-.27-2.32-.81Z"/>
    <path class="cls-42" d="M388.82,326.57c-1.37-.66-2.42-1.57-3.15-2.73-.73-1.16-1.1-2.49-1.1-3.98v-10.96h4.31v10.79c0,1.42.4,2.53,1.19,3.32.79.79,1.97,1.19,3.53,1.19s2.7-.4,3.49-1.19,1.19-1.9,1.19-3.32v-10.79h4.31v10.96c0,1.49-.37,2.82-1.1,3.98-.73,1.17-1.78,2.07-3.14,2.73-1.36.66-2.94.98-4.75.98s-3.4-.33-4.77-.98Z"/>
    <path class="cls-42" d="M407.57,326.05c-.62-.67-.93-1.6-.93-2.8v-14.35h4.31v12.99c0,.59.12,1,.37,1.22.25.23.66.34,1.22.34h1.19v3.6h-3.46c-1.18,0-2.07-.33-2.7-1Z"/>
    <path class="cls-42" d="M416.44,311.18h4.31l3.97,12.52c1.9,0,3.36-.54,4.39-1.61,1.03-1.07,1.54-2.61,1.54-4.6s-.35-3.36-1.05-4.31-1.82-1.42-3.36-1.42c-.84,0-1.62.11-2.34.34v-3.29c.88-.27,1.91-.41,3.09-.41,2.65,0,4.65.8,6.02,2.41,1.37,1.61,2.05,3.83,2.05,6.68,0,1.99-.44,3.71-1.31,5.15-.87,1.45-2.04,2.54-3.51,3.29s-3.1,1.12-4.88,1.12h-3.9l-5.02-15.87Z"/>
    <path class="cls-42" d="M419.22,303.68h15.16v2.75h-15.16v-2.75Z"/>
    <path class="cls-42" d="M441.71,326.66c-1.06-.6-1.87-1.42-2.43-2.48-.55-1.05-.83-2.22-.83-3.51v-11.77h4.31v11.57c0,2.49,1.32,3.73,3.97,3.73,2.08,0,3.71-.93,4.88-2.78v-12.52h4.31v18.15h-4.14v-2.24c-.86.9-1.84,1.59-2.93,2.05-1.1.46-2.21.7-3.34.7-1.47,0-2.74-.3-3.8-.9Z"/>
    <path class="cls-42" d="M459.99,316.06c0-2.44.81-4.33,2.42-5.66,1.62-1.33,3.8-2,6.56-2s4.94.67,6.55,2c1.6,1.33,2.41,3.22,2.41,5.66v10.99h-4.31v-11.16c0-1.38-.4-2.41-1.2-3.1-.8-.69-1.95-1.03-3.44-1.03s-2.65.34-3.46,1.02-1.22,1.72-1.22,3.12v2.98c.29-.47.73-.86,1.31-1.15s1.25-.44,2.02-.44h2.75v3.59h-3.05c-.88,0-1.61.29-2.17.87-.57.58-.85,1.27-.85,2.09v3.22h-4.31v-10.99Z"/>
    <path class="cls-42" d="M462.87,303.68h6.58v-3.66h3.02v3.66h2.58v-3.66h2.98v6.41h-15.16v-2.75Z"/>
    <path class="cls-42" d="M485.26,326.66c-1.06-.6-1.87-1.42-2.43-2.48-.55-1.05-.83-2.22-.83-3.51v-11.77h4.31v11.57c0,2.49,1.32,3.73,3.97,3.73,2.08,0,3.71-.93,4.88-2.78v-12.52h4.31v18.15h-4.14v-2.24c-.86.9-1.84,1.59-2.93,2.05-1.1.46-2.21.7-3.34.7-1.47,0-2.74-.3-3.8-.9Z"/>
  </g>
  <g>
    <rect class="cls-16" x="36.46" y="420.7" width="545.86" height="67.41" rx="15.37" ry="15.37"/>
    <g>
      <path class="cls-35" d="M115.15,465.1c-1.66-1.6-2.48-3.94-2.48-7.02,0-2.1.3-3.93.91-5.49.61-1.56,1.45-2.77,2.52-3.61,1.07-.84,2.27-1.26,3.6-1.26,1.73,0,2.99.67,3.78,2,.44-.7,1.07-1.21,1.89-1.52.82-.31,1.71-.47,2.69-.47,1.68,0,2.95.53,3.82,1.59.86,1.06,1.29,2.48,1.29,4.25v13.4h-4.45v-13.09c0-.93-.14-1.62-.42-2.05-.28-.43-.76-.65-1.44-.65-1.17,0-1.88.68-2.13,2.03h-2.48c-.14-1.35-.75-2.03-1.82-2.03-.96,0-1.73.59-2.33,1.77-.59,1.18-.89,2.89-.89,5.13,0,3.97,1.81,5.95,5.42,5.95.86,0,1.67-.12,2.42-.35v3.4c-.91.28-1.97.42-3.19.42-2.82,0-5.06-.8-6.72-2.4Z"/>
      <path class="cls-35" d="M117.53,442.86h15.65v2.84h-15.65v-2.84Z"/>
      <path class="cls-35" d="M139.14,465.1c-1.65-1.6-2.47-3.94-2.47-7.02,0-2.15.43-4,1.28-5.55.85-1.55,2.08-2.74,3.67-3.57,1.6-.83,3.48-1.24,5.65-1.24,3.43,0,5.94.79,7.52,2.38,1.59,1.59,2.38,3.65,2.38,6.2v10.67h-4.45v-10.71c0-1.63-.43-2.89-1.28-3.76-.85-.88-2.25-1.31-4.18-1.31s-3.34.6-4.43,1.8c-1.08,1.2-1.63,2.9-1.63,5.09,0,2.01.47,3.5,1.4,4.48.93.98,2.27,1.47,4.02,1.47.86,0,1.67-.12,2.42-.35v3.4c-.91.28-1.97.42-3.19.42-2.85,0-5.09-.8-6.74-2.4Z"/>
      <path class="cls-35" d="M163.17,465.1c-1.66-1.6-2.48-3.94-2.48-7.02,0-2.1.3-3.93.91-5.49.61-1.56,1.45-2.77,2.52-3.61,1.07-.84,2.27-1.26,3.6-1.26,1.73,0,2.99.67,3.78,2,.44-.7,1.07-1.21,1.89-1.52.82-.31,1.71-.47,2.69-.47,1.68,0,2.95.53,3.82,1.59.86,1.06,1.29,2.48,1.29,4.25v13.4h-4.45v-13.09c0-.93-.14-1.62-.42-2.05-.28-.43-.76-.65-1.44-.65-1.17,0-1.88.68-2.13,2.03h-2.48c-.14-1.35-.75-2.03-1.82-2.03-.96,0-1.73.59-2.33,1.77-.59,1.18-.89,2.89-.89,5.13,0,3.97,1.81,5.95,5.42,5.95.86,0,1.67-.12,2.42-.35v3.4c-.91.28-1.97.42-3.19.42-2.82,0-5.06-.8-6.72-2.4Z"/>
      <path class="cls-35" d="M191.41,455.01c0-1.38-.27-2.36-.82-2.94-.55-.58-1.53-.88-2.96-.88-1.31,0-2.64.34-3.99,1.02v-3.46c.56-.28,1.3-.52,2.22-.72.92-.2,1.83-.3,2.71-.3,2.4,0,4.22.65,5.44,1.96,1.23,1.31,1.84,3.17,1.84,5.6v11.69h-4.44v-11.97Z"/>
      <path class="cls-35" d="M207.35,466.78c-1.13-.48-2.14-1.18-3.03-2.12v2.31h-4.27v-18.73h4.44v12.92c1.21,1.91,2.89,2.87,5.04,2.87,2.75,0,4.13-1.28,4.13-3.85v-11.94h4.41v12.15c0,1.33-.29,2.54-.86,3.62-.57,1.08-1.41,1.94-2.5,2.56-1.1.62-2.4.93-3.92.93-1.17,0-2.32-.24-3.45-.72Z"/>
      <path class="cls-35" d="M223.49,465.93c-1.27-1.05-1.91-2.53-1.91-4.45,0-1.26.32-2.37.96-3.32.64-.96,1.55-1.7,2.73-2.24,1.18-.54,2.56-.81,4.15-.81,2.26,0,4.22.39,5.88,1.16v-.84c0-1.45-.43-2.51-1.28-3.2-.85-.69-2.22-1.03-4.11-1.03-1.14,0-2.27.12-3.38.35-1.11.23-2.07.55-2.89.94v-3.46c.75-.35,1.78-.65,3.1-.91,1.32-.26,2.61-.38,3.87-.38,3.03,0,5.31.69,6.82,2.06,1.52,1.38,2.27,3.22,2.27,5.53v11.65h-4.41v-7.21c-1.56-.79-3.35-1.19-5.35-1.19-1.31,0-2.28.25-2.92.75-.64.5-.96,1.23-.96,2.19,0,.86.29,1.5.88,1.91.58.41,1.5.61,2.77.61.79,0,1.48-.12,2.06-.35v3.4c-.86.28-1.95.42-3.25.42-2.08,0-3.75-.52-5.02-1.57Z"/>
      <path class="cls-35" d="M243.21,450.6h4.45l4.09,12.92c1.96,0,3.47-.55,4.53-1.66,1.06-1.11,1.59-2.69,1.59-4.74s-.36-3.46-1.08-4.44c-.72-.98-1.88-1.47-3.46-1.47-.86,0-1.67.12-2.42.35v-3.4c.91-.28,1.97-.42,3.19-.42,2.73,0,4.8.83,6.21,2.48,1.41,1.66,2.12,3.96,2.12,6.9,0,2.05-.45,3.83-1.35,5.32-.9,1.49-2.11,2.62-3.62,3.4-1.52.77-3.2,1.15-5.04,1.15h-4.02l-5.18-16.38Z"/>
      <path class="cls-35" d="M265.93,448.25h4.27v2.31c.89-.93,1.92-1.64,3.1-2.12,1.18-.48,2.36-.72,3.55-.72,2.31,0,4.07.65,5.29,1.94,1.21,1.29,1.82,2.96,1.82,4.99v12.32h-4.44v-12.11c0-2.45-1.31-3.68-3.92-3.68-2.26,0-4,.96-5.21,2.87v12.92h-4.44v-18.73Z"/>
      <path class="cls-35" d="M288.14,455.04c-.46-.51-.68-1.31-.68-2.38v-2.24h3.99v1.44c0,.35.08.6.23.74.15.14.41.21.79.21h4.13v3.01h-6.09c-1.12,0-1.91-.26-2.36-.77ZM288.14,464.53c-.46-.51-.68-1.31-.68-2.38v-2.24h3.99v1.44c0,.35.08.59.23.73.15.14.41.21.79.21h4.13v3.01h-6.09c-1.12,0-1.91-.26-2.36-.77Z"/>
      <path class="cls-35" d="M301.05,465.94c-.64-.69-.96-1.65-.96-2.89v-14.81h4.44v13.41c0,.61.13,1.03.39,1.26.26.23.68.35,1.26.35h1.23v3.71h-3.57c-1.21,0-2.14-.34-2.78-1.03Z"/>
      <path class="cls-35" d="M315.37,466.49c-1.41-.68-2.5-1.62-3.25-2.82-.76-1.2-1.14-2.57-1.14-4.11v-11.31h4.45v11.13c0,1.47.41,2.61,1.22,3.43.82.82,2.03,1.23,3.64,1.23s2.79-.41,3.6-1.23,1.23-1.96,1.23-3.43v-11.13h4.44v11.31c0,1.54-.38,2.91-1.14,4.11-.76,1.2-1.84,2.14-3.24,2.82-1.4.68-3.03,1.02-4.9,1.02s-3.51-.34-4.92-1.02Z"/>
      <path class="cls-35" d="M313.98,442.86h11.65v-3.78h3.99v6.62h-15.65v-2.84Z"/>
      <path class="cls-35" d="M335.58,465.89c-1.68-1.07-2.52-2.59-2.52-4.55,0-.96.28-1.82.84-2.59.56-.77,1.28-1.31,2.17-1.61-.84-.4-1.52-.97-2.05-1.71-.52-.75-.79-1.59-.79-2.52,0-1.56.54-2.82,1.61-3.76,1.07-.94,2.66-1.42,4.76-1.42.65,0,1.28.04,1.89.12.61.08,1.08.18,1.44.3v3.46c-.3-.14-.69-.24-1.17-.31-.48-.07-.9-.1-1.28-.1-1.8,0-2.69.67-2.69,2,0,.72.22,1.26.67,1.61.44.35,1.15.53,2.13.53h2.35v3.6h-2.35c-1.98,0-2.97.8-2.97,2.42,0,.84.41,1.5,1.24,1.98.83.48,1.97.72,3.41.72,1.82,0,3.16-.37,4.01-1.12.85-.75,1.28-1.84,1.28-3.29v-11.41h4.44v11.34c0,1.33-.32,2.6-.96,3.8-.64,1.2-1.69,2.19-3.15,2.98-1.46.78-3.33,1.17-5.62,1.17-2.78,0-5-.54-6.69-1.61Z"/>
      <path class="cls-35" d="M359.55,466.57c-1.1-.62-1.93-1.47-2.5-2.56-.57-1.08-.86-2.29-.86-3.62v-12.15h4.44v11.94c0,2.57,1.37,3.85,4.1,3.85,2.15,0,3.83-.96,5.04-2.87v-12.92h4.44v18.73h-4.27v-2.31c-.89.93-1.9,1.64-3.03,2.12-1.13.48-2.28.72-3.45.72-1.52,0-2.82-.31-3.92-.93Z"/>
      <path class="cls-35" d="M381.06,467.08c-1.37-.28-2.43-.7-3.2-1.26v-3.47c1.03.61,2.16,1.06,3.41,1.37,1.25.3,2.4.46,3.45.46,1.4,0,2.41-.14,3.03-.42.62-.28.93-.8.93-1.57,0-.54-.16-.96-.49-1.28-.33-.32-.77-.58-1.33-.79s-1.61-.55-3.15-1.02c-2.01-.63-3.51-1.39-4.5-2.27-.99-.89-1.49-2.09-1.49-3.6,0-1.75.7-3.1,2.1-4.06,1.4-.96,3.29-1.44,5.67-1.44,1.26,0,2.47.13,3.62.4,1.15.27,2.11.62,2.85,1.07v3.64c-.77-.49-1.7-.89-2.78-1.19-1.08-.3-2.18-.46-3.27-.46-2.5,0-3.74.68-3.74,2.03,0,.49.15.89.45,1.19s.71.55,1.23.75c.51.2,1.29.46,2.35.79l1.15.35c1.49.47,2.65.97,3.48,1.5.83.54,1.41,1.15,1.75,1.85.34.7.51,1.56.51,2.59,0,1.56-.67,2.83-2,3.8-1.33.97-3.33,1.45-5.98,1.45-1.33,0-2.68-.14-4.04-.42Z"/>
      <path class="cls-35" d="M382.92,444.86c-.5-.56-.75-1.4-.75-2.52v-2.03h3.99v1.61c0,.37.07.62.21.75.14.13.4.19.77.19h8.33v2.84h-10.15c-1.1,0-1.9-.28-2.4-.84Z"/>
      <path class="cls-35" d="M401.05,466.49c-1.41-.68-2.5-1.62-3.25-2.82-.76-1.2-1.14-2.57-1.14-4.11v-11.31h4.45v11.13c0,1.47.41,2.61,1.22,3.43.82.82,2.03,1.23,3.64,1.23s2.79-.41,3.6-1.23,1.23-1.96,1.23-3.43v-11.13h4.44v11.31c0,1.54-.38,2.91-1.14,4.11-.76,1.2-1.84,2.14-3.24,2.82-1.4.68-3.03,1.02-4.9,1.02s-3.51-.34-4.92-1.02Z"/>
      <path class="cls-35" d="M420.4,465.94c-.64-.69-.96-1.65-.96-2.89v-14.81h4.44v13.41c0,.61.13,1.03.39,1.26.26.23.68.35,1.26.35h1.23v3.71h-3.57c-1.21,0-2.14-.34-2.78-1.03Z"/>
      <path class="cls-35" d="M429.55,450.6h4.45l4.09,12.92c1.96,0,3.47-.55,4.53-1.66,1.06-1.11,1.59-2.69,1.59-4.74s-.36-3.46-1.08-4.44c-.72-.98-1.88-1.47-3.46-1.47-.86,0-1.67.12-2.42.35v-3.4c.91-.28,1.97-.42,3.19-.42,2.73,0,4.8.83,6.21,2.48,1.41,1.66,2.12,3.96,2.12,6.9,0,2.05-.45,3.83-1.35,5.32-.9,1.49-2.11,2.62-3.62,3.4-1.52.77-3.2,1.15-5.04,1.15h-4.02l-5.18-16.38Z"/>
      <path class="cls-35" d="M432.42,442.86h15.65v2.84h-15.65v-2.84Z"/>
      <path class="cls-35" d="M455.63,466.57c-1.1-.62-1.93-1.47-2.5-2.56-.57-1.08-.86-2.29-.86-3.62v-12.15h4.44v11.94c0,2.57,1.37,3.85,4.1,3.85,2.15,0,3.83-.96,5.04-2.87v-12.92h4.44v18.73h-4.27v-2.31c-.89.93-1.9,1.64-3.03,2.12-1.13.48-2.28.72-3.45.72-1.52,0-2.82-.31-3.92-.93Z"/>
      <path class="cls-35" d="M474.49,455.64c0-2.52.83-4.47,2.5-5.85,1.67-1.38,3.93-2.06,6.77-2.06s5.1.69,6.75,2.06c1.66,1.38,2.49,3.33,2.49,5.85v11.34h-4.45v-11.52c0-1.42-.41-2.49-1.24-3.2-.83-.71-2.01-1.07-3.55-1.07s-2.73.35-3.57,1.05c-.84.7-1.26,1.77-1.26,3.22v3.08c.3-.49.75-.89,1.35-1.19.59-.3,1.29-.46,2.08-.46h2.83v3.71h-3.15c-.91,0-1.66.3-2.24.89-.58.6-.88,1.31-.88,2.15v3.33h-4.44v-11.34Z"/>
      <path class="cls-35" d="M477.47,442.86h6.79v-3.78h3.12v3.78h2.66v-3.78h3.08v6.62h-15.65v-2.84Z"/>
      <path class="cls-35" d="M500.57,466.57c-1.1-.62-1.93-1.47-2.5-2.56-.57-1.08-.86-2.29-.86-3.62v-12.15h4.44v11.94c0,2.57,1.37,3.85,4.1,3.85,2.15,0,3.83-.96,5.04-2.87v-12.92h4.44v18.73h-4.27v-2.31c-.89.93-1.9,1.64-3.03,2.12-1.13.48-2.28.72-3.45.72-1.52,0-2.82-.31-3.92-.93Z"/>
      <path class="cls-35" d="M519.43,448.25h4.27v2.31c.89-.93,1.92-1.64,3.1-2.12,1.18-.48,2.36-.72,3.55-.72,2.31,0,4.07.65,5.29,1.94,1.21,1.29,1.82,2.96,1.82,4.99v12.32h-4.44v-12.11c0-2.45-1.31-3.68-3.92-3.68-2.26,0-4,.96-5.21,2.87v12.92h-4.44v-18.73Z"/>
      <path class="cls-35" d="M521.88,442.86h11.65v-3.78h3.99v6.62h-15.65v-2.84Z"/>
      <path class="cls-35" d="M533.54,432.4h3.99v4.79h-3.99v-4.79Z"/>
      <path class="cls-35" d="M545.02,466.57c-1.1-.62-1.93-1.47-2.5-2.56-.57-1.08-.86-2.29-.86-3.62v-12.15h4.44v11.94c0,2.57,1.37,3.85,4.1,3.85,2.15,0,3.83-.96,5.04-2.87v-12.92h4.44v18.73h-4.27v-2.31c-.89.93-1.9,1.64-3.03,2.12-1.13.48-2.28.72-3.45.72-1.52,0-2.82-.31-3.92-.93Z"/>
      <path class="cls-35" d="M544.11,442.86h11.65v-3.78h3.99v6.62h-15.65v-2.84Z"/>
      <path class="cls-35" d="M555.76,432.4h3.99v4.79h-3.99v-4.79Z"/>
    </g>
    <g>
      <path class="cls-43" d="M70.08,421.98h4.68v66.96h0c-2.58,0-4.68-2.1-4.68-4.68v-62.28h0Z" transform="translate(-300.85 184.62) rotate(-45)"/>
      <rect class="cls-25" x="46.77" y="431.22" width="5.87" height="3.04" rx=".91" ry=".91" transform="translate(-295.63 167.26) rotate(-45.89)"/>
      <circle class="cls-43" cx="72.57" cy="455.46" r="22.74"/>
      <circle class="cls-12" cx="72.57" cy="455.46" r="19.42"/>
      <circle class="cls-37" cx="72.57" cy="455.29" r="12.89"/>
      <circle class="cls-43" cx="72.57" cy="455.29" r="9.74"/>
    </g>
  </g>
</svg>