<?xml version="1.0" encoding="UTF-8"?>
<svg id="Layer_1" data-name="Layer 1" xmlns="http://www.w3.org/2000/svg" xmlns:xlink="http://www.w3.org/1999/xlink" viewBox="0 0 600 600">
  <defs>
    <style>
      .cls-1 {
        fill: #001a47;
      }

      .cls-2 {
        fill: #4881b6;
      }

      .cls-3 {
        fill: #accdf8;
      }

      .cls-4 {
        fill: #7db0f2;
      }

      .cls-5 {
        fill: url(#linear-gradient);
      }

      .cls-6 {
        fill: none;
        stroke: #326499;
        stroke-linecap: round;
        stroke-linejoin: round;
        stroke-width: 4.76px;
      }

      .cls-7 {
        fill: #326499;
      }

      .cls-8 {
        fill: #fff;
      }

      .cls-9 {
        opacity: .5;
      }

      .cls-10 {
        fill: #fefefe;
      }

      .cls-11 {
        fill: #013057;
      }
    </style>
    <linearGradient id="linear-gradient" x1="87.66" y1="428.26" x2="406.11" y2="428.26" gradientUnits="userSpaceOnUse">
      <stop offset="0" stop-color="#11d1b8"/>
      <stop offset="1" stop-color="#11d06f"/>
    </linearGradient>
  </defs>
  <g>
    <rect class="cls-3" width="600" height="600" rx="30" ry="30"/>
    <g>
      <path class="cls-2" d="M0,30v77.51h600V30c0-16.57-13.43-30-30-30H30C13.43,0,0,13.43,0,30Z"/>
      <g>
        <g class="cls-9">
          <g>
            <path class="cls-1" d="M127.68,63c-1.39-1.15-2.09-2.77-2.09-4.86,0-1.38.35-2.59,1.05-3.64.7-1.05,1.7-1.86,2.99-2.45,1.29-.59,2.8-.88,4.54-.88,2.48,0,4.62.42,6.43,1.26v-.92c0-1.58-.47-2.75-1.4-3.5-.93-.75-2.43-1.13-4.5-1.13-1.25,0-2.48.13-3.7.38-1.21.26-2.27.6-3.16,1.03v-3.79c.82-.38,1.95-.71,3.39-1,1.44-.28,2.85-.42,4.23-.42,3.32,0,5.81.75,7.47,2.26,1.66,1.51,2.49,3.52,2.49,6.05v12.75h-4.83v-7.89c-1.71-.87-3.66-1.3-5.86-1.3-1.43,0-2.5.27-3.2.82-.7.55-1.05,1.35-1.05,2.39,0,.94.32,1.64.96,2.09.64.45,1.65.67,3.03.67.87,0,1.62-.13,2.26-.38v3.71c-.94.31-2.13.46-3.56.46-2.27,0-4.1-.57-5.5-1.72Z"/>
            <path class="cls-1" d="M136.33,73.63c-.96-.7-1.44-1.64-1.44-2.81v-.69c0-.36-.05-.59-.15-.71-.1-.11-.32-.17-.65-.17h-1.3v-3.1h3.87c.72,0,1.21.16,1.49.48.28.32.42.84.42,1.55v2.14c0,1.02.55,1.53,1.65,1.53s1.61-.51,1.61-1.53v-4.17h3.68v4.56c0,1.17-.45,2.13-1.34,2.87-.89.74-2.16,1.11-3.79,1.11-1.74,0-3.08-.35-4.04-1.05Z"/>
            <path class="cls-1" d="M151.17,51.67l-1.92-3.18c1.4-1.76,3.02-3.1,4.85-4.02,1.83-.92,3.94-1.38,6.34-1.38,3.19,0,5.64.72,7.33,2.15,1.7,1.43,2.55,3.41,2.55,5.94v12.98h-4.86v-12.6c0-1.58-.42-2.76-1.26-3.52-.84-.77-2.09-1.15-3.75-1.15-1.25,0-2.36.18-3.31.54s-1.84.94-2.66,1.76l1.57,2.53v12.45h-4.86v-12.49Z"/>
            <path class="cls-1" d="M174.92,51.74c0-2.76.91-4.89,2.74-6.4,1.83-1.51,4.3-2.26,7.41-2.26s5.58.75,7.39,2.26c1.81,1.51,2.72,3.64,2.72,6.4v12.41h-4.86v-12.6c0-1.56-.45-2.73-1.36-3.5-.91-.78-2.2-1.17-3.89-1.17s-2.99.38-3.91,1.15c-.92.77-1.38,1.94-1.38,3.52v3.37c.33-.54.82-.97,1.47-1.3.65-.33,1.41-.5,2.28-.5h3.1v4.06h-3.45c-1,0-1.81.33-2.45.98-.64.65-.96,1.44-.96,2.36v3.64h-4.86v-12.41Z"/>
            <path class="cls-1" d="M186.45,38.45c0-.28-.06-.48-.17-.61-.12-.13-.33-.19-.63-.19h-1.76v-3.37h3.26c.87,0,1.51.21,1.92.63.41.42.61.94.61,1.55v1.23h7.85v3.18h-11.07v-2.41Z"/>
            <path class="cls-1" d="M206.36,51.05c0-1.51-.3-2.58-.9-3.22-.6-.64-1.68-.96-3.24-.96-1.43,0-2.89.37-4.37,1.11v-3.79c.61-.31,1.42-.57,2.43-.79,1.01-.22,2-.33,2.97-.33,2.63,0,4.61.72,5.96,2.15,1.34,1.43,2.01,3.47,2.01,6.13v12.79h-4.86v-13.1Z"/>
          </g>
        </g>
        <polyline class="cls-6" points="37.89 41.57 26.25 53.54 37.89 65.51"/>
      </g>
      <circle class="cls-7" cx="84.09" cy="53.76" r="26.45"/>
      <g>
        <rect class="cls-7" x="542.03" y="62.46" width="31.53" height="6.8" rx="2.44" ry="2.44"/>
        <rect class="cls-7" x="542.03" y="50.36" width="31.53" height="6.8" rx="2.44" ry="2.44"/>
        <rect class="cls-7" x="542.03" y="38.26" width="31.53" height="6.8" rx="2.44" ry="2.44"/>
      </g>
      <g>
        <rect class="cls-7" x="471.02" y="38.26" width="30.99" height="30.99" rx="2.75" ry="2.75"/>
        <path class="cls-7" d="M507.5,63.21l10.41,3.19c1.77.54,3.55-.78,3.55-2.63v-20.03c0-1.85-1.79-3.17-3.55-2.63l-10.41,3.19c-1.15.35-1.94,1.42-1.94,2.63v13.64c0,1.21.79,2.27,1.94,2.63Z"/>
      </g>
      <path class="cls-7" d="M451.48,65.41s0,0,0,0h0s-1.5,1.48-1.5,1.48c-1.94,1.97-4.77,2.78-7.46,2.14-2.71-.73-5.29-1.88-7.63-3.42-2.18-1.39-4.2-3.02-6.02-4.85-1.68-1.66-3.18-3.49-4.5-5.46-1.44-2.11-2.57-4.41-3.38-6.84-.92-2.85-.16-5.98,1.98-8.08l1.76-1.76c.49-.49,1.28-.49,1.78,0,0,0,0,0,0,0l5.56,5.56c.49.49.49,1.28,0,1.78h0s-3.26,3.27-3.26,3.27c-.94.93-1.05,2.4-.28,3.46,1.18,1.62,2.49,3.14,3.9,4.56,1.58,1.59,3.3,3.03,5.14,4.32,1.06.74,2.5.62,3.42-.3l3.15-3.2c.49-.49,1.28-.49,1.78,0h0s5.57,5.58,5.57,5.58c.49.49.49,1.28,0,1.78Z"/>
    </g>
  </g>
  <g>
    <g>
      <circle class="cls-3" cx="51.47" cy="178.43" r="25.22"/>
      <g>
        <rect class="cls-8" x="102.99" y="153.21" width="258.07" height="50.44" rx="14.43" ry="14.43"/>
        <g>
          <path class="cls-11" d="M124.64,186.28c-.89-.74-1.34-1.77-1.34-3.12,0-.88.22-1.66.67-2.33.45-.67,1.09-1.19,1.91-1.57.83-.38,1.79-.56,2.91-.56,1.59,0,2.96.27,4.12.81v-.59c0-1.01-.3-1.76-.9-2.24-.6-.48-1.56-.72-2.88-.72-.8,0-1.59.08-2.37.25-.78.16-1.45.38-2.02.66v-2.43c.52-.25,1.25-.46,2.17-.64.92-.18,1.83-.27,2.71-.27,1.33,0,2.47.2,3.44.61l1.08-1.23h3.43l-2.53,2.9c.64.72.96,1.73.96,3.04v8.17h-3.09v-5.05c-1.1-.56-2.35-.83-3.75-.83-.92,0-1.6.18-2.05.53-.45.35-.67.86-.67,1.53,0,.61.2,1.05.61,1.34.41.29,1.05.43,1.94.43.56,0,1.04-.08,1.45-.25v2.38c-.61.2-1.37.29-2.28.29-1.46,0-2.63-.37-3.52-1.1Z"/>
          <path class="cls-11" d="M141.9,186.73c-.77-.43-1.35-1.03-1.75-1.79-.4-.76-.6-1.61-.6-2.54v-8.51h3.12v8.37c0,1.8.96,2.7,2.87,2.7,1.5,0,2.68-.67,3.53-2.01v-9.05h3.12v13.12h-2.99v-1.62c-.62.65-1.33,1.15-2.12,1.48-.79.34-1.6.5-2.42.5-1.06,0-1.98-.22-2.75-.65Z"/>
          <path class="cls-11" d="M155.77,186.29c-.45-.48-.67-1.16-.67-2.02v-6.23c0-.79.15-1.46.44-2.02s.71-1.17,1.25-1.8c.36-.44.63-.81.8-1.09.17-.29.26-.59.26-.92,0-.51-.13-.87-.39-1.1-.26-.23-.72-.34-1.37-.34-.98,0-1.87.29-2.67.86v-2.38c.51-.29,1.08-.52,1.72-.67.64-.16,1.29-.23,1.96-.23,1.32,0,2.31.31,2.97.93.65.62.98,1.43.98,2.43,0,.57-.11,1.08-.34,1.52-.23.44-.57.96-1.03,1.55-.49.62-.85,1.16-1.09,1.61-.24.45-.36.99-.36,1.63v5.3c0,.43.09.72.27.88.18.16.47.25.88.25h.86v2.6h-2.5c-.85,0-1.5-.24-1.95-.72Z"/>
          <path class="cls-11" d="M162.77,179.8h3.09l1.18,4.78c1.37,0,2.48-.36,3.32-1.09.84-.73,1.26-1.76,1.26-3.1,0-1.44-.37-2.54-1.1-3.3-.74-.76-1.95-1.14-3.66-1.14-.82,0-1.65.08-2.5.25-.85.16-1.55.38-2.11.64v-2.43c.64-.28,1.4-.49,2.28-.65.88-.16,1.79-.23,2.72-.23,2.37,0,4.22.6,5.56,1.79,1.33,1.19,2,2.89,2,5.08,0,1.32-.33,2.49-.98,3.48-.65,1-1.55,1.77-2.67,2.32-1.13.55-2.36.82-3.7.82h-2.89l-1.79-7.21Z"/>
          <path class="cls-11" d="M187.38,186.26c-1.18-.75-1.77-1.82-1.77-3.19,0-.67.2-1.28.59-1.82.39-.54.9-.92,1.52-1.13-.59-.28-1.07-.68-1.44-1.2-.37-.52-.55-1.11-.55-1.77,0-1.1.38-1.97,1.13-2.64.75-.66,1.86-.99,3.34-.99.46,0,.9.03,1.32.09.43.06.76.13,1.01.21v2.43c-.21-.1-.49-.17-.82-.22-.34-.05-.63-.07-.9-.07-1.26,0-1.89.47-1.89,1.4,0,.51.16.88.47,1.13s.81.37,1.5.37h1.64v2.53h-1.64c-1.39,0-2.09.56-2.09,1.69,0,.59.29,1.05.87,1.39.58.34,1.38.5,2.39.5,1.28,0,2.21-.26,2.81-.78.6-.52.9-1.29.9-2.31v-8h3.12v7.95c0,.93-.23,1.82-.67,2.66-.45.84-1.19,1.54-2.21,2.09-1.02.55-2.33.82-3.94.82-1.95,0-3.51-.38-4.69-1.13Z"/>
          <path class="cls-11" d="M192.25,171.51c-.35-.39-.53-.98-.53-1.77v-1.42h2.8v1.13c0,.26.05.44.15.53.1.09.28.14.54.14h5.84v1.99h-7.11c-.77,0-1.33-.2-1.68-.59Z"/>
          <path class="cls-11" d="M201.34,175.54h3.12l2.87,9.05c1.37,0,2.43-.39,3.18-1.17.74-.78,1.12-1.88,1.12-3.32s-.25-2.43-.76-3.12c-.51-.69-1.32-1.03-2.43-1.03-.61,0-1.17.08-1.69.25v-2.38c.64-.2,1.38-.29,2.23-.29,1.91,0,3.37.58,4.35,1.74.99,1.16,1.48,2.77,1.48,4.83,0,1.44-.31,2.68-.94,3.73-.63,1.05-1.48,1.84-2.54,2.38-1.06.54-2.24.81-3.53.81h-2.82l-3.63-11.48Z"/>
          <path class="cls-11" d="M222.38,186.88c-.79-.33-1.5-.83-2.12-1.48v1.62h-2.99v-13.12h3.12v9.05c.85,1.34,2.03,2.01,3.53,2.01,1.93,0,2.89-.9,2.89-2.7v-8.37h3.09v8.51c0,.93-.2,1.78-.6,2.54-.4.76-.99,1.36-1.75,1.79-.77.43-1.68.65-2.75.65-.82,0-1.62-.17-2.42-.5Z"/>
          <path class="cls-11" d="M218.98,170.11h8.17v-2.65h2.8v4.64h-10.97v-1.99Z"/>
          <path class="cls-11" d="M235.34,186.76c-.92-.42-1.62-1-2.11-1.74-.49-.74-.74-1.59-.74-2.54v-.61c0-.57.12-1.1.36-1.57.24-.47.57-1.01.99-1.62.28-.39.48-.7.61-.93.13-.23.2-.45.2-.66,0-.49-.3-.74-.91-.74h-1.4v-2.45h3.04c.74,0,1.32.21,1.75.63.43.42.65.98.65,1.68,0,.49-.09.94-.28,1.35-.19.41-.46.91-.82,1.5-.36.59-.63,1.08-.81,1.46-.18.38-.27.8-.27,1.24v.61c0,.83.25,1.48.74,1.93.49.45,1.23.67,2.21.67,1.91,0,2.87-.91,2.87-2.72v-8.34h3.12v7.83c0,1.73-.52,3.11-1.56,4.13-1.04,1.02-2.51,1.53-4.43,1.53-1.23,0-2.3-.21-3.21-.63Z"/>
          <path class="cls-11" d="M249.52,187.04c-1.01-.23-1.86-.55-2.53-.96v-6.87h5.89v2.53h-2.77v2.72c.6.33,1.44.49,2.5.49,1.44,0,2.53-.39,3.26-1.18.74-.79,1.1-1.93,1.1-3.43,0-1.03-.16-1.86-.49-2.5-.33-.64-.87-1.11-1.62-1.42-.75-.31-1.77-.47-3.04-.47-.83,0-1.68.09-2.54.26-.86.17-1.57.42-2.15.75v-2.43c.65-.33,1.44-.58,2.34-.75.91-.17,1.87-.26,2.88-.26,2.49,0,4.41.59,5.77,1.78,1.36,1.19,2.04,2.87,2.04,5.04s-.65,3.89-1.95,5.15c-1.3,1.26-3.17,1.89-5.61,1.89-1.05,0-2.08-.11-3.09-.34Z"/>
          <path class="cls-11" d="M262.13,175.54h3.12l2.87,9.05c1.37,0,2.43-.39,3.18-1.17.74-.78,1.12-1.88,1.12-3.32s-.25-2.43-.76-3.12c-.51-.69-1.32-1.03-2.43-1.03-.61,0-1.17.08-1.69.25v-2.38c.64-.2,1.38-.29,2.23-.29,1.91,0,3.37.58,4.35,1.74.99,1.16,1.48,2.77,1.48,4.83,0,1.44-.31,2.68-.94,3.73-.63,1.05-1.48,1.84-2.54,2.38-1.06.54-2.24.81-3.53.81h-2.82l-3.63-11.48Z"/>
          <path class="cls-11" d="M280.09,187.04c-1.01-.23-1.86-.55-2.53-.96v-6.87h5.89v2.53h-2.77v2.72c.6.33,1.44.49,2.5.49,1.44,0,2.53-.39,3.26-1.18.74-.79,1.1-1.93,1.1-3.43,0-1.03-.16-1.86-.49-2.5-.33-.64-.87-1.11-1.62-1.42-.75-.31-1.77-.47-3.04-.47-.83,0-1.68.09-2.54.26-.86.17-1.57.42-2.15.75v-2.43c.65-.33,1.44-.58,2.34-.75.91-.17,1.87-.26,2.88-.26,2.49,0,4.41.59,5.77,1.78,1.36,1.19,2.04,2.87,2.04,5.04s-.65,3.89-1.95,5.15c-1.3,1.26-3.17,1.89-5.61,1.89-1.05,0-2.08-.11-3.09-.34Z"/>
          <path class="cls-11" d="M294.47,186.26c-1.18-.75-1.77-1.82-1.77-3.19,0-.67.2-1.28.59-1.82.39-.54.9-.92,1.52-1.13-.59-.28-1.07-.68-1.44-1.2-.37-.52-.55-1.11-.55-1.77,0-1.1.38-1.97,1.13-2.64.75-.66,1.86-.99,3.34-.99.46,0,.9.03,1.32.09.43.06.76.13,1.01.21v2.43c-.21-.1-.49-.17-.82-.22-.34-.05-.63-.07-.9-.07-1.26,0-1.89.47-1.89,1.4,0,.51.16.88.47,1.13s.81.37,1.5.37h1.64v2.53h-1.64c-1.39,0-2.09.56-2.09,1.69,0,.59.29,1.05.87,1.39.58.34,1.38.5,2.39.5,1.28,0,2.21-.26,2.81-.78.6-.52.9-1.29.9-2.31v-8h3.12v7.95c0,.93-.23,1.82-.67,2.66-.45.84-1.19,1.54-2.21,2.09-1.02.55-2.33.82-3.94.82-1.95,0-3.51-.38-4.69-1.13Z"/>
          <path class="cls-11" d="M300.15,193.09c-.61-.45-.92-1.05-.92-1.8v-.44c0-.23-.03-.38-.1-.45-.07-.07-.2-.11-.42-.11h-.83v-1.99h2.48c.46,0,.78.1.96.31.18.2.27.54.27.99v1.37c0,.65.35.98,1.05.98s1.03-.33,1.03-.98v-2.67h2.35v2.92c0,.75-.29,1.37-.86,1.84-.57.47-1.38.71-2.43.71-1.11,0-1.97-.23-2.59-.67Z"/>
          <path class="cls-11" d="M302.88,167.88h3.12v4.22h-3.12v-4.22Z"/>
          <path class="cls-11" d="M314.03,186.88c-.79-.33-1.5-.83-2.12-1.48v1.62h-2.99v-13.12h3.12v9.05c.85,1.34,2.03,2.01,3.53,2.01,1.93,0,2.89-.9,2.89-2.7v-8.37h3.09v8.51c0,.93-.2,1.78-.6,2.54-.4.76-.99,1.36-1.75,1.79-.77.43-1.68.65-2.75.65-.82,0-1.62-.17-2.42-.5Z"/>
          <path class="cls-11" d="M314.91,171.51c-.35-.39-.53-.98-.53-1.77v-1.42h2.8v1.13c0,.26.05.44.15.53.1.09.28.14.54.14h5.84v1.99h-7.11c-.77,0-1.33-.2-1.68-.59Z"/>
          <path class="cls-11" d="M317.09,165.67c0-.18-.03-.31-.1-.38-.06-.07-.2-.11-.39-.11h-1.03v-2.04h1.99c1,0,1.5.43,1.5,1.3v.71h4.22v1.86h-6.18v-1.35Z"/>
          <path class="cls-11" d="M325.77,186.26c-1.18-.75-1.77-1.82-1.77-3.19,0-.67.2-1.28.59-1.82.39-.54.9-.92,1.52-1.13-.59-.28-1.07-.68-1.44-1.2-.37-.52-.55-1.11-.55-1.77,0-1.1.38-1.97,1.13-2.64.75-.66,1.86-.99,3.34-.99.46,0,.9.03,1.32.09.43.06.76.13,1.01.21v2.43c-.21-.1-.49-.17-.82-.22-.34-.05-.63-.07-.9-.07-1.26,0-1.89.47-1.89,1.4,0,.51.16.88.47,1.13s.81.37,1.5.37h1.64v2.53h-1.64c-1.39,0-2.09.56-2.09,1.69,0,.59.29,1.05.87,1.39.58.34,1.38.5,2.39.5,1.28,0,2.21-.26,2.81-.78.6-.52.9-1.29.9-2.31v-8h3.12v7.95c0,.93-.23,1.82-.67,2.66-.45.84-1.19,1.54-2.21,2.09-1.02.55-2.33.82-3.94.82-1.95,0-3.51-.38-4.69-1.13Z"/>
        </g>
        <polygon class="cls-8" points="121.57 166.94 91.52 160.39 102.84 175.07 121.57 166.94"/>
      </g>
    </g>
    <circle class="cls-4" cx="51.47" cy="321.08" r="25.22"/>
    <g>
      <path class="cls-5" d="M375.12,309.91v236.7c0,7.76-6.84,14.05-15.27,14.05H118.26c-8.44,0-15.27-6.29-15.27-14.05v-236.7c0-7.76,6.84-14.05,15.27-14.05h241.59c8.44,0,15.27,6.29,15.27,14.05Z"/>
      <path class="cls-8" d="M375.12,475.67v69.72c0,8.44-6.84,15.27-15.27,15.27H118.26c-8.44,0-15.27-6.84-15.27-15.27v-69.72h272.14Z"/>
      <g>
        <path class="cls-8" d="M128.45,321.73h2.06v9.63h5.44v1.7h-7.5v-11.33Z"/>
        <path class="cls-8" d="M137.25,321.73h2.06v11.33h-2.06v-11.33Z"/>
        <path class="cls-8" d="M141.25,321.73h1.94l5.3,7.89v-7.89h2.06v11.33h-1.94l-5.3-7.91v7.91h-2.06v-11.33Z"/>
        <path class="cls-8" d="M152.5,321.73h7.67v1.7h-5.61v3.11h4.17v1.7h-4.17v3.11h5.61v1.7h-7.67v-11.33Z"/>
        <path class="cls-8" d="M170.07,332.56c-.91-.49-1.63-1.19-2.16-2.08-.52-.9-.79-1.92-.79-3.08s.26-2.18.79-3.08c.52-.9,1.24-1.59,2.16-2.09.91-.5,1.94-.75,3.07-.75s2.14.25,3.05.75c.91.5,1.63,1.19,2.16,2.09.52.9.79,1.92.79,3.08s-.26,2.18-.79,3.07-1.24,1.59-2.16,2.08c-.91.5-1.93.75-3.05.75s-2.16-.25-3.07-.74ZM175.12,330.94c.59-.33,1.07-.8,1.42-1.41.35-.61.53-1.32.53-2.13s-.17-1.5-.52-2.11c-.35-.61-.82-1.08-1.41-1.42-.59-.33-1.26-.5-1.99-.5s-1.4.17-2,.5c-.6.33-1.07.81-1.42,1.42-.35.61-.52,1.32-.52,2.11s.18,1.52.53,2.13c.35.61.83,1.08,1.43,1.41.6.33,1.26.49,1.98.49s1.38-.16,1.98-.49Z"/>
        <path class="cls-8" d="M180.76,321.73h4.54c1.24,0,2.24.33,2.99.99.75.66,1.13,1.56,1.13,2.71s-.37,2.09-1.12,2.71c-.75.62-1.75.93-3.01.93h-2.46v3.99h-2.06v-11.33ZM185.04,327.37c1.54,0,2.32-.65,2.32-1.94s-.77-1.99-2.32-1.99h-2.22v3.94h2.22Z"/>
        <path class="cls-8" d="M190.71,321.73h7.67v1.7h-5.61v3.11h4.17v1.7h-4.17v3.11h5.61v1.7h-7.67v-11.33Z"/>
        <path class="cls-8" d="M199.83,321.73h1.94l5.3,7.89v-7.89h2.06v11.33h-1.94l-5.3-7.91v7.91h-2.06v-11.33Z"/>
        <path class="cls-8" d="M213.66,332.58c-.92-.48-1.63-1.17-2.14-2.06s-.76-1.93-.76-3.12.25-2.23.76-3.12c.51-.89,1.22-1.58,2.14-2.07.92-.49,1.97-.73,3.16-.73,1.57,0,2.87.37,3.92,1.12v1.96c-.94-.8-2.19-1.2-3.74-1.2-.83,0-1.56.16-2.19.49-.63.33-1.11.8-1.46,1.4-.35.61-.52,1.32-.52,2.14s.18,1.53.53,2.14c.35.61.84,1.07,1.47,1.4.63.33,1.35.49,2.17.49s1.51-.1,2.14-.3c.63-.2,1.2-.52,1.73-.96v1.96c-.99.78-2.34,1.17-4.05,1.17-1.19,0-2.24-.24-3.16-.72Z"/>
        <path class="cls-8" d="M222.49,321.73h2.06v4.7h5.44v-4.7h2.04v11.33h-2.04v-4.93h-5.44v4.93h-2.06v-11.33Z"/>
        <path class="cls-8" d="M238.19,321.73h1.99l4.52,11.33h-2.09l-1.04-2.61h-4.8l-1.02,2.61h-2.11l4.54-11.33ZM241.01,328.75l-1.83-4.81-1.83,4.81h3.66Z"/>
        <path class="cls-8" d="M247.07,323.43h-3.42v-1.7h8.9v1.7h-3.42v9.63h-2.06v-9.63Z"/>
      </g>
      <g>
        <path class="cls-11" d="M125.46,524.61c-.47-.51-.71-1.21-.71-2.12v-10.89h3.27v9.86c0,.45.09.76.28.93s.5.26.93.26h.9v2.73h-2.63c-.89,0-1.57-.25-2.05-.76Z"/>
        <path class="cls-11" d="M135.34,525.09c-.96-.44-1.7-1.05-2.21-1.83-.52-.78-.77-1.67-.77-2.66v-.64c0-.6.12-1.15.37-1.65.25-.5.6-1.06,1.04-1.7.29-.41.51-.74.64-.98.14-.24.21-.47.21-.69,0-.52-.32-.77-.95-.77h-1.47v-2.57h3.19c.77,0,1.39.22,1.84.66.45.44.68,1.03.68,1.76,0,.51-.1.99-.3,1.42-.2.43-.48.95-.86,1.57-.38.62-.66,1.13-.85,1.53-.19.4-.28.84-.28,1.3v.64c0,.88.26,1.55.77,2.02.51.47,1.29.71,2.32.71,2.01,0,3.01-.95,3.01-2.86v-8.75h3.27v8.21c0,1.82-.54,3.27-1.63,4.34-1.09,1.07-2.64,1.61-4.65,1.61-1.29,0-2.41-.22-3.37-.66Z"/>
        <path class="cls-11" d="M139.12,508.09c0-.19-.04-.33-.12-.41-.08-.09-.22-.13-.42-.13h-1.18v-2.27h2.19c.58,0,1.01.14,1.29.42s.41.63.41,1.04v.82h5.28v2.14h-7.44v-1.62Z"/>
        <path class="cls-11" d="M152.51,516.56c0-1.01-.2-1.73-.6-2.16-.4-.43-1.13-.64-2.18-.64-.96,0-1.94.25-2.93.75v-2.55c.41-.21.96-.38,1.63-.53.68-.15,1.34-.22,2-.22,1.77,0,3.1.48,4,1.44.9.96,1.35,2.33,1.35,4.12v8.6h-3.27v-8.8Z"/>
        <path class="cls-11" d="M160.81,525.44c-1-.21-1.79-.51-2.35-.93v-2.55c.75.45,1.59.78,2.51,1,.92.22,1.76.33,2.54.33,1.03,0,1.77-.1,2.23-.31.45-.21.68-.59.68-1.16,0-.39-.12-.71-.36-.94-.24-.23-.57-.42-.98-.58-.41-.15-1.18-.4-2.32-.75-1.48-.46-2.58-1.02-3.31-1.67-.73-.65-1.09-1.54-1.09-2.65,0-1.29.51-2.28,1.54-2.99s2.42-1.06,4.17-1.06c.93,0,1.81.1,2.66.3s1.55.46,2.1.79v2.68c-.57-.36-1.25-.65-2.05-.88-.8-.22-1.6-.33-2.41-.33-1.84,0-2.75.5-2.75,1.49,0,.36.11.65.33.88s.52.41.9.55c.38.15.95.34,1.72.58l.85.26c1.1.34,1.95.71,2.56,1.11.61.39,1.04.85,1.29,1.36.25.51.37,1.15.37,1.9,0,1.15-.49,2.08-1.47,2.79-.98.71-2.45,1.07-4.4,1.07-.98,0-1.97-.1-2.97-.31Z"/>
        <path class="cls-11" d="M165.89,505.29h3.27v4.43h-3.27v-4.43Z"/>
        <path class="cls-11" d="M171.71,524.64v-2.57c1.06.76,2.55,1.13,4.45,1.13,1.56,0,2.77-.39,3.63-1.17.86-.78,1.29-1.96,1.29-3.54s-.43-2.76-1.29-3.55c-.86-.79-2.07-1.18-3.63-1.18-1.8,0-3.26.38-4.38,1.13v-2.57c1.18-.74,2.87-1.11,5.05-1.11,2.37,0,4.23.64,5.57,1.92,1.35,1.28,2.02,3.07,2.02,5.37s-.68,4.06-2.03,5.34c-1.36,1.28-3.21,1.92-5.56,1.92s-3.96-.37-5.12-1.11Z"/>
        <path class="cls-11" d="M192.37,525.22c-.83-.35-1.57-.87-2.23-1.56v1.7h-3.14v-13.77h3.27v9.5c.89,1.41,2.13,2.11,3.71,2.11,2.02,0,3.04-.94,3.04-2.83v-8.78h3.24v8.93c0,.98-.21,1.87-.63,2.66-.42.8-1.03,1.42-1.84,1.88s-1.77.68-2.88.68c-.86,0-1.7-.18-2.54-.53Z"/>
        <path class="cls-11" d="M205.26,524.61c-.47-.51-.71-1.21-.71-2.12v-9.37c0-1.24-.23-2.2-.68-2.9-.46-.7-1.19-1.25-2.2-1.66v-2.55h8.65v2.73h-4.38c1.25.91,1.88,2.39,1.88,4.45v8.26c0,.45.09.76.28.93s.5.26.93.26h.9v2.73h-2.63c-.89,0-1.57-.25-2.05-.76Z"/>
        <path class="cls-11" d="M214.26,525.39c-1.06-.24-1.95-.57-2.65-1v-7.21h6.18v2.65h-2.91v2.86c.63.34,1.51.52,2.63.52,1.51,0,2.65-.41,3.42-1.24.77-.82,1.16-2.02,1.16-3.6,0-1.08-.17-1.96-.51-2.63s-.91-1.17-1.7-1.49c-.79-.33-1.85-.49-3.19-.49-.88,0-1.76.09-2.66.27s-1.65.44-2.25.79v-2.55c.69-.34,1.51-.6,2.46-.79.95-.18,1.96-.27,3.02-.27,2.61,0,4.62.62,6.05,1.87s2.14,3.01,2.14,5.29-.68,4.08-2.05,5.41c-1.36,1.32-3.33,1.98-5.88,1.98-1.1,0-2.18-.12-3.24-.36Z"/>
        <path class="cls-11" d="M228.71,524.61c-.47-.51-.71-1.21-.71-2.12v-10.89h3.27v9.86c0,.45.09.76.28.93s.5.26.93.26h.9v2.73h-2.63c-.89,0-1.57-.25-2.05-.76Z"/>
        <path class="cls-11" d="M235.19,511.59h3.27l2.21,9.24,2.68-9.24h2.42l2.68,9.24,2.21-9.24h3.27l-3.84,13.77h-2.75l-2.78-9.47-2.78,9.47h-2.75l-3.84-13.77Z"/>
        <path class="cls-11" d="M258.72,525.07c-.81-.45-1.42-1.08-1.84-1.88-.42-.8-.63-1.69-.63-2.66v-8.93h3.27v8.78c0,1.89,1,2.83,3.01,2.83,1.58,0,2.81-.7,3.71-2.11v-9.5h3.27v13.77h-3.14v-1.7c-.65.69-1.39,1.21-2.23,1.56-.83.35-1.68.53-2.54.53-1.12,0-2.08-.23-2.88-.68Z"/>
        <path class="cls-11" d="M273.3,524.61c-.47-.51-.71-1.21-.71-2.12v-10.89h3.27v9.86c0,.45.09.76.28.93s.5.26.93.26h.9v2.73h-2.63c-.89,0-1.57-.25-2.05-.76ZM280.22,524.61c-.47-.51-.71-1.21-.71-2.12v-10.89h3.27v9.86c0,.45.09.76.28.93.19.17.5.26.93.26h.9v2.73h-2.63c-.89,0-1.57-.25-2.05-.76Z"/>
        <path class="cls-11" d="M290.15,525.09c-.96-.44-1.71-1.05-2.24-1.83-.53-.78-.8-1.67-.8-2.66v-.64c0-.6.13-1.16.39-1.67.26-.51.61-1.09,1.06-1.72.31-.46.52-.8.64-1s.18-.41.18-.62c0-.52-.32-.77-.95-.77h-1.47v-2.57h3.19c.77,0,1.39.22,1.84.66.45.44.68,1.03.68,1.76,0,.51-.1.99-.3,1.42-.2.43-.48.95-.86,1.57-.38.62-.66,1.13-.85,1.53-.19.4-.28.84-.28,1.3v.64c0,.86.27,1.53.81,2.01.54.48,1.31.72,2.3.72,1.05,0,1.85-.29,2.41-.86.56-.57.84-1.42.84-2.54,0-2.25-.92-3.37-2.75-3.37v-1.72l2.63-3.5h3.5l-2.86,3.81c.98.46,1.68,1.08,2.11,1.85.43.77.64,1.75.64,2.93s-.27,2.17-.8,3.08c-.53.9-1.29,1.6-2.28,2.11-.99.51-2.13.76-3.44.76s-2.39-.22-3.35-.66Z"/>
        <path class="cls-11" d="M302.68,511.59h3.14v1.7c.65-.69,1.41-1.21,2.28-1.56.87-.35,1.74-.53,2.61-.53,1.7,0,2.99.48,3.89,1.43.89.95,1.34,2.18,1.34,3.67v9.06h-3.27v-8.91c0-1.8-.96-2.7-2.88-2.7-1.67,0-2.94.7-3.84,2.11v9.5h-3.27v-13.77Z"/>
        <path class="cls-11" d="M327.78,520.81l7.95-3.78-7.95-3.78v-3.22l11.92,5.84v2.29l-11.92,5.87v-3.22Z"/>
      </g>
      <g>
        <path class="cls-10" d="M124.59,456.08c0-1.65.55-2.92,1.64-3.82,1.09-.9,2.57-1.35,4.43-1.35s3.33.45,4.42,1.35c1.08.9,1.63,2.18,1.63,3.82v7.42h-2.91v-7.53c0-.93-.27-1.63-.81-2.1-.54-.47-1.32-.7-2.32-.7s-1.79.23-2.34.69c-.55.46-.82,1.16-.82,2.11v2.01c.2-.32.49-.58.88-.78.39-.2.84-.3,1.36-.3h1.85v2.43h-2.06c-.6,0-1.08.19-1.47.58-.38.39-.57.86-.57,1.41v2.18h-2.91v-7.42Z"/>
        <path class="cls-10" d="M134.16,467.27c0-.27-.05-.47-.14-.57-.09-.11-.27-.16-.55-.16h-.8v-1.85h2.13c.76,0,1.28.14,1.56.42.27.28.41.8.41,1.55v2.98h-2.61v-2.36Z"/>
        <path class="cls-10" d="M150.29,463.23c-.68-.4-1.19-.96-1.55-1.67-.35-.71-.53-1.5-.53-2.37v-3.23c0-.96-.23-1.67-.69-2.12-.46-.45-1.15-.68-2.08-.68-.7,0-1.32.11-1.85.32-.53.21-1.03.56-1.49,1.05l.94,1.51v3.94c0,.4.09.68.26.84.18.16.47.24.88.24h1.24v2.43h-2.79c-.81,0-1.43-.23-1.85-.69-.43-.46-.64-1.08-.64-1.88v-4.9l-1.14-1.9c.84-1.05,1.78-1.85,2.83-2.4,1.05-.55,2.26-.82,3.63-.82,1.85,0,3.25.42,4.21,1.27.96.85,1.44,2.03,1.44,3.56v3.32c0,.86.2,1.49.6,1.9.4.41,1.02.62,1.88.62.67,0,1.29-.16,1.84-.49.56-.33.97-.79,1.25-1.39v-8.45h2.89v12.25h-2.79v-1.44c-.96,1.19-2.3,1.79-4.01,1.79-.96,0-1.78-.2-2.46-.61Z"/>
        <path class="cls-10" d="M163.66,462.82c-.42-.45-.63-1.08-.63-1.89v-8.27c0-1.83.56-3.15,1.67-3.96h-3.89v-2.43h7.69v2.27c-.9.37-1.55.86-1.96,1.48s-.61,1.48-.61,2.58v7.42c0,.4.08.67.25.82.17.15.44.23.82.23h.8v2.43h-2.34c-.79,0-1.4-.23-1.82-.68Z"/>
        <path class="cls-10" d="M171.26,462.27c-1.08-1.05-1.61-2.58-1.61-4.59,0-1.4.28-2.61.84-3.63s1.36-1.79,2.4-2.34c1.05-.54,2.28-.81,3.7-.81,2.24,0,3.88.52,4.92,1.56,1.04,1.04,1.56,2.39,1.56,4.05v6.98h-2.91v-7.01c0-1.07-.28-1.89-.84-2.46-.56-.57-1.47-.86-2.74-.86s-2.19.39-2.9,1.18c-.71.79-1.06,1.9-1.06,3.33,0,1.31.31,2.29.92,2.93.61.64,1.49.96,2.63.96.56,0,1.09-.08,1.58-.23v2.22c-.6.18-1.29.27-2.08.27-1.86,0-3.33-.52-4.41-1.57Z"/>
        <path class="cls-10" d="M177.84,448.13c0-.17-.03-.29-.1-.37-.07-.08-.19-.11-.38-.11h-1.05v-2.02h1.95c.52,0,.9.13,1.14.38.24.25.37.56.37.93v.73h4.69v1.9h-6.62v-1.44Z"/>
        <path class="cls-10" d="M187.54,463.56c-.89-.18-1.59-.46-2.1-.82v-2.27c.67.4,1.42.69,2.23.89.82.2,1.57.3,2.26.3.92,0,1.58-.09,1.98-.27.4-.18.61-.53.61-1.03,0-.35-.11-.63-.32-.84-.21-.21-.5-.38-.87-.52-.37-.14-1.05-.36-2.06-.66-1.31-.41-2.29-.91-2.94-1.49-.65-.58-.97-1.37-.97-2.36,0-1.14.46-2.03,1.37-2.66.92-.63,2.15-.94,3.71-.94.82,0,1.61.09,2.37.26.76.18,1.38.41,1.87.7v2.38c-.5-.32-1.11-.58-1.82-.78-.71-.2-1.42-.3-2.14-.3-1.63,0-2.45.44-2.45,1.33,0,.32.1.58.3.78.2.2.47.36.8.49.34.13.85.3,1.53.52l.76.23c.98.31,1.74.63,2.28.98.54.35.92.76,1.14,1.21.22.46.33,1.02.33,1.69,0,1.02-.44,1.85-1.31,2.48-.87.63-2.18.95-3.92.95-.87,0-1.75-.09-2.64-.27Z"/>
        <path class="cls-10" d="M188.76,449.03c-.33-.37-.49-.92-.49-1.65v-1.33h2.61v1.05c0,.24.05.41.14.49.09.08.26.13.5.13h5.45v1.85h-6.64c-.72,0-1.24-.18-1.57-.55Z"/>
        <path class="cls-10" d="M200.62,463.18c-.92-.44-1.63-1.06-2.13-1.84-.5-.79-.74-1.68-.74-2.69v-7.4h2.91v7.28c0,.96.27,1.71.8,2.24.53.53,1.33.8,2.38.8s1.82-.27,2.36-.8c.53-.53.8-1.28.8-2.24v-7.28h2.91v7.4c0,1.01-.25,1.9-.74,2.69-.5.79-1.2,1.4-2.12,1.84-.92.44-1.98.66-3.21.66s-2.29-.22-3.22-.66Z"/>
        <path class="cls-10" d="M212.65,456.08c0-1.65.55-2.92,1.64-3.82,1.09-.9,2.57-1.35,4.43-1.35s3.33.45,4.42,1.35c1.08.9,1.63,2.18,1.63,3.82v7.42h-2.91v-7.53c0-.93-.27-1.63-.81-2.1-.54-.47-1.32-.7-2.32-.7s-1.79.23-2.34.69c-.55.46-.82,1.16-.82,2.11v2.01c.2-.32.49-.58.88-.78.39-.2.84-.3,1.36-.3h1.85v2.43h-2.06c-.6,0-1.08.19-1.47.58-.38.39-.57.86-.57,1.41v2.18h-2.91v-7.42Z"/>
        <path class="cls-10" d="M221.25,449.19c-.51-.5-.77-1.12-.77-1.85s.26-1.34.78-1.85c.52-.52,1.14-.78,1.85-.78s1.33.26,1.84.78c.51.52.77,1.14.77,1.85s-.26,1.35-.77,1.85c-.51.5-1.13.76-1.84.76s-1.35-.25-1.87-.76ZM223.78,448.05c.2-.21.3-.44.3-.7s-.1-.49-.29-.7c-.19-.21-.42-.31-.68-.31-.27,0-.51.1-.7.3-.19.2-.29.44-.29.71,0,.26.1.49.29.7s.42.31.7.31c.24,0,.47-.1.66-.31Z"/>
        <path class="cls-10" d="M231.45,455.67c0-.9-.18-1.54-.54-1.92-.36-.38-1-.57-1.93-.57-.85,0-1.73.22-2.61.66v-2.27c.37-.18.85-.34,1.45-.47.6-.13,1.19-.19,1.77-.19,1.57,0,2.76.43,3.56,1.28.8.85,1.2,2.08,1.2,3.66v7.65h-2.91v-7.83Z"/>
        <path class="cls-10" d="M237.73,462.82c-.42-.45-.63-1.08-.63-1.89v-9.69h2.91v8.77c0,.4.08.67.25.82s.44.23.82.23h.8v2.43h-2.34c-.79,0-1.4-.23-1.82-.68Z"/>
        <path class="cls-10" d="M246.56,463.26c-.86-.39-1.52-.93-1.99-1.63-.47-.69-.71-1.48-.71-2.37v-.57c0-.53.11-1.03.34-1.49.23-.46.54-.97.94-1.53.27-.41.47-.71.57-.89.11-.18.16-.37.16-.55,0-.46-.28-.69-.85-.69h-1.31v-2.29h2.84c.69,0,1.23.19,1.64.58.4.39.61.91.61,1.57,0,.46-.09.88-.26,1.26-.18.38-.43.85-.77,1.4-.34.55-.59,1-.76,1.36-.17.36-.25.74-.25,1.16v.57c0,.76.24,1.36.72,1.79.48.43,1.16.64,2.05.64.93,0,1.64-.26,2.14-.77.5-.51.74-1.26.74-2.26,0-2-.82-3-2.45-3v-1.53l2.34-3.11h3.11l-2.54,3.39c.87.41,1.5.96,1.88,1.65.38.69.57,1.56.57,2.61s-.24,1.93-.71,2.74c-.47.8-1.15,1.43-2.03,1.88-.88.45-1.9.68-3.06.68s-2.12-.19-2.98-.58Z"/>
        <path class="cls-10" d="M244.73,447.72h10.23v1.85h-10.23v-1.85Z"/>
        <path class="cls-10" d="M269.94,465.49c-.82-.17-1.49-.4-1.99-.69v-2.4c1.33.72,2.82,1.08,4.49,1.08,1.1,0,1.92-.12,2.45-.35.53-.24.8-.61.8-1.11,0-.34-.12-.64-.37-.92-1.01.49-2.05.73-3.14.73-1.88,0-3.3-.45-4.26-1.34-.96-.89-1.44-2.14-1.44-3.74v-.78c0-.96-.23-1.67-.69-2.12-.46-.45-1.15-.68-2.08-.68-.7,0-1.32.11-1.85.32-.53.21-1.03.56-1.49,1.05l.94,1.51v3.94c0,.4.08.68.25.84.17.16.45.24.85.24h1.28v2.43h-2.79c-.81,0-1.43-.23-1.85-.69-.43-.46-.64-1.08-.64-1.88v-4.9l-1.14-1.9c.84-1.05,1.78-1.85,2.83-2.4,1.05-.55,2.26-.82,3.63-.82,1.85,0,3.25.42,4.21,1.27.96.85,1.44,2.03,1.44,3.56v.78c0,1.04.22,1.81.65,2.3.44.5,1.18.74,2.23.74,1.94,0,2.91-1.01,2.91-3.05v-5.27h2.91v5.5c0,.95-.3,1.87-.89,2.77.78.69,1.17,1.52,1.17,2.5,0,1.19-.55,2.11-1.65,2.76-1.1.65-2.52.97-4.26.97-.84,0-1.67-.08-2.5-.25Z"/>
      </g>
      <g>
        <path class="cls-10" d="M134.55,379.1c-1.83-.35-3.33-.81-4.5-1.38v-4.93c1.51.72,3.09,1.27,4.75,1.63,1.66.36,3.29.54,4.89.54,2.02,0,3.56-.38,4.62-1.13,1.06-.75,1.58-1.79,1.58-3.12,0-.93-.24-1.71-.72-2.33-.48-.62-1.19-1.16-2.13-1.63-.94-.47-2.37-1.08-4.3-1.83-2.96-1.21-5.1-2.55-6.43-4.03-1.33-1.48-1.99-3.32-1.99-5.52,0-1.72.47-3.24,1.4-4.57.93-1.33,2.25-2.35,3.94-3.08,1.69-.72,3.64-1.09,5.84-1.09,1.81,0,3.42.14,4.82.43,1.4.29,2.78.73,4.14,1.33v4.8c-2.62-1.27-5.28-1.9-7.96-1.9-1.93,0-3.42.35-4.48,1.06-1.06.71-1.58,1.71-1.58,3.01,0,.94.24,1.7.72,2.29.48.59,1.12,1.09,1.92,1.49.8.41,2.24,1.05,4.32,1.92,2.11.88,3.78,1.74,5,2.58,1.22.85,2.14,1.83,2.76,2.96.62,1.13.93,2.51.93,4.14,0,2.81-1.01,4.99-3.03,6.54-2.02,1.55-5.01,2.33-8.96,2.33-1.87,0-3.72-.17-5.54-.52Z"/>
        <path class="cls-10" d="M156.61,345.5h5.7v14.48c2.05-2.29,4.71-3.44,7.97-3.44,2.93,0,5.11.79,6.56,2.38s2.17,3.69,2.17,6.31v13.71h-5.7v-13.17c0-3.17-1.48-4.75-4.44-4.75-1.3,0-2.52.31-3.67.93-1.15.62-2.11,1.55-2.9,2.78v14.21h-5.7v-33.45Z"/>
        <path class="cls-10" d="M185.15,352.51c-.62-.6-.93-1.36-.93-2.26s.31-1.67.93-2.29c.62-.62,1.38-.93,2.29-.93s1.67.31,2.31.93c.63.62.95,1.38.95,2.29s-.32,1.66-.95,2.26c-.63.6-1.4.91-2.31.91s-1.67-.3-2.29-.91ZM184.54,357.22h5.79v21.72h-5.79v-21.72Z"/>
        <path class="cls-10" d="M196.12,357.22h5.52v2.62c1.18-1.12,2.46-1.95,3.85-2.49,1.39-.54,2.97-.81,4.75-.81,2.2,0,4.17.48,5.91,1.43,1.73.95,3.09,2.29,4.07,4.03.98,1.74,1.47,3.75,1.47,6.04s-.49,4.27-1.47,6.02c-.98,1.75-2.34,3.12-4.07,4.1-1.74.98-3.7,1.47-5.91,1.47-1.66,0-3.22-.23-4.68-.7-1.46-.47-2.71-1.17-3.73-2.1v12.04h-5.7v-31.64ZM213.91,373.15c1.33-1.33,1.99-3.03,1.99-5.11s-.66-3.77-1.99-5.07c-1.33-1.3-3.02-1.95-5.07-1.95-1.63,0-3.08.44-4.34,1.31-1.27.88-2.16,2.05-2.67,3.53v4.39c.48,1.48,1.36,2.66,2.65,3.55,1.28.89,2.74,1.34,4.37,1.34,2.05,0,3.74-.66,5.07-1.99Z"/>
        <path class="cls-10" d="M134.55,424.1c-1.83-.35-3.33-.81-4.5-1.38v-4.93c1.51.72,3.09,1.27,4.75,1.63,1.66.36,3.29.54,4.89.54,2.02,0,3.56-.38,4.62-1.13,1.06-.75,1.58-1.79,1.58-3.12,0-.93-.24-1.71-.72-2.33-.48-.62-1.19-1.16-2.13-1.63-.94-.47-2.37-1.08-4.3-1.83-2.96-1.21-5.1-2.55-6.43-4.03-1.33-1.48-1.99-3.32-1.99-5.52,0-1.72.47-3.24,1.4-4.57.93-1.33,2.25-2.35,3.94-3.08,1.69-.72,3.64-1.09,5.84-1.09,1.81,0,3.42.14,4.82.43,1.4.29,2.78.73,4.14,1.33v4.8c-2.62-1.27-5.28-1.9-7.96-1.9-1.93,0-3.42.35-4.48,1.06-1.06.71-1.58,1.71-1.58,3.01,0,.94.24,1.7.72,2.29.48.59,1.12,1.09,1.92,1.49.8.41,2.24,1.05,4.32,1.92,2.11.88,3.78,1.74,5,2.58,1.22.85,2.14,1.83,2.76,2.96.62,1.13.93,2.51.93,4.14,0,2.81-1.01,4.99-3.03,6.54-2.02,1.55-5.01,2.33-8.96,2.33-1.87,0-3.72-.17-5.54-.52Z"/>
        <path class="cls-10" d="M156.61,390.5h5.7v14.48c2.05-2.29,4.71-3.44,7.97-3.44,2.93,0,5.11.79,6.56,2.38s2.17,3.69,2.17,6.31v13.71h-5.7v-13.17c0-3.17-1.48-4.75-4.44-4.75-1.3,0-2.52.31-3.67.93-1.15.62-2.11,1.55-2.9,2.78v14.21h-5.7v-33.45Z"/>
        <path class="cls-10" d="M188.68,423.24c-1.92-.92-3.4-2.25-4.46-3.98-1.06-1.73-1.58-3.79-1.58-6.18s.52-4.35,1.56-6.09c1.04-1.73,2.53-3.08,4.46-4.03,1.93-.95,4.16-1.43,6.7-1.43s4.76.48,6.68,1.43c1.92.95,3.4,2.29,4.46,4.03,1.06,1.74,1.58,3.76,1.58,6.09s-.53,4.44-1.58,6.18c-1.06,1.74-2.54,3.06-4.46,3.98-1.92.92-4.14,1.38-6.68,1.38s-4.76-.46-6.68-1.38ZM200.33,418.17c1.24-1.31,1.86-3.01,1.86-5.09,0-2.2-.61-3.93-1.83-5.18-1.22-1.25-2.89-1.88-5-1.88s-3.78.63-5,1.88c-1.22,1.25-1.83,2.98-1.83,5.18,0,2.08.62,3.78,1.86,5.09,1.24,1.31,2.9,1.97,4.98,1.97s3.74-.66,4.98-1.97Z"/>
        <path class="cls-10" d="M212.6,402.22h5.52v2.62c1.18-1.12,2.46-1.95,3.85-2.49,1.39-.54,2.97-.81,4.75-.81,2.2,0,4.17.48,5.91,1.43,1.73.95,3.09,2.29,4.07,4.03.98,1.74,1.47,3.75,1.47,6.04s-.49,4.27-1.47,6.02c-.98,1.75-2.34,3.12-4.07,4.1-1.74.98-3.7,1.47-5.91,1.47-1.66,0-3.22-.23-4.68-.7-1.46-.47-2.71-1.17-3.73-2.1v12.04h-5.7v-31.64ZM230.38,418.15c1.33-1.33,1.99-3.03,1.99-5.11s-.66-3.77-1.99-5.07c-1.33-1.3-3.02-1.95-5.07-1.95-1.63,0-3.08.44-4.34,1.31-1.27.88-2.16,2.05-2.67,3.53v4.39c.48,1.48,1.36,2.66,2.65,3.55,1.28.89,2.74,1.34,4.37,1.34,2.05,0,3.74-.66,5.07-1.99Z"/>
      </g>
    </g>
    <g>
      <circle class="cls-3" cx="51.47" cy="249.76" r="25.22"/>
      <g>
        <rect class="cls-8" x="102.99" y="224.54" width="386.92" height="50.44" rx="14.43" ry="14.43"/>
        <g>
          <path class="cls-11" d="M128.91,258.21c-.79-.33-1.5-.83-2.12-1.48v1.62h-2.99v-13.12h3.12v9.05c.85,1.34,2.03,2.01,3.53,2.01,1.93,0,2.89-.9,2.89-2.7v-8.37h3.09v8.51c0,.93-.2,1.78-.6,2.54-.4.76-.99,1.36-1.75,1.79-.77.43-1.68.65-2.75.65-.82,0-1.62-.17-2.42-.5Z"/>
          <path class="cls-11" d="M125.51,241.44h8.17v-2.65h2.8v4.64h-10.97v-1.99Z"/>
          <path class="cls-11" d="M139.37,250.4c0-1.77.58-3.13,1.75-4.1,1.17-.96,2.75-1.45,4.75-1.45s3.57.48,4.73,1.45c1.16.97,1.74,2.33,1.74,4.1v7.95h-3.12v-8.07c0-1-.29-1.75-.87-2.24-.58-.5-1.41-.75-2.49-.75s-1.91.25-2.5.74-.88,1.24-.88,2.26v2.16c.21-.34.53-.62.94-.83.42-.21.9-.32,1.46-.32h1.99v2.6h-2.21c-.64,0-1.16.21-1.57.63-.41.42-.61.92-.61,1.51v2.33h-3.12v-7.95Z"/>
          <path class="cls-11" d="M157.65,258.06c-.77-.43-1.35-1.03-1.75-1.79-.4-.76-.6-1.61-.6-2.54v-8.51h3.12v8.37c0,1.8.96,2.7,2.87,2.7,1.5,0,2.68-.67,3.53-2.01v-9.05h3.12v13.12h-2.99v-1.62c-.62.65-1.33,1.15-2.12,1.48-.79.34-1.6.5-2.42.5-1.06,0-1.98-.22-2.75-.65Z"/>
          <path class="cls-11" d="M171.52,257.62c-.45-.48-.67-1.16-.67-2.02v-6.23c0-.79.15-1.46.44-2.02s.71-1.17,1.25-1.8c.36-.44.63-.81.8-1.09.17-.29.26-.59.26-.92,0-.51-.13-.87-.39-1.1-.26-.23-.72-.34-1.37-.34-.98,0-1.87.29-2.67.86v-2.38c.51-.29,1.08-.52,1.72-.67.64-.16,1.29-.23,1.96-.23,1.32,0,2.31.31,2.97.93.65.62.98,1.43.98,2.43,0,.57-.11,1.08-.34,1.52-.23.44-.57.96-1.03,1.55-.49.62-.85,1.16-1.09,1.61-.24.45-.36.99-.36,1.63v5.3c0,.43.09.72.27.88.18.16.47.25.88.25h.86v2.6h-2.5c-.85,0-1.5-.24-1.95-.72Z"/>
          <path class="cls-11" d="M180.85,258.06c-.77-.43-1.35-1.03-1.75-1.79-.4-.76-.6-1.61-.6-2.54v-8.51h3.12v8.37c0,1.8.96,2.7,2.87,2.7,1.5,0,2.68-.67,3.53-2.01v-9.05h3.12v13.12h-2.99v-1.62c-.62.65-1.33,1.15-2.12,1.48-.79.34-1.6.5-2.42.5-1.06,0-1.98-.22-2.75-.65Z"/>
          <path class="cls-11" d="M194.81,250.35l-1.23-2.04c.9-1.13,1.93-1.99,3.1-2.58s2.52-.88,4.06-.88c2.04,0,3.61.46,4.7,1.37,1.09.92,1.63,2.18,1.63,3.8v8.32h-3.12v-8.07c0-1.01-.27-1.77-.81-2.26-.54-.49-1.34-.74-2.4-.74-.8,0-1.51.11-2.12.34-.61.23-1.18.61-1.71,1.13l1.01,1.62v7.97h-3.12v-8Z"/>
          <path class="cls-11" d="M210.87,257.61c-.89-.74-1.34-1.77-1.34-3.12,0-.88.22-1.66.67-2.33.45-.67,1.09-1.19,1.91-1.57.83-.38,1.79-.56,2.91-.56,1.59,0,2.96.27,4.12.81v-.59c0-1.01-.3-1.76-.9-2.24-.6-.48-1.56-.72-2.88-.72-.8,0-1.59.08-2.37.25-.78.16-1.45.38-2.02.66v-2.43c.52-.25,1.25-.46,2.17-.64.92-.18,1.83-.27,2.71-.27,2.13,0,3.72.48,4.78,1.45,1.06.97,1.59,2.26,1.59,3.88v8.17h-3.09v-5.05c-1.1-.56-2.35-.83-3.75-.83-.92,0-1.6.18-2.05.53-.45.35-.67.86-.67,1.53,0,.61.2,1.05.61,1.34.41.29,1.05.43,1.94.43.56,0,1.04-.08,1.45-.25v2.38c-.61.2-1.37.29-2.28.29-1.46,0-2.63-.37-3.52-1.1Z"/>
          <path class="cls-11" d="M219.52,262.39c0-.29-.05-.5-.15-.61-.1-.11-.29-.17-.59-.17h-.86v-1.99h2.28c.82,0,1.37.15,1.67.45.29.3.44.85.44,1.66v3.19h-2.8v-2.53Z"/>
          <path class="cls-11" d="M219.15,239.21h3.12v4.22h-3.12v-4.22Z"/>
          <path class="cls-11" d="M230.3,258.21c-.79-.33-1.5-.83-2.12-1.48v1.62h-2.99v-13.12h3.12v9.05c.85,1.34,2.03,2.01,3.53,2.01,1.93,0,2.89-.9,2.89-2.7v-8.37h3.09v8.51c0,.93-.2,1.78-.6,2.54-.4.76-.99,1.36-1.75,1.79-.77.43-1.68.65-2.75.65-.82,0-1.62-.17-2.42-.5Z"/>
          <path class="cls-11" d="M241.61,257.61c-.89-.74-1.34-1.77-1.34-3.12,0-.88.22-1.66.67-2.33.45-.67,1.09-1.19,1.91-1.57.83-.38,1.79-.56,2.91-.56,1.59,0,2.96.27,4.12.81v-.59c0-1.01-.3-1.76-.9-2.24-.6-.48-1.56-.72-2.88-.72-.8,0-1.59.08-2.37.25-.78.16-1.45.38-2.02.66v-2.43c.52-.25,1.25-.46,2.17-.64.92-.18,1.83-.27,2.71-.27,1.33,0,2.47.2,3.44.61l1.08-1.23h3.43l-2.53,2.9c.64.72.96,1.73.96,3.04v8.17h-3.09v-5.05c-1.1-.56-2.35-.83-3.75-.83-.92,0-1.6.18-2.05.53-.45.35-.67.86-.67,1.53,0,.61.2,1.05.61,1.34.41.29,1.05.43,1.94.43.56,0,1.04-.08,1.45-.25v2.38c-.61.2-1.37.29-2.28.29-1.46,0-2.63-.37-3.52-1.1Z"/>
          <path class="cls-11" d="M258.87,258.06c-.77-.43-1.35-1.03-1.75-1.79-.4-.76-.6-1.61-.6-2.54v-8.51h3.12v8.37c0,1.8.96,2.7,2.87,2.7,1.5,0,2.68-.67,3.53-2.01v-9.05h3.12v13.12h-2.99v-1.62c-.62.65-1.33,1.15-2.12,1.48-.79.34-1.6.5-2.42.5-1.06,0-1.98-.22-2.75-.65Z"/>
          <path class="cls-11" d="M272.74,257.62c-.45-.48-.67-1.16-.67-2.02v-6.23c0-.79.15-1.46.44-2.02s.71-1.17,1.25-1.8c.36-.44.63-.81.8-1.09.17-.29.26-.59.26-.92,0-.51-.13-.87-.39-1.1-.26-.23-.72-.34-1.37-.34-.98,0-1.87.29-2.67.86v-2.38c.51-.29,1.08-.52,1.72-.67.64-.16,1.29-.23,1.96-.23,1.32,0,2.31.31,2.97.93.65.62.98,1.43.98,2.43,0,.57-.11,1.08-.34,1.52-.23.44-.57.96-1.03,1.55-.49.62-.85,1.16-1.09,1.61-.24.45-.36.99-.36,1.63v5.3c0,.43.09.72.27.88.18.16.47.25.88.25h.86v2.6h-2.5c-.85,0-1.5-.24-1.95-.72Z"/>
          <path class="cls-11" d="M279.75,251.13h3.09l1.18,4.78c1.37,0,2.48-.36,3.32-1.09.84-.73,1.26-1.76,1.26-3.1,0-1.44-.37-2.54-1.1-3.3-.74-.76-1.95-1.14-3.66-1.14-.82,0-1.65.08-2.5.25-.85.16-1.55.38-2.11.64v-2.43c.64-.28,1.4-.49,2.28-.65.88-.16,1.79-.23,2.72-.23,2.37,0,4.22.6,5.56,1.79,1.33,1.19,2,2.89,2,5.08,0,1.32-.33,2.49-.98,3.48-.65,1-1.55,1.77-2.67,2.32-1.13.55-2.36.82-3.7.82h-2.89l-1.79-7.21Z"/>
          <path class="cls-11" d="M303.92,257.61c-.89-.74-1.34-1.77-1.34-3.12,0-.88.22-1.66.67-2.33.45-.67,1.09-1.19,1.91-1.57.83-.38,1.79-.56,2.91-.56,1.59,0,2.96.27,4.12.81v-.59c0-1.01-.3-1.76-.9-2.24-.6-.48-1.56-.72-2.88-.72-.8,0-1.59.08-2.37.25-.78.16-1.45.38-2.02.66v-2.43c.52-.25,1.25-.46,2.17-.64.92-.18,1.83-.27,2.71-.27,1.33,0,2.47.2,3.44.61l1.08-1.23h3.43l-2.53,2.9c.64.72.96,1.73.96,3.04v8.17h-3.09v-5.05c-1.1-.56-2.35-.83-3.75-.83-.92,0-1.6.18-2.05.53-.45.35-.67.86-.67,1.53,0,.61.2,1.05.61,1.34.41.29,1.05.43,1.94.43.56,0,1.04-.08,1.45-.25v2.38c-.61.2-1.37.29-2.28.29-1.46,0-2.63-.37-3.52-1.1Z"/>
          <path class="cls-11" d="M318.82,249.98c-.32-.36-.48-.92-.48-1.67v-1.57h2.8v1.01c0,.25.05.42.16.52.11.1.29.15.55.15h2.89v2.11h-4.27c-.79,0-1.34-.18-1.66-.54ZM318.82,256.63c-.32-.36-.48-.92-.48-1.67v-1.57h2.8v1.01c0,.25.05.42.16.52.11.1.29.15.55.15h2.89v2.11h-4.27c-.79,0-1.34-.18-1.66-.54Z"/>
          <path class="cls-11" d="M328.43,257.03c-1.15-1.12-1.73-2.76-1.73-4.92,0-1.5.3-2.8.9-3.89.6-1.09,1.46-1.92,2.58-2.5,1.12-.58,2.44-.87,3.96-.87,2.4,0,4.16.56,5.27,1.67,1.11,1.11,1.67,2.56,1.67,4.34v7.48h-3.12v-7.51c0-1.14-.3-2.02-.9-2.64s-1.57-.92-2.93-.92-2.34.42-3.1,1.26c-.76.84-1.14,2.03-1.14,3.57,0,1.41.33,2.45.98,3.14.65.69,1.59,1.03,2.82,1.03.6,0,1.17-.08,1.69-.25v2.38c-.64.2-1.38.29-2.23.29-2,0-3.57-.56-4.72-1.68Z"/>
          <path class="cls-11" d="M343.53,257.66v-2.45c1.01.72,2.43,1.08,4.24,1.08,1.49,0,2.64-.37,3.46-1.12.82-.74,1.23-1.87,1.23-3.37s-.41-2.63-1.23-3.39c-.82-.75-1.97-1.13-3.46-1.13-1.72,0-3.11.36-4.17,1.08v-2.45c1.13-.7,2.73-1.05,4.81-1.05,2.26,0,4.03.61,5.31,1.83,1.28,1.22,1.93,2.92,1.93,5.11s-.65,3.87-1.94,5.09c-1.29,1.22-3.06,1.83-5.3,1.83s-3.77-.35-4.88-1.05Z"/>
          <path class="cls-11" d="M358.84,250.35l-1.23-2.04c.9-1.13,1.93-1.99,3.1-2.58s2.52-.88,4.06-.88c2.04,0,3.61.46,4.7,1.37,1.09.92,1.63,2.18,1.63,3.8v8.32h-3.12v-8.07c0-1.01-.27-1.77-.81-2.26-.54-.49-1.34-.74-2.4-.74-.8,0-1.51.11-2.12.34-.61.23-1.18.61-1.71,1.13l1.01,1.62v7.97h-3.12v-8Z"/>
          <path class="cls-11" d="M374.9,257.61c-.89-.74-1.34-1.77-1.34-3.12,0-.88.22-1.66.67-2.33.45-.67,1.09-1.19,1.91-1.57.83-.38,1.79-.56,2.91-.56,1.59,0,2.96.27,4.12.81v-.59c0-1.01-.3-1.76-.9-2.24-.6-.48-1.56-.72-2.88-.72-.8,0-1.59.08-2.37.25-.78.16-1.45.38-2.02.66v-2.43c.52-.25,1.25-.46,2.17-.64.92-.18,1.83-.27,2.71-.27,2.13,0,3.72.48,4.78,1.45,1.06.97,1.59,2.26,1.59,3.88v8.17h-3.09v-5.05c-1.1-.56-2.35-.83-3.75-.83-.92,0-1.6.18-2.05.53-.45.35-.67.86-.67,1.53,0,.61.2,1.05.61,1.34.41.29,1.05.43,1.94.43.56,0,1.04-.08,1.45-.25v2.38c-.61.2-1.37.29-2.28.29-1.46,0-2.63-.37-3.52-1.1Z"/>
          <path class="cls-11" d="M388.72,246.86h3.12l2.87,9.05c1.37,0,2.43-.39,3.18-1.17.74-.78,1.12-1.88,1.12-3.32s-.25-2.43-.76-3.12c-.51-.69-1.32-1.03-2.43-1.03-.61,0-1.17.08-1.69.25v-2.38c.64-.2,1.38-.29,2.23-.29,1.91,0,3.37.58,4.35,1.74.99,1.16,1.48,2.77,1.48,4.83,0,1.44-.31,2.68-.94,3.73-.63,1.05-1.48,1.84-2.54,2.38-1.06.54-2.24.81-3.53.81h-2.82l-3.63-11.48Z"/>
          <path class="cls-11" d="M407.15,258.09c-.92-.42-1.62-1-2.11-1.74-.49-.74-.74-1.59-.74-2.54v-.61c0-.57.12-1.1.36-1.57.24-.47.57-1.01.99-1.62.28-.39.48-.7.61-.93.13-.23.2-.45.2-.66,0-.49-.3-.74-.91-.74h-1.4v-2.45h3.04c.74,0,1.32.21,1.75.63.43.42.65.98.65,1.68,0,.49-.09.94-.28,1.35-.19.41-.46.91-.82,1.5-.36.59-.63,1.08-.81,1.46-.18.38-.27.8-.27,1.24v.61c0,.83.25,1.48.74,1.93.49.45,1.23.67,2.21.67,1.91,0,2.87-.91,2.87-2.72v-8.34h3.12v7.83c0,1.73-.52,3.11-1.56,4.13-1.04,1.02-2.51,1.53-4.43,1.53-1.23,0-2.3-.21-3.21-.63Z"/>
          <path class="cls-11" d="M423.51,249.95c0-.96-.19-1.65-.58-2.06-.38-.41-1.08-.61-2.07-.61-.92,0-1.85.24-2.8.71v-2.43c.39-.2.91-.36,1.56-.5.65-.14,1.28-.21,1.9-.21,1.68,0,2.96.46,3.81,1.37.86.92,1.29,2.22,1.29,3.93v8.19h-3.12v-8.39Z"/>
          <path class="cls-11" d="M430.84,257.58c-1.18-.75-1.77-1.82-1.77-3.19,0-.67.2-1.28.59-1.82.39-.54.9-.92,1.52-1.13-.59-.28-1.07-.68-1.44-1.2-.37-.52-.55-1.11-.55-1.77,0-1.1.38-1.97,1.13-2.64.75-.66,1.86-.99,3.34-.99.46,0,.9.03,1.32.09.43.06.76.13,1.01.21v2.43c-.21-.1-.49-.17-.82-.22-.34-.05-.63-.07-.9-.07-1.26,0-1.89.47-1.89,1.4,0,.51.16.88.47,1.13s.81.37,1.5.37h1.64v2.53h-1.64c-1.39,0-2.09.56-2.09,1.69,0,.59.29,1.05.87,1.39.58.34,1.38.5,2.39.5,1.28,0,2.21-.26,2.81-.78.6-.52.9-1.29.9-2.31v-8h3.12v7.95c0,.93-.23,1.82-.67,2.66-.45.84-1.19,1.54-2.21,2.09-1.02.55-2.33.82-3.94.82-1.95,0-3.51-.38-4.69-1.13Z"/>
          <path class="cls-11" d="M450.41,258.21c-.79-.33-1.5-.83-2.12-1.48v1.62h-2.99v-13.12h3.12v9.05c.85,1.34,2.03,2.01,3.53,2.01,1.93,0,2.89-.9,2.89-2.7v-8.37h3.09v8.51c0,.93-.2,1.78-.6,2.54-.4.76-.99,1.36-1.75,1.79-.77.43-1.68.65-2.75.65-.82,0-1.62-.17-2.42-.5Z"/>
          <path class="cls-11" d="M451.29,242.84c-.35-.39-.53-.98-.53-1.77v-1.42h2.8v1.13c0,.26.05.44.15.53.1.09.28.14.54.14h5.84v1.99h-7.11c-.77,0-1.33-.2-1.68-.59Z"/>
          <path class="cls-11" d="M453.46,237c0-.18-.03-.31-.1-.38-.06-.07-.2-.11-.39-.11h-1.03v-2.04h1.99c1,0,1.5.43,1.5,1.3v.71h4.22v1.86h-6.18v-1.35Z"/>
          <path class="cls-11" d="M462.15,257.58c-1.18-.75-1.77-1.82-1.77-3.19,0-.67.2-1.28.59-1.82.39-.54.9-.92,1.52-1.13-.59-.28-1.07-.68-1.44-1.2-.37-.52-.55-1.11-.55-1.77,0-1.1.38-1.97,1.13-2.64.75-.66,1.86-.99,3.34-.99.46,0,.9.03,1.32.09.43.06.76.13,1.01.21v2.43c-.21-.1-.49-.17-.82-.22-.34-.05-.63-.07-.9-.07-1.26,0-1.89.47-1.89,1.4,0,.51.16.88.47,1.13s.81.37,1.5.37h1.64v2.53h-1.64c-1.39,0-2.09.56-2.09,1.69,0,.59.29,1.05.87,1.39.58.34,1.38.5,2.39.5,1.28,0,2.21-.26,2.81-.78.6-.52.9-1.29.9-2.31v-8h3.12v7.95c0,.93-.23,1.82-.67,2.66-.45.84-1.19,1.54-2.21,2.09-1.02.55-2.33.82-3.94.82-1.95,0-3.51-.38-4.69-1.13Z"/>
        </g>
        <polygon class="cls-8" points="121.57 238.27 91.52 231.71 102.84 246.4 121.57 238.27"/>
      </g>
    </g>
  </g>
</svg>