<?xml version="1.0" encoding="UTF-8"?>
<svg id="Layer_1" data-name="Layer 1" xmlns="http://www.w3.org/2000/svg" xmlns:xlink="http://www.w3.org/1999/xlink" viewBox="0 0 600 600">
  <defs>
    <style>
      .cls-1, .cls-2 {
        fill: #001a47;
      }

      .cls-3 {
        fill: #1a4175;
      }

      .cls-4, .cls-5 {
        fill: #00122d;
      }

      .cls-6 {
        fill: #ff336d;
      }

      .cls-7 {
        fill: url(#linear-gradient);
      }

      .cls-2, .cls-5, .cls-8 {
        opacity: .5;
      }

      .cls-9 {
        fill: #326499;
      }

      .cls-10 {
        fill: #606060;
      }

      .cls-11 {
        fill: #fff;
      }

      .cls-12 {
        fill: #fefefe;
      }

      .cls-13 {
        fill: #ff73b6;
      }

      .cls-14 {
        fill: #013057;
      }

      .cls-15 {
        fill: none;
        stroke: #00122d;
        stroke-linecap: round;
        stroke-linejoin: round;
        stroke-width: 4.76px;
      }
    </style>
    <linearGradient id="linear-gradient" x1="87.66" y1="428.26" x2="406.11" y2="428.26" gradientUnits="userSpaceOnUse">
      <stop offset="0" stop-color="#f688c3"/>
      <stop offset="1" stop-color="#ff4a75"/>
    </linearGradient>
  </defs>
  <g>
    <g>
      <rect class="cls-3" width="600" height="600" rx="30" ry="30"/>
      <g>
        <path class="cls-2" d="M0,30v77.51h600V30c0-16.57-13.43-30-30-30H30C13.43,0,0,13.43,0,30Z"/>
        <g>
          <g>
            <path class="cls-10" d="M127.68,63c-1.39-1.15-2.09-2.77-2.09-4.86,0-1.38.35-2.59,1.05-3.64.7-1.05,1.7-1.86,2.99-2.45,1.29-.59,2.8-.88,4.54-.88,2.48,0,4.62.42,6.43,1.26v-.92c0-1.58-.47-2.75-1.4-3.5-.93-.75-2.43-1.13-4.5-1.13-1.25,0-2.48.13-3.7.38-1.21.26-2.27.6-3.16,1.03v-3.79c.82-.38,1.95-.71,3.39-1,1.44-.28,2.85-.42,4.23-.42,3.32,0,5.81.75,7.47,2.26,1.66,1.51,2.49,3.52,2.49,6.05v12.75h-4.83v-7.89c-1.71-.87-3.66-1.3-5.86-1.3-1.43,0-2.5.27-3.2.82-.7.55-1.05,1.35-1.05,2.39,0,.94.32,1.64.96,2.09.64.45,1.65.67,3.03.67.87,0,1.62-.13,2.26-.38v3.71c-.94.31-2.13.46-3.56.46-2.27,0-4.1-.57-5.5-1.72Z"/>
            <path class="cls-10" d="M136.33,73.63c-.96-.7-1.44-1.64-1.44-2.81v-.69c0-.36-.05-.59-.15-.71-.1-.11-.32-.17-.65-.17h-1.3v-3.1h3.87c.72,0,1.21.16,1.49.48.28.32.42.84.42,1.55v2.14c0,1.02.55,1.53,1.65,1.53s1.61-.51,1.61-1.53v-4.17h3.68v4.56c0,1.17-.45,2.13-1.34,2.87-.89.74-2.16,1.11-3.79,1.11-1.74,0-3.08-.35-4.04-1.05Z"/>
            <path class="cls-10" d="M151.17,51.67l-1.92-3.18c1.4-1.76,3.02-3.1,4.85-4.02,1.83-.92,3.94-1.38,6.34-1.38,3.19,0,5.64.72,7.33,2.15,1.7,1.43,2.55,3.41,2.55,5.94v12.98h-4.86v-12.6c0-1.58-.42-2.76-1.26-3.52-.84-.77-2.09-1.15-3.75-1.15-1.25,0-2.36.18-3.31.54s-1.84.94-2.66,1.76l1.57,2.53v12.45h-4.86v-12.49Z"/>
            <path class="cls-10" d="M174.92,51.74c0-2.76.91-4.89,2.74-6.4,1.83-1.51,4.3-2.26,7.41-2.26s5.58.75,7.39,2.26c1.81,1.51,2.72,3.64,2.72,6.4v12.41h-4.86v-12.6c0-1.56-.45-2.73-1.36-3.5-.91-.78-2.2-1.17-3.89-1.17s-2.99.38-3.91,1.15c-.92.77-1.38,1.94-1.38,3.52v3.37c.33-.54.82-.97,1.47-1.3.65-.33,1.41-.5,2.28-.5h3.1v4.06h-3.45c-1,0-1.81.33-2.45.98-.64.65-.96,1.44-.96,2.36v3.64h-4.86v-12.41Z"/>
            <path class="cls-10" d="M186.45,38.45c0-.28-.06-.48-.17-.61-.12-.13-.33-.19-.63-.19h-1.76v-3.37h3.26c.87,0,1.51.21,1.92.63.41.42.61.94.61,1.55v1.23h7.85v3.18h-11.07v-2.41Z"/>
            <path class="cls-10" d="M206.36,51.05c0-1.51-.3-2.58-.9-3.22-.6-.64-1.68-.96-3.24-.96-1.43,0-2.89.37-4.37,1.11v-3.79c.61-.31,1.42-.57,2.43-.79,1.01-.22,2-.33,2.97-.33,2.63,0,4.61.72,5.96,2.15,1.34,1.43,2.01,3.47,2.01,6.13v12.79h-4.86v-13.1Z"/>
          </g>
          <polyline class="cls-15" points="37.89 41.57 26.25 53.54 37.89 65.51"/>
        </g>
        <circle class="cls-5" cx="84.09" cy="53.76" r="26.45"/>
        <g>
          <rect class="cls-5" x="542.03" y="62.46" width="31.53" height="6.8" rx="2.44" ry="2.44"/>
          <rect class="cls-5" x="542.03" y="50.36" width="31.53" height="6.8" rx="2.44" ry="2.44"/>
          <rect class="cls-5" x="542.03" y="38.26" width="31.53" height="6.8" rx="2.44" ry="2.44"/>
        </g>
        <g>
          <g class="cls-8">
            <rect class="cls-4" x="471.02" y="38.26" width="30.99" height="30.99" rx="2.75" ry="2.75"/>
          </g>
          <g class="cls-8">
            <path class="cls-4" d="M507.5,63.21l10.41,3.19c1.77.54,3.55-.78,3.55-2.63v-20.03c0-1.85-1.79-3.17-3.55-2.63l-10.41,3.19c-1.15.35-1.94,1.42-1.94,2.63v13.64c0,1.21.79,2.27,1.94,2.63Z"/>
          </g>
        </g>
        <path class="cls-5" d="M451.48,65.41s0,0,0,0h0s-1.5,1.48-1.5,1.48c-1.94,1.97-4.77,2.78-7.46,2.14-2.71-.73-5.29-1.88-7.63-3.42-2.18-1.39-4.2-3.02-6.02-4.85-1.68-1.66-3.18-3.49-4.5-5.46-1.44-2.11-2.57-4.41-3.38-6.84-.92-2.85-.16-5.98,1.98-8.08l1.76-1.76c.49-.49,1.28-.49,1.78,0,0,0,0,0,0,0l5.56,5.56c.49.49.49,1.28,0,1.78h0s-3.26,3.27-3.26,3.27c-.94.93-1.05,2.4-.28,3.46,1.18,1.62,2.49,3.14,3.9,4.56,1.58,1.59,3.3,3.03,5.14,4.32,1.06.74,2.5.62,3.42-.3l3.15-3.2c.49-.49,1.28-.49,1.78,0h0s5.57,5.58,5.57,5.58c.49.49.49,1.28,0,1.78Z"/>
      </g>
    </g>
    <g>
      <g>
        <circle class="cls-3" cx="51.47" cy="178.43" r="25.22"/>
        <g>
          <rect class="cls-9" x="102.99" y="153.21" width="243.64" height="50.44" rx="14.43" ry="14.43"/>
          <g>
            <path class="cls-14" d="M132.23,187.02v-6.01h-2.99c-.92,0-1.65.14-2.2.4-.55.27-.82.76-.82,1.48,0,.59.19,1.05.56,1.39.38.34.84.5,1.4.5.29,0,.6-.03.92-.09.32-.06.64-.17.97-.33l.52,2.33c-.43.2-.86.33-1.31.42-.45.08-.93.12-1.44.12-.67,0-1.29-.09-1.86-.27-.57-.18-1.07-.45-1.5-.81-.43-.36-.76-.81-1.01-1.35-.25-.54-.37-1.17-.37-1.89,0-1.52.53-2.63,1.58-3.32,1.06-.7,2.65-1.04,4.8-1.04h2.75v-.47c0-.34-.06-.67-.17-.99-.11-.32-.29-.6-.52-.85-.23-.25-.52-.44-.87-.59-.35-.15-.76-.22-1.24-.22-1.01,0-1.9.15-2.66.44-.76.29-1.47.68-2.12,1.15l-1.01-2.21c.64-.47,1.47-.9,2.49-1.28,1.02-.38,2.17-.56,3.45-.56.38,0,.75.03,1.12.1.37.07.69.16.97.27l.83-1.03h3.51l-2.01,2.4c.42.46.76.97.99,1.55.24.57.36,1.18.36,1.82v8.93h-3.12Z"/>
            <path class="cls-14" d="M141.72,182.18c0,.93.2,1.59.59,1.99.39.39.95.59,1.67.59s1.36-.21,1.97-.63,1.08-.95,1.39-1.61v-9.25h3.19v13.74h-2.85l-.34-1.69c-.18.25-.41.49-.7.72-.29.24-.6.45-.96.64-.35.19-.74.34-1.17.45-.43.11-.87.17-1.32.17-1.46,0-2.6-.4-3.42-1.2-.83-.8-1.24-2.06-1.24-3.78v-9.05h3.19v8.91Z"/>
            <path class="cls-14" d="M154.7,187.02v-12.63c0-.69.15-1.32.45-1.89.3-.57.64-1.11,1.01-1.61.37-.5.71-.97,1.02-1.42.31-.45.47-.9.47-1.34s-.13-.8-.39-1.12c-.26-.32-.69-.48-1.28-.48-.69,0-1.27.16-1.74.48-.47.32-.95.76-1.42,1.31l-1.18-1.94c.57-.74,1.27-1.32,2.1-1.74.83-.43,1.79-.64,2.91-.64.65,0,1.24.11,1.75.32.52.21.95.49,1.31.85.36.35.63.76.82,1.24.19.47.28.97.28,1.47,0,.75-.15,1.4-.45,1.95-.3.55-.63,1.07-.99,1.56s-.69.98-.99,1.47c-.3.49-.45,1.05-.45,1.69v12.46h-3.21Z"/>
            <path class="cls-14" d="M163.49,187.02l-1.23-4.86c-.08-.38-.32-.56-.71-.56h-.91v-2.55h1.79c.64,0,1.17.12,1.58.36.42.24.72.72.9,1.44l.91,3.63h.27c.36-.05.71-.19,1.04-.42.33-.23.63-.55.9-.96.26-.41.47-.89.63-1.45.16-.56.23-1.19.23-1.91,0-1.47-.31-2.54-.94-3.2-.63-.66-1.48-.99-2.56-.99-.78,0-1.59.14-2.4.43-.82.29-1.59.74-2.31,1.36l-.98-2.28c.69-.62,1.52-1.12,2.51-1.5.99-.38,2.11-.56,3.35-.56,2.11,0,3.72.6,4.85,1.79,1.12,1.19,1.68,2.85,1.68,4.98,0,1.01-.16,1.96-.48,2.83-.32.88-.75,1.64-1.3,2.31s-1.19,1.18-1.91,1.56c-.73.38-1.49.56-2.29.56h-2.6Z"/>
            <path class="cls-14" d="M188.66,173.28h3.19v8.44c0,.83-.12,1.59-.37,2.28-.25.69-.63,1.28-1.15,1.77-.52.49-1.2.87-2.04,1.14-.83.27-1.84.4-3.02.4-.83,0-1.59-.09-2.28-.28-.69-.19-1.28-.47-1.78-.86-.5-.38-.89-.87-1.17-1.45-.28-.58-.42-1.26-.42-2.02s.23-1.46.7-2.02c.47-.56,1.06-.91,1.78-1.04-.31-.07-.61-.2-.91-.4-.29-.2-.56-.45-.8-.74-.24-.29-.43-.61-.56-.98-.14-.37-.21-.75-.21-1.14,0-.46.09-.89.26-1.29.17-.4.42-.75.74-1.04.32-.29.71-.53,1.18-.7.47-.17.99-.26,1.58-.26.62,0,1.17.05,1.63.13.47.09.87.22,1.21.38l-.32,2.38c-.28-.11-.55-.2-.81-.25-.26-.05-.51-.07-.74-.07-.54,0-.95.11-1.24.33-.29.22-.43.52-.43.9,0,.47.18.84.54,1.09.36.25.75.38,1.18.38h1.86l.27,2.45h-1.67c-.67,0-1.19.16-1.56.49-.37.33-.55.78-.55,1.35,0,.67.25,1.19.74,1.56.49.37,1.1.55,1.84.55,1.1,0,1.92-.28,2.48-.83.56-.56.83-1.3.83-2.23v-8.41Z"/>
            <path class="cls-14" d="M188.58,168.59c0,.38.19.56.56.56h6.28v2.4h-7.02c-.39,0-.76-.05-1.09-.15-.33-.1-.63-.26-.87-.48-.25-.22-.44-.51-.59-.86-.15-.35-.22-.79-.22-1.31v-1.23h2.94v1.05Z"/>
            <path class="cls-14" d="M197.59,187.02l-4.15-13.74h3.14l3.36,11.19h.27c.39,0,.77-.11,1.13-.34.36-.23.68-.55.97-.97.29-.42.51-.92.67-1.52.16-.6.25-1.25.25-1.97,0-1.49-.24-2.55-.72-3.18-.48-.63-1.1-.94-1.85-.94-.51,0-1.06.11-1.64.32l-.47-2.33c.33-.18.72-.31,1.19-.4.47-.09.95-.13,1.46-.13.74,0,1.42.15,2.06.44.64.29,1.19.73,1.66,1.3.47.57.83,1.27,1.1,2.1.27.83.4,1.77.4,2.83,0,1.15-.16,2.17-.47,3.08-.31.91-.75,1.68-1.31,2.32s-1.23,1.12-2,1.46c-.77.34-1.61.5-2.53.5h-2.53Z"/>
            <path class="cls-14" d="M217.8,173.28h3.19v8.81c0,1.73-.42,3.04-1.25,3.91-.83.88-1.99,1.31-3.46,1.31-.47,0-.92-.06-1.33-.18-.41-.12-.79-.28-1.14-.47-.35-.19-.67-.4-.94-.64-.28-.24-.51-.47-.69-.7l-.34,1.69h-2.85v-13.74h3.19v9.25c.15.31.33.6.56.87.23.27.49.51.78.71.29.2.61.36.94.48.33.11.67.17,1.02.17,1.54,0,2.31-.94,2.31-2.82v-8.66Z"/>
            <path class="cls-14" d="M209.83,171.56v-2.4h8.32v-2.33h2.85v4.73h-11.16Z"/>
            <path class="cls-14" d="M227,182.45c0,.82.2,1.41.59,1.79.39.38.98.56,1.77.56s1.37-.2,1.77-.61c.39-.41.59-1.05.59-1.94v-8.98h3.19v8.95c0,1.6-.45,2.85-1.34,3.74s-2.29,1.34-4.21,1.34-3.32-.43-4.21-1.28c-.89-.85-1.34-2.05-1.34-3.61v-1.28c0-.52.11-.99.34-1.39.23-.4.48-.77.76-1.1.28-.33.53-.66.76-.98.23-.32.34-.65.34-.99v-.34c0-.38-.19-.56-.56-.56h-1.5v-2.5h1.89c.64,0,1.16.06,1.57.18.41.12.74.3.98.53.25.23.42.52.52.87.1.35.15.76.15,1.21v.61c0,.47-.11.89-.32,1.25-.21.36-.45.71-.71,1.04-.26.34-.5.67-.71,1.02-.21.34-.32.73-.32,1.15v1.3Z"/>
            <path class="cls-14" d="M240.96,181.59c-.29,0-.44.16-.44.47v.07c0,1.75.97,2.62,2.92,2.62,1.16,0,2.08-.38,2.75-1.15.67-.77,1.01-1.97,1.01-3.61,0-1.44-.36-2.54-1.09-3.31-.73-.77-1.68-1.15-2.86-1.15-1,0-1.9.18-2.7.53-.8.35-1.51.76-2.13,1.24l-1.03-2.38c.69-.49,1.53-.94,2.53-1.34,1-.4,2.18-.6,3.56-.6,1.01,0,1.95.16,2.8.47.85.31,1.58.77,2.2,1.37.61.61,1.09,1.35,1.42,2.23.33.88.5,1.9.5,3.04,0,2.42-.6,4.23-1.8,5.42-1.2,1.19-2.83,1.79-4.89,1.79-1.05,0-1.96-.12-2.75-.37-.79-.25-1.44-.6-1.95-1.05-.52-.46-.9-1.01-1.17-1.64s-.39-1.34-.39-2.11v-.42c0-.9.2-1.57.59-2.01s1.03-.66,1.91-.66h3.14v2.55h-2.11Z"/>
            <path class="cls-14" d="M255.51,187.02l-4.15-13.74h3.14l3.36,11.19h.27c.39,0,.77-.11,1.13-.34.36-.23.68-.55.97-.97.29-.42.51-.92.67-1.52.16-.6.25-1.25.25-1.97,0-1.49-.24-2.55-.72-3.18-.48-.63-1.1-.94-1.85-.94-.51,0-1.06.11-1.64.32l-.47-2.33c.33-.18.72-.31,1.19-.4.47-.09.95-.13,1.46-.13.74,0,1.42.15,2.06.44.64.29,1.19.73,1.66,1.3.47.57.83,1.27,1.1,2.1.27.83.4,1.77.4,2.83,0,1.15-.16,2.17-.47,3.08-.31.91-.75,1.68-1.31,2.32s-1.23,1.12-2,1.46c-.77.34-1.61.5-2.53.5h-2.53Z"/>
            <path class="cls-14" d="M269.74,181.59c-.29,0-.44.16-.44.47v.07c0,1.75.97,2.62,2.92,2.62,1.16,0,2.08-.38,2.75-1.15.67-.77,1.01-1.97,1.01-3.61,0-1.44-.36-2.54-1.09-3.31-.73-.77-1.68-1.15-2.86-1.15-1,0-1.9.18-2.7.53-.8.35-1.51.76-2.13,1.24l-1.03-2.38c.69-.49,1.53-.94,2.53-1.34,1-.4,2.18-.6,3.56-.6,1.01,0,1.95.16,2.8.47.85.31,1.58.77,2.2,1.37.61.61,1.09,1.35,1.42,2.23.33.88.5,1.9.5,3.04,0,2.42-.6,4.23-1.8,5.42-1.2,1.19-2.83,1.79-4.89,1.79-1.05,0-1.96-.12-2.75-.37-.79-.25-1.44-.6-1.95-1.05-.52-.46-.9-1.01-1.17-1.64s-.39-1.34-.39-2.11v-.42c0-.9.2-1.57.59-2.01s1.03-.66,1.91-.66h3.14v2.55h-2.11Z"/>
            <path class="cls-14" d="M290.15,173.28h3.19v8.44c0,.83-.12,1.59-.37,2.28-.25.69-.63,1.28-1.15,1.77-.52.49-1.2.87-2.04,1.14-.83.27-1.84.4-3.02.4-.83,0-1.59-.09-2.28-.28-.69-.19-1.28-.47-1.78-.86-.5-.38-.89-.87-1.17-1.45-.28-.58-.42-1.26-.42-2.02s.23-1.46.7-2.02c.47-.56,1.06-.91,1.78-1.04-.31-.07-.61-.2-.91-.4-.29-.2-.56-.45-.8-.74-.24-.29-.43-.61-.56-.98-.14-.37-.21-.75-.21-1.14,0-.46.09-.89.26-1.29.17-.4.42-.75.74-1.04.32-.29.71-.53,1.18-.7.47-.17.99-.26,1.58-.26.62,0,1.17.05,1.63.13.47.09.87.22,1.21.38l-.32,2.38c-.28-.11-.55-.2-.81-.25-.26-.05-.51-.07-.74-.07-.54,0-.95.11-1.24.33-.29.22-.43.52-.43.9,0,.47.18.84.54,1.09.36.25.75.38,1.18.38h1.86l.27,2.45h-1.67c-.67,0-1.19.16-1.56.49-.37.33-.55.78-.55,1.35,0,.67.25,1.19.74,1.56.49.37,1.1.55,1.84.55,1.1,0,1.92-.28,2.48-.83.56-.56.83-1.3.83-2.23v-8.41Z"/>
            <path class="cls-14" d="M289.66,194.13c-1.18,0-2.08-.26-2.7-.77s-.93-1.18-.93-2v-.52h-1.42v-2.23h4.17v2.75c0,.28.09.48.27.6s.38.18.61.18c.25,0,.45-.06.63-.18s.26-.32.26-.6v-2.75h2.8v2.75c0,.82-.32,1.48-.96,2-.64.52-1.55.77-2.72.77Z"/>
            <path class="cls-14" d="M290.27,171.56v-4.76h2.94v4.76h-2.94Z"/>
            <path class="cls-14" d="M305.38,173.28h3.19v8.81c0,1.73-.42,3.04-1.25,3.91-.83.88-1.99,1.31-3.46,1.31-.47,0-.92-.06-1.33-.18-.41-.12-.79-.28-1.14-.47-.35-.19-.67-.4-.94-.64-.28-.24-.51-.47-.69-.7l-.34,1.69h-2.85v-13.74h3.19v9.25c.15.31.33.6.56.87.23.27.49.51.78.71.29.2.61.36.94.48.33.11.67.17,1.02.17,1.54,0,2.31-.94,2.31-2.82v-8.66Z"/>
            <path class="cls-14" d="M305.31,168.59c0,.38.19.56.56.56h6.28v2.4h-7.02c-.39,0-.76-.05-1.09-.15-.33-.1-.63-.26-.87-.48-.25-.22-.44-.51-.59-.86-.15-.35-.22-.79-.22-1.31v-1.23h2.94v1.05Z"/>
            <path class="cls-14" d="M306.27,162.88c0,.25.11.37.34.37h3.29v2.26h-4.66c-.38,0-.68-.11-.91-.32-.23-.21-.34-.5-.34-.86v-.61c0-.25-.11-.37-.34-.37h-1.42v-2.28h2.48c.47,0,.85.11,1.14.32.29.21.43.56.43,1.03v.47Z"/>
            <path class="cls-14" d="M320.18,173.28h3.19v8.44c0,.83-.12,1.59-.37,2.28-.25.69-.63,1.28-1.15,1.77-.52.49-1.2.87-2.04,1.14-.83.27-1.84.4-3.02.4-.83,0-1.59-.09-2.28-.28-.69-.19-1.28-.47-1.78-.86-.5-.38-.89-.87-1.17-1.45-.28-.58-.42-1.26-.42-2.02s.23-1.46.7-2.02c.47-.56,1.06-.91,1.78-1.04-.31-.07-.61-.2-.91-.4-.29-.2-.56-.45-.8-.74-.24-.29-.43-.61-.56-.98-.14-.37-.21-.75-.21-1.14,0-.46.09-.89.26-1.29.17-.4.42-.75.74-1.04.32-.29.71-.53,1.18-.7.47-.17.99-.26,1.58-.26.62,0,1.17.05,1.63.13.47.09.87.22,1.21.38l-.32,2.38c-.28-.11-.55-.2-.81-.25-.26-.05-.51-.07-.74-.07-.54,0-.95.11-1.24.33-.29.22-.43.52-.43.9,0,.47.18.84.54,1.09.36.25.75.38,1.18.38h1.86l.27,2.45h-1.67c-.67,0-1.19.16-1.56.49-.37.33-.55.78-.55,1.35,0,.67.25,1.19.74,1.56.49.37,1.1.55,1.84.55,1.1,0,1.92-.28,2.48-.83.56-.56.83-1.3.83-2.23v-8.41Z"/>
          </g>
          <polygon class="cls-9" points="121.57 166.94 91.52 160.39 102.84 175.07 121.57 166.94"/>
        </g>
      </g>
      <g class="cls-8">
        <circle class="cls-1" cx="51.47" cy="321.08" r="25.22"/>
      </g>
      <g>
        <path class="cls-7" d="M375.12,309.91v236.7c0,7.76-6.84,14.05-15.27,14.05H118.26c-8.44,0-15.27-6.29-15.27-14.05v-236.7c0-7.76,6.84-14.05,15.27-14.05h241.59c8.44,0,15.27,6.29,15.27,14.05Z"/>
        <path class="cls-11" d="M375.12,475.67v69.72c0,8.44-6.84,15.27-15.27,15.27H118.26c-8.44,0-15.27-6.84-15.27-15.27v-69.72h272.14Z"/>
        <g>
          <path class="cls-11" d="M128.45,321.73h2.06v9.63h5.44v1.7h-7.5v-11.33Z"/>
          <path class="cls-11" d="M137.25,321.73h2.06v11.33h-2.06v-11.33Z"/>
          <path class="cls-11" d="M141.25,321.73h1.94l5.3,7.89v-7.89h2.06v11.33h-1.94l-5.3-7.91v7.91h-2.06v-11.33Z"/>
          <path class="cls-11" d="M152.5,321.73h7.67v1.7h-5.61v3.11h4.17v1.7h-4.17v3.11h5.61v1.7h-7.67v-11.33Z"/>
          <path class="cls-11" d="M170.07,332.56c-.91-.49-1.63-1.19-2.16-2.08-.52-.9-.79-1.92-.79-3.08s.26-2.18.79-3.08c.52-.9,1.24-1.59,2.16-2.09.91-.5,1.94-.75,3.07-.75s2.14.25,3.05.75c.91.5,1.63,1.19,2.16,2.09.52.9.79,1.92.79,3.08s-.26,2.18-.79,3.07-1.24,1.59-2.16,2.08c-.91.5-1.93.75-3.05.75s-2.16-.25-3.07-.74ZM175.12,330.94c.59-.33,1.07-.8,1.42-1.41.35-.61.53-1.32.53-2.13s-.17-1.5-.52-2.11c-.35-.61-.82-1.08-1.41-1.42-.59-.33-1.26-.5-1.99-.5s-1.4.17-2,.5c-.6.33-1.07.81-1.42,1.42-.35.61-.52,1.32-.52,2.11s.18,1.52.53,2.13c.35.61.83,1.08,1.43,1.41.6.33,1.26.49,1.98.49s1.38-.16,1.98-.49Z"/>
          <path class="cls-11" d="M180.76,321.73h4.54c1.24,0,2.24.33,2.99.99.75.66,1.13,1.56,1.13,2.71s-.37,2.09-1.12,2.71c-.75.62-1.75.93-3.01.93h-2.46v3.99h-2.06v-11.33ZM185.04,327.37c1.54,0,2.32-.65,2.32-1.94s-.77-1.99-2.32-1.99h-2.22v3.94h2.22Z"/>
          <path class="cls-11" d="M190.71,321.73h7.67v1.7h-5.61v3.11h4.17v1.7h-4.17v3.11h5.61v1.7h-7.67v-11.33Z"/>
          <path class="cls-11" d="M199.83,321.73h1.94l5.3,7.89v-7.89h2.06v11.33h-1.94l-5.3-7.91v7.91h-2.06v-11.33Z"/>
          <path class="cls-11" d="M213.66,332.58c-.92-.48-1.63-1.17-2.14-2.06s-.76-1.93-.76-3.12.25-2.23.76-3.12c.51-.89,1.22-1.58,2.14-2.07.92-.49,1.97-.73,3.16-.73,1.57,0,2.87.37,3.92,1.12v1.96c-.94-.8-2.19-1.2-3.74-1.2-.83,0-1.56.16-2.19.49-.63.33-1.11.8-1.46,1.4-.35.61-.52,1.32-.52,2.14s.18,1.53.53,2.14c.35.61.84,1.07,1.47,1.4.63.33,1.35.49,2.17.49s1.51-.1,2.14-.3c.63-.2,1.2-.52,1.73-.96v1.96c-.99.78-2.34,1.17-4.05,1.17-1.19,0-2.24-.24-3.16-.72Z"/>
          <path class="cls-11" d="M222.49,321.73h2.06v4.7h5.44v-4.7h2.04v11.33h-2.04v-4.93h-5.44v4.93h-2.06v-11.33Z"/>
          <path class="cls-11" d="M238.19,321.73h1.99l4.52,11.33h-2.09l-1.04-2.61h-4.8l-1.02,2.61h-2.11l4.54-11.33ZM241.01,328.75l-1.83-4.81-1.83,4.81h3.66Z"/>
          <path class="cls-11" d="M247.07,323.43h-3.42v-1.7h8.9v1.7h-3.42v9.63h-2.06v-9.63Z"/>
        </g>
        <g>
          <path class="cls-14" d="M125.46,524.61c-.47-.51-.71-1.21-.71-2.12v-10.89h3.27v9.86c0,.45.09.76.28.93s.5.26.93.26h.9v2.73h-2.63c-.89,0-1.57-.25-2.05-.76Z"/>
          <path class="cls-14" d="M135.34,525.09c-.96-.44-1.7-1.05-2.21-1.83-.52-.78-.77-1.67-.77-2.66v-.64c0-.6.12-1.15.37-1.65.25-.5.6-1.06,1.04-1.7.29-.41.51-.74.64-.98.14-.24.21-.47.21-.69,0-.52-.32-.77-.95-.77h-1.47v-2.57h3.19c.77,0,1.39.22,1.84.66.45.44.68,1.03.68,1.76,0,.51-.1.99-.3,1.42-.2.43-.48.95-.86,1.57-.38.62-.66,1.13-.85,1.53-.19.4-.28.84-.28,1.3v.64c0,.88.26,1.55.77,2.02.51.47,1.29.71,2.32.71,2.01,0,3.01-.95,3.01-2.86v-8.75h3.27v8.21c0,1.82-.54,3.27-1.63,4.34-1.09,1.07-2.64,1.61-4.65,1.61-1.29,0-2.41-.22-3.37-.66Z"/>
          <path class="cls-14" d="M139.12,508.09c0-.19-.04-.33-.12-.41-.08-.09-.22-.13-.42-.13h-1.18v-2.27h2.19c.58,0,1.01.14,1.29.42s.41.63.41,1.04v.82h5.28v2.14h-7.44v-1.62Z"/>
          <path class="cls-14" d="M152.51,516.56c0-1.01-.2-1.73-.6-2.16-.4-.43-1.13-.64-2.18-.64-.96,0-1.94.25-2.93.75v-2.55c.41-.21.96-.38,1.63-.53.68-.15,1.34-.22,2-.22,1.77,0,3.1.48,4,1.44.9.96,1.35,2.33,1.35,4.12v8.6h-3.27v-8.8Z"/>
          <path class="cls-14" d="M160.81,525.44c-1-.21-1.79-.51-2.35-.93v-2.55c.75.45,1.59.78,2.51,1,.92.22,1.76.33,2.54.33,1.03,0,1.77-.1,2.23-.31.45-.21.68-.59.68-1.16,0-.39-.12-.71-.36-.94-.24-.23-.57-.42-.98-.58-.41-.15-1.18-.4-2.32-.75-1.48-.46-2.58-1.02-3.31-1.67-.73-.65-1.09-1.54-1.09-2.65,0-1.29.51-2.28,1.54-2.99s2.42-1.06,4.17-1.06c.93,0,1.81.1,2.66.3s1.55.46,2.1.79v2.68c-.57-.36-1.25-.65-2.05-.88-.8-.22-1.6-.33-2.41-.33-1.84,0-2.75.5-2.75,1.49,0,.36.11.65.33.88s.52.41.9.55c.38.15.95.34,1.72.58l.85.26c1.1.34,1.95.71,2.56,1.11.61.39,1.04.85,1.29,1.36.25.51.37,1.15.37,1.9,0,1.15-.49,2.08-1.47,2.79-.98.71-2.45,1.07-4.4,1.07-.98,0-1.97-.1-2.97-.31Z"/>
          <path class="cls-14" d="M165.89,505.29h3.27v4.43h-3.27v-4.43Z"/>
          <path class="cls-14" d="M171.71,524.64v-2.57c1.06.76,2.55,1.13,4.45,1.13,1.56,0,2.77-.39,3.63-1.17.86-.78,1.29-1.96,1.29-3.54s-.43-2.76-1.29-3.55c-.86-.79-2.07-1.18-3.63-1.18-1.8,0-3.26.38-4.38,1.13v-2.57c1.18-.74,2.87-1.11,5.05-1.11,2.37,0,4.23.64,5.57,1.92,1.35,1.28,2.02,3.07,2.02,5.37s-.68,4.06-2.03,5.34c-1.36,1.28-3.21,1.92-5.56,1.92s-3.96-.37-5.12-1.11Z"/>
          <path class="cls-14" d="M192.37,525.22c-.83-.35-1.57-.87-2.23-1.56v1.7h-3.14v-13.77h3.27v9.5c.89,1.41,2.13,2.11,3.71,2.11,2.02,0,3.04-.94,3.04-2.83v-8.78h3.24v8.93c0,.98-.21,1.87-.63,2.66-.42.8-1.03,1.42-1.84,1.88s-1.77.68-2.88.68c-.86,0-1.7-.18-2.54-.53Z"/>
          <path class="cls-14" d="M205.26,524.61c-.47-.51-.71-1.21-.71-2.12v-9.37c0-1.24-.23-2.2-.68-2.9-.46-.7-1.19-1.25-2.2-1.66v-2.55h8.65v2.73h-4.38c1.25.91,1.88,2.39,1.88,4.45v8.26c0,.45.09.76.28.93s.5.26.93.26h.9v2.73h-2.63c-.89,0-1.57-.25-2.05-.76Z"/>
          <path class="cls-14" d="M214.26,525.39c-1.06-.24-1.95-.57-2.65-1v-7.21h6.18v2.65h-2.91v2.86c.63.34,1.51.52,2.63.52,1.51,0,2.65-.41,3.42-1.24.77-.82,1.16-2.02,1.16-3.6,0-1.08-.17-1.96-.51-2.63s-.91-1.17-1.7-1.49c-.79-.33-1.85-.49-3.19-.49-.88,0-1.76.09-2.66.27s-1.65.44-2.25.79v-2.55c.69-.34,1.51-.6,2.46-.79.95-.18,1.96-.27,3.02-.27,2.61,0,4.62.62,6.05,1.87s2.14,3.01,2.14,5.29-.68,4.08-2.05,5.41c-1.36,1.32-3.33,1.98-5.88,1.98-1.1,0-2.18-.12-3.24-.36Z"/>
          <path class="cls-14" d="M228.71,524.61c-.47-.51-.71-1.21-.71-2.12v-10.89h3.27v9.86c0,.45.09.76.28.93s.5.26.93.26h.9v2.73h-2.63c-.89,0-1.57-.25-2.05-.76Z"/>
          <path class="cls-14" d="M235.19,511.59h3.27l2.21,9.24,2.68-9.24h2.42l2.68,9.24,2.21-9.24h3.27l-3.84,13.77h-2.75l-2.78-9.47-2.78,9.47h-2.75l-3.84-13.77Z"/>
          <path class="cls-14" d="M258.72,525.07c-.81-.45-1.42-1.08-1.84-1.88-.42-.8-.63-1.69-.63-2.66v-8.93h3.27v8.78c0,1.89,1,2.83,3.01,2.83,1.58,0,2.81-.7,3.71-2.11v-9.5h3.27v13.77h-3.14v-1.7c-.65.69-1.39,1.21-2.23,1.56-.83.35-1.68.53-2.54.53-1.12,0-2.08-.23-2.88-.68Z"/>
          <path class="cls-14" d="M273.3,524.61c-.47-.51-.71-1.21-.71-2.12v-10.89h3.27v9.86c0,.45.09.76.28.93s.5.26.93.26h.9v2.73h-2.63c-.89,0-1.57-.25-2.05-.76ZM280.22,524.61c-.47-.51-.71-1.21-.71-2.12v-10.89h3.27v9.86c0,.45.09.76.28.93.19.17.5.26.93.26h.9v2.73h-2.63c-.89,0-1.57-.25-2.05-.76Z"/>
          <path class="cls-14" d="M290.15,525.09c-.96-.44-1.71-1.05-2.24-1.83-.53-.78-.8-1.67-.8-2.66v-.64c0-.6.13-1.16.39-1.67.26-.51.61-1.09,1.06-1.72.31-.46.52-.8.64-1s.18-.41.18-.62c0-.52-.32-.77-.95-.77h-1.47v-2.57h3.19c.77,0,1.39.22,1.84.66.45.44.68,1.03.68,1.76,0,.51-.1.99-.3,1.42-.2.43-.48.95-.86,1.57-.38.62-.66,1.13-.85,1.53-.19.4-.28.84-.28,1.3v.64c0,.86.27,1.53.81,2.01.54.48,1.31.72,2.3.72,1.05,0,1.85-.29,2.41-.86.56-.57.84-1.42.84-2.54,0-2.25-.92-3.37-2.75-3.37v-1.72l2.63-3.5h3.5l-2.86,3.81c.98.46,1.68,1.08,2.11,1.85.43.77.64,1.75.64,2.93s-.27,2.17-.8,3.08c-.53.9-1.29,1.6-2.28,2.11-.99.51-2.13.76-3.44.76s-2.39-.22-3.35-.66Z"/>
          <path class="cls-14" d="M302.68,511.59h3.14v1.7c.65-.69,1.41-1.21,2.28-1.56.87-.35,1.74-.53,2.61-.53,1.7,0,2.99.48,3.89,1.43.89.95,1.34,2.18,1.34,3.67v9.06h-3.27v-8.91c0-1.8-.96-2.7-2.88-2.7-1.67,0-2.94.7-3.84,2.11v9.5h-3.27v-13.77Z"/>
          <path class="cls-14" d="M327.78,520.81l7.95-3.78-7.95-3.78v-3.22l11.92,5.84v2.29l-11.92,5.87v-3.22Z"/>
        </g>
        <g>
          <path class="cls-12" d="M124.59,456.08c0-1.65.55-2.92,1.64-3.82,1.09-.9,2.57-1.35,4.43-1.35s3.33.45,4.42,1.35c1.08.9,1.63,2.18,1.63,3.82v7.42h-2.91v-7.53c0-.93-.27-1.63-.81-2.1-.54-.47-1.32-.7-2.32-.7s-1.79.23-2.34.69c-.55.46-.82,1.16-.82,2.11v2.01c.2-.32.49-.58.88-.78.39-.2.84-.3,1.36-.3h1.85v2.43h-2.06c-.6,0-1.08.19-1.47.58-.38.39-.57.86-.57,1.41v2.18h-2.91v-7.42Z"/>
          <path class="cls-12" d="M134.16,467.27c0-.27-.05-.47-.14-.57-.09-.11-.27-.16-.55-.16h-.8v-1.85h2.13c.76,0,1.28.14,1.56.42.27.28.41.8.41,1.55v2.98h-2.61v-2.36Z"/>
          <path class="cls-12" d="M150.29,463.23c-.68-.4-1.19-.96-1.55-1.67-.35-.71-.53-1.5-.53-2.37v-3.23c0-.96-.23-1.67-.69-2.12-.46-.45-1.15-.68-2.08-.68-.7,0-1.32.11-1.85.32-.53.21-1.03.56-1.49,1.05l.94,1.51v3.94c0,.4.09.68.26.84.18.16.47.24.88.24h1.24v2.43h-2.79c-.81,0-1.43-.23-1.85-.69-.43-.46-.64-1.08-.64-1.88v-4.9l-1.14-1.9c.84-1.05,1.78-1.85,2.83-2.4,1.05-.55,2.26-.82,3.63-.82,1.85,0,3.25.42,4.21,1.27.96.85,1.44,2.03,1.44,3.56v3.32c0,.86.2,1.49.6,1.9.4.41,1.02.62,1.88.62.67,0,1.29-.16,1.84-.49.56-.33.97-.79,1.25-1.39v-8.45h2.89v12.25h-2.79v-1.44c-.96,1.19-2.3,1.79-4.01,1.79-.96,0-1.78-.2-2.46-.61Z"/>
          <path class="cls-12" d="M163.66,462.82c-.42-.45-.63-1.08-.63-1.89v-8.27c0-1.83.56-3.15,1.67-3.96h-3.89v-2.43h7.69v2.27c-.9.37-1.55.86-1.96,1.48s-.61,1.48-.61,2.58v7.42c0,.4.08.67.25.82.17.15.44.23.82.23h.8v2.43h-2.34c-.79,0-1.4-.23-1.82-.68Z"/>
          <path class="cls-12" d="M171.26,462.27c-1.08-1.05-1.61-2.58-1.61-4.59,0-1.4.28-2.61.84-3.63s1.36-1.79,2.4-2.34c1.05-.54,2.28-.81,3.7-.81,2.24,0,3.88.52,4.92,1.56,1.04,1.04,1.56,2.39,1.56,4.05v6.98h-2.91v-7.01c0-1.07-.28-1.89-.84-2.46-.56-.57-1.47-.86-2.74-.86s-2.19.39-2.9,1.18c-.71.79-1.06,1.9-1.06,3.33,0,1.31.31,2.29.92,2.93.61.64,1.49.96,2.63.96.56,0,1.09-.08,1.58-.23v2.22c-.6.18-1.29.27-2.08.27-1.86,0-3.33-.52-4.41-1.57Z"/>
          <path class="cls-12" d="M177.84,448.13c0-.17-.03-.29-.1-.37-.07-.08-.19-.11-.38-.11h-1.05v-2.02h1.95c.52,0,.9.13,1.14.38.24.25.37.56.37.93v.73h4.69v1.9h-6.62v-1.44Z"/>
          <path class="cls-12" d="M187.54,463.56c-.89-.18-1.59-.46-2.1-.82v-2.27c.67.4,1.42.69,2.23.89.82.2,1.57.3,2.26.3.92,0,1.58-.09,1.98-.27.4-.18.61-.53.61-1.03,0-.35-.11-.63-.32-.84-.21-.21-.5-.38-.87-.52-.37-.14-1.05-.36-2.06-.66-1.31-.41-2.29-.91-2.94-1.49-.65-.58-.97-1.37-.97-2.36,0-1.14.46-2.03,1.37-2.66.92-.63,2.15-.94,3.71-.94.82,0,1.61.09,2.37.26.76.18,1.38.41,1.87.7v2.38c-.5-.32-1.11-.58-1.82-.78-.71-.2-1.42-.3-2.14-.3-1.63,0-2.45.44-2.45,1.33,0,.32.1.58.3.78.2.2.47.36.8.49.34.13.85.3,1.53.52l.76.23c.98.31,1.74.63,2.28.98.54.35.92.76,1.14,1.21.22.46.33,1.02.33,1.69,0,1.02-.44,1.85-1.31,2.48-.87.63-2.18.95-3.92.95-.87,0-1.75-.09-2.64-.27Z"/>
          <path class="cls-12" d="M188.76,449.03c-.33-.37-.49-.92-.49-1.65v-1.33h2.61v1.05c0,.24.05.41.14.49.09.08.26.13.5.13h5.45v1.85h-6.64c-.72,0-1.24-.18-1.57-.55Z"/>
          <path class="cls-12" d="M200.62,463.18c-.92-.44-1.63-1.06-2.13-1.84-.5-.79-.74-1.68-.74-2.69v-7.4h2.91v7.28c0,.96.27,1.71.8,2.24.53.53,1.33.8,2.38.8s1.82-.27,2.36-.8c.53-.53.8-1.28.8-2.24v-7.28h2.91v7.4c0,1.01-.25,1.9-.74,2.69-.5.79-1.2,1.4-2.12,1.84-.92.44-1.98.66-3.21.66s-2.29-.22-3.22-.66Z"/>
          <path class="cls-12" d="M212.65,456.08c0-1.65.55-2.92,1.64-3.82,1.09-.9,2.57-1.35,4.43-1.35s3.33.45,4.42,1.35c1.08.9,1.63,2.18,1.63,3.82v7.42h-2.91v-7.53c0-.93-.27-1.63-.81-2.1-.54-.47-1.32-.7-2.32-.7s-1.79.23-2.34.69c-.55.46-.82,1.16-.82,2.11v2.01c.2-.32.49-.58.88-.78.39-.2.84-.3,1.36-.3h1.85v2.43h-2.06c-.6,0-1.08.19-1.47.58-.38.39-.57.86-.57,1.41v2.18h-2.91v-7.42Z"/>
          <path class="cls-12" d="M221.25,449.19c-.51-.5-.77-1.12-.77-1.85s.26-1.34.78-1.85c.52-.52,1.14-.78,1.85-.78s1.33.26,1.84.78c.51.52.77,1.14.77,1.85s-.26,1.35-.77,1.85c-.51.5-1.13.76-1.84.76s-1.35-.25-1.87-.76ZM223.78,448.05c.2-.21.3-.44.3-.7s-.1-.49-.29-.7c-.19-.21-.42-.31-.68-.31-.27,0-.51.1-.7.3-.19.2-.29.44-.29.71,0,.26.1.49.29.7s.42.31.7.31c.24,0,.47-.1.66-.31Z"/>
          <path class="cls-12" d="M231.45,455.67c0-.9-.18-1.54-.54-1.92-.36-.38-1-.57-1.93-.57-.85,0-1.73.22-2.61.66v-2.27c.37-.18.85-.34,1.45-.47.6-.13,1.19-.19,1.77-.19,1.57,0,2.76.43,3.56,1.28.8.85,1.2,2.08,1.2,3.66v7.65h-2.91v-7.83Z"/>
          <path class="cls-12" d="M237.73,462.82c-.42-.45-.63-1.08-.63-1.89v-9.69h2.91v8.77c0,.4.08.67.25.82s.44.23.82.23h.8v2.43h-2.34c-.79,0-1.4-.23-1.82-.68Z"/>
          <path class="cls-12" d="M246.56,463.26c-.86-.39-1.52-.93-1.99-1.63-.47-.69-.71-1.48-.71-2.37v-.57c0-.53.11-1.03.34-1.49.23-.46.54-.97.94-1.53.27-.41.47-.71.57-.89.11-.18.16-.37.16-.55,0-.46-.28-.69-.85-.69h-1.31v-2.29h2.84c.69,0,1.23.19,1.64.58.4.39.61.91.61,1.57,0,.46-.09.88-.26,1.26-.18.38-.43.85-.77,1.4-.34.55-.59,1-.76,1.36-.17.36-.25.74-.25,1.16v.57c0,.76.24,1.36.72,1.79.48.43,1.16.64,2.05.64.93,0,1.64-.26,2.14-.77.5-.51.74-1.26.74-2.26,0-2-.82-3-2.45-3v-1.53l2.34-3.11h3.11l-2.54,3.39c.87.41,1.5.96,1.88,1.65.38.69.57,1.56.57,2.61s-.24,1.93-.71,2.74c-.47.8-1.15,1.43-2.03,1.88-.88.45-1.9.68-3.06.68s-2.12-.19-2.98-.58Z"/>
          <path class="cls-12" d="M244.73,447.72h10.23v1.85h-10.23v-1.85Z"/>
          <path class="cls-12" d="M269.94,465.49c-.82-.17-1.49-.4-1.99-.69v-2.4c1.33.72,2.82,1.08,4.49,1.08,1.1,0,1.92-.12,2.45-.35.53-.24.8-.61.8-1.11,0-.34-.12-.64-.37-.92-1.01.49-2.05.73-3.14.73-1.88,0-3.3-.45-4.26-1.34-.96-.89-1.44-2.14-1.44-3.74v-.78c0-.96-.23-1.67-.69-2.12-.46-.45-1.15-.68-2.08-.68-.7,0-1.32.11-1.85.32-.53.21-1.03.56-1.49,1.05l.94,1.51v3.94c0,.4.08.68.25.84.17.16.45.24.85.24h1.28v2.43h-2.79c-.81,0-1.43-.23-1.85-.69-.43-.46-.64-1.08-.64-1.88v-4.9l-1.14-1.9c.84-1.05,1.78-1.85,2.83-2.4,1.05-.55,2.26-.82,3.63-.82,1.85,0,3.25.42,4.21,1.27.96.85,1.44,2.03,1.44,3.56v.78c0,1.04.22,1.81.65,2.3.44.5,1.18.74,2.23.74,1.94,0,2.91-1.01,2.91-3.05v-5.27h2.91v5.5c0,.95-.3,1.87-.89,2.77.78.69,1.17,1.52,1.17,2.5,0,1.19-.55,2.11-1.65,2.76-1.1.65-2.52.97-4.26.97-.84,0-1.67-.08-2.5-.25Z"/>
        </g>
        <g>
          <path class="cls-12" d="M134.55,379.1c-1.83-.35-3.33-.81-4.5-1.38v-4.93c1.51.72,3.09,1.27,4.75,1.63,1.66.36,3.29.54,4.89.54,2.02,0,3.56-.38,4.62-1.13,1.06-.75,1.58-1.79,1.58-3.12,0-.93-.24-1.71-.72-2.33-.48-.62-1.19-1.16-2.13-1.63-.94-.47-2.37-1.08-4.3-1.83-2.96-1.21-5.1-2.55-6.43-4.03-1.33-1.48-1.99-3.32-1.99-5.52,0-1.72.47-3.24,1.4-4.57.93-1.33,2.25-2.35,3.94-3.08,1.69-.72,3.64-1.09,5.84-1.09,1.81,0,3.42.14,4.82.43,1.4.29,2.78.73,4.14,1.33v4.8c-2.62-1.27-5.28-1.9-7.96-1.9-1.93,0-3.42.35-4.48,1.06-1.06.71-1.58,1.71-1.58,3.01,0,.94.24,1.7.72,2.29.48.59,1.12,1.09,1.92,1.49.8.41,2.24,1.05,4.32,1.92,2.11.88,3.78,1.74,5,2.58,1.22.85,2.14,1.83,2.76,2.96.62,1.13.93,2.51.93,4.14,0,2.81-1.01,4.99-3.03,6.54-2.02,1.55-5.01,2.33-8.96,2.33-1.87,0-3.72-.17-5.54-.52Z"/>
          <path class="cls-12" d="M156.61,345.5h5.7v14.48c2.05-2.29,4.71-3.44,7.97-3.44,2.93,0,5.11.79,6.56,2.38s2.17,3.69,2.17,6.31v13.71h-5.7v-13.17c0-3.17-1.48-4.75-4.44-4.75-1.3,0-2.52.31-3.67.93-1.15.62-2.11,1.55-2.9,2.78v14.21h-5.7v-33.45Z"/>
          <path class="cls-12" d="M185.15,352.51c-.62-.6-.93-1.36-.93-2.26s.31-1.67.93-2.29c.62-.62,1.38-.93,2.29-.93s1.67.31,2.31.93c.63.62.95,1.38.95,2.29s-.32,1.66-.95,2.26c-.63.6-1.4.91-2.31.91s-1.67-.3-2.29-.91ZM184.54,357.22h5.79v21.72h-5.79v-21.72Z"/>
          <path class="cls-12" d="M196.12,357.22h5.52v2.62c1.18-1.12,2.46-1.95,3.85-2.49,1.39-.54,2.97-.81,4.75-.81,2.2,0,4.17.48,5.91,1.43,1.73.95,3.09,2.29,4.07,4.03.98,1.74,1.47,3.75,1.47,6.04s-.49,4.27-1.47,6.02c-.98,1.75-2.34,3.12-4.07,4.1-1.74.98-3.7,1.47-5.91,1.47-1.66,0-3.22-.23-4.68-.7-1.46-.47-2.71-1.17-3.73-2.1v12.04h-5.7v-31.64ZM213.91,373.15c1.33-1.33,1.99-3.03,1.99-5.11s-.66-3.77-1.99-5.07c-1.33-1.3-3.02-1.95-5.07-1.95-1.63,0-3.08.44-4.34,1.31-1.27.88-2.16,2.05-2.67,3.53v4.39c.48,1.48,1.36,2.66,2.65,3.55,1.28.89,2.74,1.34,4.37,1.34,2.05,0,3.74-.66,5.07-1.99Z"/>
          <path class="cls-12" d="M134.55,424.1c-1.83-.35-3.33-.81-4.5-1.38v-4.93c1.51.72,3.09,1.27,4.75,1.63,1.66.36,3.29.54,4.89.54,2.02,0,3.56-.38,4.62-1.13,1.06-.75,1.58-1.79,1.58-3.12,0-.93-.24-1.71-.72-2.33-.48-.62-1.19-1.16-2.13-1.63-.94-.47-2.37-1.08-4.3-1.83-2.96-1.21-5.1-2.55-6.43-4.03-1.33-1.48-1.99-3.32-1.99-5.52,0-1.72.47-3.24,1.4-4.57.93-1.33,2.25-2.35,3.94-3.08,1.69-.72,3.64-1.09,5.84-1.09,1.81,0,3.42.14,4.82.43,1.4.29,2.78.73,4.14,1.33v4.8c-2.62-1.27-5.28-1.9-7.96-1.9-1.93,0-3.42.35-4.48,1.06-1.06.71-1.58,1.71-1.58,3.01,0,.94.24,1.7.72,2.29.48.59,1.12,1.09,1.92,1.49.8.41,2.24,1.05,4.32,1.92,2.11.88,3.78,1.74,5,2.58,1.22.85,2.14,1.83,2.76,2.96.62,1.13.93,2.51.93,4.14,0,2.81-1.01,4.99-3.03,6.54-2.02,1.55-5.01,2.33-8.96,2.33-1.87,0-3.72-.17-5.54-.52Z"/>
          <path class="cls-12" d="M156.61,390.5h5.7v14.48c2.05-2.29,4.71-3.44,7.97-3.44,2.93,0,5.11.79,6.56,2.38s2.17,3.69,2.17,6.31v13.71h-5.7v-13.17c0-3.17-1.48-4.75-4.44-4.75-1.3,0-2.52.31-3.67.93-1.15.62-2.11,1.55-2.9,2.78v14.21h-5.7v-33.45Z"/>
          <path class="cls-12" d="M188.68,423.24c-1.92-.92-3.4-2.25-4.46-3.98-1.06-1.73-1.58-3.79-1.58-6.18s.52-4.35,1.56-6.09c1.04-1.73,2.53-3.08,4.46-4.03,1.93-.95,4.16-1.43,6.7-1.43s4.76.48,6.68,1.43c1.92.95,3.4,2.29,4.46,4.03,1.06,1.74,1.58,3.76,1.58,6.09s-.53,4.44-1.58,6.18c-1.06,1.74-2.54,3.06-4.46,3.98-1.92.92-4.14,1.38-6.68,1.38s-4.76-.46-6.68-1.38ZM200.33,418.17c1.24-1.31,1.86-3.01,1.86-5.09,0-2.2-.61-3.93-1.83-5.18-1.22-1.25-2.89-1.88-5-1.88s-3.78.63-5,1.88c-1.22,1.25-1.83,2.98-1.83,5.18,0,2.08.62,3.78,1.86,5.09,1.24,1.31,2.9,1.97,4.98,1.97s3.74-.66,4.98-1.97Z"/>
          <path class="cls-12" d="M212.6,402.22h5.52v2.62c1.18-1.12,2.46-1.95,3.85-2.49,1.39-.54,2.97-.81,4.75-.81,2.2,0,4.17.48,5.91,1.43,1.73.95,3.09,2.29,4.07,4.03.98,1.74,1.47,3.75,1.47,6.04s-.49,4.27-1.47,6.02c-.98,1.75-2.34,3.12-4.07,4.1-1.74.98-3.7,1.47-5.91,1.47-1.66,0-3.22-.23-4.68-.7-1.46-.47-2.71-1.17-3.73-2.1v12.04h-5.7v-31.64ZM230.38,418.15c1.33-1.33,1.99-3.03,1.99-5.11s-.66-3.77-1.99-5.07c-1.33-1.3-3.02-1.95-5.07-1.95-1.63,0-3.08.44-4.34,1.31-1.27.88-2.16,2.05-2.67,3.53v4.39c.48,1.48,1.36,2.66,2.65,3.55,1.28.89,2.74,1.34,4.37,1.34,2.05,0,3.74-.66,5.07-1.99Z"/>
        </g>
      </g>
      <g>
        <circle class="cls-3" cx="51.47" cy="249.76" r="25.22"/>
        <g>
          <rect class="cls-9" x="102.99" y="224.54" width="372.5" height="50.44" rx="14.43" ry="14.43"/>
          <g>
            <path class="cls-14" d="M132.77,244.61h3.19v8.81c0,1.73-.42,3.04-1.25,3.91-.83.88-1.99,1.31-3.46,1.31-.47,0-.92-.06-1.33-.18-.41-.12-.79-.28-1.14-.47-.35-.19-.67-.4-.94-.64-.28-.24-.51-.47-.69-.7l-.34,1.69h-2.85v-13.74h3.19v9.25c.15.31.33.6.56.87.23.27.49.51.78.71.29.2.61.36.94.48.33.11.67.17,1.02.17,1.54,0,2.31-.94,2.31-2.82v-8.66Z"/>
            <path class="cls-14" d="M124.8,242.89v-2.4h8.32v-2.33h2.85v4.73h-11.16Z"/>
            <path class="cls-14" d="M142.34,252.26c.2-.38.5-.69.92-.96.42-.26.98-.39,1.68-.39h1.37v2.65h-1.45c-.75,0-1.32.15-1.72.44-.39.29-.66.7-.81,1.23v3.12h-3.19v-8.54c0-.77.14-1.49.43-2.16.29-.67.69-1.25,1.23-1.74.53-.49,1.18-.88,1.95-1.17.77-.29,1.64-.43,2.62-.43s1.86.14,2.62.43c.77.29,1.42.67,1.95,1.17.53.49.94,1.07,1.23,1.74.29.67.43,1.39.43,2.16v8.54h-3.19v-8.51c0-.85-.26-1.56-.79-2.12s-1.28-.85-2.26-.85-1.73.28-2.26.85-.79,1.27-.79,2.12v2.43Z"/>
            <path class="cls-14" d="M157.99,253.51c0,.93.2,1.59.59,1.99.39.39.95.59,1.67.59s1.36-.21,1.97-.63,1.08-.95,1.39-1.61v-9.25h3.19v13.74h-2.85l-.34-1.69c-.18.25-.41.49-.7.72-.29.24-.6.45-.96.64-.35.19-.74.34-1.17.45-.43.11-.87.17-1.32.17-1.46,0-2.6-.4-3.42-1.2-.83-.8-1.24-2.06-1.24-3.78v-9.05h3.19v8.91Z"/>
            <path class="cls-14" d="M170.97,258.34v-12.63c0-.69.15-1.32.45-1.89.3-.57.64-1.11,1.01-1.61.37-.5.71-.97,1.02-1.42.31-.45.47-.9.47-1.34s-.13-.8-.39-1.12c-.26-.32-.69-.48-1.28-.48-.69,0-1.27.16-1.74.48-.47.32-.95.76-1.42,1.31l-1.18-1.94c.57-.74,1.27-1.32,2.1-1.74.83-.43,1.79-.64,2.91-.64.65,0,1.24.11,1.75.32.52.21.95.49,1.31.85.36.35.63.76.82,1.24.19.47.28.97.28,1.47,0,.75-.15,1.4-.45,1.95-.3.55-.63,1.07-.99,1.56s-.69.98-.99,1.47c-.3.49-.45,1.05-.45,1.69v12.46h-3.21Z"/>
            <path class="cls-14" d="M180.63,253.51c0,.93.2,1.59.59,1.99.39.39.95.59,1.67.59s1.36-.21,1.97-.63,1.08-.95,1.39-1.61v-9.25h3.19v13.74h-2.85l-.34-1.69c-.18.25-.41.49-.7.72-.29.24-.6.45-.96.64-.35.19-.74.34-1.17.45-.43.11-.87.17-1.32.17-1.46,0-2.6-.4-3.42-1.2-.83-.8-1.24-2.06-1.24-3.78v-9.05h3.19v8.91Z"/>
            <path class="cls-14" d="M201.56,258.34v-8.54c0-.98-.27-1.72-.8-2.21-.53-.49-1.26-.74-2.17-.74-.34,0-.68.05-1.02.14-.34.09-.65.21-.93.37-.29.16-.54.34-.76.54-.22.2-.39.41-.5.63l2.06,1.74c-.51.18-.89.45-1.15.82-.26.37-.39.86-.39,1.48v5.77h-3.19v-5.74c0-.52.12-.99.37-1.4.25-.41.56-.73.93-.96l-1.99-1.62c.16-.56.45-1.09.85-1.61.4-.52.89-.97,1.46-1.37.57-.4,1.23-.72,1.96-.97.74-.25,1.53-.37,2.38-.37.98,0,1.85.13,2.6.4.75.27,1.39.65,1.9,1.13.52.48.91,1.06,1.18,1.74.27.68.4,1.42.4,2.22v8.54h-3.19Z"/>
            <path class="cls-14" d="M216.26,258.34v-6.01h-2.99c-.92,0-1.65.14-2.2.4-.55.27-.82.76-.82,1.48,0,.59.19,1.05.56,1.39.38.34.84.5,1.4.5.29,0,.6-.03.92-.09.32-.06.64-.17.97-.33l.52,2.33c-.43.2-.86.33-1.31.42-.45.08-.93.12-1.44.12-.67,0-1.29-.09-1.86-.27-.57-.18-1.07-.45-1.5-.81-.43-.36-.76-.81-1.01-1.35-.25-.54-.37-1.17-.37-1.89,0-1.52.53-2.63,1.58-3.32,1.06-.7,2.65-1.04,4.8-1.04h2.75v-.47c0-.79-.23-1.42-.67-1.91-.45-.49-1.16-.74-2.12-.74-1.01,0-1.9.15-2.66.44-.76.29-1.47.68-2.12,1.15l-1.01-2.21c.64-.47,1.47-.9,2.49-1.28,1.02-.38,2.17-.56,3.45-.56.88,0,1.68.12,2.39.37s1.32.59,1.82,1.03c.5.44.88.98,1.15,1.61.27.63.4,1.33.4,2.1v8.93h-3.12Z"/>
            <path class="cls-14" d="M216.48,262.88c0-.39-.2-.59-.59-.59h-.93v-2.35h2.06c.8,0,1.39.17,1.78.52.38.34.58.92.58,1.72v3.07h-2.9v-2.36Z"/>
            <path class="cls-14" d="M216.3,242.89v-4.76h2.94v4.76h-2.94Z"/>
            <path class="cls-14" d="M231.42,244.61h3.19v8.81c0,1.73-.42,3.04-1.25,3.91-.83.88-1.99,1.31-3.46,1.31-.47,0-.92-.06-1.33-.18-.41-.12-.79-.28-1.14-.47-.35-.19-.67-.4-.94-.64-.28-.24-.51-.47-.69-.7l-.34,1.69h-2.85v-13.74h3.19v9.25c.15.31.33.6.56.87.23.27.49.51.78.71.29.2.61.36.94.48.33.11.67.17,1.02.17,1.54,0,2.31-.94,2.31-2.82v-8.66Z"/>
            <path class="cls-14" d="M246.11,258.34v-6.01h-2.99c-.92,0-1.65.14-2.2.4-.55.27-.82.76-.82,1.48,0,.59.19,1.05.56,1.39.38.34.84.5,1.4.5.29,0,.6-.03.92-.09.32-.06.64-.17.97-.33l.52,2.33c-.43.2-.86.33-1.31.42-.45.08-.93.12-1.44.12-.67,0-1.29-.09-1.86-.27-.57-.18-1.07-.45-1.5-.81-.43-.36-.76-.81-1.01-1.35-.25-.54-.37-1.17-.37-1.89,0-1.52.53-2.63,1.58-3.32,1.06-.7,2.65-1.04,4.8-1.04h2.75v-.47c0-.34-.06-.67-.17-.99-.11-.32-.29-.6-.52-.85-.23-.25-.52-.44-.87-.59-.35-.15-.76-.22-1.24-.22-1.01,0-1.9.15-2.66.44-.76.29-1.47.68-2.12,1.15l-1.01-2.21c.64-.47,1.47-.9,2.49-1.28,1.02-.38,2.17-.56,3.45-.56.38,0,.75.03,1.12.1.37.07.69.16.97.27l.83-1.03h3.51l-2.01,2.4c.42.46.76.97.99,1.55.24.57.36,1.18.36,1.82v8.93h-3.12Z"/>
            <path class="cls-14" d="M255.61,253.51c0,.93.2,1.59.59,1.99.39.39.95.59,1.67.59s1.36-.21,1.97-.63,1.08-.95,1.39-1.61v-9.25h3.19v13.74h-2.85l-.34-1.69c-.18.25-.41.49-.7.72-.29.24-.6.45-.96.64-.35.19-.74.34-1.17.45-.43.11-.87.17-1.32.17-1.46,0-2.6-.4-3.42-1.2-.83-.8-1.24-2.06-1.24-3.78v-9.05h3.19v8.91Z"/>
            <path class="cls-14" d="M268.58,258.34v-12.63c0-.69.15-1.32.45-1.89.3-.57.64-1.11,1.01-1.61.37-.5.71-.97,1.02-1.42.31-.45.47-.9.47-1.34s-.13-.8-.39-1.12c-.26-.32-.69-.48-1.28-.48-.69,0-1.27.16-1.74.48-.47.32-.95.76-1.42,1.31l-1.18-1.94c.57-.74,1.27-1.32,2.1-1.74.83-.43,1.79-.64,2.91-.64.65,0,1.24.11,1.75.32.52.21.95.49,1.31.85.36.35.63.76.82,1.24.19.47.28.97.28,1.47,0,.75-.15,1.4-.45,1.95-.3.55-.63,1.07-.99,1.56s-.69.98-.99,1.47c-.3.49-.45,1.05-.45,1.69v12.46h-3.21Z"/>
            <path class="cls-14" d="M277.37,258.34l-1.23-4.86c-.08-.38-.32-.56-.71-.56h-.91v-2.55h1.79c.64,0,1.17.12,1.58.36.42.24.72.72.9,1.44l.91,3.63h.27c.36-.05.71-.19,1.04-.42.33-.23.63-.55.9-.96.26-.41.47-.89.63-1.45.16-.56.23-1.19.23-1.91,0-1.47-.31-2.54-.94-3.2-.63-.66-1.48-.99-2.56-.99-.78,0-1.59.14-2.4.43-.82.29-1.59.74-2.31,1.36l-.98-2.28c.69-.62,1.52-1.12,2.51-1.5.99-.38,2.11-.56,3.35-.56,2.11,0,3.72.6,4.85,1.79,1.12,1.19,1.68,2.85,1.68,4.98,0,1.01-.16,1.96-.48,2.83-.32.88-.75,1.64-1.3,2.31s-1.19,1.18-1.91,1.56c-.73.38-1.49.56-2.29.56h-2.6Z"/>
            <path class="cls-14" d="M302.44,258.34v-6.01h-2.99c-.92,0-1.65.14-2.2.4-.55.27-.82.76-.82,1.48,0,.59.19,1.05.56,1.39.38.34.84.5,1.4.5.29,0,.6-.03.92-.09.32-.06.64-.17.97-.33l.52,2.33c-.43.2-.86.33-1.31.42-.45.08-.93.12-1.44.12-.67,0-1.29-.09-1.86-.27-.57-.18-1.07-.45-1.5-.81-.43-.36-.76-.81-1.01-1.35-.25-.54-.37-1.17-.37-1.89,0-1.52.53-2.63,1.58-3.32,1.06-.7,2.65-1.04,4.8-1.04h2.75v-.47c0-.34-.06-.67-.17-.99-.11-.32-.29-.6-.52-.85-.23-.25-.52-.44-.87-.59-.35-.15-.76-.22-1.24-.22-1.01,0-1.9.15-2.66.44-.76.29-1.47.68-2.12,1.15l-1.01-2.21c.64-.47,1.47-.9,2.49-1.28,1.02-.38,2.17-.56,3.45-.56.38,0,.75.03,1.12.1.37.07.69.16.97.27l.83-1.03h3.51l-2.01,2.4c.42.46.76.97.99,1.55.24.57.36,1.18.36,1.82v8.93h-3.12Z"/>
            <path class="cls-14" d="M311.03,247.18c0,.38.19.56.56.56h2.5v2.4h-3.24c-.39,0-.76-.05-1.09-.15-.34-.1-.63-.26-.87-.48-.25-.22-.44-.51-.59-.86-.15-.35-.22-.79-.22-1.31v-1.13h2.94v.96ZM311.03,253.81c0,.38.19.56.56.56h2.5v2.4h-3.24c-.39,0-.76-.05-1.09-.15-.34-.1-.63-.26-.87-.48-.25-.22-.44-.51-.59-.86-.15-.35-.22-.79-.22-1.31v-1.13h2.94v.96Z"/>
            <path class="cls-14" d="M326.19,258.34v-8.32c0-.96-.28-1.73-.85-2.31-.56-.57-1.34-.86-2.32-.86-1.19,0-2.11.43-2.76,1.29-.65.86-.97,2.02-.97,3.5,0,.82.09,1.5.26,2.05.17.55.4.99.67,1.34.28.34.58.59.92.74.33.15.67.22.99.22s.63-.02.92-.07c.29-.05.59-.15.92-.29l.56,2.31c-.34.21-.72.37-1.14.47s-.94.15-1.56.15c-.74,0-1.45-.14-2.13-.4-.69-.27-1.3-.69-1.84-1.25-.54-.56-.97-1.28-1.29-2.15-.32-.87-.48-1.9-.48-3.09,0-1.03.15-1.99.45-2.88.3-.89.74-1.67,1.31-2.33.57-.66,1.28-1.18,2.13-1.56.85-.38,1.83-.56,2.94-.56,1.05,0,1.97.15,2.77.44.8.29,1.47.7,2.01,1.21.54.52.95,1.12,1.23,1.83.28.7.42,1.46.42,2.26v8.29h-3.19Z"/>
            <path class="cls-14" d="M332.32,254.91c.56.33,1.17.61,1.83.83.66.23,1.34.34,2.02.34,1.18,0,2.07-.39,2.69-1.17.61-.78.92-1.93.92-3.45s-.32-2.75-.97-3.5c-.65-.74-1.53-1.12-2.66-1.12-.69,0-1.35.11-1.97.34-.63.23-1.25.56-1.85.98l-.74-2.4c.67-.44,1.43-.8,2.28-1.07.85-.27,1.72-.4,2.6-.4,2.06,0,3.66.61,4.8,1.82,1.14,1.21,1.71,2.94,1.71,5.18,0,2.45-.58,4.29-1.73,5.51-1.15,1.22-2.75,1.83-4.8,1.83-.98,0-1.89-.11-2.74-.32-.84-.21-1.55-.52-2.12-.93l.74-2.48Z"/>
            <path class="cls-14" d="M354.42,258.34v-8.54c0-.98-.27-1.72-.8-2.21-.53-.49-1.26-.74-2.17-.74-.34,0-.68.05-1.02.14-.34.09-.65.21-.93.37-.29.16-.54.34-.76.54-.22.2-.39.41-.5.63l2.06,1.74c-.51.18-.89.45-1.15.82-.26.37-.39.86-.39,1.48v5.77h-3.19v-5.74c0-.52.12-.99.37-1.4.25-.41.56-.73.93-.96l-1.99-1.62c.16-.56.45-1.09.85-1.61.4-.52.89-.97,1.46-1.37.57-.4,1.23-.72,1.96-.97.74-.25,1.53-.37,2.38-.37.98,0,1.85.13,2.6.4.75.27,1.39.65,1.9,1.13.52.48.91,1.06,1.18,1.74.27.68.4,1.42.4,2.22v8.54h-3.19Z"/>
            <path class="cls-14" d="M369.12,258.34v-6.01h-2.99c-.92,0-1.65.14-2.2.4-.55.27-.82.76-.82,1.48,0,.59.19,1.05.56,1.39.38.34.84.5,1.4.5.29,0,.6-.03.92-.09.32-.06.64-.17.97-.33l.52,2.33c-.43.2-.86.33-1.31.42-.45.08-.93.12-1.44.12-.67,0-1.29-.09-1.86-.27-.57-.18-1.07-.45-1.5-.81-.43-.36-.76-.81-1.01-1.35-.25-.54-.37-1.17-.37-1.89,0-1.52.53-2.63,1.58-3.32,1.06-.7,2.65-1.04,4.8-1.04h2.75v-.47c0-.79-.23-1.42-.67-1.91-.45-.49-1.16-.74-2.12-.74-1.01,0-1.9.15-2.66.44-.76.29-1.47.68-2.12,1.15l-1.01-2.21c.64-.47,1.47-.9,2.49-1.28,1.02-.38,2.17-.56,3.45-.56.88,0,1.68.12,2.39.37s1.32.59,1.82,1.03c.5.44.88.98,1.15,1.61.27.63.4,1.33.4,2.1v8.93h-3.12Z"/>
            <path class="cls-14" d="M377.98,258.34l-4.15-13.74h3.14l3.36,11.19h.27c.39,0,.77-.11,1.13-.34.36-.23.68-.55.97-.97.29-.42.51-.92.67-1.52.16-.6.25-1.25.25-1.97,0-1.49-.24-2.55-.72-3.18-.48-.63-1.1-.94-1.85-.94-.51,0-1.06.11-1.64.32l-.47-2.33c.33-.18.72-.31,1.19-.4.47-.09.95-.13,1.46-.13.74,0,1.42.15,2.06.44.64.29,1.19.73,1.66,1.3.47.57.83,1.27,1.1,2.1.27.83.4,1.77.4,2.83,0,1.15-.16,2.17-.47,3.08-.31.91-.75,1.68-1.31,2.32s-1.23,1.12-2,1.46c-.77.34-1.61.5-2.53.5h-2.53Z"/>
            <path class="cls-14" d="M392.16,253.78c0,.82.2,1.41.59,1.79.39.38.98.56,1.77.56s1.37-.2,1.77-.61c.39-.41.59-1.05.59-1.94v-8.98h3.19v8.95c0,1.6-.45,2.85-1.34,3.74s-2.29,1.34-4.21,1.34-3.32-.43-4.21-1.28c-.89-.85-1.34-2.05-1.34-3.61v-1.28c0-.52.11-.99.34-1.39.23-.4.48-.77.76-1.1.28-.33.53-.66.76-.98.23-.32.34-.65.34-.99v-.34c0-.38-.19-.56-.56-.56h-1.5v-2.5h1.89c.64,0,1.16.06,1.57.18.41.12.74.3.98.53.25.23.42.52.52.87.1.35.15.76.15,1.21v.61c0,.47-.11.89-.32,1.25-.21.36-.45.71-.71,1.04-.26.34-.5.67-.71,1.02-.21.34-.32.73-.32,1.15v1.3Z"/>
            <path class="cls-14" d="M408.84,258.34v-8.83c0-1.77-.74-2.65-2.21-2.65-.74,0-1.46.13-2.17.39-.71.26-1.35.57-1.9.93l-.81-2.28c.67-.44,1.45-.82,2.34-1.13.89-.31,1.83-.47,2.81-.47,1.68,0,2.96.47,3.83,1.42.87.95,1.3,2.24,1.3,3.88v8.73h-3.19Z"/>
            <path class="cls-14" d="M423.63,244.61h3.19v8.44c0,.83-.12,1.59-.37,2.28-.25.69-.63,1.28-1.15,1.77-.52.49-1.2.87-2.04,1.14-.83.27-1.84.4-3.02.4-.83,0-1.59-.09-2.28-.28-.69-.19-1.28-.47-1.78-.86-.5-.38-.89-.87-1.17-1.45-.28-.58-.42-1.26-.42-2.02s.23-1.46.7-2.02c.47-.56,1.06-.91,1.78-1.04-.31-.07-.61-.2-.91-.4-.29-.2-.56-.45-.8-.74-.24-.29-.43-.61-.56-.98-.14-.37-.21-.75-.21-1.14,0-.46.09-.89.26-1.29.17-.4.42-.75.74-1.04.32-.29.71-.53,1.18-.7.47-.17.99-.26,1.58-.26.62,0,1.17.05,1.63.13.47.09.87.22,1.21.38l-.32,2.38c-.28-.11-.55-.2-.81-.25-.26-.05-.51-.07-.74-.07-.54,0-.95.11-1.24.33-.29.22-.43.52-.43.9,0,.47.18.84.54,1.09.36.25.75.38,1.18.38h1.86l.27,2.45h-1.67c-.67,0-1.19.16-1.56.49-.37.33-.55.78-.55,1.35,0,.67.25,1.19.74,1.56.49.37,1.1.55,1.84.55,1.1,0,1.92-.28,2.48-.83.56-.56.83-1.3.83-2.23v-8.41Z"/>
            <path class="cls-14" d="M438.87,244.61h3.19v8.81c0,1.73-.42,3.04-1.25,3.91-.83.88-1.99,1.31-3.46,1.31-.47,0-.92-.06-1.33-.18-.41-.12-.79-.28-1.14-.47-.35-.19-.67-.4-.94-.64-.28-.24-.51-.47-.69-.7l-.34,1.69h-2.85v-13.74h3.19v9.25c.15.31.33.6.56.87.23.27.49.51.78.71.29.2.61.36.94.48.33.11.67.17,1.02.17,1.54,0,2.31-.94,2.31-2.82v-8.66Z"/>
            <path class="cls-14" d="M438.79,239.92c0,.38.19.56.56.56h6.28v2.4h-7.02c-.39,0-.76-.05-1.09-.15-.33-.1-.63-.26-.87-.48-.25-.22-.44-.51-.59-.86-.15-.35-.22-.79-.22-1.31v-1.23h2.94v1.05Z"/>
            <path class="cls-14" d="M439.75,234.2c0,.25.11.37.34.37h3.29v2.26h-4.66c-.38,0-.68-.11-.91-.32-.23-.21-.34-.5-.34-.86v-.61c0-.25-.11-.37-.34-.37h-1.42v-2.28h2.48c.47,0,.85.11,1.14.32.29.21.43.56.43,1.03v.47Z"/>
            <path class="cls-14" d="M453.66,244.61h3.19v8.44c0,.83-.12,1.59-.37,2.28-.25.69-.63,1.28-1.15,1.77-.52.49-1.2.87-2.04,1.14-.83.27-1.84.4-3.02.4-.83,0-1.59-.09-2.28-.28-.69-.19-1.28-.47-1.78-.86-.5-.38-.89-.87-1.17-1.45-.28-.58-.42-1.26-.42-2.02s.23-1.46.7-2.02c.47-.56,1.06-.91,1.78-1.04-.31-.07-.61-.2-.91-.4-.29-.2-.56-.45-.8-.74-.24-.29-.43-.61-.56-.98-.14-.37-.21-.75-.21-1.14,0-.46.09-.89.26-1.29.17-.4.42-.75.74-1.04.32-.29.71-.53,1.18-.7.47-.17.99-.26,1.58-.26.62,0,1.17.05,1.63.13.47.09.87.22,1.21.38l-.32,2.38c-.28-.11-.55-.2-.81-.25-.26-.05-.51-.07-.74-.07-.54,0-.95.11-1.24.33-.29.22-.43.52-.43.9,0,.47.18.84.54,1.09.36.25.75.38,1.18.38h1.86l.27,2.45h-1.67c-.67,0-1.19.16-1.56.49-.37.33-.55.78-.55,1.35,0,.67.25,1.19.74,1.56.49.37,1.1.55,1.84.55,1.1,0,1.92-.28,2.48-.83.56-.56.83-1.3.83-2.23v-8.41Z"/>
          </g>
          <polygon class="cls-9" points="121.57 238.27 91.52 231.71 102.84 246.4 121.57 238.27"/>
        </g>
      </g>
    </g>
  </g>
  <g>
    <rect class="cls-6" x="91.52" y="132.55" width="450.51" height="142.43" rx="10.57" ry="10.57"/>
    <path class="cls-6" d="M159.38,270.81h-30s13.21,15.8,13.21,15.8c.93,1.11,2.64,1.11,3.57,0l13.21-15.8Z"/>
    <path class="cls-13" d="M531.47,135.55c4.17,0,7.57,3.4,7.57,7.57v121.29c0,4.17-3.4,7.57-7.57,7.57H155.9c-.89,0-1.73.39-2.3,1.08l-9.21,11.02-9.21-11.02c-.57-.68-1.41-1.08-2.3-1.08h-30.78c-4.17,0-7.57-3.4-7.57-7.57v-121.29c0-4.17,3.4-7.57,7.57-7.57h429.37M531.47,132.55H102.09c-5.84,0-10.57,4.73-10.57,10.57v121.29c0,5.84,4.73,10.57,10.57,10.57h30.78l9.73,11.64c.47.56,1.13.83,1.79.83s1.32-.28,1.79-.83l9.73-11.64h375.57c5.84,0,10.57-4.73,10.57-10.57v-121.29c0-5.84-4.73-10.57-10.57-10.57h0Z"/>
    <g>
      <path class="cls-11" d="M163.33,187.74c-.79-.84-1.18-2.01-1.18-3.5v-16.64h6.08v15c0,.64.13,1.09.4,1.36.27.27.71.4,1.32.4h1.4v4.64h-4.64c-1.47,0-2.59-.42-3.38-1.26Z"/>
      <path class="cls-11" d="M176.01,187.76c-1.45-1.23-2.18-2.96-2.18-5.2s.79-4,2.38-5.28c1.59-1.28,3.77-1.92,6.54-1.92,2.59,0,4.8.43,6.64,1.28v-.84c0-1.44-.47-2.51-1.42-3.2-.95-.69-2.47-1.04-4.58-1.04-1.31,0-2.59.13-3.84.4-1.25.27-2.37.64-3.36,1.12v-4.56c.88-.43,2.09-.79,3.64-1.08,1.55-.29,3.11-.44,4.68-.44,1.79,0,3.45.27,5,.8l1.56-1.8h6.6l-3.96,4.6c1.15,1.31,1.72,3.03,1.72,5.16v13.24h-6.04v-7.96c-1.55-.8-3.36-1.2-5.44-1.2-1.36,0-2.35.23-2.98.68-.63.45-.94,1.16-.94,2.12,0,.88.29,1.54.86,1.98.57.44,1.49.66,2.74.66.88,0,1.63-.13,2.24-.4v4.2c-1.04.35-2.37.52-4,.52-2.45,0-4.41-.61-5.86-1.84Z"/>
      <path class="cls-11" d="M203.99,188.52c-1.25-.72-2.21-1.71-2.86-2.96-.65-1.25-.98-2.65-.98-4.2v-13.76h6.08v13.4c0,2.59,1.37,3.88,4.12,3.88,1.12,0,2.09-.23,2.9-.7.81-.47,1.53-1.19,2.14-2.18v-14.4h6.04v21.4h-5.76v-2.4c-.93.99-2.03,1.73-3.3,2.24-1.27.51-2.57.76-3.9.76-1.73,0-3.23-.36-4.48-1.08Z"/>
      <path class="cls-11" d="M229.15,189.06c-1.73-.36-3.17-.86-4.32-1.5v-11.24h10.12v4.44h-4.16v3.44c.83.45,2.04.68,3.64.68,4.24,0,6.36-2.21,6.36-6.64,0-2.27-.61-3.92-1.84-4.96-1.23-1.04-3.29-1.56-6.2-1.56-1.33,0-2.7.14-4.1.42-1.4.28-2.58.67-3.54,1.18v-4.72c1.09-.51,2.41-.9,3.96-1.18,1.55-.28,3.16-.42,4.84-.42,4.29,0,7.55.98,9.78,2.94,2.23,1.96,3.34,4.73,3.34,8.3s-1.09,6.29-3.28,8.32c-2.19,2.03-5.29,3.04-9.32,3.04-1.79,0-3.55-.18-5.28-.54Z"/>
      <path class="cls-11" d="M251.33,187.74c-.79-.84-1.18-2.01-1.18-3.5v-9.64c0-1.25.24-2.33.72-3.24.48-.91,1.15-1.87,2-2.88.56-.64.98-1.19,1.26-1.64.28-.45.42-.92.42-1.4,0-.77-.2-1.33-.6-1.68-.4-.35-1.08-.52-2.04-.52-1.55,0-2.99.49-4.32,1.48v-4.64c.83-.51,1.8-.89,2.92-1.16,1.12-.27,2.27-.4,3.44-.4,2.29,0,4.01.53,5.14,1.58,1.13,1.05,1.7,2.42,1.7,4.1,0,.99-.19,1.85-.56,2.58-.37.73-.95,1.62-1.72,2.66-.75.96-1.31,1.82-1.7,2.58-.39.76-.58,1.62-.58,2.58v8c0,.64.13,1.09.4,1.36.27.27.71.4,1.32.4h1.4v4.64h-4.64c-1.47,0-2.59-.42-3.38-1.26Z"/>
      <path class="cls-11" d="M262.95,167.6h6.08v7.72l8.12-7.72h6.92l-5.76,5.48c2.08.59,3.54,1.49,4.38,2.72.84,1.23,1.26,2.85,1.26,4.88v8.32h-6.08v-7.8c0-1.36-.23-2.37-.7-3.04-.47-.67-1.31-1.15-2.54-1.44l-5.6,5.24v7.04h-6.08v-21.4Z"/>
      <path class="cls-11" d="M274.19,162.4c0-.29-.06-.5-.18-.62-.12-.12-.33-.18-.62-.18h-1.88v-4.12h3.76c.99,0,1.7.23,2.14.68.44.45.66,1.03.66,1.72v1.2h8.04v3.88h-11.92v-2.56Z"/>
      <path class="cls-11" d="M289.33,187.74c-.79-.84-1.18-2.01-1.18-3.5v-16.64h6.08v15c0,.64.13,1.09.4,1.36.27.27.71.4,1.32.4h1.4v4.64h-4.64c-1.47,0-2.59-.42-3.38-1.26Z"/>
      <path class="cls-11" d="M304.93,188.6c-1.56-.67-2.75-1.6-3.58-2.8-.83-1.2-1.24-2.56-1.24-4.08v-1c0-.96.19-1.82.56-2.58.37-.76.89-1.62,1.56-2.58.43-.59.73-1.06.92-1.42.19-.36.28-.7.28-1.02,0-.75-.45-1.12-1.36-1.12h-2.24v-4.4h5.8c1.2,0,2.16.35,2.88,1.04.72.69,1.08,1.6,1.08,2.72,0,.8-.15,1.54-.44,2.22-.29.68-.73,1.46-1.32,2.34-.56.88-.98,1.63-1.26,2.24-.28.61-.42,1.28-.42,2v.84c0,1.25.37,2.21,1.1,2.88.73.67,1.81,1,3.22,1,2.8,0,4.2-1.35,4.2-4.04v-13.24h6.08v12.6c0,2.91-.89,5.2-2.66,6.88-1.77,1.68-4.31,2.52-7.62,2.52-2.13,0-3.98-.33-5.54-1Z"/>
      <path class="cls-11" d="M310.95,162.4c0-.29-.06-.5-.18-.62-.12-.12-.33-.18-.62-.18h-1.88v-4.12h3.76c.99,0,1.7.23,2.14.68.44.45.66,1.03.66,1.72v1.2h8.04v3.88h-11.92v-2.56Z"/>
      <path class="cls-11" d="M331.35,175.68c0-1.39-.29-2.39-.88-3.02-.59-.63-1.61-.94-3.08-.94s-2.84.36-4.28,1.08v-4.6c.64-.32,1.5-.6,2.58-.84,1.08-.24,2.13-.36,3.14-.36,2.8,0,4.93.75,6.4,2.24,1.47,1.49,2.2,3.65,2.2,6.48v13.28h-6.08v-13.32Z"/>
      <path class="cls-11" d="M342.71,176.24l-2-3.4c3.12-3.89,7.13-5.84,12.04-5.84,3.44,0,6.09.76,7.94,2.28,1.85,1.52,2.78,3.64,2.78,6.36v13.36h-6.08v-12.88c0-2.93-1.55-4.4-4.64-4.4-1.15,0-2.17.16-3.06.48-.89.32-1.73.84-2.5,1.56l1.56,2.56v12.68h-6.04v-12.76Z"/>
      <path class="cls-11" d="M369.01,187.76c-1.45-1.23-2.18-2.96-2.18-5.2s.79-4,2.38-5.28c1.59-1.28,3.77-1.92,6.54-1.92,2.59,0,4.8.43,6.64,1.28v-.84c0-1.44-.47-2.51-1.42-3.2-.95-.69-2.47-1.04-4.58-1.04-1.31,0-2.59.13-3.84.4-1.25.27-2.37.64-3.36,1.12v-4.56c.88-.43,2.09-.79,3.64-1.08,1.55-.29,3.11-.44,4.68-.44,3.57,0,6.29.79,8.14,2.38,1.85,1.59,2.78,3.71,2.78,6.38v13.24h-6.04v-7.96c-1.55-.8-3.36-1.2-5.44-1.2-1.36,0-2.35.23-2.98.68-.63.45-.94,1.16-.94,2.12,0,.88.29,1.54.86,1.98.57.44,1.49.66,2.74.66.88,0,1.63-.13,2.24-.4v4.2c-1.04.35-2.37.52-4,.52-2.45,0-4.41-.61-5.86-1.84Z"/>
      <path class="cls-11" d="M383.15,196.04c0-.48-.09-.82-.28-1.02-.19-.2-.52-.3-1-.3h-1.32v-3.84h4.2c1.44,0,2.43.29,2.98.88.55.59.82,1.6.82,3.04v5.16h-5.4v-3.92Z"/>
      <path class="cls-11" d="M382.35,157.84h6.08v7.12h-6.08v-7.12Z"/>
      <path class="cls-11" d="M401.67,188.84c-1.25-.51-2.35-1.25-3.28-2.24v2.4h-5.8v-21.4h6.08v14.4c.59.99,1.29,1.71,2.12,2.18.83.47,1.8.7,2.92.7,2.75,0,4.12-1.29,4.12-3.88v-13.4h6.04v13.76c0,1.55-.32,2.95-.96,4.2-.64,1.25-1.59,2.24-2.84,2.96-1.25.72-2.76,1.08-4.52,1.08-1.33,0-2.63-.25-3.88-.76Z"/>
      <path class="cls-11" d="M419.25,187.74c-.79-.84-1.18-2.01-1.18-3.5v-16.64h6.08v15c0,.64.13,1.09.4,1.36.27.27.71.4,1.32.4h1.4v4.64h-4.64c-1.47,0-2.59-.42-3.38-1.26ZM430.49,187.74c-.79-.84-1.18-2.01-1.18-3.5v-16.64h6.04v15c0,.64.13,1.09.4,1.36.27.27.72.4,1.36.4h1.4v4.64h-4.64c-1.47,0-2.59-.42-3.38-1.26Z"/>
      <path class="cls-11" d="M441.79,167.6h5.8v2.44c.96-.96,2.09-1.71,3.4-2.24,1.31-.53,2.61-.8,3.92-.8,2.69,0,4.73.73,6.1,2.18,1.37,1.45,2.06,3.37,2.06,5.74v14.08h-6.04v-13.56c0-2.48-1.31-3.72-3.92-3.72-1.09,0-2.09.24-2.98.72-.89.48-1.65,1.21-2.26,2.2v14.36h-6.08v-21.4Z"/>
      <path class="cls-11" d="M471.11,188.52c-1.25-.72-2.21-1.71-2.86-2.96-.65-1.25-.98-2.65-.98-4.2v-13.76h6.08v13.4c0,2.59,1.37,3.88,4.12,3.88,1.12,0,2.09-.23,2.9-.7.81-.47,1.53-1.19,2.14-2.18v-14.4h6.04v21.4h-5.76v-2.4c-.93.99-2.03,1.73-3.3,2.24-1.27.51-2.57.76-3.9.76-1.73,0-3.23-.36-4.48-1.08Z"/>
      <path class="cls-11" d="M492.75,167.6h5.8v2.44c.96-.96,2.09-1.71,3.4-2.24,1.31-.53,2.61-.8,3.92-.8,2.69,0,4.73.73,6.1,2.18,1.37,1.45,2.06,3.37,2.06,5.74v14.08h-6.04v-13.56c0-2.48-1.31-3.72-3.92-3.72-1.09,0-2.09.24-2.98.72-.89.48-1.65,1.21-2.26,2.2v14.36h-6.08v-21.4Z"/>
      <path class="cls-11" d="M495.55,161.12h13.04v-4.24h5.48v8.08h-18.52v-3.84Z"/>
      <path class="cls-11" d="M508.59,148.88h5.44v5.64h-5.44v-5.64Z"/>
      <path class="cls-11" d="M161.99,232.24h6l1.8,7.24c1.84,0,3.37-.57,4.58-1.7,1.21-1.13,1.82-2.69,1.82-4.66,0-2.13-.57-3.73-1.7-4.8-1.13-1.07-3.07-1.6-5.82-1.6-1.28,0-2.6.13-3.96.4-1.36.27-2.48.61-3.36,1.04v-4.68c1.07-.45,2.34-.81,3.82-1.08,1.48-.27,2.98-.4,4.5-.4,4.13,0,7.29.94,9.46,2.82,2.17,1.88,3.26,4.62,3.26,8.22,0,2.19-.54,4.11-1.62,5.76-1.08,1.65-2.53,2.93-4.36,3.84-1.83.91-3.83,1.36-6.02,1.36h-5.48l-2.92-11.76Z"/>
      <path class="cls-11" d="M185.87,230.58c-.59-.6-.88-1.51-.88-2.74v-3.12h5.44v1.72c0,.35.08.6.24.76.16.16.44.24.84.24h4.72v4.04h-7.48c-1.33,0-2.29-.3-2.88-.9ZM185.87,241.36c-.59-.61-.88-1.53-.88-2.76v-3.12h5.44v1.72c0,.35.08.6.24.76s.44.24.84.24h4.72v4.08h-7.48c-1.33,0-2.29-.31-2.88-.92Z"/>
      <path class="cls-11" d="M202.57,242.74c-.79-.84-1.18-2.01-1.18-3.5v-14.36c0-1.81-.35-3.23-1.04-4.26-.69-1.03-1.81-1.83-3.36-2.42v-4.28h14.28v4.68h-6.44c1.76,1.36,2.64,3.49,2.64,6.4v12.6c0,.64.13,1.09.4,1.36.27.27.71.4,1.32.4h1.4v4.64h-4.64c-1.47,0-2.59-.42-3.38-1.26Z"/>
      <path class="cls-11" d="M216.95,244.06c-1.73-.36-3.17-.86-4.32-1.5v-11.24h10.12v4.44h-4.16v3.44c.83.45,2.04.68,3.64.68,4.24,0,6.36-2.21,6.36-6.64,0-2.27-.61-3.92-1.84-4.96-1.23-1.04-3.29-1.56-6.2-1.56-1.33,0-2.7.14-4.1.42-1.4.28-2.58.67-3.54,1.18v-4.72c1.09-.51,2.41-.9,3.96-1.18,1.55-.28,3.16-.42,4.84-.42,4.29,0,7.55.98,9.78,2.94,2.23,1.96,3.34,4.73,3.34,8.3s-1.09,6.29-3.28,8.32c-2.19,2.03-5.29,3.04-9.32,3.04-1.79,0-3.55-.18-5.28-.54Z"/>
      <path class="cls-11" d="M242.03,243.52c-1.25-.72-2.21-1.71-2.86-2.96-.65-1.25-.98-2.65-.98-4.2v-13.76h6.08v13.4c0,2.59,1.37,3.88,4.12,3.88,1.12,0,2.09-.23,2.9-.7.81-.47,1.53-1.19,2.14-2.18v-14.4h6.04v21.4h-5.76v-2.4c-.93.99-2.03,1.73-3.3,2.24-1.27.51-2.57.76-3.9.76-1.73,0-3.23-.36-4.48-1.08Z"/>
      <path class="cls-11" d="M264.85,242.74c-.79-.84-1.18-2.01-1.18-3.5v-16.64h6.08v15c0,.64.13,1.09.4,1.36.27.27.71.4,1.32.4h1.4v4.64h-4.64c-1.47,0-2.59-.42-3.38-1.26Z"/>
      <path class="cls-11" d="M275.35,225.28h6.04l4.56,14.2c1.97,0,3.49-.59,4.56-1.78,1.07-1.19,1.6-2.87,1.6-5.06,0-1.97-.37-3.45-1.12-4.44-.75-.99-1.89-1.48-3.44-1.48-.85,0-1.71.13-2.56.4v-4.56c1.12-.37,2.39-.56,3.8-.56,3.17,0,5.55.93,7.14,2.78,1.59,1.85,2.38,4.47,2.38,7.86,0,2.37-.52,4.41-1.56,6.12-1.04,1.71-2.45,3.01-4.22,3.9-1.77.89-3.71,1.34-5.82,1.34h-5.36l-6-18.72Z"/>
      <path class="cls-11" d="M278.99,216.12h18.52v3.84h-18.52v-3.84Z"/>
      <path class="cls-11" d="M305.55,243.52c-1.25-.72-2.21-1.71-2.86-2.96-.65-1.25-.98-2.65-.98-4.2v-13.76h6.08v13.4c0,2.59,1.37,3.88,4.12,3.88,1.12,0,2.09-.23,2.9-.7.81-.47,1.53-1.19,2.14-2.18v-14.4h6.04v21.4h-5.76v-2.4c-.93.99-2.03,1.73-3.3,2.24-1.27.51-2.57.76-3.9.76-1.73,0-3.23-.36-4.48-1.08Z"/>
      <path class="cls-11" d="M332.19,243.6c-1.57-.67-2.77-1.6-3.6-2.8-.83-1.2-1.24-2.56-1.24-4.08v-1.12c0-.93.22-1.81.66-2.64.44-.83,1.05-1.73,1.82-2.72.08-.11.29-.4.62-.88s.55-.88.66-1.2c-.53.21-1.11.32-1.72.32-2,0-3-1.13-3-3.4v-2.48h4.2v1.44c0,.75.36,1.12,1.08,1.12.51,0,.88-.15,1.12-.44v-2.12h4.36v3.56c0,.91-.18,1.75-.54,2.52s-.87,1.65-1.54,2.64c-.59.85-1.01,1.56-1.28,2.12-.27.56-.4,1.13-.4,1.72v.84c0,1.25.37,2.21,1.12,2.88.75.67,1.81,1,3.2,1,1.47,0,2.58-.41,3.34-1.22.76-.81,1.14-1.99,1.14-3.54,0-3.25-1.27-4.88-3.8-4.88v-2.92l3.88-5.32h6.44l-4.36,5.96c1.41.72,2.42,1.66,3.02,2.82.6,1.16.9,2.63.9,4.42s-.42,3.47-1.26,4.88c-.84,1.41-2.06,2.52-3.66,3.32-1.6.8-3.48,1.2-5.64,1.2s-3.95-.33-5.52-1Z"/>
      <path class="cls-11" d="M329.47,216.12h7.44v-4.24h4.2v4.24h2.68v-4.24h4.16v8.08h-18.48v-3.84Z"/>
      <path class="cls-11" d="M339.95,207.4c0-.29-.05-.49-.14-.6-.09-.11-.3-.16-.62-.16h-1.72v-3.88h3.6c1.71,0,2.56.73,2.56,2.2v1.04h6.8v3.56h-10.48v-2.16Z"/>
      <path class="cls-11" d="M355.63,244.06c-1.73-.36-3.17-.86-4.32-1.5v-11.24h10.12v4.44h-4.16v3.44c.83.45,2.04.68,3.64.68,4.24,0,6.36-2.21,6.36-6.64,0-2.27-.61-3.92-1.84-4.96-1.23-1.04-3.29-1.56-6.2-1.56-1.33,0-2.7.14-4.1.42-1.4.28-2.58.67-3.54,1.18v-4.72c1.09-.51,2.41-.9,3.96-1.18,1.55-.28,3.16-.42,4.84-.42,4.29,0,7.55.98,9.78,2.94,2.23,1.96,3.34,4.73,3.34,8.3s-1.09,6.29-3.28,8.32c-2.19,2.03-5.29,3.04-9.32,3.04-1.79,0-3.55-.18-5.28-.54Z"/>
      <path class="cls-11" d="M378.25,242.76c-1.45-1.23-2.18-2.96-2.18-5.2s.79-4,2.38-5.28c1.59-1.28,3.77-1.92,6.54-1.92,2.59,0,4.8.43,6.64,1.28v-.84c0-1.44-.47-2.51-1.42-3.2-.95-.69-2.47-1.04-4.58-1.04-1.31,0-2.59.13-3.84.4-1.25.27-2.37.64-3.36,1.12v-4.56c.88-.43,2.09-.79,3.64-1.08,1.55-.29,3.11-.44,4.68-.44,1.79,0,3.45.27,5,.8l1.56-1.8h6.6l-3.96,4.6c1.15,1.31,1.72,3.03,1.72,5.16v13.24h-6.04v-7.96c-1.55-.8-3.36-1.2-5.44-1.2-1.36,0-2.35.23-2.98.68-.63.45-.94,1.16-.94,2.12,0,.88.29,1.54.86,1.98.57.44,1.49.66,2.74.66.88,0,1.63-.13,2.24-.4v4.2c-1.04.35-2.37.52-4,.52-2.45,0-4.41-.61-5.86-1.84Z"/>
      <path class="cls-11" d="M379.67,216.12h18.52v3.84h-18.52v-3.84Z"/>
      <path class="cls-11" d="M406.23,243.52c-1.25-.72-2.21-1.71-2.86-2.96-.65-1.25-.98-2.65-.98-4.2v-13.76h6.08v13.4c0,2.59,1.37,3.88,4.12,3.88,1.12,0,2.09-.23,2.9-.7.81-.47,1.53-1.19,2.14-2.18v-14.4h6.04v21.4h-5.76v-2.4c-.93.99-2.03,1.73-3.3,2.24-1.27.51-2.57.76-3.9.76-1.73,0-3.23-.36-4.48-1.08Z"/>
      <path class="cls-11" d="M427.87,231.16c0-2.96.99-5.23,2.98-6.8,1.99-1.57,4.66-2.36,8.02-2.36s6.03.79,8,2.36c1.97,1.57,2.96,3.84,2.96,6.8v12.84h-6.08v-12.88c0-1.47-.42-2.57-1.26-3.3-.84-.73-2.05-1.1-3.62-1.1s-2.82.37-3.66,1.1c-.84.73-1.26,1.83-1.26,3.3v3.04c.32-.48.79-.86,1.42-1.14.63-.28,1.33-.42,2.1-.42h3.12v4.64h-3.44c-.93,0-1.7.29-2.3.88-.6.59-.9,1.35-.9,2.28v3.6h-6.08v-12.84Z"/>
      <path class="cls-11" d="M440.03,217.4c0-.29-.06-.5-.18-.62-.12-.12-.33-.18-.62-.18h-1.88v-4.12h3.76c.99,0,1.7.23,2.14.68.44.45.66,1.03.66,1.72v1.2h8.04v3.88h-11.92v-2.56Z"/>
      <path class="cls-11" d="M460.43,230.68c0-1.39-.29-2.39-.88-3.02-.59-.63-1.61-.94-3.08-.94s-2.84.36-4.28,1.08v-4.6c.64-.32,1.5-.6,2.58-.84,1.08-.24,2.13-.36,3.14-.36,2.8,0,4.93.75,6.4,2.24,1.47,1.49,2.2,3.65,2.2,6.48v13.28h-6.08v-13.32Z"/>
    </g>
    <path class="cls-11" d="M145.09,162.74l-17.81-7.42c-.14-1.19-1.14-2.11-2.36-2.11-1.32,0-2.39,1.07-2.39,2.39v29.02h-.71c-1.21,0-2.19.98-2.19,2.19s.98,2.19,2.19,2.19h6.53c1.21,0,2.19-.98,2.19-2.19s-.98-2.19-2.19-2.19h-1.03v-7.38l17.95-8.79c1.12-.54,1.8-1.66,1.76-2.9-.04-1.25-.78-2.33-1.93-2.81ZM139.98,165.61l-12.67,6.2v-11.47l12.67,5.27Z"/>
  </g>
</svg>