<?xml version="1.0" encoding="UTF-8"?>
<svg xmlns="http://www.w3.org/2000/svg" xmlns:xlink="http://www.w3.org/1999/xlink" viewBox="0 0 800 600">
  <defs>
    <style>
      .cls-1, .cls-2, .cls-3, .cls-4, .cls-5, .cls-6, .cls-7 {
        fill: none;
      }

      .cls-8 {
        fill: #5889ef;
      }

      .cls-9 {
        fill: #accdf8;
      }

      .cls-10, .cls-11, .cls-12, .cls-13 {
        fill: #7db0f2;
      }

      .cls-14 {
        fill: #c2d9fd;
      }

      .cls-2 {
        stroke-width: 1.38px;
      }

      .cls-2, .cls-3, .cls-4, .cls-6 {
        stroke-miterlimit: 10;
      }

      .cls-2, .cls-4, .cls-6, .cls-7 {
        stroke: #060a25;
      }

      .cls-2, .cls-5, .cls-7 {
        stroke-linecap: round;
      }

      .cls-3 {
        stroke: #7db0f2;
        stroke-width: 2.23px;
      }

      .cls-3, .cls-13 {
        opacity: .2;
      }

      .cls-4 {
        stroke-width: .83px;
      }

      .cls-15 {
        fill: #0d2243;
      }

      .cls-16 {
        isolation: isolate;
      }

      .cls-17 {
        opacity: .6;
      }

      .cls-17, .cls-18 {
        fill: #9bc1f9;
      }

      .cls-19 {
        fill: #fff;
      }

      .cls-20 {
        fill: #5183bf;
      }

      .cls-21 {
        fill: #ff7bac;
      }

      .cls-21, .cls-18, .cls-22 {
        opacity: .3;
      }

      .cls-18 {
        mix-blend-mode: multiply;
      }

      .cls-5 {
        stroke: #fff;
        stroke-width: 10px;
      }

      .cls-5, .cls-7 {
        stroke-linejoin: round;
      }

      .cls-23 {
        fill: #193d70;
      }

      .cls-24 {
        fill: #dceaff;
      }

      .cls-6 {
        stroke-width: 1.21px;
      }

      .cls-25 {
        fill: #accdf9;
      }

      .cls-26 {
        fill: #101e35;
      }

      .cls-27 {
        fill: #060a25;
      }

      .cls-28 {
        fill: #f2f2f2;
      }

      .cls-29 {
        fill: #013057;
      }

      .cls-7 {
        stroke-width: 1.76px;
      }

      .cls-30 {
        fill: #ff517d;
      }

      .cls-11 {
        opacity: .1;
      }

      .cls-12 {
        opacity: .5;
      }

      .cls-31 {
        fill: #3a4165;
      }

      .cls-32 {
        clip-path: url(#clippath);
      }

      .cls-33 {
        fill: #f4b2a0;
      }
    </style>
    <clipPath id="clippath">
      <rect class="cls-1" x="194.85" y="-81.45" width="410.75" height="758.17" transform="translate(102.59 697.85) rotate(-90)"/>
    </clipPath>
  </defs>
  <g class="cls-16">
    <g id="Layer_1" data-name="Layer 1">
      <g>
        <g>
          <g>
            <rect class="cls-19" y="0" width="800" height="600" rx="30" ry="30"/>
            <rect class="cls-13" x="96.49" y="24.56" width="168.96" height="22.83" rx="5.78" ry="5.78"/>
            <rect class="cls-13" x="96.49" y="58.78" width="258.59" height="17.24" rx="4.44" ry="4.44"/>
            <path class="cls-9" d="M49.98,21.13h0c15.92,0,28.85,12.93,28.85,28.85h0c0,15.92-12.93,28.85-28.85,28.85h0c-15.92,0-28.84-12.92-28.84-28.84h0c0-15.92,12.93-28.85,28.85-28.85Z"/>
            <g>
              <g>
                <g>
                  <rect class="cls-9" x="165.37" y="566.85" width="6.4" height="15.46" rx="1.22" ry="1.22"/>
                  <path class="cls-9" d="M191.61,571.37c0-1.82-1.51-1.82-1.51-1.82,0,0,1.51-.6,1.51-2.42,0-2.13-1.52-2.43-2.43-2.43h-6.67c1.51-3.35,1.52-5.47,1.52-6.68s-.91-3.64-2.73-3.64-2.13,1.21-2.13,1.21c0,0,.46,3.18,0,3.64-.46.46-5.76,6.68-5.76,7.9,0,.9,0,2.15,0,2.72h0v9.42c0,.84.68,1.52,1.52,1.52h11.6c2.76-.08,3.89-.96,3.89-2.12s-.91-1.52-.91-1.52c0,0,1.2-.3,1.2-1.82s-.91-1.82-.91-1.82c0,0,1.81-.31,1.81-2.13Z"/>
                </g>
                <rect class="cls-13" x="201.88" y="565.74" width="46.67" height="13.94" rx="3.48" ry="3.48"/>
                <rect class="cls-11" x="75.66" y="518.05" width="46.67" height="13.94" rx="3.48" ry="3.48"/>
                <rect class="cls-11" x="696.7" y="518.05" width="82.6" height="13.94" rx="3.48" ry="3.48"/>
                <rect class="cls-11" x="565.3" y="518.05" width="116.89" height="13.94" rx="3.48" ry="3.48"/>
              </g>
              <g>
                <path class="cls-9" d="M361.73,560.28h-17.01c-2.15,0-3.9,1.75-3.9,3.89v11.74c0,2.14,1.75,3.89,3.9,3.89h3.15v4.38s0,1.2.58.91c.43-.09,1.37-.91,1.37-.91l4.85-4.38h7.07c2.14,0,3.89-1.75,3.89-3.89v-11.74c0-2.14-1.75-3.89-3.89-3.89"/>
                <rect class="cls-13" x="375.89" y="566" width="87.45" height="13.94" rx="3.48" ry="3.48"/>
              </g>
              <g>
                <path class="cls-9" d="M577.4,572.04l-10.37-10.37c-.37-.37-.97-.37-1.35,0v6.11s-14.85-.55-16.18,16.26c0,0,4.75-8.16,16.18-7.27v6.99c.37.37.98.37,1.35,0l10.37-10.36c.37-.37.37-.98,0-1.35"/>
                <rect class="cls-13" x="587.95" y="567.51" width="46.67" height="13.94" rx="3.48" ry="3.48"/>
              </g>
            </g>
            <g>
              <path class="cls-21" d="M65.12,523.12c0,6.71-5.44,12.15-12.15,12.15s-12.15-5.44-12.15-12.15,5.44-12.15,12.15-12.15,12.15,5.44,12.15,12.15Z"/>
              <path class="cls-19" d="M56.86,518.72c-1.81-.41-3.33.3-3.88,2.04-.55-1.74-2.07-2.45-3.89-2.04-1.44.33-3.42,2.59-1.67,5.62,1.75,3.02,5.56,4.91,5.56,4.91,0,0,3.81-1.89,5.56-4.91,1.74-3.03-.23-5.29-1.67-5.62Z"/>
            </g>
            <g>
              <path class="cls-19" d="M44.18,523.13c0,7.37-5.98,13.35-13.36,13.35s-13.36-5.98-13.36-13.35,5.98-13.36,13.36-13.36,13.36,5.98,13.36,13.36Z"/>
              <path class="cls-12" d="M42.97,523.13c0,6.71-5.44,12.15-12.15,12.15s-12.15-5.44-12.15-12.15,5.44-12.15,12.15-12.15,12.15,5.44,12.15,12.15Z"/>
              <g>
                <path class="cls-19" d="M26.85,521.72h-1.9c-.27,0-.49.21-.49.48v5.63c0,.27.22.49.49.49h1.9c.27,0,.48-.22.48-.49v-5.63c0-.27-.22-.48-.48-.48Z"/>
                <path class="cls-19" d="M35.31,520.16h-2.66v-2.71c0-.47-.52-1.33-.94-1.33h-.99c-.18,0-.42.37-.42.97v1.64c0,.34-.49,1.3-.86,1.8-.36.5-1.1.94-1.1,1.61v4.8c0,.47.4,1.07,1.41,1.07h4.54c.62,0,1.12-.1,1.75-1.51.63-1.41.92-2.03.92-3.18v-1.93c0-.6-.52-1.22-1.65-1.22Z"/>
              </g>
            </g>
            <line class="cls-3" x1="22.41" y1="545.3" x2="777.49" y2="545.3"/>
          </g>
          <rect class="cls-24" x="194.85" y="-81.45" width="410.75" height="758.17" transform="translate(102.59 697.85) rotate(-90)"/>
        </g>
        <g class="cls-32">
          <g class="cls-22">
            <rect class="cls-17" x="291.37" y="144.84" width="57.62" height="445.96"/>
            <rect class="cls-17" x="210.91" y="280.87" width="57.62" height="309.93"/>
            <rect class="cls-17" x="372.99" y="241.46" width="57.62" height="349.34"/>
            <rect class="cls-17" x="130.45" y="227.73" width="57.62" height="363.08"/>
            <rect class="cls-17" x="49.98" y="335.38" width="57.62" height="255.43"/>
            <g>
              <rect class="cls-18" x="291.37" y="247.62" width="57.62" height="343.18"/>
              <rect class="cls-18" x="210.91" y="352.3" width="57.62" height="238.5"/>
              <rect class="cls-18" x="372.99" y="321.98" width="57.62" height="268.83"/>
              <rect class="cls-18" x="130.45" y="311.4" width="57.62" height="279.4"/>
              <rect class="cls-18" x="49.98" y="394.24" width="57.62" height="196.56"/>
            </g>
            <polygon class="cls-20" points="458.61 148.25 412.7 182.98 430.22 184.09 320.62 376.98 259.94 286 174.1 486.23 118.89 407.8 50.07 505.08 54.4 522.49 118.86 431.82 177.22 514.71 262.75 315.22 321.62 403.49 442.96 189.95 454.22 202.06 458.61 148.25"/>
          </g>
          <g>
            <g>
              <g>
                <path class="cls-33" d="M334,698.15l34.12-67.8,104.33-152.71,18.47,30.05s-88.65,103.12-90.57,109.77c-1.92,6.65,2.59,6.96-4.44,21.94-7.03,14.98-14,13.69-15.81,18.15-2.21,5.43-5.78,18.12-7.19,24.5-5.39,24.47-17.09,27.1-16.67,22.15,1.05-12.45,2.1-21.5,3.09-28.02-5.44,9.87-12.99,23.55-13.11,23.8-7.05,13.86-5.64,28.08-20.31,31.08,4.54-14.37,8.11-32.9,8.11-32.9Z"/>
                <g>
                  <path d="M386.74,600.2l2.56-4.08c.94-1.5,2.78-2.08,4.1-1.29l14.24,8.52c1.32.79,1.64,2.65.7,4.16l-2.56,4.08c-.94,1.5-2.78,2.08-4.1,1.29l-14.24-8.52c-1.32-.79-1.64-2.65-.7-4.16Z"/>
                  <ellipse class="cls-28" cx="388.88" cy="598.99" rx="9.27" ry="2.8" transform="translate(-325.24 606.23) rotate(-57.59)"/>
                  <path d="M392.9,591.08c.37-.09.7-.07.94.09,1.31.83.14,5.01-2.6,9.33-2.74,4.32-6.03,7.15-7.34,6.32-.26-.16-.41-.46-.49-.85,1.12-2.28,2.59-4.89,4.31-7.61,1.77-2.78,3.55-5.28,5.17-7.29Z"/>
                </g>
              </g>
              <path class="cls-23" d="M467.66,461.2l29.27-96.31,38.69,58.05s-20.32,66.48-35.4,86.64c0,0-5.91,8.07-14.03,19.2-15.78,21.63-20.13,27.88-27.26,37.52-6.35,8.59-15.84,21.16-28.07,36.39-10.9-5.96-21.79-11.91-32.69-17.87,23.16-41.21,46.33-82.42,69.49-123.62Z"/>
            </g>
            <path class="cls-15" d="M363.93,779.8l644.37-255.02,30.22,76.37c45.7,115.48-18.5,250.23-129.31,306.33l-184.4,97.28-354.33-54.65-6.55-170.3Z"/>
            <g>
              <path class="cls-25" d="M837.75,292.28c-28.52.42-203.79.15-203.79.15,0,0-43.48,37.42-47.09,43.05-3.61,5.63.04,44.18.04,44.18l-75.42,188.91,286.92-36.17s31.2-23.13,32.8-36.62c1.6-13.49,5.6-24.74,5.6-24.74,0,0,36.12-41.27,52.97-65.91,16.85-24.65,20.82-79.81,6.35-92.12-14.47-12.31-29.86-21.15-58.38-20.72Z"/>
              <path class="cls-10" d="M655.07,513.43c51.29-69.87,99.15-137.97,158.2-197.02,22.38-22.38,58.26-24.2,82.44-3.78.14.12.29.24.43.36,14.47,12.31,10.5,67.47-6.35,92.12-16.85,24.65-52.97,65.91-52.97,65.91,0,0-4.01,11.25-5.6,24.74-1.6,13.49-32.8,36.62-32.8,36.62l-156.87,15.08c.47-.82.94-1.63,1.42-2.46,4.85-9.72,4.84-24.29,12.12-31.58Z"/>
            </g>
            <polygon class="cls-33" points="634.8 284.93 621.74 232.76 567.8 295.86 569.58 333.27 593.2 325.12 634.8 284.93"/>
            <polygon class="cls-19" points="633.23 314.99 529.26 421.12 546.78 324.05 570.45 291.93 572.83 315.47 569.99 321.73 643.03 269.83 648.32 280.65 654.58 293.19 654.49 293.29 655.17 294.69 633.23 314.99"/>
            <g>
              <path class="cls-15" d="M567.69,334.52c-2.39.12-4.61,1.31-6.07,3.21-2.29,2.98-5.76,7.88-6.8,11.38-1.6,5.38.73,6.17,3.29,5.16s13.13.64,15.01-.15c1.89-.79,4.39-1.93,4.34-3.62-.05-1.69-.49-3.52-1.19-7.23-.69-3.71-1.69-5.94-4-7.83-1.04-.85-2.88-1.01-4.58-.92Z"/>
              <path class="cls-15" d="M538,410.47c-.64-7.78-.46-16.05.26-24.35l20.66-39.22,13.94,1.02-1.38,19.78c-14.18,16.54-26.65,32.05-33.47,42.77Z"/>
            </g>
            <path class="cls-23" d="M436.1,571.25l25.29-56.37c23.1-67.17,35.68-149.98,35.68-149.98l39.79-31.16,23.61-28.04s-7.67,22.26-12.45,43.3c-4.18,18.35-11.61,42.18-10.01,61.47,23.18-36.39,111.24-127.92,111.24-127.92l33.62,21.34h0c18.73,3.35,34.91,15.13,43.75,31.98,4.51,8.61,8.78,18.74,11.3,29.6,7.34,31.65-7.25,119.93-7.25,119.93-.83,17.1-5.25,38.54-19.43,57.37-29.8,39.57-91.86,53.23-154.56,32.25,4.14,40.83,8.29,81.66,12.43,122.49l-122.94-106.91s-11.27-.81-22.55-3.12c4.34-4.4,8.51-9.9,12.49-16.24Z"/>
            <line class="cls-6" x1="677.15" y1="354.48" x2="641" y2="503.01"/>
            <path class="cls-6" d="M423.61,587.49c4.34-4.4,8.51-9.9,12.49-16.24l25.29-56.37c15.98-46.46,26.92-100.41,32.15-129.26"/>
            <polygon class="cls-19" points="649.24 282.55 643.64 268.66 569.99 321.73 586.18 359.21 649.24 282.55"/>
            <polyline class="cls-6" points="649.24 282.55 586.18 359.21 569.99 321.73 547.45 351.43"/>
            <path class="cls-26" d="M211.02,664.85c2.96-34,68.41-38.88,68.41-38.88l137.21-27.69c2.32-3.6,4.64-7.19,6.96-10.79,21.42,1.07,45.72,3.51,72.17,8.31,26.55,4.82,50.23,11.1,70.72,17.65l5.28-1.22,30.33,97.02s-181.12,45.88-303.2,20.48c-2.43,22.92-10.52,142.97-10.52,142.97,0,0-38.35,13.6-100.07,6.2,16.45-52.3,19.75-180.03,22.71-214.03Z"/>
            <g>
              <path class="cls-14" d="M491.4,522.78l377.93-31.52,67.5,22.79-2.24,144.51h0c-3.98,158.85-127.58,288.9-286.03,300.94l-161.96,24.31-38.21-22.63,6.17-398.97c.32-20.65,16.25-37.7,36.83-39.41Z"/>
              <path class="cls-10" d="M492.79,584.43c.31-19.93,16.3-36.38,36.99-38.02l407.05-32.36-3.23,208.78c-2.42,156.62-123.37,237.51-279.59,248.83l-167.39,12.14,6.18-399.37Z"/>
            </g>
            <g>
              <path class="cls-15" d="M629.3,153.5c5.92-1.72,12.29,4.17,15.09,8.66,2.17,3.48,2.68,6.93,3.26,10.61.63,3.97.56,7.46.28,10.21-.84,15.6-1.69,31.21-2.53,46.81-3.14,1.8-14.33,7.91-19.1,3.82-1.71-1.47-1.98-3.69-2.18-5.74-.96-9.69-2.25-19.82-3.92-30.33-1.02-6.37-2.13-12.56-3.31-18.56l-9.11,1.73c-1.05-1.68-1.27-3.09-1.27-4.07,0-4.8,5.3-9.67,13.31-11.74l4.14-7.09c.99-1.51,2.71-3.54,5.34-4.3Z"/>
              <path class="cls-15" d="M536.09,164.23c3.77-1.16,7.76,1.57,9.55,6.52,1.05,2.91,2.05,6.49,2.63,10.67.56,3.98.6,7.46.46,10.19l.92,43.47c-2.15,2.72-7,2.36-10.92,1.77-1.97-.3-3.55-1.79-3.98-3.73-2.74-12.46-5.47-24.92-8.21-37.37-.61-2.98-1.13-7.09-.8-11.96.31-4.47,1.25-8.18,2.16-10.93l2.82-6.97c1.78-.55,3.57-1.1,5.35-1.65Z"/>
              <path class="cls-2" d="M569.25,266.23c1.62.62,4.89,1.54,8.9.21,2.15-.72,3.91-1.88,5.24-3"/>
              <path class="cls-33" d="M620.23,276.56h0c-5.42,6.42-13,10.63-21.31,11.85l-16.96,2.47c-14.85,2.17-29.4-5.55-35.93-19.06h0c-7.28-15.07-11.42-31.46-12.16-48.18l-1.4-31.63c-.59-13.24,7.73-25.24,20.33-29.33h0s18.15-6.15,18.15-6.15l20.44,3.85,34.88.43c4.31-.4,8.14,2.77,3.76-4.97l6.44,69.02c1.74,18.71-4.1,37.34-16.22,51.7Z"/>
              <path class="cls-15" d="M575.07,215.07l21.58-4.93c1.67-.38,2.72-2.05,2.34-3.72h0c-.4-1.73-2.16-2.78-3.87-2.3l-21.3,6.01c-1.3.37-2.09,1.69-1.79,3.01h0c.31,1.37,1.68,2.23,3.05,1.91Z"/>
              <path class="cls-15" d="M552.33,216.48l-12.47-.91c-1.69-.12-2.95-1.59-2.83-3.28h0c.13-1.78,1.75-3.07,3.51-2.8l12.37,1.87c1.33.2,2.28,1.39,2.18,2.73h0c-.1,1.42-1.34,2.49-2.76,2.38Z"/>
              <path class="cls-4" d="M630.25,260.83c-2.6,5.62-5.96,10.91-10.03,15.73h0c-5.42,6.42-13,10.63-21.31,11.85l-16.96,2.47c-10.42,1.52-20.7-1.83-28.15-8.63"/>
              <path class="cls-2" d="M559.52,218.19c1.52,4.18,4.28,13.67,1.11,24.56-.53,1.83-1.17,3.5-1.87,5.01-1.1,2.39.48,5.2,3.09,5.5,1.11.13,2.33.19,3.62.13,2.38-.1,4.4-.55,5.93-1.02"/>
              <g>
                <circle class="cls-27" cx="585.71" cy="221.22" r="3.16"/>
                <circle class="cls-27" cx="548.16" cy="224.69" r="3.16"/>
              </g>
              <g>
                <rect class="cls-15" x="620.5" y="163.04" width="17.08" height="58.26" transform="translate(-14.21 54.87) rotate(-4.94)"/>
                <path class="cls-15" d="M543.63,135.16c30.56-5.34,66.22-3.12,81.58,5.22,2.63,1.43,8.67,4.71,11.17,11.31.69,1.83.94,3.46,1.04,4.55-2.27,3.8-4.54,7.59-6.81,11.39-4.24,7.09-11.53,11.84-19.74,12.75-11.9,1.32-25.05,2.14-39.28,2.04-12.15-.09-23.46-.84-33.79-1.97-5.36-.59-9.96-4.1-11.95-9.11l-.02-.06c-1.5-3.79-2.17-8.1-2.48-10.05-.02-.16-.04-.28-.04-.29-.24-1.53-.34-12.64,7.11-19.77,4.6-4.41,10.18-5.47,13.23-6Z"/>
                <path class="cls-15" d="M615.36,167.84h6.19v61.98h-3.64c-1.41,0-2.55-1.14-2.55-2.55v-59.43h0Z" transform="translate(-14.82 53.99) rotate(-4.94)"/>
                <path class="cls-15" d="M602.32,181.14h0c6.31-.55,11.86,4.13,12.41,10.43l.53,6.13,12.01-21.23-4.58-7.89-15.66,1.35-4.71,11.2Z"/>
              </g>
              <g>
                <circle class="cls-33" cx="635.85" cy="226.39" r="13.81"/>
                <path class="cls-4" d="M634.24,240.11c7.57.89,14.44-4.53,15.33-12.1.44-3.74-.66-7.31-2.8-10.07"/>
                <path class="cls-7" d="M644.09,223.74s1.02,8.73-7.19,9.81"/>
              </g>
              <path class="cls-19" d="M568.34,263.59l15.34-4.29c2.15-.6,4.05,1.57,3.15,3.62-2.13,4.84-6.56,8.09-11.31,8.26-3.46.13-6.25-1.41-8.2-3.02-1.64-1.35-1.03-4,1.01-4.57Z"/>
            </g>
          </g>
        </g>
        <path class="cls-8" d="M21.13,416.93h394.4c8.32,0,15.08,6.76,15.08,15.08v37.25c0,8.32-6.76,15.08-15.08,15.08H21.13v-67.41h0Z"/>
        <g>
          <path class="cls-29" d="M49.93,389.68c-1.44-.58-2.7-1.44-3.77-2.58v2.76h-6.67v-24.61h6.99v16.56c.67,1.13,1.49,1.97,2.44,2.51.95.54,2.07.81,3.36.81,3.16,0,4.74-1.49,4.74-4.46v-15.41h6.95v15.82c0,1.78-.37,3.39-1.1,4.83-.74,1.44-1.82,2.58-3.27,3.4-1.44.83-3.17,1.24-5.2,1.24-1.53,0-3.02-.29-4.46-.87Z"/>
          <path class="cls-29" d="M42.75,357.8h8.56v-4.88h4.83v4.88h3.08v-4.88h4.78v9.29h-21.25v-4.42Z"/>
          <path class="cls-29" d="M72.84,389.93c-1.99-.41-3.65-.99-4.97-1.72v-12.93h11.64v5.11h-4.78v3.96c.95.52,2.35.78,4.19.78,4.88,0,7.31-2.55,7.31-7.64,0-2.61-.71-4.51-2.12-5.7-1.41-1.2-3.79-1.79-7.13-1.79-1.53,0-3.1.16-4.71.48-1.61.32-2.97.77-4.07,1.36v-5.43c1.26-.58,2.78-1.04,4.55-1.36,1.78-.32,3.63-.48,5.57-.48,4.94,0,8.69,1.13,11.25,3.38,2.56,2.25,3.84,5.44,3.84,9.54s-1.26,7.24-3.77,9.57c-2.51,2.33-6.09,3.5-10.72,3.5-2.06,0-4.08-.21-6.07-.62Z"/>
          <path class="cls-29" d="M98.34,388.41c-.91-.97-1.36-2.31-1.36-4.02v-11.09c0-1.44.28-2.68.83-3.73.55-1.04,1.32-2.15,2.3-3.31.64-.74,1.13-1.36,1.45-1.89.32-.52.48-1.06.48-1.61,0-.89-.23-1.53-.69-1.93-.46-.4-1.24-.6-2.35-.6-1.78,0-3.44.57-4.97,1.7v-5.34c.95-.58,2.07-1.03,3.36-1.33,1.29-.31,2.61-.46,3.96-.46,2.64,0,4.61.61,5.91,1.82,1.3,1.21,1.96,2.78,1.96,4.71,0,1.13-.21,2.12-.64,2.97-.43.84-1.09,1.86-1.98,3.06-.86,1.1-1.51,2.09-1.96,2.97-.44.87-.67,1.86-.67,2.97v9.2c0,.74.15,1.26.46,1.56.31.31.81.46,1.52.46h1.61v5.34h-5.34c-1.69,0-2.98-.48-3.89-1.45Z"/>
          <path class="cls-29" d="M111.71,365.25h6.99v8.88l9.34-8.88h7.96l-6.62,6.3c2.39.67,4.07,1.72,5.04,3.13.97,1.41,1.45,3.28,1.45,5.61v9.57h-6.99v-8.97c0-1.56-.27-2.73-.8-3.5-.54-.77-1.51-1.32-2.92-1.66l-6.44,6.03v8.1h-6.99v-24.61Z"/>
          <path class="cls-29" d="M151.13,389.68c-1.44-.58-2.7-1.44-3.77-2.58v2.76h-6.67v-24.61h6.99v16.56c.67,1.13,1.49,1.97,2.44,2.51.95.54,2.07.81,3.36.81,3.16,0,4.74-1.49,4.74-4.46v-15.41h6.95v15.82c0,1.78-.37,3.39-1.1,4.83-.74,1.44-1.82,2.58-3.27,3.4-1.44.83-3.17,1.24-5.2,1.24-1.53,0-3.02-.29-4.46-.87Z"/>
          <path class="cls-29" d="M158.21,354.03h6.99v8.19h-6.99v-8.19Z"/>
          <path class="cls-29" d="M171.28,375.19l-2.3-3.91c3.59-4.48,8.2-6.72,13.85-6.72,3.96,0,7,.87,9.13,2.62,2.13,1.75,3.2,4.19,3.2,7.31v15.36h-6.99v-14.81c0-3.37-1.78-5.06-5.34-5.06-1.32,0-2.49.18-3.52.55-1.03.37-1.99.97-2.88,1.79l1.79,2.94v14.58h-6.95v-14.67Z"/>
          <path class="cls-29" d="M176.54,360.95c-1.06-.97-1.59-2.26-1.59-3.89,0-2.05.59-3.6,1.77-4.65,1.18-1.04,2.8-1.56,4.85-1.56h11.64v3.63h-11.13c-1.69,0-2.53.69-2.53,2.07,0,.64.17,1.14.51,1.5.34.35.83.53,1.47.53.71,0,1.24-.2,1.61-.6.37-.4.55-.94.55-1.61h3.63c0,1.35.77,2.02,2.3,2.02h2.81v3.82h-2.71c-1.04,0-1.96-.19-2.74-.58-.78-.38-1.29-.87-1.54-1.45-.28.61-.84,1.13-1.7,1.56-.86.43-1.82.64-2.9.64-1.81,0-3.24-.48-4.3-1.45Z"/>
          <path class="cls-29" d="M201.52,388.44c-1.67-1.41-2.51-3.4-2.51-5.98s.91-4.6,2.74-6.07c1.82-1.47,4.33-2.21,7.52-2.21,2.97,0,5.52.49,7.64,1.47v-.97c0-1.66-.54-2.88-1.63-3.68-1.09-.8-2.84-1.2-5.27-1.2-1.5,0-2.97.15-4.42.46-1.44.31-2.73.74-3.86,1.29v-5.24c1.01-.49,2.41-.9,4.19-1.24,1.78-.34,3.57-.51,5.38-.51,4.11,0,7.23.91,9.36,2.74,2.13,1.82,3.2,4.27,3.2,7.34v15.23h-6.95v-9.15c-1.78-.92-3.86-1.38-6.26-1.38-1.56,0-2.71.26-3.43.78-.72.52-1.08,1.33-1.08,2.44,0,1.01.33,1.77.99,2.28.66.51,1.71.76,3.15.76,1.01,0,1.87-.15,2.58-.46v4.83c-1.2.4-2.73.6-4.6.6-2.82,0-5.07-.71-6.74-2.12Z"/>
          <path class="cls-29" d="M227.72,368.33h6.95l5.24,16.33c2.27,0,4.02-.68,5.24-2.05,1.23-1.36,1.84-3.3,1.84-5.82,0-2.27-.43-3.97-1.29-5.11-.86-1.13-2.18-1.7-3.96-1.7-.98,0-1.96.15-2.94.46v-5.24c1.29-.43,2.74-.64,4.37-.64,3.65,0,6.39,1.07,8.21,3.2,1.82,2.13,2.74,5.15,2.74,9.04,0,2.73-.6,5.08-1.79,7.04-1.2,1.96-2.81,3.46-4.85,4.48-2.04,1.03-4.27,1.54-6.69,1.54h-6.16l-6.9-21.53Z"/>
          <path class="cls-29" d="M258.03,365.25h6.67v2.81c1.1-1.1,2.41-1.96,3.91-2.58,1.5-.61,3-.92,4.51-.92,3.1,0,5.44.84,7.02,2.51,1.58,1.67,2.37,3.87,2.37,6.6v16.19h-6.95v-15.59c0-2.85-1.5-4.28-4.51-4.28-1.26,0-2.4.28-3.43.83-1.03.55-1.89,1.4-2.6,2.53v16.51h-6.99v-24.61Z"/>
          <path class="cls-29" d="M276.48,397.96c0-.55-.11-.94-.32-1.17-.21-.23-.6-.34-1.15-.34h-1.52v-4.42h4.83c1.66,0,2.8.34,3.43,1.01.63.67.94,1.84.94,3.5v5.93h-6.21v-4.51Z"/>
          <path class="cls-29" d="M291.75,389.31c-1.44-.83-2.54-1.96-3.29-3.4-.75-1.44-1.13-3.05-1.13-4.83v-15.82h6.99v15.41c0,2.98,1.58,4.46,4.74,4.46,1.29,0,2.4-.27,3.33-.81.94-.54,1.76-1.37,2.46-2.51v-16.56h6.95v24.61h-6.62v-2.76c-1.07,1.13-2.34,1.99-3.8,2.58s-2.95.87-4.48.87c-1.99,0-3.71-.41-5.15-1.24Z"/>
          <path class="cls-29" d="M319.42,388.41c-.9-.97-1.36-2.31-1.36-4.02v-15.87c0-3.62,1.06-6.24,3.17-7.87h-7.59v-5.38h16.42v4.92c-1.78.71-3.07,1.7-3.86,2.99-.8,1.29-1.2,3.02-1.2,5.2v14.12c0,.74.15,1.26.46,1.56.31.31.83.46,1.56.46h1.61v5.34h-5.34c-1.69,0-2.98-.48-3.89-1.45Z"/>
          <path class="cls-29" d="M334.94,387.38c-2.21-2.12-3.31-5.21-3.31-9.29s1.27-7.58,3.82-9.96c2.54-2.38,6.06-3.56,10.53-3.56s8.04,1.07,10.23,3.22c2.19,2.15,3.29,4.97,3.29,8.46v13.62h-6.95v-13.66c0-2.02-.51-3.56-1.54-4.62-1.03-1.06-2.71-1.59-5.04-1.59-2.21,0-3.96.69-5.24,2.07-1.29,1.38-1.93,3.39-1.93,6.03,0,2.42.53,4.2,1.59,5.34,1.06,1.13,2.68,1.7,4.85,1.7,1.17,0,2.21-.17,3.13-.51v5.34c-1.2.4-2.67.6-4.42.6-3.8,0-6.81-1.06-9.02-3.17Z"/>
          <path class="cls-29" d="M348.28,359.27c0-.34-.07-.58-.21-.71s-.38-.21-.71-.21h-2.16v-4.74h4.32c1.13,0,1.96.26,2.46.78s.76,1.18.76,1.98v1.38h9.25v4.46h-13.71v-2.94Z"/>
        </g>
        <g>
          <path class="cls-19" d="M49.93,468.15c-1.44-.58-2.7-1.44-3.77-2.58v2.76h-6.67v-24.61h6.99v16.56c.67,1.13,1.49,1.97,2.44,2.51.95.54,2.07.81,3.36.81,3.16,0,4.74-1.49,4.74-4.46v-15.41h6.95v15.82c0,1.78-.37,3.39-1.1,4.83-.74,1.44-1.82,2.58-3.27,3.4-1.44.83-3.17,1.24-5.2,1.24-1.53,0-3.02-.29-4.46-.87Z"/>
          <path class="cls-19" d="M42.71,436.27h15v-4.88h6.3v9.29h-21.3v-4.42Z"/>
          <path class="cls-19" d="M68.79,449.38c0-1.81.49-3.2,1.47-4.19.98-.98,2.38-1.47,4.19-1.47h4.97v5.38h-1.66c-.74,0-1.26.15-1.56.46-.31.31-.46.86-.46,1.66v8l4.65-7.08h2.44l4.65,7.08v-15.5h6.9v24.61h-6.26l-6.53-9.94-6.53,9.94h-6.26v-18.95Z"/>
          <path class="cls-19" d="M82.43,479.88c-1.24-.89-1.86-2.07-1.86-3.54v-.83c0-.4-.07-.67-.21-.83-.14-.15-.39-.23-.76-.23h-1.52v-3.96h5.2c.92,0,1.56.21,1.91.62.35.41.53,1.06.53,1.95v2.53c0,1.1.58,1.66,1.75,1.66s1.7-.55,1.7-1.66v-5.11h5.15v5.66c0,1.47-.58,2.68-1.73,3.63-1.15.95-2.78,1.43-4.9,1.43-2.27,0-4.02-.44-5.27-1.33Z"/>
          <path class="cls-19" d="M83.14,437.74c0-.34-.07-.58-.21-.71s-.38-.21-.71-.21h-2.16v-4.74h4.32c1.13,0,1.96.26,2.46.78s.76,1.18.76,1.98v1.38h9.25v4.46h-13.71v-2.94Z"/>
          <path class="cls-19" d="M100.55,466.88c-.9-.97-1.36-2.31-1.36-4.02v-19.14h6.99v17.25c0,.74.15,1.26.46,1.56.31.31.81.46,1.52.46h1.61v5.34h-5.34c-1.69,0-2.98-.48-3.89-1.45Z"/>
          <path class="cls-19" d="M118.51,467.87c-1.81-.77-3.19-1.84-4.14-3.22-.95-1.38-1.43-2.94-1.43-4.69v-1.15c0-1.1.21-2.1.64-2.99.43-.89,1.03-1.89,1.79-2.99.49-.67.84-1.22,1.06-1.63.21-.41.32-.79.32-1.13,0-.86-.52-1.29-1.56-1.29h-2.58v-5.06h6.67c1.38,0,2.48.4,3.31,1.2.83.8,1.24,1.84,1.24,3.13,0,.92-.17,1.77-.51,2.55-.34.78-.84,1.68-1.52,2.69-.64,1.01-1.13,1.87-1.45,2.58-.32.71-.48,1.47-.48,2.3v.97c0,1.44.43,2.55,1.29,3.31.86.77,2.09,1.15,3.68,1.15,1.69,0,2.97-.47,3.84-1.4.87-.94,1.31-2.29,1.31-4.07,0-3.74-1.46-5.61-4.37-5.61v-3.36l4.46-6.12h7.41l-5.01,6.85c1.62.83,2.78,1.91,3.47,3.24s1.04,3.03,1.04,5.08-.48,3.99-1.45,5.61c-.97,1.63-2.37,2.9-4.21,3.82-1.84.92-4,1.38-6.49,1.38s-4.54-.38-6.35-1.15Z"/>
          <path class="cls-19" d="M115.34,436.27h15v-4.88h6.3v9.29h-21.3v-4.42Z"/>
          <path class="cls-19" d="M130.34,422.2h6.26v6.49h-6.26v-6.49Z"/>
          <path class="cls-19" d="M143.95,466.93c-2.3-1.4-3.45-3.4-3.45-6,0-1.2.33-2.28.99-3.24.66-.97,1.54-1.66,2.65-2.09-1.01-.52-1.83-1.27-2.46-2.25-.63-.98-.94-2.05-.94-3.22,0-2.15.76-3.86,2.28-5.15,1.52-1.29,3.72-1.93,6.6-1.93.89,0,1.77.06,2.65.18.87.12,1.54.26,2,.41v5.24c-.43-.18-.94-.34-1.54-.46-.6-.12-1.14-.18-1.63-.18-2.15,0-3.22.8-3.22,2.39,0,.83.27,1.45.81,1.86.54.41,1.37.62,2.51.62h3.08v4.92h-3.08c-2.33,0-3.5.92-3.5,2.76,0,.98.47,1.74,1.4,2.28.94.54,2.29.81,4.07.81,2.15,0,3.72-.44,4.71-1.31,1-.87,1.5-2.19,1.5-3.93v-14.95h6.99v14.9c0,1.75-.45,3.41-1.33,4.99-.89,1.58-2.32,2.88-4.28,3.91-1.96,1.03-4.49,1.54-7.59,1.54-3.83,0-6.9-.7-9.2-2.09Z"/>
          <path class="cls-19" d="M170.22,467.05v-5.43c1.9,1.32,4.51,1.98,7.82,1.98,2.58,0,4.57-.62,5.98-1.86,1.41-1.24,2.12-3.14,2.12-5.68s-.71-4.45-2.12-5.7c-1.41-1.26-3.4-1.89-5.98-1.89-3.19,0-5.73.67-7.64,2.02v-5.43c1.07-.67,2.41-1.18,4-1.52,1.59-.34,3.31-.51,5.15-.51,4.29,0,7.66,1.14,10.1,3.43,2.44,2.29,3.66,5.48,3.66,9.59s-1.22,7.3-3.66,9.57c-2.44,2.27-5.8,3.4-10.1,3.4s-7.19-.66-9.34-1.98Z"/>
          <path class="cls-19" d="M202.14,467.87c-1.81-.77-3.19-1.84-4.14-3.22-.95-1.38-1.43-2.94-1.43-4.69v-1.15c0-1.1.21-2.1.64-2.99.43-.89,1.03-1.89,1.79-2.99.49-.67.84-1.22,1.06-1.63.21-.41.32-.79.32-1.13,0-.86-.52-1.29-1.56-1.29h-2.58v-5.06h6.67c1.38,0,2.48.4,3.31,1.2.83.8,1.24,1.84,1.24,3.13,0,.92-.17,1.77-.51,2.55-.34.78-.84,1.68-1.52,2.69-.64,1.01-1.13,1.87-1.45,2.58-.32.71-.48,1.47-.48,2.3v.97c0,1.44.43,2.55,1.29,3.31.86.77,2.09,1.15,3.68,1.15,1.69,0,2.97-.47,3.84-1.4.87-.94,1.31-2.29,1.31-4.07,0-3.74-1.46-5.61-4.37-5.61v-3.36l4.46-6.12h7.41l-5.01,6.85c1.62.83,2.78,1.91,3.47,3.24s1.04,3.03,1.04,5.08-.48,3.99-1.45,5.61c-.97,1.63-2.37,2.9-4.21,3.82-1.84.92-4,1.38-6.49,1.38s-4.54-.38-6.35-1.15Z"/>
          <path class="cls-19" d="M232.46,453.02c0-1.59-.34-2.75-1.01-3.47-.67-.72-1.86-1.08-3.54-1.08s-3.27.41-4.92,1.24v-5.29c.74-.37,1.73-.69,2.97-.97,1.24-.28,2.45-.41,3.61-.41,3.22,0,5.67.86,7.36,2.58,1.69,1.72,2.53,4.2,2.53,7.45v15.27h-6.99v-15.32Z"/>
          <path class="cls-19" d="M268.75,472.36c-1.69-.32-3.07-.76-4.14-1.31v-5.38c2.82,1.47,5.92,2.21,9.29,2.21,1.9,0,3.43-.23,4.6-.69,1.17-.46,1.75-1.15,1.75-2.07,0-.43-.11-.84-.32-1.24-1.87.86-4,1.29-6.39,1.29-2.51,0-4.68-.43-6.51-1.29-1.83-.86-3.21-2.07-4.14-3.63-.94-1.56-1.4-3.37-1.4-5.43v-1.29c0-1.72-.4-2.99-1.2-3.82-.8-.83-2.02-1.24-3.68-1.24-1.23,0-2.31.18-3.24.55-.94.37-1.83.97-2.69,1.79l1.79,2.94v7.22c0,.74.17,1.26.51,1.56.34.31.89.46,1.66.46h2.35v5.34h-6.16c-1.69,0-2.99-.48-3.91-1.45-.92-.97-1.38-2.31-1.38-4.02v-9.2l-2.3-3.91c1.75-2.18,3.71-3.84,5.89-4.99,2.18-1.15,4.68-1.72,7.5-1.72,3.8,0,6.72.88,8.74,2.65,2.02,1.76,3.04,4.19,3.04,7.29v1.2c0,1.81.4,3.19,1.2,4.14.8.95,2.12,1.43,3.96,1.43,3.43,0,5.15-1.85,5.15-5.57v-10.44h6.99v11.09c0,2.09-.52,3.94-1.56,5.57.77.71,1.33,1.46,1.68,2.25.35.8.53,1.69.53,2.67,0,2.39-1.17,4.25-3.5,5.57-2.33,1.32-5.31,1.98-8.92,1.98-1.75,0-3.47-.16-5.15-.48Z"/>
          <path class="cls-19" d="M291.91,466.88c-.9-.97-1.36-2.31-1.36-4.02v-19.14h6.99v17.25c0,.74.15,1.26.46,1.56.31.31.81.46,1.52.46h1.61v5.34h-5.34c-1.69,0-2.98-.48-3.89-1.45ZM304.84,466.88c-.9-.97-1.36-2.31-1.36-4.02v-19.14h6.95v17.25c0,.74.15,1.26.46,1.56.31.31.83.46,1.56.46h1.61v5.34h-5.34c-1.69,0-2.98-.48-3.89-1.45Z"/>
          <path class="cls-19" d="M322.25,467.78c-1.44-.83-2.54-1.96-3.29-3.4-.75-1.44-1.13-3.05-1.13-4.83v-15.82h6.99v15.41c0,2.98,1.58,4.46,4.74,4.46,1.29,0,2.4-.27,3.33-.81.94-.54,1.76-1.37,2.46-2.51v-16.56h6.95v24.61h-6.62v-2.76c-1.07,1.13-2.34,1.99-3.8,2.58s-2.95.87-4.48.87c-1.99,0-3.71-.41-5.15-1.24Z"/>
          <path class="cls-19" d="M347.23,452.9c-.67-.69-1.01-1.74-1.01-3.15v-3.59h6.26v1.98c0,.4.09.69.28.87.18.18.51.28.97.28h5.43v4.65h-8.6c-1.53,0-2.64-.35-3.31-1.04ZM347.23,465.3c-.67-.71-1.01-1.76-1.01-3.17v-3.59h6.26v1.98c0,.4.09.69.28.87.18.18.51.28.97.28h5.43v4.69h-8.6c-1.53,0-2.64-.35-3.31-1.06Z"/>
          <path class="cls-19" d="M367.42,467.78c-1.44-.83-2.54-1.96-3.29-3.4-.75-1.44-1.13-3.05-1.13-4.83v-15.82h6.99v15.41c0,2.98,1.58,4.46,4.74,4.46,1.29,0,2.4-.27,3.33-.81.94-.54,1.76-1.37,2.46-2.51v-16.56h6.95v24.61h-6.62v-2.76c-1.07,1.13-2.34,1.99-3.8,2.58s-2.95.87-4.48.87c-1.99,0-3.71-.41-5.15-1.24Z"/>
          <path class="cls-19" d="M379.7,439.74c-1.07-1.06-1.61-2.37-1.61-3.93s.54-2.84,1.63-3.93c1.09-1.09,2.4-1.63,3.93-1.63s2.84.54,3.91,1.63c1.07,1.09,1.61,2.4,1.61,3.93s-.54,2.88-1.61,3.93c-1.07,1.06-2.38,1.59-3.91,1.59s-2.88-.53-3.96-1.59ZM384.92,437.17c.35-.38.53-.82.53-1.31,0-.52-.18-.97-.53-1.33-.35-.37-.77-.55-1.26-.55-.52,0-.96.18-1.31.55-.35.37-.53.81-.53,1.33,0,.49.18.93.53,1.31.35.38.79.58,1.31.58.49,0,.91-.19,1.26-.58Z"/>
          <path class="cls-19" d="M399.71,453.02c0-1.59-.34-2.75-1.01-3.47-.67-.72-1.86-1.08-3.54-1.08s-3.27.41-4.92,1.24v-5.29c.74-.37,1.73-.69,2.97-.97,1.24-.28,2.45-.41,3.61-.41,3.22,0,5.67.86,7.36,2.58,1.69,1.72,2.53,4.2,2.53,7.45v15.27h-6.99v-15.32Z"/>
        </g>
        <g>
          <g>
            <path class="cls-29" d="M37.32,225.64l-2.58-4.38c4.02-5.02,9.19-7.53,15.52-7.53,4.43,0,7.84.98,10.23,2.94,2.39,1.96,3.58,4.69,3.58,8.2v17.22h-7.84v-16.6c0-3.78-1.99-5.67-5.98-5.67-1.48,0-2.79.21-3.94.62-1.15.41-2.23,1.08-3.22,2.01l2.01,3.3v16.34h-7.78v-16.45Z"/>
            <path class="cls-29" d="M77.74,224.92c0-1.79-.38-3.08-1.13-3.89-.76-.81-2.08-1.21-3.97-1.21s-3.66.46-5.52,1.39v-5.93c.82-.41,1.93-.77,3.33-1.08,1.39-.31,2.74-.46,4.05-.46,3.61,0,6.36.96,8.25,2.89,1.89,1.93,2.84,4.71,2.84,8.35v17.12h-7.84v-17.17Z"/>
            <path class="cls-29" d="M95.09,242.27c-2.08-.4-3.72-.99-4.92-1.78v-5.98c1.51.89,3.2,1.58,5.08,2.06,1.87.48,3.57.72,5.08.72,1.82,0,3.15-.18,4-.54.84-.36,1.26-1.01,1.26-1.93,0-.83-.4-1.46-1.21-1.91-.81-.45-2.31-1.01-4.51-1.7l-1.29-.41c-2.96-.93-5.14-2.04-6.55-3.35-1.41-1.31-2.11-3.09-2.11-5.36,0-2.65,1.06-4.7,3.2-6.16,2.13-1.46,5-2.19,8.61-2.19,1.96,0,3.85.21,5.67.62,1.82.41,3.28.95,4.38,1.6v6.13c-1.1-.76-2.47-1.37-4.1-1.83-1.63-.46-3.24-.7-4.82-.7-3.33,0-5,.84-5,2.53,0,.82.39,1.46,1.19,1.91.79.45,2.2.98,4.23,1.6l1.86.57c2.17.69,3.86,1.44,5.08,2.27,1.22.82,2.07,1.75,2.55,2.78.48,1.03.72,2.29.72,3.76,0,2.37-1.02,4.28-3.07,5.72-2.05,1.44-5.1,2.17-9.15,2.17-2.03,0-4.08-.2-6.16-.59Z"/>
            <path class="cls-29" d="M96.82,206.11v-3.76h7.01v2.53c0,.48.1.82.28,1.01s.54.28,1.06.28h11.75v4.95h-15.16c-3.3,0-4.95-1.67-4.95-5Z"/>
            <path class="cls-29" d="M122.75,241.47c-1.62-.93-2.84-2.2-3.69-3.81-.84-1.62-1.26-3.42-1.26-5.41v-17.73h7.84v17.27c0,3.33,1.77,5,5.31,5,1.44,0,2.69-.3,3.74-.9,1.05-.6,1.97-1.54,2.76-2.81v-18.56h7.79v27.58h-7.42v-3.09c-1.2,1.27-2.62,2.23-4.25,2.89-1.63.65-3.31.98-5.03.98-2.23,0-4.16-.46-5.77-1.39Z"/>
            <path class="cls-29" d="M153.32,239.33c-2.47-2.35-3.71-5.82-3.71-10.39,0-3.13.45-5.83,1.34-8.12.89-2.29,2.16-4.04,3.79-5.26,1.63-1.22,3.51-1.83,5.65-1.83,1.27,0,2.38.24,3.33.72.94.48,1.71,1.15,2.29,2.01.65-.93,1.55-1.61,2.71-2.06,1.15-.45,2.45-.67,3.89-.67,2.61,0,4.64.8,6.08,2.4,1.44,1.6,2.17,3.7,2.17,6.32v19.64h-7.78v-18.87c0-1.17-.18-2.03-.54-2.58-.36-.55-.97-.83-1.83-.83-1.51,0-2.46.93-2.84,2.78h-3.66c-.24-1.86-1.05-2.78-2.42-2.78-1.24,0-2.23.77-2.99,2.32-.76,1.55-1.13,3.81-1.13,6.81,0,2.68.58,4.66,1.73,5.93,1.15,1.27,2.98,1.91,5.49,1.91,1.31,0,2.47-.19,3.51-.57v5.98c-1.34.45-2.99.67-4.95.67-4.26,0-7.63-1.18-10.1-3.53Z"/>
            <path class="cls-29" d="M157.03,206.16h16.81v-5.46h7.06v10.41h-23.87v-4.95Z"/>
            <path class="cls-29" d="M186.26,220.85c0-2.03.55-3.59,1.65-4.69s2.66-1.65,4.69-1.65h5.57v6.03h-1.86c-.82,0-1.41.17-1.75.52s-.52.96-.52,1.86v8.97l5.21-7.94h2.73l5.21,7.94v-17.37h7.73v27.58h-7.01l-7.32-11.14-7.32,11.14h-7.01v-21.24Z"/>
            <path class="cls-29" d="M222.12,240.49c-1.87-1.58-2.81-3.81-2.81-6.7s1.02-5.16,3.07-6.81c2.04-1.65,4.85-2.47,8.43-2.47,3.33,0,6.19.55,8.56,1.65v-1.08c0-1.86-.61-3.23-1.83-4.12-1.22-.89-3.19-1.34-5.9-1.34-1.68,0-3.33.17-4.95.52-1.62.34-3.06.82-4.33,1.44v-5.88c1.13-.55,2.7-1.01,4.69-1.39,1.99-.38,4-.57,6.03-.57,4.61,0,8.1,1.02,10.49,3.07,2.39,2.04,3.58,4.79,3.58,8.22v17.06h-7.78v-10.26c-1.99-1.03-4.33-1.55-7.01-1.55-1.75,0-3.03.29-3.84.88-.81.58-1.21,1.5-1.21,2.73,0,1.13.37,1.98,1.11,2.55.74.57,1.92.85,3.53.85,1.13,0,2.1-.17,2.89-.52v5.41c-1.34.45-3.06.67-5.16.67-3.16,0-5.68-.79-7.55-2.37Z"/>
            <path class="cls-29" d="M255.19,239.33c-2.47-2.35-3.71-5.82-3.71-10.39,0-3.13.45-5.83,1.34-8.12.89-2.29,2.16-4.04,3.79-5.26,1.63-1.22,3.51-1.83,5.65-1.83,1.27,0,2.38.24,3.33.72.94.48,1.71,1.15,2.29,2.01.65-.93,1.55-1.61,2.71-2.06,1.15-.45,2.45-.67,3.89-.67,2.61,0,4.64.8,6.08,2.4,1.44,1.6,2.17,3.7,2.17,6.32v19.64h-7.78v-18.87c0-1.17-.18-2.03-.54-2.58-.36-.55-.97-.83-1.83-.83-1.51,0-2.46.93-2.84,2.78h-3.66c-.24-1.86-1.05-2.78-2.42-2.78-1.24,0-2.23.77-2.99,2.32-.76,1.55-1.13,3.81-1.13,6.81,0,2.68.58,4.66,1.73,5.93,1.15,1.27,2.98,1.91,5.49,1.91,1.31,0,2.47-.19,3.51-.57v5.98c-1.34.45-2.99.67-4.95.67-4.26,0-7.63-1.18-10.1-3.53Z"/>
            <path class="cls-29" d="M292.67,242.17c-2.23-.46-4.09-1.11-5.57-1.93v-14.49h13.04v5.72h-5.36v4.43c1.06.58,2.63.88,4.69.88,5.46,0,8.2-2.85,8.2-8.56,0-2.92-.79-5.05-2.37-6.39-1.58-1.34-4.25-2.01-7.99-2.01-1.72,0-3.48.18-5.28.54-1.8.36-3.33.87-4.56,1.52v-6.08c1.41-.65,3.11-1.16,5.1-1.52,1.99-.36,4.07-.54,6.24-.54,5.53,0,9.74,1.26,12.61,3.79,2.87,2.53,4.3,6.09,4.3,10.7s-1.41,8.11-4.23,10.72c-2.82,2.61-6.82,3.92-12.01,3.92-2.3,0-4.57-.23-6.81-.7Z"/>
            <path class="cls-29" d="M326.8,241.34c-2.13-1.01-3.78-2.41-4.95-4.2-1.17-1.79-1.75-3.81-1.75-6.08v-16.55h7.84v16.03c0,1.99.52,3.53,1.57,4.61,1.05,1.08,2.64,1.62,4.77,1.62s3.71-.54,4.74-1.62c1.03-1.08,1.55-2.62,1.55-4.61v-16.03h7.84v16.55c0,2.27-.58,4.3-1.75,6.08-1.17,1.79-2.82,3.19-4.95,4.2-2.13,1.01-4.61,1.52-7.42,1.52s-5.34-.51-7.48-1.52Z"/>
            <path class="cls-29" d="M355.24,240.47c-1.01-1.08-1.52-2.59-1.52-4.51v-21.45h7.84v19.33c0,.83.17,1.41.52,1.75.34.34.91.52,1.7.52h1.8v5.98h-5.98c-1.89,0-3.34-.54-4.36-1.62ZM369.72,240.47c-1.01-1.08-1.52-2.59-1.52-4.51v-21.45h7.78v19.33c0,.83.17,1.41.52,1.75.34.34.93.52,1.75.52h1.8v5.98h-5.98c-1.89,0-3.34-.54-4.36-1.62Z"/>
            <path class="cls-29" d="M384.29,214.51h7.48v3.15c1.24-1.24,2.7-2.2,4.38-2.89,1.68-.69,3.37-1.03,5.05-1.03,3.47,0,6.09.94,7.86,2.81,1.77,1.87,2.66,4.34,2.66,7.4v18.15h-7.79v-17.48c0-3.2-1.68-4.79-5.05-4.79-1.41,0-2.69.31-3.84.93-1.15.62-2.12,1.56-2.91,2.84v18.51h-7.84v-27.58Z"/>
            <path class="cls-29" d="M422.08,241.47c-1.62-.93-2.84-2.2-3.69-3.81-.84-1.62-1.26-3.42-1.26-5.41v-17.73h7.84v17.27c0,3.33,1.77,5,5.31,5,1.44,0,2.69-.3,3.74-.9,1.05-.6,1.97-1.54,2.76-2.81v-18.56h7.79v27.58h-7.42v-3.09c-1.2,1.27-2.62,2.23-4.25,2.89-1.63.65-3.31.98-5.03.98-2.23,0-4.16-.46-5.77-1.39Z"/>
            <path class="cls-29" d="M451.75,240.49c-1.87-1.58-2.81-3.81-2.81-6.7s1.02-5.16,3.07-6.81c2.04-1.65,4.85-2.47,8.43-2.47,3.33,0,6.19.55,8.56,1.65v-1.08c0-1.86-.61-3.23-1.83-4.12-1.22-.89-3.19-1.34-5.9-1.34-1.68,0-3.33.17-4.95.52-1.62.34-3.06.82-4.33,1.44v-5.88c1.13-.55,2.7-1.01,4.69-1.39,1.99-.38,4-.57,6.03-.57,2.3,0,4.45.34,6.44,1.03l2.01-2.32h8.51l-5.1,5.93c1.48,1.68,2.22,3.9,2.22,6.65v17.06h-7.78v-10.26c-1.99-1.03-4.33-1.55-7.01-1.55-1.75,0-3.03.29-3.84.88-.81.58-1.21,1.5-1.21,2.73,0,1.13.37,1.98,1.11,2.55.74.57,1.92.85,3.53.85,1.13,0,2.1-.17,2.89-.52v5.41c-1.34.45-3.06.67-5.16.67-3.16,0-5.68-.79-7.55-2.37Z"/>
            <path class="cls-29" d="M464.07,255.03c-1.39-1-2.09-2.32-2.09-3.97v-.93c0-.45-.08-.76-.23-.93-.15-.17-.44-.26-.85-.26h-1.7v-4.43h5.83c1.03,0,1.74.23,2.14.7.4.46.59,1.19.59,2.19v2.84c0,1.24.65,1.86,1.96,1.86s1.91-.62,1.91-1.86v-5.72h5.77v6.34c0,1.65-.64,3.01-1.93,4.07-1.29,1.06-3.12,1.6-5.49,1.6-2.54,0-4.51-.5-5.9-1.5Z"/>
            <path class="cls-29" d="M481.83,217.96h7.78l5.88,18.3c2.54,0,4.5-.76,5.88-2.29,1.37-1.53,2.06-3.7,2.06-6.52,0-2.54-.48-4.45-1.44-5.72-.96-1.27-2.44-1.91-4.43-1.91-1.1,0-2.2.17-3.3.52v-5.88c1.44-.48,3.08-.72,4.9-.72,4.09,0,7.16,1.19,9.2,3.58,2.04,2.39,3.07,5.77,3.07,10.13,0,3.06-.67,5.69-2.01,7.89-1.34,2.2-3.15,3.88-5.44,5.03-2.29,1.15-4.79,1.73-7.5,1.73h-6.91l-7.73-24.13Z"/>
          </g>
          <g>
            <path class="cls-5" d="M37.32,225.64l-2.58-4.38c4.02-5.02,9.19-7.53,15.52-7.53,4.43,0,7.84.98,10.23,2.94,2.39,1.96,3.58,4.69,3.58,8.2v17.22h-7.84v-16.6c0-3.78-1.99-5.67-5.98-5.67-1.48,0-2.79.21-3.94.62-1.15.41-2.23,1.08-3.22,2.01l2.01,3.3v16.34h-7.78v-16.45Z"/>
            <path class="cls-5" d="M77.74,224.92c0-1.79-.38-3.08-1.13-3.89-.76-.81-2.08-1.21-3.97-1.21s-3.66.46-5.52,1.39v-5.93c.82-.41,1.93-.77,3.33-1.08,1.39-.31,2.74-.46,4.05-.46,3.61,0,6.36.96,8.25,2.89,1.89,1.93,2.84,4.71,2.84,8.35v17.12h-7.84v-17.17Z"/>
            <path class="cls-5" d="M95.09,242.27c-2.08-.4-3.72-.99-4.92-1.78v-5.98c1.51.89,3.2,1.58,5.08,2.06,1.87.48,3.57.72,5.08.72,1.82,0,3.15-.18,4-.54.84-.36,1.26-1.01,1.26-1.93,0-.83-.4-1.46-1.21-1.91-.81-.45-2.31-1.01-4.51-1.7l-1.29-.41c-2.96-.93-5.14-2.04-6.55-3.35-1.41-1.31-2.11-3.09-2.11-5.36,0-2.65,1.06-4.7,3.2-6.16,2.13-1.46,5-2.19,8.61-2.19,1.96,0,3.85.21,5.67.62,1.82.41,3.28.95,4.38,1.6v6.13c-1.1-.76-2.47-1.37-4.1-1.83-1.63-.46-3.24-.7-4.82-.7-3.33,0-5,.84-5,2.53,0,.82.39,1.46,1.19,1.91.79.45,2.2.98,4.23,1.6l1.86.57c2.17.69,3.86,1.44,5.08,2.27,1.22.82,2.07,1.75,2.55,2.78.48,1.03.72,2.29.72,3.76,0,2.37-1.02,4.28-3.07,5.72-2.05,1.44-5.1,2.17-9.15,2.17-2.03,0-4.08-.2-6.16-.59Z"/>
            <path class="cls-5" d="M96.82,206.11v-3.76h7.01v2.53c0,.48.1.82.28,1.01s.54.28,1.06.28h11.75v4.95h-15.16c-3.3,0-4.95-1.67-4.95-5Z"/>
            <path class="cls-5" d="M122.75,241.47c-1.62-.93-2.84-2.2-3.69-3.81-.84-1.62-1.26-3.42-1.26-5.41v-17.73h7.84v17.27c0,3.33,1.77,5,5.31,5,1.44,0,2.69-.3,3.74-.9,1.05-.6,1.97-1.54,2.76-2.81v-18.56h7.79v27.58h-7.42v-3.09c-1.2,1.27-2.62,2.23-4.25,2.89-1.63.65-3.31.98-5.03.98-2.23,0-4.16-.46-5.77-1.39Z"/>
            <path class="cls-5" d="M153.32,239.33c-2.47-2.35-3.71-5.82-3.71-10.39,0-3.13.45-5.83,1.34-8.12.89-2.29,2.16-4.04,3.79-5.26,1.63-1.22,3.51-1.83,5.65-1.83,1.27,0,2.38.24,3.33.72.94.48,1.71,1.15,2.29,2.01.65-.93,1.55-1.61,2.71-2.06,1.15-.45,2.45-.67,3.89-.67,2.61,0,4.64.8,6.08,2.4,1.44,1.6,2.17,3.7,2.17,6.32v19.64h-7.78v-18.87c0-1.17-.18-2.03-.54-2.58-.36-.55-.97-.83-1.83-.83-1.51,0-2.46.93-2.84,2.78h-3.66c-.24-1.86-1.05-2.78-2.42-2.78-1.24,0-2.23.77-2.99,2.32-.76,1.55-1.13,3.81-1.13,6.81,0,2.68.58,4.66,1.73,5.93,1.15,1.27,2.98,1.91,5.49,1.91,1.31,0,2.47-.19,3.51-.57v5.98c-1.34.45-2.99.67-4.95.67-4.26,0-7.63-1.18-10.1-3.53Z"/>
            <path class="cls-5" d="M157.03,206.16h16.81v-5.46h7.06v10.41h-23.87v-4.95Z"/>
            <path class="cls-5" d="M186.26,220.85c0-2.03.55-3.59,1.65-4.69s2.66-1.65,4.69-1.65h5.57v6.03h-1.86c-.82,0-1.41.17-1.75.52s-.52.96-.52,1.86v8.97l5.21-7.94h2.73l5.21,7.94v-17.37h7.73v27.58h-7.01l-7.32-11.14-7.32,11.14h-7.01v-21.24Z"/>
            <path class="cls-5" d="M222.12,240.49c-1.87-1.58-2.81-3.81-2.81-6.7s1.02-5.16,3.07-6.81c2.04-1.65,4.85-2.47,8.43-2.47,3.33,0,6.19.55,8.56,1.65v-1.08c0-1.86-.61-3.23-1.83-4.12-1.22-.89-3.19-1.34-5.9-1.34-1.68,0-3.33.17-4.95.52-1.62.34-3.06.82-4.33,1.44v-5.88c1.13-.55,2.7-1.01,4.69-1.39,1.99-.38,4-.57,6.03-.57,4.61,0,8.1,1.02,10.49,3.07,2.39,2.04,3.58,4.79,3.58,8.22v17.06h-7.78v-10.26c-1.99-1.03-4.33-1.55-7.01-1.55-1.75,0-3.03.29-3.84.88-.81.58-1.21,1.5-1.21,2.73,0,1.13.37,1.98,1.11,2.55.74.57,1.92.85,3.53.85,1.13,0,2.1-.17,2.89-.52v5.41c-1.34.45-3.06.67-5.16.67-3.16,0-5.68-.79-7.55-2.37Z"/>
            <path class="cls-5" d="M255.19,239.33c-2.47-2.35-3.71-5.82-3.71-10.39,0-3.13.45-5.83,1.34-8.12.89-2.29,2.16-4.04,3.79-5.26,1.63-1.22,3.51-1.83,5.65-1.83,1.27,0,2.38.24,3.33.72.94.48,1.71,1.15,2.29,2.01.65-.93,1.55-1.61,2.71-2.06,1.15-.45,2.45-.67,3.89-.67,2.61,0,4.64.8,6.08,2.4,1.44,1.6,2.17,3.7,2.17,6.32v19.64h-7.78v-18.87c0-1.17-.18-2.03-.54-2.58-.36-.55-.97-.83-1.83-.83-1.51,0-2.46.93-2.84,2.78h-3.66c-.24-1.86-1.05-2.78-2.42-2.78-1.24,0-2.23.77-2.99,2.32-.76,1.55-1.13,3.81-1.13,6.81,0,2.68.58,4.66,1.73,5.93,1.15,1.27,2.98,1.91,5.49,1.91,1.31,0,2.47-.19,3.51-.57v5.98c-1.34.45-2.99.67-4.95.67-4.26,0-7.63-1.18-10.1-3.53Z"/>
            <path class="cls-5" d="M292.67,242.17c-2.23-.46-4.09-1.11-5.57-1.93v-14.49h13.04v5.72h-5.36v4.43c1.06.58,2.63.88,4.69.88,5.46,0,8.2-2.85,8.2-8.56,0-2.92-.79-5.05-2.37-6.39-1.58-1.34-4.25-2.01-7.99-2.01-1.72,0-3.48.18-5.28.54-1.8.36-3.33.87-4.56,1.52v-6.08c1.41-.65,3.11-1.16,5.1-1.52,1.99-.36,4.07-.54,6.24-.54,5.53,0,9.74,1.26,12.61,3.79,2.87,2.53,4.3,6.09,4.3,10.7s-1.41,8.11-4.23,10.72c-2.82,2.61-6.82,3.92-12.01,3.92-2.3,0-4.57-.23-6.81-.7Z"/>
            <path class="cls-5" d="M326.8,241.34c-2.13-1.01-3.78-2.41-4.95-4.2-1.17-1.79-1.75-3.81-1.75-6.08v-16.55h7.84v16.03c0,1.99.52,3.53,1.57,4.61,1.05,1.08,2.64,1.62,4.77,1.62s3.71-.54,4.74-1.62c1.03-1.08,1.55-2.62,1.55-4.61v-16.03h7.84v16.55c0,2.27-.58,4.3-1.75,6.08-1.17,1.79-2.82,3.19-4.95,4.2-2.13,1.01-4.61,1.52-7.42,1.52s-5.34-.51-7.48-1.52Z"/>
            <path class="cls-5" d="M355.24,240.47c-1.01-1.08-1.52-2.59-1.52-4.51v-21.45h7.84v19.33c0,.83.17,1.41.52,1.75.34.34.91.52,1.7.52h1.8v5.98h-5.98c-1.89,0-3.34-.54-4.36-1.62ZM369.72,240.47c-1.01-1.08-1.52-2.59-1.52-4.51v-21.45h7.78v19.33c0,.83.17,1.41.52,1.75.34.34.93.52,1.75.52h1.8v5.98h-5.98c-1.89,0-3.34-.54-4.36-1.62Z"/>
            <path class="cls-5" d="M384.29,214.51h7.48v3.15c1.24-1.24,2.7-2.2,4.38-2.89,1.68-.69,3.37-1.03,5.05-1.03,3.47,0,6.09.94,7.86,2.81,1.77,1.87,2.66,4.34,2.66,7.4v18.15h-7.79v-17.48c0-3.2-1.68-4.79-5.05-4.79-1.41,0-2.69.31-3.84.93-1.15.62-2.12,1.56-2.91,2.84v18.51h-7.84v-27.58Z"/>
            <path class="cls-5" d="M422.08,241.47c-1.62-.93-2.84-2.2-3.69-3.81-.84-1.62-1.26-3.42-1.26-5.41v-17.73h7.84v17.27c0,3.33,1.77,5,5.31,5,1.44,0,2.69-.3,3.74-.9,1.05-.6,1.97-1.54,2.76-2.81v-18.56h7.79v27.58h-7.42v-3.09c-1.2,1.27-2.62,2.23-4.25,2.89-1.63.65-3.31.98-5.03.98-2.23,0-4.16-.46-5.77-1.39Z"/>
            <path class="cls-5" d="M451.75,240.49c-1.87-1.58-2.81-3.81-2.81-6.7s1.02-5.16,3.07-6.81c2.04-1.65,4.85-2.47,8.43-2.47,3.33,0,6.19.55,8.56,1.65v-1.08c0-1.86-.61-3.23-1.83-4.12-1.22-.89-3.19-1.34-5.9-1.34-1.68,0-3.33.17-4.95.52-1.62.34-3.06.82-4.33,1.44v-5.88c1.13-.55,2.7-1.01,4.69-1.39,1.99-.38,4-.57,6.03-.57,2.3,0,4.45.34,6.44,1.03l2.01-2.32h8.51l-5.1,5.93c1.48,1.68,2.22,3.9,2.22,6.65v17.06h-7.78v-10.26c-1.99-1.03-4.33-1.55-7.01-1.55-1.75,0-3.03.29-3.84.88-.81.58-1.21,1.5-1.21,2.73,0,1.13.37,1.98,1.11,2.55.74.57,1.92.85,3.53.85,1.13,0,2.1-.17,2.89-.52v5.41c-1.34.45-3.06.67-5.16.67-3.16,0-5.68-.79-7.55-2.37Z"/>
            <path class="cls-5" d="M464.07,255.03c-1.39-1-2.09-2.32-2.09-3.97v-.93c0-.45-.08-.76-.23-.93-.15-.17-.44-.26-.85-.26h-1.7v-4.43h5.83c1.03,0,1.74.23,2.14.7.4.46.59,1.19.59,2.19v2.84c0,1.24.65,1.86,1.96,1.86s1.91-.62,1.91-1.86v-5.72h5.77v6.34c0,1.65-.64,3.01-1.93,4.07-1.29,1.06-3.12,1.6-5.49,1.6-2.54,0-4.51-.5-5.9-1.5Z"/>
            <path class="cls-5" d="M481.83,217.96h7.78l5.88,18.3c2.54,0,4.5-.76,5.88-2.29,1.37-1.53,2.06-3.7,2.06-6.52,0-2.54-.48-4.45-1.44-5.72-.96-1.27-2.44-1.91-4.43-1.91-1.1,0-2.2.17-3.3.52v-5.88c1.44-.48,3.08-.72,4.9-.72,4.09,0,7.16,1.19,9.2,3.58,2.04,2.39,3.07,5.77,3.07,10.13,0,3.06-.67,5.69-2.01,7.89-1.34,2.2-3.15,3.88-5.44,5.03-2.29,1.15-4.79,1.73-7.5,1.73h-6.91l-7.73-24.13Z"/>
          </g>
          <g>
            <path class="cls-30" d="M37.32,225.64l-2.58-4.38c4.02-5.02,9.19-7.53,15.52-7.53,4.43,0,7.84.98,10.23,2.94,2.39,1.96,3.58,4.69,3.58,8.2v17.22h-7.84v-16.6c0-3.78-1.99-5.67-5.98-5.67-1.48,0-2.79.21-3.94.62-1.15.41-2.23,1.08-3.22,2.01l2.01,3.3v16.34h-7.78v-16.45Z"/>
            <path class="cls-30" d="M77.74,224.92c0-1.79-.38-3.08-1.13-3.89-.76-.81-2.08-1.21-3.97-1.21s-3.66.46-5.52,1.39v-5.93c.82-.41,1.93-.77,3.33-1.08,1.39-.31,2.74-.46,4.05-.46,3.61,0,6.36.96,8.25,2.89,1.89,1.93,2.84,4.71,2.84,8.35v17.12h-7.84v-17.17Z"/>
            <path class="cls-30" d="M95.09,242.27c-2.08-.4-3.72-.99-4.92-1.78v-5.98c1.51.89,3.2,1.58,5.08,2.06,1.87.48,3.57.72,5.08.72,1.82,0,3.15-.18,4-.54.84-.36,1.26-1.01,1.26-1.93,0-.83-.4-1.46-1.21-1.91-.81-.45-2.31-1.01-4.51-1.7l-1.29-.41c-2.96-.93-5.14-2.04-6.55-3.35-1.41-1.31-2.11-3.09-2.11-5.36,0-2.65,1.06-4.7,3.2-6.16,2.13-1.46,5-2.19,8.61-2.19,1.96,0,3.85.21,5.67.62,1.82.41,3.28.95,4.38,1.6v6.13c-1.1-.76-2.47-1.37-4.1-1.83-1.63-.46-3.24-.7-4.82-.7-3.33,0-5,.84-5,2.53,0,.82.39,1.46,1.19,1.91.79.45,2.2.98,4.23,1.6l1.86.57c2.17.69,3.86,1.44,5.08,2.27,1.22.82,2.07,1.75,2.55,2.78.48,1.03.72,2.29.72,3.76,0,2.37-1.02,4.28-3.07,5.72-2.05,1.44-5.1,2.17-9.15,2.17-2.03,0-4.08-.2-6.16-.59Z"/>
            <path class="cls-30" d="M96.82,206.11v-3.76h7.01v2.53c0,.48.1.82.28,1.01s.54.28,1.06.28h11.75v4.95h-15.16c-3.3,0-4.95-1.67-4.95-5Z"/>
            <path class="cls-30" d="M122.75,241.47c-1.62-.93-2.84-2.2-3.69-3.81-.84-1.62-1.26-3.42-1.26-5.41v-17.73h7.84v17.27c0,3.33,1.77,5,5.31,5,1.44,0,2.69-.3,3.74-.9,1.05-.6,1.97-1.54,2.76-2.81v-18.56h7.79v27.58h-7.42v-3.09c-1.2,1.27-2.62,2.23-4.25,2.89-1.63.65-3.31.98-5.03.98-2.23,0-4.16-.46-5.77-1.39Z"/>
            <path class="cls-30" d="M153.32,239.33c-2.47-2.35-3.71-5.82-3.71-10.39,0-3.13.45-5.83,1.34-8.12.89-2.29,2.16-4.04,3.79-5.26,1.63-1.22,3.51-1.83,5.65-1.83,1.27,0,2.38.24,3.33.72.94.48,1.71,1.15,2.29,2.01.65-.93,1.55-1.61,2.71-2.06,1.15-.45,2.45-.67,3.89-.67,2.61,0,4.64.8,6.08,2.4,1.44,1.6,2.17,3.7,2.17,6.32v19.64h-7.78v-18.87c0-1.17-.18-2.03-.54-2.58-.36-.55-.97-.83-1.83-.83-1.51,0-2.46.93-2.84,2.78h-3.66c-.24-1.86-1.05-2.78-2.42-2.78-1.24,0-2.23.77-2.99,2.32-.76,1.55-1.13,3.81-1.13,6.81,0,2.68.58,4.66,1.73,5.93,1.15,1.27,2.98,1.91,5.49,1.91,1.31,0,2.47-.19,3.51-.57v5.98c-1.34.45-2.99.67-4.95.67-4.26,0-7.63-1.18-10.1-3.53Z"/>
            <path class="cls-30" d="M157.03,206.16h16.81v-5.46h7.06v10.41h-23.87v-4.95Z"/>
            <path class="cls-30" d="M186.26,220.85c0-2.03.55-3.59,1.65-4.69s2.66-1.65,4.69-1.65h5.57v6.03h-1.86c-.82,0-1.41.17-1.75.52s-.52.96-.52,1.86v8.97l5.21-7.94h2.73l5.21,7.94v-17.37h7.73v27.58h-7.01l-7.32-11.14-7.32,11.14h-7.01v-21.24Z"/>
            <path class="cls-30" d="M222.12,240.49c-1.87-1.58-2.81-3.81-2.81-6.7s1.02-5.16,3.07-6.81c2.04-1.65,4.85-2.47,8.43-2.47,3.33,0,6.19.55,8.56,1.65v-1.08c0-1.86-.61-3.23-1.83-4.12-1.22-.89-3.19-1.34-5.9-1.34-1.68,0-3.33.17-4.95.52-1.62.34-3.06.82-4.33,1.44v-5.88c1.13-.55,2.7-1.01,4.69-1.39,1.99-.38,4-.57,6.03-.57,4.61,0,8.1,1.02,10.49,3.07,2.39,2.04,3.58,4.79,3.58,8.22v17.06h-7.78v-10.26c-1.99-1.03-4.33-1.55-7.01-1.55-1.75,0-3.03.29-3.84.88-.81.58-1.21,1.5-1.21,2.73,0,1.13.37,1.98,1.11,2.55.74.57,1.92.85,3.53.85,1.13,0,2.1-.17,2.89-.52v5.41c-1.34.45-3.06.67-5.16.67-3.16,0-5.68-.79-7.55-2.37Z"/>
            <path class="cls-30" d="M255.19,239.33c-2.47-2.35-3.71-5.82-3.71-10.39,0-3.13.45-5.83,1.34-8.12.89-2.29,2.16-4.04,3.79-5.26,1.63-1.22,3.51-1.83,5.65-1.83,1.27,0,2.38.24,3.33.72.94.48,1.71,1.15,2.29,2.01.65-.93,1.55-1.61,2.71-2.06,1.15-.45,2.45-.67,3.89-.67,2.61,0,4.64.8,6.08,2.4,1.44,1.6,2.17,3.7,2.17,6.32v19.64h-7.78v-18.87c0-1.17-.18-2.03-.54-2.58-.36-.55-.97-.83-1.83-.83-1.51,0-2.46.93-2.84,2.78h-3.66c-.24-1.86-1.05-2.78-2.42-2.78-1.24,0-2.23.77-2.99,2.32-.76,1.55-1.13,3.81-1.13,6.81,0,2.68.58,4.66,1.73,5.93,1.15,1.27,2.98,1.91,5.49,1.91,1.31,0,2.47-.19,3.51-.57v5.98c-1.34.45-2.99.67-4.95.67-4.26,0-7.63-1.18-10.1-3.53Z"/>
            <path class="cls-30" d="M292.67,242.17c-2.23-.46-4.09-1.11-5.57-1.93v-14.49h13.04v5.72h-5.36v4.43c1.06.58,2.63.88,4.69.88,5.46,0,8.2-2.85,8.2-8.56,0-2.92-.79-5.05-2.37-6.39-1.58-1.34-4.25-2.01-7.99-2.01-1.72,0-3.48.18-5.28.54-1.8.36-3.33.87-4.56,1.52v-6.08c1.41-.65,3.11-1.16,5.1-1.52,1.99-.36,4.07-.54,6.24-.54,5.53,0,9.74,1.26,12.61,3.79,2.87,2.53,4.3,6.09,4.3,10.7s-1.41,8.11-4.23,10.72c-2.82,2.61-6.82,3.92-12.01,3.92-2.3,0-4.57-.23-6.81-.7Z"/>
            <path class="cls-30" d="M326.8,241.34c-2.13-1.01-3.78-2.41-4.95-4.2-1.17-1.79-1.75-3.81-1.75-6.08v-16.55h7.84v16.03c0,1.99.52,3.53,1.57,4.61,1.05,1.08,2.64,1.62,4.77,1.62s3.71-.54,4.74-1.62c1.03-1.08,1.55-2.62,1.55-4.61v-16.03h7.84v16.55c0,2.27-.58,4.3-1.75,6.08-1.17,1.79-2.82,3.19-4.95,4.2-2.13,1.01-4.61,1.52-7.42,1.52s-5.34-.51-7.48-1.52Z"/>
            <path class="cls-30" d="M355.24,240.47c-1.01-1.08-1.52-2.59-1.52-4.51v-21.45h7.84v19.33c0,.83.17,1.41.52,1.75.34.34.91.52,1.7.52h1.8v5.98h-5.98c-1.89,0-3.34-.54-4.36-1.62ZM369.72,240.47c-1.01-1.08-1.52-2.59-1.52-4.51v-21.45h7.78v19.33c0,.83.17,1.41.52,1.75.34.34.93.52,1.75.52h1.8v5.98h-5.98c-1.89,0-3.34-.54-4.36-1.62Z"/>
            <path class="cls-30" d="M384.29,214.51h7.48v3.15c1.24-1.24,2.7-2.2,4.38-2.89,1.68-.69,3.37-1.03,5.05-1.03,3.47,0,6.09.94,7.86,2.81,1.77,1.87,2.66,4.34,2.66,7.4v18.15h-7.79v-17.48c0-3.2-1.68-4.79-5.05-4.79-1.41,0-2.69.31-3.84.93-1.15.62-2.12,1.56-2.91,2.84v18.51h-7.84v-27.58Z"/>
            <path class="cls-30" d="M422.08,241.47c-1.62-.93-2.84-2.2-3.69-3.81-.84-1.62-1.26-3.42-1.26-5.41v-17.73h7.84v17.27c0,3.33,1.77,5,5.31,5,1.44,0,2.69-.3,3.74-.9,1.05-.6,1.97-1.54,2.76-2.81v-18.56h7.79v27.58h-7.42v-3.09c-1.2,1.27-2.62,2.23-4.25,2.89-1.63.65-3.31.98-5.03.98-2.23,0-4.16-.46-5.77-1.39Z"/>
            <path class="cls-30" d="M451.75,240.49c-1.87-1.58-2.81-3.81-2.81-6.7s1.02-5.16,3.07-6.81c2.04-1.65,4.85-2.47,8.43-2.47,3.33,0,6.19.55,8.56,1.65v-1.08c0-1.86-.61-3.23-1.83-4.12-1.22-.89-3.19-1.34-5.9-1.34-1.68,0-3.33.17-4.95.52-1.62.34-3.06.82-4.33,1.44v-5.88c1.13-.55,2.7-1.01,4.69-1.39,1.99-.38,4-.57,6.03-.57,2.3,0,4.45.34,6.44,1.03l2.01-2.32h8.51l-5.1,5.93c1.48,1.68,2.22,3.9,2.22,6.65v17.06h-7.78v-10.26c-1.99-1.03-4.33-1.55-7.01-1.55-1.75,0-3.03.29-3.84.88-.81.58-1.21,1.5-1.21,2.73,0,1.13.37,1.98,1.11,2.55.74.57,1.92.85,3.53.85,1.13,0,2.1-.17,2.89-.52v5.41c-1.34.45-3.06.67-5.16.67-3.16,0-5.68-.79-7.55-2.37Z"/>
            <path class="cls-30" d="M464.07,255.03c-1.39-1-2.09-2.32-2.09-3.97v-.93c0-.45-.08-.76-.23-.93-.15-.17-.44-.26-.85-.26h-1.7v-4.43h5.83c1.03,0,1.74.23,2.14.7.4.46.59,1.19.59,2.19v2.84c0,1.24.65,1.86,1.96,1.86s1.91-.62,1.91-1.86v-5.72h5.77v6.34c0,1.65-.64,3.01-1.93,4.07-1.29,1.06-3.12,1.6-5.49,1.6-2.54,0-4.51-.5-5.9-1.5Z"/>
            <path class="cls-30" d="M481.83,217.96h7.78l5.88,18.3c2.54,0,4.5-.76,5.88-2.29,1.37-1.53,2.06-3.7,2.06-6.52,0-2.54-.48-4.45-1.44-5.72-.96-1.27-2.44-1.91-4.43-1.91-1.1,0-2.2.17-3.3.52v-5.88c1.44-.48,3.08-.72,4.9-.72,4.09,0,7.16,1.19,9.2,3.58,2.04,2.39,3.07,5.77,3.07,10.13,0,3.06-.67,5.69-2.01,7.89-1.34,2.2-3.15,3.88-5.44,5.03-2.29,1.15-4.79,1.73-7.5,1.73h-6.91l-7.73-24.13Z"/>
          </g>
        </g>
        <g>
          <g>
            <path class="cls-29" d="M44.09,166.86c-3.05-2.58-4.58-6.22-4.58-10.92s1.67-8.4,5-11.09c3.33-2.69,7.91-4.03,13.74-4.03,5.43,0,10.08.9,13.95,2.69v-1.76c0-3.02-1-5.26-2.98-6.72-1.99-1.46-5.2-2.18-9.62-2.18-2.75,0-5.43.28-8.07.84-2.63.56-4.99,1.34-7.06,2.35v-9.58c1.85-.9,4.4-1.65,7.65-2.27,3.25-.62,6.52-.92,9.83-.92,7.51,0,13.2,1.67,17.1,5,3.89,3.33,5.84,7.8,5.84,13.4v27.81h-12.69v-16.72c-3.25-1.68-7.06-2.52-11.43-2.52-2.86,0-4.94.48-6.26,1.43-1.32.95-1.97,2.44-1.97,4.45,0,1.85.6,3.23,1.81,4.16,1.2.92,3.12,1.39,5.76,1.39,1.85,0,3.42-.28,4.71-.84v8.82c-2.18.73-4.99,1.09-8.4,1.09-5.15,0-9.26-1.29-12.31-3.86Z"/>
            <path class="cls-29" d="M91.94,130.14h12.69l9.58,29.83c4.14,0,7.34-1.25,9.58-3.74,2.24-2.49,3.36-6.04,3.36-10.63,0-4.14-.79-7.25-2.35-9.33-1.57-2.07-3.98-3.11-7.23-3.11-1.79,0-3.59.28-5.38.84v-9.58c2.35-.78,5.01-1.18,7.98-1.18,6.67,0,11.66,1.95,15,5.84,3.33,3.89,5,9.4,5,16.51,0,4.99-1.09,9.27-3.28,12.86-2.18,3.59-5.14,6.32-8.86,8.19-3.73,1.88-7.8,2.81-12.23,2.81h-11.26l-12.6-39.32Z"/>
            <path class="cls-29" d="M147.31,124.51h12.18v5.13c2.02-2.02,4.4-3.58,7.14-4.71,2.74-1.12,5.49-1.68,8.23-1.68,5.66,0,9.93,1.53,12.81,4.58,2.88,3.05,4.33,7.07,4.33,12.06v29.58h-12.69v-28.48c0-5.21-2.75-7.81-8.23-7.81-2.3,0-4.38.5-6.26,1.51-1.88,1.01-3.46,2.55-4.75,4.62v30.16h-12.77v-44.95Z"/>
            <path class="cls-29" d="M181,184.25c0-1.01-.2-1.72-.59-2.14-.39-.42-1.09-.63-2.1-.63h-2.77v-8.07h8.82c3.02,0,5.11.62,6.26,1.85,1.15,1.23,1.72,3.36,1.72,6.39v10.84h-11.34v-8.23Z"/>
            <path class="cls-29" d="M208.9,168.46c-2.63-1.51-4.64-3.58-6.01-6.22-1.37-2.63-2.06-5.57-2.06-8.82v-28.9h12.77v28.15c0,5.43,2.88,8.15,8.65,8.15,2.35,0,4.38-.49,6.09-1.47,1.71-.98,3.21-2.51,4.5-4.58v-30.25h12.69v44.95h-12.1v-5.04c-1.96,2.07-4.27,3.64-6.93,4.71-2.66,1.06-5.39,1.6-8.19,1.6-3.64,0-6.78-.76-9.41-2.27Z"/>
            <path class="cls-29" d="M252.67,130.14h12.69l9.58,29.83c4.14,0,7.34-1.25,9.58-3.74,2.24-2.49,3.36-6.04,3.36-10.63,0-4.14-.79-7.25-2.35-9.33-1.57-2.07-3.98-3.11-7.23-3.11-1.79,0-3.59.28-5.38.84v-9.58c2.35-.78,5.01-1.18,7.98-1.18,6.67,0,11.66,1.95,15,5.84,3.33,3.89,5,9.4,5,16.51,0,4.99-1.09,9.27-3.28,12.86-2.18,3.59-5.14,6.32-8.86,8.19-3.73,1.88-7.8,2.81-12.23,2.81h-11.26l-12.6-39.32Z"/>
            <path class="cls-29" d="M286.53,104.01h12.77v14.96h-12.77v-14.96Z"/>
            <path class="cls-29" d="M321.57,141.49c0-2.91-.62-5.03-1.85-6.34-1.23-1.32-3.39-1.97-6.47-1.97s-5.97.76-8.99,2.27v-9.66c1.34-.67,3.15-1.26,5.42-1.76,2.27-.5,4.47-.76,6.6-.76,5.88,0,10.36,1.57,13.44,4.71,3.08,3.14,4.62,7.67,4.62,13.61v27.9h-12.77v-27.98Z"/>
            <path class="cls-29" d="M347.7,166.9c-4.2-2.55-6.3-6.2-6.3-10.96,0-2.18.6-4.16,1.81-5.92,1.2-1.76,2.81-3.04,4.83-3.82-1.85-.95-3.35-2.32-4.5-4.12-1.15-1.79-1.72-3.75-1.72-5.88,0-3.92,1.39-7.06,4.16-9.41,2.77-2.35,6.79-3.53,12.06-3.53,1.62,0,3.23.11,4.83.34,1.6.22,2.81.48,3.65.76v9.58c-.79-.34-1.72-.62-2.81-.84-1.09-.22-2.09-.34-2.98-.34-3.92,0-5.88,1.46-5.88,4.37,0,1.51.49,2.65,1.47,3.4.98.76,2.51,1.13,4.58,1.13h5.63v8.99h-5.63c-4.26,0-6.39,1.68-6.39,5.04,0,1.79.85,3.18,2.56,4.16,1.71.98,4.19,1.47,7.44,1.47,3.92,0,6.79-.8,8.61-2.4,1.82-1.6,2.73-3.99,2.73-7.18v-27.31h12.77v27.22c0,3.19-.81,6.23-2.44,9.12-1.63,2.89-4.23,5.27-7.81,7.14-3.59,1.88-8.21,2.81-13.86,2.81-7,0-12.6-1.27-16.8-3.82Z"/>
          </g>
          <g>
            <path class="cls-5" d="M44.09,166.86c-3.05-2.58-4.58-6.22-4.58-10.92s1.67-8.4,5-11.09c3.33-2.69,7.91-4.03,13.74-4.03,5.43,0,10.08.9,13.95,2.69v-1.76c0-3.02-1-5.26-2.98-6.72-1.99-1.46-5.2-2.18-9.62-2.18-2.75,0-5.43.28-8.07.84-2.63.56-4.99,1.34-7.06,2.35v-9.58c1.85-.9,4.4-1.65,7.65-2.27,3.25-.62,6.52-.92,9.83-.92,7.51,0,13.2,1.67,17.1,5,3.89,3.33,5.84,7.8,5.84,13.4v27.81h-12.69v-16.72c-3.25-1.68-7.06-2.52-11.43-2.52-2.86,0-4.94.48-6.26,1.43-1.32.95-1.97,2.44-1.97,4.45,0,1.85.6,3.23,1.81,4.16,1.2.92,3.12,1.39,5.76,1.39,1.85,0,3.42-.28,4.71-.84v8.82c-2.18.73-4.99,1.09-8.4,1.09-5.15,0-9.26-1.29-12.31-3.86Z"/>
            <path class="cls-5" d="M91.94,130.14h12.69l9.58,29.83c4.14,0,7.34-1.25,9.58-3.74,2.24-2.49,3.36-6.04,3.36-10.63,0-4.14-.79-7.25-2.35-9.33-1.57-2.07-3.98-3.11-7.23-3.11-1.79,0-3.59.28-5.38.84v-9.58c2.35-.78,5.01-1.18,7.98-1.18,6.67,0,11.66,1.95,15,5.84,3.33,3.89,5,9.4,5,16.51,0,4.99-1.09,9.27-3.28,12.86-2.18,3.59-5.14,6.32-8.86,8.19-3.73,1.88-7.8,2.81-12.23,2.81h-11.26l-12.6-39.32Z"/>
            <path class="cls-5" d="M147.31,124.51h12.18v5.13c2.02-2.02,4.4-3.58,7.14-4.71,2.74-1.12,5.49-1.68,8.23-1.68,5.66,0,9.93,1.53,12.81,4.58,2.88,3.05,4.33,7.07,4.33,12.06v29.58h-12.69v-28.48c0-5.21-2.75-7.81-8.23-7.81-2.3,0-4.38.5-6.26,1.51-1.88,1.01-3.46,2.55-4.75,4.62v30.16h-12.77v-44.95Z"/>
            <path class="cls-5" d="M181,184.25c0-1.01-.2-1.72-.59-2.14-.39-.42-1.09-.63-2.1-.63h-2.77v-8.07h8.82c3.02,0,5.11.62,6.26,1.85,1.15,1.23,1.72,3.36,1.72,6.39v10.84h-11.34v-8.23Z"/>
            <path class="cls-5" d="M208.9,168.46c-2.63-1.51-4.64-3.58-6.01-6.22-1.37-2.63-2.06-5.57-2.06-8.82v-28.9h12.77v28.15c0,5.43,2.88,8.15,8.65,8.15,2.35,0,4.38-.49,6.09-1.47,1.71-.98,3.21-2.51,4.5-4.58v-30.25h12.69v44.95h-12.1v-5.04c-1.96,2.07-4.27,3.64-6.93,4.71-2.66,1.06-5.39,1.6-8.19,1.6-3.64,0-6.78-.76-9.41-2.27Z"/>
            <path class="cls-5" d="M252.67,130.14h12.69l9.58,29.83c4.14,0,7.34-1.25,9.58-3.74,2.24-2.49,3.36-6.04,3.36-10.63,0-4.14-.79-7.25-2.35-9.33-1.57-2.07-3.98-3.11-7.23-3.11-1.79,0-3.59.28-5.38.84v-9.58c2.35-.78,5.01-1.18,7.98-1.18,6.67,0,11.66,1.95,15,5.84,3.33,3.89,5,9.4,5,16.51,0,4.99-1.09,9.27-3.28,12.86-2.18,3.59-5.14,6.32-8.86,8.19-3.73,1.88-7.8,2.81-12.23,2.81h-11.26l-12.6-39.32Z"/>
            <path class="cls-5" d="M286.53,104.01h12.77v14.96h-12.77v-14.96Z"/>
            <path class="cls-5" d="M321.57,141.49c0-2.91-.62-5.03-1.85-6.34-1.23-1.32-3.39-1.97-6.47-1.97s-5.97.76-8.99,2.27v-9.66c1.34-.67,3.15-1.26,5.42-1.76,2.27-.5,4.47-.76,6.6-.76,5.88,0,10.36,1.57,13.44,4.71,3.08,3.14,4.62,7.67,4.62,13.61v27.9h-12.77v-27.98Z"/>
            <path class="cls-5" d="M347.7,166.9c-4.2-2.55-6.3-6.2-6.3-10.96,0-2.18.6-4.16,1.81-5.92,1.2-1.76,2.81-3.04,4.83-3.82-1.85-.95-3.35-2.32-4.5-4.12-1.15-1.79-1.72-3.75-1.72-5.88,0-3.92,1.39-7.06,4.16-9.41,2.77-2.35,6.79-3.53,12.06-3.53,1.62,0,3.23.11,4.83.34,1.6.22,2.81.48,3.65.76v9.58c-.79-.34-1.72-.62-2.81-.84-1.09-.22-2.09-.34-2.98-.34-3.92,0-5.88,1.46-5.88,4.37,0,1.51.49,2.65,1.47,3.4.98.76,2.51,1.13,4.58,1.13h5.63v8.99h-5.63c-4.26,0-6.39,1.68-6.39,5.04,0,1.79.85,3.18,2.56,4.16,1.71.98,4.19,1.47,7.44,1.47,3.92,0,6.79-.8,8.61-2.4,1.82-1.6,2.73-3.99,2.73-7.18v-27.31h12.77v27.22c0,3.19-.81,6.23-2.44,9.12-1.63,2.89-4.23,5.27-7.81,7.14-3.59,1.88-8.21,2.81-13.86,2.81-7,0-12.6-1.27-16.8-3.82Z"/>
          </g>
          <g>
            <path class="cls-31" d="M44.09,166.86c-3.05-2.58-4.58-6.22-4.58-10.92s1.67-8.4,5-11.09c3.33-2.69,7.91-4.03,13.74-4.03,5.43,0,10.08.9,13.95,2.69v-1.76c0-3.02-1-5.26-2.98-6.72-1.99-1.46-5.2-2.18-9.62-2.18-2.75,0-5.43.28-8.07.84-2.63.56-4.99,1.34-7.06,2.35v-9.58c1.85-.9,4.4-1.65,7.65-2.27,3.25-.62,6.52-.92,9.83-.92,7.51,0,13.2,1.67,17.1,5,3.89,3.33,5.84,7.8,5.84,13.4v27.81h-12.69v-16.72c-3.25-1.68-7.06-2.52-11.43-2.52-2.86,0-4.94.48-6.26,1.43-1.32.95-1.97,2.44-1.97,4.45,0,1.85.6,3.23,1.81,4.16,1.2.92,3.12,1.39,5.76,1.39,1.85,0,3.42-.28,4.71-.84v8.82c-2.18.73-4.99,1.09-8.4,1.09-5.15,0-9.26-1.29-12.31-3.86Z"/>
            <path class="cls-31" d="M91.94,130.14h12.69l9.58,29.83c4.14,0,7.34-1.25,9.58-3.74,2.24-2.49,3.36-6.04,3.36-10.63,0-4.14-.79-7.25-2.35-9.33-1.57-2.07-3.98-3.11-7.23-3.11-1.79,0-3.59.28-5.38.84v-9.58c2.35-.78,5.01-1.18,7.98-1.18,6.67,0,11.66,1.95,15,5.84,3.33,3.89,5,9.4,5,16.51,0,4.99-1.09,9.27-3.28,12.86-2.18,3.59-5.14,6.32-8.86,8.19-3.73,1.88-7.8,2.81-12.23,2.81h-11.26l-12.6-39.32Z"/>
            <path class="cls-31" d="M147.31,124.51h12.18v5.13c2.02-2.02,4.4-3.58,7.14-4.71,2.74-1.12,5.49-1.68,8.23-1.68,5.66,0,9.93,1.53,12.81,4.58,2.88,3.05,4.33,7.07,4.33,12.06v29.58h-12.69v-28.48c0-5.21-2.75-7.81-8.23-7.81-2.3,0-4.38.5-6.26,1.51-1.88,1.01-3.46,2.55-4.75,4.62v30.16h-12.77v-44.95Z"/>
            <path class="cls-31" d="M181,184.25c0-1.01-.2-1.72-.59-2.14-.39-.42-1.09-.63-2.1-.63h-2.77v-8.07h8.82c3.02,0,5.11.62,6.26,1.85,1.15,1.23,1.72,3.36,1.72,6.39v10.84h-11.34v-8.23Z"/>
            <path class="cls-31" d="M208.9,168.46c-2.63-1.51-4.64-3.58-6.01-6.22-1.37-2.63-2.06-5.57-2.06-8.82v-28.9h12.77v28.15c0,5.43,2.88,8.15,8.65,8.15,2.35,0,4.38-.49,6.09-1.47,1.71-.98,3.21-2.51,4.5-4.58v-30.25h12.69v44.95h-12.1v-5.04c-1.96,2.07-4.27,3.64-6.93,4.71-2.66,1.06-5.39,1.6-8.19,1.6-3.64,0-6.78-.76-9.41-2.27Z"/>
            <path class="cls-31" d="M252.67,130.14h12.69l9.58,29.83c4.14,0,7.34-1.25,9.58-3.74,2.24-2.49,3.36-6.04,3.36-10.63,0-4.14-.79-7.25-2.35-9.33-1.57-2.07-3.98-3.11-7.23-3.11-1.79,0-3.59.28-5.38.84v-9.58c2.35-.78,5.01-1.18,7.98-1.18,6.67,0,11.66,1.95,15,5.84,3.33,3.89,5,9.4,5,16.51,0,4.99-1.09,9.27-3.28,12.86-2.18,3.59-5.14,6.32-8.86,8.19-3.73,1.88-7.8,2.81-12.23,2.81h-11.26l-12.6-39.32Z"/>
            <path class="cls-31" d="M286.53,104.01h12.77v14.96h-12.77v-14.96Z"/>
            <path class="cls-31" d="M321.57,141.49c0-2.91-.62-5.03-1.85-6.34-1.23-1.32-3.39-1.97-6.47-1.97s-5.97.76-8.99,2.27v-9.66c1.34-.67,3.15-1.26,5.42-1.76,2.27-.5,4.47-.76,6.6-.76,5.88,0,10.36,1.57,13.44,4.71,3.08,3.14,4.62,7.67,4.62,13.61v27.9h-12.77v-27.98Z"/>
            <path class="cls-31" d="M347.7,166.9c-4.2-2.55-6.3-6.2-6.3-10.96,0-2.18.6-4.16,1.81-5.92,1.2-1.76,2.81-3.04,4.83-3.82-1.85-.95-3.35-2.32-4.5-4.12-1.15-1.79-1.72-3.75-1.72-5.88,0-3.92,1.39-7.06,4.16-9.41,2.77-2.35,6.79-3.53,12.06-3.53,1.62,0,3.23.11,4.83.34,1.6.22,2.81.48,3.65.76v9.58c-.79-.34-1.72-.62-2.81-.84-1.09-.22-2.09-.34-2.98-.34-3.92,0-5.88,1.46-5.88,4.37,0,1.51.49,2.65,1.47,3.4.98.76,2.51,1.13,4.58,1.13h5.63v8.99h-5.63c-4.26,0-6.39,1.68-6.39,5.04,0,1.79.85,3.18,2.56,4.16,1.71.98,4.19,1.47,7.44,1.47,3.92,0,6.79-.8,8.61-2.4,1.82-1.6,2.73-3.99,2.73-7.18v-27.31h12.77v27.22c0,3.19-.81,6.23-2.44,9.12-1.63,2.89-4.23,5.27-7.81,7.14-3.59,1.88-8.21,2.81-13.86,2.81-7,0-12.6-1.27-16.8-3.82Z"/>
          </g>
        </g>
      </g>
    </g>
  </g>
</svg>