<?xml version="1.0" encoding="UTF-8"?>
<svg id="Layer_1" data-name="Layer 1" xmlns="http://www.w3.org/2000/svg" xmlns:xlink="http://www.w3.org/1999/xlink" viewBox="0 0 1440 1080">
  <defs>
    <style>
      .cls-1, .cls-2, .cls-3, .cls-4, .cls-5, .cls-6 {
        fill: none;
      }

      .cls-7 {
        fill: #fbfffe;
      }

      .cls-7, .cls-2, .cls-5, .cls-6, .cls-8 {
        stroke-linejoin: round;
      }

      .cls-7, .cls-2, .cls-8 {
        stroke-width: 2.5px;
      }

      .cls-7, .cls-3, .cls-4, .cls-8 {
        stroke: #060a25;
      }

      .cls-9 {
        fill: #d0dce6;
      }

      .cls-10 {
        fill: #f28181;
      }

      .cls-11 {
        fill: #7db0f2;
      }

      .cls-12 {
        fill: #0d2243;
      }

      .cls-13 {
        fill: #f4b39f;
      }

      .cls-2 {
        stroke: #0d2243;
      }

      .cls-14 {
        fill: #fff;
      }

      .cls-3 {
        stroke-width: 4px;
      }

      .cls-3, .cls-4 {
        stroke-miterlimit: 10;
      }

      .cls-3, .cls-4, .cls-5, .cls-6 {
        stroke-linecap: round;
      }

      .cls-4 {
        stroke-width: 4.38px;
      }

      .cls-5 {
        stroke-width: 3px;
      }

      .cls-5, .cls-6 {
        stroke: #00254a;
      }

      .cls-15 {
        fill: #ffd278;
      }

      .cls-6 {
        stroke-width: 5px;
      }

      .cls-16 {
        fill: #5f9ed6;
      }

      .cls-17, .cls-8 {
        fill: #f3f3f1;
      }

      .cls-18 {
        fill: #fc2e6a;
      }

      .cls-19 {
        fill: #2461a0;
      }

      .cls-20 {
        fill: #1a1a1a;
      }

      .cls-21 {
        clip-path: url(#clippath);
      }

      .cls-22 {
        fill: #f4b2a0;
      }
    </style>
    <clipPath id="clippath">
      <rect class="cls-1" x="0" width="1440" height="1080"/>
    </clipPath>
  </defs>
  <g class="cls-21">
    <rect class="cls-15" x="141.88" y="212.81" width="1156.25" height="867.19" rx="137.6" ry="137.6"/>
    <g>
      <g>
        <g>
          <g>
            <path class="cls-17" d="M207.73,1093.07l128.79-410.54c7.86-25.04,23.21-46.42,44.41-61.84,20.49-14.9,45.51-23.1,70.46-23.1,14.16,0,28.13,2.56,41.5,7.61,7.73,2.92,15.21,6.65,22.24,11.1,27.67,17.51,46.9,44.87,54.14,77.05,7.24,32.18,1.59,65.14-15.92,92.81l-.05.09-162.38,309.63-183.18-2.8Z"/>
            <path d="M451.4,596.34v2.5c14,0,27.81,2.53,41.05,7.53,7.65,2.89,15.06,6.58,22.02,10.99,27.39,17.33,46.42,44.41,53.59,76.27,7.17,31.85,1.57,64.48-15.76,91.87l-.05.09-.05.09-162.02,308.95-180.74-2.77,128.29-408.95c7.77-24.78,22.97-45.94,43.95-61.2,20.28-14.74,45.04-22.86,69.72-22.87v-2.5M451.38,596.34c-51.48,0-99.69,33.64-116.06,85.82l-129.29,412.14,185.63,2.84,162.74-310.32c36.57-57.8,19.2-135.02-38.61-171.58h0c-7.23-4.57-14.75-8.3-22.47-11.21-13.85-5.23-28.01-7.69-41.94-7.69h0Z"/>
          </g>
          <g>
            <path class="cls-14" d="M1066.56,1093.86l-184.96-307.29c-17.62-27.85-23.31-61.01-16.03-93.39s26.63-59.9,54.47-77.52c19.73-12.48,42.51-19.08,65.89-19.08,42.94,0,82.17,21.49,104.97,57.48l142.37,439.8h-166.72Z"/>
            <path d="M985.93,597.08c20.49,0,40.85,5.11,58.88,14.78,18.57,9.95,34.35,24.62,45.63,42.42l142.14,439.09h-165.75l-184.83-307.07c-17.54-27.73-23.21-60.76-15.96-93s26.52-59.66,54.25-77.2c19.65-12.43,42.34-19,65.62-19M985.93,596.08c-22.71,0-45.65,6.18-66.16,19.16h0c-57.8,36.57-75.18,113.78-38.61,171.59l185.11,307.54h167.69l-142.6-440.52c-23.6-37.3-64.12-57.76-105.43-57.76h0Z"/>
          </g>
        </g>
        <g>
          <path class="cls-17" d="M1083.64,1343.34H329.83l22.49-322.48,3.62-52.04,1.5-21.4,13.83-198.45,4.25-60.92c3.49-49.87,40.74-91.05,90.51-100.07l137.54-24.93h206.34l137.53,24.93c49.77,9.02,87.03,50.2,90.5,100.07l4.25,60.92,13.83,198.45,1.5,21.4,3.62,52.04,22.49,322.48Z"/>
          <polygon class="cls-22" points="706.92 640.43 608.48 582.2 623.49 455.54 793.71 443.34 808.28 572.83 706.92 640.43"/>
          <path class="cls-10" d="M793.71,443.34l-170.22,12.2-7,59.08c6.33,7.53,13.24,15.08,20.77,22.63,52.78,52.85,115.54,45.01,165.8-10.86l-9.35-83.04Z"/>
          <polygon class="cls-12" points="706.74 640.43 667.21 665.45 706.74 714.62 744.13 664.04 706.74 640.43"/>
          <path class="cls-9" d="M610.66,546.12l96.07,94.31s-56.14,25.6-75.71,79.12l-60.66-149.68,40.3-23.74Z"/>
          <path class="cls-9" d="M807.49,546.12l-100.76,94.31s56.14,25.6,75.71,79.12l60.66-149.68-35.61-23.74Z"/>
        </g>
        <g>
          <polygon class="cls-8" points="1138.29 743.49 1250.8 1152.28 994.55 1152.28 979.33 743.49 1138.29 743.49"/>
          <line class="cls-7" x1="1173.38" y1="871" x2="1250.8" y2="1152.28"/>
        </g>
        <g>
          <g>
            <path class="cls-22" d="M1021.49,671.78l-187.44-54.44v.03c-8.39-3.84-18.49-3.35-26.65,2.23-12.37,8.46-15.54,25.34-7.08,37.71,1.97,2.87,4.4,5.23,7.11,7.08v.02s151.17,102.53,151.17,102.53c19.2,28.08,57.53,35.27,85.6,16.07,28.08-19.2,35.27-57.53,16.07-85.6-9.46-13.83-23.56-22.58-38.79-25.62Z"/>
            <path class="cls-2" d="M1021.49,671.78l-187.44-54.44v.03c-8.39-3.84-18.49-3.35-26.65,2.23-12.37,8.46-15.54,25.34-7.08,37.71,1.97,2.87,4.4,5.23,7.11,7.08v.02s146.33,99.51,146.33,99.51"/>
          </g>
          <path class="cls-22" d="M934.9,615.71l113.98-17.81,122.94,32.41,5.63,70.27c4.25,53.03-37.64,98.41-90.84,98.41h-60.76c-50.33,0-91.13-40.8-91.13-91.13h0c.09.07.17-92.15.17-92.15Z"/>
          <g>
            <path class="cls-22" d="M966.55,704.31h0c-16.96,0-30.84-13.88-30.84-30.84l-2.41-149c0-16.96,13.88-30.84,30.84-30.84h0c16.96,0,30.84,13.88,30.84,30.84l2.41,149c0,16.96-13.88,30.84-30.84,30.84Z"/>
            <path class="cls-2" d="M935.71,673.47l-2.41-149c0-16.96,13.88-30.84,30.84-30.84h0c16.96,0,30.84,13.88,30.84,30.84l2.41,149"/>
            <path class="cls-2" d="M965.35,577.39h0c-16.96,0-30.84-13.88-30.84-30.84l-1.2-22.08c0-16.96,13.88-30.84,30.84-30.84h0c16.96,0,30.84,13.88,30.84,30.84l1.2,22.08c0,16.96-13.88,30.84-30.84,30.84Z"/>
            <path class="cls-2" d="M933.31,524.47c0-16.96,13.88-30.84,30.84-30.84h0c16.96,0,30.84,13.88,30.84,30.84l2.16,105.84"/>
          </g>
          <g>
            <g>
              <rect class="cls-22" x="1110.21" y="592.41" width="61.68" height="125.75" rx="30.84" ry="30.84"/>
              <rect class="cls-2" x="1110.21" y="592.41" width="61.68" height="125.75" rx="30.84" ry="30.84"/>
              <path class="cls-2" d="M1110.21,623.25c0-16.96,13.88-30.84,30.84-30.84h0c16.96,0,30.84,13.88,30.84,30.84l-.43,42.42"/>
            </g>
            <g>
              <path class="cls-22" d="M1085.52,708.34h0c-16.96.16-30.97-13.58-31.13-30.55l-1.53-75.6c-.16-16.96,13.58-30.97,30.55-31.13h0c16.96-.16,30.97,13.58,31.13,30.55l1.53,75.6c.16,16.96-13.58,30.97-30.55,31.13Z"/>
              <path class="cls-2" d="M1085.52,708.34h0c-16.96.16-30.97-13.58-31.13-30.55l-1.53-75.6c-.16-16.96,13.58-30.97,30.55-31.13h0c16.96-.16,30.97,13.58,31.13,30.55l1.53,75.6c.16,16.96-13.58,30.97-30.55,31.13Z"/>
              <path class="cls-2" d="M1052.86,602.2c-.16-16.96,13.58-30.97,30.55-31.13h0c16.96-.16,30.97,13.58,31.13,30.55l1.1,57.99"/>
            </g>
            <g>
              <rect class="cls-22" x="995.87" y="561.65" width="61.68" height="137.31" rx="30.84" ry="30.84"/>
              <rect class="cls-2" x="995.87" y="561.65" width="61.68" height="137.31" rx="30.84" ry="30.84"/>
              <path class="cls-2" d="M995.87,592.49c0-16.96,13.88-30.84,30.84-30.84h0c16.96,0,30.84,13.88,30.84,30.84l-.21,61.74"/>
            </g>
          </g>
        </g>
        <g>
          <path class="cls-22" d="M356.21,1022.93l150.55-217.38h.04c5.52-11.17,16.57-19.29,29.91-20.4,20.23-1.67,37.99,13.37,39.66,33.6.39,4.7-.16,9.25-1.43,13.52h.02s-71.35,236.97-71.35,236.97c3.8,45.92-30.35,86.23-76.27,90.03-45.92,3.8-86.23-30.35-90.03-76.27-1.87-22.62,5.48-43.87,18.89-60.08Z"/>
          <path class="cls-2" d="M356.21,1022.93l150.55-217.38h.04c5.52-11.17,16.57-19.29,29.91-20.4,20.23-1.67,37.99,13.37,39.66,33.6.39,4.7-.16,9.25-1.43,13.52h.02s-68.83,229.66-68.83,229.66"/>
        </g>
        <g>
          <path class="cls-16" d="M548.71,1137.29h338.14c7.4,0,13.56-5.67,14.18-13.04l38.27-454.62c.7-8.3-5.85-15.43-14.18-15.43h-414.67c-8.33,0-14.88,7.13-14.18,15.43l38.27,454.62c.62,7.37,6.79,13.04,14.18,13.04Z"/>
          <polygon class="cls-16" points="496.9 664.08 485.46 693.94 950.21 693.94 938.17 662.76 496.9 664.08"/>
          <path class="cls-11" d="M539.79,1192.74h355.98c7.79,0,14.28-5.97,14.93-13.73l40.28-478.6c.74-8.74-6.16-16.24-14.93-16.24h-436.55c-8.77,0-15.67,7.5-14.93,16.24l40.28,478.6c.65,7.76,7.14,13.73,14.93,13.73Z"/>
          <line class="cls-2" x1="909.55" y1="1192.74" x2="946.75" y2="750.78"/>
          <circle class="cls-16" cx="567.38" cy="758.26" r="40.51"/>
        </g>
        <g>
          <path class="cls-22" d="M522.57,923.5l20.55,131.53-74.6,155.91-78.64,41.95-31.53,19.21-24.67-93.43c-18.99-71.93-2.8-148.61,43.65-206.72h0c24.52-30.68,61.67-48.52,100.95-48.49l44.28.04Z"/>
          <g>
            <path class="cls-22" d="M367.41,1082.36h0c-.19-19.57,15.68-35.74,35.25-35.92l186.33-4.54c19.57-.19,35.74,15.68,35.92,35.25h0c.19,19.57-15.68,35.74-35.25,35.92l-186.33,4.54c-19.57.19-35.74-15.68-35.92-35.25Z"/>
            <path class="cls-2" d="M588.99,1041.89c19.57-.19,35.74,15.68,35.92,35.25h0c.19,19.57-15.68,35.74-35.25,35.92l-166.01,4.05"/>
          </g>
          <g>
            <path class="cls-22" d="M378.23,1026.33h0c0-19.57,16.01-35.59,35.59-35.59l186.37-2.78c19.57,0,35.59,16.01,35.59,35.59h0c0,19.57-16.01,35.59-35.59,35.59l-186.37,2.78c-19.57,0-35.59-16.01-35.59-35.59Z"/>
            <path class="cls-2" d="M600.19,987.97c19.57,0,35.59,16.01,35.59,35.59h0c0,19.57-16.01,35.59-35.59,35.59l-170.34,2.54"/>
          </g>
          <g>
            <path class="cls-22" d="M420.32,960.03h0c0-19.57,16.01-35.59,35.59-35.59l186.37-2.78c19.57,0,35.59,16.01,35.59,35.59h0c0,19.57-16.01,35.59-35.59,35.59l-186.37,2.78c-19.57,0-35.59-16.01-35.59-35.59Z"/>
            <path class="cls-2" d="M642.28,921.67c19.57,0,35.59,16.01,35.59,35.59h0c0,19.57-16.01,35.59-35.59,35.59l-207.76,2.49"/>
          </g>
          <path class="cls-2" d="M358.35,1272.1l-24.67-93.43c-18.99-71.93-2.8-148.61,43.65-206.72h0c24.52-30.68,61.67-48.52,100.95-48.49l44.28.04"/>
        </g>
      </g>
      <g>
        <path class="cls-12" d="M573.47,359.57l-22.98-68.39c-3.82-11.37-5.7-23.37-4.85-35.33,3.34-46.87,43.3-71.44,78.89-71.44l178.21-3.98c44.2,0,96.85,33.43,74.44,105.24l-30.05,90.69-273.67-16.79Z"/>
        <circle class="cls-13" cx="857.57" cy="371.33" r="37.04"/>
        <path class="cls-2" d="M842.37,405.11c1.78.8,3.64,1.46,5.58,1.99,19.75,5.31,40.07-6.39,45.39-26.15.86-3.21,1.28-6.44,1.28-9.62"/>
        <path class="cls-2" d="M880.47,367.5s-.68,23.57-22.9,23.24"/>
        <circle class="cls-13" cx="571.3" cy="371.66" r="37.36"/>
        <path class="cls-2" d="M586.63,405.73c-1.79.8-3.67,1.48-5.63,2-19.93,5.36-40.43-6.45-45.79-26.37-.87-3.24-1.29-6.5-1.29-9.71"/>
        <path class="cls-2" d="M548.2,367.79s.69,23.78,23.1,23.44"/>
        <g>
          <path class="cls-13" d="M827.86,476.17c-22.49,39.92-65.27,66.88-114.36,66.88h0c-48.87,0-91.5-26.73-114.06-66.37"/>
          <path class="cls-13" d="M599.43,476.69c-10.88-19.11-17.1-41.23-17.1-64.79v-214.34s262.32,0,262.32,0v214.34c0,23.35-6.1,45.28-16.8,64.28"/>
        </g>
        <path class="cls-2" d="M827.86,476.17c-22.49,39.92-65.27,66.88-114.36,66.88h0c-48.87,0-91.5-26.73-114.06-66.37"/>
        <g>
          <circle class="cls-20" cx="769.05" cy="382.35" r="8.53"/>
          <circle class="cls-20" cx="657.94" cy="382.35" r="8.53"/>
        </g>
        <path class="cls-4" d="M631.19,317.61c2.94,2.12,16.17,11.21,34.14,8.72,13.28-1.84,21.97-9,25.2-11.97"/>
        <path class="cls-4" d="M792.54,322.39c-5.98-2.82-16.65-6.93-30.43-7.13-8.41-.12-19.3-.28-29.6,6.32-14.87,9.54-18.72,26.77-20.13,34.08-2.51,12.99-.76,26.27,1.63,39.13,2.42,13.03,4.39,21.15,6.57,34.22-9.76,1.61-19.52,3.22-29.28,4.84"/>
        <path class="cls-12" d="M578.66,197.56c23.69,13.67,59.61,32.24,99.26,45.15-34.92-10.37-33.51.83-50.88-7.5-.63,54.59-56.25,121.27-56.25,121.27-11.38-84.55.67-131.26,9.98-153.17-.52-.28-.89-.44-.89-.44,0,0-.59-1.93-1.22-5.31Z"/>
        <path class="cls-12" d="M855.21,356.48s-54.31-70.89-54.31-123.5c8.68-3.06,46.85-1.87,54.8-6.89,4.8,26.41,6.76,76.68-.49,130.39Z"/>
        <path class="cls-12" d="M879.17,205.07c-2.42,16.56-13.53,29.77-27.98,33.58-1.25.32-2.51.65-3.76.95-110.31,27.43-271.94-7.19-271.94-7.19-.84-.16-1.63-.35-2.35-.63-8.36-2.78-10.29-11.27-9.74-20.1.9-14.89,8.73-28.08,20.3-35.22,6.23-3.83,13.99-8.19,22.74-12.8,28.16-14.89,66.36-32.7,95.2-45.75,1.85-.84,3.67-1.67,5.5-2.53,26.13-12.31,51.14-27.48,74.66-45.29l30.99-23.49c66.06,69.06,71.09,126.52,66.39,158.48Z"/>
        <g>
          <path class="cls-3" d="M615.15,346.67v16.95c0,22.6,18.49,41.09,41.09,41.09h0c22.6,0,41.09-18.49,41.09-41.09v-20.68s-82.19,0-82.19,0v3.73Z"/>
          <path class="cls-3" d="M729.66,346.67v16.95c0,22.6,18.49,41.09,41.09,41.09h0c22.6,0,41.09-18.49,41.09-41.09v-20.68s-82.19,0-82.19,0v3.73Z"/>
          <path class="cls-4" d="M697.34,342.94s15.27-13.46,32.32,0"/>
        </g>
        <line class="cls-3" x1="615.15" y1="342.94" x2="567.08" y2="316.08"/>
        <line class="cls-3" x1="811.84" y1="342.94" x2="857.57" y2="316.99"/>
        <path class="cls-4" d="M736.05,471.6c-7.59-1.43-16.72-2.57-27.05-2.7-12.07-.15-22.59,1.1-31.07,2.7"/>
      </g>
    </g>
    <path class="cls-6" d="M954.03,130.89c-1.69-2.43-11.64-17.21-6.41-32.82,4.08-12.17,14.93-17.88,16.89-18.9,25.9-13.61,72.85,8.26,97.35,41.77,17.33,23.7,36.17,70.67,13.83,95.41-24.6,27.25-80.31,6.64-102.27-11.09-5.77-4.65-20.22-16.32-17.86-27.74.18-.85.98-4.83,4.21-7.06,9.54-6.59,32.5,7.1,46.22,21.95,6.74,7.29,26.84,29.03,18.87,49.44-5.27,13.51-19.84,18.73-24.27,20.06-26.24,7.89-57.15-12.18-56.54-23.49,0-.13.2-2.93,2.28-4.49,5.47-4.1,20.91,2.73,24.59,12.06,3.87,9.82-4.04,25.44-21.84,34.24"/>
    <g>
      <path class="cls-18" d="M417.96,359.71c1.21,4.04,1.54,7.85,1,11.43-.55,3.58-1.76,6.82-3.63,9.72-1.88,2.9-4.32,5.38-7.33,7.43-3.01,2.05-6.38,3.57-10.1,4.56-3.72.99-7.35,1.2-10.88.63-3.53-.56-6.78-1.72-9.74-3.47-2.96-1.75-5.57-4.02-7.84-6.79-2.27-2.78-3.97-5.95-5.1-9.51-1.99-6.1-3.12-11.5-3.4-16.2-.28-4.7.13-9.45,1.24-14.27,1.11-4.81,2.88-10.03,5.32-15.64,2.44-5.62,5.34-12.38,8.71-20.29,2.62-5.28,5.07-10.72,7.36-16.33,2.29-5.61,4.13-11.26,5.52-16.95,1.39-5.68,2.1-11.37,2.11-17.05.02-5.68-1.02-11.29-3.11-16.85-1.58-4.21-3.66-8.18-6.24-11.92-2.58-3.73-5.65-6.8-9.2-9.2-3.56-2.39-7.55-3.91-11.98-4.55-4.43-.64-9.33.05-14.71,2.07-6.27,2.36-11.31,5.19-15.13,8.52-3.81,3.32-6.64,7.02-8.49,11.08-1.85,4.07-2.79,8.43-2.83,13.1-.04,4.67.58,9.52,1.86,14.56.92,3.54,1.01,7.04.26,10.48-.75,3.45-2.12,6.6-4.12,9.44-2,2.85-4.53,5.3-7.58,7.37-3.06,2.07-6.43,3.49-10.13,4.26-3.7.78-7.28.82-10.76.13-3.48-.69-6.66-1.95-9.55-3.78-2.89-1.83-5.34-4.21-7.35-7.13-2.02-2.92-3.4-6.19-4.14-9.79-2.1-9.95-2.67-19.7-1.71-29.26.96-9.56,3.7-18.59,8.23-27.09,4.53-8.5,10.98-16.23,19.35-23.21,8.37-6.98,18.96-12.87,31.77-17.68,13.08-4.91,25.65-7.66,37.69-8.25,12.05-.59,23.09.86,33.14,4.35,10.05,3.49,18.88,8.96,26.49,16.43,7.61,7.47,13.5,16.76,17.67,27.87,3.43,9.14,5.36,17.62,5.79,25.43.43,7.81-.08,15.37-1.54,22.66-1.45,7.29-3.65,14.58-6.59,21.87-2.94,7.29-6.03,14.91-9.27,22.88-2.4,5.6-4.57,10.43-6.52,14.49-1.95,4.06-3.49,7.85-4.62,11.39-1.12,3.54-1.75,7.12-1.87,10.75-.12,3.62.52,7.73,1.94,12.31Z"/>
      <path class="cls-18" d="M387.53,441.21c-1.38-3.67-1.98-7.38-1.8-11.13.18-3.75,1.04-7.29,2.6-10.64,1.55-3.34,3.73-6.33,6.52-8.97,2.79-2.63,6.07-4.66,9.84-6.07,3.76-1.41,7.56-2.05,11.4-1.9,3.84.15,7.44.96,10.81,2.46,3.37,1.49,6.38,3.59,9.03,6.27,2.64,2.69,4.66,5.87,6.04,9.54,1.41,3.76,2.01,7.53,1.79,11.29-.22,3.76-1.12,7.3-2.69,10.59-1.57,3.3-3.76,6.27-6.55,8.9-2.8,2.63-6.07,4.66-9.83,6.07-3.76,1.41-7.56,2.05-11.4,1.9-3.84-.14-7.43-.94-10.79-2.39-3.36-1.45-6.33-3.52-8.93-6.23-2.6-2.7-4.61-5.94-6.02-9.7Z"/>
      <g>
        <path class="cls-5" d="M320.76,240.43c-.81,2.81-1.22,5.75-1.25,8.81-.04,4.67.58,9.52,1.86,14.56.92,3.54,1.01,7.04.26,10.48-.75,3.45-2.12,6.6-4.12,9.44-2,2.85-4.53,5.3-7.58,7.37-3.06,2.07-6.43,3.49-10.13,4.26-3.7.78-7.28.82-10.76.13-3.48-.69-6.66-1.95-9.55-3.78-2.89-1.83-5.34-4.21-7.35-7.13-2.02-2.92-3.4-6.19-4.14-9.79-2.1-9.95-2.67-19.7-1.71-29.26.96-9.56,3.7-18.59,8.23-27.09,4.53-8.5,10.98-16.23,19.35-23.21,8.37-6.98,18.96-12.87,31.77-17.68,13.08-4.91,25.65-7.66,37.69-8.25,12.05-.59,23.09.86,33.14,4.35,10.05,3.49,18.88,8.96,26.49,16.43,7.61,7.47,13.5,16.76,17.67,27.87,3.43,9.14,5.36,17.62,5.79,25.43.43,7.81-.08,15.37-1.54,22.66-1.45,7.29-3.65,14.58-6.59,21.87-2.25,5.59-4.6,11.38-7.03,17.37"/>
        <path class="cls-5" d="M362,365.09c-.57-2.7-.92-5.23-1.06-7.58-.28-4.7.13-9.45,1.24-14.27,1.11-4.81,2.88-10.03,5.32-15.64,2.44-5.62,5.34-12.38,8.71-20.29,2.62-5.28,5.07-10.72,7.36-16.33,2.29-5.61,4.13-11.26,5.52-16.95,1.39-5.68,2.1-11.37,2.11-17.05.02-5.68-1.02-11.29-3.11-16.85-1.58-4.21-3.66-8.18-6.24-11.92-2.58-3.73-5.65-6.8-9.2-9.2-3.56-2.39-7.55-3.91-11.98-4.55-1.51-.22-3.07-.28-4.69-.19"/>
        <path class="cls-5" d="M416.09,402.51c3.84.15,7.44.96,10.81,2.46,3.37,1.49,6.38,3.59,9.03,6.27,2.64,2.69,4.66,5.87,6.04,9.54,1.41,3.76,2.01,7.53,1.79,11.29-.22,3.76-1.12,7.3-2.69,10.59-1.57,3.3-3.76,6.27-6.55,8.9-2.8,2.63-6.07,4.66-9.83,6.07-3.76,1.41-7.56,2.05-11.4,1.9-3.84-.14-7.43-.94-10.79-2.39-3.36-1.45-6.33-3.52-8.93-6.23-2.6-2.7-4.61-5.94-6.02-9.7"/>
      </g>
    </g>
    <g>
      <path class="cls-19" d="M1015.17,443.33c1.06-1.93,2.42-3.54,4.08-4.83,1.66-1.29,3.48-2.22,5.48-2.78,1.99-.56,4.06-.73,6.2-.5,2.14.23,4.2.88,6.18,1.97,1.98,1.08,3.63,2.47,4.98,4.15,1.34,1.69,2.31,3.52,2.91,5.5.6,1.98.81,4.03.63,6.13-.18,2.11-.8,4.13-1.85,6.05-1.08,1.98-2.47,3.6-4.15,4.89-1.68,1.28-3.51,2.19-5.49,2.73-1.98.54-4.04.69-6.18.47-2.14-.23-4.2-.88-6.18-1.97-1.98-1.08-3.64-2.47-4.98-4.15-1.34-1.68-2.32-3.51-2.93-5.46-.61-1.96-.82-3.98-.61-6.08.2-2.09.84-4.13,1.93-6.11Z"/>
      <path class="cls-19" d="M1124.44,385.92c-2.39,4.13-5.06,7.49-8,10.07-2.94,2.58-6.04,4.66-9.3,6.24-3.25,1.58-6.56,2.81-9.88,3.7-3.34.9-6.57,1.77-9.67,2.64-2.83.71-5.61,1.42-8.34,2.13-2.71.72-5.3,1.66-7.76,2.85-2.46,1.19-4.77,2.73-6.9,4.62-2.14,1.9-4.04,4.34-5.69,7.35l-5.77,10.34-23.15-12.7,6.74-12.11c2.31-3.87,4.94-7.04,7.89-9.54,2.96-2.48,6.02-4.52,9.19-6.11,3.17-1.6,6.41-2.9,9.72-3.89,3.3-1.01,6.47-1.99,9.52-2.96,2.44-.75,5.02-1.52,7.76-2.35,2.74-.82,5.43-1.87,8.06-3.15s5.08-2.87,7.3-4.76c2.24-1.9,4.07-4.3,5.48-7.19,1.25-3.05,1.99-6.05,2.22-8.98.22-2.93-.07-5.72-.9-8.34-.82-2.63-2.21-5.06-4.16-7.3-1.96-2.23-4.49-4.2-7.6-5.91-4.24-2.33-8.33-3.48-12.31-3.45-3.96.02-7.71.94-11.23,2.74-3.53,1.8-6.8,4.36-9.77,7.68-1.03,1.14-2,2.33-2.94,3.59l-20.31-17.16c2.04-2.58,4.24-4.94,6.57-7.08,5.65-5.16,11.8-8.89,18.44-11.18,6.65-2.3,13.61-3.09,20.92-2.38,7.3.7,14.57,3.04,21.81,7.01,6.54,3.59,12.05,7.79,16.5,12.62,4.45,4.83,7.68,10.08,9.68,15.75,2.01,5.66,2.7,11.64,2.09,17.94-.62,6.32-2.68,12.73-6.2,19.24Z"/>
    </g>
  </g>
</svg>