<?xml version="1.0" encoding="UTF-8"?>
<svg id="Layer_1" data-name="Layer 1" xmlns="http://www.w3.org/2000/svg" xmlns:xlink="http://www.w3.org/1999/xlink" viewBox="0 0 1440 1080">
  <defs>
    <style>
      .cls-1, .cls-2, .cls-3, .cls-4, .cls-5, .cls-6 {
        fill: none;
      }

      .cls-2 {
        stroke: #000;
      }

      .cls-2, .cls-3, .cls-6 {
        stroke-width: 2.5px;
      }

      .cls-2, .cls-4, .cls-5, .cls-6 {
        stroke-linecap: round;
      }

      .cls-2, .cls-5 {
        stroke-linejoin: round;
      }

      .cls-7 {
        fill: #070707;
      }

      .cls-3, .cls-4, .cls-6 {
        stroke: #060a25;
        stroke-miterlimit: 10;
      }

      .cls-8 {
        fill: #3b6aad;
      }

      .cls-9 {
        fill: #f28181;
      }

      .cls-10 {
        fill: #7db0f2;
      }

      .cls-11 {
        fill: #ffc83c;
      }

      .cls-12 {
        fill: #0d2243;
      }

      .cls-13 {
        fill: #a2cdfb;
      }

      .cls-14 {
        fill: #042345;
      }

      .cls-15 {
        fill: #fff;
      }

      .cls-4 {
        stroke-width: 4px;
      }

      .cls-5 {
        stroke: #fff;
        stroke-width: 3px;
      }

      .cls-16 {
        fill: #dceaff;
      }

      .cls-17 {
        fill: #060a25;
      }

      .cls-18 {
        fill: #f4f4f2;
      }

      .cls-19 {
        fill: #d3dde6;
      }

      .cls-20 {
        clip-path: url(#clippath);
      }

      .cls-21 {
        fill: #f4b2a0;
      }
    </style>
    <clipPath id="clippath">
      <rect class="cls-1" width="1440" height="1080"/>
    </clipPath>
  </defs>
  <g class="cls-20">
    <rect class="cls-13" x="141.88" y="212.81" width="1156.25" height="867.19" rx="137.6" ry="137.6"/>
    <g>
      <g>
        <path class="cls-18" d="M424.38,1091.13l19.19-12.18c-5.95,4.84-12.37,8.96-19.19,12.18Z"/>
        <path class="cls-18" d="M358.84,1015.37l14.81-17.38,303.99-356.72c3.43-3.97,7.61-8.33,11.62-11.93,51.6-46.4,131.04-42.19,177.44,9.41,46.4,51.6,42.18,131.04-9.41,177.44l-348.48,313.37-16.91,15.2c-25.05,17.42-58.04,22.42-88.57,10.43-48.59-19.08-72.51-73.94-53.43-122.52,2.43-6.18,5.45-11.95,8.94-17.3Z"/>
      </g>
      <g>
        <g>
          <path class="cls-21" d="M261.14,693.46l18.38-37.09c8.16-16.47,16.99-52.05,6.91-67.42l-65-56.48-51.16-14.56-9.01,7.02,2.08,70.74,13.02,86.5,84.78,11.3Z"/>
          <path class="cls-21" d="M245.27,559.36l6.91-13.23-11.86-7.91c-9.31-6.21-13.25-17.92-9.59-28.5l.76-2.18c2.39-6.92,10.88-9.44,16.66-4.94l20.97,16.33c8.62,6.71,14.06,16.7,15.03,27.57l5.97,52.39"/>
          <polygon class="cls-8" points="181.71 336.79 162.24 339.39 199.26 671.06 219.17 668.47 181.71 336.79"/>
          <polygon class="cls-10" points="219.17 668.47 255.27 621.58 221.95 344.51 182.14 336.8 219.17 668.47"/>
          <polygon class="cls-15" points="221.06 657.54 250.88 618.82 220.16 353.63 187.28 347.27 221.06 657.54"/>
          <g>
            <rect class="cls-21" x="181.92" y="578.13" width="31.08" height="37.41" rx="15.54" ry="15.54" transform="translate(-405.72 773.97) rotate(-88.06)"/>
            <path class="cls-3" d="M180.9,581.19l20.25.21c8.54.29,15.3,7.52,15.01,16.06h0c-.29,8.54-6.65,15.02-19.93,15.01h-14.42"/>
          </g>
          <rect class="cls-21" x="177.32" y="547.89" width="31.08" height="45.55" rx="15.54" ry="15.54" transform="translate(-384.01 744.08) rotate(-88.06)"/>
          <path class="cls-3" d="M172.28,554.88l28.33.49c8.54.29,15.3,7.52,15.01,16.06h0c-.29,8.54-7.52,15.3-16.06,15.01l-14.46-.49c-1.06-.04-2.09-.18-3.08-.41"/>
          <rect class="cls-21" x="171.41" y="520.6" width="31.08" height="45.55" rx="15.54" ry="15.54" transform="translate(-362.45 711.81) rotate(-88.06)"/>
          <path class="cls-3" d="M180.25,527.6l14.46.49c8.54.29,15.3,7.52,15.01,16.06h0c-.29,8.54-7.52,15.3-16.06,15.01l-14.46-.49"/>
          <rect class="cls-21" x="163.71" y="493.35" width="31.08" height="45.55" rx="15.54" ry="15.54" transform="translate(-342.65 677.79) rotate(-88.06)"/>
          <path class="cls-3" d="M172.55,500.35l14.46.49c8.54.29,15.3,7.52,15.01,16.06h0c-.29,8.54-7.52,15.3-16.06,15.01l-6.76-.23"/>
        </g>
        <path class="cls-18" d="M391.21,1178.8c43.8,37.61,109.79,32.6,147.4-11.2,27.02-31.47,34.11-75.39,16.36-109.98-3.14-6.13-7.87-12.92-12.76-21.79l-263.47-367.36-107.45,12.36,187.37,446.86,9.72,23.19c5.46,10.47,13.35,19.79,22.82,27.92Z"/>
        <polyline class="cls-2" points="492.49 966.5 278.75 668.47 171.3 680.82 352.05 1111.91"/>
      </g>
      <path class="cls-18" d="M1166.64,619.63l-105.51-72.07-329.88,52.53c-24.13,6.72-43.34,25-51.25,48.76l-80.44,622.45h592.13s41.22-512.95,41.22-512.95c4.4-54.78-20.89-107.72-66.27-138.72Z"/>
      <polygon class="cls-19" points="845.4 598.64 839.86 577.23 832.18 584.02 830.29 670.19 845.4 598.64"/>
      <polyline class="cls-2" points="672.43 707.37 599.55 1271.3 704.98 1271.3"/>
      <g>
        <path class="cls-21" d="M929.4,362.45l-103.17,150.87s.37,1.75.96,4.78c1.42,6.97,4.26,20.71,7.32,35.03,5.02,23.38,10.7,48.3,12.12,47.79,2.63-.95,188.8-38.22,187.69-46.52-1.09-8.28-104.92-191.95-104.92-191.95Z"/>
        <path class="cls-9" d="M844.75,512.83c-5.98,2.3-11.86,4.03-17.55,5.27,1.42,6.97,4.26,20.71,7.32,35.03,14.07,2.36,27.93,1.68,40.24-4.21,81.85-39.07,27.76-138.36,27.76-138.36,0,0-6,82.37-57.77,102.28Z"/>
        <path class="cls-21" d="M883.71,223.14l23.4,139.86c.47,2.79.84,5.55,1.18,8.32,10.55,87.1-42.94,168.51-125,194.61-8.17,2.61-16.6,4.66-25.3,6.12-56.71,9.49-110.32-28.75-119.81-85.47l-38.37-229.3,283.9-34.15Z"/>
        <path class="cls-4" d="M699.03,308.42s-14.77-22.91-41.15-8.67"/>
        <polygon class="cls-21" points="623.5 397.32 608.42 466.46 635.36 468.55 623.5 397.32"/>
        <path class="cls-12" d="M757.42,224.83l51.06,130.62,55.01-106.96s-23.8-34.33-25.55-34.37-80.52,10.71-80.52,10.71Z"/>
        <path class="cls-12" d="M636.72,73.06l245.82,56.29c.52.12,1.03.24,1.54.38,19.97,5.16,33.65,23.56,33.54,44.18l-.18,31.17s-69.39-5.09-73.66-5.19c-4.27-.1-116.96-13.56-125.04-16.47-8.09-2.9-82.02-110.37-82.02-110.37Z"/>
        <polyline class="cls-4" points="623.5 397.32 608.42 466.46 639.77 468.66"/>
        <circle class="cls-17" cx="665.91" cy="385.36" r="8.03"/>
        <path class="cls-4" d="M723.01,353.45l3.24,17.64c4.33,23.53-11.39,46.33-34.92,50.66h0c-23.53,4.33-46.33-11.39-50.66-34.92l-3.39-18.43,85.01-18.83.71,3.88Z"/>
        <line class="cls-4" x1="722.3" y1="349.56" x2="819.4" y2="326.45"/>
        <path class="cls-4" d="M637.29,368.4s-10.66-4.8-18.27,3.77"/>
        <path class="cls-9" d="M783.52,564.76c-8.17,2.61-16.6,4.66-25.3,6.12-8.09,1.36-16.12,1.73-23.97,1.23,2.57-.69,5.12-1.44,7.64-2.25,82.06-26.1,135.55-107.52,125-194.62-.33-2.77-.71-5.53-1.17-8.32l-23.41-139.87,41.63-5.09,23.4,139.87c.47,2.79.84,5.55,1.18,8.32,10.55,87.1-42.95,168.52-125,194.62Z"/>
        <path class="cls-6" d="M908.29,371.33c10.55,87.1-42.94,168.51-125,194.61-8.17,2.61-16.6,4.66-25.3,6.12-31.44,5.26-61.93-4.15-84.48-23.25"/>
        <path class="cls-12" d="M555.13,246.91c7.38,17.82,23.52,29.45,40.74,29.62,1.49,0,2.98.02,4.47,0,131-.48,301.83-84.77,301.83-84.77.89-.42,1.72-.85,2.45-1.36,8.55-5.47,8.32-15.5,5.21-25.21-5.21-16.38-17.68-28.91-32.63-33.63-8.04-2.52-17.94-5.2-29.03-7.88-35.66-8.69-83.38-17.81-119.28-24.26-2.3-.41-4.58-.83-6.86-1.27-32.67-6.38-64.9-16.27-96.2-29.54l-41.26-17.5c-54.32,95.8-43.73,161.43-29.46,195.81Z"/>
        <path class="cls-12" d="M900.95,169.99c.05.17,8.64,1.8,20.28,3.94,36.47,6.7,81.68,65.5,82.63,102.57l-5.81,178.75h0c-41.47,9.44-84.98-1.02-117.61-28.3l-37.58-31.41-58.74-193.22,116.83-32.32Z"/>
        <circle class="cls-21" cx="841.05" cy="348.36" r="46.59"/>
        <g>
          <path class="cls-6" d="M821,390.88c2.23,1.06,4.58,1.96,7.03,2.68,24.93,7.32,51.07-6.95,58.39-31.87,1.19-4.06,1.81-8.14,1.91-12.18"/>
          <path class="cls-6" d="M870.48,344.24s-1.55,29.91-29.76,28.83"/>
        </g>
      </g>
      <polygon class="cls-7" points="877.69 1177.82 815.48 1201.57 793.52 1161.43 845.4 598.64 877.69 655.78 877.69 1177.82"/>
      <polygon class="cls-19" points="845.4 598.64 881.06 672.44 1061.13 547.56 1036.35 507.24 845.4 598.64"/>
      <path class="cls-15" d="M689.48,506.08c-8.36-2.92-9.96-14.06-2.84-19.34,5.06-3.75,10.64-8.7,15.96-15.12,6.12-7.39,10.29-14.8,13.13-21.2,3.06-6.88,12.01-8.73,17.56-3.64,3.78,3.47,7.07,7.92,8.29,13.42,5.24,23.61-30.69,53.21-52,45.92-.04-.01-.07-.02-.11-.04Z"/>
      <g>
        <g>
          <ellipse class="cls-14" cx="510.21" cy="404.15" rx="44.2" ry="170.08" transform="translate(-50.27 73.21) rotate(-7.82)"/>
          <rect class="cls-14" x="472.3" y="236.66" width="38.09" height="340.17" transform="translate(-50.79 70.67) rotate(-7.82)"/>
          <path class="cls-14" d="M507.68,414.57h32.67v349.59c0,9.01-7.32,16.33-16.33,16.33h0c-9.01,0-16.33-7.32-16.33-16.33v-349.59h0Z" transform="translate(-76.46 76.89) rotate(-7.82)"/>
          <ellipse class="cls-15" cx="472.48" cy="409.34" rx="44.2" ry="170.08" transform="translate(-51.32 68.12) rotate(-7.82)"/>
          <path class="cls-16" d="M497.56,553.94c-1.7,4.32-7.43,5.11-10.24,1.41-4.47-5.9-10.67-16.47-17.79-35.2-10.94-28.79-20.01-66.76-25.52-106.9-5.52-40.14-7.03-79.14-4.25-109.82,1.8-19.97,4.93-31.81,7.63-38.7,1.7-4.32,7.43-5.11,10.24-1.41,4.47,5.9,10.67,16.47,17.79,35.2,10.94,28.79,20.01,66.76,25.52,106.9,5.52,40.14,7.03,79.14,4.25,109.82-1.8,19.97-4.92,31.81-7.63,38.7Z"/>
          <path class="cls-13" d="M482.78,518.33c-10.94-28.79-20.01-66.76-25.52-106.9-5.52-40.14-7.03-79.14-4.25-109.82,1.38-15.26,3.53-25.77,5.67-32.95.53-1.79.16-3.73-.96-5.22-.03-.04-.07-.09-.1-.13-2.79-3.69-8.52-2.87-10.22,1.44-2.71,6.89-5.83,18.73-7.63,38.69-2.77,30.68-1.26,69.68,4.25,109.82,5.52,40.14,14.58,78.11,25.52,106.9,7.12,18.74,13.32,29.3,17.79,35.2,2.79,3.69,8.53,2.93,10.22-1.37.02-.05.04-.1.06-.16.68-1.74.52-3.71-.48-5.29-4-6.34-8.91-15.88-14.35-30.2Z"/>
        </g>
        <line class="cls-5" x1="472.83" y1="493.02" x2="458.72" y2="317.85"/>
        <line class="cls-5" x1="485.88" y1="445.37" x2="479.07" y2="360.92"/>
      </g>
      <g>
        <path class="cls-21" d="M515.91,582.57l-14.02,73.63,18.92,43.17c13.09,29.86,35.38,54.75,63.62,71.04h0s52.99-44.32,52.99-44.32l-.15-10.51c-.46-32.29-11.1-63.6-30.42-89.48l-10.12-13.56c-13.23-17.72-33.8-28.46-55.9-29.17l-24.92-.81Z"/>
        <path class="cls-21" d="M543.86,582.16c-3.98-.62-8.32-1.07-12.98-1.21-14.79-.45-27.33,2.31-36.62,5.34-10.69,2.56-17.38,13.46-14.82,24.15,2.56,10.72,13.43,17.39,24.15,14.82l63.93-13.69c.73-.17,1.44-.39,2.13-.64-4.67-6.01-9.92-12.26-15.83-18.61-3.35-3.61-6.68-6.99-9.96-10.17Z"/>
        <path class="cls-3" d="M513.13,623.22l-9.54,2.04c-10.72,2.56-21.59-4.11-24.15-14.82-2.56-10.72,4.11-21.59,14.82-24.15l16.47-3.53c15.47-3.31,31.55-2.32,46.5,2.87l7.49,2.6"/>
        <path class="cls-21" d="M595.21,643.13h0c.37-11.01-8.35-20.33-19.36-20.69l-65.27-3.73c-11.01-.37-20.33,8.35-20.69,19.36h0c-.37,11.01,8.35,20.33,19.36,20.69l65.27,3.73c11.01.37,20.33-8.35,20.69-19.36Z"/>
        <path class="cls-3" d="M522.33,615.15c-5.5,1.01-11.01,2.02-16.51,3.03-1.89.32-4.86,1.09-7.79,3.18-5.87,4.17-8.29,11.24-8.14,16.71.26,9.31,8.08,18.14,19.36,20.69"/>
        <path class="cls-21" d="M600.26,674.86h0c.47-11.01-8.15-20.4-19.16-20.87l-65.22-4.73c-11.01-.47-20.4,8.15-20.87,19.16h0c-.47,11.01,8.15,20.4,19.16,20.87l65.22,4.73c11.01.47,20.4-8.15,20.87-19.16Z"/>
        <path class="cls-3" d="M528.53,645.41c-9.73.79-16.66,3.32-20.85,5.24-3.03,1.39-4.71,2.5-6.19,3.89-4.96,4.64-6.14,10.84-6.48,13.89h0c-.47,11.01,8.15,20.4,19.16,20.87,17.93,1.36,35.86,2.71,53.79,4.07"/>
        <path class="cls-21" d="M582.4,702.64h0c.37-11.01-8.35-20.33-19.36-20.69l-39.5-2.88c-11.01-.37-20.33,8.35-20.69,19.36h0c-.37,11.01,8.35,20.33,19.36,20.69l39.5,2.88c11.01.37,20.33-8.35,20.69-19.36Z"/>
        <path class="cls-3" d="M531.41,719.9l-9.2-.77c-10.68-1.07-19.01-9.97-19.36-20.69-.35-10.71,7.35-20.13,17.92-21.92,4.45-.78,8.9-1.57,13.34-2.35"/>
      </g>
      <g>
        <g>
          <path class="cls-18" d="M1194.79,784.93c-75.94,112.81-185.56,251.11-262.53,366.73-21.22,31.88-63.39,42.07-96.83,23.41h0c-35.45-19.78-48.1-64.59-28.22-99.99l226.95-396.09c30.09-46.53,93.16-58.09,137.8-25.26h0c41.55,30.56,51.63,88.42,22.83,131.2Z"/>
          <path class="cls-18" d="M903.39,865.88l-113.06,199.73c-20.17,35.92-14.02,81.42,14.95,110.66h0c6.11,6.17,13.08,11.45,20.72,15.71,41.98,23.43,95.73,10.43,122.37-29.59,73.08-109.79,186.24-253.41,262.47-366.65,30.65-45.53,24.88-106.84-13.72-145.79-4.23-4.26-8.83-8.24-13.7-11.82"/>
          <path class="cls-6" d="M903.39,865.88l-113.06,199.73c-20.17,35.92-14.02,81.42,14.95,110.66h0c6.11,6.17,13.08,11.45,20.72,15.71,41.98,23.43,95.73,10.43,122.37-29.59,69.64-104.61,175.66-239.95,251.45-350.44"/>
          <g>
            <path class="cls-18" d="M816.62,1187.28c48.32,31.58,113.1,18.02,144.69-30.31,22.69-34.72,24-79.19,1.9-111.17-3.91-5.66-9.49-11.79-15.49-19.94l-309.09-329.91-86.97,57.06,226.03,387.83,12.66,21.72c6.77,9.67,15.81,17.88,26.26,24.71Z"/>
            <polyline class="cls-2" points="888.32 962.46 638.63 695.95 551.67 753.01 777.7 1140.84 790.36 1162.56"/>
          </g>
          <path class="cls-18" d="M1183.43,638.14c-25.93-19.07-57.65-26.38-89.31-20.57-31.66,5.8-58.72,23.89-76.2,50.92l-.33.51-114.19,196.9"/>
        </g>
        <polyline class="cls-6" points="867.79 927.27 1017.58 668.99 1017.91 668.48"/>
      </g>
    </g>
    <path class="cls-11" d="M1196.53,91.53l3.74,12.33c1.77,5.84,5.98,10.63,11.54,13.13l8.9,4.01-8.9,4.01c-5.56,2.51-9.77,7.3-11.54,13.13l-3.74,12.33-3.74-12.33c-1.77-5.84-5.98-10.63-11.54-13.13l-8.9-4.01,8.9-4.01c5.56-2.51,9.77-7.3,11.54-13.13l3.74-12.33Z"/>
    <path class="cls-11" d="M317.59,188.92l6.96,22.93c3.3,10.86,11.13,19.77,21.47,24.43l16.56,7.47-16.56,7.47c-10.35,4.67-18.17,13.57-21.47,24.43l-6.96,22.93-6.96-22.93c-3.3-10.86-11.13-19.77-21.47-24.43l-16.56-7.47,16.56-7.47c10.35-4.67,18.17-13.57,21.47-24.43l6.96-22.93Z"/>
    <path class="cls-11" d="M1101.48,116.14l8.77,28.87c4.15,13.67,14.01,24.88,27.03,30.76l20.85,9.4-20.85,9.4c-13.03,5.87-22.88,17.09-27.03,30.76l-8.77,28.87-8.77-28.87c-4.15-13.67-14.01-24.88-27.03-30.76l-20.85-9.4,20.85-9.4c13.03-5.87,22.88-17.09,27.03-30.76l8.77-28.87Z"/>
  </g>
</svg>