<?xml version="1.0" encoding="UTF-8"?>
<svg id="Layer_1" data-name="Layer 1" xmlns="http://www.w3.org/2000/svg" xmlns:xlink="http://www.w3.org/1999/xlink" viewBox="0 0 1440 1080">
  <defs>
    <style>
      .cls-1, .cls-2, .cls-3, .cls-4, .cls-5, .cls-6, .cls-7, .cls-8, .cls-9, .cls-10, .cls-11, .cls-12, .cls-13, .cls-14, .cls-15, .cls-16 {
        fill: none;
      }

      .cls-2 {
        stroke-width: 2.94px;
      }

      .cls-2, .cls-3, .cls-4, .cls-5, .cls-6, .cls-7, .cls-8, .cls-9, .cls-10, .cls-11, .cls-12, .cls-13, .cls-15, .cls-16 {
        stroke: #060a25;
      }

      .cls-2, .cls-3, .cls-4, .cls-5, .cls-6, .cls-7, .cls-8, .cls-9, .cls-10, .cls-11, .cls-12, .cls-13, .cls-16 {
        stroke-miterlimit: 10;
      }

      .cls-3 {
        stroke-width: 2.65px;
      }

      .cls-4 {
        stroke-width: 2.79px;
      }

      .cls-5 {
        stroke-width: 2.45px;
      }

      .cls-6 {
        stroke-width: 2.5px;
      }

      .cls-17 {
        fill: #3b6aad;
      }

      .cls-18 {
        fill: #d0dce6;
      }

      .cls-19 {
        fill: #f28181;
      }

      .cls-20 {
        fill: #7db0f2;
      }

      .cls-7 {
        stroke-width: 2.31px;
      }

      .cls-21 {
        fill: #ffc83c;
      }

      .cls-22 {
        fill: #0d2243;
      }

      .cls-23 {
        fill: #a2cdfb;
      }

      .cls-24 {
        fill: #f4b39f;
      }

      .cls-25 {
        fill: #fff;
      }

      .cls-8 {
        stroke-width: 3.93px;
      }

      .cls-8, .cls-9, .cls-10, .cls-11, .cls-12, .cls-13, .cls-14, .cls-15, .cls-16 {
        stroke-linecap: round;
      }

      .cls-9 {
        stroke-width: 4.03px;
      }

      .cls-10 {
        stroke-width: 4.73px;
      }

      .cls-11 {
        stroke-width: 4.73px;
      }

      .cls-12 {
        stroke-width: 4.09px;
      }

      .cls-26 {
        fill: #fdb1d0;
      }

      .cls-27 {
        fill: #fbfffe;
      }

      .cls-13 {
        stroke-width: 3.15px;
      }

      .cls-14 {
        stroke: #00254a;
        stroke-width: 3px;
      }

      .cls-14, .cls-15 {
        stroke-linejoin: round;
      }

      .cls-28 {
        fill: #060a25;
      }

      .cls-15 {
        stroke-width: 5.15px;
      }

      .cls-29 {
        fill: #f3f3f1;
      }

      .cls-30 {
        fill: #fc2e6a;
      }

      .cls-31 {
        clip-path: url(#clippath);
      }

      .cls-32 {
        fill: #f4b2a0;
      }

      .cls-16 {
        stroke-width: 1.96px;
      }
    </style>
    <clipPath id="clippath">
      <rect class="cls-1" width="1440" height="1080"/>
    </clipPath>
  </defs>
  <rect class="cls-26" x="141.88" y="212.81" width="1156.25" height="867.19" rx="137.6" ry="137.6"/>
  <g class="cls-31">
    <g>
      <g>
        <path class="cls-29" d="M655.72,940.28l-358.32,279.83c-27.38,33.46-73.97,41.81-110.87,19.88-46.52-27.65-58.99-91.4-26.45-135.24l315.65-328.83c32.68-44.04,115.24-21.92,159.66,9.71,49.63,35.35,59.1,107.29,20.35,154.65Z"/>
        <line class="cls-6" x1="407.68" y1="846.71" x2="196.15" y2="1067.17"/>
      </g>
      <g>
        <path class="cls-32" d="M911.94,203.73l9.63-82.76h.01c-.12-3.93,1.74-7.83,5.29-10.11,5.38-3.46,12.54-1.91,16.01,3.46.81,1.25,1.33,2.6,1.61,3.97h0s15.29,76.46,15.29,76.46c7.86,12.2,4.35,28.47-7.86,36.34s-28.47,4.35-36.34-7.86c-3.87-6.01-4.98-13.01-3.65-19.5Z"/>
        <path class="cls-16" d="M911.94,203.73l9.63-82.76h.01c-.12-3.93,1.74-7.83,5.29-10.11,5.38-3.46,12.54-1.91,16.01,3.46.81,1.25,1.33,2.6,1.61,3.97h0s14.91,74.06,14.91,74.06"/>
      </g>
      <path class="cls-32" d="M796.53,771.37c52.79-.26,95.36-44.41,95.08-98.6l-1.05-208.83-191.15.96,1.05,208.83c.27,54.19,43.28,97.91,96.07,97.64Z"/>
      <g>
        <path class="cls-29" d="M1369.4,532.1c-34.85-25.07-81.99-20.81-112.18,10.13l-293.84,284.93c-42.73,43.79-39.58,116.29,6.79,155.83,41.48,35.38,102.41,30.96,138.81-10.06l274.99-303.81c36.23-40.83,29.37-105.43-14.56-137.03Z"/>
        <line class="cls-6" x1="1193.13" y1="883.49" x2="1364.94" y2="691.06"/>
      </g>
      <g>
        <polygon class="cls-29" points="914.38 673.44 825.11 674.32 803.87 686.85 771.68 691.82 683.29 673.44 489.74 765.35 473.13 1582 1043.33 1582 1118.48 962.44 1180.52 616.6 980.67 709.17 914.38 673.44"/>
        <line class="cls-2" x1="487.55" y1="872.96" x2="478.9" y2="1298.28"/>
        <line class="cls-6" x1="1180.52" y1="616.6" x2="980.67" y2="709.17"/>
        <line class="cls-4" x1="1115.25" y1="972.98" x2="1042.91" y2="1582"/>
        <g>
          <path class="cls-19" d="M700.31,645.54c84.3.47,151.6-52.86,190.69-93.65l-.44-87.95-163.89.82-27.25,4.02.89,176.76Z"/>
          <g>
            <path class="cls-22" d="M778.87,743.91l13.43-14.55c7.68-8.32,5.06-21.71-5.2-26.51l-23.55-11.03-23.55,11.03c-10.26,4.8-12.88,18.19-5.2,26.51l13.43,14.55c8.25,8.94,22.38,8.94,30.63,0Z"/>
            <polygon class="cls-27" points="820.81 755.29 763.55 691.82 895.81 613.76 914.38 675.08 820.81 755.29"/>
            <polygon class="cls-27" points="706.3 755.29 763.55 691.82 695.95 613.76 677.01 675.08 706.3 755.29"/>
            <polygon class="cls-18" points="820.81 755.29 763.55 691.82 895.81 613.76 914.38 675.08 820.81 755.29"/>
            <polygon class="cls-18" points="706.3 755.29 763.55 691.82 695.95 613.76 677.01 675.08 706.3 755.29"/>
            <polygon class="cls-22" points="813.56 1382.45 763.55 1410.83 729.61 1374.4 739.26 730.3 785.94 730.3 813.56 1382.45"/>
          </g>
        </g>
      </g>
      <g>
        <path class="cls-22" d="M928.64,211.51c17.88-2.68,34.08,16.95,40.46,31.09,4.95,10.97,5.07,21.19,5.32,32.11.27,11.78-1.3,21.91-3.19,29.77-8.57,45.02-16.31,72.69-24.88,117.71-9.82,4-45.58,34.73-57.84,20.98-4.4-4.93-4.3-11.51-4.09-17.54,1-28.55,1.24-58.49.49-89.7-.46-18.93-1.25-37.35-2.34-55.24l-27.16,1.46c-2.39-5.31-2.48-9.49-2.1-12.33,1.87-13.95,19.2-26.02,43.3-28.89l14.81-19c3.48-4,9.27-9.22,17.21-10.41Z"/>
        <path class="cls-22" d="M650.95,184.19c11.41-1.9,21.95,7.62,25.2,22.7,1.91,8.87,3.41,19.67,3.47,32.03.06,11.78-1.2,21.92-2.65,29.8l-14.39,126.72c-7.32,7.07-21.27,4.13-32.43.86-5.61-1.64-9.61-6.59-10.09-12.41-3.06-37.28-6.13-74.57-9.19-111.85-.61-8.9-.52-21.06,2.37-35.07,2.65-12.86,6.84-23.3,10.58-30.92l10.92-19.16c5.4-.9,10.8-1.8,16.21-2.69Z"/>
        <path class="cls-9" d="M709.9,515.64c4.45,2.44,13.61,6.4,25.77,4.09,6.53-1.24,12.1-3.93,16.41-6.65"/>
        <path class="cls-24" d="M941.5,227.44l-8.84,184.48c-.15,3.04-.38,6.03-.66,9.02-8.78,93.98-83.6,167.38-175.82,176.1-.43.04-.86.08-1.29.12-73.77,6.56-136.19-54.03-132.64-128.01l11.43-238.49,307.82-3.22Z"/>
        <g>
          <rect class="cls-22" x="888.84" y="210.48" width="50.11" height="178.96" transform="translate(15.41 -43.41) rotate(2.74)"/>
          <path class="cls-22" d="M840.72,253.4h0c18.55.89,32.86,16.64,31.97,35.19l-.86,18.01,43.25-57-10.22-24.72-46.06-2.21-18.07,30.72Z"/>
        </g>
        <g>
          <path class="cls-22" d="M600.57,228.87c3.5,17.35,16.27,30.71,32.18,33.94,1.38.27,2.76.55,4.14.8,121.33,22.99,295.18-22.33,295.18-22.33.9-.22,1.75-.46,2.53-.79,8.94-3.39,9.86-7.19,8.8-16.49-1.76-15.67-10.97-29.18-23.92-36.09-6.97-3.7-3.34-28.27-13.41-31.92-41.68-15.13-85.1-16.55-117.13-28.77-2.05-.78-4.08-1.56-6.11-2.37-29.05-11.59-57.03-26.24-83.52-43.77l-34.92-23.12c-68.16,76.5-70.61,137.44-63.81,170.93Z"/>
          <circle class="cls-22" cx="884.01" cy="213.51" r="61.59"/>
        </g>
        <circle class="cls-28" cx="784.89" cy="379.88" r="9.51"/>
        <circle class="cls-28" cx="674.1" cy="375.19" r="9.51"/>
        <line class="cls-12" x1="834.74" y1="364.59" x2="944.68" y2="369.86"/>
        <path class="cls-11" d="M756.09,327.18s27.49,30.55,63.36,3.04"/>
        <path class="cls-10" d="M633.49,334.3c3.23,6.42,11.85,10.57,19.75,13.13,15.47,5,32.53,1.18,43.86-10.48.14-.14.28-.29.42-.43,9.9-10.42,17.67,23.13,19.72,37.36,2.01,13.97-.53,28.04-3.74,41.63-3.25,13.77-6.91,27.43-9.9,41.26l30.53,8.92"/>
        <path class="cls-8" d="M751.09,360.58s-20.06-18.82-43.19-2.07"/>
        <path class="cls-12" d="M834.56,368.41l-.83,17.32c-1.11,23.1-20.92,41.1-44.02,39.99h0c-23.1-1.11-41.1-20.92-39.99-44.02l1.01-21.13,84.01,4.03-.18,3.81Z"/>
        <path class="cls-12" d="M707.72,362.32l-.83,17.32c-1.11,23.1-20.92,41.1-44.02,39.99h0c-23.1-1.11-41.1-20.92-39.99-44.02l1.01-21.13,84.01,4.03-.18,3.81Z"/>
        <path class="cls-22" d="M835.28,254.49s-9.02,54.45,53.91,154.02c0,0,8.15-87.31,8.25-89.56.11-2.26-3.82-80.15-3.82-80.15l-33.39-19.54-24.95,35.22Z"/>
        <g>
          <circle class="cls-32" cx="921.01" cy="415.7" r="40.5"/>
          <path class="cls-5" d="M910.94,454.93c21.66,5.56,43.73-7.49,49.29-29.16,2.75-10.71.95-21.51-4.19-30.38"/>
          <path class="cls-15" d="M946,411.23s-.45,25.78-24.75,25.69"/>
        </g>
        <path class="cls-12" d="M724.41,482.54c10.19-2.58,22.11-2.12,30.49,4.9,4.96,4.15,8.3,10.18,9.21,16.58.38,2.68.26,5.68-1.5,7.74-1.79,2.1-4.86,2.69-7.58,2.24-2.72-.45-5.2-1.77-7.7-2.94-6.32-2.97-13.72-5.12-20.2-2.5"/>
        <path class="cls-13" d="M913.8,486.84c-29.06,60.72-88.45,103.65-157.63,110.19-.43.04-.86.08-1.29.12"/>
      </g>
      <g>
        <path class="cls-32" d="M914.61,173.14l-69.8-.34,36.47,79.55c4.55,5.98,9.11,11.96,13.66,17.94.41-.24,2.24-1.28,4.54-.73,3.12.74,4.26,3.73,4.35,3.97-.29,5.29-.35,12.98.88,22.19.68,5.13,1.12,8.42,2.4,12.4,3.23,10.05,9.18,16.32,17.34,24.75,4.55,4.69,10.98,10.69,19.5,16.82l11.79,7.26,42.13-37.2.11-8.86c.35-7.97.13-17.15-1.23-27.21-3.03-22.42-10.52-40.18-16.97-52.31l-29.31-43.67c-7.86-11.71-22.04-17.47-35.84-14.55Z"/>
        <g>
          <path class="cls-32" d="M932.62,278.15h0c3.41-8.45-.71-18.16-9.16-21.57l-67.27-27.9c-8.45-3.41-18.16.71-21.57,9.16h0c-3.41,8.45.71,18.16,9.16,21.57l67.27,27.9c8.45,3.41,18.16-.71,21.57-9.16Z"/>
          <path class="cls-7" d="M856.18,228.67c-8.45-3.41-18.16.71-21.57,9.16h0c-3.41,8.45.71,18.16,9.16,21.57l56.57,23.33"/>
        </g>
        <g>
          <path class="cls-32" d="M943.04,252.71h0c3.37-8.47-.79-18.15-9.26-21.53l-105.69-44.32c-8.47-3.37-18.15.79-21.53,9.26h0c-3.37,8.47.79,18.15,9.26,21.53l105.69,44.32c8.47,3.37,18.15-.79,21.53-9.26Z"/>
          <path class="cls-7" d="M828.09,186.86c-8.47-3.37-18.15.79-21.53,9.26h0c-3.37,8.47.79,18.15,9.26,21.53l79.37,33.38"/>
        </g>
        <g>
          <path class="cls-32" d="M944.22,230.21h0c3.99-8.2.54-18.16-7.65-22.15l-103.02-50.13c-8.2-3.99-18.16-.54-22.15,7.65h0c-3.99,8.2-.54,18.16,7.65,22.15l103.02,50.13c8.2,3.99,18.16.54,22.15-7.65Z"/>
          <path class="cls-7" d="M833.55,157.93c-8.2-3.99-18.16-.54-22.15,7.65h0c-3.99,8.2-.54,18.16,7.65,22.15l87.44,42.26"/>
        </g>
        <g>
          <path class="cls-32" d="M944.18,200.24h0c4.83-7.73,2.46-18-5.26-22.84l-75.96-45.06c-7.73-4.83-18-2.46-22.84,5.26h0c-4.83,7.73-2.46,18,5.26,22.84l75.96,45.06c7.73,4.83,18,2.46,22.84-5.26Z"/>
          <path class="cls-7" d="M862.96,132.34c-7.73-4.83-18-2.46-22.84,5.26h0c-4.83,7.73-2.46,18,5.26,22.84l66.53,38.71"/>
        </g>
      </g>
      <g>
        <path class="cls-29" d="M1234.37,669.79l-327.38-323.38,84.99-102.45,373.34,282.63c42.65,31.8,51.94,91.91,20.88,135.1h0c-36.39,50.6-110.26,54.54-151.83,8.1Z"/>
        <polyline class="cls-6" points="1195.94 631.83 906.99 346.41 991.98 243.96"/>
      </g>
      <g>
        <g>
          <path class="cls-17" d="M573.32,772.56l-148.04-7.82c-3.89-.21-7.2-2.92-8.15-6.7l-64.5-255.67c-1.47-5.81,3.11-11.37,9.09-11.06l144.29,7.63c6.12.32,11.32,4.6,12.82,10.54l63.59,252.02c1.47,5.81-3.11,11.37-9.09,11.06Z"/>
          <polygon class="cls-17" points="580.82 769.11 566.73 781.92 340.92 506.63 353.86 495.24 498.51 506.41 580.82 769.11"/>
          <path class="cls-20" d="M559.78,784.74l-148.04-7.82c-3.89-.21-7.2-2.92-8.15-6.7l-64.5-255.67c-1.47-5.81,3.11-11.37,9.09-11.06l144.29,7.63c6.12.32,11.32,4.6,12.82,10.54l63.59,252.02c1.47,5.81-3.11,11.37-9.09,11.06Z"/>
          <circle class="cls-17" cx="480.03" cy="540.42" r="13.08"/>
        </g>
        <g>
          <path class="cls-32" d="M402.85,606.09l54.4,7.74-9.64,81.44c-4.81,7.28-9.62,14.56-14.44,21.84-.49-.25-2.7-1.31-5.31-.5-3.56,1.1-4.65,4.66-4.73,4.94.74,6.1,1.41,15.01.7,25.77-.39,6-.65,9.84-1.82,14.55-2.96,11.89-9.37,19.62-18.17,30.02-4.9,5.79-11.89,13.24-21.28,21l-13.1,9.32-51.7-39.83-.81-10.26c-1.02-9.21-1.48-19.86-.68-31.62,1.77-26.2,9.07-47.37,15.61-61.92l30.57-52.87c8.2-14.17,24.18-21.95,40.39-19.64Z"/>
          <g>
            <path class="cls-32" d="M388.41,718.96h0c-4.24-8.76-.54-19.4,8.23-23.64l62.34-31.69c8.76-4.24,19.4-.54,23.64,8.23h0c4.24,8.76.54,19.4-8.23,23.64l-62.34,31.69c-8.76,4.24-19.4.54-23.64-8.23Z"/>
            <path class="cls-3" d="M458.98,663.63c8.76-4.24,19.4-.54,23.64,8.23h0c4.24,8.76.54,19.4-8.23,23.64l-51.26,26.06"/>
          </g>
          <g>
            <path class="cls-32" d="M375.49,692.59h0c-4.2-8.78-.45-19.41,8.33-23.6l83.03-41.23c8.78-4.2,19.41-.45,23.6,8.33h0c4.2,8.78.45,19.41-8.33,23.6l-83.03,41.23c-8.78,4.2-19.41.45-23.6-8.33Z"/>
            <path class="cls-3" d="M466.86,627.76c8.78-4.2,19.41-.45,23.6,8.33h0c4.2,8.78.45,19.41-8.33,23.6l-55.76,27.69"/>
          </g>
          <g>
            <path class="cls-32" d="M372.63,668.69h0c-4.83-8.45-1.88-19.32,6.58-24.15l79.78-47.23c8.45-4.83,19.32-1.88,24.15,6.58h0c4.83,8.45,1.88,19.32-6.58,24.15l-79.78,47.23c-8.45,4.83-19.32,1.88-24.15-6.58Z"/>
            <path class="cls-3" d="M458.98,597.31c8.45-4.83,19.32-1.88,24.15,6.58h0c4.83,8.45,1.88,19.32-6.58,24.15l-63.74,37.73"/>
          </g>
          <g>
            <path class="cls-32" d="M370.53,636.76h0c-5.7-7.89-3.91-19.01,3.98-24.71l74.33-55.41c7.89-5.7,19.01-3.91,24.71,3.98h0c5.7,7.89,3.91,19.01-3.98,24.71l-74.33,55.41c-7.89,5.7-19.01,3.91-24.71-3.98Z"/>
            <path class="cls-3" d="M448.84,556.64c7.89-5.7,19.01-3.91,24.71,3.98h0c5.7,7.89,3.91,19.01-3.98,24.71l-64.73,47.96"/>
          </g>
        </g>
        <g>
          <circle class="cls-25" cx="231.06" cy="1164.26" r="89.17"/>
          <polygon class="cls-29" points="308.47 752.28 420.42 793.59 312.95 1194.73 146.13 1133.17 308.47 752.28"/>
          <line class="cls-2" x1="420.42" y1="793.59" x2="322.98" y2="1157.86"/>
        </g>
      </g>
    </g>
  </g>
  <g>
    <path class="cls-30" d="M394.52,424.3l-151.89,65.21c-18.95,8.14-39.48-7.67-36.45-28.07l23.1-155.69c2.88-19.39,25.16-28.96,41.2-17.69l128.79,90.47c16.88,11.86,14.2,37.63-4.75,45.76Z"/>
    <path class="cls-14" d="M378.62,364.04l20.64,14.5c16.88,11.86,14.2,37.63-4.75,45.76l-151.89,65.21c-18.95,8.14-39.48-7.67-36.45-28.07l23.1-155.69c1.35-9.07,6.94-15.99,14.15-19.63"/>
    <circle cx="300.98" cy="415.94" r="11.72"/>
    <path d="M264.27,330.43h0c-6.67,2.86-9.61,10.7-6.48,17.24l21.51,44.92c2.48,5.18,8.61,7.48,13.89,5.22,5.28-2.27,7.83-8.3,5.78-13.67l-17.75-46.53c-2.59-6.78-10.29-10.04-16.96-7.18Z"/>
  </g>
  <g>
    <g>
      <path class="cls-21" d="M1197.64,237.55c-1.22,3.29-2.91,5.99-5.07,8.09-2.16,2.1-4.59,3.65-7.29,4.63-2.7.99-5.57,1.41-8.59,1.26-3.03-.15-6.03-.83-8.99-2.04-2.96-1.21-5.48-2.89-7.54-5.03-2.06-2.15-3.64-4.54-4.72-7.19-1.09-2.65-1.69-5.46-1.8-8.44-.12-2.98.34-5.94,1.38-8.87,1.74-5.05,3.7-9.2,5.87-12.46,2.17-3.26,4.83-6.21,7.98-8.85,3.15-2.64,6.94-5.21,11.38-7.72,4.44-2.51,9.76-5.54,15.96-9.1,4.39-2.19,8.74-4.58,13.08-7.15,4.33-2.58,8.39-5.41,12.16-8.48,3.78-3.08,7.09-6.5,9.95-10.26,2.86-3.76,4.99-8.01,6.39-12.75,1.06-3.59,1.67-7.27,1.83-11.04.16-3.77-.34-7.35-1.5-10.72-1.16-3.37-3.05-6.38-5.67-9.03-2.62-2.65-6.22-4.64-10.81-6-5.35-1.58-10.12-2.22-14.32-1.93-4.2.3-7.93,1.33-11.2,3.1-3.27,1.77-6.08,4.2-8.44,7.28-2.37,3.08-4.39,6.61-6.06,10.6-1.16,2.81-2.86,5.18-5.09,7.09-2.23,1.92-4.72,3.32-7.47,4.2-2.75.89-5.66,1.25-8.73,1.09-3.07-.16-6.02-.91-8.86-2.25-2.84-1.34-5.25-3.11-7.21-5.31-1.97-2.2-3.45-4.63-4.44-7.29-1-2.66-1.43-5.47-1.31-8.42.13-2.95.85-5.81,2.16-8.58,3.59-7.66,8.11-14.42,13.54-20.29,5.43-5.87,11.78-10.49,19.05-13.86,7.27-3.37,15.43-5.28,24.49-5.71,9.06-.44,19.04.96,29.96,4.19,11.15,3.3,20.87,7.78,29.16,13.42,8.29,5.65,14.9,12.15,19.83,19.51,4.93,7.36,8.04,15.42,9.35,24.19,1.31,8.78.56,17.9-2.24,27.37-2.3,7.79-5.27,14.38-8.91,19.79-3.63,5.4-7.76,10.16-12.38,14.27-4.62,4.11-9.74,7.85-15.34,11.22-5.61,3.37-11.48,6.88-17.63,10.54-4.4,2.52-8.27,4.64-11.6,6.35-3.33,1.71-6.26,3.47-8.78,5.25-2.52,1.79-4.73,3.85-6.63,6.2-1.9,2.35-3.53,5.39-4.88,9.14Z"/>
      <path class="cls-21" d="M1136.56,276.4c.93-3.13,2.39-5.9,4.39-8.29,2-2.4,4.35-4.32,7.06-5.76,2.71-1.44,5.65-2.33,8.83-2.68,3.17-.35,6.37-.05,9.57.9,3.21.95,6.05,2.43,8.52,4.45,2.47,2.02,4.46,4.37,5.95,7.05,1.49,2.68,2.44,5.58,2.85,8.69.41,3.11.15,6.23-.78,9.36-.95,3.21-2.44,6-4.48,8.39-2.04,2.39-4.4,4.28-7.1,5.68-2.7,1.4-5.64,2.28-8.81,2.62-3.18.35-6.37.05-9.57-.9-3.21-.95-6.05-2.43-8.52-4.45-2.48-2.02-4.46-4.35-5.96-7-1.5-2.64-2.44-5.52-2.81-8.62-.37-3.1-.08-6.25.87-9.46Z"/>
    </g>
    <g>
      <path class="cls-14" d="M1138.81,111.62c.35-1.93.96-3.82,1.84-5.66,3.59-7.66,8.11-14.42,13.54-20.29,5.43-5.87,11.78-10.49,19.05-13.86,7.27-3.37,15.43-5.28,24.49-5.71,9.06-.44,19.04.96,29.96,4.19,11.15,3.3,20.87,7.78,29.16,13.42,8.29,5.65,14.9,12.15,19.83,19.51,4.93,7.36,8.04,15.42,9.35,24.19,1.31,8.78.56,17.9-2.24,27.37-2.3,7.79-5.27,14.38-8.91,19.79-3.63,5.4-7.76,10.16-12.38,14.27-4.62,4.11-9.74,7.85-15.34,11.22-5.61,3.37-11.48,6.88-17.63,10.54-4.4,2.52-8.27,4.64-11.6,6.35-3.33,1.71-6.26,3.47-8.78,5.25-2.52,1.79-4.73,3.85-6.63,6.2-1.38,1.7-2.61,3.77-3.7,6.21"/>
      <path class="cls-14" d="M1155.01,219.95c1.74-5.05,3.7-9.2,5.87-12.46,2.17-3.26,4.83-6.21,7.98-8.85,3.15-2.64,6.94-5.21,11.38-7.72,4.44-2.51,9.76-5.54,15.96-9.1,4.39-2.19,8.74-4.58,13.08-7.15,4.33-2.58,8.39-5.41,12.16-8.48,3.78-3.08,7.09-6.5,9.95-10.26,2.86-3.76,4.99-8.01,6.39-12.75,1.06-3.59,1.67-7.27,1.83-11.04.16-3.77-.34-7.35-1.5-10.72-1.16-3.37-3.05-6.38-5.67-9.03-2.62-2.65-6.22-4.64-10.81-6-5.35-1.58-10.12-2.22-14.32-1.93-4.2.3-7.93,1.33-11.2,3.1-3.27,1.77-6.08,4.2-8.44,7.28-.71.93-1.39,1.89-2.04,2.9"/>
      <path class="cls-14" d="M1136.56,276.4c.93-3.13,2.39-5.9,4.39-8.29,2-2.4,4.35-4.32,7.06-5.76,2.71-1.44,5.65-2.33,8.83-2.68,3.17-.35,6.37-.05,9.57.9,3.21.95,6.05,2.43,8.52,4.45,2.47,2.02,4.46,4.37,5.95,7.05,1.49,2.68,2.44,5.58,2.85,8.69.41,3.11.15,6.23-.78,9.36-.95,3.21-2.44,6-4.48,8.39-2.04,2.39-4.4,4.28-7.1,5.68-2.7,1.4-5.64,2.28-8.81,2.62-3.18.35-6.37.05-9.57-.9-3.21-.95-6.05-2.43-8.52-4.45-2.48-2.02-4.46-4.35-5.96-7-1.5-2.64-2.44-5.52-2.81-8.62-.37-3.1-.08-6.25.87-9.46Z"/>
    </g>
  </g>
  <g>
    <path class="cls-23" d="M496.64,273.97c-1.13-2.14-1.79-4.36-1.97-6.67-.18-2.31.07-4.54.76-6.71.69-2.17,1.79-4.16,3.29-5.99,1.5-1.83,3.35-3.32,5.54-4.48,2.19-1.16,4.47-1.84,6.82-2.05,2.36-.21,4.63,0,6.81.66,2.18.65,4.18,1.7,6.01,3.13,1.83,1.44,3.31,3.23,4.44,5.37,1.16,2.19,1.81,4.45,1.97,6.77.16,2.32-.12,4.55-.82,6.69-.7,2.14-1.81,4.13-3.31,5.95-1.5,1.83-3.35,3.32-5.54,4.48-2.19,1.16-4.47,1.84-6.82,2.05-2.36.21-4.62,0-6.78-.62-2.17-.62-4.15-1.66-5.95-3.11-1.8-1.45-3.28-3.27-4.44-5.46Z"/>
    <path class="cls-23" d="M510.07,138.94c2.34,4.7,3.82,9.17,4.4,13.44.59,4.26.62,8.37.1,12.32-.52,3.94-1.39,7.72-2.58,11.31-1.2,3.61-2.35,7.1-3.43,10.47-1.06,3.03-2.09,6.01-3.09,8.95-.98,2.93-1.68,5.87-2.08,8.85-.39,2.98-.37,6.03.07,9.13.45,3.11,1.54,6.33,3.31,9.67l6,11.55-25.67,13.56-7.03-13.52c-2.16-4.46-3.48-8.79-3.98-13.01-.48-4.21-.5-8.26-.05-12.13.45-3.87,1.22-7.64,2.31-11.28,1.07-3.64,2.09-7.14,3.04-10.53.79-2.69,1.64-5.53,2.54-8.55.91-3.01,1.57-6.11,1.99-9.3.42-3.19.44-6.39.04-9.58-.39-3.2-1.48-6.33-3.29-9.38-2.05-2.99-4.35-5.49-6.9-7.47-2.56-1.98-5.29-3.4-8.2-4.23-2.91-.84-5.98-1.03-9.22-.6-3.23.45-6.57,1.58-10.02,3.4-4.7,2.48-8.23,5.54-10.61,9.21-2.37,3.65-3.81,7.64-4.28,11.97-.48,4.33-.11,8.87,1.14,13.62.43,1.64.93,3.25,1.52,4.88l-28.04,8.26c-1.13-3.43-1.97-6.88-2.52-10.31-1.32-8.31-1.02-16.21.9-23.69,1.92-7.49,5.41-14.36,10.48-20.65,5.06-6.28,11.61-11.54,19.64-15.78,7.26-3.83,14.44-6.34,21.57-7.5,7.13-1.16,13.9-.95,20.31.64,6.41,1.58,12.31,4.56,17.73,8.94,5.42,4.39,10.06,10.16,13.91,17.34Z"/>
  </g>
</svg>