<?xml version="1.0" encoding="UTF-8"?>
<svg id="Layer_1" data-name="Layer 1" xmlns="http://www.w3.org/2000/svg" viewBox="0 0 600 800">
  <defs>
    <style>
      .cls-1 {
        fill: #accdf8;
      }

      .cls-2 {
        fill: #fff;
        stroke: #ddeafd;
        stroke-miterlimit: 10;
        stroke-width: 2.36px;
      }

      .cls-3 {
        fill: #ddeafd;
      }

      .cls-4 {
        fill: #193d70;
      }
    </style>
  </defs>
  <rect class="cls-1" x="-17.34" y="17.34" width="634.69" height="600" rx="30" ry="30" transform="translate(-17.34 617.34) rotate(-90)"/>
  <rect class="cls-3" x="-17.34" y="182.66" width="634.69" height="600" rx="30" ry="30" transform="translate(-182.66 782.66) rotate(-90)"/>
  <g>
    <path class="cls-4" d="M192.92,203.39l-1.48-2.51c2.3-2.87,5.26-4.31,8.88-4.31,2.54,0,4.49.56,5.86,1.68,1.37,1.12,2.05,2.68,2.05,4.69v9.86h-4.49v-9.5c0-2.16-1.14-3.25-3.42-3.25-.85,0-1.6.12-2.26.35-.66.24-1.27.62-1.84,1.15l1.15,1.89v9.35h-4.46v-9.41Z"/>
    <path class="cls-4" d="M213.68,212.9c-1.19-.23-2.13-.57-2.82-1.02v-3.42c.87.51,1.83.91,2.91,1.18s2.04.41,2.91.41c1.04,0,1.8-.1,2.29-.31.48-.21.72-.58.72-1.11,0-.47-.23-.84-.69-1.09-.46-.25-1.32-.58-2.58-.97l-.74-.24c-1.69-.53-2.94-1.17-3.75-1.92-.81-.75-1.21-1.77-1.21-3.07,0-1.51.61-2.69,1.83-3.53,1.22-.84,2.86-1.25,4.93-1.25,1.12,0,2.2.12,3.25.35,1.04.24,1.88.54,2.51.92v3.51c-.63-.43-1.41-.78-2.35-1.05-.93-.27-1.85-.4-2.76-.4-1.91,0-2.86.48-2.86,1.45,0,.47.23.84.68,1.09.45.26,1.26.56,2.42.91l1.06.33c1.24.39,2.21.83,2.91,1.3.7.47,1.19,1,1.46,1.59.28.59.41,1.31.41,2.15,0,1.36-.59,2.45-1.76,3.28s-2.92,1.24-5.24,1.24c-1.16,0-2.34-.11-3.53-.34Z"/>
    <path class="cls-4" d="M219.72,217.99c0-.35-.07-.6-.21-.75s-.38-.22-.74-.22h-.97v-2.83h3.1c1.06,0,1.8.22,2.2.65s.6,1.18.6,2.24v3.81h-3.98v-2.89Z"/>
    <path class="cls-4" d="M239.28,211.53c-1.02-1.14-1.53-2.6-1.53-4.37v-3.87c0-1.1-.26-1.92-.77-2.45-.51-.53-1.3-.8-2.36-.8-.79,0-1.48.12-2.08.35-.6.24-1.18.62-1.73,1.15l1.15,1.89v4.63c0,.47.11.81.32,1,.22.2.57.29,1.06.29h1.5v3.42h-3.95c-1.08,0-1.92-.31-2.51-.93-.59-.62-.89-1.48-.89-2.58v-5.9l-1.48-2.51c1.12-1.4,2.38-2.46,3.78-3.2,1.4-.74,3-1.11,4.81-1.11,2.44,0,4.31.57,5.61,1.7,1.3,1.13,1.95,2.69,1.95,4.68v3.95c0,1.91.94,2.86,2.83,2.86.75,0,1.42-.18,2.01-.55s1.07-.89,1.45-1.58v-10.62h4.46v15.79h-4.22v-1.74c-.65.73-1.41,1.27-2.27,1.64-.87.36-1.8.55-2.8.55-1.87,0-3.32-.57-4.34-1.71Z"/>
    <path class="cls-4" d="M260.77,202.97c0-1.02-.22-1.76-.65-2.23-.43-.46-1.19-.69-2.27-.69s-2.1.27-3.16.8v-3.39c.47-.24,1.11-.44,1.9-.62s1.57-.27,2.32-.27c2.07,0,3.64.55,4.72,1.65,1.08,1.1,1.62,2.7,1.62,4.78v9.8h-4.49v-9.83Z"/>
    <path class="cls-4" d="M269.86,211.22c-1.42-1.35-2.12-3.33-2.12-5.95,0-1.79.26-3.34.77-4.65.51-1.31,1.23-2.31,2.17-3.01.93-.7,2.01-1.05,3.23-1.05.73,0,1.36.14,1.9.41.54.28.98.66,1.31,1.15.37-.53.89-.92,1.55-1.18s1.4-.38,2.23-.38c1.5,0,2.66.46,3.48,1.37.83.92,1.24,2.12,1.24,3.62v11.24h-4.46v-10.8c0-.67-.1-1.16-.31-1.48-.21-.31-.56-.47-1.05-.47-.87,0-1.41.53-1.62,1.59h-2.1c-.14-1.06-.6-1.59-1.39-1.59-.71,0-1.28.44-1.71,1.33-.43.88-.65,2.18-.65,3.89,0,1.54.33,2.67.99,3.39.66.73,1.71,1.09,3.14,1.09.75,0,1.42-.11,2.01-.33v3.42c-.77.26-1.71.38-2.83.38-2.44,0-4.37-.67-5.78-2.02Z"/>
    <path class="cls-4" d="M276.7,192.2v-2.15h4.01v1.45c0,.28.05.47.16.58.11.11.31.16.6.16h6.73v2.83h-8.68c-1.89,0-2.83-.95-2.83-2.86Z"/>
    <path class="cls-4" d="M279.74,186.98c0-.22-.03-.36-.1-.44-.07-.08-.22-.12-.46-.12h-1.27v-2.86h2.66c1.26,0,1.89.54,1.89,1.62v.77h5.02v2.63h-7.73v-1.59Z"/>
    <path class="cls-4" d="M288.12,198.99h4.46l3.36,10.48c1.46,0,2.58-.44,3.36-1.31.79-.88,1.18-2.12,1.18-3.73,0-1.46-.28-2.55-.83-3.28s-1.4-1.09-2.54-1.09c-.63,0-1.26.1-1.89.29v-3.36c.83-.28,1.76-.41,2.8-.41,2.34,0,4.1.68,5.27,2.05,1.17,1.37,1.76,3.3,1.76,5.8,0,1.75-.38,3.26-1.15,4.51-.77,1.26-1.81,2.22-3.11,2.88-1.31.66-2.74.99-4.29.99h-3.95l-4.43-13.81Z"/>
    <path class="cls-4" d="M309.94,212.9c-1.19-.23-2.13-.57-2.82-1.02v-3.42c.87.51,1.83.91,2.91,1.18s2.04.41,2.91.41c1.04,0,1.8-.1,2.29-.31.48-.21.72-.58.72-1.11,0-.47-.23-.84-.69-1.09-.46-.25-1.32-.58-2.58-.97l-.74-.24c-1.69-.53-2.94-1.17-3.75-1.92-.81-.75-1.21-1.77-1.21-3.07,0-1.51.61-2.69,1.83-3.53,1.22-.84,2.86-1.25,4.93-1.25,1.12,0,2.2.12,3.25.35,1.04.24,1.88.54,2.51.92v3.51c-.63-.43-1.41-.78-2.35-1.05-.93-.27-1.85-.4-2.76-.4-1.91,0-2.86.48-2.86,1.45,0,.47.23.84.68,1.09.45.26,1.26.56,2.42.91l1.06.33c1.24.39,2.21.83,2.91,1.3.7.47,1.19,1,1.46,1.59.28.59.41,1.31.41,2.15,0,1.36-.59,2.45-1.76,3.28s-2.92,1.24-5.24,1.24c-1.16,0-2.34-.11-3.53-.34Z"/>
    <path class="cls-4" d="M322.94,197.01h4.49v5.7l5.99-5.7h5.11l-4.25,4.04c1.53.43,2.61,1.1,3.23,2.01.62.91.93,2.11.93,3.6v6.14h-4.49v-5.75c0-1-.17-1.75-.52-2.24-.34-.49-.97-.85-1.87-1.06l-4.13,3.87v5.19h-4.49v-15.79Z"/>
    <path class="cls-4" d="M329.52,192.2v-2.15h4.01v1.45c0,.28.05.47.16.58.11.11.31.16.6.16h6.73v2.83h-8.68c-1.89,0-2.83-.95-2.83-2.86Z"/>
    <path class="cls-4" d="M342.55,211.88c-1.07-.9-1.61-2.18-1.61-3.84s.58-2.95,1.76-3.9c1.17-.94,2.78-1.42,4.82-1.42,1.91,0,3.54.31,4.9.94v-.62c0-1.06-.35-1.85-1.05-2.36-.7-.51-1.83-.77-3.38-.77-.96,0-1.91.1-2.83.29-.92.2-1.75.47-2.48.83v-3.36c.65-.31,1.54-.58,2.69-.8,1.14-.22,2.29-.33,3.45-.33,1.32,0,2.55.2,3.69.59l1.15-1.33h4.87l-2.92,3.39c.85.96,1.27,2.23,1.27,3.81v9.77h-4.46v-5.87c-1.14-.59-2.48-.89-4.01-.89-1,0-1.74.17-2.2.5-.46.33-.69.86-.69,1.56,0,.65.21,1.14.63,1.46.42.33,1.1.49,2.02.49.65,0,1.2-.1,1.65-.29v3.1c-.77.26-1.75.38-2.95.38-1.81,0-3.25-.45-4.32-1.36Z"/>
    <path class="cls-4" d="M360.36,200.64c0-1.16.31-2.06.94-2.69.63-.63,1.52-.94,2.69-.94h3.19v3.45h-1.06c-.47,0-.81.1-1,.29-.2.2-.3.55-.3,1.06v5.13l2.98-4.54h1.56l2.98,4.54v-9.95h4.43v15.79h-4.01l-4.19-6.37-4.19,6.37h-4.01v-12.16Z"/>
    <path class="cls-4" d="M372.31,189.81h4.49v5.25h-4.49v-5.25Z"/>
    <path class="cls-4" d="M384.62,202.97c0-1.02-.22-1.76-.65-2.23-.43-.46-1.19-.69-2.27-.69s-2.1.27-3.16.8v-3.39c.47-.24,1.11-.44,1.9-.62s1.57-.27,2.32-.27c2.07,0,3.64.55,4.72,1.65,1.08,1.1,1.62,2.7,1.62,4.78v9.8h-4.49v-9.83Z"/>
    <path class="cls-4" d="M395.01,212.45c-.92-.53-1.63-1.26-2.11-2.18-.48-.92-.72-1.96-.72-3.1v-10.15h4.49v9.89c0,1.91,1.01,2.86,3.04,2.86.83,0,1.54-.17,2.14-.52s1.13-.88,1.58-1.61v-10.62h4.46v15.79h-4.25v-1.77c-.69.73-1.5,1.28-2.43,1.65-.93.37-1.89.56-2.88.56-1.28,0-2.38-.27-3.31-.8Z"/>
  </g>
  <g>
    <path class="cls-2" d="M34.3,235.19h82.64v91.53H34.3c-4.91,0-8.89-3.98-8.89-8.89v-73.75c0-4.91,3.98-8.89,8.89-8.89Z"/>
    <rect class="cls-2" x="116.94" y="235.19" width="91.53" height="91.53"/>
    <rect class="cls-2" x="208.47" y="235.19" width="91.53" height="91.53"/>
    <rect class="cls-2" x="300" y="235.19" width="91.53" height="91.53"/>
    <rect class="cls-2" x="391.53" y="235.19" width="91.53" height="91.53"/>
    <path class="cls-2" d="M483.06,235.19h82.64c4.91,0,8.89,3.98,8.89,8.89v73.75c0,4.91-3.98,8.89-8.89,8.89h-82.64v-91.53h0Z"/>
  </g>
  <g>
    <rect class="cls-2" x="10.81" y="363.89" width="192.8" height="106.46"/>
    <path class="cls-4" d="M105.86,408.45l-6.94,5.03v-8.5l8.4-6.16h7.18v34.15h-8.65v-24.53Z"/>
    <rect class="cls-2" x="203.6" y="363.89" width="192.8" height="106.46"/>
    <path class="cls-4" d="M287,428.04l5.42-4.93,2.34-2.1c1.92-1.69,3.4-3.04,4.42-4.05,1.03-1.01,1.87-2.04,2.54-3.08.67-1.04,1-2.07,1-3.08,0-3.03-1.71-4.54-5.13-4.54-1.66,0-3.3.29-4.91.88s-3.1,1.4-4.47,2.44v-8.26c1.47-1.01,3.18-1.8,5.13-2.37,1.95-.57,4.04-.85,6.25-.85,2.54,0,4.74.47,6.6,1.42,1.86.95,3.27,2.25,4.25,3.91s1.47,3.53,1.47,5.62c0,2.51-.58,4.7-1.73,6.57-1.16,1.87-3.02,3.98-5.59,6.33l-4.35,3.96h12.75v7.08h-25.99v-4.93Z"/>
    <rect class="cls-2" x="396.4" y="363.89" width="192.8" height="106.46"/>
    <path class="cls-4" d="M485.05,433.17c-1.97-.36-3.66-.9-5.06-1.61v-6.84c3.29,1.5,6.61,2.25,9.97,2.25,4.53,0,6.79-1.35,6.79-4.05,0-1.37-.55-2.35-1.66-2.96-1.11-.6-2.83-.9-5.18-.9h-4.74v-6.6h4.54c1.92,0,3.41-.33,4.47-.98,1.06-.65,1.59-1.61,1.59-2.88,0-1.21-.47-2.13-1.42-2.79-.94-.65-2.28-.98-4.01-.98-3.55,0-6.78.91-9.67,2.74v-6.99c1.47-.78,3.14-1.39,5.03-1.83,1.89-.44,3.84-.66,5.86-.66,4.46,0,7.75.89,9.87,2.66,2.12,1.78,3.18,4.28,3.18,7.5,0,1.46-.35,2.85-1.05,4.15-.7,1.3-1.73,2.41-3.1,3.32,3.42,1.5,5.13,4.04,5.13,7.62,0,3.29-1.12,5.84-3.37,7.65-2.25,1.81-5.91,2.71-10.99,2.71-2.15,0-4.21-.18-6.18-.54Z"/>
    <rect class="cls-2" x="10.81" y="470.35" width="192.8" height="106.46"/>
    <path class="cls-4" d="M108.11,529.44h-15.68v-5.37l16.17-21.74h8.55v20.28h4.84v6.84h-4.84v7.04h-9.04v-7.04ZM109.43,522.6v-9.77l-7.18,9.77h7.18Z"/>
    <rect class="cls-2" x="203.6" y="470.35" width="192.8" height="106.46"/>
    <path class="cls-4" d="M291.87,536.58c-1.92-.42-3.5-1.01-4.74-1.76v-7.57c1.47.94,3.12,1.69,4.96,2.22,1.84.54,3.57.81,5.2.81,2.28,0,3.97-.44,5.08-1.32,1.11-.88,1.66-2.08,1.66-3.62s-.56-2.6-1.69-3.42-2.7-1.22-4.71-1.22c-1.14,0-2.34.11-3.59.32s-2.34.51-3.25.9l-3.32-1.91,1.37-17.69h21.89v7.08h-13.53l-.44,5.37c1.5-.39,3.09-.59,4.79-.59,3.55,0,6.33.94,8.33,2.81s3,4.57,3,8.08c0,3.81-1.29,6.78-3.86,8.92-2.57,2.13-6.35,3.2-11.33,3.2-1.95,0-3.89-.21-5.81-.63Z"/>
    <rect class="cls-2" x="396.4" y="470.35" width="192.8" height="106.46"/>
    <path class="cls-4" d="M485.54,535.33c-2.17-1.25-3.85-3.06-5.06-5.42-1.21-2.36-1.81-5.14-1.81-8.33,0-4.17.73-7.76,2.2-10.77s3.5-5.3,6.11-6.86c2.61-1.56,5.62-2.34,9.04-2.34,2.31,0,4.38.29,6.2.88v7.33c-1.43-.78-3.27-1.17-5.52-1.17-2.44,0-4.43.66-5.96,1.98-1.53,1.32-2.48,3.27-2.83,5.84.81-.85,1.94-1.51,3.37-2,1.43-.49,2.95-.73,4.54-.73,2.18,0,4.11.45,5.79,1.34,1.68.9,2.98,2.19,3.91,3.88s1.39,3.73,1.39,6.11-.53,4.39-1.59,6.23c-1.06,1.84-2.64,3.29-4.74,4.35-2.1,1.06-4.65,1.59-7.65,1.59-2.77,0-5.24-.63-7.4-1.88ZM496.7,529.05c.98-.98,1.47-2.17,1.47-3.57s-.49-2.64-1.47-3.62c-.98-.98-2.18-1.46-3.62-1.46s-2.59.5-3.57,1.49c-.98.99-1.47,2.19-1.47,3.59s.49,2.59,1.47,3.57c.98.98,2.17,1.47,3.57,1.47s2.64-.49,3.62-1.47Z"/>
    <rect class="cls-2" x="10.81" y="576.82" width="192.8" height="106.46"/>
    <path class="cls-4" d="M110.13,614.49h-15.24v-7.08h24.62v5.76l-12.95,28.39h-8.79l12.36-27.07Z"/>
    <rect class="cls-2" x="203.6" y="576.82" width="192.8" height="106.46"/>
    <path class="cls-4" d="M289.81,639.55c-2.54-1.82-3.81-4.41-3.81-7.77,0-1.92.45-3.56,1.34-4.91.9-1.35,2.09-2.35,3.59-3-1.24-.85-2.18-1.9-2.83-3.15-.65-1.25-.98-2.63-.98-4.13,0-3.13,1.16-5.56,3.49-7.3,2.33-1.74,5.46-2.61,9.4-2.61s7.07.87,9.38,2.61c2.31,1.74,3.47,4.18,3.47,7.3,0,1.53-.33,2.92-.98,4.18-.65,1.25-1.58,2.29-2.79,3.1,1.5.62,2.69,1.61,3.57,2.98.88,1.37,1.32,3.01,1.32,4.93,0,3.36-1.26,5.94-3.79,7.77-2.52,1.82-5.92,2.74-10.19,2.74s-7.67-.91-10.21-2.74ZM303.66,634.3c.93-.86,1.39-2,1.39-3.4s-.47-2.49-1.42-3.37c-.94-.88-2.15-1.32-3.62-1.32s-2.67.44-3.62,1.32c-.95.88-1.42,2-1.42,3.37s.46,2.53,1.39,3.4c.93.86,2.14,1.29,3.64,1.29s2.71-.43,3.64-1.29ZM303.17,620.6c.83-.78,1.25-1.78,1.25-2.98s-.42-2.21-1.25-3c-.83-.8-1.88-1.2-3.15-1.2s-2.31.39-3.13,1.17c-.81.78-1.22,1.79-1.22,3.03s.41,2.2,1.22,2.98c.81.78,1.86,1.17,3.13,1.17s2.32-.39,3.15-1.17Z"/>
    <rect class="cls-2" x="396.4" y="576.82" width="192.8" height="106.46"/>
    <path class="cls-4" d="M483.37,641.46v-7.33c1.5.78,3.34,1.17,5.52,1.17,2.48,0,4.5-.65,6.08-1.95,1.58-1.3,2.53-3.24,2.86-5.81-.78.81-1.86,1.46-3.22,1.93-1.37.47-2.85.71-4.45.71-2.25,0-4.23-.46-5.96-1.37-1.73-.91-3.08-2.23-4.06-3.96-.98-1.73-1.47-3.78-1.47-6.16s.53-4.37,1.59-6.18c1.06-1.81,2.64-3.23,4.74-4.27,2.1-1.04,4.65-1.56,7.65-1.56,4.53,0,8.04,1.39,10.53,4.18s3.74,6.62,3.74,11.51c0,4.23-.74,7.85-2.22,10.85-1.48,3-3.53,5.26-6.13,6.79-2.61,1.53-5.6,2.3-8.99,2.3-2.41,0-4.48-.28-6.2-.83ZM496.26,622.06c.98-.98,1.47-2.17,1.47-3.57s-.49-2.64-1.47-3.62c-.98-.98-2.18-1.46-3.62-1.46s-2.59.5-3.57,1.49c-.98.99-1.47,2.19-1.47,3.59s.49,2.59,1.47,3.57c.98.98,2.17,1.46,3.57,1.46s2.64-.49,3.62-1.46Z"/>
    <rect class="cls-2" x="203.6" y="683.28" width="192.8" height="106.46"/>
    <path class="cls-4" d="M291.69,749.81c-2.38-1.42-4.21-3.46-5.5-6.13-1.29-2.67-1.93-5.85-1.93-9.53s.64-6.86,1.91-9.53c1.27-2.67,3.09-4.72,5.45-6.16,2.36-1.43,5.15-2.15,8.38-2.15s6.02.72,8.38,2.15c2.36,1.43,4.18,3.49,5.45,6.16,1.27,2.67,1.91,5.85,1.91,9.53s-.64,6.86-1.93,9.53c-1.29,2.67-3.12,4.71-5.5,6.13s-5.15,2.12-8.31,2.12-5.93-.71-8.31-2.12ZM305.08,741.28c1.2-1.69,1.81-4.04,1.81-7.04s-.59-5.41-1.78-7.16c-1.19-1.74-2.89-2.61-5.11-2.61s-3.92.87-5.11,2.61c-1.19,1.74-1.78,4.13-1.78,7.16s.6,5.34,1.81,7.04c1.2,1.69,2.9,2.54,5.08,2.54s3.88-.85,5.08-2.54Z"/>
  </g>
  <g>
    <path class="cls-2" d="M473.76,761.85h51.63c5.4,0,9.77-4.38,9.77-9.77v-31.12c0-5.4-4.38-9.77-9.77-9.77h-51.63c-3.21,0-6.22,1.58-8.05,4.22l-10.74,15.56c-2.31,3.34-2.31,7.76,0,11.1l10.74,15.56c1.82,2.64,4.83,4.22,8.05,4.22Z"/>
    <g>
      <rect class="cls-3" x="494" y="722.62" width="5.95" height="27.95" rx="1.6" ry="1.6" transform="translate(327.53 1608.86) rotate(-135)"/>
      <rect class="cls-3" x="494" y="722.62" width="5.95" height="27.95" rx="1.6" ry="1.6" transform="translate(1369.23 906.04) rotate(135)"/>
    </g>
  </g>
</svg>