<?xml version="1.0" encoding="UTF-8"?>
<svg id="Layer_1" data-name="Layer 1" xmlns="http://www.w3.org/2000/svg" viewBox="0 0 600 600">
  <defs>
    <style>
      .cls-1 {
        fill: #1a4175;
      }

      .cls-2, .cls-3, .cls-4 {
        fill: #4881b6;
      }

      .cls-5 {
        fill: #ff336d;
      }

      .cls-6 {
        fill: #326499;
      }

      .cls-7 {
        fill: #fff;
      }

      .cls-8 {
        fill: #2b5a8e;
      }

      .cls-9 {
        fill: #ff73b6;
      }

      .cls-3 {
        stroke-width: 2px;
      }

      .cls-3, .cls-4 {
        stroke: #2b5a8e;
        stroke-miterlimit: 10;
      }

      .cls-4 {
        stroke-width: 2px;
      }

      .cls-10 {
        fill: #feffff;
      }
    </style>
  </defs>
  <g>
    <rect class="cls-1" x="0" y="0" width="600" height="600" rx="30" ry="30"/>
    <g>
      <path class="cls-10" d="M84.2,103.99h-8.14v-8.43h8.14v-8.28h8.72v8.28h8.14v8.43h-8.14v8.28h-8.72v-8.28Z"/>
      <path class="cls-10" d="M115.73,120.01c-3.1-1.82-5.53-4.43-7.3-7.85-1.77-3.41-2.65-7.47-2.65-12.17,0-6.34,1.04-11.79,3.12-16.34,2.08-4.55,5.01-8,8.79-10.35,3.78-2.35,8.21-3.52,13.29-3.52,3.2,0,6.05.39,8.57,1.16v9.15c-2.03-1.02-4.6-1.53-7.7-1.53-4.17,0-7.51,1.2-10.03,3.6-2.52,2.4-4.04,5.9-4.58,10.5,1.4-1.45,3.22-2.57,5.45-3.34,2.23-.77,4.62-1.16,7.19-1.16,3.24,0,6.11.67,8.61,2,2.49,1.33,4.43,3.27,5.81,5.81,1.38,2.54,2.07,5.53,2.07,8.97s-.78,6.43-2.32,9.12c-1.55,2.69-3.84,4.81-6.87,6.36-3.03,1.55-6.65,2.33-10.86,2.33-3.97,0-7.51-.91-10.61-2.72ZM132.84,111.91c1.67-1.65,2.51-3.78,2.51-6.39s-.84-4.77-2.51-6.47c-1.67-1.69-3.81-2.54-6.43-2.54-2.47,0-4.55.86-6.25,2.58-1.7,1.72-2.54,3.86-2.54,6.43,0,2.42.84,4.5,2.51,6.25,1.67,1.74,3.77,2.62,6.28,2.62s4.76-.82,6.43-2.47Z"/>
      <path class="cls-10" d="M161.68,119.58c-3.41-2.11-6.04-5.16-7.88-9.15-1.84-4-2.76-8.71-2.76-14.13s.91-10.2,2.72-14.17c1.82-3.97,4.43-7.02,7.85-9.15,3.41-2.13,7.45-3.2,12.1-3.2s8.67,1.07,12.06,3.2c3.39,2.13,5.99,5.18,7.81,9.15,1.82,3.97,2.72,8.69,2.72,14.17s-.92,10.13-2.76,14.13c-1.84,4-4.46,7.05-7.85,9.15-3.39,2.11-7.39,3.16-11.99,3.16s-8.61-1.05-12.02-3.16ZM182.13,108.28c1.99-2.86,2.98-6.8,2.98-11.84s-.98-9.08-2.94-11.99c-1.96-2.91-4.78-4.36-8.46-4.36s-6.5,1.45-8.46,4.36c-1.96,2.91-2.94,6.9-2.94,11.99s.99,8.98,2.98,11.84c1.99,2.86,4.79,4.29,8.43,4.29s6.44-1.43,8.43-4.29Z"/>
      <path class="cls-10" d="M211.55,82.93l-10.53,7.63v-10.61l12.35-9.08h9.23v50.78h-11.04v-38.72Z"/>
      <path class="cls-10" d="M228.7,115.03l9.08-8.28c1.84-1.65,3.22-2.86,4.14-3.63,2.76-2.42,4.87-4.37,6.32-5.85,1.45-1.48,2.64-3.01,3.56-4.61.92-1.6,1.38-3.24,1.38-4.94,0-2.37-.69-4.24-2.07-5.59-1.38-1.36-3.52-2.03-6.43-2.03-2.42,0-4.84.42-7.26,1.27-2.42.85-4.65,2.05-6.68,3.6v-10.53c2.13-1.5,4.56-2.65,7.3-3.45,2.74-.8,5.7-1.2,8.9-1.2,3.68,0,6.85.68,9.52,2.03,2.66,1.36,4.7,3.27,6.1,5.74,1.4,2.47,2.11,5.3,2.11,8.5,0,3.58-.91,6.77-2.72,9.55-1.82,2.79-4.76,6.07-8.83,9.84l-7.77,7.12h21.07v9.08h-37.7v-6.61Z"/>
      <path class="cls-10" d="M278.39,121.97c-2.86-.51-5.3-1.27-7.34-2.29v-8.57c4.7,2.13,9.61,3.2,14.75,3.2,3.78,0,6.6-.63,8.46-1.89,1.86-1.26,2.8-3.05,2.8-5.38,0-2.47-.92-4.22-2.76-5.27-1.84-1.04-4.67-1.56-8.5-1.56h-6.68v-8.43h6.39c3.15,0,5.6-.57,7.37-1.71,1.77-1.14,2.65-2.82,2.65-5.05s-.8-3.92-2.4-5.08c-1.6-1.16-3.83-1.74-6.68-1.74s-5.22.33-7.52.98c-2.3.65-4.54,1.68-6.72,3.09v-8.72c2.18-1.21,4.62-2.14,7.34-2.8,2.71-.65,5.52-.98,8.43-.98,6.34,0,11.07,1.3,14.17,3.89,3.1,2.59,4.65,6.24,4.65,10.93,0,2.32-.59,4.49-1.78,6.5-1.19,2.01-2.94,3.62-5.27,4.83,5.67,2.08,8.5,5.96,8.5,11.62,0,10.12-6.95,15.18-20.85,15.18-3.15,0-6.15-.25-9.01-.76Z"/>
      <path class="cls-10" d="M335.34,110.39h-23.83v-6.68l24.26-32.84h10.9v31.02h7.48v8.5h-7.48v11.26h-11.33v-11.26ZM336.94,101.89v-17.87l-13.08,17.87h13.08Z"/>
      <path class="cls-10" d="M364.29,121.83c-2.74-.61-5.03-1.44-6.87-2.51v-9.52c2.13,1.36,4.52,2.41,7.16,3.16,2.64.75,5.15,1.13,7.52,1.13,3.78,0,6.61-.74,8.5-2.22,1.89-1.48,2.83-3.62,2.83-6.43s-.93-4.79-2.8-6.25c-1.87-1.45-4.49-2.18-7.88-2.18-1.7,0-3.48.17-5.34.51-1.87.34-3.5.8-4.9,1.38l-4.43-2.54,2.03-25.5h31.17v9.08h-20.78l-.8,9.81c2.66-.58,5.33-.87,7.99-.87,5.33,0,9.48,1.44,12.46,4.32,2.98,2.88,4.47,6.89,4.47,12.02,0,5.57-1.85,9.88-5.56,12.93-3.71,3.05-9.19,4.58-16.46,4.58-2.81,0-5.58-.3-8.32-.91Z"/>
      <path class="cls-10" d="M409.3,120.01c-3.1-1.82-5.53-4.43-7.3-7.85-1.77-3.41-2.65-7.47-2.65-12.17,0-6.34,1.04-11.79,3.12-16.34,2.08-4.55,5.01-8,8.79-10.35,3.78-2.35,8.21-3.52,13.29-3.52,3.2,0,6.05.39,8.57,1.16v9.15c-2.03-1.02-4.6-1.53-7.7-1.53-4.17,0-7.51,1.2-10.03,3.6-2.52,2.4-4.04,5.9-4.58,10.5,1.4-1.45,3.22-2.57,5.45-3.34,2.23-.77,4.62-1.16,7.19-1.16,3.24,0,6.11.67,8.61,2,2.49,1.33,4.43,3.27,5.81,5.81,1.38,2.54,2.07,5.53,2.07,8.97s-.78,6.43-2.32,9.12c-1.55,2.69-3.84,4.81-6.87,6.36-3.03,1.55-6.65,2.33-10.86,2.33-3.97,0-7.51-.91-10.61-2.72ZM426.41,111.91c1.67-1.65,2.51-3.78,2.51-6.39s-.84-4.77-2.51-6.47c-1.67-1.69-3.81-2.54-6.43-2.54-2.47,0-4.55.86-6.25,2.58-1.7,1.72-2.54,3.86-2.54,6.43,0,2.42.84,4.5,2.51,6.25,1.67,1.74,3.77,2.62,6.28,2.62s4.76-.82,6.43-2.47Z"/>
      <path class="cls-10" d="M468.14,79.95h-24.26v-9.08h35.96v7.48l-19.69,43.3h-10.97l18.96-41.7Z"/>
      <path class="cls-10" d="M489.21,118.74c-3.63-2.66-5.45-6.46-5.45-11.41,0-3,.73-5.53,2.18-7.59,1.45-2.06,3.39-3.55,5.81-4.47-1.99-1.11-3.52-2.64-4.61-4.58-1.09-1.94-1.63-4.09-1.63-6.46,0-4.5,1.66-8.04,4.98-10.61,3.32-2.57,7.78-3.85,13.4-3.85s10.07,1.28,13.37,3.85c3.29,2.57,4.94,6.1,4.94,10.61,0,2.42-.54,4.59-1.63,6.5s-2.63,3.43-4.61,4.54c2.42.92,4.36,2.41,5.81,4.47,1.45,2.06,2.18,4.59,2.18,7.59,0,4.94-1.8,8.74-5.41,11.41-3.61,2.66-8.49,4-14.64,4s-11.04-1.33-14.67-4ZM510.31,112.28c1.62-1.45,2.43-3.42,2.43-5.88s-.82-4.35-2.47-5.78c-1.65-1.43-3.78-2.14-6.39-2.14s-4.75.72-6.39,2.14c-1.65,1.43-2.47,3.35-2.47,5.78s.81,4.43,2.43,5.88c1.62,1.45,3.77,2.18,6.43,2.18s4.81-.73,6.43-2.18ZM509.48,90.48c1.45-1.31,2.18-3,2.18-5.08s-.73-3.86-2.18-5.19c-1.45-1.33-3.32-2-5.59-2s-4.13.67-5.56,2c-1.43,1.33-2.14,3.06-2.14,5.19s.71,3.78,2.14,5.08c1.43,1.31,3.28,1.96,5.56,1.96s4.14-.65,5.59-1.96Z"/>
    </g>
    <g>
      <path class="cls-10" d="M266.99,176.3c-1.47-.9-2.59-2.21-3.38-3.93-.79-1.71-1.18-3.74-1.18-6.06s.39-4.37,1.17-6.08c.78-1.7,1.9-3.01,3.37-3.93,1.46-.91,3.19-1.37,5.19-1.37s3.72.46,5.17,1.37c1.45.92,2.57,2.22,3.35,3.93s1.17,3.73,1.17,6.08-.4,4.35-1.18,6.06c-.79,1.71-1.91,3.02-3.37,3.93-1.45.9-3.17,1.36-5.14,1.36s-3.69-.45-5.16-1.36ZM275.77,171.45c.85-1.23,1.28-2.92,1.28-5.08s-.42-3.9-1.26-5.14c-.84-1.25-2.05-1.87-3.63-1.87s-2.79.62-3.63,1.87c-.84,1.25-1.26,2.96-1.26,5.14s.43,3.85,1.28,5.08c.85,1.23,2.06,1.84,3.62,1.84s2.76-.61,3.62-1.84Z"/>
      <path class="cls-10" d="M288.39,160.57l-4.52,3.27v-4.55l5.3-3.9h3.96v21.79h-4.74v-16.61Z"/>
      <path class="cls-10" d="M296.45,165.86c-.47-.47-.7-1.02-.7-1.67s.23-1.2.7-1.67,1.02-.7,1.67-.7,1.23.23,1.68.69.69,1.02.69,1.68-.23,1.2-.7,1.67c-.47.47-1.02.7-1.67.7s-1.2-.23-1.67-.7ZM296.45,176.11c-.47-.47-.7-1.02-.7-1.67s.23-1.2.7-1.67c.47-.47,1.02-.7,1.67-.7s1.23.23,1.68.69.69,1.02.69,1.68-.23,1.2-.7,1.67c-.47.47-1.02.7-1.67.7s-1.2-.23-1.67-.7Z"/>
      <path class="cls-10" d="M312.11,172.35h-10.22v-2.87l10.41-14.09h4.68v13.31h3.21v3.65h-3.21v4.83h-4.86v-4.83ZM312.79,168.71v-7.67l-5.61,7.67h5.61Z"/>
      <path class="cls-10" d="M324.53,177.26c-1.17-.26-2.16-.62-2.95-1.08v-4.08c.91.58,1.94,1.03,3.07,1.36,1.13.32,2.21.48,3.23.48,1.62,0,2.84-.32,3.65-.95s1.22-1.55,1.22-2.76-.4-2.06-1.2-2.68c-.8-.62-1.93-.94-3.38-.94-.73,0-1.49.07-2.29.22-.8.15-1.5.34-2.1.59l-1.9-1.09.87-10.94h13.37v3.9h-8.91l-.34,4.21c1.14-.25,2.29-.37,3.43-.37,2.29,0,4.07.62,5.35,1.85,1.28,1.24,1.92,2.96,1.92,5.16,0,2.39-.79,4.24-2.38,5.55-1.59,1.31-3.94,1.96-7.06,1.96-1.21,0-2.4-.13-3.57-.39Z"/>
    </g>
    <g>
      <g>
        <g>
          <circle class="cls-8" cx="134.67" cy="311.26" r="58.33"/>
          <circle class="cls-2" cx="465.33" cy="311.26" r="58.33"/>
          <circle class="cls-8" cx="300" cy="311.26" r="58.33"/>
          <rect class="cls-6" x="101.78" y="381.96" width="65.78" height="16" rx="5.98" ry="5.98"/>
          <rect class="cls-6" x="267.11" y="381.96" width="65.78" height="16" rx="5.98" ry="5.98"/>
          <rect class="cls-6" x="432.44" y="381.96" width="65.78" height="16" rx="5.98" ry="5.98"/>
        </g>
        <g>
          <circle class="cls-8" cx="134.67" cy="478.37" r="58.33"/>
          <circle class="cls-8" cx="465.33" cy="478.37" r="58.33"/>
          <circle class="cls-8" cx="300" cy="478.37" r="58.33"/>
          <rect class="cls-6" x="101.78" y="549.07" width="65.78" height="16" rx="5.98" ry="5.98"/>
          <rect class="cls-6" x="267.11" y="549.07" width="65.78" height="16" rx="5.98" ry="5.98"/>
          <rect class="cls-6" x="432.44" y="549.07" width="65.78" height="16" rx="5.98" ry="5.98"/>
        </g>
      </g>
      <g>
        <rect class="cls-2" x="130.29" y="457.81" width="8.75" height="41.11" rx="2.35" ry="2.35" transform="translate(269.33 956.74) rotate(180)"/>
        <rect class="cls-2" x="130.29" y="457.81" width="8.75" height="41.11" rx="2.35" ry="2.35" transform="translate(613.04 343.7) rotate(90)"/>
      </g>
      <g>
        <rect class="cls-2" x="270.85" y="460.46" width="35.82" height="35.82" rx="3.18" ry="3.18"/>
        <path class="cls-2" d="M313.01,489.29l12.03,3.69c2.04.63,4.11-.9,4.11-3.04v-23.15c0-2.14-2.07-3.66-4.11-3.04l-12.03,3.69c-1.33.41-2.24,1.64-2.24,3.04v15.77c0,1.4.91,2.63,2.24,3.04Z"/>
      </g>
      <g>
        <g>
          <path class="cls-8" d="M465.33,501.17c-12.57,0-22.8-10.23-22.8-22.8s10.23-22.8,22.8-22.8,22.8,10.23,22.8,22.8-10.23,22.8-22.8,22.8Z"/>
          <path class="cls-2" d="M465.33,457.23c11.66,0,21.14,9.48,21.14,21.14,0,11.66-9.49,21.14-21.14,21.14s-21.14-9.48-21.14-21.14c0-5.65,2.2-10.96,6.19-14.95,3.99-3.99,9.3-6.19,14.95-6.19M465.33,453.91c-13.51,0-24.46,10.95-24.46,24.46,0,13.51,10.95,24.46,24.46,24.46s24.46-10.95,24.46-24.46c0-13.51-10.95-24.46-24.46-24.46h0Z"/>
        </g>
        <g>
          <path class="cls-2" d="M465.33,502.02c-6.95,0-13.48-3.02-17.99-8.3.05-.12.11-.25.16-.37,2.21-4.76,7.2-7.84,12.71-7.84h10.23c5.51,0,10.5,3.08,12.71,7.84.05.12.11.24.16.36-4.51,5.28-11.03,8.3-17.99,8.3Z"/>
          <path class="cls-2" d="M470.45,486.33c5.15,0,9.81,2.84,11.92,7.25-4.34,4.86-10.49,7.62-17.03,7.62s-12.7-2.77-17.03-7.63c2.1-4.41,6.76-7.25,11.91-7.25h10.23M470.45,484.71h-10.23c-5.69,0-11.05,3.14-13.44,8.31-.13.28-.25.56-.36.85,4.48,5.47,11.3,8.97,18.92,8.97s14.44-3.49,18.92-8.96c-.11-.29-.23-.57-.36-.85-2.39-5.17-7.75-8.31-13.45-8.31h0Z"/>
        </g>
        <circle class="cls-4" cx="465.33" cy="471.91" r="11.28"/>
      </g>
      <g>
        <circle class="cls-2" cx="280.79" cy="293.18" r="6.59"/>
        <circle class="cls-2" cx="300" cy="293.18" r="6.59"/>
        <circle class="cls-2" cx="319.21" cy="293.18" r="6.59"/>
        <circle class="cls-2" cx="280.79" cy="311.26" r="6.59"/>
        <circle class="cls-2" cx="300" cy="311.26" r="6.59"/>
        <circle class="cls-2" cx="319.21" cy="311.26" r="6.59"/>
        <circle class="cls-2" cx="280.79" cy="329.34" r="6.59"/>
        <circle class="cls-2" cx="300" cy="329.34" r="6.59"/>
        <circle class="cls-2" cx="319.21" cy="329.34" r="6.59"/>
      </g>
      <g>
        <path class="cls-2" d="M144.02,306.71v2c0,2.48-.98,4.86-2.74,6.62-1.75,1.76-4.14,2.74-6.62,2.74-.61,0-1.22-.06-1.82-.18l-5.83-3.78c-1.12-1.58-1.71-3.46-1.71-5.39v-12.76c0-5.17,4.19-9.36,9.36-9.36s9.36,4.19,9.36,9.36v10.76Z"/>
        <path class="cls-2" d="M130.11,320.62c.65.25,1.32.44,2.01.58,1.68.35,3.42.35,5.1,0,6-1.36,10.25-6.71,10.21-12.87v-3.88c0-1.41,1.14-2.55,2.55-2.55s2.55,1.14,2.55,2.55v3.8c0,8.88-6.53,16.4-15.31,17.67v4.89h4.25c1.41,0,2.55,1.14,2.55,2.55s-1.14,2.55-2.55,2.55h-13.61c-1.41,0-2.55-1.14-2.55-2.55s1.14-2.55,2.55-2.55h4.25v-4.89c-1.93-.27-3.81-.87-5.55-1.77l-5.39-4.22c-2.82-3.24-4.38-7.39-4.37-11.69v-3.8c0-1.41,1.14-2.55,2.55-2.55s2.55,1.14,2.55,2.55v4.25c0,2.83.94,5.58,2.69,7.82l5.51,4.1Z"/>
        <path class="cls-3" d="M157.88,292.85l-7.91,7.91-8.74,8.74-2.62,2.62-22.36,22.36c-1,1-2.61,1-3.61,0l-1.2-1.2c-1-1-1-2.61,0-3.61l41.62-41.62c1-1,2.61-1,3.61,0l1.2,1.2c1,1,1,2.61,0,3.61Z"/>
      </g>
      <path class="cls-1" d="M465.35,329.43c0,1.03-.59,1.96-1.52,2.4-.36.17-.74.25-1.13.25-.61,0-1.2-.21-1.69-.61l-14.47-11.99h-7.71c-1.46,0-2.65-1.18-2.65-2.65v-10.55c0-1.46,1.19-2.65,2.65-2.65h7.71l14.47-11.99c.79-.66,1.89-.8,2.82-.36.93.44,1.52,1.37,1.52,2.4v35.75h0ZM475.52,325.29c-.06,0-.13,0-.19,0-.7,0-1.37-.28-1.87-.78l-.35-.36c-.93-.93-1.04-2.39-.26-3.45,1.98-2.67,3.03-5.84,3.03-9.17,0-3.58-1.19-6.93-3.44-9.7-.86-1.05-.78-2.58.18-3.54l.35-.35c.53-.53,1.24-.82,2-.77.75.04,1.44.39,1.92.97,3.12,3.82,4.77,8.45,4.77,13.4,0,4.61-1.46,8.99-4.21,12.68-.46.61-1.16,1-1.93,1.06ZM486.47,333.48c-.48.57-1.17.91-1.91.94-.04,0-.07,0-.11,0-.7,0-1.37-.28-1.87-.78l-.35-.35c-.97-.97-1.04-2.52-.15-3.58,4.27-5.08,6.62-11.53,6.62-18.16s-2.52-13.54-7.09-18.7c-.93-1.05-.88-2.63.11-3.62l.35-.35c.52-.52,1.18-.8,1.95-.78.73.02,1.42.34,1.9.89,5.53,6.22,8.57,14.23,8.57,22.56,0,8.01-2.84,15.8-8.01,21.92Z"/>
    </g>
  </g>
  <g>
    <rect class="cls-5" x="39.52" y="150.3" width="520.95" height="196.2" rx="10.57" ry="10.57"/>
    <path class="cls-5" d="M77.38,155.12h30s-13.21-15.8-13.21-15.8c-.93-1.11-2.64-1.11-3.57,0l-13.21,15.8Z"/>
    <path class="cls-9" d="M92.9,141.24h0,0M92.38,141.86l8.67,10.36c.57.68,1.41,1.08,2.3,1.08h446.56c4.17,0,7.57,3.4,7.57,7.57v175.06c0,4.17-3.4,7.57-7.57,7.57H50.09c-4.17,0-7.57-3.4-7.57-7.57v-175.06c0-4.17,3.4-7.57,7.57-7.57h31.32c.89,0,1.73-.39,2.3-1.08l8.67-10.36M92.38,138.48c-.66,0-1.32.28-1.79.83l-9.18,10.98h-31.32c-5.84,0-10.57,4.73-10.57,10.57v175.06c0,5.84,4.73,10.57,10.57,10.57h499.82c5.84,0,10.57-4.73,10.57-10.57v-175.06c0-5.84-4.73-10.57-10.57-10.57H103.35l-9.18-10.98c-.47-.56-1.13-.83-1.79-.83h0Z"/>
    <g>
      <path class="cls-7" d="M110.85,212.37c-.67-.71-1-1.71-1-2.98v-14.14h5.17v12.75c0,.54.11.93.34,1.16.23.23.6.34,1.12.34h1.19v3.94h-3.94c-1.25,0-2.2-.36-2.87-1.07Z"/>
      <path class="cls-7" d="M124.9,212.95c-1.41-.67-2.49-1.59-3.26-2.77-.77-1.18-1.16-2.52-1.16-4.01v-10.91h5.17v10.57c0,1.32.35,2.33,1.04,3.04s1.74,1.07,3.15,1.07,2.45-.36,3.13-1.07c.68-.71,1.02-1.73,1.02-3.04v-10.57h5.17v10.91c0,1.5-.39,2.83-1.16,4.01-.77,1.18-1.86,2.1-3.26,2.77-1.41.67-3.04,1-4.9,1s-3.52-.33-4.93-1Z"/>
      <path class="cls-7" d="M145.64,213.5c-1.47-.31-2.7-.73-3.67-1.28v-9.55h8.6v3.77h-3.54v2.92c.7.39,1.73.58,3.09.58,3.6,0,5.41-1.88,5.41-5.64,0-1.93-.52-3.33-1.56-4.21-1.04-.88-2.8-1.33-5.27-1.33-1.13,0-2.29.12-3.48.36-1.19.24-2.19.57-3.01,1v-4.01c.93-.43,2.05-.77,3.37-1,1.31-.24,2.69-.36,4.11-.36,3.65,0,6.42.83,8.31,2.5,1.89,1.67,2.84,4.02,2.84,7.05s-.93,5.35-2.79,7.07c-1.86,1.72-4.5,2.58-7.92,2.58-1.52,0-3.01-.15-4.49-.46Z"/>
      <path class="cls-7" d="M166.44,213.56c-1.37-.26-2.45-.65-3.25-1.17v-3.94c1,.59,2.11,1.04,3.35,1.36,1.24.32,2.35.48,3.35.48,1.2,0,2.08-.12,2.63-.36.56-.24.83-.66.83-1.27,0-.54-.27-.96-.8-1.26-.53-.29-1.52-.67-2.98-1.12l-.85-.27c-1.95-.61-3.39-1.35-4.32-2.21-.93-.86-1.39-2.04-1.39-3.54,0-1.75.7-3.1,2.11-4.06s3.3-1.45,5.68-1.45c1.29,0,2.54.14,3.74.41,1.2.27,2.16.62,2.89,1.05v4.05c-.73-.5-1.63-.9-2.7-1.21-1.08-.31-2.14-.46-3.18-.46-2.2,0-3.3.55-3.3,1.67,0,.54.26.96.78,1.26.52.29,1.45.65,2.79,1.05l1.22.37c1.43.45,2.54.95,3.35,1.5.8.54,1.37,1.16,1.68,1.84s.48,1.51.48,2.48c0,1.56-.67,2.82-2.02,3.77-1.35.95-3.36,1.43-6.04,1.43-1.34,0-2.69-.13-4.06-.39Z"/>
      <path class="cls-7" d="M168.66,190.43c0-1,.27-1.75.8-2.24.53-.5,1.38-.75,2.53-.75h7.65v3.23h-5.44c-.34,0-.58.07-.73.22s-.22.39-.22.73v1.39h-4.59v-2.58Z"/>
      <path class="cls-7" d="M182.42,212.37c-.67-.71-1-1.71-1-2.98v-14.14h5.17v12.75c0,.54.11.93.34,1.16.23.23.6.34,1.12.34h1.19v3.94h-3.94c-1.25,0-2.2-.36-2.87-1.07ZM191.97,212.37c-.67-.71-1-1.71-1-2.98v-14.14h5.13v12.75c0,.54.11.93.34,1.16.23.23.61.34,1.16.34h1.19v3.94h-3.94c-1.25,0-2.21-.36-2.87-1.07Z"/>
      <path class="cls-7" d="M205.99,212.95c-1.41-.67-2.49-1.59-3.26-2.77s-1.16-2.52-1.16-4.01v-10.91h5.17v10.57c0,1.32.35,2.33,1.04,3.04.69.71,1.74,1.07,3.15,1.07s2.45-.36,3.13-1.07c.68-.71,1.02-1.73,1.02-3.04v-16.66h5.17v17c0,1.5-.39,2.83-1.16,4.01s-1.86,2.1-3.26,2.77c-1.41.67-3.04,1-4.9,1s-3.52-.33-4.93-1Z"/>
      <path class="cls-7" d="M224.95,212.39c-1.24-1.04-1.85-2.52-1.85-4.42s.67-3.4,2.02-4.49,3.2-1.63,5.56-1.63c2.2,0,4.08.36,5.64,1.09v-.71c0-1.22-.4-2.13-1.21-2.72-.8-.59-2.1-.88-3.89-.88-1.11,0-2.2.11-3.26.34-1.07.23-2.02.54-2.86.95v-3.88c.75-.36,1.78-.67,3.09-.92,1.31-.25,2.64-.37,3.98-.37,3.04,0,5.34.67,6.92,2.02,1.58,1.35,2.36,3.16,2.36,5.42v11.25h-5.13v-6.77c-1.31-.68-2.86-1.02-4.62-1.02-1.16,0-2,.19-2.53.58-.53.39-.8.99-.8,1.8,0,.75.24,1.31.73,1.68.49.37,1.26.56,2.33.56.75,0,1.38-.11,1.9-.34v3.57c-.88.29-2.02.44-3.4.44-2.09,0-3.75-.52-4.98-1.56Z"/>
      <path class="cls-7" d="M245.94,202.6l-1.7-2.89c2.65-3.31,6.06-4.96,10.23-4.96,2.92,0,5.17.65,6.75,1.94,1.58,1.29,2.36,3.09,2.36,5.41v11.36h-5.17v-10.95c0-2.49-1.31-3.74-3.94-3.74-.97,0-1.84.14-2.6.41-.76.27-1.47.71-2.12,1.33l1.33,2.18v10.78h-5.13v-10.85Z"/>
      <path class="cls-7" d="M269.66,212.37c-.67-.71-1-1.71-1-2.98v-12.21c0-1.54-.29-2.75-.88-3.62-.59-.87-1.54-1.56-2.86-2.06v-3.64h12.14v3.98h-5.47c1.5,1.16,2.24,2.97,2.24,5.44v10.71c0,.54.11.93.34,1.16.23.23.6.34,1.12.34h1.19v3.94h-3.94c-1.25,0-2.2-.36-2.87-1.07Z"/>
      <path class="cls-7" d="M278.89,195.26h4.93v2.07c.82-.82,1.78-1.45,2.89-1.9,1.11-.45,2.22-.68,3.33-.68,2.29,0,4.02.62,5.19,1.85,1.17,1.24,1.75,2.86,1.75,4.88v11.97h-5.13v-11.53c0-2.11-1.11-3.16-3.33-3.16-.93,0-1.77.2-2.53.61-.76.41-1.4,1.03-1.92,1.87v12.21h-5.17v-18.19Z"/>
      <path class="cls-7" d="M303.29,213.56c-1.37-.26-2.45-.65-3.25-1.17v-3.94c1,.59,2.11,1.04,3.35,1.36,1.24.32,2.35.48,3.35.48,1.2,0,2.08-.12,2.63-.36.56-.24.83-.66.83-1.27,0-.54-.27-.96-.8-1.26-.53-.29-1.52-.67-2.98-1.12l-.85-.27c-1.95-.61-3.39-1.35-4.32-2.21-.93-.86-1.39-2.04-1.39-3.54,0-1.75.7-3.1,2.11-4.06s3.3-1.45,5.68-1.45c1.29,0,2.54.14,3.74.41,1.2.27,2.16.62,2.89,1.05v4.05c-.73-.5-1.63-.9-2.7-1.21-1.08-.31-2.14-.46-3.18-.46-2.2,0-3.3.55-3.3,1.67,0,.54.26.96.78,1.26.52.29,1.45.65,2.79,1.05l1.22.37c1.43.45,2.54.95,3.35,1.5.8.54,1.37,1.16,1.68,1.84s.48,1.51.48,2.48c0,1.56-.67,2.82-2.02,3.77-1.35.95-3.36,1.43-6.04,1.43-1.34,0-2.69-.13-4.06-.39Z"/>
      <path class="cls-7" d="M318.13,203.45h5.1l1.53,6.15c1.56,0,2.86-.48,3.89-1.45,1.03-.96,1.55-2.28,1.55-3.96,0-1.81-.48-3.17-1.45-4.08s-2.61-1.36-4.95-1.36c-1.09,0-2.21.11-3.37.34-1.16.23-2.11.52-2.86.88v-3.98c.91-.39,1.99-.69,3.25-.92s2.53-.34,3.83-.34c3.51,0,6.19.8,8.04,2.4,1.85,1.6,2.77,3.93,2.77,6.99,0,1.86-.46,3.49-1.38,4.9-.92,1.41-2.15,2.49-3.71,3.26-1.55.77-3.26,1.16-5.12,1.16h-4.66l-2.48-10Z"/>
      <path class="cls-7" d="M343.83,202.12c0-1.18-.25-2.03-.75-2.57-.5-.53-1.37-.8-2.62-.8s-2.41.31-3.64.92v-3.91c.54-.27,1.28-.51,2.19-.71.92-.2,1.81-.31,2.67-.31,2.38,0,4.19.64,5.44,1.9,1.25,1.27,1.87,3.11,1.87,5.51v11.29h-5.17v-11.32Z"/>
      <path class="cls-7" d="M353.49,202.6l-1.7-2.89c2.65-3.31,6.06-4.96,10.23-4.96,2.92,0,5.17.65,6.75,1.94,1.58,1.29,2.36,3.09,2.36,5.41v11.36h-5.17v-10.95c0-2.49-1.31-3.74-3.94-3.74-.97,0-1.84.14-2.6.41-.76.27-1.47.71-2.12,1.33l1.33,2.18v10.78h-5.13v-10.85Z"/>
      <path class="cls-7" d="M376.44,211.63c-1.63-1.55-2.45-3.84-2.45-6.85,0-2.06.29-3.85.88-5.36.59-1.51,1.42-2.66,2.5-3.47,1.08-.8,2.32-1.21,3.72-1.21.84,0,1.57.16,2.19.48.62.32,1.13.76,1.51,1.33.43-.61,1.03-1.06,1.79-1.36.76-.29,1.61-.44,2.57-.44,1.72,0,3.06.53,4.01,1.58.95,1.05,1.43,2.44,1.43,4.17v12.95h-5.13v-12.44c0-.77-.12-1.34-.36-1.7-.24-.36-.64-.54-1.21-.54-1,0-1.62.61-1.87,1.84h-2.41c-.16-1.22-.69-1.84-1.6-1.84-.82,0-1.47.51-1.97,1.53-.5,1.02-.75,2.52-.75,4.49,0,1.77.38,3.07,1.14,3.91s1.97,1.26,3.62,1.26c.86,0,1.63-.12,2.31-.37v3.94c-.88.29-1.97.44-3.26.44-2.81,0-5.03-.78-6.66-2.33Z"/>
      <path class="cls-7" d="M389.46,186.96h5.17v6.05h-5.17v-6.05Z"/>
      <path class="cls-7" d="M403.64,202.12c0-1.18-.25-2.03-.75-2.57-.5-.53-1.37-.8-2.62-.8s-2.41.31-3.64.92v-3.91c.54-.27,1.28-.51,2.19-.71.92-.2,1.81-.31,2.67-.31,2.38,0,4.19.64,5.44,1.9,1.25,1.27,1.87,3.11,1.87,5.51v11.29h-5.17v-11.32Z"/>
      <path class="cls-7" d="M411.66,197.53h5.13l3.88,12.07c1.68,0,2.97-.5,3.88-1.51.91-1.01,1.36-2.44,1.36-4.3,0-1.68-.32-2.94-.95-3.77-.63-.84-1.61-1.26-2.92-1.26-.73,0-1.45.11-2.18.34v-3.88c.95-.32,2.03-.48,3.23-.48,2.7,0,4.72.79,6.07,2.36,1.35,1.58,2.02,3.8,2.02,6.68,0,2.02-.44,3.75-1.33,5.2-.88,1.45-2.08,2.56-3.59,3.32-1.51.76-3.16,1.14-4.95,1.14h-4.56l-5.1-15.91Z"/>
      <path class="cls-7" d="M438.49,212.95c-1.41-.67-2.49-1.59-3.26-2.77s-1.16-2.52-1.16-4.01v-10.91h5.17v10.57c0,1.32.35,2.33,1.04,3.04.69.71,1.74,1.07,3.15,1.07s2.45-.36,3.13-1.07c.68-.71,1.02-1.73,1.02-3.04v-16.66h5.17v17c0,1.5-.39,2.83-1.16,4.01s-1.86,2.1-3.26,2.77c-1.41.67-3.04,1-4.9,1s-3.52-.33-4.93-1Z"/>
      <path class="cls-7" d="M459.01,213.56c-1.37-.26-2.45-.65-3.25-1.17v-3.94c1,.59,2.11,1.04,3.35,1.36,1.24.32,2.35.48,3.35.48,1.2,0,2.08-.12,2.63-.36.56-.24.83-.66.83-1.27,0-.54-.27-.96-.8-1.26-.53-.29-1.52-.67-2.98-1.12l-.85-.27c-1.95-.61-3.39-1.35-4.32-2.21-.93-.86-1.39-2.04-1.39-3.54,0-1.75.7-3.1,2.11-4.06s3.3-1.45,5.68-1.45c1.29,0,2.54.14,3.74.41,1.2.27,2.16.62,2.89,1.05v4.05c-.73-.5-1.63-.9-2.7-1.21-1.08-.31-2.14-.46-3.18-.46-2.2,0-3.3.55-3.3,1.67,0,.54.26.96.78,1.26.52.29,1.45.65,2.79,1.05l1.22.37c1.43.45,2.54.95,3.35,1.5.8.54,1.37,1.16,1.68,1.84s.48,1.51.48,2.48c0,1.56-.67,2.82-2.02,3.77-1.35.95-3.36,1.43-6.04,1.43-1.34,0-2.69-.13-4.06-.39Z"/>
      <path class="cls-7" d="M474.05,202.04c-.5-.51-.75-1.29-.75-2.33v-2.65h4.62v1.46c0,.29.07.51.2.65.14.13.37.2.71.2h4.01v3.43h-6.36c-1.13,0-1.95-.25-2.45-.76ZM474.05,211.2c-.5-.52-.75-1.3-.75-2.35v-2.65h4.62v1.46c0,.29.07.51.2.65.14.14.37.2.71.2h4.01v3.47h-6.36c-1.13,0-1.95-.26-2.45-.78Z"/>
      <path class="cls-7" d="M486.72,212.37c-.67-.71-1-1.71-1-2.98v-14.14h5.17v12.75c0,.54.11.93.34,1.16.23.23.6.34,1.12.34h1.19v3.94h-3.94c-1.25,0-2.2-.36-2.87-1.07Z"/>
      <path class="cls-7" d="M496.32,195.26h4.93v2.07c.82-.82,1.78-1.45,2.89-1.9,1.11-.45,2.22-.68,3.33-.68,2.29,0,4.02.62,5.19,1.85,1.17,1.24,1.75,2.86,1.75,4.88v11.97h-5.13v-11.53c0-2.11-1.11-3.16-3.33-3.16-.93,0-1.77.2-2.53.61-.76.41-1.4,1.03-1.92,1.87v12.21h-5.17v-18.19Z"/>
      <path class="cls-7" d="M517.98,202.53c0-2.52.84-4.44,2.53-5.78,1.69-1.34,3.96-2.01,6.82-2.01,1.45,0,2.75.2,3.91.61l1.22-1.46h5.61l-3.2,3.67c1.18,1.18,1.77,2.83,1.77,4.96v10.91h-5.17v-10.95c0-1.25-.36-2.18-1.07-2.8-.71-.62-1.74-.93-3.08-.93s-2.4.31-3.11.93c-.71.62-1.07,1.56-1.07,2.8v2.58c.27-.41.67-.73,1.21-.97.53-.24,1.13-.36,1.79-.36h2.65v3.94h-2.92c-.79,0-1.44.25-1.95.75-.51.5-.77,1.14-.77,1.94v3.06h-5.17v-10.91Z"/>
      <path class="cls-7" d="M110.64,262.37c-.67-.71-1-1.71-1-2.98v-8.19c0-1.06.2-1.98.61-2.75.41-.77.97-1.59,1.7-2.45.48-.54.83-1.01,1.07-1.39.24-.38.36-.78.36-1.19,0-.66-.17-1.13-.51-1.43-.34-.29-.92-.44-1.73-.44-1.31,0-2.54.42-3.67,1.26v-3.94c.7-.43,1.53-.76,2.48-.99.95-.23,1.93-.34,2.92-.34,1.95,0,3.41.45,4.37,1.34.96.89,1.44,2.06,1.44,3.48,0,.84-.16,1.57-.48,2.19s-.8,1.38-1.46,2.26c-.63.82-1.12,1.55-1.44,2.19-.33.65-.49,1.38-.49,2.19v6.8c0,.54.11.93.34,1.16.23.23.6.34,1.12.34h1.19v3.94h-3.94c-1.25,0-2.2-.36-2.87-1.07Z"/>
      <path class="cls-7" d="M120.52,245.26h5.17v6.56l6.9-6.56h5.88l-4.9,4.66c1.77.5,3.01,1.27,3.72,2.31.71,1.04,1.07,2.43,1.07,4.15v7.07h-5.17v-6.63c0-1.16-.2-2.02-.6-2.58-.4-.57-1.12-.97-2.16-1.22l-4.76,4.45v5.98h-5.17v-18.19Z"/>
      <path class="cls-7" d="M130.07,240.84c0-.25-.05-.43-.15-.53s-.28-.15-.53-.15h-1.6v-3.5h3.2c.84,0,1.45.19,1.82.58s.56.87.56,1.46v1.02h6.83v3.3h-10.13v-2.18Z"/>
      <path class="cls-7" d="M143.11,262.39c-1.24-1.04-1.85-2.52-1.85-4.42s.67-3.4,2.02-4.49,3.2-1.63,5.56-1.63c2.2,0,4.08.36,5.64,1.09v-.71c0-1.22-.4-2.13-1.21-2.72-.8-.59-2.1-.88-3.89-.88-1.11,0-2.2.11-3.26.34-1.07.23-2.02.54-2.86.95v-3.88c.75-.36,1.78-.67,3.09-.92,1.31-.25,2.64-.37,3.98-.37,3.04,0,5.34.67,6.92,2.02,1.58,1.35,2.36,3.16,2.36,5.42v11.25h-5.13v-6.77c-1.31-.68-2.86-1.02-4.62-1.02-1.16,0-2,.19-2.53.58-.53.39-.8.99-.8,1.8,0,.75.24,1.31.73,1.68.49.37,1.26.56,2.33.56.75,0,1.38-.11,1.9-.34v3.57c-.88.29-2.02.44-3.4.44-2.09,0-3.75-.52-4.98-1.56Z"/>
      <path class="cls-7" d="M166.15,263.5c-1.47-.31-2.7-.73-3.67-1.28v-9.55h8.6v3.77h-3.54v2.92c.7.39,1.73.58,3.09.58,3.6,0,5.41-1.88,5.41-5.64,0-1.93-.52-3.33-1.56-4.21-1.04-.88-2.8-1.33-5.27-1.33-1.13,0-2.29.12-3.48.36-1.19.24-2.19.57-3.01,1v-4.01c.93-.43,2.05-.77,3.37-1,1.31-.24,2.69-.36,4.11-.36,3.65,0,6.42.83,8.31,2.5,1.89,1.67,2.84,4.02,2.84,7.05s-.93,5.35-2.79,7.07c-1.86,1.72-4.5,2.58-7.92,2.58-1.52,0-3.01-.15-4.49-.46Z"/>
      <path class="cls-7" d="M183.52,247.53h5.13l3.88,12.07c1.68,0,2.97-.5,3.88-1.51.91-1.01,1.36-2.44,1.36-4.3,0-1.68-.32-2.94-.95-3.77-.63-.84-1.61-1.26-2.92-1.26-.73,0-1.45.11-2.18.34v-3.88c.95-.32,2.03-.48,3.23-.48,2.7,0,4.72.79,6.07,2.36,1.35,1.58,2.02,3.8,2.02,6.68,0,2.02-.44,3.75-1.33,5.2-.88,1.45-2.08,2.56-3.59,3.32-1.51.76-3.16,1.14-4.95,1.14h-4.56l-5.1-15.91Z"/>
      <path class="cls-7" d="M207.69,261.63c-1.63-1.55-2.45-3.84-2.45-6.85,0-2.06.29-3.85.88-5.36.59-1.51,1.42-2.66,2.5-3.47,1.08-.8,2.32-1.21,3.72-1.21.84,0,1.57.16,2.19.48.62.32,1.13.76,1.51,1.33.43-.61,1.03-1.06,1.79-1.36.76-.29,1.61-.44,2.57-.44,1.72,0,3.06.53,4.01,1.58.95,1.05,1.43,2.44,1.43,4.17v12.95h-5.13v-12.44c0-.77-.12-1.34-.36-1.7-.24-.36-.64-.54-1.21-.54-1,0-1.62.61-1.87,1.84h-2.41c-.16-1.22-.69-1.84-1.6-1.84-.82,0-1.47.51-1.97,1.53-.5,1.02-.75,2.52-.75,4.49,0,1.77.38,3.07,1.14,3.91s1.97,1.26,3.62,1.26c.86,0,1.63-.12,2.31-.37v3.94c-.88.29-1.97.44-3.26.44-2.81,0-5.03-.78-6.66-2.33Z"/>
      <path class="cls-7" d="M215.58,239.71v-2.48h4.62v1.67c0,.32.06.54.19.66s.36.19.7.19h7.75v3.26h-10c-2.18,0-3.26-1.1-3.26-3.3Z"/>
      <path class="cls-7" d="M231.19,261.61c-1.63-1.56-2.45-3.85-2.45-6.87s.94-5.6,2.82-7.36c1.88-1.76,4.48-2.64,7.79-2.64s5.94.79,7.57,2.38c1.62,1.59,2.43,3.67,2.43,6.26v10.06h-5.13v-10.1c0-1.5-.38-2.63-1.14-3.42-.76-.78-2-1.17-3.72-1.17-1.63,0-2.92.51-3.88,1.53-.95,1.02-1.43,2.5-1.43,4.45,0,1.79.39,3.11,1.17,3.94.78.84,1.98,1.26,3.59,1.26.86,0,1.63-.12,2.31-.37v3.94c-.88.29-1.97.44-3.26.44-2.81,0-5.03-.78-6.66-2.35Z"/>
      <path class="cls-7" d="M254.09,262.39c-1.24-1.04-1.85-2.52-1.85-4.42s.67-3.4,2.02-4.49,3.2-1.63,5.56-1.63c2.2,0,4.08.36,5.64,1.09v-.71c0-1.22-.4-2.13-1.21-2.72-.8-.59-2.1-.88-3.89-.88-1.11,0-2.2.11-3.26.34-1.07.23-2.02.54-2.86.95v-3.88c.75-.36,1.78-.67,3.09-.92,1.31-.25,2.64-.37,3.98-.37,1.52,0,2.94.23,4.25.68l1.33-1.53h5.61l-3.37,3.91c.97,1.11,1.46,2.57,1.46,4.39v11.25h-5.13v-6.77c-1.31-.68-2.86-1.02-4.62-1.02-1.16,0-2,.19-2.53.58-.53.39-.8.99-.8,1.8,0,.75.24,1.31.73,1.68.49.37,1.26.56,2.33.56.75,0,1.38-.11,1.9-.34v3.57c-.88.29-2.02.44-3.4.44-2.09,0-3.75-.52-4.98-1.56Z"/>
      <path class="cls-7" d="M280.08,252.12c0-1.18-.25-2.03-.75-2.57-.5-.53-1.37-.8-2.62-.8s-2.41.31-3.64.92v-3.91c.54-.27,1.28-.51,2.19-.71.92-.2,1.81-.31,2.67-.31,2.38,0,4.19.64,5.44,1.9,1.25,1.27,1.87,3.11,1.87,5.51v11.29h-5.17v-11.32Z"/>
      <path class="cls-7" d="M290.65,262.41c-1.7-1.03-2.55-2.51-2.55-4.44,0-.88.24-1.68.73-2.4s1.14-1.23,1.96-1.55c-.75-.38-1.35-.94-1.82-1.67-.46-.72-.7-1.52-.7-2.38,0-1.59.56-2.86,1.68-3.81,1.12-.95,2.75-1.43,4.88-1.43.66,0,1.31.05,1.96.14.65.09,1.14.19,1.48.31v3.88c-.32-.14-.7-.25-1.14-.34-.44-.09-.84-.13-1.21-.13-1.59,0-2.38.59-2.38,1.77,0,.61.2,1.07.6,1.38.4.31,1.01.46,1.85.46h2.28v3.64h-2.28c-1.72,0-2.58.68-2.58,2.04,0,.73.35,1.29,1.04,1.68.69.4,1.69.59,3.01.59,1.59,0,2.75-.32,3.48-.97.74-.65,1.1-1.61,1.1-2.91v-11.05h5.17v11.02c0,1.29-.33,2.52-.99,3.69-.66,1.17-1.71,2.13-3.16,2.89s-3.32,1.14-5.61,1.14c-2.83,0-5.1-.52-6.8-1.55Z"/>
      <path class="cls-7" d="M311.75,262.37c-.67-.71-1-1.71-1-2.98v-14.14h5.17v12.75c0,.54.11.93.34,1.16.23.23.6.34,1.12.34h1.19v3.94h-3.94c-1.25,0-2.2-.36-2.87-1.07ZM321.31,262.37c-.67-.71-1-1.71-1-2.98v-14.14h5.13v12.75c0,.54.11.93.34,1.16.23.23.61.34,1.16.34h1.19v3.94h-3.94c-1.25,0-2.21-.36-2.87-1.07Z"/>
      <path class="cls-7" d="M332.08,262.39c-1.24-1.04-1.85-2.52-1.85-4.42s.67-3.4,2.02-4.49,3.2-1.63,5.56-1.63c2.2,0,4.08.36,5.64,1.09v-.71c0-1.22-.4-2.13-1.21-2.72-.8-.59-2.1-.88-3.89-.88-1.11,0-2.2.11-3.26.34-1.07.23-2.02.54-2.86.95v-3.88c.75-.36,1.78-.67,3.09-.92,1.31-.25,2.64-.37,3.98-.37,3.04,0,5.34.67,6.92,2.02,1.58,1.35,2.36,3.16,2.36,5.42v11.25h-5.13v-6.77c-1.31-.68-2.86-1.02-4.62-1.02-1.16,0-2,.19-2.53.58-.53.39-.8.99-.8,1.8,0,.75.24,1.31.73,1.68.49.37,1.26.56,2.33.56.75,0,1.38-.11,1.9-.34v3.57c-.88.29-2.02.44-3.4.44-2.09,0-3.75-.52-4.98-1.56Z"/>
      <path class="cls-7" d="M352.19,252.04c-.5-.51-.75-1.29-.75-2.33v-2.65h4.62v1.46c0,.29.07.51.2.65.14.13.37.2.71.2h4.01v3.43h-6.36c-1.13,0-1.95-.25-2.45-.76ZM352.19,261.2c-.5-.52-.75-1.3-.75-2.35v-2.65h4.62v1.46c0,.29.07.51.2.65.14.14.37.2.71.2h4.01v3.47h-6.36c-1.13,0-1.95-.26-2.45-.78Z"/>
      <path class="cls-7" d="M366.39,262.37c-.67-.71-1-1.71-1-2.98v-12.21c0-1.54-.29-2.75-.88-3.62-.59-.87-1.54-1.56-2.86-2.06v-3.64h12.14v3.98h-5.47c1.5,1.16,2.24,2.97,2.24,5.44v10.71c0,.54.11.93.34,1.16.23.23.6.34,1.12.34h1.19v3.94h-3.94c-1.25,0-2.2-.36-2.87-1.07Z"/>
      <path class="cls-7" d="M375.62,245.26h4.93v2.07c.82-.82,1.78-1.45,2.89-1.9,1.11-.45,2.22-.68,3.33-.68,2.29,0,4.02.62,5.19,1.85,1.17,1.24,1.75,2.86,1.75,4.88v11.97h-5.13v-11.53c0-2.11-1.11-3.16-3.33-3.16-.93,0-1.77.2-2.53.61-.76.41-1.4,1.03-1.92,1.87v12.21h-5.17v-18.19Z"/>
      <path class="cls-7" d="M400.02,263.56c-1.37-.26-2.45-.65-3.25-1.17v-3.94c1,.59,2.11,1.04,3.35,1.36,1.24.32,2.35.48,3.35.48,1.2,0,2.08-.12,2.63-.36.56-.24.83-.66.83-1.27,0-.54-.27-.96-.8-1.26-.53-.29-1.52-.67-2.98-1.12l-.85-.27c-1.95-.61-3.39-1.35-4.32-2.21-.93-.86-1.39-2.04-1.39-3.54,0-1.75.7-3.1,2.11-4.06s3.3-1.45,5.68-1.45c1.29,0,2.54.14,3.74.41,1.2.27,2.16.62,2.89,1.05v4.05c-.73-.5-1.63-.9-2.7-1.21-1.08-.31-2.14-.46-3.18-.46-2.2,0-3.3.55-3.3,1.67,0,.54.26.96.78,1.26.52.29,1.45.65,2.79,1.05l1.22.37c1.43.45,2.54.95,3.35,1.5.8.54,1.37,1.16,1.68,1.84s.48,1.51.48,2.48c0,1.56-.67,2.82-2.02,3.77-1.35.95-3.36,1.43-6.04,1.43-1.34,0-2.69-.13-4.06-.39Z"/>
      <path class="cls-7" d="M415.94,252.6l-1.7-2.89c2.65-3.31,6.06-4.96,10.23-4.96,2.92,0,5.17.65,6.75,1.94,1.58,1.29,2.36,3.09,2.36,5.41v11.36h-5.17v-10.95c0-2.49-1.31-3.74-3.94-3.74-.97,0-1.84.14-2.6.41-.76.27-1.47.71-2.12,1.33l1.33,2.18v10.78h-5.13v-10.85Z"/>
      <path class="cls-7" d="M438.3,262.39c-1.24-1.04-1.85-2.52-1.85-4.42s.67-3.4,2.02-4.49,3.2-1.63,5.56-1.63c2.2,0,4.08.36,5.64,1.09v-.71c0-1.22-.4-2.13-1.21-2.72-.8-.59-2.1-.88-3.89-.88-1.11,0-2.2.11-3.26.34-1.07.23-2.02.54-2.86.95v-3.88c.75-.36,1.78-.67,3.09-.92,1.31-.25,2.64-.37,3.98-.37,3.04,0,5.34.67,6.92,2.02,1.58,1.35,2.36,3.16,2.36,5.42v11.25h-5.13v-6.77c-1.31-.68-2.86-1.02-4.62-1.02-1.16,0-2,.19-2.53.58-.53.39-.8.99-.8,1.8,0,.75.24,1.31.73,1.68.49.37,1.26.56,2.33.56.75,0,1.38-.11,1.9-.34v3.57c-.88.29-2.02.44-3.4.44-2.09,0-3.75-.52-4.98-1.56Z"/>
      <path class="cls-7" d="M444.5,239.71v-2.48h4.62v1.67c0,.32.06.54.19.66s.36.19.7.19h7.75v3.26h-10c-2.18,0-3.26-1.1-3.26-3.3Z"/>
      <path class="cls-7" d="M462.8,262.95c-1.41-.67-2.49-1.59-3.26-2.77-.77-1.18-1.16-2.52-1.16-4.01v-10.91h5.17v10.57c0,1.32.35,2.33,1.04,3.04s1.74,1.07,3.15,1.07,2.45-.36,3.13-1.07c.68-.71,1.02-1.73,1.02-3.04v-10.57h5.17v10.91c0,1.5-.39,2.83-1.16,4.01-.77,1.18-1.86,2.1-3.26,2.77-1.41.67-3.04,1-4.9,1s-3.52-.33-4.93-1Z"/>
      <path class="cls-7" d="M111.81,312.37c-.68-.71-1.02-1.71-1.02-2.98v-6.8l-1.7-2.89c2.65-3.31,6.06-4.96,10.23-4.96,2.92,0,5.17.65,6.75,1.94,1.58,1.29,2.36,3.09,2.36,5.41v11.36h-5.17v-10.95c0-2.49-1.31-3.74-3.94-3.74-.97,0-1.84.14-2.6.41-.76.27-1.47.71-2.12,1.33l1.33,2.18v5.34c0,.54.12.93.37,1.16.25.23.66.34,1.22.34h1.73v3.94h-4.56c-1.25,0-2.21-.36-2.89-1.07Z"/>
      <path class="cls-7" d="M120.11,290.84c0-.25-.05-.43-.15-.53s-.28-.15-.53-.15h-1.6v-3.5h3.2c.84,0,1.45.19,1.82.58s.56.87.56,1.46v1.02h6.83v3.3h-10.13v-2.18Z"/>
      <path class="cls-7" d="M137.45,302.12c0-1.18-.25-2.03-.75-2.57-.5-.53-1.37-.8-2.62-.8s-2.41.31-3.64.92v-3.91c.54-.27,1.28-.51,2.19-.71.92-.2,1.81-.31,2.67-.31,2.38,0,4.19.64,5.44,1.9,1.25,1.27,1.87,3.11,1.87,5.51v11.29h-5.17v-11.32Z"/>
      <path class="cls-7" d="M148.21,312.37c-.67-.71-1-1.71-1-2.98v-11.73c0-2.67.78-4.61,2.35-5.81h-5.61v-3.98h12.14v3.64c-1.31.52-2.27,1.26-2.86,2.21-.59.95-.88,2.23-.88,3.84v10.44c0,.54.11.93.34,1.16.23.23.61.34,1.16.34h1.19v3.94h-3.94c-1.25,0-2.21-.36-2.87-1.07Z"/>
      <path class="cls-7" d="M165.64,313.31c-1.07-.43-1.99-1.06-2.79-1.9v2.04h-4.93v-18.19h5.17v12.24c.5.84,1.1,1.46,1.8,1.85.7.4,1.53.6,2.48.6,2.33,0,3.5-1.1,3.5-3.3v-11.39h5.13v11.7c0,1.31-.27,2.5-.82,3.57s-1.35,1.9-2.41,2.52c-1.07.61-2.35.92-3.84.92-1.13,0-2.23-.21-3.3-.65Z"/>
      <path class="cls-7" d="M170.87,286.96h5.17v6.05h-5.17v-6.05Z"/>
      <path class="cls-7" d="M181.34,311.63c-1.63-1.55-2.45-3.84-2.45-6.85,0-2.06.29-3.85.88-5.36.59-1.51,1.42-2.66,2.5-3.47,1.08-.8,2.32-1.21,3.72-1.21.84,0,1.57.16,2.19.48.62.32,1.13.76,1.51,1.33.43-.61,1.03-1.06,1.79-1.36.76-.29,1.61-.44,2.57-.44,1.72,0,3.06.53,4.01,1.58.95,1.05,1.43,2.44,1.43,4.17v12.95h-5.13v-12.44c0-.77-.12-1.34-.36-1.7-.24-.36-.64-.54-1.21-.54-1,0-1.62.61-1.87,1.84h-2.41c-.16-1.22-.69-1.84-1.6-1.84-.82,0-1.47.51-1.97,1.53-.5,1.02-.75,2.52-.75,4.49,0,1.77.38,3.07,1.14,3.91s1.97,1.26,3.62,1.26c.86,0,1.63-.12,2.31-.37v3.94c-.88.29-1.97.44-3.26.44-2.81,0-5.03-.78-6.66-2.33Z"/>
      <path class="cls-7" d="M183.76,289.75h15.74v3.26h-15.74v-3.26Z"/>
      <path class="cls-7" d="M204.84,311.61c-1.63-1.56-2.45-3.85-2.45-6.87s.94-5.6,2.82-7.36c1.88-1.76,4.48-2.64,7.79-2.64s5.94.79,7.57,2.38c1.62,1.59,2.43,3.67,2.43,6.26v10.06h-5.13v-10.1c0-1.5-.38-2.63-1.14-3.42-.76-.78-2-1.17-3.72-1.17-1.63,0-2.92.51-3.88,1.53-.95,1.02-1.43,2.5-1.43,4.45,0,1.79.39,3.11,1.17,3.94.78.84,1.98,1.26,3.59,1.26.86,0,1.63-.12,2.31-.37v3.94c-.88.29-1.97.44-3.26.44-2.81,0-5.03-.78-6.66-2.35Z"/>
      <path class="cls-7" d="M229.1,312.37c-.67-.71-1-1.71-1-2.98v-12.21c0-1.54-.29-2.75-.88-3.62-.59-.87-1.54-1.56-2.86-2.06v-3.64h12.14v3.98h-5.47c1.5,1.16,2.24,2.97,2.24,5.44v10.71c0,.54.11.93.34,1.16.23.23.6.34,1.12.34h1.19v3.94h-3.94c-1.25,0-2.2-.36-2.87-1.07Z"/>
      <path class="cls-7" d="M238.33,295.26h4.93v2.07c.82-.82,1.78-1.45,2.89-1.9,1.11-.45,2.22-.68,3.33-.68,2.29,0,4.02.62,5.19,1.85,1.17,1.24,1.75,2.86,1.75,4.88v11.97h-5.13v-11.53c0-2.11-1.11-3.16-3.33-3.16-.93,0-1.77.2-2.53.61-.76.41-1.4,1.03-1.92,1.87v12.21h-5.17v-18.19Z"/>
      <path class="cls-7" d="M262.72,313.56c-1.37-.26-2.45-.65-3.25-1.17v-3.94c1,.59,2.11,1.04,3.35,1.36,1.24.32,2.35.48,3.35.48,1.2,0,2.08-.12,2.63-.36.56-.24.83-.66.83-1.27,0-.54-.27-.96-.8-1.26-.53-.29-1.52-.67-2.98-1.12l-.85-.27c-1.95-.61-3.39-1.35-4.32-2.21-.93-.86-1.39-2.04-1.39-3.54,0-1.75.7-3.1,2.11-4.06s3.3-1.45,5.68-1.45c1.29,0,2.54.14,3.74.41,1.2.27,2.16.62,2.89,1.05v4.05c-.73-.5-1.63-.9-2.7-1.21-1.08-.31-2.14-.46-3.18-.46-2.2,0-3.3.55-3.3,1.67,0,.54.26.96.78,1.26.52.29,1.45.65,2.79,1.05l1.22.37c1.43.45,2.54.95,3.35,1.5.8.54,1.37,1.16,1.68,1.84s.48,1.51.48,2.48c0,1.56-.67,2.82-2.02,3.77-1.35.95-3.36,1.43-6.04,1.43-1.34,0-2.69-.13-4.06-.39Z"/>
      <path class="cls-7" d="M277.56,303.45h5.1l1.53,6.15c1.56,0,2.86-.48,3.89-1.45,1.03-.96,1.55-2.28,1.55-3.96,0-1.81-.48-3.17-1.45-4.08s-2.61-1.36-4.95-1.36c-1.09,0-2.21.11-3.37.34-1.16.23-2.11.52-2.86.88v-3.98c.91-.39,1.99-.69,3.25-.92s2.53-.34,3.83-.34c3.51,0,6.19.8,8.04,2.4,1.85,1.6,2.77,3.93,2.77,6.99,0,1.86-.46,3.49-1.38,4.9-.92,1.41-2.15,2.49-3.71,3.26-1.55.77-3.26,1.16-5.12,1.16h-4.66l-2.48-10Z"/>
      <path class="cls-7" d="M303.27,302.12c0-1.18-.25-2.03-.75-2.57-.5-.53-1.37-.8-2.62-.8s-2.41.31-3.64.92v-3.91c.54-.27,1.28-.51,2.19-.71.92-.2,1.81-.31,2.67-.31,2.38,0,4.19.64,5.44,1.9,1.25,1.27,1.87,3.11,1.87,5.51v11.29h-5.17v-11.32Z"/>
      <path class="cls-7" d="M312.92,302.6l-1.7-2.89c2.65-3.31,6.06-4.96,10.23-4.96,2.92,0,5.17.65,6.75,1.94,1.58,1.29,2.36,3.09,2.36,5.41v11.36h-5.17v-10.95c0-2.49-1.31-3.74-3.94-3.74-.97,0-1.84.14-2.6.41-.76.27-1.47.71-2.12,1.33l1.33,2.18v10.78h-5.13v-10.85Z"/>
      <path class="cls-7" d="M335.87,311.63c-1.63-1.55-2.45-3.84-2.45-6.85,0-2.06.29-3.85.88-5.36.59-1.51,1.42-2.66,2.5-3.47,1.08-.8,2.32-1.21,3.72-1.21.84,0,1.57.16,2.19.48.62.32,1.13.76,1.51,1.33.43-.61,1.03-1.06,1.79-1.36.76-.29,1.61-.44,2.57-.44,1.72,0,3.06.53,4.01,1.58.95,1.05,1.43,2.44,1.43,4.17v12.95h-5.13v-12.44c0-.77-.12-1.34-.36-1.7-.24-.36-.64-.54-1.21-.54-1,0-1.62.61-1.87,1.84h-2.41c-.16-1.22-.69-1.84-1.6-1.84-.82,0-1.47.51-1.97,1.53-.5,1.02-.75,2.52-.75,4.49,0,1.77.38,3.07,1.14,3.91s1.97,1.26,3.62,1.26c.86,0,1.63-.12,2.31-.37v3.94c-.88.29-1.97.44-3.26.44-2.81,0-5.03-.78-6.66-2.33Z"/>
      <path class="cls-7" d="M362.02,312.95c-1.41-.67-2.49-1.59-3.26-2.77s-1.16-2.52-1.16-4.01v-10.91h5.17v10.57c0,1.32.35,2.33,1.04,3.04.69.71,1.74,1.07,3.15,1.07s2.45-.36,3.13-1.07c.68-.71,1.02-1.73,1.02-3.04v-16.66h5.17v17c0,1.5-.39,2.83-1.16,4.01s-1.86,2.1-3.26,2.77c-1.41.67-3.04,1-4.9,1s-3.52-.33-4.93-1Z"/>
      <path class="cls-7" d="M379.8,295.26h4.93v2.07c.82-.82,1.78-1.45,2.89-1.9,1.11-.45,2.22-.68,3.33-.68,2.29,0,4.02.62,5.19,1.85,1.17,1.24,1.75,2.86,1.75,4.88v11.97h-5.13v-11.53c0-2.11-1.11-3.16-3.33-3.16-.93,0-1.77.2-2.53.61-.76.41-1.4,1.03-1.92,1.87v12.21h-5.17v-18.19Z"/>
      <path class="cls-7" d="M414.36,312.37c-.67-.71-1-1.71-1-2.98v-14.14h5.17v12.75c0,.54.11.93.34,1.16.23.23.6.34,1.12.34h1.19v3.94h-3.94c-1.25,0-2.2-.36-2.87-1.07Z"/>
      <path class="cls-7" d="M428.39,312.95c-1.41-.67-2.49-1.59-3.26-2.77s-1.16-2.52-1.16-4.01v-10.91h5.17v10.57c0,1.32.35,2.33,1.04,3.04.69.71,1.74,1.07,3.15,1.07s2.45-.36,3.13-1.07c.68-.71,1.02-1.73,1.02-3.04v-16.66h5.17v17c0,1.5-.39,2.83-1.16,4.01s-1.86,2.1-3.26,2.77c-1.41.67-3.04,1-4.9,1s-3.52-.33-4.93-1Z"/>
      <path class="cls-7" d="M424.75,292.08c-.79-.71-1.19-1.67-1.19-2.87,0-1.52.44-2.66,1.33-3.43.88-.77,2.09-1.16,3.6-1.16h7.68v2.69h-7.34c-1.25,0-1.87.51-1.87,1.53,0,.48.13.84.39,1.1.26.26.63.39,1.1.39.52,0,.92-.15,1.19-.44.27-.29.41-.69.41-1.19h2.65c0,1,.57,1.5,1.7,1.5h1.26v2.82h-1.16c-.79,0-1.47-.14-2.04-.43-.57-.28-.94-.64-1.12-1.07-.2.45-.62.84-1.26,1.16-.63.32-1.35.48-2.14.48-1.34,0-2.4-.36-3.2-1.07Z"/>
      <path class="cls-7" d="M449.43,313.04c-1.07-.61-1.88-1.45-2.43-2.52-.56-1.07-.83-2.26-.83-3.57v-11.7h5.17v11.39c0,2.2,1.17,3.3,3.5,3.3.95,0,1.77-.2,2.46-.6.69-.4,1.3-1.01,1.82-1.85v-12.24h5.13v18.19h-4.9v-2.04c-.79.84-1.73,1.47-2.81,1.9-1.08.43-2.18.65-3.31.65-1.47,0-2.74-.31-3.81-.92Z"/>
      <path class="cls-7" d="M475.55,313.31c-1.07-.43-1.99-1.06-2.79-1.9v2.04h-4.93v-18.19h5.17v12.24c.5.84,1.1,1.46,1.8,1.85.7.4,1.53.6,2.48.6,2.33,0,3.5-1.1,3.5-3.3v-11.39h5.13v11.7c0,1.31-.27,2.5-.82,3.57s-1.35,1.9-2.41,2.52c-1.07.61-2.35.92-3.84.92-1.13,0-2.23-.21-3.3-.65Z"/>
      <path class="cls-7" d="M470.17,289.75h15.74v3.26h-15.74v-3.26Z"/>
      <path class="cls-7" d="M489.35,303.45h5.1l1.53,6.15c1.56,0,2.86-.48,3.89-1.45,1.03-.96,1.55-2.28,1.55-3.96,0-1.81-.48-3.17-1.45-4.08s-2.61-1.36-4.95-1.36c-1.09,0-2.21.11-3.37.34-1.16.23-2.11.52-2.86.88v-3.98c.91-.39,1.99-.69,3.25-.92s2.53-.34,3.83-.34c3.51,0,6.19.8,8.04,2.4,1.85,1.6,2.77,3.93,2.77,6.99,0,1.86-.46,3.49-1.38,4.9-.92,1.41-2.15,2.49-3.71,3.26-1.55.77-3.26,1.16-5.12,1.16h-4.66l-2.48-10Z"/>
    </g>
    <path class="cls-7" d="M93.09,187.18l-17.81-7.42c-.14-1.19-1.14-2.11-2.36-2.11-1.32,0-2.39,1.07-2.39,2.39v29.02h-.71c-1.21,0-2.19.98-2.19,2.19s.98,2.19,2.19,2.19h6.53c1.21,0,2.19-.98,2.19-2.19s-.98-2.19-2.19-2.19h-1.03v-7.38l17.95-8.79c1.12-.54,1.8-1.66,1.76-2.9-.04-1.25-.78-2.33-1.93-2.81ZM87.98,190.05l-12.67,6.2v-11.47l12.67,5.27Z"/>
  </g>
  <g>
    <rect class="cls-5" x="39.52" y="497" width="520.95" height="57.27" rx="7.91" ry="7.91"/>
    <path class="cls-9" d="M552.56,500c2.71,0,4.91,2.2,4.91,4.91v41.45c0,2.71-2.2,4.91-4.91,4.91H47.44c-2.71,0-4.91-2.2-4.91-4.91v-41.45c0-2.71,2.2-4.91,4.91-4.91h505.13M552.56,497H47.44c-4.37,0-7.91,3.54-7.91,7.91v41.45c0,4.37,3.54,7.91,7.91,7.91h505.13c4.37,0,7.91-3.54,7.91-7.91v-41.45c0-4.37-3.54-7.91-7.91-7.91h0Z"/>
    <g>
      <path class="cls-7" d="M93.5,534.23c-1.22-1.16-1.84-2.88-1.84-5.14,0-1.55.22-2.88.66-4.02.44-1.13,1.07-2,1.87-2.6.81-.6,1.74-.91,2.79-.91.63,0,1.18.12,1.64.36s.85.57,1.13.99c.32-.46.77-.8,1.34-1.02.57-.22,1.21-.33,1.93-.33,1.29,0,2.29.4,3.01,1.19.71.79,1.07,1.83,1.07,3.12v9.72h-3.85v-9.33c0-.58-.09-1-.27-1.28-.18-.27-.48-.41-.91-.41-.75,0-1.22.46-1.4,1.38h-1.81c-.12-.92-.52-1.38-1.2-1.38-.61,0-1.11.38-1.48,1.15-.37.76-.56,1.89-.56,3.37,0,1.33.28,2.3.85,2.93.57.63,1.47.94,2.72.94.65,0,1.22-.09,1.73-.28v2.96c-.66.22-1.48.33-2.45.33-2.11,0-3.77-.58-5-1.75Z"/>
      <path class="cls-7" d="M102.81,519.74c-.59-.59-.89-1.31-.89-2.18s.3-1.58.91-2.18c.6-.6,1.33-.91,2.18-.91s1.57.3,2.17.91c.6.6.89,1.33.89,2.18s-.3,1.59-.89,2.18c-.6.59-1.32.88-2.17.88s-1.6-.29-2.19-.88ZM105.7,518.32c.2-.21.29-.45.29-.73,0-.29-.1-.54-.29-.74s-.43-.31-.7-.31c-.29,0-.53.1-.73.31-.2.2-.29.45-.29.74,0,.27.1.51.29.73.2.21.44.32.73.32.27,0,.51-.11.7-.32Z"/>
      <path class="cls-7" d="M113.9,527.1c0-.88-.19-1.53-.56-1.93-.37-.4-1.03-.6-1.96-.6s-1.81.23-2.73.69v-2.93c.41-.2.96-.38,1.64-.54.69-.15,1.36-.23,2-.23,1.78,0,3.14.48,4.08,1.43s1.4,2.33,1.4,4.13v8.47h-3.88v-8.49Z"/>
      <path class="cls-7" d="M122.48,535.68c-1.03-.2-1.84-.49-2.44-.88v-2.96c.75.44,1.58.78,2.51,1.02s1.76.36,2.51.36c.9,0,1.56-.09,1.98-.27.42-.18.62-.5.62-.96,0-.41-.2-.72-.6-.94-.4-.22-1.14-.5-2.23-.84l-.64-.2c-1.46-.46-2.54-1.01-3.24-1.66-.7-.65-1.05-1.53-1.05-2.65,0-1.31.53-2.33,1.58-3.05,1.05-.72,2.47-1.08,4.26-1.08.97,0,1.9.1,2.81.31.9.2,1.62.47,2.17.79v3.04c-.54-.37-1.22-.68-2.03-.91s-1.6-.34-2.38-.34c-1.65,0-2.47.42-2.47,1.25,0,.41.2.72.59.94.39.22,1.09.48,2.09.79l.92.28c1.07.34,1.91.71,2.51,1.12.6.41,1.02.87,1.26,1.38.24.51.36,1.13.36,1.86,0,1.17-.51,2.12-1.52,2.83-1.01.71-2.52,1.07-4.53,1.07-1,0-2.02-.1-3.05-.29Z"/>
      <path class="cls-7" d="M133.2,534.88v-3.01c1.05.73,2.5,1.1,4.33,1.1,1.43,0,2.53-.34,3.31-1.03s1.17-1.74,1.17-3.15-.39-2.46-1.17-3.16c-.78-.7-1.89-1.04-3.31-1.04-1.77,0-3.18.37-4.23,1.12v-3.01c.59-.37,1.33-.65,2.22-.84.88-.19,1.84-.28,2.86-.28,2.38,0,4.25.63,5.6,1.9s2.03,3.04,2.03,5.32-.68,4.05-2.03,5.3c-1.35,1.26-3.22,1.89-5.6,1.89s-3.99-.37-5.18-1.1Z"/>
      <path class="cls-7" d="M148.04,528.1h3.82l1.15,4.62c1.17,0,2.15-.36,2.92-1.08.77-.72,1.16-1.71,1.16-2.97,0-1.36-.36-2.38-1.08-3.06-.72-.68-1.96-1.02-3.71-1.02-.82,0-1.66.08-2.52.25s-1.58.39-2.14.66v-2.98c.68-.29,1.49-.52,2.44-.69.94-.17,1.9-.26,2.87-.26,2.63,0,4.65.6,6.03,1.8,1.39,1.2,2.08,2.95,2.08,5.24,0,1.39-.34,2.62-1.03,3.67-.69,1.05-1.62,1.87-2.78,2.45-1.17.58-2.44.87-3.84.87h-3.49l-1.86-7.5Z"/>
      <path class="cls-7" d="M163.11,528.1h3.82l1.15,4.62c1.17,0,2.15-.36,2.92-1.08.77-.72,1.16-1.71,1.16-2.97,0-1.36-.36-2.38-1.08-3.06-.72-.68-1.96-1.02-3.71-1.02-.82,0-1.66.08-2.52.25s-1.58.39-2.14.66v-2.98c.68-.29,1.49-.52,2.44-.69.94-.17,1.9-.26,2.87-.26,2.63,0,4.65.6,6.03,1.8,1.39,1.2,2.08,2.95,2.08,5.24,0,1.39-.34,2.62-1.03,3.67-.69,1.05-1.62,1.87-2.78,2.45-1.17.58-2.44.87-3.84.87h-3.49l-1.86-7.5Z"/>
      <path class="cls-7" d="M180.34,535.68c-1.03-.2-1.84-.49-2.44-.88v-2.96c.75.44,1.58.78,2.51,1.02s1.76.36,2.51.36c.9,0,1.56-.09,1.98-.27.42-.18.62-.5.62-.96,0-.41-.2-.72-.6-.94-.4-.22-1.14-.5-2.23-.84l-.64-.2c-1.46-.46-2.54-1.01-3.24-1.66-.7-.65-1.05-1.53-1.05-2.65,0-1.31.53-2.33,1.58-3.05,1.05-.72,2.47-1.08,4.26-1.08.97,0,1.9.1,2.81.31.9.2,1.62.47,2.17.79v3.04c-.54-.37-1.22-.68-2.03-.91s-1.6-.34-2.38-.34c-1.65,0-2.47.42-2.47,1.25,0,.41.2.72.59.94.39.22,1.09.48,2.09.79l.92.28c1.07.34,1.91.71,2.51,1.12.6.41,1.02.87,1.26,1.38.24.51.36,1.13.36,1.86,0,1.17-.51,2.12-1.52,2.83-1.01.71-2.52,1.07-4.53,1.07-1,0-2.02-.1-3.05-.29Z"/>
      <path class="cls-7" d="M177.09,517.82h11.81v2.45h-11.81v-2.45Z"/>
      <path class="cls-7" d="M191.06,523.66h3.85l2.91,9.05c1.26,0,2.23-.38,2.91-1.13.68-.76,1.02-1.83,1.02-3.23,0-1.26-.24-2.2-.71-2.83-.48-.63-1.21-.94-2.19-.94-.54,0-1.09.08-1.63.25v-2.91c.71-.24,1.52-.36,2.42-.36,2.02,0,3.54.59,4.55,1.77s1.52,2.85,1.52,5.01c0,1.51-.33,2.81-.99,3.9-.66,1.09-1.56,1.92-2.69,2.49-1.13.57-2.37.85-3.71.85h-3.42l-3.83-11.93Z"/>
      <path class="cls-7" d="M207.76,528.1h3.82l1.15,4.62c1.17,0,2.15-.36,2.92-1.08.77-.72,1.16-1.71,1.16-2.97,0-1.36-.36-2.38-1.08-3.06-.72-.68-1.96-1.02-3.71-1.02-.82,0-1.66.08-2.52.25s-1.58.39-2.14.66v-2.98c.68-.29,1.49-.52,2.44-.69.94-.17,1.9-.26,2.87-.26,2.63,0,4.65.6,6.03,1.8,1.39,1.2,2.08,2.95,2.08,5.24,0,1.39-.34,2.62-1.03,3.67-.69,1.05-1.62,1.87-2.78,2.45-1.17.58-2.44.87-3.84.87h-3.49l-1.86-7.5Z"/>
      <path class="cls-7" d="M222.99,527.04c-.37-.38-.56-.96-.56-1.75v-1.99h3.47v1.1c0,.22.05.38.15.48s.28.15.54.15h3.01v2.58h-4.77c-.85,0-1.46-.19-1.84-.57ZM222.99,533.91c-.37-.39-.56-.98-.56-1.76v-1.99h3.47v1.1c0,.22.05.38.15.48.1.1.28.15.54.15h3.01v2.6h-4.77c-.85,0-1.46-.2-1.84-.59Z"/>
      <path class="cls-7" d="M233.28,534.79c-.5-.54-.75-1.28-.75-2.23v-8.8c0-2.01.59-3.46,1.76-4.36h-4.21v-2.98h9.1v2.73c-.99.39-1.7.94-2.14,1.66-.44.71-.66,1.67-.66,2.88v7.83c0,.41.08.7.26.87.17.17.46.25.87.25h.89v2.96h-2.96c-.94,0-1.65-.27-2.15-.8Z"/>
      <path class="cls-7" d="M246.34,535.49c-.8-.32-1.5-.8-2.09-1.43v1.53h-3.7v-13.64h3.88v9.18c.37.63.82,1.09,1.35,1.39.53.3,1.15.45,1.86.45,1.75,0,2.63-.82,2.63-2.47v-8.54h3.85v8.77c0,.99-.2,1.88-.61,2.68-.41.8-1.01,1.43-1.81,1.89-.8.46-1.76.69-2.88.69-.85,0-1.67-.16-2.47-.48Z"/>
      <path class="cls-7" d="M250.27,515.73h3.88v4.54h-3.88v-4.54Z"/>
      <path class="cls-7" d="M258.7,534.79c-.5-.54-.75-1.28-.75-2.23v-9.16c0-1.16-.22-2.06-.66-2.71-.44-.65-1.16-1.17-2.14-1.54v-2.73h9.1v2.98h-4.11c1.12.87,1.68,2.23,1.68,4.08v8.03c0,.41.08.7.25.87s.45.25.84.25h.89v2.96h-2.96c-.94,0-1.65-.27-2.15-.8Z"/>
      <path class="cls-7" d="M265.62,521.95h3.7v1.56c.61-.61,1.33-1.09,2.17-1.43s1.67-.51,2.5-.51c1.72,0,3.01.46,3.89,1.39s1.31,2.15,1.31,3.66v8.98h-3.85v-8.64c0-1.58-.83-2.37-2.5-2.37-.7,0-1.33.15-1.9.46-.57.31-1.05.77-1.44,1.4v9.15h-3.88v-13.64Z"/>
      <path class="cls-7" d="M283.92,535.68c-1.03-.2-1.84-.49-2.44-.88v-2.96c.75.44,1.58.78,2.51,1.02s1.76.36,2.51.36c.9,0,1.56-.09,1.98-.27.42-.18.62-.5.62-.96,0-.41-.2-.72-.6-.94-.4-.22-1.14-.5-2.23-.84l-.64-.2c-1.46-.46-2.54-1.01-3.24-1.66-.7-.65-1.05-1.53-1.05-2.65,0-1.31.53-2.33,1.58-3.05,1.05-.72,2.47-1.08,4.26-1.08.97,0,1.9.1,2.81.31.9.2,1.62.47,2.17.79v3.04c-.54-.37-1.22-.68-2.03-.91s-1.6-.34-2.38-.34c-1.65,0-2.47.42-2.47,1.25,0,.41.2.72.59.94.39.22,1.09.48,2.09.79l.92.28c1.07.34,1.91.71,2.51,1.12.6.41,1.02.87,1.26,1.38.24.51.36,1.13.36,1.86,0,1.17-.51,2.12-1.52,2.83-1.01.71-2.52,1.07-4.53,1.07-1,0-2.02-.1-3.05-.29Z"/>
      <path class="cls-7" d="M295.15,521.95h3.88v4.92l5.18-4.92h4.41l-3.67,3.49c1.33.38,2.26.95,2.79,1.73.54.78.8,1.82.8,3.11v5.3h-3.88v-4.97c0-.87-.15-1.51-.45-1.94s-.84-.73-1.62-.92l-3.57,3.34v4.49h-3.88v-13.64Z"/>
      <path class="cls-7" d="M313.27,535.68c-1.03-.2-1.84-.49-2.44-.88v-2.96c.75.44,1.58.78,2.51,1.02s1.76.36,2.51.36c.9,0,1.56-.09,1.98-.27.42-.18.62-.5.62-.96,0-.41-.2-.72-.6-.94-.4-.22-1.14-.5-2.23-.84l-.64-.2c-1.46-.46-2.54-1.01-3.24-1.66-.7-.65-1.05-1.53-1.05-2.65,0-1.31.53-2.33,1.58-3.05,1.05-.72,2.47-1.08,4.26-1.08.97,0,1.9.1,2.81.31.9.2,1.62.47,2.17.79v3.04c-.54-.37-1.22-.68-2.03-.91s-1.6-.34-2.38-.34c-1.65,0-2.47.42-2.47,1.25,0,.41.2.72.59.94.39.22,1.09.48,2.09.79l.92.28c1.07.34,1.91.71,2.51,1.12.6.41,1.02.87,1.26,1.38.24.51.36,1.13.36,1.86,0,1.17-.51,2.12-1.52,2.83-1.01.71-2.52,1.07-4.53,1.07-1,0-2.02-.1-3.05-.29Z"/>
      <path class="cls-7" d="M310.07,517.82h4.74v-2.7h2.68v2.7h1.71v-2.7h2.65v5.15h-11.78v-2.45Z"/>
      <path class="cls-7" d="M326.75,535.63c-1.1-.23-2.02-.55-2.75-.96v-7.17h6.45v2.83h-2.65v2.19c.53.29,1.3.43,2.32.43,2.7,0,4.05-1.41,4.05-4.23,0-1.45-.39-2.5-1.17-3.16-.78-.66-2.1-.99-3.95-.99-.85,0-1.72.09-2.61.27-.89.18-1.65.43-2.26.75v-3.01c.7-.32,1.54-.57,2.52-.75.99-.18,2.01-.27,3.09-.27,2.74,0,4.81.62,6.23,1.88,1.42,1.25,2.13,3.01,2.13,5.29s-.7,4.01-2.09,5.3c-1.39,1.29-3.37,1.94-5.94,1.94-1.14,0-2.26-.12-3.37-.34Z"/>
      <path class="cls-7" d="M341.04,534.79c-.5-.54-.75-1.28-.75-2.23v-10.61h3.88v9.56c0,.41.08.7.25.87s.45.25.84.25h.89v2.96h-2.96c-.94,0-1.65-.27-2.15-.8ZM348.21,534.79c-.5-.54-.75-1.28-.75-2.23v-10.61h3.85v9.56c0,.41.08.7.26.87.17.17.46.25.87.25h.89v2.96h-2.96c-.94,0-1.65-.27-2.15-.8Z"/>
      <path class="cls-7" d="M358.16,535.34c-1-.42-1.77-1.02-2.29-1.79-.53-.76-.79-1.63-.79-2.6v-.64c0-.61.12-1.16.36-1.66.24-.49.57-1.05.99-1.66.27-.37.47-.68.59-.91.12-.23.18-.44.18-.62,0-.48-.29-.71-.87-.71h-1.43v-2.8h3.7c.76,0,1.38.22,1.84.66.46.44.69,1.02.69,1.73,0,.51-.09.98-.28,1.42s-.47.93-.84,1.49c-.36.56-.62,1.04-.8,1.43-.18.39-.27.82-.27,1.27v.54c0,.8.24,1.41.71,1.84.48.42,1.16.64,2.04.64.93,0,1.64-.26,2.13-.78.48-.52.73-1.27.73-2.26,0-2.07-.81-3.11-2.42-3.11v-1.86l2.47-3.39h4.11l-2.78,3.8c.9.46,1.54,1.06,1.93,1.8.38.74.57,1.68.57,2.82s-.27,2.21-.8,3.11c-.54.9-1.31,1.61-2.33,2.12-1.02.51-2.22.77-3.6.77s-2.52-.21-3.52-.64Z"/>
      <path class="cls-7" d="M372.19,534.23c-1.22-1.16-1.84-2.88-1.84-5.14,0-1.55.22-2.88.66-4.02.44-1.13,1.07-2,1.87-2.6.81-.6,1.74-.91,2.79-.91.63,0,1.18.12,1.64.36s.85.57,1.13.99c.32-.46.77-.8,1.34-1.02.57-.22,1.21-.33,1.93-.33,1.29,0,2.29.4,3.01,1.19.71.79,1.07,1.83,1.07,3.12v9.72h-3.85v-9.33c0-.58-.09-1-.27-1.28-.18-.27-.48-.41-.91-.41-.75,0-1.22.46-1.4,1.38h-1.81c-.12-.92-.52-1.38-1.2-1.38-.61,0-1.11.38-1.48,1.15-.37.76-.56,1.89-.56,3.37,0,1.33.28,2.3.85,2.93.57.63,1.47.94,2.72.94.65,0,1.22-.09,1.73-.28v2.96c-.66.22-1.48.33-2.45.33-2.11,0-3.77-.58-5-1.75Z"/>
      <path class="cls-7" d="M389.23,534.79c-.5-.54-.75-1.28-.75-2.23v-10.61h3.88v9.56c0,.41.08.7.25.87s.45.25.84.25h.89v2.96h-2.96c-.94,0-1.65-.27-2.15-.8ZM396.4,534.79c-.5-.54-.75-1.28-.75-2.23v-10.61h3.85v9.56c0,.41.08.7.26.87.17.17.46.25.87.25h.89v2.96h-2.96c-.94,0-1.65-.27-2.15-.8Z"/>
      <path class="cls-7" d="M403.5,528.1h3.82l1.15,4.62c1.17,0,2.15-.36,2.92-1.08.77-.72,1.16-1.71,1.16-2.97,0-1.36-.36-2.38-1.08-3.06-.72-.68-1.96-1.02-3.71-1.02-.82,0-1.66.08-2.52.25s-1.58.39-2.14.66v-2.98c.68-.29,1.49-.52,2.44-.69.94-.17,1.9-.26,2.87-.26,2.63,0,4.65.6,6.03,1.8,1.39,1.2,2.08,2.95,2.08,5.24,0,1.39-.34,2.62-1.03,3.67-.69,1.05-1.62,1.87-2.78,2.45-1.17.58-2.44.87-3.84.87h-3.49l-1.86-7.5Z"/>
      <path class="cls-7" d="M409.77,518.64c0-.19-.04-.32-.11-.4-.08-.08-.21-.12-.4-.12h-1.2v-2.63h2.4c.63,0,1.08.14,1.36.43.28.29.42.65.42,1.1v.77h5.13v2.47h-7.6v-1.63Z"/>
      <path class="cls-7" d="M418.16,523.66h3.85l2.91,9.05c1.26,0,2.23-.38,2.91-1.13.68-.76,1.02-1.83,1.02-3.23,0-1.26-.24-2.2-.71-2.83-.48-.63-1.21-.94-2.19-.94-.54,0-1.09.08-1.63.25v-2.91c.71-.24,1.52-.36,2.42-.36,2.02,0,3.54.59,4.55,1.77s1.52,2.85,1.52,5.01c0,1.51-.33,2.81-.99,3.9-.66,1.09-1.56,1.92-2.69,2.49-1.13.57-2.37.85-3.71.85h-3.42l-3.83-11.93Z"/>
      <path class="cls-7" d="M437.71,535.34c-.99-.42-1.76-1.02-2.28-1.79-.53-.76-.79-1.63-.79-2.6v-.64c0-.61.12-1.16.36-1.64.24-.49.57-1.03.99-1.65.27-.37.47-.68.59-.91.12-.23.18-.45.18-.65,0-.48-.29-.71-.87-.71h-1.43v-2.8h3.7c.76,0,1.38.22,1.84.66.46.44.69,1.02.69,1.73,0,.51-.09.98-.28,1.42s-.47.93-.84,1.49c-.36.56-.62,1.04-.8,1.43-.18.39-.27.82-.27,1.27v.54c0,.8.23,1.41.7,1.84.47.42,1.15.64,2.05.64,1.78,0,2.68-.86,2.68-2.58v-8.44h3.88v8.03c0,1.85-.57,3.32-1.7,4.39-1.13,1.07-2.75,1.61-4.86,1.61-1.36,0-2.54-.21-3.53-.64Z"/>
      <path class="cls-7" d="M441.55,518.64c0-.19-.04-.32-.11-.4-.08-.08-.21-.12-.4-.12h-1.2v-2.63h2.4c.63,0,1.08.14,1.36.43.28.29.42.65.42,1.1v.77h5.13v2.47h-7.6v-1.63Z"/>
      <path class="cls-7" d="M452.69,535.63c-1.1-.23-2.02-.55-2.75-.96v-7.17h6.45v2.83h-2.65v2.19c.53.29,1.3.43,2.32.43,2.7,0,4.05-1.41,4.05-4.23,0-1.45-.39-2.5-1.17-3.16-.78-.66-2.1-.99-3.95-.99-.85,0-1.72.09-2.61.27-.89.18-1.65.43-2.26.75v-3.01c.7-.32,1.54-.57,2.52-.75.99-.18,2.01-.27,3.09-.27,2.74,0,4.81.62,6.23,1.88,1.42,1.25,2.13,3.01,2.13,5.29s-.7,4.01-2.09,5.3c-1.39,1.29-3.37,1.94-5.94,1.94-1.14,0-2.26-.12-3.37-.34Z"/>
      <path class="cls-7" d="M466.95,527.46l-1.27-2.17c1.99-2.48,4.55-3.72,7.68-3.72,2.19,0,3.88.49,5.06,1.45,1.18.97,1.77,2.32,1.77,4.05v8.52h-3.88v-8.21c0-1.87-.99-2.8-2.96-2.8-.73,0-1.38.1-1.95.31-.57.2-1.1.54-1.59.99l.99,1.63v8.08h-3.85v-8.13Z"/>
      <path class="cls-7" d="M483.71,534.8c-.93-.78-1.39-1.89-1.39-3.32s.51-2.55,1.52-3.37c1.01-.82,2.4-1.22,4.17-1.22,1.65,0,3.06.27,4.23.82v-.54c0-.92-.3-1.6-.91-2.04-.6-.44-1.58-.66-2.92-.66-.83,0-1.65.08-2.45.25-.8.17-1.51.41-2.14.71v-2.91c.56-.27,1.33-.5,2.32-.69.99-.19,1.98-.28,2.98-.28,2.28,0,4.01.51,5.19,1.52,1.18,1.01,1.77,2.37,1.77,4.07v8.44h-3.85v-5.07c-.99-.51-2.14-.77-3.47-.77-.87,0-1.5.14-1.9.43s-.6.74-.6,1.35c0,.56.18.98.55,1.26.37.28.95.42,1.75.42.56,0,1.04-.08,1.43-.26v2.68c-.66.22-1.51.33-2.55.33-1.56,0-2.81-.39-3.74-1.17Z"/>
      <path class="cls-7" d="M492.22,515.73h3.88v4.54h-3.88v-4.54Z"/>
      <path class="cls-7" d="M502.85,527.1c0-.88-.19-1.53-.56-1.93-.37-.4-1.03-.6-1.96-.6s-1.81.23-2.73.69v-2.93c.41-.2.96-.38,1.64-.54.69-.15,1.36-.23,2-.23,1.78,0,3.14.48,4.08,1.43s1.4,2.33,1.4,4.13v8.47h-3.88v-8.49Z"/>
      <path class="cls-7" d="M508.87,534.88v-3.01c1.05.73,2.5,1.1,4.33,1.1,1.43,0,2.53-.34,3.31-1.03s1.17-1.74,1.17-3.15-.39-2.46-1.17-3.16c-.78-.7-1.89-1.04-3.31-1.04-1.77,0-3.18.37-4.23,1.12v-3.01c.59-.37,1.33-.65,2.22-.84.88-.19,1.84-.28,2.86-.28,2.38,0,4.25.63,5.6,1.9s2.03,3.04,2.03,5.32-.68,4.05-2.03,5.3c-1.35,1.26-3.22,1.89-5.6,1.89s-3.99-.37-5.18-1.1Z"/>
      <path class="cls-7" d="M523.81,521.95h3.88v4.92l5.18-4.92h4.41l-3.67,3.49c1.33.38,2.26.95,2.79,1.73.54.78.8,1.82.8,3.11v5.3h-3.88v-4.97c0-.87-.15-1.51-.45-1.94s-.84-.73-1.62-.92l-3.57,3.34v4.49h-3.88v-13.64Z"/>
      <path class="cls-7" d="M543.98,527.1c0-.88-.19-1.53-.56-1.93-.37-.4-1.03-.6-1.96-.6s-1.81.23-2.73.69v-2.93c.41-.2.96-.38,1.64-.54.69-.15,1.36-.23,2-.23,1.78,0,3.14.48,4.08,1.43s1.4,2.33,1.4,4.13v8.47h-3.88v-8.49Z"/>
    </g>
    <path class="cls-7" d="M79.63,515.93l-13.34-5.55c-.1-.89-.85-1.58-1.77-1.58-.99,0-1.79.8-1.79,1.79v21.73h-.53c-.9,0-1.64.74-1.64,1.64s.74,1.64,1.64,1.64h4.89c.9,0,1.64-.74,1.64-1.64s-.74-1.64-1.64-1.64h-.77v-5.53l13.44-6.58c.84-.41,1.34-1.24,1.32-2.17-.03-.94-.58-1.74-1.45-2.1ZM75.8,518.08l-9.49,4.64v-8.59l9.49,3.95Z"/>
  </g>
</svg>