<?xml version="1.0" encoding="UTF-8"?>
<svg id="Layer_1" data-name="Layer 1" xmlns="http://www.w3.org/2000/svg" xmlns:xlink="http://www.w3.org/1999/xlink" viewBox="0 0 1080 1080">
  <defs>
    <style>
      .cls-1, .cls-2, .cls-3, .cls-4, .cls-5, .cls-6 {
        fill: none;
      }

      .cls-7, .cls-8 {
        fill: #070707;
      }

      .cls-9, .cls-10 {
        fill: #3b6aad;
      }

      .cls-11, .cls-12, .cls-2, .cls-10, .cls-3, .cls-8, .cls-5, .cls-6 {
        stroke-miterlimit: 10;
      }

      .cls-11, .cls-12, .cls-10, .cls-8, .cls-5, .cls-6 {
        stroke: #fff;
      }

      .cls-11, .cls-10, .cls-8, .cls-5, .cls-6 {
        stroke-width: 2px;
      }

      .cls-11, .cls-13 {
        fill: #101e35;
      }

      .cls-14 {
        fill: #accdf8;
      }

      .cls-15 {
        fill: #e9456c;
      }

      .cls-16, .cls-17 {
        fill: #7db0f2;
      }

      .cls-18 {
        fill: #ffcc5a;
      }

      .cls-19 {
        fill: #2b588e;
      }

      .cls-20 {
        fill: #f39b47;
      }

      .cls-21 {
        fill: #0d2243;
      }

      .cls-22 {
        fill: #b3c4dc;
      }

      .cls-23 {
        fill: #80d28a;
      }

      .cls-24 {
        fill: #f4b39f;
      }

      .cls-25 {
        clip-path: url(#clippath-1);
      }

      .cls-26 {
        fill: #fff;
      }

      .cls-27 {
        fill: #ff4a75;
      }

      .cls-12 {
        stroke-width: 1.21px;
      }

      .cls-12, .cls-28 {
        fill: #024f85;
      }

      .cls-2 {
        stroke-width: 3.37px;
      }

      .cls-2, .cls-3, .cls-4 {
        stroke: #060a25;
      }

      .cls-2, .cls-3, .cls-4, .cls-5 {
        stroke-linecap: round;
      }

      .cls-29 {
        fill: #ddeafd;
      }

      .cls-3, .cls-4 {
        stroke-width: 3px;
      }

      .cls-30 {
        fill: #193d70;
      }

      .cls-31 {
        fill: #dceaff;
      }

      .cls-32 {
        opacity: .5;
      }

      .cls-33 {
        opacity: .1;
      }

      .cls-4 {
        stroke-linejoin: round;
      }

      .cls-34 {
        fill: #060a25;
      }

      .cls-35 {
        fill: #002447;
      }

      .cls-36 {
        fill: #f4f4f2;
      }

      .cls-17 {
        opacity: .2;
      }

      .cls-37 {
        fill: #f7f8fd;
      }

      .cls-38 {
        fill: #d3dde6;
      }

      .cls-39 {
        clip-path: url(#clippath);
      }

      .cls-40 {
        fill: #f28281;
      }
    </style>
    <clipPath id="clippath">
      <rect class="cls-1" y="0" width="1080" height="1080"/>
    </clipPath>
    <clipPath id="clippath-1">
      <path class="cls-1" d="M648.93,812.89l237.99,70.41,45.39-153.41c7.32-24.73-10.11-49.88-35.83-51.71l-203.4-14.5-44.15,149.21Z"/>
    </clipPath>
  </defs>
  <g class="cls-39">
    <rect class="cls-29" y="0" width="1080" height="1080"/>
    <g>
      <path class="cls-3" d="M879.95,955.33l13.02,3.85c3.99,1.18,8.1,1.78,12.24,1.78,15.22,0,29.17-8.19,36.86-20.84"/>
      <line class="cls-3" x1="874.72" y1="969.42" x2="862.17" y2="965.71"/>
      <path class="cls-3" d="M939.39,964.73c-9.73,7.1-21.63,11.23-34.17,11.23h0c-4.15,0-8.28-.45-12.33-1.33"/>
      <line class="cls-3" x1="990.18" y1="782.54" x2="1026.61" y2="659.43"/>
      <line class="cls-3" x1="982.95" y1="806.97" x2="990.59" y2="781.14"/>
      <line class="cls-3" x1="1026.61" y1="712.3" x2="1007.76" y2="776.01"/>
      <path class="cls-3" d="M664.22,922.68c-18.54-6.52-32.94-19.94-41.15-36.48"/>
      <path class="cls-3" d="M651.23,898.29c-17.18-14.42-25.17-38.19-18.41-61.03l2.53-8.56"/>
      <line class="cls-3" x1="974.52" y1="397.65" x2="993.09" y2="403.14"/>
      <line class="cls-3" x1="950.77" y1="390.62" x2="959.53" y2="393.21"/>
      <line class="cls-3" x1="898" y1="375.01" x2="950.77" y2="390.62"/>
    </g>
    <g>
      <g>
        <g>
          <path class="cls-36" d="M398.85,778.46c130.86,17.78,301.97,27.62,435.53,46.47,36.82,5.2,71.45-18.8,79.52-55.1h0c8.55-38.49-15.78-76.61-54.29-85.05l-433.85-91.24c-53.18-8.23-102.3,30.04-107.32,83.62h0c-4.67,49.87,30.78,94.55,80.41,101.3Z"/>
          <path class="cls-22" d="M645.77,619.42l217.87,47.01c39.08,8.57,68.11,42.42,70.6,82.31h0c.52,8.41-.14,16.89-1.98,25.18-10.13,45.58-54.27,76.17-100.5,69.64-126.83-17.91-304.07-28.61-435.43-46.46-52.81-7.18-93.55-50.96-96.87-104.11-.36-5.82-.27-11.73.28-17.57"/>
          <path class="cls-22" d="M299.73,675.41c2.92-31.13,18.1-58.85,42.76-78.06,24.66-19.21,55.25-27.16,86.14-22.38l.58.09,216.55,44.36"/>
        </g>
        <polyline class="cls-3" points="713.28 633.25 429.22 575.06 428.64 574.97"/>
      </g>
      <g>
        <g>
          <path class="cls-22" d="M771.86,772.97c13.97,43,62.65,63.8,103.37,44.17,36.79-17.73,52.49-61.74,35.24-98.75l-137.54-257.27c-20.26,8.68-40.56,17.37-60.99,25.91l59.93,285.94Z"/>
          <polygon class="cls-24" points="755.17 399.86 677.7 444.96 699.59 498.13 788.7 486.48 755.17 399.86"/>
          <g>
            <ellipse class="cls-35" cx="656.13" cy="258.41" rx="60.19" ry="109.89" transform="translate(-49.05 257.14) rotate(-21.39)"/>
            <rect class="cls-21" x="628.94" y="153.66" width="28.16" height="219.77" transform="translate(-51.83 252.71) rotate(-21.39)"/>
            <rect class="cls-21" x="688.01" y="304.44" width="28.16" height="219.77" transform="translate(-102.76 284.65) rotate(-21.39)"/>
            <ellipse class="cls-37" cx="629.91" cy="268.68" rx="60.19" ry="109.89" transform="translate(-54.6 248.28) rotate(-21.39)"/>
            <path class="cls-37" d="M670.33,252.84c-19.44-49.62-55.31-78.34-74.39-70.86-19.08,7.48-25.9,52.91-6.46,102.53,9.56,24.39,24.1,45.96,39.9,59.17,13.05,10.91,25.62,15.17,34.49,11.69,19.08-7.47,25.89-52.92,6.46-102.53h0Z"/>
            <path class="cls-14" d="M663.88,355.38c2.86-1.12,5.45-3.1,7.71-5.81-7.4-.95-16.01-5.3-24.85-12.68-15.8-13.21-30.34-34.77-39.9-59.17-16.52-42.17-14.07-81.32-1.26-96.71-3.51-.46-6.76-.15-9.63.97-19.09,7.48-25.9,52.92-6.46,102.54,9.56,24.4,24.1,45.95,39.9,59.17,13.05,10.91,25.62,15.17,34.5,11.69Z"/>
            <path class="cls-4" d="M670.33,252.84c-19.44-49.62-55.31-78.34-74.39-70.86-19.08,7.48-25.9,52.91-6.46,102.53,9.56,24.39,24.1,45.96,39.9,59.17,13.05,10.91,25.62,15.17,34.49,11.69,19.08-7.47,25.89-52.92,6.46-102.53h0Z"/>
          </g>
          <path class="cls-22" d="M753.24,779.01c8.4,25.87,27.57,46.84,52.58,57.53,25.01,10.69,53.41,10.04,77.91-1.77,4.81-2.32,9.44-5.05,13.76-8.12,37.01-26.31,49.93-75.32,30.69-116.59l-139.82-255.56c-5.41,7.27-19.13,23.64-43.22,33.16-21.51,8.5-40.46,7.27-49.45,6.1l57.54,285.25Z"/>
          <path class="cls-4" d="M907.53,672.3l-119.16-217.8c-5.41,7.27-19.13,23.64-43.22,33.16-21.51,8.5-40.46,7.27-49.45,6.1l41.48,205.66"/>
        </g>
        <line class="cls-3" x1="695.32" y1="493.87" x2="736.25" y2="694.8"/>
        <line class="cls-3" x1="788.7" y1="454.32" x2="922.37" y2="699.42"/>
      </g>
      <path class="cls-36" d="M49.37,601.3l153.87-67.59,320.36,51.02c.73.2,1.46.42,2.18.64,26.66,8.33,45.68,31.92,49.26,59.62l76.45,591.58H18.64l30.74-635.28Z"/>
      <polygon class="cls-38" points="197.99 712.5 252.46 1249 24.47 1113.91 43.57 712.33 197.99 712.5"/>
      <path class="cls-3" d="M467.67,575.82l55.93,8.91c.73.2,1.46.42,2.18.64,26.66,8.33,45.68,31.92,49.26,59.62l41.01,317.35"/>
      <polygon class="cls-24" points="280.21 385.66 234.67 521.61 398.21 576.11 405.06 459.01 336.16 372.58 280.21 385.66"/>
      <path class="cls-40" d="M463.07,449.11s-70.57,94.69-126.71,78.34c-86.79-25.27-47.94-145.53-47.94-145.53,0,0,18.12,88.87,72.31,99.6,60.43,11.97,102.34-32.41,102.34-32.41Z"/>
      <path class="cls-21" d="M208.05,276.4l48.04,181.38s37.58-115.83,39.89-117.77c2.31-1.95,17.25-78,17.25-78l-34.84-74.99-18.74,4.71c-37.43,9.41-60.39,47.1-51.6,84.67Z"/>
      <ellipse class="cls-21" cx="276.11" cy="268.04" rx="78.68" ry="67.71" transform="translate(-6.26 529.49) rotate(-86.95)"/>
      <path class="cls-24" d="M265.82,203.91l-6.97,130.63c-.14,2.61-.2,5.18-.22,7.75-.65,80.93,56.81,150.02,134.73,165.45,7.76,1.54,15.7,2.55,23.83,2.99,52.97,2.83,98.15-37.78,100.97-90.75l11.42-214.16-263.77-1.9Z"/>
      <circle class="cls-34" cx="411.44" cy="331.53" r="7.85"/>
      <circle class="cls-34" cx="500.52" cy="336.8" r="7.85"/>
      <line class="cls-2" x1="523.6" y1="310.63" x2="509.13" y2="309.85"/>
      <path class="cls-3" d="M447.35,426.7c-3.85-1.97-8.74-4.05-14.6-5.59-9.06-2.38-17-2.56-22.67-2.22"/>
      <path class="cls-40" d="M258.63,342.29c-.65,80.93,56.81,150.02,134.73,165.45-99.55-52.19-116.73-160.86-116.73-160.86l-18.01-4.59Z"/>
      <path class="cls-3" d="M417.19,510.91c-92.36-4.93-163.27-83.8-158.35-176.19"/>
      <path class="cls-40" d="M361.59,215.1s-2,108.34-83.68,166.81l-5.58-43.04,16.1-26.4s32.28-85.14,31.27-86.49c-1.02-1.35,18.51-33.41,18.51-33.41l23.39,22.53Z"/>
      <path class="cls-21" d="M553.21,202.17c-3.71,14.73-15.21,25.65-28.98,27.77-1.19.18-2.39.36-3.58.52-104.96,14.72-252.13-31.27-252.13-31.27-.76-.22-1.48-.46-2.13-.78-7.52-3.27-8.16-6.57-6.87-14.5,2.16-13.36,10.6-24.56,21.99-29.96,6.12-2.89,4.03-24.1,12.8-26.82,36.35-11.26,73.64-10.69,101.6-19.85,1.79-.59,3.56-1.17,5.34-1.78,25.38-8.74,49.97-20.15,73.4-34.09l30.89-18.39c55.29,68.38,54.88,120.73,47.68,149.16Z"/>
      <path class="cls-21" d="M295.57,330.28s53.65-64.17,49.14-129.14l-78.4-6.32s-8.12,17.09-10.31,16.98c-55.41-2.96-12.28,60.54-7.81,68.9,4.47,8.36,47.38,49.59,47.38,49.59Z"/>
      <line class="cls-3" x1="366.2" y1="302.23" x2="275.56" y2="297.4"/>
      <path class="cls-40" d="M332.46,319.26s-38.1,99,5.09,146.15l-53.8-57.08-13.11-37.65,24-22.86,37.82-28.57Z"/>
      <g>
        <path class="cls-3" d="M433.59,287.43c-3.72-3.86-9.67-8.96-18.15-12.57-19.1-8.15-36.95-2.71-42.22-.89"/>
        <path class="cls-3" d="M533.84,294.15c-6.75-6.36-15.88-11.97-25.34-12.16-9.74-.19-19.49,2.95-27.38,8.64-9.61,6.94-16.43,17.5-19.29,29.01-2.81,11.3-1.9,23.05-.4,34.47,1.52,11.56,3.38,23.08,4.69,34.67l-25.79,4.77"/>
      </g>
      <path class="cls-3" d="M435.16,305.91s18.02-13.77,35.61,1.9"/>
      <path class="cls-3" d="M366.03,305.37l-.76,14.28c-1.02,19.05,13.74,35.46,32.78,36.48h0c19.05,1.02,35.46-13.74,36.48-32.78l.93-17.42-69.26-3.69-.17,3.14Z"/>
      <path class="cls-3" d="M470.6,310.95l-.76,14.28c-1.02,19.05,13.74,35.46,32.78,36.48h0c19.05,1.02,35.46-13.74,36.48-32.78l.93-17.42-69.26-3.69-.17,3.14Z"/>
      <circle class="cls-21" cx="310.85" cy="177.35" r="52.86"/>
      <circle class="cls-40" cx="276.07" cy="316.56" r="38.57"/>
      <path class="cls-3" d="M290,352.53c-1.89.73-3.87,1.32-5.91,1.76-20.84,4.43-41.32-8.87-45.75-29.71-.72-3.39-.97-6.77-.8-10.08"/>
      <path class="cls-3" d="M252.46,311.31s-.6,24.55,22.53,25.43"/>
      <polygon class="cls-13" points="381.38 1145.79 441.81 1168.85 463.13 1129.87 398.39 573.05 361.59 626.33 381.38 1145.79"/>
      <polygon class="cls-13" points="415.96 617.15 407.79 653.89 340.7 625 398.39 573.05 415.96 617.15"/>
      <polygon class="cls-38" points="398.39 573.05 351 644.56 203.24 533.71 227.3 494.56 398.39 573.05"/>
      <polygon class="cls-38" points="398.39 573.05 417.19 625 417.19 567.78 400.27 540.8 398.39 573.05"/>
      <g>
        <g>
          <rect class="cls-24" x="645.67" y="389.56" width="36.73" height="72.73" rx="18.37" ry="18.37" transform="translate(-113.5 292.52) rotate(-22.94)"/>
          <rect class="cls-3" x="645.67" y="389.56" width="36.73" height="72.73" rx="18.37" ry="18.37" transform="translate(-113.5 292.52) rotate(-22.94)"/>
        </g>
        <g>
          <rect class="cls-24" x="686.1" y="341.89" width="36.73" height="87" rx="18.37" ry="18.37" transform="translate(784.78 -413.57) rotate(67.06)"/>
          <path class="cls-3" d="M695.32,369.32l-21.16,8.96c-9.3,3.94-13.69,14.77-9.75,24.07h0c1.87,4.43,5.31,7.74,9.4,9.58"/>
        </g>
        <g>
          <rect class="cls-24" x="725.75" y="431.15" width="36.73" height="80.27" rx="18.37" ry="18.37" transform="translate(888.08 -397.68) rotate(67.06)"/>
          <path class="cls-3" d="M716.91,462.86c-9.3,3.94-13.69,14.77-9.75,24.07h0c3.94,9.3,14.77,13.69,24.07,9.75l40.09-16.97c8.55-3.62,12.95-13.06,10.55-21.79"/>
        </g>
        <g>
          <rect class="cls-24" x="710.67" y="393.55" width="36.73" height="99.8" rx="18.37" ry="18.37" transform="translate(853.24 -400.78) rotate(67.06)"/>
          <path class="cls-3" d="M692.84,438.82c-9.3,3.94-13.69,14.77-9.75,24.07h0c3.94,9.3,14.77,13.69,24.07,9.75l58.08-24.58c9.3-3.94,13.69-14.77,9.75-24.07"/>
        </g>
        <g>
          <rect class="cls-24" x="699" y="365.01" width="36.73" height="98.3" rx="18.37" ry="18.37" transform="translate(819.15 -407.9) rotate(67.06)"/>
          <rect class="cls-3" x="699" y="365.01" width="36.73" height="98.3" rx="18.37" ry="18.37" transform="translate(819.15 -407.9) rotate(67.06)"/>
        </g>
      </g>
      <path class="cls-26" d="M748.72,677.68c.07.25.14.51.21.8"/>
      <g>
        <rect class="cls-13" x="720.09" y="405.76" width="284.16" height="518.59" rx="29.1" ry="29.1" transform="translate(224.11 -217.28) rotate(16.48)"/>
        <polygon class="cls-13" points="1049.7 450.79 1020.43 431.26 638.66 855.48 670.21 876.36 1015.34 512.64 1049.7 450.79"/>
        <rect class="cls-16" x="686.6" y="383.44" width="284.16" height="518.59" rx="29.1" ry="29.1" transform="translate(216.4 -208.7) rotate(16.48)"/>
        <path class="cls-3" d="M833.78,373.83l-39.87-11.8c-15.41-4.56-31.6,4.24-36.16,19.65l-53.77,181.75"/>
        <rect class="cls-35" x="703.48" y="436.26" width="248.18" height="420.48" transform="translate(217.43 -208.23) rotate(16.48)"/>
        <rect class="cls-31" x="857.18" y="416.98" width="73.65" height="9.94" rx="4.73" ry="4.73" transform="translate(156.45 -236.3) rotate(16.48)"/>
      </g>
      <g>
        <path class="cls-8" d="M791.8,592.98c-7.29-10.09-21.55-12.03-31.27-4.24-19.86,15.92-52.23,43.13-76.78,69.87-4.58,4.99-5.87,20.09-2.84,26.15h0c4.56,9.13,16.29,11.89,24.45,5.75l82.63-67.97c8.88-7.3,10.55-20.25,3.82-29.56h0Z"/>
        <path class="cls-11" d="M812.22,570.65h4.3c40.95,0,74.2,33.25,74.2,74.2v147.47h-152.69v-147.47c0-40.95,33.25-74.2,74.2-74.2Z" transform="translate(51.55 -57.25) rotate(4.16)"/>
        <ellipse class="cls-7" cx="810.82" cy="583.82" rx="39.98" ry="23.42" transform="translate(-85.76 142.89) rotate(-9.57)"/>
        <polygon class="cls-7" points="841.72 644.37 830.46 724.37 874.89 719.23 841.72 644.37"/>
        <path class="cls-11" d="M904.29,764.29l-147.62-9.18.55-26.69s83.48-7.58,147.62-10.71c10.18-.5,19.08,17.14,18.75,27.32h0c-.3,9.54-9.75,19.55-19.29,19.25Z"/>
        <path class="cls-13" d="M859.61,700.51c5.74,16.39,12.17,33.1,19.08,48.47,3.28,7.3,19.08,15.74,27.07,15.28"/>
        <path class="cls-11" d="M905.76,764.26h0c12.05-.7,20.51-12.15,17.64-23.87l-35.29-121.42c-3.79-13.04-17.07-20.89-30.32-17.93h0c-14.36,3.21-23.11,17.79-19.18,31.98,4.88,17.6,12.12,42.16,21,67.49"/>
        <path class="cls-13" d="M823.82,711.76s-28.51,21.43-4.24,58.27c0,0-73.31-4.22-72.6-5.28s2.7-50.01,2.7-50.01c0,0,22.69-20.73,23.89-19.79,1.2.94,50.25,16.81,50.25,16.81Z"/>
        <path class="cls-6" d="M823.82,711.76s-28.17,21.83-4.24,58.27"/>
        <g>
          <path class="cls-10" d="M879.4,514.13l-18.46,68.12c-.21.78-.47,1.55-.78,2.28-3.44,8.23-12.54,12.83-21.38,10.43l-60.05-16.28c-9.56-2.59-15.25-12.39-12.76-21.98l5.68-21.89-6.55-1.83c-2.6-.73-3.75-3.78-2.27-6.05l22.59-34.39,51.15,5.14,42.85,16.44Z"/>
          <path class="cls-33" d="M860.16,584.53c-3.44,8.23-12.54,12.83-21.38,10.43l-60.05-16.28c-9.56-2.59-15.25-12.39-12.76-21.98l5.68-21.89s73,2.17,88.51,49.71Z"/>
          <circle class="cls-36" cx="815.45" cy="530.11" r="2.85"/>
          <circle class="cls-36" cx="784.84" cy="522.18" r="2.85"/>
          <polygon class="cls-19" points="840.2 505.62 869.69 546.55 879.41 511.28 852.91 495.67 840.2 505.62"/>
          <path class="cls-7" d="M865.96,520.54l-3.42-4.31c-4.39-5.53-10.93-8.92-17.98-9.31-19.64-1.09-60.07-4.83-73.4-17.37-2.5-2.35-3.74-5.75-3.38-9.16h0s0,0,0,0c8.51.91,17.05-1.44,23.88-6.59.15-.12.31-.23.47-.35,14.31-10.67,32.33-15.07,49.98-12.42,6.27.94,13.66,2.43,20.75,4.8,19.19,6.42,28.45,26.12,25.39,46.13-1.23,8.06-1.48,15.75-10.68,14.94-4.58-.4-8.77-2.76-11.63-6.36Z"/>
          <path class="cls-5" d="M862.88,465.83c19.19,6.42,28.45,26.12,25.39,46.13-.11.73-.22,1.46-.32,2.18"/>
          <path class="cls-5" d="M844.57,506.93c-19.64-1.09-60.07-4.83-73.4-17.37-2.5-2.35-3.74-5.75-3.38-9.16h0"/>
          <circle class="cls-9" cx="870.39" cy="546.78" r="13.71"/>
          <path class="cls-5" d="M863.48,558.63c6.54,3.81,14.94,1.6,18.75-4.95"/>
          <path class="cls-5" d="M878.94,547.63s-2.53,8.36-10.43,6.08"/>
          <path class="cls-5" d="M816.6,554.62s-4.13,5.72-11.69,1.78"/>
          <polygon class="cls-36" points="799.8 516.42 793.45 521.96 779.76 506.25 782.94 503.48 799.8 516.42"/>
          <polygon class="cls-36" points="805.34 516.66 809.2 526.23 832.85 516.67 830.91 511.89 805.34 516.66"/>
        </g>
      </g>
      <g class="cls-25">
        <g>
          <g>
            <rect class="cls-31" x="703.48" y="436.26" width="248.18" height="420.48" transform="translate(217.43 -208.23) rotate(16.48)"/>
            <g>
              <rect class="cls-17" x="695.9" y="812.29" width="199.58" height="29.16" rx="14.58" ry="14.58" transform="translate(267.3 -191.78) rotate(16.48)"/>
              <rect class="cls-14" x="663.8" y="777.57" width="29.16" height="29.16" rx="5.53" ry="5.53" transform="translate(252.63 -159.92) rotate(16.48)"/>
            </g>
            <g>
              <rect class="cls-31" x="837.12" y="358.23" width="78.06" height="248.18" transform="translate(165.06 1185.62) rotate(-73.52)"/>
              <g class="cls-32">
                <g>
                  <path class="cls-30" d="M781.2,436.76c.63.19,1.17.12,1.62-.19s.78-.81,1.01-1.49c-.25.11-.57.18-.94.22-.38.03-.79-.01-1.25-.15-.35-.1-.66-.25-.93-.45-.28-.2-.5-.44-.67-.72-.17-.29-.28-.61-.32-.98-.04-.37,0-.77.13-1.21.12-.41.31-.78.56-1.11.25-.33.54-.58.88-.78.34-.19.71-.31,1.11-.37.4-.05.83,0,1.28.12,1.02.3,1.72.89,2.09,1.77.38.88.36,2.01-.04,3.38-.21.71-.48,1.31-.81,1.79s-.71.87-1.12,1.15c-.42.28-.87.44-1.35.5-.49.06-.98.01-1.49-.14-.41-.12-.79-.27-1.14-.46-.35-.18-.65-.4-.9-.66l.77-1.11c.38.39.89.68,1.54.87ZM782.35,433.98c.36.11.71.14,1.03.09.32-.05.61-.13.87-.26.1-.38.15-.73.15-1.05s-.06-.6-.15-.85-.22-.45-.38-.61c-.16-.16-.35-.27-.56-.33-.39-.11-.76-.07-1.11.14s-.6.57-.76,1.1c-.12.41-.11.78.04,1.1.15.32.44.54.88.67Z"/>
                  <path class="cls-30" d="M788.66,438.96c.63.19,1.17.12,1.62-.19.45-.31.78-.81,1.01-1.49-.25.11-.57.18-.94.21s-.79-.01-1.25-.15c-.35-.1-.66-.25-.93-.45-.28-.2-.5-.44-.67-.72-.17-.29-.28-.61-.32-.98-.04-.37,0-.77.13-1.21.12-.41.31-.78.55-1.11.25-.32.54-.58.88-.78.34-.19.71-.32,1.11-.37.4-.05.83,0,1.28.12,1.02.3,1.72.89,2.09,1.77.38.88.36,2.01-.04,3.38-.21.71-.48,1.31-.81,1.79s-.71.87-1.12,1.15c-.42.28-.87.44-1.35.5-.49.06-.98.01-1.49-.14-.41-.12-.79-.27-1.14-.46-.35-.18-.65-.4-.9-.66l.77-1.11c.38.39.89.68,1.54.87ZM789.81,436.18c.36.11.7.14,1.03.09.32-.05.61-.13.87-.26.1-.38.15-.73.15-1.05s-.06-.6-.15-.85c-.09-.25-.22-.45-.38-.61s-.35-.27-.56-.33c-.39-.11-.76-.07-1.11.14-.35.21-.6.57-.76,1.1-.12.41-.11.78.04,1.1.15.32.44.54.88.67Z"/>
                  <path class="cls-30" d="M799.97,440.37l-2.01-.59-.6,2.04-1.54-.46.6-2.04-2.01-.59.38-1.29,2.01.59.6-2.04,1.54.46-.6,2.04,2.01.59-.38,1.29Z"/>
                </g>
                <polyline class="cls-30" points="772.63 427.69 768.78 430.84 770.29 435.59"/>
              </g>
              <g>
                <rect class="cls-14" x="864.04" y="476.95" width="9.4" height="60.75" rx="4.7" ry="4.7" transform="translate(135.78 1196.44) rotate(-73.52)"/>
                <circle class="cls-26" cx="877.76" cy="476.84" r="20.75"/>
                <g>
                  <path class="cls-28" d="M877.77,497.11c-1.94,0-3.88-.28-5.76-.84-5.75-1.7-10.41-5.81-12.81-11.3,3.48-4.27,8.63-4.71,9.3-4.75l15.18,4.49c.54.4,4.62,3.57,5.22,9.05-3.33,2.19-7.17,3.35-11.14,3.35Z"/>
                  <path class="cls-26" d="M868.46,480.72l15.01,4.44c.69.52,4.26,3.44,4.92,8.35-3.19,2.03-6.84,3.1-10.61,3.1-1.89,0-3.78-.27-5.62-.82-5.52-1.63-10-5.53-12.37-10.75,3.23-3.76,7.81-4.27,8.67-4.33M868.57,479.73s-6.03.15-9.93,5.16c2.33,5.53,7.03,10.01,13.24,11.85,1.96.58,3.95.86,5.9.86,4.21,0,8.26-1.29,11.66-3.59-.54-6.34-5.52-9.74-5.52-9.74l-15.34-4.54h0Z"/>
                </g>
                <circle class="cls-12" cx="878.1" cy="475.71" r="9.57"/>
                <circle class="cls-20" cx="891.15" cy="490.57" r="11.39"/>
                <path class="cls-37" d="M888.71,493.25c.1-.34.19-.63.28-.87.09-.24.18-.45.27-.62.09-.18.19-.33.3-.45.11-.13.24-.24.39-.36.15-.11.32-.23.52-.34.2-.12.44-.25.71-.4.23-.11.45-.24.67-.37.22-.14.43-.29.63-.45.2-.17.37-.35.52-.54.15-.2.26-.42.33-.66.05-.18.08-.36.09-.54,0-.18-.02-.35-.09-.5-.06-.16-.17-.3-.33-.42-.15-.13-.36-.23-.62-.31-.3-.09-.57-.11-.79-.05-.23.06-.42.17-.59.33-.17.16-.31.37-.43.62-.12.25-.22.52-.3.82l-2.46-.73c.13-.55.35-1.04.66-1.48.31-.44.69-.79,1.14-1.06.45-.27.97-.43,1.55-.49.58-.06,1.21,0,1.89.21.57.17,1.07.4,1.49.69.42.29.76.62,1.01,1,.25.38.41.79.47,1.24.06.45.02.92-.12,1.4-.12.4-.27.74-.46,1.02-.19.28-.4.52-.64.73-.24.21-.5.4-.79.58-.29.17-.59.35-.9.54-.2.11-.37.21-.52.29-.15.08-.29.16-.4.24-.12.08-.23.17-.32.26-.1.09-.18.2-.26.33-.08.13-.15.28-.21.46-.07.18-.13.4-.2.66l-2.5-.74ZM887.85,496.17l.62-2.1,2.53.75-.62,2.1-2.53-.75Z"/>
              </g>
            </g>
          </g>
          <g>
            <rect class="cls-23" x="732.46" y="538.64" width="199.2" height="131.66" rx="10.56" ry="10.56" transform="translate(205.69 -211.23) rotate(16.48)"/>
            <rect class="cls-13" x="756.75" y="557.99" width="175.63" height="8.44" rx="4.22" ry="4.22" transform="translate(194.21 -216.51) rotate(16.48)"/>
            <rect class="cls-13" x="750.67" y="578.52" width="175.63" height="8.44" rx="4.22" ry="4.22" transform="translate(199.79 -213.95) rotate(16.48)"/>
            <rect class="cls-13" x="744.6" y="599.05" width="175.63" height="8.44" rx="4.22" ry="4.22" transform="translate(205.36 -211.38) rotate(16.48)"/>
            <rect class="cls-13" x="738.52" y="619.58" width="175.63" height="8.44" rx="4.22" ry="4.22" transform="translate(210.94 -208.81) rotate(16.48)"/>
            <rect class="cls-13" x="733.78" y="630.89" width="110.59" height="8.44" rx="4.22" ry="4.22" transform="translate(212.61 -197.77) rotate(16.48)"/>
          </g>
          <rect class="cls-23" x="796.82" y="749.53" width="101.01" height="57.83" rx="18.32" ry="18.32" transform="translate(255.68 -208.41) rotate(16.48)"/>
        </g>
      </g>
      <path class="cls-37" d="M575.31,805.47l173.94,51.46c25.75,7.62,52-10.09,54.71-36.8,4.91-48.42,20.54-115.51,68.64-136.09,6.83-2.92,14.68-5.06,23.75-5.88-71.85-6.07-143.7-12.15-215.56-18.22-13.55-1.15-27.16,1.67-39.07,8.22-5.33,2.93-10.74,6.16-16.18,9.72-31.7,20.76-54.47,46.2-70.67,69.85-14.53,21.22-4.22,50.43,20.44,57.73Z"/>
      <path class="cls-3" d="M812.93,769.08c9.58-36.17,27.25-71.17,59.66-85.04,6.83-2.92,14.68-5.06,23.75-5.88"/>
      <g>
        <path class="cls-36" d="M39.31,728.62c61.34,116.95,152.5,262.09,214.53,381.87,17.1,33.02,56.73,47.34,90.99,32.87h0c36.32-15.34,53.28-57.25,37.85-93.54l-177.08-406.44c-24.11-48.11-83.77-65.96-130.34-39h0c-43.35,25.09-59.22,79.88-35.95,124.23Z"/>
        <path class="cls-36" d="M399.98,1042.46l-87.96-204.8-89.35-202.18-.26-.52c-14.01-27.95-38.21-48.27-68.16-57.23-29.95-8.96-61.34-5.27-88.4,10.39-5.08,2.94-9.95,6.29-14.48,9.96-41.39,33.5-53.46,92.08-28.7,139.28,61.58,117.4,155.58,268.04,214.49,381.78,21.47,41.46,71.98,59.71,114.99,41.54,7.82-3.3,15.11-7.67,21.67-12.97h0c31.07-25.15,41.83-68.43,26.17-105.24Z"/>
        <polyline class="cls-3" points="399.98 1042.46 312.02 837.67 281.71 769.08"/>
        <path class="cls-3" d="M41.12,771.82c60.74,111.35,142.74,244.44,196.03,347.31,21.47,41.46,71.98,59.71,114.99,41.54,7.82-3.3,15.11-7.67,21.67-12.97h0c31.07-25.15,41.83-68.43,26.17-105.24"/>
      </g>
      <g>
        <rect class="cls-24" x="661.74" y="692.28" width="43.28" height="63.36" rx="21.64" ry="21.64" transform="translate(1521.69 1260.98) rotate(165.99)"/>
        <rect class="cls-4" x="661.74" y="692.28" width="43.28" height="63.36" rx="21.64" ry="21.64" transform="translate(1521.69 1260.98) rotate(165.99)"/>
        <rect class="cls-24" x="689.94" y="710.89" width="43.28" height="77.11" rx="21.64" ry="21.64" transform="translate(1583.42 1304.35) rotate(165.99)"/>
        <path class="cls-4" d="M732.36,743.3l-3.87-15.5c-2.88-11.55-14.69-18.64-26.24-15.76"/>
        <path class="cls-31" d="M547.22,797.22c25.89,7.55,100.32,29.91,201.26,59.48-11.2-2.88-17.1-8.31-19.99-11.66-13.92-16.14-11.84-46.3,7.29-73.48-70.39-9.99-140.79-19.98-211.18-29.98-7.01,15.46-5.67,32.52,3.78,43.9,6.58,7.93,15.43,10.75,18.84,11.74Z"/>
        <path class="cls-4" d="M748.48,856.7c-11.2-2.88-17.1-8.31-19.99-11.66-13.92-16.14-11.84-46.3,7.29-73.48-70.39-9.99-140.79-19.98-211.18-29.98-1.75,3.86-2.98,7.83-3.7,11.78"/>
        <rect class="cls-24" x="633.3" y="681.49" width="43.28" height="85" rx="21.64" ry="21.64" transform="translate(1465.65 1267.93) rotate(165.99)"/>
        <path class="cls-4" d="M669.95,695.62c-3.98-9.81-14.74-15.49-25.29-12.86h0c-11.55,2.88-18.64,14.69-15.76,26.24l10.1,40.48c2.88,11.55,14.69,18.64,26.24,15.76h0c11.55-2.88,18.64-14.69,15.76-26.24"/>
        <rect class="cls-24" x="597.3" y="683.98" width="43.28" height="85" rx="21.64" ry="21.64" transform="translate(1071.51 1566.76) rotate(-167.88)"/>
        <path class="cls-24" d="M519.15,830.77l42.65-35.25,41.73-98.18,109.7,60.35-34.94,67.81c-8.83,17.14-24.96,29.34-43.86,33.18h0c-5.46,1.11-10.31,4.22-13.6,8.73l-24.97,34.23-76.71-70.87Z"/>
        <path class="cls-4" d="M635.2,688.01c-2.17-1.44-4.64-2.5-7.33-3.08h0c-10.16-2.18-20.27,3.24-24.34,12.41h0c-.03.07-.06.14-.09.21l-10.77,25.33"/>
        <polygon class="cls-24" points="706.81 770.15 723.93 736.92 630.52 697.67 613.36 711.18 626.53 756.47 706.81 770.15"/>
        <path class="cls-36" d="M256.39,1001.9c-20.81,17.52-33.03,43.16-33.53,70.36-.49,27.19,10.78,53.26,30.94,71.52,3.96,3.59,8.23,6.85,12.7,9.7,38.3,24.39,88.57,17.93,119.57-15.41l231.91-263.88c-21.9-25.66-44.41-49.81-68.6-71.86l-293,199.57Z"/>
        <path class="cls-4" d="M253.8,1143.78c3.96,3.59,8.23,6.85,12.7,9.7,38.3,24.39,88.57,17.93,119.57-15.41l231.91-263.88c-21.9-25.66-44.41-49.81-68.6-71.86l-260.64,177.52"/>
        <line class="cls-4" x1="713.23" y1="757.69" x2="689.06" y2="804.59"/>
      </g>
      <line class="cls-1" x1="780.81" y1="815.79" x2="780.38" y2="817.25"/>
      <path class="cls-4" d="M682.02,739.58l9.82-20.33c.88-1.81,2.22-3.37,3.95-4.41.01,0,.02-.01.03-.02,2.52-1.53,4.94-2.39,6.87-2.89"/>
      <path class="cls-4" d="M669.86,695.66c-.92.94-1.69,2.02-2.28,3.22l-9.81,19.86"/>
      <path class="cls-4" d="M635.34,687.79c-.92.94-1.69,2.02-2.28,3.22l-9.81,19.86"/>
    </g>
    <g>
      <path class="cls-27" d="M968.45,175.08c-1.04,2.81-2.48,5.11-4.32,6.9-1.84,1.79-3.91,3.11-6.21,3.95-2.3.84-4.74,1.2-7.33,1.07-2.58-.13-5.14-.71-7.66-1.74-2.53-1.03-4.67-2.46-6.43-4.29-1.76-1.83-3.1-3.87-4.03-6.13-.93-2.26-1.44-4.65-1.53-7.2-.1-2.54.29-5.06,1.18-7.56,1.49-4.3,3.15-7.84,5-10.63,1.85-2.78,4.12-5.3,6.8-7.55,2.68-2.25,5.92-4.44,9.7-6.58,3.78-2.14,8.32-4.72,13.61-7.76,3.74-1.87,7.45-3.9,11.15-6.1,3.69-2.2,7.15-4.61,10.37-7.23,3.22-2.62,6.05-5.54,8.48-8.75,2.44-3.21,4.25-6.83,5.45-10.87.91-3.06,1.43-6.2,1.56-9.41.14-3.22-.29-6.26-1.28-9.14-.99-2.88-2.6-5.44-4.84-7.7-2.24-2.25-5.31-3.96-9.21-5.12-4.56-1.35-8.63-1.9-12.2-1.65-3.58.25-6.76,1.13-9.54,2.64-2.78,1.51-5.19,3.58-7.2,6.21-2.02,2.63-3.74,5.64-5.17,9.04-.99,2.4-2.44,4.41-4.34,6.04-1.9,1.63-4.02,2.83-6.37,3.58-2.35.76-4.83,1.07-7.44.93s-5.13-.78-7.56-1.92c-2.42-1.14-4.47-2.65-6.15-4.53-1.68-1.88-2.94-3.95-3.79-6.22-.85-2.27-1.22-4.66-1.11-7.18.11-2.52.72-4.95,1.84-7.31,3.06-6.53,6.91-12.29,11.54-17.29,4.63-5,10.04-8.94,16.24-11.82,6.2-2.87,13.15-4.5,20.88-4.87,7.72-.37,16.24.82,25.55,3.58,9.51,2.81,17.79,6.63,24.86,11.45,7.07,4.82,12.7,10.36,16.9,16.63,4.2,6.27,6.85,13.14,7.97,20.63,1.11,7.48.48,15.26-1.91,23.33-1.96,6.64-4.5,12.26-7.59,16.87-3.1,4.61-6.62,8.66-10.56,12.17-3.94,3.51-8.3,6.7-13.08,9.57-4.78,2.87-9.79,5.86-15.03,8.99-3.75,2.15-7.05,3.95-9.89,5.41-2.84,1.46-5.33,2.95-7.48,4.48-2.15,1.52-4.04,3.29-5.65,5.28-1.62,2-3.01,4.6-4.16,7.8Z"/>
      <path class="cls-27" d="M916.38,208.21c.79-2.67,2.03-5.03,3.74-7.07,1.7-2.05,3.71-3.68,6.02-4.91,2.31-1.23,4.82-1.99,7.53-2.29,2.71-.3,5.43-.04,8.16.77,2.73.81,5.16,2.07,7.27,3.8,2.11,1.72,3.8,3.73,5.07,6.01,1.27,2.29,2.08,4.76,2.43,7.41.35,2.65.13,5.31-.66,7.98-.81,2.73-2.08,5.12-3.82,7.15-1.74,2.04-3.75,3.65-6.05,4.85-2.3,1.2-4.81,1.94-7.51,2.24-2.71.3-5.43.04-8.16-.77-2.73-.81-5.16-2.08-7.27-3.8-2.11-1.72-3.81-3.71-5.08-5.96-1.28-2.25-2.08-4.7-2.39-7.35-.32-2.64-.07-5.33.74-8.06Z"/>
    </g>
    <g>
      <path class="cls-3" d="M918.3,67.72c.3-1.64.82-3.25,1.57-4.83,3.06-6.53,6.91-12.29,11.54-17.29,4.63-5,10.04-8.94,16.24-11.82,6.2-2.87,13.15-4.5,20.88-4.87,7.72-.37,16.24.82,25.55,3.58,9.51,2.81,17.79,6.63,24.86,11.45,7.07,4.82,12.7,10.36,16.9,16.63,4.2,6.27,6.85,13.14,7.97,20.63,1.11,7.48.48,15.26-1.91,23.33-1.96,6.64-4.5,12.26-7.59,16.87-3.1,4.61-6.62,8.66-10.56,12.17-3.94,3.51-8.3,6.7-13.08,9.57-4.78,2.87-9.79,5.86-15.03,8.99-3.75,2.15-7.05,3.95-9.89,5.41-2.84,1.46-5.33,2.95-7.48,4.48-2.15,1.52-4.04,3.29-5.65,5.28-1.17,1.45-2.22,3.21-3.16,5.29"/>
      <path class="cls-3" d="M932.11,160.08c1.49-4.3,3.15-7.84,5-10.63,1.85-2.78,4.12-5.3,6.8-7.55,2.68-2.25,5.92-4.44,9.7-6.58,3.78-2.14,8.32-4.72,13.61-7.76,3.74-1.87,7.45-3.9,11.15-6.1,3.69-2.2,7.15-4.61,10.37-7.23,3.22-2.62,6.05-5.54,8.48-8.75,2.44-3.21,4.25-6.83,5.45-10.87.91-3.06,1.43-6.2,1.56-9.41.14-3.22-.29-6.26-1.28-9.14-.99-2.88-2.6-5.44-4.84-7.7-2.24-2.25-5.31-3.96-9.21-5.12-4.56-1.35-8.63-1.9-12.2-1.65-3.58.25-6.76,1.13-9.54,2.64-2.78,1.51-5.19,3.58-7.2,6.21-.61.79-1.19,1.61-1.74,2.47"/>
      <path class="cls-3" d="M916.38,208.21c.79-2.67,2.03-5.03,3.74-7.07,1.7-2.05,3.71-3.68,6.02-4.91,2.31-1.23,4.82-1.99,7.53-2.29,2.71-.3,5.43-.04,8.16.77,2.73.81,5.16,2.07,7.27,3.8,2.11,1.72,3.8,3.73,5.07,6.01,1.27,2.29,2.08,4.76,2.43,7.41.35,2.65.13,5.31-.66,7.98-.81,2.73-2.08,5.12-3.82,7.15-1.74,2.04-3.75,3.65-6.05,4.85-2.3,1.2-4.81,1.94-7.51,2.24-2.71.3-5.43.04-8.16-.77-2.73-.81-5.16-2.08-7.27-3.8-2.11-1.72-3.81-3.71-5.08-5.96-1.28-2.25-2.08-4.7-2.39-7.35-.32-2.64-.07-5.33.74-8.06Z"/>
    </g>
    <g>
      <path class="cls-18" d="M704.46,104.9c.24,1.35.21,2.59-.1,3.73-.31,1.13-.82,2.14-1.53,3-.71.87-1.59,1.57-2.64,2.12-1.05.55-2.19.92-3.43,1.1-1.24.18-2.41.11-3.53-.2-1.12-.31-2.12-.81-3.01-1.48-.89-.67-1.65-1.5-2.28-2.48-.63-.98-1.06-2.07-1.29-3.26-.41-2.04-.58-3.83-.49-5.35.08-1.53.39-3.04.93-4.56.54-1.51,1.3-3.13,2.3-4.85,1-1.72,2.18-3.8,3.56-6.22,1.04-1.61,2.03-3.27,2.98-5,.95-1.73,1.75-3.48,2.41-5.26.66-1.78,1.1-3.59,1.31-5.42.22-1.83.09-3.68-.38-5.55-.35-1.42-.88-2.78-1.57-4.08-.69-1.3-1.57-2.4-2.63-3.31-1.06-.9-2.29-1.54-3.7-1.91-1.41-.37-3.01-.33-4.82.12-2.11.53-3.84,1.26-5.2,2.19-1.35.93-2.4,2.02-3.15,3.26-.75,1.24-1.21,2.62-1.4,4.12-.19,1.5-.17,3.09.06,4.77.17,1.18.06,2.31-.31,3.39-.37,1.09-.93,2.05-1.68,2.89-.75.84-1.66,1.54-2.72,2.1-1.06.55-2.21.89-3.43,1-1.22.11-2.38,0-3.48-.36-1.1-.35-2.08-.88-2.94-1.57-.86-.7-1.57-1.56-2.11-2.57-.54-1.02-.87-2.12-.97-3.31-.31-3.29-.13-6.45.54-9.5.66-3.05,1.88-5.86,3.66-8.43,1.78-2.57,4.14-4.83,7.1-6.77,2.96-1.94,6.6-3.45,10.91-4.52,4.4-1.1,8.56-1.52,12.47-1.26,3.91.26,7.42,1.14,10.53,2.63,3.11,1.5,5.76,3.59,7.93,6.28,2.18,2.69,3.73,5.91,4.67,9.65.77,3.08,1.07,5.88.92,8.42-.15,2.54-.6,4.95-1.34,7.25-.74,2.3-1.72,4.57-2.94,6.81-1.22,2.24-2.5,4.59-3.84,7.04-.98,1.72-1.86,3.2-2.64,4.43-.78,1.24-1.42,2.4-1.91,3.5-.49,1.1-.83,2.23-1,3.4-.17,1.16-.12,2.51.17,4.04Z"/>
      <path class="cls-18" d="M691.62,130.06c-.31-1.24-.36-2.46-.17-3.66.2-1.2.61-2.31,1.23-3.34.63-1.02,1.44-1.9,2.44-2.65,1-.75,2.13-1.28,3.4-1.59,1.27-.32,2.52-.38,3.75-.19,1.23.19,2.36.59,3.4,1.19,1.03.61,1.93,1.39,2.68,2.36.75.97,1.28,2.07,1.59,3.3s.37,2.5.16,3.71c-.21,1.21-.63,2.31-1.26,3.32-.63,1.01-1.44,1.88-2.44,2.63-1,.75-2.13,1.28-3.4,1.59-1.27.32-2.52.38-3.75.19-1.23-.19-2.36-.58-3.39-1.17-1.03-.59-1.91-1.37-2.65-2.34-.74-.97-1.27-2.09-1.58-3.35Z"/>
    </g>
    <g>
      <path class="cls-16" d="M87.07,429.16c-.55,1.47-1.3,2.67-2.26,3.61-.96.94-2.05,1.63-3.25,2.07-1.2.44-2.48.63-3.83.56-1.35-.07-2.69-.37-4.01-.91-1.32-.54-2.44-1.29-3.36-2.24-.92-.96-1.62-2.03-2.11-3.21-.48-1.18-.75-2.43-.8-3.76-.05-1.33.15-2.65.62-3.96.78-2.25,1.65-4.1,2.62-5.56.97-1.45,2.15-2.77,3.56-3.95,1.4-1.18,3.09-2.32,5.07-3.44,1.98-1.12,4.35-2.47,7.12-4.06,1.96-.98,3.9-2.04,5.83-3.19,1.93-1.15,3.74-2.41,5.42-3.78,1.68-1.37,3.16-2.9,4.44-4.58,1.27-1.68,2.22-3.57,2.85-5.68.47-1.6.75-3.24.82-4.92.07-1.68-.15-3.28-.67-4.78-.52-1.5-1.36-2.85-2.53-4.03-1.17-1.18-2.78-2.07-4.82-2.68-2.38-.71-4.51-.99-6.38-.86-1.87.13-3.54.59-4.99,1.38-1.46.79-2.71,1.87-3.77,3.25-1.05,1.37-1.96,2.95-2.7,4.73-.52,1.25-1.28,2.31-2.27,3.16-.99.85-2.1,1.48-3.33,1.88-1.23.4-2.53.56-3.89.49-1.37-.07-2.69-.41-3.95-1-1.27-.6-2.34-1.39-3.22-2.37-.88-.98-1.54-2.07-1.98-3.25-.45-1.19-.64-2.44-.58-3.76.06-1.32.38-2.59.96-3.83,1.6-3.41,3.62-6.43,6.04-9.05,2.42-2.62,5.25-4.68,8.49-6.18,3.24-1.5,6.88-2.35,10.92-2.55,4.04-.19,8.49.43,13.36,1.87,4.97,1.47,9.31,3.47,13.01,5.99,3.7,2.52,6.65,5.42,8.84,8.7,2.2,3.28,3.59,6.88,4.17,10.79.58,3.91.25,7.98-1,12.2-1.03,3.47-2.35,6.41-3.97,8.82-1.62,2.41-3.46,4.53-5.52,6.37-2.06,1.83-4.34,3.5-6.84,5-2.5,1.5-5.12,3.07-7.86,4.7-1.96,1.12-3.69,2.07-5.17,2.83-1.49.76-2.79,1.55-3.91,2.34-1.12.8-2.11,1.72-2.96,2.76-.85,1.05-1.57,2.41-2.18,4.08Z"/>
      <path class="cls-16" d="M59.83,446.49c.41-1.4,1.06-2.63,1.96-3.7.89-1.07,1.94-1.93,3.15-2.57,1.21-.64,2.52-1.04,3.94-1.2,1.42-.15,2.84-.02,4.27.4s2.7,1.09,3.8,1.99c1.1.9,1.99,1.95,2.65,3.15.66,1.2,1.09,2.49,1.27,3.88.18,1.39.07,2.78-.35,4.17s-1.09,2.68-2,3.74c-.91,1.06-1.96,1.91-3.17,2.54-1.2.63-2.51,1.02-3.93,1.17-1.42.15-2.84.02-4.27-.4s-2.7-1.09-3.8-1.99c-1.1-.9-1.99-1.94-2.66-3.12-.67-1.18-1.09-2.46-1.25-3.84-.17-1.38-.04-2.79.39-4.22Z"/>
    </g>
    <g>
      <path class="cls-15" d="M128.55,261.01c-.65-3.26-.64-6.45.03-9.56.66-3.11,1.88-5.96,3.64-8.54,1.76-2.58,3.99-4.78,6.69-6.6,2.7-1.82,5.72-3.06,9.06-3.72,3.34-.66,6.61-.67,9.8-.02,3.19.65,6.09,1.83,8.7,3.54,2.61,1.71,4.84,3.88,6.69,6.49,1.84,2.61,3.09,5.55,3.73,8.81s.64,6.57-.06,9.69c-.71,3.12-1.94,5.95-3.71,8.49-1.77,2.54-4.01,4.72-6.7,6.54-2.7,1.82-5.72,3.06-9.06,3.72-3.34.66-6.61.67-9.8.02-3.19-.65-6.09-1.81-8.69-3.48-2.61-1.67-4.81-3.82-6.61-6.44-1.8-2.62-3.03-5.6-3.7-8.94Z"/>
      <path class="cls-15" d="M199.32,88.41c1.24,7.11,1.42,13.59.52,19.43-.9,5.85-2.47,11.26-4.71,16.27-2.24,4.99-4.87,9.62-7.85,13.89-3,4.29-5.89,8.43-8.64,12.45-2.59,3.57-5.12,7.1-7.59,10.57-2.45,3.47-4.53,7.07-6.22,10.84-1.69,3.77-2.86,7.79-3.5,12.05-.63,4.27-.46,8.95.55,14.04l3.36,17.57-39.14,7.77-3.95-20.57c-1.09-6.73-1.13-12.95-.13-18.7,1.02-5.74,2.59-11.08,4.71-16,2.12-4.92,4.61-9.58,7.48-13.95,2.85-4.37,5.56-8.59,8.14-12.67,2.1-3.23,4.33-6.64,6.71-10.26,2.38-3.61,4.47-7.44,6.28-11.47s3.09-8.25,3.82-12.6c.75-4.37.54-8.93-.64-13.65-1.52-4.75-3.58-8.94-6.15-12.55-2.59-3.61-5.64-6.56-9.14-8.79-3.51-2.25-7.47-3.71-11.91-4.41-4.43-.68-9.28-.5-14.53.54-7.17,1.42-13.02,4.07-17.6,7.96-4.56,3.87-8.02,8.57-10.34,14.08-2.34,5.51-3.64,11.64-3.86,18.39-.08,2.32-.05,4.65.08,7.02l-40.19-.15c-.14-4.96.11-9.84.73-14.58,1.53-11.47,5.03-21.75,10.5-30.85,5.47-9.12,12.77-16.8,21.92-23.08,9.13-6.28,19.83-10.63,32.07-13.06,11.07-2.2,21.52-2.68,31.36-1.4,9.84,1.27,18.68,4.21,26.51,8.83,7.82,4.6,14.43,10.85,19.84,18.75,5.42,7.91,9.26,17.34,11.51,28.3Z"/>
      <g>
        <path class="cls-3" d="M168.52,237.61c1.75,1.43,3.3,3.09,4.64,4.99,1.84,2.61,3.09,5.55,3.73,8.81s.64,6.57-.06,9.69c-.71,3.12-1.94,5.95-3.71,8.49-1.77,2.54-4.01,4.72-6.7,6.54-2.7,1.82-5.72,3.06-9.06,3.72-3.34.66-6.61.67-9.8.02-3.19-.65-6.09-1.81-8.69-3.48-2.61-1.67-4.81-3.82-6.61-6.44-1.8-2.62-3.03-5.6-3.7-8.94s-.64-6.45.03-9.56c.66-3.11,1.88-5.96,3.64-8.54,1.76-2.58,3.99-4.78,6.69-6.6,2.7-1.82,5.72-3.06,9.06-3.72"/>
        <path class="cls-3" d="M200.34,97.3c.18,3.72.01,7.23-.5,10.55-.9,5.85-2.47,11.26-4.71,16.27-2.24,4.99-4.87,9.62-7.85,13.89-3,4.29-5.89,8.43-8.64,12.45-2.59,3.57-5.12,7.1-7.59,10.57-2.45,3.47-4.53,7.07-6.22,10.84-1.69,3.77-2.86,7.79-3.5,12.05-.63,4.27-.46,8.95.55,14.04"/>
        <path class="cls-3" d="M126.11,223.29l-3.95-20.57c-1.09-6.73-1.13-12.95-.13-18.7,1.02-5.74,2.59-11.08,4.71-16,2.12-4.92,4.61-9.58,7.48-13.95,2.85-4.37,5.56-8.59,8.14-12.67,2.1-3.23,4.33-6.64,6.71-10.26,2.38-3.61,4.47-7.44,6.28-11.47s3.09-8.25,3.82-12.6c.75-4.37.54-8.93-.64-13.65-1.52-4.75-3.58-8.94-6.15-12.55-2.59-3.61-5.64-6.56-9.14-8.79-3.51-2.25-7.47-3.71-11.91-4.41-4.43-.68-9.28-.5-14.53.54-7.17,1.42-13.02,4.07-17.6,7.96-4.56,3.87-8.02,8.57-10.34,14.08-2.34,5.51-3.64,11.64-3.86,18.39-.08,2.32-.05,4.65.08,7.02l-40.19-.15c-.14-4.96.11-9.84.73-14.58,1.53-11.47,5.03-21.75,10.5-30.85,5.47-9.12,12.77-16.8,21.92-23.08,9.13-6.28,19.83-10.63,32.07-13.06,11.07-2.2,21.52-2.68,31.36-1.4,9.84,1.27,18.68,4.21,26.51,8.83,2.24,1.32,4.39,2.78,6.43,4.37"/>
      </g>
    </g>
    <g>
      <path class="cls-14" d="M790.73,302.14c.11-2.13.62-4.1,1.53-5.93.9-1.82,2.11-3.4,3.61-4.72,1.5-1.32,3.23-2.34,5.19-3.04,1.96-.7,4.03-.99,6.21-.88,2.18.12,4.21.63,6.08,1.53,1.88.91,3.49,2.1,4.84,3.57,1.35,1.48,2.39,3.17,3.12,5.08.73,1.91,1.04,3.93.93,6.06-.12,2.18-.64,4.18-1.57,6-.93,1.82-2.14,3.38-3.64,4.68-1.5,1.3-3.23,2.3-5.19,3-1.96.7-4.03.99-6.21.88-2.18-.12-4.21-.63-6.08-1.53-1.88-.91-3.49-2.08-4.84-3.54-1.35-1.45-2.38-3.13-3.09-5.04-.71-1.91-1-3.95-.88-6.13Z"/>
      <path class="cls-14" d="M861.9,206.22c-.35,4.61-1.26,8.65-2.75,12.14-1.48,3.49-3.31,6.6-5.49,9.35-2.18,2.74-4.54,5.2-7.06,7.38-2.54,2.19-4.99,4.3-7.33,6.36-2.17,1.81-4.3,3.59-6.38,5.36-2.07,1.77-3.93,3.67-5.57,5.75-1.64,2.07-3.01,4.38-4.08,6.92-1.07,2.55-1.7,5.48-1.87,8.8l-.69,11.44-25.52-1.36.8-13.39c.39-4.35,1.35-8.21,2.87-11.63,1.54-3.4,3.35-6.47,5.45-9.19,2.09-2.72,4.37-5.22,6.84-7.47,2.46-2.26,4.81-4.45,7.05-6.58,1.81-1.67,3.74-3.44,5.78-5.31,2.05-1.86,3.95-3.91,5.71-6.13s3.22-4.63,4.36-7.21c1.15-2.59,1.74-5.45,1.76-8.57-.2-3.19-.81-6.11-1.83-8.76-1.04-2.65-2.46-4.96-4.28-6.9-1.82-1.95-4.05-3.49-6.69-4.62-2.64-1.12-5.68-1.78-9.1-1.96-4.67-.25-8.72.47-12.18,2.16-3.44,1.68-6.33,4.05-8.64,7.1-2.32,3.05-4.1,6.65-5.3,10.8-.42,1.43-.77,2.87-1.06,4.37l-24.91-6.44c.7-3.1,1.62-6.09,2.75-8.93,2.76-6.88,6.56-12.7,11.39-17.49,4.84-4.79,10.58-8.41,17.24-10.86,6.66-2.45,13.98-3.47,21.96-3.04,7.21.38,13.78,1.74,19.68,4.08,5.91,2.35,10.93,5.56,15.05,9.67,4.13,4.09,7.24,9.01,9.35,14.77,2.11,5.77,3.01,12.22,2.67,19.38Z"/>
    </g>
    <g>
      <path class="cls-18" d="M976.52,343.17c.76-.92,1.66-1.65,2.68-2.17,1.02-.52,2.09-.83,3.21-.93,1.12-.1,2.24.03,3.37.37,1.12.34,2.16.9,3.1,1.68.95.78,1.69,1.69,2.24,2.73.54,1.04.87,2.12.99,3.24.12,1.12.02,2.24-.29,3.34-.31,1.11-.85,2.13-1.61,3.05s-1.69,1.68-2.72,2.19c-1.03.51-2.1.81-3.22.9-1.11.08-2.23-.04-3.35-.38-1.12-.34-2.16-.9-3.1-1.68-.95-.78-1.69-1.69-2.24-2.73-.54-1.04-.88-2.11-1.01-3.22-.13-1.11-.03-2.21.29-3.31.32-1.1.87-2.12,1.66-3.07Z"/>
      <path class="cls-18" d="M1040.85,323.65c-1.7,1.97-3.47,3.49-5.31,4.57-1.84,1.08-3.71,1.87-5.62,2.39-1.9.51-3.79.83-5.67.97-1.88.14-3.7.27-5.44.42-1.59.09-3.15.18-4.68.29-1.53.11-3.01.35-4.44.73-1.44.39-2.83.97-4.16,1.76-1.34.8-2.6,1.91-3.8,3.35l-4.15,4.94-11.08-9.17,4.85-5.79c1.63-1.84,3.36-3.26,5.2-4.29,1.83-1.02,3.68-1.8,5.54-2.33,1.86-.53,3.73-.89,5.6-1.09,1.87-.2,3.66-.4,5.39-.61,1.38-.15,2.84-.3,4.39-.46,1.55-.16,3.1-.44,4.63-.86,1.54-.41,3.01-1.01,4.39-1.8,1.39-.79,2.62-1.88,3.67-3.29.98-1.51,1.68-3.03,2.11-4.58.42-1.55.55-3.07.37-4.55-.17-1.49-.66-2.93-1.48-4.33-.82-1.39-1.97-2.71-3.46-3.94-2.03-1.68-4.1-2.71-6.23-3.1-2.12-.39-4.22-.29-6.29.32-2.07.6-4.08,1.63-6.01,3.11-.67.51-1.31,1.04-1.94,1.62l-9.11-11.26c1.35-1.17,2.77-2.21,4.24-3.11,3.55-2.18,7.22-3.55,11.01-4.09,3.79-.55,7.6-.26,11.44.87,3.83,1.12,7.48,3.12,10.95,5.98,3.13,2.59,5.65,5.4,7.53,8.44,1.88,3.04,3.08,6.18,3.57,9.42.49,3.23.25,6.5-.72,9.81-.98,3.32-2.74,6.53-5.29,9.66Z"/>
    </g>
  </g>
</svg>