<?xml version="1.0" encoding="UTF-8"?>
<svg id="Layer_1" data-name="Layer 1" xmlns="http://www.w3.org/2000/svg" xmlns:xlink="http://www.w3.org/1999/xlink" viewBox="0 0 1080 1080">
  <defs>
    <style>
      .cls-1, .cls-2, .cls-3, .cls-4, .cls-5, .cls-6, .cls-7, .cls-8 {
        fill: none;
      }

      .cls-9, .cls-10 {
        fill: #070707;
      }

      .cls-11 {
        fill: #586f94;
      }

      .cls-12, .cls-13 {
        fill: #3b6aad;
      }

      .cls-14, .cls-15, .cls-2, .cls-13, .cls-10, .cls-7, .cls-8 {
        stroke: #fff;
      }

      .cls-14, .cls-15, .cls-13, .cls-3, .cls-4, .cls-5, .cls-10, .cls-7, .cls-8 {
        stroke-miterlimit: 10;
      }

      .cls-14, .cls-13, .cls-10, .cls-7, .cls-8 {
        stroke-width: 2px;
      }

      .cls-14, .cls-16 {
        fill: #101e35;
      }

      .cls-17, .cls-18 {
        fill: #accdf8;
      }

      .cls-19 {
        fill: #e9456c;
      }

      .cls-20, .cls-21 {
        fill: #7db0f2;
      }

      .cls-22 {
        fill: #ffcc5a;
      }

      .cls-23 {
        fill: #2b588e;
      }

      .cls-24 {
        fill: #f39b47;
      }

      .cls-25 {
        fill: #0d2243;
      }

      .cls-26 {
        fill: #b3c4dc;
      }

      .cls-27 {
        fill: #80d28a;
      }

      .cls-28 {
        fill: #f4b39f;
      }

      .cls-29 {
        clip-path: url(#clippath-1);
      }

      .cls-30 {
        fill: #fff;
      }

      .cls-15 {
        stroke-width: 1.31px;
      }

      .cls-15, .cls-31 {
        fill: #024f85;
      }

      .cls-32 {
        fill: #ff4a75;
      }

      .cls-2, .cls-3, .cls-4, .cls-5, .cls-6, .cls-7 {
        stroke-linecap: round;
      }

      .cls-2, .cls-5, .cls-6 {
        stroke-width: 3px;
      }

      .cls-2, .cls-6 {
        stroke-linejoin: round;
      }

      .cls-3 {
        stroke-width: 3.25px;
      }

      .cls-3, .cls-4, .cls-5, .cls-6 {
        stroke: #060a25;
      }

      .cls-4 {
        stroke-width: 3.25px;
      }

      .cls-33 {
        fill: #193d70;
      }

      .cls-34 {
        fill: #dceaff;
      }

      .cls-35 {
        opacity: .5;
      }

      .cls-36 {
        opacity: .1;
      }

      .cls-37 {
        fill: #060a25;
      }

      .cls-38 {
        fill: #002447;
      }

      .cls-39 {
        fill: #f4f4f2;
      }

      .cls-21, .cls-18 {
        opacity: .2;
      }

      .cls-40 {
        fill: #f7f8fd;
      }

      .cls-41 {
        fill: #d3dde6;
      }

      .cls-42 {
        clip-path: url(#clippath);
      }

      .cls-43 {
        fill: #f28281;
      }
    </style>
    <clipPath id="clippath">
      <rect class="cls-1" x="0" y="0" width="1080" height="1080"/>
    </clipPath>
    <clipPath id="clippath-1">
      <path class="cls-1" d="M970.32,597.4l-88.31,298.46-257.59-76.21,75.58-255.46,33.22-112.24c29.86,13.69,60.03,27.83,90.49,42.45,44.25,21.25,87.37,42.66,129.33,64.16,3.08,1.14,8.61,3.71,12.99,9.32,9.62,12.32,4.81,27.92,4.29,29.51Z"/>
    </clipPath>
  </defs>
  <g class="cls-42">
    <path class="cls-11" d="M1013.78,267.09v678.26c0,74.36-60.28,134.65-134.65,134.65H200.88c-45.12,0-85.05-22.19-109.48-56.25-15.84-22.08-25.17-49.15-25.17-78.4V267.09c0-74.36,60.28-134.65,134.65-134.65h678.25c74.37,0,134.65,60.29,134.65,134.65Z"/>
    <g>
      <g>
        <path class="cls-20" d="M937.36,175.96c-1.04,2.81-2.48,5.11-4.32,6.9-1.84,1.79-3.91,3.11-6.21,3.95-2.3.84-4.74,1.2-7.33,1.07-2.58-.13-5.14-.71-7.66-1.74-2.53-1.03-4.67-2.46-6.43-4.29-1.76-1.83-3.1-3.87-4.03-6.13-.93-2.26-1.44-4.65-1.53-7.2-.1-2.54.29-5.06,1.18-7.56,1.49-4.3,3.15-7.84,5-10.63,1.85-2.78,4.12-5.3,6.8-7.55,2.68-2.25,5.92-4.44,9.7-6.58,3.78-2.14,8.32-4.72,13.61-7.76,3.74-1.87,7.45-3.9,11.15-6.1,3.69-2.2,7.15-4.61,10.37-7.23,3.22-2.62,6.05-5.54,8.48-8.75,2.44-3.21,4.25-6.83,5.45-10.87.91-3.06,1.43-6.2,1.56-9.41.14-3.22-.29-6.26-1.28-9.14-.99-2.88-2.6-5.44-4.84-7.7-2.24-2.25-5.31-3.96-9.21-5.12-4.56-1.35-8.63-1.9-12.2-1.65-3.58.25-6.76,1.13-9.54,2.64-2.78,1.51-5.19,3.58-7.2,6.21-2.02,2.63-3.74,5.64-5.17,9.04-.99,2.4-2.44,4.41-4.34,6.04-1.9,1.63-4.02,2.83-6.37,3.58-2.35.76-4.83,1.07-7.44.93s-5.13-.78-7.56-1.92c-2.42-1.14-4.47-2.65-6.15-4.53-1.68-1.88-2.94-3.95-3.79-6.22-.85-2.27-1.22-4.66-1.11-7.18.11-2.52.72-4.95,1.84-7.31,3.06-6.53,6.91-12.29,11.54-17.29,4.63-5,10.04-8.94,16.24-11.82,6.2-2.87,13.15-4.5,20.88-4.87,7.72-.37,16.24.82,25.55,3.58,9.51,2.81,17.79,6.63,24.86,11.45,7.07,4.82,12.7,10.36,16.9,16.63,4.2,6.27,6.85,13.14,7.97,20.63,1.11,7.48.48,15.26-1.91,23.33-1.96,6.64-4.5,12.26-7.59,16.87-3.1,4.61-6.62,8.66-10.56,12.17-3.94,3.51-8.3,6.7-13.08,9.57-4.78,2.87-9.79,5.86-15.03,8.99-3.75,2.15-7.05,3.95-9.89,5.41-2.84,1.46-5.33,2.95-7.48,4.48-2.15,1.52-4.04,3.29-5.65,5.28-1.62,2-3.01,4.6-4.16,7.8Z"/>
        <path class="cls-20" d="M885.29,209.09c.79-2.67,2.03-5.03,3.74-7.07,1.7-2.05,3.71-3.68,6.02-4.91,2.31-1.23,4.82-1.99,7.53-2.29,2.71-.3,5.43-.04,8.16.77,2.73.81,5.16,2.07,7.27,3.8,2.11,1.72,3.8,3.73,5.07,6.01,1.27,2.29,2.08,4.76,2.43,7.41.35,2.65.13,5.31-.66,7.98-.81,2.73-2.08,5.12-3.82,7.15-1.74,2.04-3.75,3.65-6.05,4.85-2.3,1.2-4.81,1.94-7.51,2.24-2.71.3-5.43.04-8.16-.77-2.73-.81-5.16-2.08-7.27-3.8-2.11-1.72-3.81-3.71-5.08-5.96-1.28-2.25-2.08-4.7-2.39-7.35-.32-2.64-.07-5.33.74-8.06Z"/>
      </g>
      <g>
        <path class="cls-5" d="M887.21,68.6c.3-1.64.82-3.25,1.57-4.83,3.06-6.53,6.91-12.29,11.54-17.29,4.63-5,10.04-8.94,16.24-11.82,6.2-2.87,13.15-4.5,20.88-4.87,7.72-.37,16.24.82,25.55,3.58,9.51,2.81,17.79,6.63,24.86,11.45,7.07,4.82,12.7,10.36,16.9,16.63,4.2,6.27,6.85,13.14,7.97,20.63,1.11,7.48.48,15.26-1.91,23.33-1.96,6.64-4.5,12.26-7.59,16.87-3.1,4.61-6.62,8.66-10.56,12.17-3.94,3.51-8.3,6.7-13.08,9.57-4.78,2.87-9.79,5.86-15.03,8.99-3.75,2.15-7.05,3.95-9.89,5.41-2.84,1.46-5.33,2.95-7.48,4.48-2.15,1.52-4.04,3.29-5.65,5.28-1.17,1.45-2.22,3.21-3.16,5.29"/>
        <path class="cls-5" d="M901.02,160.96c1.49-4.3,3.15-7.84,5-10.63,1.85-2.78,4.12-5.3,6.8-7.55,2.68-2.25,5.92-4.44,9.7-6.58,3.78-2.14,8.32-4.72,13.61-7.76,3.74-1.87,7.45-3.9,11.15-6.1,3.69-2.2,7.15-4.61,10.37-7.23,3.22-2.62,6.05-5.54,8.48-8.75,2.44-3.21,4.25-6.83,5.45-10.87.91-3.06,1.43-6.2,1.56-9.41.14-3.22-.29-6.26-1.28-9.14-.99-2.88-2.6-5.44-4.84-7.7-2.24-2.25-5.31-3.96-9.21-5.12-4.56-1.35-8.63-1.9-12.2-1.65-3.58.25-6.76,1.13-9.54,2.64-2.78,1.51-5.19,3.58-7.2,6.21-.61.79-1.19,1.61-1.74,2.47"/>
        <path class="cls-5" d="M885.29,209.09c.79-2.67,2.03-5.03,3.74-7.07,1.7-2.05,3.71-3.68,6.02-4.91,2.31-1.23,4.82-1.99,7.53-2.29,2.71-.3,5.43-.04,8.16.77,2.73.81,5.16,2.07,7.27,3.8,2.11,1.72,3.8,3.73,5.07,6.01,1.27,2.29,2.08,4.76,2.43,7.41.35,2.65.13,5.31-.66,7.98-.81,2.73-2.08,5.12-3.82,7.15-1.74,2.04-3.75,3.65-6.05,4.85-2.3,1.2-4.81,1.94-7.51,2.24-2.71.3-5.43.04-8.16-.77-2.73-.81-5.16-2.08-7.27-3.8-2.11-1.72-3.81-3.71-5.08-5.96-1.28-2.25-2.08-4.7-2.39-7.35-.32-2.64-.07-5.33.74-8.06Z"/>
      </g>
    </g>
    <g>
      <path class="cls-19" d="M128.55,261.01c-.65-3.26-.64-6.45.03-9.56.66-3.11,1.88-5.96,3.64-8.54,1.76-2.58,3.99-4.78,6.69-6.6,2.7-1.82,5.72-3.06,9.06-3.72,3.34-.66,6.61-.67,9.8-.02,3.19.65,6.09,1.83,8.7,3.54,2.61,1.71,4.84,3.88,6.69,6.49,1.84,2.61,3.09,5.55,3.73,8.81.66,3.34.64,6.57-.06,9.69-.71,3.12-1.94,5.95-3.71,8.49-1.77,2.54-4.01,4.72-6.7,6.54-2.7,1.82-5.72,3.06-9.06,3.72-3.34.66-6.61.67-9.8.02-3.19-.65-6.09-1.81-8.69-3.48-2.61-1.67-4.81-3.82-6.61-6.44-1.8-2.62-3.03-5.6-3.7-8.94Z"/>
      <path class="cls-19" d="M199.32,88.41c1.24,7.11,1.42,13.59.52,19.43-.9,5.85-2.47,11.26-4.71,16.27-2.24,4.99-4.87,9.62-7.85,13.89-3,4.29-5.89,8.43-8.64,12.45-2.59,3.57-5.12,7.1-7.59,10.57-2.45,3.47-4.53,7.07-6.22,10.84-1.69,3.77-2.86,7.79-3.5,12.05-.63,4.27-.46,8.95.55,14.04l3.36,17.57-39.14,7.77-3.95-20.57c-1.09-6.73-1.13-12.95-.13-18.7,1.02-5.74,2.59-11.08,4.71-16,2.12-4.92,4.61-9.58,7.48-13.95,2.85-4.37,5.56-8.59,8.14-12.67,2.1-3.23,4.33-6.64,6.71-10.26,2.38-3.61,4.47-7.44,6.28-11.47,1.81-4.04,3.09-8.25,3.82-12.6.75-4.37.54-8.93-.64-13.65-1.52-4.75-3.58-8.94-6.15-12.55-2.59-3.61-5.64-6.56-9.14-8.79-3.51-2.25-7.47-3.71-11.91-4.41-4.43-.68-9.28-.5-14.53.54-7.17,1.42-13.02,4.07-17.6,7.96-4.56,3.87-8.02,8.57-10.34,14.08-2.34,5.51-3.64,11.64-3.86,18.39-.08,2.32-.05,4.65.08,7.02l-40.19-.15c-.14-4.96.11-9.84.73-14.58,1.53-11.47,5.03-21.75,10.5-30.85,5.47-9.12,12.77-16.8,21.92-23.08,9.13-6.28,19.83-10.63,32.07-13.06,11.07-2.2,21.52-2.68,31.36-1.4,9.84,1.27,18.68,4.21,26.51,8.83,7.82,4.6,14.43,10.85,19.84,18.75,5.42,7.91,9.26,17.34,11.51,28.3Z"/>
      <g>
        <path class="cls-5" d="M168.52,237.61c1.75,1.43,3.3,3.09,4.64,4.99,1.84,2.61,3.09,5.55,3.73,8.81.66,3.34.64,6.57-.06,9.69-.71,3.12-1.94,5.95-3.71,8.49-1.77,2.54-4.01,4.72-6.7,6.54-2.7,1.82-5.72,3.06-9.06,3.72-3.34.66-6.61.67-9.8.02-3.19-.65-6.09-1.81-8.69-3.48-2.61-1.67-4.81-3.82-6.61-6.44-1.8-2.62-3.03-5.6-3.7-8.94-.65-3.26-.64-6.45.03-9.56.66-3.11,1.88-5.96,3.64-8.54,1.76-2.58,3.99-4.78,6.69-6.6,2.7-1.82,5.72-3.06,9.06-3.72"/>
        <path class="cls-5" d="M200.34,97.3c.18,3.72.01,7.23-.5,10.55-.9,5.85-2.47,11.26-4.71,16.27-2.24,4.99-4.87,9.62-7.85,13.89-3,4.29-5.89,8.43-8.64,12.45-2.59,3.57-5.12,7.1-7.59,10.57-2.45,3.47-4.53,7.07-6.22,10.84-1.69,3.77-2.86,7.79-3.5,12.05-.63,4.27-.46,8.95.55,14.04"/>
        <path class="cls-5" d="M126.11,223.29l-3.95-20.57c-1.09-6.73-1.13-12.95-.13-18.7,1.02-5.74,2.59-11.08,4.71-16,2.12-4.92,4.61-9.58,7.48-13.95,2.85-4.37,5.56-8.59,8.14-12.67,2.1-3.23,4.33-6.64,6.71-10.26,2.38-3.61,4.47-7.44,6.28-11.47,1.81-4.04,3.09-8.25,3.82-12.6.75-4.37.54-8.93-.64-13.65-1.52-4.75-3.58-8.94-6.15-12.55-2.59-3.61-5.64-6.56-9.14-8.79-3.51-2.25-7.47-3.71-11.91-4.41-4.43-.68-9.28-.5-14.53.54-7.17,1.42-13.02,4.07-17.6,7.96-4.56,3.87-8.02,8.57-10.34,14.08-2.34,5.51-3.64,11.64-3.86,18.39-.08,2.32-.05,4.65.08,7.02l-40.19-.15c-.14-4.96.11-9.84.73-14.58,1.53-11.47,5.03-21.75,10.5-30.85,5.47-9.12,12.77-16.8,21.92-23.08,9.13-6.28,19.83-10.63,32.07-13.06,11.07-2.2,21.52-2.68,31.36-1.4,9.84,1.27,18.68,4.21,26.51,8.83,2.24,1.32,4.39,2.78,6.43,4.37"/>
      </g>
    </g>
    <g>
      <path class="cls-40" d="M593.54,147.89c.77-1.57,1.79-2.9,3.06-3.98,1.27-1.09,2.68-1.89,4.24-2.4,1.56-.52,3.19-.72,4.9-.62,1.71.1,3.36.55,4.97,1.33,1.61.79,2.97,1.83,4.1,3.11,1.12,1.29,1.96,2.71,2.5,4.25.55,1.55.79,3.16.72,4.84-.06,1.68-.48,3.3-1.25,4.87-.79,1.61-1.83,2.95-3.11,4.02-1.29,1.08-2.71,1.86-4.26,2.36-1.55.5-3.18.7-4.88.59-1.71-.1-3.36-.55-4.97-1.33-1.61-.79-2.97-1.83-4.1-3.11-1.12-1.29-1.96-2.7-2.52-4.23-.56-1.53-.79-3.13-.71-4.8.08-1.67.52-3.31,1.31-4.91Z"/>
      <path class="cls-40" d="M678.09,98.4c-1.75,3.36-3.74,6.12-5.98,8.28-2.24,2.15-4.62,3.91-7.15,5.29-2.52,1.37-5.1,2.46-7.7,3.3-2.62.84-5.15,1.64-7.57,2.44-2.22.67-4.4,1.33-6.54,1.99-2.13.67-4.14,1.51-6.05,2.54-1.91,1.03-3.68,2.34-5.3,3.91-1.63,1.58-3.04,3.59-4.24,6.04l-4.2,8.41-18.82-9.23,4.91-9.85c1.69-3.16,3.66-5.76,5.91-7.85,2.25-2.07,4.61-3.8,7.06-5.18,2.45-1.38,4.98-2.53,7.57-3.44,2.58-.92,5.06-1.81,7.44-2.69,1.91-.68,3.92-1.39,6.07-2.15,2.14-.75,4.24-1.68,6.28-2.79s3.92-2.46,5.61-4.04c1.7-1.59,3.07-3.56,4.08-5.9.88-2.47,1.36-4.87,1.43-7.2.07-2.34-.26-4.53-1.01-6.58-.75-2.06-1.94-3.93-3.57-5.64-1.63-1.7-3.71-3.17-6.24-4.41-3.45-1.69-6.73-2.45-9.88-2.29-3.14.16-6.08,1.02-8.8,2.58-2.73,1.56-5.23,3.7-7.47,6.45-.78.94-1.5,1.92-2.2,2.96l-16.73-12.87c1.52-2.12,3.18-4.07,4.95-5.85,4.3-4.3,9.03-7.48,14.22-9.53,5.19-2.06,10.68-2.94,16.5-2.65,5.81.29,11.67,1.88,17.55,4.77,5.32,2.61,9.84,5.74,13.54,9.41,3.7,3.67,6.46,7.71,8.25,12.13,1.8,4.41,2.56,9.13,2.31,14.15-.26,5.03-1.66,10.19-4.22,15.48Z"/>
    </g>
    <g>
      <path class="cls-4" d="M874.48,973.82l14.09,4.17c4.32,1.28,8.77,1.92,13.25,1.92,16.47,0,31.58-8.87,39.9-22.55"/>
      <line class="cls-4" x1="868.81" y1="989.07" x2="855.23" y2="985.06"/>
      <path class="cls-4" d="M938.81,984c-10.53,7.68-23.41,12.15-36.99,12.15h0c-4.49,0-8.96-.48-13.35-1.44"/>
      <line class="cls-4" x1="993.78" y1="786.81" x2="1033.21" y2="653.56"/>
      <line class="cls-4" x1="985.96" y1="813.25" x2="994.23" y2="785.29"/>
      <line class="cls-4" x1="1033.21" y1="710.78" x2="1012.8" y2="779.74"/>
      <path class="cls-4" d="M640.98,938.49c-20.07-7.06-35.66-21.58-44.54-39.48"/>
      <path class="cls-4" d="M626.92,912.09c-18.59-15.61-27.25-41.33-19.93-66.05l2.74-9.27"/>
      <g>
        <line class="cls-3" x1="976.83" y1="370.22" x2="996.93" y2="376.17"/>
        <line class="cls-3" x1="951.13" y1="362.62" x2="960.61" y2="365.42"/>
        <line class="cls-3" x1="894.01" y1="345.72" x2="951.13" y2="362.62"/>
      </g>
    </g>
    <g>
      <g>
        <path class="cls-39" d="M390.95,748.01c130.86,17.78,301.97,27.62,435.53,46.47,36.82,5.2,71.45-18.8,79.52-55.1h0c8.55-38.49-15.78-76.61-54.29-85.05l-433.85-91.24c-53.18-8.23-102.3,30.04-107.32,83.62h0c-4.67,49.87,30.78,94.55,80.41,101.3Z"/>
        <path class="cls-26" d="M637.86,588.96l217.87,47.01c39.08,8.57,68.11,42.42,70.6,82.31h0c.52,8.41-.14,16.89-1.98,25.18-10.13,45.58-54.27,76.17-100.5,69.64-126.83-17.91-304.07-28.61-435.43-46.46-52.81-7.18-93.55-50.96-96.87-104.11-.36-5.82-.27-11.73.28-17.57"/>
        <path class="cls-26" d="M291.82,644.95c2.92-31.13,18.1-58.85,42.76-78.06,24.66-19.21,55.25-27.16,86.14-22.38l.58.09,216.55,44.36"/>
      </g>
      <polyline class="cls-5" points="705.37 602.79 421.31 544.6 420.73 544.51"/>
    </g>
    <rect class="cls-25" x="669" y="227.8" width="31.02" height="304.33" transform="translate(-96.94 427.64) rotate(-32.53)"/>
    <g>
      <g>
        <polygon class="cls-28" points="784.7 422.92 714.07 478.11 742.96 527.82 829.66 504.2 784.7 422.92"/>
        <g>
          <g>
            <rect class="cls-28" x="679.58" y="424.73" width="36.73" height="72.73" rx="18.37" ry="18.37" transform="translate(-137.62 421.45) rotate(-30.73)"/>
            <rect class="cls-5" x="679.58" y="424.73" width="36.73" height="72.73" rx="18.37" ry="18.37" transform="translate(-137.62 421.45) rotate(-30.73)"/>
          </g>
          <g>
            <rect class="cls-28" x="714.14" y="371.97" width="36.73" height="87" rx="18.37" ry="18.37" transform="translate(715.27 -426.48) rotate(59.27)"/>
            <path class="cls-5" d="M721.26,400.78l-19.75,11.74c-8.68,5.16-11.56,16.49-6.4,25.17h0c2.46,4.13,6.31,6.95,10.61,8.21"/>
          </g>
          <g>
            <rect class="cls-28" x="765.07" y="455.05" width="36.73" height="80.27" rx="18.37" ry="18.37" transform="translate(808.7 -431.28) rotate(59.27)"/>
            <path class="cls-5" d="M755.34,490.53c-8.68,5.16-11.56,16.49-6.4,25.17h0c5.16,8.68,16.49,11.56,25.17,6.4l37.42-22.25c7.98-4.74,11.06-14.7,7.5-23.02"/>
          </g>
          <g>
            <rect class="cls-28" x="746.35" y="419.75" width="36.73" height="99.8" rx="18.37" ry="18.37" transform="translate(777.59 -427.68) rotate(59.27)"/>
            <path class="cls-5" d="M728.23,469.98c-8.68,5.16-11.56,16.49-6.4,25.17h0c5.16,8.68,16.49,11.56,25.17,6.4l54.21-32.23c8.68-5.16,11.56-16.49,6.4-25.17"/>
          </g>
          <g>
            <rect class="cls-28" x="730.82" y="393.06" width="36.73" height="98.3" rx="18.37" ry="18.37" transform="translate(746.42 -427.74) rotate(59.27)"/>
            <rect class="cls-5" x="730.82" y="393.06" width="36.73" height="98.3" rx="18.37" ry="18.37" transform="translate(746.42 -427.74) rotate(59.27)"/>
          </g>
        </g>
      </g>
      <line class="cls-5" x1="738.15" y1="524.18" x2="805.95" y2="717.7"/>
      <line class="cls-5" x1="825.3" y1="472.33" x2="990.97" y2="697.05"/>
    </g>
    <g>
      <polygon class="cls-28" points="272.3 355.2 226.76 491.15 390.3 545.65 397.15 428.55 328.25 342.12 272.3 355.2"/>
      <path class="cls-43" d="M455.16,418.65s-70.57,94.69-126.71,78.34c-86.79-25.27-47.94-145.53-47.94-145.53,0,0,18.12,88.87,72.31,99.6,60.43,11.97,102.34-32.41,102.34-32.41Z"/>
      <path class="cls-25" d="M200.14,245.94l48.04,181.38s37.58-115.83,39.89-117.77c2.31-1.95,17.25-78,17.25-78l-34.84-74.99-18.74,4.71c-37.43,9.41-60.39,47.1-51.6,84.67Z"/>
      <ellipse class="cls-25" cx="268.2" cy="237.59" rx="78.68" ry="67.71" transform="translate(16.67 492.76) rotate(-86.95)"/>
      <path class="cls-28" d="M257.91,173.45l-6.97,130.63c-.14,2.61-.2,5.18-.22,7.75-.65,80.93,56.81,150.02,134.73,165.45,7.76,1.54,15.7,2.55,23.83,2.99,52.97,2.83,98.15-37.78,100.97-90.75l11.42-214.16-263.77-1.9Z"/>
      <circle class="cls-37" cx="403.53" cy="301.08" r="7.85"/>
      <circle class="cls-37" cx="492.62" cy="306.34" r="7.85"/>
      <path class="cls-5" d="M439.44,396.24c-3.85-1.97-8.74-4.05-14.6-5.59-9.06-2.38-17-2.56-22.67-2.22"/>
      <path class="cls-43" d="M250.73,311.83c-.65,80.93,56.81,150.02,134.73,165.45-99.55-52.19-116.73-160.86-116.73-160.86l-18.01-4.59Z"/>
      <path class="cls-5" d="M409.28,480.45c-92.36-4.93-163.27-83.8-158.35-176.19"/>
      <path class="cls-43" d="M353.69,184.64s-2,108.34-83.68,166.81l-5.58-43.04,16.1-26.4s32.28-85.14,31.27-86.49c-1.02-1.35,18.51-33.41,18.51-33.41l23.39,22.53Z"/>
      <path class="cls-25" d="M545.3,171.71c-3.71,14.73-15.21,25.65-28.98,27.77-1.19.18-2.39.36-3.58.52-104.96,14.72-252.13-31.27-252.13-31.27-.76-.22-1.48-.46-2.13-.78-7.52-3.27-8.16-6.57-6.87-14.5,2.16-13.36,10.6-24.56,21.99-29.96,6.12-2.89,4.03-24.1,12.8-26.82,36.35-11.26,73.64-10.69,101.6-19.85,1.79-.59,3.56-1.17,5.34-1.78,25.38-8.74,49.97-20.15,73.4-34.09l30.89-18.39c55.29,68.38,54.88,120.73,47.68,149.16Z"/>
      <path class="cls-25" d="M287.67,299.83s53.65-64.17,49.14-129.14l-78.4-6.32s-8.12,17.09-10.31,16.98c-55.41-2.96-12.28,60.54-7.81,68.9,4.47,8.36,47.38,49.59,47.38,49.59Z"/>
      <line class="cls-5" x1="358.29" y1="271.77" x2="267.66" y2="266.94"/>
      <path class="cls-43" d="M324.55,288.8s-38.1,99,5.09,146.15l-53.8-57.08-13.11-37.65,24-22.86,37.82-28.57Z"/>
      <g>
        <path class="cls-5" d="M425.69,256.97c-.34-1.63-4.12-18.32-19.59-24.9-13.58-5.78-30.41-1.3-40.78,11.44"/>
        <path class="cls-6" d="M524.73,257.48c-5.44,9.77-15.65,15.87-26.64,15.86-15.4-.02-24.1-12.05-24.88-13.17-6.04,5.46-14.01,14.29-19.4,27.06-14.1,33.44,1.55,65.5,4.4,71.09-8.6,1.59-17.19,3.18-25.79,4.77"/>
      </g>
      <path class="cls-5" d="M427.26,275.45s18.02-13.77,35.61,1.9"/>
      <path class="cls-5" d="M358.12,274.91l-.76,14.28c-1.02,19.05,13.74,35.46,32.78,36.48h0c19.05,1.02,35.46-13.74,36.48-32.78l.93-17.42-69.26-3.69-.17,3.14Z"/>
      <path class="cls-5" d="M462.7,280.49l-.76,14.28c-1.02,19.05,13.74,35.46,32.78,36.48h0c19.05,1.02,35.46-13.74,36.48-32.78l.93-17.42-69.26-3.69-.17,3.14Z"/>
      <circle class="cls-25" cx="302.95" cy="146.89" r="52.86"/>
      <circle class="cls-43" cx="268.16" cy="286.1" r="38.57"/>
      <path class="cls-5" d="M282.09,322.07c-1.89.73-3.87,1.32-5.91,1.76-20.84,4.43-41.32-8.87-45.75-29.71-.72-3.39-.97-6.77-.8-10.08"/>
      <path class="cls-5" d="M244.56,280.85s-.6,24.55,22.53,25.43"/>
    </g>
    <g>
      <circle class="cls-25" cx="623.85" cy="314.19" r="109.88" transform="translate(182.33 855.45) rotate(-77.53)"/>
      <circle class="cls-30" cx="638.44" cy="322.15" r="109.88" transform="translate(185.99 875.94) rotate(-77.53)"/>
      <circle class="cls-18" cx="638.44" cy="322.15" r="93.11" transform="translate(-73.07 393.8) rotate(-32.53)"/>
      <path class="cls-17" d="M729.36,342.27c-11.11,50.21-60.82,81.9-111.03,70.8-21.28-4.71-39.23-16.35-52.01-32.02,10.91,8.89,24.01,15.44,38.69,18.69,50.21,11.11,99.91-20.59,111.02-70.8,6.4-28.94-1.42-57.72-18.81-79.03,26.42,21.53,40,56.82,32.14,92.36Z"/>
      <circle class="cls-6" cx="638.44" cy="322.15" r="93.11" transform="translate(-73.07 393.8) rotate(-32.53)"/>
      <g>
        <line class="cls-2" x1="584.78" y1="297.41" x2="662.93" y2="375.56"/>
        <line class="cls-2" x1="626.1" y1="291.56" x2="656.69" y2="322.15"/>
      </g>
    </g>
    <g>
      <path class="cls-39" d="M604.52,1080H200.88c-45.12,0-85.05-22.19-109.48-56.25l-25.17-258.62-1.43-14.75-6.72-68.99c-2.25-23.16.73-45.93,8.15-66.92,13.77-38.97,42.84-71.84,82.13-89.77l46.98-21.45c52.87,8.42,105.75,16.84,158.63,25.26,13.61,2.17,22.9,11.91,36.52,14.08,4.82.76,13.97-6.04,18.8-5.27l.95.25c61.11,15.61,109.93,61.63,128.91,121.79,21.09,66.86,40.27,145,52.33,233.03,9.27,67.65,12.89,130.62,13.04,187.61Z"/>
      <path class="cls-41" d="M408.59,1080h-207.71c-45.12,0-85.05-22.19-109.48-56.25l-25.17-258.62v-.06l-1.43-14.69,1.43.03,208.91,3.97,133.45,325.62Z"/>
      <polygon class="cls-16" points="373.48 1115.33 433.9 1138.39 455.22 1099.41 390.48 542.59 353.69 595.87 373.48 1115.33"/>
      <polygon class="cls-16" points="408.06 586.69 399.88 623.44 332.8 594.54 390.48 542.59 408.06 586.69"/>
      <polygon class="cls-41" points="390.48 542.59 343.09 614.1 195.33 503.25 219.4 464.1 390.48 542.59"/>
      <polygon class="cls-41" points="390.48 542.59 409.28 594.54 409.28 537.32 392.37 510.34 390.48 542.59"/>
    </g>
    <path class="cls-30" d="M740.82,647.22c.07.25.14.51.21.8"/>
    <g>
      <rect class="cls-16" x="701.45" y="379" width="307.56" height="561.3" rx="31.49" ry="31.49" transform="translate(222.29 -215.54) rotate(16.48)"/>
      <polygon class="cls-16" points="1058.21 427.74 1026.52 406.6 613.32 865.75 647.46 888.36 1021.01 494.68 1058.21 427.74"/>
      <rect class="cls-20" x="665.2" y="354.84" width="307.56" height="561.3" rx="31.49" ry="31.49" transform="translate(213.95 -206.24) rotate(16.48)"/>
      <path class="cls-4" d="M824.5,344.44l-43.16-12.77c-16.68-4.93-34.2,4.59-39.13,21.26l-58.2,196.72"/>
      <rect class="cls-38" x="683.47" y="412.01" width="268.62" height="455.11" transform="translate(215.06 -205.73) rotate(16.48)"/>
      <rect class="cls-34" x="849.83" y="391.15" width="79.72" height="10.76" rx="5.12" ry="5.12" transform="translate(149.06 -236.12) rotate(16.48)"/>
    </g>
    <g>
      <path class="cls-10" d="M853.52,478.44c2-12.29-6.7-23.75-19.08-25.13-25.3-2.82-67.42-6.53-103.69-5.02-6.76.28-18.37,10.04-20.52,16.45h0c-3.25,9.68,3.08,19.93,13.19,21.37l106.48,10.5c11.44,1.13,21.78-6.83,23.63-18.18h0Z"/>
      <path class="cls-14" d="M846.93,435.23h4.3c40.95,0,74.2,33.25,74.2,74.2v147.47h-152.69v-147.47c0-40.95,33.25-74.2,74.2-74.2Z" transform="translate(41.82 -60.12) rotate(4.16)"/>
      <ellipse class="cls-9" cx="845.53" cy="448.41" rx="39.98" ry="23.42" transform="translate(-62.77 146.78) rotate(-9.57)"/>
      <polygon class="cls-9" points="876.43 508.96 865.17 588.96 909.6 583.82 876.43 508.96"/>
      <path class="cls-14" d="M939,628.87l-147.62-9.18.55-26.69s83.48-7.58,147.62-10.71c10.18-.5,19.08,17.14,18.75,27.32h0c-.3,9.54-9.75,19.55-19.29,19.25Z"/>
      <path class="cls-16" d="M894.32,565.1c5.74,16.39,12.17,33.1,19.08,48.47,3.28,7.3,19.08,15.74,27.07,15.28"/>
      <path class="cls-14" d="M940.47,628.84h0c12.05-.7,20.51-12.15,17.64-23.87l-35.29-121.42c-3.79-13.04-17.07-20.89-30.32-17.93h0c-14.36,3.21-23.11,17.79-19.18,31.98,4.88,17.6,12.12,42.16,21,67.49"/>
      <path class="cls-16" d="M858.53,576.34s-28.51,21.43-4.24,58.27c0,0-73.31-4.22-72.6-5.28s2.7-50.01,2.7-50.01c0,0,22.69-20.73,23.89-19.79,1.2.94,50.25,16.81,50.25,16.81Z"/>
      <path class="cls-8" d="M858.53,576.34s-28.17,21.83-4.24,58.27"/>
      <g>
        <path class="cls-13" d="M914.12,378.72l-18.46,68.12c-.21.78-.47,1.55-.78,2.28-3.44,8.23-12.54,12.83-21.38,10.43l-60.05-16.28c-9.56-2.59-15.25-12.39-12.76-21.98l5.68-21.89-6.55-1.83c-2.6-.73-3.75-3.78-2.27-6.05l22.59-34.39,51.15,5.14,42.85,16.44Z"/>
        <path class="cls-36" d="M894.87,449.11c-3.44,8.23-12.54,12.83-21.38,10.43l-60.05-16.28c-9.56-2.59-15.25-12.39-12.76-21.98l5.68-21.89s73,2.17,88.51,49.71Z"/>
        <circle class="cls-39" cx="850.16" cy="394.7" r="2.85"/>
        <circle class="cls-39" cx="819.55" cy="386.77" r="2.85"/>
        <polygon class="cls-23" points="874.91 370.21 904.4 411.13 914.13 375.87 887.63 360.26 874.91 370.21"/>
        <path class="cls-9" d="M900.68,385.13l-3.42-4.31c-4.39-5.53-10.93-8.92-17.98-9.31-19.64-1.09-60.07-4.83-73.4-17.37-2.5-2.35-3.74-5.75-3.38-9.16h0s0,0,0,0c8.51.91,17.05-1.44,23.88-6.59.15-.12.31-.23.47-.35,14.31-10.67,32.33-15.07,49.98-12.42,6.27.94,13.66,2.43,20.75,4.8,19.19,6.42,28.45,26.12,25.39,46.13-1.23,8.06-1.48,15.75-10.68,14.94-4.58-.4-8.77-2.76-11.63-6.36Z"/>
        <path class="cls-7" d="M897.59,330.42c19.19,6.42,28.45,26.12,25.39,46.13-.11.73-.22,1.46-.32,2.18"/>
        <path class="cls-7" d="M879.29,371.51c-19.64-1.09-60.07-4.83-73.4-17.37-2.5-2.35-3.74-5.75-3.38-9.16h0"/>
        <circle class="cls-12" cx="905.1" cy="411.37" r="13.71"/>
        <path class="cls-7" d="M898.2,423.22c6.54,3.81,14.94,1.6,18.75-4.95"/>
        <path class="cls-7" d="M913.65,412.22s-2.53,8.36-10.43,6.08"/>
        <path class="cls-7" d="M851.31,419.21s-4.13,5.72-11.69,1.78"/>
        <polygon class="cls-39" points="834.52 381.01 828.16 386.55 814.47 370.84 817.65 368.07 834.52 381.01"/>
        <polygon class="cls-39" points="840.05 381.25 843.92 390.82 867.56 381.26 865.63 376.47 840.05 381.25"/>
      </g>
    </g>
    <g class="cls-29">
      <g>
        <g>
          <rect class="cls-34" x="683.47" y="412.01" width="268.62" height="455.11" transform="translate(215.06 -205.74) rotate(16.48)"/>
          <g>
            <rect class="cls-21" x="675.27" y="819" width="216.01" height="31.56" rx="15.78" ry="15.78" transform="translate(269.03 -187.93) rotate(16.48)"/>
            <rect class="cls-17" x="640.52" y="781.43" width="31.56" height="31.56" rx="5.99" ry="5.99" transform="translate(253.15 -153.45) rotate(16.48)"/>
          </g>
          <g>
            <rect class="cls-34" x="828.11" y="327.56" width="84.48" height="268.62" transform="translate(180.53 1165.41) rotate(-73.52)"/>
            <g class="cls-35">
              <g>
                <path class="cls-33" d="M767.59,412.55c.68.2,1.27.14,1.75-.2s.85-.88,1.1-1.62c-.27.12-.61.2-1.02.23-.41.04-.86-.02-1.35-.16-.37-.11-.71-.27-1.01-.49-.3-.21-.54-.47-.73-.78-.19-.31-.3-.66-.35-1.06-.04-.4,0-.84.14-1.31.13-.45.33-.85.6-1.2.27-.35.58-.63.95-.84.37-.21.77-.34,1.2-.4s.9,0,1.38.13c1.1.33,1.86.97,2.27,1.92s.39,2.17-.05,3.66c-.23.77-.52,1.41-.88,1.94-.36.53-.76.94-1.22,1.24-.45.3-.94.48-1.46.54-.52.06-1.06.01-1.61-.15-.45-.13-.86-.3-1.24-.49-.38-.2-.71-.43-.98-.71l.83-1.2c.41.42.97.73,1.67.94ZM768.84,409.54c.39.12.76.15,1.11.1.35-.05.66-.14.94-.28.11-.41.17-.79.16-1.14,0-.34-.06-.65-.16-.92-.1-.27-.24-.49-.41-.66-.18-.17-.38-.29-.61-.36-.42-.12-.82-.07-1.2.15-.38.23-.65.62-.82,1.19-.13.45-.12.84.04,1.19.16.35.48.59.95.73Z"/>
                <path class="cls-33" d="M775.66,414.94c.68.2,1.27.14,1.75-.2.48-.34.85-.88,1.1-1.62-.27.12-.61.2-1.02.23-.41.04-.86-.02-1.35-.16-.37-.11-.71-.27-1.01-.49-.3-.21-.54-.47-.73-.78-.19-.31-.3-.66-.35-1.06-.04-.4,0-.84.14-1.31.13-.45.33-.85.6-1.2.27-.35.58-.63.95-.84.36-.21.77-.34,1.2-.4s.9,0,1.38.13c1.1.33,1.86.97,2.27,1.92.41.96.39,2.17-.05,3.66-.23.77-.52,1.41-.88,1.94-.36.53-.76.94-1.22,1.24-.45.3-.94.48-1.46.54-.52.06-1.06.01-1.61-.15-.45-.13-.86-.3-1.24-.49-.38-.2-.71-.43-.98-.71l.83-1.2c.41.42.97.73,1.67.94ZM776.91,411.93c.39.12.76.15,1.11.1.35-.05.66-.14.94-.28.11-.41.17-.79.16-1.14,0-.34-.06-.65-.16-.92-.1-.27-.24-.49-.42-.66-.18-.17-.38-.29-.61-.36-.42-.12-.82-.07-1.2.15-.38.23-.65.62-.82,1.19-.13.45-.12.84.04,1.19.16.34.48.59.95.73Z"/>
                <path class="cls-33" d="M787.9,416.46l-2.17-.64-.65,2.2-1.67-.49.65-2.2-2.18-.64.41-1.4,2.18.64.65-2.2,1.67.49-.65,2.2,2.17.64-.41,1.4Z"/>
              </g>
              <polyline class="cls-33" points="758.31 402.73 754.15 406.15 755.78 411.28"/>
            </g>
            <g>
              <rect class="cls-17" x="857.26" y="456.06" width="10.17" height="65.75" rx="5.09" ry="5.09" transform="translate(148.84 1177.12) rotate(-73.52)"/>
              <circle class="cls-30" cx="872.11" cy="455.93" r="22.46"/>
              <g>
                <path class="cls-31" d="M872.12,477.87c-2.1,0-4.2-.3-6.23-.91-6.23-1.84-11.26-6.29-13.86-12.23,3.77-4.62,9.34-5.09,10.07-5.14l16.43,4.86c.58.43,5,3.87,5.65,9.79-3.6,2.37-7.76,3.62-12.06,3.62Z"/>
                <path class="cls-30" d="M862.03,460.13l16.25,4.81c.74.56,4.61,3.73,5.33,9.04-3.45,2.2-7.41,3.36-11.49,3.36-2.05,0-4.09-.3-6.08-.89-5.97-1.77-10.82-5.99-13.39-11.63,3.5-4.06,8.46-4.62,9.39-4.69M862.16,459.06s-6.52.16-10.75,5.59c2.52,5.99,7.61,10.84,14.33,12.82,2.13.63,4.27.93,6.38.93,4.55,0,8.94-1.4,12.62-3.89-.59-6.86-5.98-10.54-5.98-10.54l-16.6-4.91h0Z"/>
              </g>
              <circle class="cls-15" cx="872.47" cy="454.72" r="10.35"/>
              <circle class="cls-24" cx="886.59" cy="470.79" r="12.32"/>
              <path class="cls-40" d="M883.96,473.7c.11-.37.21-.68.3-.94.09-.26.19-.49.29-.68.1-.19.21-.35.33-.49.12-.14.26-.26.42-.39.16-.12.35-.25.57-.37.22-.12.47-.27.77-.44.24-.12.49-.26.73-.4.24-.15.47-.31.68-.49.21-.18.4-.38.56-.59.16-.21.28-.45.36-.71.06-.2.09-.39.1-.58,0-.19-.02-.37-.09-.54-.07-.17-.19-.32-.35-.46-.17-.14-.39-.25-.67-.33-.33-.1-.61-.11-.86-.05-.24.06-.46.18-.64.35-.18.17-.34.4-.46.67-.13.27-.23.56-.32.88l-2.66-.79c.14-.6.38-1.13.71-1.61.33-.48.75-.86,1.24-1.15.49-.29,1.05-.47,1.68-.53.63-.07,1.31,0,2.05.23.62.18,1.16.43,1.61.74.46.31.82.67,1.09,1.08.27.41.44.85.51,1.34.07.49.02.99-.13,1.52-.13.43-.29.8-.49,1.1-.2.3-.43.56-.69.79-.26.23-.54.44-.85.62-.31.19-.64.38-.98.59-.21.12-.4.23-.56.32-.16.09-.31.18-.44.26-.13.09-.25.18-.35.28-.1.1-.2.22-.28.36-.08.14-.16.31-.23.5-.07.2-.14.43-.22.71l-2.71-.8ZM883.02,476.86l.67-2.27,2.74.81-.67,2.27-2.74-.81Z"/>
            </g>
          </g>
        </g>
        <g>
          <rect class="cls-27" x="714.84" y="522.83" width="215.61" height="142.5" rx="11.43" ry="11.43" transform="translate(202.36 -208.99) rotate(16.48)"/>
          <rect class="cls-16" x="741.12" y="543.76" width="190.1" height="9.14" rx="4.57" ry="4.57" transform="translate(189.93 -214.7) rotate(16.48)"/>
          <rect class="cls-16" x="734.55" y="565.99" width="190.1" height="9.14" rx="4.57" ry="4.57" transform="translate(195.96 -211.92) rotate(16.48)"/>
          <rect class="cls-16" x="727.97" y="588.21" width="190.1" height="9.14" rx="4.57" ry="4.57" transform="translate(202 -209.15) rotate(16.48)"/>
          <rect class="cls-16" x="721.4" y="610.43" width="190.1" height="9.14" rx="4.57" ry="4.57" transform="translate(208.03 -206.37) rotate(16.48)"/>
          <rect class="cls-16" x="716.27" y="622.67" width="119.69" height="9.14" rx="4.57" ry="4.57" transform="translate(209.85 -194.42) rotate(16.48)"/>
        </g>
        <rect class="cls-27" x="784.5" y="751.08" width="109.32" height="62.59" rx="19.83" ry="19.83" transform="translate(256.46 -205.94) rotate(16.48)"/>
      </g>
    </g>
    <path class="cls-1" d="M641.02,782.43l237.99,70.41,45.39-153.41c7.32-24.73-10.11-49.88-35.83-51.71l-203.4-14.5-44.15,149.21Z"/>
    <line class="cls-1" x1="772.9" y1="785.33" x2="772.47" y2="786.79"/>
    <g>
      <rect class="cls-28" x="611.42" y="535.22" width="43.28" height="63.36" rx="21.64" ry="21.64" transform="translate(454.27 -263.87) rotate(36.01)"/>
      <path class="cls-40" d="M572.12,509.43c92.5,42.06,185,84.11,277.5,126.17,11.15-42.76,38.74-74.33,71.92-79.63,7.35-1.17,18.14-1.56,31.51,2.6-122.92-65.18-215.98-106.76-243.77-115.94-13.43-4.44-38.64-12.84-67.31-3.42-.78.26-1.56.52-2.34.8-47.14,16.77-64.74,62-67.49,69.42Z"/>
      <path class="cls-6" d="M655.43,435.97c-4.38.68-8.88,1.74-13.47,3.24-.78.26-1.56.52-2.34.8-47.14,16.77-64.74,62-67.49,69.42,92.5,42.06,185,84.11,277.5,126.17,11.15-42.76,38.74-74.33,71.92-79.63,7.35-1.17,18.14-1.56,31.51,2.6"/>
      <path class="cls-28" d="M657.96,511.41c-8.16-16.31-56.68-17.27-74.64,4.76-1.75,2.14-2.86,4.08-3.67,5.51-9.94,17.42-7.01,35.92-4.77,45.07,7.26,7.21,14.53,14.43,21.79,21.64h0c9.27-.6,13.28-3.73,15.24-6.36,4-5.35,3.81-15.98,3.27-37.02-.05-1.96-.19-7.08,2.97-9.49,1.37-1.04,2.87-1.21,3.55-1.28,13.59-1.39,27.77-.27,33.58-5.42,4.22-3.74,5.4-12,2.69-17.42Z"/>
      <path class="cls-6" d="M615.46,561.91c.02-4.71-.12-10.28-.28-16.88-.05-1.96-.19-7.08,2.97-9.49,1.37-1.04,2.87-1.21,3.55-1.28,13.59-1.39,27.77-.27,33.58-5.42,2.58-2.29,4.02-6.26,4.14-10.25"/>
      <rect class="cls-28" x="615.81" y="539.42" width="43.28" height="85" rx="21.64" ry="21.64" transform="translate(1467.69 817.89) rotate(153.47)"/>
      <path class="cls-6" d="M648.72,556.04l-1.22-2.44c-5.32-10.65-18.38-15.01-29.03-9.7h0c-7.12,3.55-11.43,10.57-11.92,18.01"/>
      <rect class="cls-28" x="650.79" y="552.12" width="43.28" height="85" rx="21.64" ry="21.64" transform="translate(1539.64 826.32) rotate(153.47)"/>
      <rect class="cls-28" x="680.47" y="565.95" width="43.28" height="77.11" rx="21.64" ry="21.64" transform="translate(1521.91 1036.16) rotate(167.04)"/>
      <path class="cls-6" d="M684.7,570.73l-2.22-4.45c-5.32-10.65-18.38-15.01-29.03-9.7h0c-6.49,3.24-10.65,9.36-11.7,16.05"/>
      <path class="cls-6" d="M693.84,638.92c4.8,3.23,10.87,4.55,16.92,3.15h0c11.6-2.67,18.91-14.34,16.24-25.94l-7.58-32.96c-2.67-11.6-14.34-18.91-25.94-16.24h0c-7.99,1.84-13.94,7.94-16,15.36"/>
      <path class="cls-28" d="M528.03,722.64l34-43.66,12.85-112.07,126.78,42.32-19.41,73.77c-4.91,18.65-18.01,34.06-35.62,41.9h0c-5.09,2.27-9.15,6.36-11.39,11.47l-16.96,38.83-90.24-52.56Z"/>
      <polygon class="cls-28" points="698.09 622.78 707.6 586.63 607.91 568.56 594.08 585.47 616.76 626.83 698.09 622.78"/>
      <line class="cls-6" x1="699.31" y1="618.16" x2="688.23" y2="660.26"/>
    </g>
    <g>
      <path class="cls-39" d="M216.41,663.22c41.66,72.58,83.33,145.16,124.99,217.74,33.98-39.91,73.25-82.01,118.37-124.61,30.26-28.57,60.04-54.42,88.81-77.78,8.64.42,45.12,3.15,71.64,32.68,12.38,13.78,18.07,28.38,20.81,37.84-27.6,71.52-94.35,222.3-211.06,304.26-23.52,16.51-47.01,28.81-76.27,31.25-82.91,6.92-149.14-69.12-184.25-109.55-69.28-79.79-94.55-168.14-104.65-224.67"/>
      <line class="cls-5" x1="341.4" y1="880.96" x2="318.71" y2="905.21"/>
      <path class="cls-6" d="M216.41,663.22c41.66,72.58,83.33,145.16,124.99,217.74,33.98-39.91,73.25-82.01,118.37-124.61,30.26-28.57,60.04-54.42,88.81-77.78,8.64.42,45.12,3.15,71.64,32.68,12.38,13.78,18.07,28.38,20.81,37.84-27.6,71.52-94.35,222.3-211.06,304.26-23.52,16.51-47.01,28.81-76.27,31.25-82.91,6.92-149.14-69.12-184.25-109.55-69.28-79.79-94.55-168.14-104.65-224.67"/>
    </g>
    <g>
      <g>
        <rect class="cls-12" x="846.38" y="492.11" width="14.04" height="24.94" rx="7.02" ry="7.02" transform="translate(690.03 -473.28) rotate(49.92)"/>
        <rect class="cls-13" x="846.38" y="492.11" width="14.04" height="24.94" rx="7.02" ry="7.02" transform="translate(690.03 -473.28) rotate(49.92)"/>
        <g>
          <rect class="cls-12" x="856.37" y="494.84" width="14.04" height="29.26" rx="7.02" ry="7.02" transform="translate(470.31 -412.75) rotate(36.37)"/>
          <rect class="cls-13" x="856.37" y="494.84" width="14.04" height="29.26" rx="7.02" ry="7.02" transform="translate(470.31 -412.75) rotate(36.37)"/>
        </g>
        <rect class="cls-12" x="866.76" y="500.66" width="14.04" height="29.83" rx="7.02" ry="7.02" transform="translate(475.96 -417.72) rotate(36.37)"/>
        <rect class="cls-13" x="858.86" y="508.56" width="29.83" height="14.04" rx="7.02" ry="7.02" transform="translate(-59.52 913.4) rotate(-53.63)"/>
        <path class="cls-12" d="M897.36,529.58c-4.85-2.48-9.63-4.91-14.34-7.29-.71-1.13-1.06-2.42-1.06-3.7,0-2,.85-3.99,2.49-5.38,2.96-2.49,7.41-2.1,9.89.85l.84,1c3.52,4.18,4.18,9.81,2.18,14.52Z"/>
        <rect class="cls-12" x="877.84" y="509.27" width="14.04" height="22.36" rx="7.02" ry="7.02" transform="translate(367.12 -366) rotate(29.25)"/>
        <path class="cls-13" d="M893.21,513.77c-.6-1.26-1.58-2.35-2.89-3.07h0c-3.37-1.89-7.67-.67-9.56,2.7l-4.07,7.26c-1.89,3.37-.67,7.67,2.7,9.56h0c3.37,1.89,7.67.67,9.56-2.7l1.78-3.17"/>
      </g>
      <g>
        <rect class="cls-12" x="721.18" y="431.79" width="14.04" height="24.94" rx="7.02" ry="7.02" transform="translate(599.29 -398.97) rotate(49.92)"/>
        <rect class="cls-13" x="721.18" y="431.79" width="14.04" height="24.94" rx="7.02" ry="7.02" transform="translate(599.29 -398.97) rotate(49.92)"/>
        <g>
          <rect class="cls-12" x="731.17" y="434.52" width="14.04" height="29.26" rx="7.02" ry="7.02" transform="translate(410.15 -350.26) rotate(36.37)"/>
          <rect class="cls-13" x="731.17" y="434.52" width="14.04" height="29.26" rx="7.02" ry="7.02" transform="translate(410.15 -350.26) rotate(36.37)"/>
        </g>
        <rect class="cls-12" x="741.56" y="440.34" width="14.04" height="29.83" rx="7.02" ry="7.02" transform="translate(415.8 -355.23) rotate(36.37)"/>
        <rect class="cls-13" x="733.66" y="448.24" width="29.83" height="14.04" rx="7.02" ry="7.02" transform="translate(-61.91 788.04) rotate(-53.63)"/>
        <rect class="cls-12" x="752.64" y="448.95" width="14.04" height="22.36" rx="7.02" ry="7.02" transform="translate(321.68 -312.51) rotate(29.25)"/>
        <path class="cls-12" d="M772.3,468.91c-2.46-1.11-4.86-2.2-7.2-3.25-2.45-1.24-4.87-2.47-7.28-3.69-.71-1.13-1.06-2.42-1.06-3.7,0-2,.85-3.99,2.49-5.38,2.96-2.49,7.41-2.1,9.89.85l.84,1c3.43,4.08,4.15,9.53,2.32,14.17Z"/>
        <path class="cls-13" d="M768.01,453.45c-.6-1.26-1.58-2.35-2.89-3.07h0c-3.37-1.89-7.67-.67-9.56,2.7l-4.07,7.26c-1.89,3.37-.67,7.67,2.7,9.56h0c3.37,1.89,7.67.67,9.56-2.7l1.78-3.17"/>
      </g>
    </g>
    <g>
      <path class="cls-32" d="M971.39,322.15l-19.97-12.77c-8.79-5.62-8-18.7,1.39-23.22l71.69-34.55c8.93-4.3,19.26,2.3,19.1,12.21l-1.28,79.57c-.17,10.43-11.71,16.63-20.5,11.01l-50.45-32.26"/>
      <path class="cls-5" d="M966.24,318.86l-14.82-9.47c-8.79-5.62-8-18.7,1.39-23.22l7.79-3.76"/>
      <path class="cls-5" d="M1012.33,257.48l12.18-5.87c8.93-4.3,19.26,2.3,19.1,12.21l-1.28,79.57c-.17,10.43-11.71,16.63-20.5,11.01l-8.07-5.16"/>
      <circle class="cls-37" cx="998.78" cy="312.9" r="5.93"/>
      <path class="cls-37" d="M1024.13,273.26h0c-3.09-1.98-7.2-.98-9.05,2.19l-12.68,21.76c-1.46,2.51-.69,5.73,1.76,7.29s5.7.92,7.36-1.46l14.43-20.64c2.1-3.01,1.28-7.16-1.81-9.13Z"/>
    </g>
    <g>
      <path class="cls-22" d="M171.97,449.59l-101.18,43.44c-12.62,5.42-26.3-5.11-24.28-18.7l15.39-103.71c1.92-12.92,16.76-19.29,27.45-11.78l85.79,60.27c11.24,7.9,9.46,25.07-3.16,30.49Z"/>
      <path class="cls-5" d="M161.38,409.45l13.75,9.66c11.24,7.9,9.46,25.07-3.16,30.49l-101.18,43.44c-12.62,5.42-26.3-5.11-24.28-18.7l15.39-103.71c.9-6.04,4.62-10.65,9.43-13.08"/>
      <circle cx="109.67" cy="444.02" r="7.81"/>
      <path d="M85.21,387.06h0c-4.44,1.91-6.4,7.13-4.31,11.48l14.33,29.92c1.65,3.45,5.74,4.99,9.25,3.48,3.52-1.51,5.22-5.53,3.85-9.1l-11.82-31c-1.72-4.52-6.86-6.69-11.3-4.78Z"/>
    </g>
    <g>
      <path class="cls-22" d="M799.46,215.45c.24,1.35.21,2.59-.1,3.73-.31,1.13-.82,2.14-1.53,3-.71.87-1.59,1.57-2.64,2.12-1.05.55-2.19.92-3.43,1.1-1.24.18-2.41.11-3.53-.2-1.12-.31-2.12-.81-3.01-1.48-.89-.67-1.65-1.5-2.28-2.48-.63-.98-1.06-2.07-1.29-3.26-.41-2.04-.58-3.83-.49-5.35.08-1.53.39-3.04.93-4.56.54-1.51,1.3-3.13,2.3-4.85,1-1.72,2.18-3.8,3.56-6.22,1.04-1.61,2.03-3.27,2.98-5,.95-1.73,1.75-3.48,2.41-5.26.66-1.78,1.1-3.59,1.31-5.42.22-1.83.09-3.68-.38-5.55-.35-1.42-.88-2.78-1.57-4.08-.69-1.3-1.57-2.4-2.63-3.31-1.06-.9-2.29-1.54-3.7-1.91-1.41-.37-3.01-.33-4.82.12-2.11.53-3.84,1.26-5.2,2.19-1.35.93-2.4,2.02-3.15,3.26-.75,1.24-1.21,2.62-1.4,4.12-.19,1.5-.17,3.09.06,4.77.17,1.18.06,2.31-.31,3.39-.37,1.09-.93,2.05-1.68,2.89-.75.84-1.66,1.54-2.72,2.1-1.06.55-2.21.89-3.43,1-1.22.11-2.38,0-3.48-.36-1.1-.35-2.08-.88-2.94-1.57-.86-.7-1.57-1.56-2.11-2.57-.54-1.02-.87-2.12-.97-3.31-.31-3.29-.13-6.45.54-9.5.66-3.05,1.88-5.86,3.66-8.43,1.78-2.57,4.14-4.83,7.1-6.77,2.96-1.94,6.6-3.45,10.91-4.52,4.4-1.1,8.56-1.52,12.47-1.26,3.91.26,7.42,1.14,10.53,2.63,3.11,1.5,5.76,3.59,7.93,6.28,2.18,2.69,3.73,5.91,4.67,9.65.77,3.08,1.07,5.88.92,8.42-.15,2.54-.6,4.95-1.34,7.25-.74,2.3-1.72,4.57-2.94,6.81-1.22,2.24-2.5,4.59-3.84,7.04-.98,1.72-1.86,3.2-2.64,4.43-.78,1.24-1.42,2.4-1.91,3.5-.49,1.1-.83,2.23-1,3.4-.17,1.16-.12,2.51.17,4.04Z"/>
      <path class="cls-22" d="M786.61,240.62c-.31-1.24-.36-2.46-.17-3.66.2-1.2.61-2.31,1.23-3.34.63-1.02,1.44-1.9,2.44-2.65,1-.75,2.13-1.28,3.4-1.59,1.27-.32,2.52-.38,3.75-.19,1.23.19,2.36.59,3.4,1.19,1.03.61,1.93,1.39,2.68,2.36.75.97,1.28,2.07,1.59,3.3.32,1.27.37,2.5.16,3.71-.21,1.21-.63,2.31-1.26,3.32-.63,1.01-1.44,1.88-2.44,2.63-1,.75-2.13,1.28-3.4,1.59-1.27.32-2.52.38-3.75.19-1.23-.19-2.36-.58-3.39-1.17-1.03-.59-1.91-1.37-2.65-2.34-.74-.97-1.27-2.09-1.58-3.35Z"/>
    </g>
  </g>
</svg>