<?xml version="1.0" encoding="UTF-8"?>
<svg id="Layer_1" data-name="Layer 1" xmlns="http://www.w3.org/2000/svg" xmlns:xlink="http://www.w3.org/1999/xlink" viewBox="0 0 600 600">
  <defs>
    <style>
      .cls-1, .cls-2, .cls-3, .cls-4, .cls-5, .cls-6, .cls-7, .cls-8, .cls-9 {
        fill: none;
      }

      .cls-10, .cls-11 {
        fill: #3b6aad;
      }

      .cls-12 {
        fill: #4881b6;
      }

      .cls-13 {
        fill: #ff336d;
      }

      .cls-2 {
        stroke-width: .89px;
      }

      .cls-2, .cls-3, .cls-4, .cls-5, .cls-6, .cls-7, .cls-9 {
        stroke-miterlimit: 10;
      }

      .cls-2, .cls-3, .cls-4, .cls-7, .cls-8 {
        stroke: #060a25;
      }

      .cls-2, .cls-3, .cls-5, .cls-8 {
        stroke-linecap: round;
      }

      .cls-14 {
        fill: #f28181;
      }

      .cls-3 {
        stroke-width: 1.26px;
      }

      .cls-15 {
        fill: #7db0f2;
      }

      .cls-16 {
        fill: #c2d9fd;
      }

      .cls-16, .cls-17, .cls-6, .cls-18, .cls-11 {
        opacity: .5;
      }

      .cls-19 {
        fill: #326499;
      }

      .cls-4 {
        stroke-width: .69px;
      }

      .cls-20 {
        fill: #0d2243;
      }

      .cls-21 {
        fill: #5f9bdd;
      }

      .cls-22 {
        clip-path: url(#clippath-1);
      }

      .cls-23 {
        fill: #fff;
      }

      .cls-5 {
        stroke-width: .78px;
      }

      .cls-5, .cls-9 {
        stroke: #3b6aad;
      }

      .cls-17, .cls-24 {
        fill: #193d70;
      }

      .cls-6 {
        stroke: #326499;
        stroke-width: 5px;
      }

      .cls-25 {
        fill: #fcf09b;
      }

      .cls-26 {
        fill: #fbfffe;
      }

      .cls-27 {
        fill: #28558e;
      }

      .cls-7 {
        stroke-width: .76px;
      }

      .cls-28 {
        opacity: .3;
      }

      .cls-29 {
        fill: #101e35;
      }

      .cls-30 {
        fill: #060a25;
      }

      .cls-31 {
        fill: #ff73b6;
      }

      .cls-8 {
        stroke-linejoin: round;
        stroke-width: 1.61px;
      }

      .cls-32 {
        clip-path: url(#clippath);
      }

      .cls-9 {
        stroke-width: 1.16px;
      }

      .cls-33 {
        fill: #f4b2a0;
      }
    </style>
    <clipPath id="clippath">
      <rect class="cls-1" x="0" width="600" height="600" rx="30" ry="30"/>
    </clipPath>
    <clipPath id="clippath-1">
      <circle class="cls-1" cx="138.86" cy="208.7" r="110.28"/>
    </clipPath>
  </defs>
  <g>
    <rect class="cls-27" x="0" width="600" height="600" rx="30" ry="30"/>
    <g class="cls-32">
      <g class="cls-28">
        <g>
          <path class="cls-24" d="M434.91,197.15c-1.59,14.76-4.44,49.96-31.08,68.74-7.3,5.15-13.43,6.93-15.96,7.57-16.67,4.19-33.52-7.05-47-13.63-10.74-5.25,3.62-43.25,7.25-56.04,2.79-9.84-21.88-25.96,0-23.37-1.22-6.29,2.26-12.23,2.62-19.14,2.14-41,35.86-32.62,72.42-27.35,18.22,11.69,13.48,47.12,11.75,63.22Z"/>
          <ellipse class="cls-10" cx="397.9" cy="207.45" rx="55.79" ry="30.64" transform="translate(113.56 554.59) rotate(-78.22)"/>
          <path class="cls-10" d="M426.58,210.84c-.07.4-.14.79-.22,1.19-.08.43-.17.87-.26,1.3-.3,1.44-.63,2.86-.99,4.26-.18.72-.38,1.44-.58,2.15-1.83,6.48-4.27,12.42-7.13,17.59-.38.69-.77,1.36-1.16,2.02-.8,1.35-1.64,2.64-2.5,3.86-.22.32-.45.64-.68.95-3.77,5.16-7.99,9.13-12.36,11.55-.39.22-.78.42-1.17.61-1.27.62-2.55,1.11-3.83,1.45-.72.19-1.43.34-2.15.45-1.9.28-3.79.23-5.66-.16-2.09-.44-4.04-1.28-5.83-2.5-.59-.4-1.16-.83-1.71-1.31-.72-.62-1.42-1.3-2.08-2.04-.54-.6-1.06-1.25-1.55-1.92-2.9-3.97-5.08-9.22-6.4-15.33-.15-.7-.29-1.41-.42-2.13-.17-.97-.33-1.96-.46-2.97-.12-.9-.22-1.82-.31-2.75-.65-7.09-.3-14.94,1.19-23.06.13-.75.28-1.5.44-2.25,0,0,0-.01,0-.02.39-1.87.83-3.71,1.32-5.51.19-.71.39-1.42.6-2.12,2.2-7.42,5.21-14.1,8.73-19.69.47-.74.94-1.47,1.43-2.17.76-1.1,1.54-2.16,2.34-3.17.47-.58.93-1.15,1.41-1.69,3.34-3.84,6.95-6.78,10.65-8.6.73-.36,1.47-.67,2.2-.94,1.49-.55,3-.91,4.5-1.07.72-.08,1.44-.11,2.15-.09.96.02,1.92.13,2.86.33,2.87.6,5.48,1.97,7.77,4,.55.49,1.08,1.01,1.6,1.57.23.25.45.5.68.77.32.37.62.76.92,1.16,3.05,4.07,5.32,9.52,6.67,15.9.16.74.3,1.5.44,2.27.26,1.52.47,3.09.63,4.7.06.56.11,1.13.15,1.71.51,6.72.14,14.1-1.24,21.72Z"/>
          <path class="cls-10" d="M417.31,203.59l-.34-.23,10.85-14.23c-.04-.57-.09-1.15.61-2.85l-.79-.6-12.44,16.47-6.96-4.79.11-2.82,18.69-11.81c-.13-.77-.28-1.52-.44-2.27l-9.78,6.18,3.11-22.08c-.3-.4-.61-.79-.92-1.16l-1.02-.14.34-.62c-.51-.56-1.05-1.08-1.6-1.57l-10.64,19.49v-23.82c-.71-.02-1.43.01-2.15.09v27.67l-3.71,6.8-.57.15-.62-.43-.5.72-.8.21,1.7-34.05c-.74.27-1.47.59-2.2.94l-1.05,20.96-9.6-12.36c-.48.55-.94,1.11-1.41,1.69l10.85,13.96-.47,9.41-3.4.88-.28.8-9.04-21.89c-.49.71-.96,1.43-1.43,2.17l8.57,20.76-17.3-1.07c-.21.7-.41,1.41-.6,2.12l18.68,1.15-4.13,11.9-1.33,1.35-14.55-8.86c-.16.75-.3,1.5-.44,2.25l13.44,8.19-14.63,14.87c.09.93.19,1.85.31,2.75l17.48-17.77,1.69,8.38-2.82,7.07-15.89,5.29c.13.72.27,1.43.42,2.13l14.42-4.8-8.02,20.13c.49.68,1.01,1.32,1.55,1.92l11.95-30,3.32,2.27v10.93l-13.2,18.84c.55.47,1.12.91,1.71,1.31l11.49-16.4v19.05c.72-.1,1.43-.25,2.15-.45v-32.77h4.07l2.41,3.84-3.71,27.33,1.06.15c.39-.19.78-.39,1.17-.61l3.26-24.02,8.19,13.05.91-.57c.23-.31.46-.63.68-.95l-9.32-14.85.5-3.7,11.32,14.69c.4-.66.78-1.33,1.16-2.02l-12.07-15.67.03-.18.91-1.94,1.51-1.51v-1.7l.74-1.57,3.09,4.97h12.93c.2-.71.4-1.43.58-2.15h-12.31l-4.65-7.48,7.26-5.17,10.3,7.94.66-.85c.08-.4.15-.79.22-1.19l-9.34-7.21.07-.05ZM402.63,225.52l-.9-1.44,1.27-1.27-.37,2.71ZM405.64,209.25l-.39.28.37.6v5.73l-1.15,2.44-.99.99-.24-.31-1.7,1.32.41.53-2.04,2.04h-4.96l-4.27-2.91-2.01-9.96,4.31-12.41.29.02-.16-.4.7-2.01,5.43-1.41,6.8,4.68-.41,10.81ZM406.14,195.89l-4.34-2.99,2.14-3.93v4.4l2.25,1.18-.05,1.34ZM407.24,192.68l-1.15-.6v-7.04l11.83-21.66-3.49,24.77-7.19,4.54ZM407.85,207.67l.29-7.79,3.87,3.89-4.16,3.89Z"/>
          <ellipse class="cls-10" cx="398.86" cy="207.67" rx="20.43" ry="13.33" transform="translate(114.11 555.72) rotate(-78.22)"/>
          <ellipse class="cls-24" cx="397.62" cy="208.39" rx="13.56" ry="8.27" transform="translate(112.42 555.07) rotate(-78.22)"/>
        </g>
        <g>
          <path class="cls-24" d="M619.55,129.86c-.71,21.27-7.53,40.24-15.9,48.1-4.68,5.51-16.21,5.01-29.62,1.27-6.9-1.93-3.91-9.56-2.11-18.42,1.38-6.82-12.86-18.29-1.83-16.55-.63-4.36-.92-8.97-.75-13.76.95-28.42,25.1-47.06,37.01-46.26,11.91.8,14.15,17.21,13.2,45.62Z"/>
          <path class="cls-10" d="M615.52,142.29c-3.08,20.92-12.36,35.96-20.72,33.6-8.36-2.36-12.65-21.23-9.57-42.14,3.08-20.92,12.36-35.96,20.72-33.6,8.36,2.36,12.65,21.23,9.57,42.14Z"/>
          <path class="cls-24" d="M614.85,140.31c-.03.28-.07.55-.11.82-.04.3-.08.6-.13.9-.15,1-.31,1.98-.49,2.95-.09.5-.19,1-.29,1.49-.9,4.49-2.11,8.61-3.54,12.21-.19.48-.38.94-.58,1.4-.4.94-.82,1.83-1.25,2.68-.11.22-.22.44-.34.66-1.88,3.59-4,6.35-6.2,8.03-.2.15-.39.29-.59.43-.64.43-1.28.77-1.93,1.01-.36.14-.72.24-1.08.31-.96.2-1.91.17-2.85-.1-1.06-.3-2.04-.88-2.95-1.72-.3-.27-.59-.58-.87-.9-.37-.43-.72-.9-1.05-1.41-.27-.42-.54-.86-.79-1.33-1.47-2.75-2.59-6.38-3.28-10.61-.08-.48-.15-.98-.22-1.47-.09-.67-.17-1.36-.24-2.06-.06-.63-.12-1.26-.16-1.91-.35-4.91-.2-10.35.53-15.98.07-.52.14-1.04.21-1.56,0,0,0,0,0-.01.19-1.3.41-2.58.65-3.82.09-.49.19-.98.3-1.47,1.09-5.15,2.59-9.78,4.34-13.66.23-.52.47-1.02.71-1.51.38-.77.77-1.5,1.17-2.2.23-.41.47-.8.71-1.18,1.67-2.67,3.49-4.71,5.34-5.99.37-.25.74-.47,1.11-.66.75-.38,1.51-.64,2.27-.75.36-.05.72-.08,1.08-.07.48.01.97.09,1.45.22,1.45.41,2.77,1.36,3.93,2.76.28.34.55.7.81,1.08.12.17.23.35.34.53.16.26.32.53.47.8,1.55,2.81,2.71,6.59,3.41,11,.08.51.16,1.04.23,1.57.14,1.05.25,2.14.33,3.25.03.39.06.79.08,1.18.28,4.66.11,9.77-.56,15.06Z"/>
          <path class="cls-10" d="M610.15,135.3l-.17-.16,5.43-9.89c-.02-.4-.05-.79-.08-1.18l-.4-.42-5.84,10.65-3.52-3.3.04-1.95,9.39-8.22c-.07-.53-.14-1.05-.23-1.57l-4.91,4.3,1.5-15.31c-.15-.28-.31-.55-.47-.8l-.51-.1.17-.43c-.26-.39-.53-.75-.81-1.08l-5.3,13.53-.07-16.51c-.36-.01-.72.01-1.08.07l.08,19.18-1.85,4.72-.29.1-.32-.3-.25.5-.4.15.75-23.6c-.37.19-.74.41-1.11.66l-.46,14.53-4.88-8.54c-.24.38-.47.77-.71,1.18l5.51,9.65-.21,6.52-1.71.62-.14.56-4.62-15.15c-.24.49-.48.99-.71,1.51l4.38,14.36-8.73-.7c-.1.49-.2.98-.3,1.47l9.42.76-2.04,8.25-.67.94-7.36-6.11c-.08.52-.15,1.04-.21,1.56l6.8,5.64-7.33,10.34c.05.65.1,1.28.16,1.91l8.76-12.36.88,5.8-1.4,4.91-8,3.7c.07.5.14.99.22,1.47l7.26-3.36-3.98,13.97c.25.47.52.91.79,1.33l5.94-20.81,1.68,1.57.03,7.57-6.6,13.09c.28.33.57.63.87.9l5.74-11.39.06,13.2c.36-.07.72-.18,1.08-.31l-.1-22.71h2.05s1.23,2.65,1.23,2.65l-1.79,18.95.54.1c.2-.13.39-.28.59-.43l1.57-16.66,4.17,9.02.46-.4c.11-.22.23-.44.34-.66l-4.75-10.27.24-2.56,5.75,10.15c.2-.46.39-.92.58-1.4l-6.14-10.83v-.12s.47-1.35.47-1.35l.76-1.05v-1.18s.36-1.09.36-1.09l1.57,3.44,6.52-.03c.1-.49.2-.99.29-1.49l-6.21.03-2.37-5.17,3.65-3.6,5.22,5.48.33-.59c.04-.28.07-.55.11-.82l-4.73-4.97.03-.03ZM602.82,150.53l-.46-.99.64-.88-.18,1.88ZM604.29,139.25l-.2.19.19.42.02,3.97-.57,1.69-.5.69-.12-.22-.85.92.21.37-1.02,1.42h-2.5s-2.16-2-2.16-2l-1.04-6.9,2.13-8.61h.15s-.08-.26-.08-.26l.34-1.39,2.74-.99,3.44,3.23-.17,7.49ZM604.5,129.99l-2.2-2.06,1.07-2.73v3.05s1.15.81,1.15.81l-.02.93ZM605.05,127.76l-.58-.42-.02-4.88,5.9-15.04-1.68,17.17-3.61,3.16ZM605.4,138.15l.12-5.4,2.74,2.57-2.86,2.82Z"/>
          <path class="cls-10" d="M607.45,140.03c-1.13,7.66-4.99,13.04-8.63,12.01-3.64-1.03-5.67-8.07-4.54-15.73s4.99-13.04,8.63-12.01c3.64,1.03,5.67,8.07,4.54,15.73Z"/>
          <path class="cls-24" d="M604.33,139.82c-.75,5.08-3.19,8.69-5.45,8.05-2.26-.64-3.48-5.27-2.73-10.36.75-5.08,3.19-8.69,5.45-8.05s3.48,5.27,2.73,10.36Z"/>
        </g>
        <g>
          <path class="cls-21" d="M618.78,119.92c1.67-15.78-2.15-30.6-8.37-29.41-20.08,3.35-30.6,52.6-32.76,64.32-2.15,11.72-.24,18.17-3.11,18.65-43.28,12.67-132.62,50.93-139.15,53.64-6.53,2.71-11.96,5.42-6.7-3.51,5.26-8.93,6.22-31.24,6.69-55.15.48-23.91-22-36.1-33.47-32.76-40.41,12.91-53.56,82.25-56.19,104.01-2.63,21.76-5.26,22.24-12.92,25.34-7.66,3.11-66.22,12.67-88.45,15.54-7.44.96-13.87,1.05-19.4.73-4.44-.26-8.29-.79-11.6-1.36-4.89-.84-8.62-1.75-11.32-2.01-20.56-1.91-59.3-7.41-98.51-21.04-39.21-13.63-52.12-30.44-57.07-37.62-4.94-7.17,1.12-17.69,5.74-23.91,4.62-6.22,2.87-14.51-3.03-21.52-4.89-5.82-5.56-9.99-3.6-14.53.4-.93.92-1.87,1.53-2.85,2.84-4.35,6.02-8.63,9.47-12.83,13.47-16.39,30.94-31.29,47.52-42.28,8.11-5.38,16.01-9.82,23.11-13.03,25.34-11.48,33.23-9.8,40.65-14.11,7.41-4.3,29.41-14.35,67.19-31.32,37.78-16.98,36.1-17.93,70.3-21.52,34.19-3.59,89.42-2.15,131.5,0s86.08,13.39,108.79,22c22.71,8.61,37.78,10.76,53.32,13.63,9.71,1.79,13.82,3.02,16.12,6.44,0,0,0,0,0,0,1.38,2.05,2.11,4.88,3.01,9.1,5.5,26.06.72,47.34.72,47.34Z"/>
          <path class="cls-11" d="M618.78,119.92c1.67-15.78-2.15-30.6-8.37-29.41-20.08,3.35-30.6,52.6-32.76,64.32-2.15,11.72-.24,18.17-3.11,18.65-43.28,12.67-132.62,50.93-139.15,53.64-6.53,2.71-11.96,5.42-6.7-3.51,5.26-8.93,6.22-31.24,6.69-55.15.48-23.91-22-36.1-33.47-32.76-40.41,12.91-53.56,82.25-56.19,104.01-2.63,21.76-5.26,22.24-12.92,25.34-7.66,3.11-66.22,12.67-88.45,15.54-13.41,1.73-23.56.65-31-.62.91-2.97,1.86-6.08,2.84-9.24,6.51-21.11,13.84-44.51,13.84-44.51,0,0,15.28-26.68,36.8-43.42,21.52-16.74,92.67-65.25,124.95-70.98,32.28-5.74,35.86,2.51,51.28,2.51s17.93-1.08,31.2-7.53c13.27-6.46,42.68-17.22,55.59-21.16,12.91-3.95,34.79-12.91,42.68-16.85,7.89-3.95,25.17-14.91,42.53-5.31,0,0,0,0,0,0,1.38,2.05,2.11,4.88,3.01,9.1,1.88,8.92,2.56,17.28,2.64,24.42h0c.15,13.72-1.92,22.92-1.92,22.92Z"/>
          <path class="cls-17" d="M618.78,119.92c1.67-15.78-2.15-30.6-8.37-29.41-20.08,3.35-30.6,52.6-32.76,64.32-2.15,11.72-.24,18.17-3.11,18.65-43.28,12.67-132.62,50.93-139.15,53.64-6.53,2.71-11.96,5.42-6.7-3.51,5.26-8.93,6.22-31.24,6.69-55.15.48-23.91-22-36.1-33.47-32.76-13.16,4.2-23.42,14.39-31.37,26.96-.25.39-.49.78-.73,1.17-15.94,25.96-22.33,61.42-24.08,75.88-2.63,21.76-5.26,22.24-12.92,25.34-7.66,3.11-66.22,12.67-88.45,15.54-13.41,1.73-23.56.65-31-.62.91-2.97,1.86-6.08,2.84-9.24,6.49-5.11,13.29-9.23,18.5-9.36,13.99-.36,32.99,0,49.49-3.59,16.5-3.59,33.35-10.04,41.6-10.04s11.12-2.51,11.84-18.65c.44-10.01,6.96-40.02,21.08-65.48.25-.45.5-.9.76-1.34,8.56-15.04,19.82-28.32,34.11-34.67,38.73-17.21,60.97,26.54,44.47,85.71l135.2-52.72s5.37-44.5,24.02-67.45c11.62-14.3,19.43-9.95,23.44,3.85h0c.15,13.72-1.92,22.92-1.92,22.92Z"/>
          <path class="cls-10" d="M574.86,102.46c-2.07,6.06-19.29,47.02-22.79,52.44-.33.52-.52.94-.59,1.28l-6.75-10.78c5.75-9.39,11.4-22.37,15.15-39.91.74-3.44-.32-6.38,2.87-8.29,3.19-1.91,11.32-3.51,12.11-3.67.8-.16,2.07,2.87,0,8.93Z"/>
          <path class="cls-10" d="M546.81,119.92s-31.53,55.79-103.75,66.51c0,0-2.17,12.63,10.98,8.57s70.3-22.71,92.77-75.08Z"/>
          <path class="cls-5" d="M438.04,213.31s78.94-30.78,83.15-32.42c4.21-1.64,7.21-5.26,7.45-13.63.24-8.37,5.5-18.41,7.65-21.76,2.15-3.35,26.3-46.32,10.52-65.84l-31.08-7.32"/>
          <path class="cls-21" d="M262.28,256.44c-3.03,2.24-23.84,15.99-37.33,24.88-4.44-.26-8.29-.79-11.6-1.36-4.89-.84-8.62-1.75-11.32-2.01-20.56-1.91-59.3-7.41-98.51-21.04-39.21-13.63-52.12-30.44-57.07-37.62-4.94-7.17,1.12-17.69,5.74-23.91,4.62-6.22,2.87-14.51-3.03-21.52-4.89-5.82-5.56-9.99-3.6-14.53,2.91,7.16,7.26,14.47,13.72,19.39,16.98,12.91,27.74,24.39,71.25,28.93,43.52,4.54,90.86,8.85,97.55,8.37s10.28,4.3,20.32,16.5c10.04,12.19,18.41,20.56,13.87,23.91Z"/>
          <path class="cls-10" d="M142.09,223.29s19.45,29.65,28.05,34.11c8.61,4.46,65.19,10.04,65.19,10.04l21.68-15.14-24.39-33-90.54,3.98Z"/>
          <path class="cls-10" d="M93.79,224.24s22.95,11.95,42.88,12.59l6.22,27.89s-57.22-10.2-78.42-33.16l29.33-7.33Z"/>
          <path class="cls-10" d="M56.02,182.48s9.4,13.39,19.61,20.72c-3.94,3.88-7.88,7.76-11.83,11.63-3.82-2.81-7.63-5.63-11.45-8.44,1.03-2.05,2.06-4.54,2.84-7.45,1.8-6.74,1.42-12.64.83-16.46Z"/>
          <path class="cls-16" d="M104.08,101.39c-.39,7.06-21.12,30.4-28.46,37.42-7.33,7.01-10.68,14.98-10.68,14.98-3.33-2.81-6.18-6.61-8.39-10.12,13.47-16.39,30.94-31.29,47.52-42.28Z"/>
          <path class="cls-16" d="M317.75,143.83s-43.99,6.93-47.1,8.13c-3.11,1.2-17.93,8.04-33.95,18.61-16.02,10.56-27.74,20.13-27.74,20.13l43.82,5.11s28.39-25.19,64.97-51.97Z"/>
          <path class="cls-9" d="M77.46,143.83l2.59-2.35c.86-.79,1.77-1.53,2.66-2.28,1.77-1.53,3.62-2.96,5.44-4.42,3.72-2.83,7.52-5.56,11.42-8.14.97-.65,1.96-1.27,2.94-1.91l1.48-.95,1.49-.92c1-.61,1.99-1.23,2.99-1.83l3.02-1.78c4.05-2.34,8.15-4.59,12.3-6.75,4.16-2.13,8.35-4.2,12.59-6.18,4.24-1.96,8.51-3.86,12.83-5.65,8.62-3.6,17.38-6.89,26.29-9.68"/>
          <path class="cls-9" d="M205.14,188.78l3.75-3.43c1.24-1.15,2.55-2.23,3.83-3.34,2.55-2.23,5.21-4.33,7.84-6.47,5.35-4.16,10.82-8.18,16.42-12,.69-.49,1.4-.95,2.11-1.42l2.12-1.41,2.12-1.4,2.14-1.37c1.43-.91,2.86-1.83,4.3-2.72l4.34-2.66,1.08-.66,1.1-.65,2.19-1.29c1.46-.86,2.92-1.72,4.4-2.55l4.42-2.51,4.45-2.45c5.97-3.22,11.98-6.35,18.06-9.35,6.09-2.98,12.22-5.88,18.41-8.62,6.19-2.75,12.43-5.41,18.71-7.95,3.15-1.25,6.3-2.49,9.47-3.68,3.17-1.2,6.35-2.36,9.56-3.45"/>
          <path class="cls-10" d="M208.96,191.53s-.03,0-.05,0c-27.53-1.53-52.24-4.42-73.46-8.6-16.99-3.35-31.8-7.53-44.01-12.41-20.91-8.38-26.92-15.89-27.17-16.2-.28-.36-.22-.89.15-1.17.36-.28.89-.22,1.17.15.1.13,6.19,7.6,26.74,15.79,19.04,7.59,54.74,17.35,116.66,20.79.46.03.81.42.79.88-.02.45-.39.79-.83.79Z"/>
          <path class="cls-10" d="M436.66,37.27c-10.36,5.9-56.03,64.72-56.03,64.72-89.42,5.02-111.82,1.27-157.35-3.83-45.53-5.1-44.37-8.77-54.25-13.85-9.88-5.09,20.08-14.6,33.23-20.34,13.15-5.74,73.13-32.33,77.23-33.95,8.18-3.25,26.62-3.75,51.17-4.22,9.75-.19,18.59-.01,27.82.44,14.01.7,28.95,2.05,49.41,3.78,9.49.8,15.91,1.72,20.26,2.63,11.2,2.35,8.51,4.62,8.51,4.62Z"/>
          <path class="cls-10" d="M454.04,38.38c-8.07,3.88-15.2,10.09-25.89,23.81-10.69,13.73-28.86,39.31-28.86,39.31,0,0-1.2,2.2,16.66,2.85,17.85.66,37.94-2.53,50.21-9.86,12.27-7.33,36.34-11.16,45.75-16.42,9.4-5.26,28.19-16.74,32.83-20.88,0,0,1.37-1.95-1.38-3.51-2.75-1.55-6.22-3.83-11.95-6.34-5.74-2.51-29.41-12.07-43.52-13.39-14.11-1.32-27.62,1.43-33.83,4.42Z"/>
          <path class="cls-21" d="M504.49,87.76c-.1,7.47-3.45,9.86-8.68,10.32-.88.08-1.81.1-2.79.08-6.81-.12-24.63.6-25.11.6s1.91,3.59,1.79,7.89-9.13,8.38-15.86,7.3c-2.36-.38-5.04-.44-7.6-.55-4.73-.22-9.09-.66-10.49-3.76-2.15-4.78,4.12-6.57,7.18-7.18s9.44-.95,10.28,4.19h5.14s-5.14-16.74-4.42-21.52c.72-4.78,5.5-11.95,20.08-11.6,7.68.19,15.77,1.7,21.68,4.37,5.31,2.4,8.87,5.72,8.81,9.85Z"/>
          <path class="cls-21" d="M504.49,87.76c-.1,7.47-3.45,9.86-8.68,10.32l-12.6-9.32,12.47-10.85c5.31,2.4,8.87,5.72,8.81,9.85Z"/>
          <path class="cls-21" d="M453.2,106.65c-.6.98-1.38,4.96-6.96,6.75-4.73-.22-9.09-.66-10.49-3.76-2.15-4.78,4.12-6.57,7.18-7.18s9.44-.95,10.28,4.19Z"/>
          <path class="cls-10" d="M549.04,56.71s18.65,4.78,20.4,7.33c0,0-2.71,3.19-4.78,4.14s-11-1.85-15.62-3.16,0-8.32,0-8.32Z"/>
          <path class="cls-10" d="M370.54,162.66c-.25.39-.49.78-.73,1.17l-10.61-.37-.5.16-105.74,32.76c-.06.02-.12.03-.18.03-.26,0-.49-.16-.57-.42-.1-.32.08-.65.39-.75l106.44-32.97h.1s.31.01.31.01l11.09.39Z"/>
        </g>
        <path class="cls-9" d="M56.02,182.48c6.46,10.83,13.65,17.23,18.5,20.84,13.29,9.91,27.53,12.79,47.15,16.75,8.57,1.73,15.7,2.68,20.43,3.22,30.18-1.33,60.36-2.66,90.54-3.98.85-.41,1.7-.81,2.55-1.22"/>
      </g>
    </g>
    <path class="cls-12" d="M570,600H30C13.43,600,0,586.57,0,570V208.7h600v361.3c0,16.57-13.43,30-30,30Z"/>
    <rect class="cls-19" x="27.28" y="341.2" width="469.02" height="48.26" rx="10.93" ry="10.93"/>
    <g>
      <circle class="cls-23" cx="138.86" cy="208.7" r="118.86"/>
      <circle class="cls-15" cx="138.86" cy="208.7" r="110.28"/>
      <g class="cls-22">
        <g>
          <g>
            <g>
              <path class="cls-24" d="M223.2,451.02c2.71,12.45,13.82,20.89,26.44,20.07,15.92-1.03,27.73-16.09,25.07-31.96l-17.06-64.47-54.34,16.03,19.89,60.33Z"/>
              <path class="cls-24" d="M208.1,288.31c-17.77,2.63-29.89,20.25-26.06,37.87l21.27,64.5,54.34-16.03-16.44-62.13c-2.68-15.94-17.21-26.57-33.11-24.22Z"/>
              <line class="cls-7" x1="184.05" y1="332.29" x2="219.49" y2="439.77"/>
              <line class="cls-7" x1="251.08" y1="349.8" x2="272.54" y2="430.91"/>
            </g>
            <path class="cls-24" d="M217.81,442.27l-10.61,109.53,30.84,10.6,36.25-111.11c4.01-15.16-4.87-30.73-19.96-35h0c-17.68-5-35.45,7.64-36.52,25.98Z"/>
          </g>
          <g>
            <polygon class="cls-29" points="207.77 471.68 38.48 471.68 41.41 561.52 209.93 561.52 207.77 471.68"/>
            <polygon class="cls-19" points="92.16 264.71 116.64 264.95 122.47 268.39 131.3 264.14 155.54 264.71 222.13 289.92 209.79 513.92 36.34 513.92 26.29 289.59 92.16 264.71"/>
            <line class="cls-7" x1="220.4" y1="321.36" x2="209.79" y2="513.92"/>
            <g>
              <path class="cls-33" d="M124.48,291.57c-14.48-.07-26.16-12.18-26.08-27.05l.29-57.28,52.43.26-.29,57.28c-.07,14.86-11.87,26.86-26.35,26.78Z"/>
              <path class="cls-14" d="M150.87,257.06c-23.12.13-41.58-14.5-52.31-25.69l.12-24.12,44.95.23,7.47,1.1-.24,48.48Z"/>
              <g>
                <path class="cls-26" d="M92.16,264.71l27.66,50.01,13.31,23.68,10.03-26.74,14.11-46.5c-2.48,1.21-5.14,2.76-7.84,4.73-9.24,6.75-14.34,15.15-17.05,20.77-11.33-8.71-22.65-17.43-33.98-26.14-2.08.21-4.16-.03-6.25.18Z"/>
                <path class="cls-20" d="M129.33,284.04l-3.68-3.99c-2.11-2.28-1.39-5.95,1.43-7.27l6.46-3.02,6.46,3.02c2.81,1.32,3.53,4.99,1.43,7.27l-3.68,3.99c-2.26,2.45-6.14,2.45-8.4,0Z"/>
                <polygon class="cls-26" points="149.23 287.16 133.53 269.75 152.07 248.34 157.27 265.16 149.23 287.16"/>
                <polygon class="cls-20" points="119.81 314.72 133.12 338.4 142.84 312.51 137.3 280.31 129.31 280.31 119.81 314.72"/>
              </g>
            </g>
          </g>
          <g>
            <path class="cls-20" d="M97.37,129.28c-5.54-1.11-10.9,4.78-13.11,9.11-1.71,3.35-1.9,6.54-2.14,9.95-.26,3.68.08,6.87.55,9.35,2,14.19,4.01,28.38,6.01,42.57,3.01,1.4,13.72,6.1,17.75,1.99,1.45-1.48,1.52-3.53,1.54-5.42.12-8.93.49-18.29,1.19-28.03.43-5.91.95-11.65,1.56-17.22l8.46.86c.83-1.62.92-2.93.84-3.82-.38-4.39-5.61-8.42-13.09-9.67l-4.34-6.16c-1.03-1.3-2.76-3.02-5.22-3.51Z"/>
            <path class="cls-20" d="M183.39,131.72c-3.54-.76-6.97,2.05-8.21,6.71-.73,2.74-1.36,6.09-1.56,9.96-.2,3.68.05,6.86.38,9.35l2.6,39.8c2.18,2.32,6.58,1.61,10.12.75,1.78-.43,3.1-1.91,3.34-3.73,1.52-11.6,3.03-23.2,4.55-34.8.32-2.77.48-6.57-.22-10.99-.64-4.06-1.79-7.38-2.84-9.82l-3.12-6.15c-1.67-.36-3.35-.72-5.02-1.08Z"/>
            <path class="cls-3" d="M161.15,227.55c-1.43.7-4.35,1.79-8.11.89-2.02-.48-3.72-1.41-5.03-2.32"/>
            <g>
              <path class="cls-33" d="M124.21,245.04h0c7.19,5.93,16.22,9.18,25.54,9.18h0c10.92,0,20.93-6.06,25.98-15.74h0c10.07-19.26,14.89-40.83,13.98-62.55l-.8-19.11c-.51-12.14-9.06-22.45-20.9-25.2h0s-17.07-4.19-17.07-4.19l-18.38,5.14-31.84,3.14c-3.97-.02-7.22,3.18-3.82-4.24l-.37,54.33c-.15,22.91,10.01,44.67,27.68,59.25Z"/>
              <path class="cls-7" d="M108.01,226.52c4.31,6.93,9.76,13.2,16.2,18.52h0c7.19,5.93,16.22,9.18,25.54,9.18h0c9.52,0,18.34-4.61,23.8-12.2"/>
            </g>
            <path class="cls-3" d="M163.11,186.53c1.97,4.6,3.92,9.77,5.64,15.51.87,2.89,1.61,5.7,2.25,8.38.44,1.87-.66,3.77-2.51,4.3-1.4.4-3.05.71-4.9.8-2.19.1-4.06-.16-5.5-.47"/>
            <g>
              <path class="cls-30" d="M146.63,190.13c-.19.32-1.46-.62-3.82-.64-2.36-.02-3.64.9-3.82.58-.24-.42,1.59-2.72,3.89-2.68,2.26.04,4.01,2.32,3.76,2.74Z"/>
              <circle class="cls-30" cx="177.14" cy="187.92" r="2.9"/>
              <path class="cls-20" d="M131.25,179.23c-.26.44.01,1,.52,1.07l21.26,2.89c.39.05.75-.21.82-.6h0c.19-1.07-.42-2.12-1.44-2.48l-12.04-4.22c-3.45-1.21-7.27.19-9.12,3.34h0Z"/>
              <path class="cls-20" d="M185.1,170.2c.32.39.23.97-.17,1.12l-16.83,6.24c-.31.11-.67-.08-.82-.44h0c-.42-1-.16-2.12.6-2.64l8.92-6.04c2.55-1.73,6.03-.99,8.31,1.76h0Z"/>
            </g>
            <g>
              <rect class="cls-20" x="92.82" y="137.87" width="15.67" height="53.44" transform="translate(201.31 329.18) rotate(-180)"/>
              <path class="cls-20" d="M151.75,106.93s-30.84-3.8-51.67,10.04c-2.38,1.58-7.56,5.02-9.31,11.22-.49,1.73-.59,3.23-.59,4.24,2.37,3.29,4.75,6.58,7.12,9.87,4.43,6.14,11.47,9.91,19.05,10.09,11.08.27,15.6-.93,24.05-1.31,5.11-.23,8.25-.24,12,.06,17.07,1.37,22.33,8.86,35.76,10.19,4.87.48,12.13.29,21.37-3.44-3.43-1.17-8.75-3.54-12.78-8.56-7.5-9.32-3.59-19.12-7.96-27.59-3.24-6.27-11.87-13.45-37.04-14.81Z"/>
              <path class="cls-20" d="M111.17,139.13c.11,3.18.9,13.95,9.25,22.94,12.69,13.65,31.33,10.83,32.88,10.57-9.87-10.96-19.74-21.93-29.61-32.89l-12.52-.61Z"/>
              <path class="cls-20" d="M129.16,135.87c.12,3.28.92,14.37,9.54,23.64,13.08,14.07,32.29,11.16,33.89,10.89-10.17-11.3-20.35-22.6-30.52-33.9l-12.9-.63Z"/>
              <path class="cls-20" d="M148.06,132.81c.11,3.18.9,13.95,9.25,22.94,12.69,13.65,31.33,10.83,32.88,10.57-9.87-10.96-19.74-21.93-29.61-32.89l-12.52-.61Z"/>
              <path class="cls-20" d="M113.7,141.42h0v56.85h-5.68v-51.17c0-3.13,2.55-5.68,5.68-5.68Z" transform="translate(221.71 339.7) rotate(-180)"/>
              <path class="cls-20" d="M124.21,152.41h0c-5.81,0-10.51,4.71-10.51,10.51v5.64s-12.66-18.45-12.66-18.45l3.56-7.57h14.42s5.19,9.87,5.19,9.87Z"/>
            </g>
            <g>
              <circle class="cls-33" cx="97.14" cy="196.41" r="12.67"/>
              <path class="cls-7" d="M99.69,208.81c-6.85,1.41-13.55-3-14.96-9.85-.7-3.39.03-6.73,1.76-9.43"/>
              <path class="cls-8" d="M89.4,194.64s-.25,8.06,7.35,8.4"/>
            </g>
            <path class="cls-23" d="M161.77,225.07l-14.36-2.7c-2.02-.38-3.58,1.76-2.59,3.56,2.32,4.25,6.64,6.87,10.99,6.66,3.17-.16,5.6-1.79,7.25-3.41,1.39-1.36.63-3.74-1.29-4.1Z"/>
          </g>
          <g>
            <g>
              <path class="cls-33" d="M193.22,548.23l-7.72,13.21-19.98-11.05c-1.37-2.01-2.74-4.01-4.11-6.02.12-.1.62-.56.69-1.32.09-1.03-.71-1.69-.78-1.74-1.65-.45-4.02-1.22-6.72-2.53-1.51-.73-2.47-1.2-3.56-2-2.75-2.01-4.07-4.48-5.83-7.84-.98-1.87-2.16-4.46-3.17-7.69l-1.03-4.36,15.7-9.14,2.73.87c2.48.71,5.27,1.71,8.22,3.15,6.57,3.21,11.26,7.32,14.32,10.54l10.41,13.44c2.79,3.6,3.11,8.54.81,12.48Z"/>
              <g>
                <path class="cls-33" d="M165.65,532.63h0c2.7-.17,5.06,1.9,5.23,4.61l1.61,19.4c.17,2.7-1.9,5.06-4.61,5.23h0c-2.7.17-5.06-1.9-5.23-4.61l-1.61-19.4c-.17-2.7,1.9-5.06,4.61-5.23Z"/>
                <path class="cls-4" d="M172.49,556.64c.17,2.7-1.9,5.06-4.61,5.23h0c-2.7.17-5.06-1.9-5.23-4.61l-1.33-15.95"/>
              </g>
              <g>
                <path class="cls-33" d="M173.8,532.08h0c2.71-.16,5.05,1.93,5.21,4.63l1.89,25.74c.16,2.71-1.93,5.05-4.63,5.21h0c-2.71.16-5.05-1.93-5.21-4.63l-1.89-25.74c-.16-2.71,1.93-5.05,4.63-5.21Z"/>
                <path class="cls-4" d="M180.91,562.45c.16,2.71-1.93,5.05-4.63,5.21h0c-2.71.16-5.05-1.93-5.21-4.63l-1.27-17.29"/>
              </g>
              <g>
                <path class="cls-33" d="M180.27,533.85h0c2.69-.36,5.18,1.55,5.53,4.24l3.78,25.53c.36,2.69-1.55,5.18-4.24,5.53h0c-2.69.36-5.18-1.55-5.53-4.24l-3.78-25.53c-.36-2.69,1.55-5.18,4.24-5.53Z"/>
                <path class="cls-4" d="M189.58,563.62c.36,2.69-1.55,5.18-4.24,5.53h0c-2.69.36-5.18-1.55-5.53-4.24l-3.02-20.4"/>
              </g>
              <g>
                <path class="cls-33" d="M188.72,536.67h0c2.63-.64,5.31.99,5.95,3.63l6.46,24.99c.64,2.63-.99,5.31-3.63,5.95h0c-2.63.64-5.31-.99-5.95-3.63l-6.46-24.99c-.64-2.63.99-5.31,3.63-5.95Z"/>
                <path class="cls-4" d="M201.13,565.28c.64,2.63-.99,5.31-3.63,5.95h0c-2.63.64-5.31-.99-5.95-3.63l-5.55-21.73"/>
              </g>
            </g>
            <g>
              <path class="cls-24" d="M98.03,435.75c4.42,11.95-.4,25.04-11.48,31.15-13.97,7.71-32.03,1.37-38.33-13.44l-20.34-63.52,54.43-15.75,15.72,61.55Z"/>
              <path class="cls-24" d="M23.15,290.51c16.39-7.35,36.09.97,42.35,17.88l16.81,65.81-54.43,15.75-19.6-61.21c-6.32-14.88.2-31.66,14.86-38.24Z"/>
              <line class="cls-7" x1="67.09" y1="314.62" x2="95.1" y2="424.27"/>
              <line class="cls-7" x1="20.04" y1="365.46" x2="45.63" y2="445.36"/>
            </g>
            <path class="cls-24" d="M97.86,425.47l72.76,82.29-28.03,27.46-87.47-71.74c-11.54-10.62-12.44-28.52-2.02-40.24h0c12.2-13.73,33.98-12.65,44.76,2.23Z"/>
            <path class="cls-7" d="M94.39,421.49c1.25,1.19,2.42,2.52,3.48,3.98l72.76,82.29-28.03,27.46"/>
          </g>
          <path class="cls-25" d="M207.52,173.11l-.75,3.05c-.73,3-2.91,5.45-5.81,6.52l-2.13.79c-.48.18-.48.86,0,1.04l2.13.79c2.9,1.07,5.08,3.52,5.81,6.52l.75,3.05c.14.56.94.56,1.07,0l.75-3.05c.73-3,2.91-5.45,5.81-6.52l2.13-.79c.48-.18.48-.86,0-1.04l-2.13-.79c-2.9-1.07-5.08-3.52-5.81-6.52l-.75-3.05c-.14-.56-.94-.56-1.07,0Z"/>
          <path class="cls-25" d="M127.91,215.29l-.53,2.15c-.52,2.12-2.05,3.84-4.09,4.6l-1.5.56c-.34.13-.34.6,0,.73l1.5.56c2.04.76,3.58,2.48,4.09,4.6l.53,2.15c.1.4.66.4.76,0l.53-2.15c.52-2.12,2.05-3.84,4.09-4.6l1.5-.56c.34-.13.34-.6,0-.73l-1.5-.56c-2.04-.76-3.58-2.48-4.09-4.6l-.53-2.15c-.1-.4-.66-.4-.76,0Z"/>
          <path class="cls-25" d="M68.02,156.26l-.53,2.15c-.52,2.12-2.05,3.84-4.09,4.6l-1.5.56c-.34.13-.34.6,0,.73l1.5.56c2.04.76,3.58,2.48,4.09,4.6l.53,2.15c.1.4.66.4.76,0l.53-2.15c.52-2.12,2.05-3.84,4.09-4.6l1.5-.56c.34-.13.34-.6,0-.73l-1.5-.56c-2.04-.76-3.58-2.48-4.09-4.6l-.53-2.15c-.1-.4-.66-.4-.76,0Z"/>
          <g>
            <g>
              <path class="cls-33" d="M127.65,279.17l14.82-34.86h0c.45-1.73,1.76-3.19,3.6-3.73,2.79-.82,5.72.77,6.54,3.56.19.65.25,1.3.19,1.94h0s-3.14,35.31-3.14,35.31c1.87,6.33-1.76,12.98-8.09,14.84-6.33,1.87-12.98-1.76-14.84-8.09-.92-3.12-.5-6.31.91-8.98Z"/>
              <path class="cls-2" d="M127.65,279.17l14.82-34.86h0c.45-1.73,1.76-3.19,3.6-3.73,2.79-.82,5.72.77,6.54,3.56.19.65.25,1.3.19,1.94h0s-3,34.21-3,34.21"/>
            </g>
            <path class="cls-33" d="M152.79,250.19l8.44,22.51-3.63,14.67c-2.51,10.15-8.2,19.23-16.23,25.91h0s-19.16-11.12-19.16-11.12l-.53-3.33c-1.61-10.23.04-20.7,4.74-29.93l2.46-4.83c3.21-6.32,9.13-10.83,16.08-12.26l7.83-1.61Z"/>
            <g>
              <path class="cls-33" d="M136.04,260.39h0c-.72-3.46,1.53-6.88,4.99-7.59l32.85-7.3c3.46-.72,6.88,1.53,7.59,4.99h0c.72,3.46-1.53,6.88-4.99,7.59l-32.85,7.3c-3.46.72-6.88-1.53-7.59-4.99Z"/>
              <path class="cls-2" d="M173.88,245.49c3.46-.72,6.88,1.53,7.59,4.99h0c.72,3.46-1.53,6.88-4.99,7.59l-36.64,8.04"/>
            </g>
            <path class="cls-2" d="M121.33,296.12c-.95-9.35.81-18.81,5.09-27.22l2.46-4.83c2.72-5.35,7.37-9.4,12.95-11.39"/>
            <g>
              <path class="cls-33" d="M131.02,273.65h0c-.72-3.46,1.53-6.88,4.99-7.59l20.42-4.73c3.46-.72,6.88,1.53,7.59,4.99h0c.72,3.46-1.53,6.88-4.99,7.59l-20.42,4.73c-3.46.72-6.88-1.53-7.59-4.99Z"/>
              <path class="cls-2" d="M152.53,260.84c1.79.02,3.59.04,5.38.06.62,0,1.59.08,2.63.58,2.08,1,3.23,3.1,3.48,4.84.43,2.96-1.57,6.17-4.99,7.59"/>
              <g>
                <path class="cls-33" d="M131.16,283.95h0c-.75-3.45,1.47-6.89,4.92-7.64l20.35-5.05c3.45-.75,6.89,1.47,7.64,4.92h0c.75,3.45-1.47,6.89-4.92,7.64l-20.35,5.05c-3.45.75-6.89-1.47-7.64-4.92Z"/>
                <path class="cls-2" d="M152.22,270.74c3.12-.28,5.44.14,6.87.52,1.03.27,1.62.53,2.17.89,1.82,1.19,2.53,3.09,2.81,4.04h0c.75,3.45-1.47,6.89-4.92,7.64-5.59,1.4-11.19,2.81-16.78,4.21"/>
              </g>
              <g>
                <path class="cls-33" d="M138.31,291.76h0c-.72-3.46,1.53-6.88,4.99-7.59l12.33-3.06c3.46-.72,6.88,1.53,7.59,4.99h0c.72,3.46-1.53,6.88-4.99,7.59l-12.33,3.06c-3.46.72-6.88-1.53-7.59-4.99Z"/>
                <path class="cls-2" d="M155.37,294.43l2.87-.74c3.32-.92,5.46-4.19,4.99-7.59-.47-3.4-3.42-5.96-6.86-5.95-1.45,0-2.9-.01-4.34-.02"/>
              </g>
            </g>
            <path class="cls-2" d="M173.88,245.49l-21.65,4.81-7.28,1.5c-.89.18-1.77.42-2.62.7l-1.3.29c-1.3.27-2.42.92-3.29,1.8"/>
          </g>
          <path class="cls-19" d="M66.99,386.08l51.17-97.2,35.61,16.48-36.09,107.22c-5.84,14.55-22.27,21.74-36.92,16.15h0c-17.17-6.55-23.87-27.3-13.77-42.65Z"/>
          <path class="cls-7" d="M66.99,386.08l51.17-97.2,35.61,16.48-36.09,107.22c-5.84,14.55-22.27,21.74-36.92,16.15h0c-17.17-6.55-23.87-27.3-13.77-42.65Z"/>
        </g>
      </g>
    </g>
    <path class="cls-23" d="M50.84,448.6c-1.34-.3-2.48-.71-3.4-1.23v-3.99c1.04.65,2.23,1.15,3.54,1.51,1.32.36,2.58.54,3.77.54,4.3,0,6.46-1.7,6.46-5.11,0-1.64-.53-2.9-1.59-3.77-1.06-.87-2.54-1.31-4.46-1.31-.87,0-1.79.09-2.76.26-.97.17-1.83.41-2.58.71l-1.98-1.12,1.01-12.69h15.3v3.92h-11.01l-.49,5.97c1.37-.3,2.89-.45,4.55-.45,2.76,0,4.91.76,6.46,2.28,1.54,1.52,2.31,3.58,2.31,6.2,0,2.84-.92,5-2.76,6.49-1.84,1.49-4.6,2.24-8.29,2.24-1.39,0-2.76-.15-4.11-.45Z"/>
    <g>
      <path class="cls-23" d="M82.55,434.16h-2.65v-3.58h2.65v-3.1c0-2.19.65-3.86,1.94-5.02,1.29-1.16,3-1.74,5.11-1.74,1.19,0,2.24.17,3.14.52v3.81c-.67-.3-1.41-.45-2.2-.45-1.12,0-1.95.25-2.48.75-.54.5-.8,1.32-.8,2.46v2.76h4.37v3.58h-4.37v14.33h-4.7v-14.33Z"/>
      <path class="cls-23" d="M94.79,430.58h4.55v2.87c.72-.97,1.75-1.69,3.08-2.16s2.86-.71,4.57-.71v3.58c-1.82,0-3.39.28-4.72.84-1.33.56-2.26,1.44-2.78,2.63v10.86h-4.7v-17.92Z"/>
      <path class="cls-23" d="M110.74,426.69c-.51-.5-.76-1.12-.76-1.87s.25-1.37.76-1.88c.51-.51,1.14-.77,1.88-.77s1.38.26,1.9.77c.52.51.78,1.14.78,1.88s-.26,1.37-.78,1.87c-.52.5-1.16.75-1.9.75s-1.38-.25-1.88-.75ZM110.24,430.58h4.78v17.92h-4.78v-17.92Z"/>
      <path class="cls-23" d="M121.96,446.55c-1.94-1.67-2.91-3.99-2.91-6.98s.86-5.26,2.58-6.98,4.17-2.58,7.35-2.58c2.09,0,3.88.4,5.36,1.19,1.48.8,2.59,1.88,3.34,3.27.75,1.38,1.12,2.96,1.12,4.72v2.16h-15.27c.32,2.66,2.64,3.99,6.94,3.99,1.14,0,2.31-.1,3.51-.3s2.24-.47,3.13-.82v3.62c-.85.35-1.93.63-3.27.86-1.33.22-2.66.34-3.97.34-3.33,0-5.97-.83-7.91-2.5ZM134.35,438.15c-.05-1.42-.55-2.51-1.51-3.28-.96-.77-2.27-1.16-3.94-1.16s-2.94.4-3.88,1.19c-.95.8-1.44,1.88-1.49,3.25h10.82Z"/>
      <path class="cls-23" d="M142.52,430.58h4.55v2.43c.85-1.02,1.85-1.77,3.02-2.26,1.17-.49,2.4-.73,3.7-.73,2.41,0,4.22.65,5.41,1.96s1.79,3.04,1.79,5.21v11.31h-4.7v-10.86c0-2.61-1.22-3.92-3.66-3.92-1.07,0-2.08.26-3.02.77-.95.51-1.74,1.28-2.39,2.3v11.72h-4.7v-17.92Z"/>
      <path class="cls-23" d="M169.12,447.87c-1.43-.78-2.55-1.89-3.36-3.32-.81-1.43-1.21-3.09-1.21-4.98s.4-3.52,1.21-4.96c.81-1.44,1.93-2.57,3.36-3.38,1.43-.81,3.05-1.21,4.87-1.21,2.94,0,5.25.77,6.94,2.31v-11.42h4.7v27.58h-4.55v-2.09c-1.02.95-2.08,1.62-3.17,2.03-1.09.41-2.4.62-3.92.62-1.82,0-3.44-.39-4.87-1.18ZM178.73,444.27c1.04-.72,1.78-1.69,2.2-2.91v-3.62c-.4-1.22-1.13-2.2-2.18-2.93-1.06-.73-2.26-1.1-3.6-1.1-1.69,0-3.09.55-4.18,1.64-1.09,1.1-1.64,2.5-1.64,4.22s.55,3.11,1.64,4.18c1.09,1.07,2.49,1.6,4.18,1.6,1.34,0,2.54-.36,3.58-1.08Z"/>
      <path class="cls-23" d="M192.95,448.6c-1.47-.3-2.61-.71-3.43-1.23v-3.99c.97.6,2.13,1.08,3.47,1.44,1.34.36,2.61.54,3.81.54s2.06-.11,2.61-.32c.55-.21.82-.6.82-1.18,0-.45-.14-.81-.43-1.1s-.75-.55-1.38-.78c-.63-.24-1.61-.53-2.93-.88-1.49-.42-2.67-.86-3.53-1.31s-1.51-1.01-1.94-1.7c-.44-.68-.65-1.57-.65-2.67,0-1.79.71-3.14,2.13-4.05,1.42-.91,3.33-1.36,5.75-1.36,1.24,0,2.48.12,3.71.35,1.23.24,2.2.57,2.89.99v3.84c-.75-.45-1.66-.81-2.72-1.08-1.07-.27-2.17-.41-3.28-.41-1.22,0-2.14.12-2.76.35-.62.24-.93.69-.93,1.36,0,.45.17.8.5,1.06s.78.49,1.33.67c.55.19,1.54.47,2.99.84,1.54.42,2.75.88,3.62,1.38.87.5,1.49,1.1,1.87,1.79.37.7.56,1.57.56,2.61,0,1.59-.68,2.87-2.03,3.83-1.36.96-3.32,1.44-5.88,1.44-1.29,0-2.67-.15-4.14-.45Z"/>
    </g>
    <line class="cls-6" x1="29.86" y1="494.48" x2="570.14" y2="494.48"/>
    <g class="cls-18">
      <path class="cls-19" d="M71.52,529.87h10.45c2.86,0,5.16.76,6.89,2.28,1.73,1.52,2.59,3.6,2.59,6.23s-.86,4.82-2.58,6.25c-1.72,1.43-4.03,2.15-6.94,2.15h-5.67v9.18h-4.74v-26.09ZM81.37,542.86c3.56,0,5.34-1.49,5.34-4.48s-1.78-4.59-5.34-4.59h-5.11v9.07h5.11Z"/>
      <path class="cls-19" d="M96.62,555.38c-1.58-.76-2.81-1.85-3.68-3.28-.87-1.43-1.31-3.13-1.31-5.09s.43-3.59,1.29-5.02c.86-1.43,2.08-2.54,3.68-3.32,1.59-.78,3.43-1.18,5.52-1.18s3.92.39,5.5,1.18,2.8,1.89,3.68,3.32c.87,1.43,1.31,3.1,1.31,5.02s-.44,3.66-1.31,5.09c-.87,1.43-2.1,2.53-3.68,3.28s-3.42,1.14-5.5,1.14-3.93-.38-5.51-1.14ZM106.23,551.2c1.02-1.08,1.53-2.48,1.53-4.2,0-1.82-.5-3.24-1.51-4.27-1.01-1.03-2.38-1.55-4.12-1.55s-3.12.52-4.12,1.55c-1.01,1.03-1.51,2.46-1.51,4.27,0,1.72.51,3.12,1.53,4.2,1.02,1.08,2.39,1.62,4.11,1.62s3.08-.54,4.11-1.62Z"/>
      <path class="cls-19" d="M118.25,556.07c-1.47-.3-2.61-.71-3.43-1.23v-3.99c.97.6,2.13,1.08,3.47,1.44,1.34.36,2.61.54,3.81.54s2.07-.11,2.61-.32c.55-.21.82-.6.82-1.18,0-.45-.14-.81-.43-1.1-.29-.29-.75-.55-1.38-.78-.63-.24-1.61-.53-2.93-.88-1.49-.42-2.67-.86-3.53-1.31s-1.51-1.01-1.94-1.7c-.44-.68-.65-1.57-.65-2.67,0-1.79.71-3.14,2.13-4.05,1.42-.91,3.33-1.36,5.75-1.36,1.24,0,2.48.12,3.71.35,1.23.24,2.2.57,2.89.99v3.84c-.75-.45-1.66-.81-2.72-1.08-1.07-.27-2.17-.41-3.29-.41-1.22,0-2.14.12-2.76.35s-.93.69-.93,1.36c0,.45.17.8.5,1.06s.78.49,1.32.67,1.54.47,2.99.84c1.54.42,2.75.88,3.62,1.38.87.5,1.49,1.1,1.87,1.79.37.7.56,1.57.56,2.61,0,1.59-.68,2.87-2.03,3.83s-3.32,1.44-5.88,1.44c-1.29,0-2.67-.15-4.14-.45Z"/>
      <path class="cls-19" d="M136.2,554.87c-1.02-1.09-1.53-2.64-1.53-4.63v-8.62h-2.69v-3.58h2.69v-5.38h4.7v5.38h4.29v3.58h-4.29v8.02c0,1.14.21,1.96.63,2.44.42.48,1.19.73,2.31.73.77,0,1.53-.17,2.28-.52v3.58c-1.07.42-2.38.63-3.92.63-1.97,0-3.46-.55-4.48-1.64Z"/>
    </g>
    <g class="cls-18">
      <path class="cls-19" d="M248.85,529.87h10.45c2.86,0,5.16.76,6.89,2.28,1.73,1.52,2.59,3.6,2.59,6.23s-.86,4.82-2.58,6.25c-1.72,1.43-4.03,2.15-6.94,2.15h-5.67v9.18h-4.74v-26.09ZM258.7,542.86c3.56,0,5.34-1.49,5.34-4.48s-1.78-4.59-5.34-4.59h-5.11v9.07h5.11Z"/>
      <path class="cls-19" d="M271.76,528.37h4.7v11.94c1.69-1.89,3.88-2.84,6.57-2.84,2.41,0,4.22.65,5.41,1.96s1.79,3.04,1.79,5.21v11.31h-4.7v-10.86c0-2.61-1.22-3.92-3.66-3.92-1.07,0-2.08.26-3.02.77-.95.51-1.74,1.28-2.39,2.3v11.72h-4.7v-27.58Z"/>
      <path class="cls-19" d="M298.21,555.38c-1.58-.76-2.81-1.85-3.68-3.28-.87-1.43-1.31-3.13-1.31-5.09s.43-3.59,1.29-5.02c.86-1.43,2.08-2.54,3.68-3.32,1.59-.78,3.43-1.18,5.52-1.18s3.92.39,5.5,1.18,2.81,1.89,3.68,3.32c.87,1.43,1.31,3.1,1.31,5.02s-.44,3.66-1.31,5.09c-.87,1.43-2.1,2.53-3.68,3.28s-3.42,1.14-5.5,1.14-3.93-.38-5.51-1.14ZM307.82,551.2c1.02-1.08,1.53-2.48,1.53-4.2,0-1.82-.5-3.24-1.51-4.27-1.01-1.03-2.38-1.55-4.12-1.55s-3.12.52-4.12,1.55c-1.01,1.03-1.51,2.46-1.51,4.27,0,1.72.51,3.12,1.53,4.2,1.02,1.08,2.39,1.62,4.11,1.62s3.08-.54,4.11-1.62Z"/>
      <path class="cls-19" d="M320.1,554.87c-1.02-1.09-1.53-2.64-1.53-4.63v-8.62h-2.69v-3.58h2.69v-5.38h4.7v5.38h4.29v3.58h-4.29v8.02c0,1.14.21,1.96.63,2.44.42.48,1.19.73,2.31.73.77,0,1.53-.17,2.28-.52v3.58c-1.07.42-2.38.63-3.92.63-1.97,0-3.46-.55-4.48-1.64Z"/>
      <path class="cls-19" d="M335.91,555.38c-1.58-.76-2.81-1.85-3.68-3.28-.87-1.43-1.31-3.13-1.31-5.09s.43-3.59,1.29-5.02c.86-1.43,2.08-2.54,3.68-3.32,1.59-.78,3.43-1.18,5.52-1.18s3.92.39,5.5,1.18,2.81,1.89,3.68,3.32c.87,1.43,1.31,3.1,1.31,5.02s-.44,3.66-1.31,5.09c-.87,1.43-2.1,2.53-3.68,3.28s-3.42,1.14-5.5,1.14-3.93-.38-5.51-1.14ZM345.52,551.2c1.02-1.08,1.53-2.48,1.53-4.2,0-1.82-.5-3.24-1.51-4.27-1.01-1.03-2.38-1.55-4.12-1.55s-3.12.52-4.12,1.55c-1.01,1.03-1.51,2.46-1.51,4.27,0,1.72.51,3.12,1.53,4.2,1.02,1.08,2.39,1.62,4.11,1.62s3.08-.54,4.11-1.62Z"/>
    </g>
    <g class="cls-18">
      <path class="cls-19" d="M432.11,529.87h5.04l7.69,19.74,7.73-19.74h5l-10.41,26.09h-4.59l-10.45-26.09Z"/>
      <path class="cls-19" d="M459.64,534.16c-.51-.5-.77-1.12-.77-1.87s.25-1.37.77-1.88,1.14-.77,1.88-.77,1.38.26,1.9.77c.52.51.78,1.14.78,1.88s-.26,1.37-.78,1.87c-.52.5-1.16.75-1.9.75s-1.38-.25-1.88-.75ZM459.14,538.04h4.78v17.92h-4.78v-17.92Z"/>
      <path class="cls-19" d="M472.52,555.34c-1.43-.78-2.55-1.89-3.36-3.32-.81-1.43-1.21-3.09-1.21-4.98s.4-3.52,1.21-4.96c.81-1.44,1.93-2.57,3.36-3.38,1.43-.81,3.05-1.21,4.87-1.21,2.94,0,5.25.77,6.94,2.31v-11.42h4.7v27.58h-4.55v-2.09c-1.02.95-2.08,1.62-3.17,2.03-1.1.41-2.4.62-3.92.62-1.82,0-3.44-.39-4.87-1.18ZM482.13,551.74c1.04-.72,1.78-1.69,2.2-2.91v-3.62c-.4-1.22-1.13-2.2-2.18-2.93-1.06-.73-2.26-1.1-3.6-1.1-1.69,0-3.09.55-4.18,1.64s-1.64,2.5-1.64,4.22.55,3.11,1.64,4.18c1.09,1.07,2.49,1.6,4.18,1.6,1.34,0,2.54-.36,3.58-1.08Z"/>
      <path class="cls-19" d="M495.68,554.02c-1.94-1.67-2.91-3.99-2.91-6.98s.86-5.26,2.58-6.98,4.17-2.58,7.35-2.58c2.09,0,3.88.4,5.36,1.19,1.48.8,2.59,1.88,3.34,3.27.75,1.38,1.12,2.96,1.12,4.72v2.16h-15.27c.32,2.66,2.64,3.99,6.94,3.99,1.14,0,2.31-.1,3.51-.3s2.24-.47,3.14-.82v3.62c-.85.35-1.94.63-3.27.86-1.33.22-2.66.34-3.97.34-3.33,0-5.97-.83-7.91-2.5ZM508.07,545.62c-.05-1.42-.55-2.51-1.51-3.28-.96-.77-2.27-1.16-3.94-1.16s-2.94.4-3.88,1.19c-.95.8-1.44,1.88-1.49,3.25h10.82Z"/>
      <path class="cls-19" d="M520.48,555.38c-1.58-.76-2.81-1.85-3.68-3.28-.87-1.43-1.31-3.13-1.31-5.09s.43-3.59,1.29-5.02c.86-1.43,2.08-2.54,3.68-3.32,1.59-.78,3.43-1.18,5.52-1.18s3.92.39,5.5,1.18,2.81,1.89,3.68,3.32c.87,1.43,1.31,3.1,1.31,5.02s-.44,3.66-1.31,5.09c-.87,1.43-2.1,2.53-3.68,3.28s-3.42,1.14-5.5,1.14-3.93-.38-5.51-1.14ZM530.09,551.2c1.02-1.08,1.53-2.48,1.53-4.2,0-1.82-.5-3.24-1.51-4.27-1.01-1.03-2.38-1.55-4.12-1.55s-3.12.52-4.12,1.55c-1.01,1.03-1.51,2.46-1.51,4.27,0,1.72.51,3.12,1.53,4.2,1.02,1.08,2.39,1.62,4.11,1.62s3.08-.54,4.11-1.62Z"/>
    </g>
  </g>
  <g>
    <rect class="cls-13" x="163.95" y="21.13" width="414.92" height="128.84" rx="9.56" ry="9.56"/>
    <path class="cls-13" d="M225.34,146.73h-27.14s11.95,14.3,11.95,14.3c.84,1.01,2.39,1.01,3.23,0l11.95-14.3Z"/>
    <g>
      <path class="cls-23" d="M230.59,75.9c-.63-.67-.94-1.6-.94-2.8v-11.49c0-1.45-.28-2.59-.83-3.41-.56-.82-1.45-1.47-2.69-1.94v-3.42h11.42v3.74h-5.15c1.41,1.09,2.11,2.79,2.11,5.12v10.08c0,.51.11.88.32,1.09.21.21.56.32,1.06.32h1.12v3.71h-3.71c-1.17,0-2.08-.34-2.7-1.01Z"/>
      <path class="cls-23" d="M243.44,76.44c-1.32-.63-2.35-1.5-3.07-2.61-.73-1.11-1.09-2.37-1.09-3.78v-10.27h4.86v9.95c0,1.24.33,2.19.98,2.86.65.67,1.64,1.01,2.96,1.01s2.3-.34,2.94-1.01c.64-.67.96-1.63.96-2.86v-15.68h4.86v16c0,1.41-.36,2.67-1.09,3.78-.73,1.11-1.75,1.98-3.07,2.61s-2.86.94-4.61.94-3.32-.31-4.64-.94Z"/>
      <path class="cls-23" d="M262.75,77.01c-1.29-.24-2.31-.61-3.06-1.1v-3.71c.94.56,1.99.98,3.15,1.28,1.16.3,2.21.45,3.15.45,1.13,0,1.96-.11,2.48-.34s.78-.62.78-1.2c0-.51-.25-.91-.75-1.18-.5-.28-1.44-.63-2.8-1.06l-.8-.26c-1.83-.58-3.19-1.27-4.06-2.08-.88-.81-1.31-1.92-1.31-3.33,0-1.64.66-2.92,1.98-3.82,1.32-.91,3.1-1.36,5.34-1.36,1.22,0,2.39.13,3.52.38,1.13.26,2.04.59,2.72.99v3.81c-.68-.47-1.53-.85-2.54-1.14-1.01-.29-2.01-.43-2.99-.43-2.07,0-3.1.52-3.1,1.57,0,.51.24.91.74,1.18.49.28,1.37.61,2.62.99l1.15.35c1.34.43,2.39.9,3.15,1.41.76.51,1.28,1.09,1.58,1.73.3.64.45,1.42.45,2.34,0,1.47-.63,2.66-1.9,3.55-1.27.9-3.16,1.34-5.68,1.34-1.26,0-2.53-.12-3.82-.37Z"/>
      <path class="cls-23" d="M278.78,75.9c-.63-.67-.94-1.6-.94-2.8v-11.04c0-2.52.74-4.34,2.21-5.47h-5.28v-3.74h11.42v3.42c-1.24.49-2.13,1.18-2.69,2.08s-.83,2.1-.83,3.62v9.82c0,.51.11.88.32,1.09.21.21.58.32,1.09.32h1.12v3.71h-3.71c-1.17,0-2.08-.34-2.7-1.01Z"/>
      <path class="cls-23" d="M286.96,59.78h4.86l2.4,10.46,2.94-10.46h3.52l2.94,10.46,3.36-16.19h4.7l-5.57,22.85h-4.13l-3.07-10.66-3.07,10.66h-4.13l-4.77-17.12Z"/>
      <path class="cls-23" d="M313.57,75.91c-1.16-.98-1.74-2.37-1.74-4.16s.63-3.2,1.9-4.22c1.27-1.02,3.01-1.54,5.23-1.54,2.07,0,3.84.34,5.31,1.02v-.67c0-1.15-.38-2-1.14-2.56-.76-.55-1.98-.83-3.66-.83-1.05,0-2.07.11-3.07.32-1,.21-1.9.51-2.69.9v-3.65c.7-.34,1.67-.63,2.91-.86,1.24-.23,2.48-.35,3.74-.35,2.86,0,5.03.64,6.51,1.9,1.48,1.27,2.22,2.97,2.22,5.1v10.59h-4.83v-6.37c-1.24-.64-2.69-.96-4.35-.96-1.09,0-1.88.18-2.38.54-.5.36-.75.93-.75,1.7,0,.7.23,1.23.69,1.58.46.35,1.19.53,2.19.53.7,0,1.3-.11,1.79-.32v3.36c-.83.28-1.9.42-3.2.42-1.96,0-3.53-.49-4.69-1.47Z"/>
      <path class="cls-23" d="M320.43,55.24c0-.94.25-1.64.75-2.11.5-.47,1.3-.7,2.38-.7h7.2v3.04h-5.12c-.32,0-.55.07-.69.21-.14.14-.21.37-.21.69v1.31h-4.32v-2.43Z"/>
      <path class="cls-23" d="M334.1,75.18c-1.54-1.47-2.3-3.63-2.3-6.46s.89-5.27,2.66-6.93c1.77-1.65,4.21-2.48,7.33-2.48s5.59.75,7.12,2.24c1.52,1.49,2.29,3.46,2.29,5.89v9.47h-4.83v-9.5c0-1.41-.36-2.48-1.07-3.22-.72-.74-1.88-1.1-3.5-1.1-1.54,0-2.75.48-3.65,1.44-.9.96-1.34,2.36-1.34,4.19,0,1.69.37,2.92,1.1,3.71.74.79,1.86,1.18,3.38,1.18.81,0,1.54-.12,2.18-.35v3.71c-.83.28-1.86.42-3.07.42-2.65,0-4.74-.74-6.27-2.21Z"/>
      <path class="cls-23" d="M342.88,84.94c-.86-.62-1.3-1.44-1.3-2.46v-.58c0-.28-.05-.47-.14-.58-.1-.11-.27-.16-.53-.16h-1.06v-2.75h3.62c.64,0,1.08.14,1.33.43.25.29.37.74.37,1.36v1.76c0,.77.41,1.15,1.22,1.15s1.18-.38,1.18-1.15v-3.55h3.58v3.94c0,1.02-.4,1.87-1.2,2.53-.8.66-1.94.99-3.41.99-1.58,0-2.8-.31-3.66-.93Z"/>
      <path class="cls-23" d="M356.21,75.18c-1.54-1.47-2.3-3.63-2.3-6.46s.89-5.27,2.66-6.93c1.77-1.65,4.21-2.48,7.33-2.48s5.59.75,7.12,2.24c1.52,1.49,2.29,3.46,2.29,5.89v9.47h-4.83v-9.5c0-1.41-.36-2.48-1.07-3.22-.72-.74-1.88-1.1-3.5-1.1-1.54,0-2.75.48-3.65,1.44-.9.96-1.34,2.36-1.34,4.19,0,1.69.37,2.92,1.1,3.71.74.79,1.86,1.18,3.38,1.18.81,0,1.54-.12,2.18-.35v3.71c-.83.28-1.86.42-3.07.42-2.65,0-4.74-.74-6.27-2.21Z"/>
      <path class="cls-23" d="M358.51,54.6h10.43v-3.39h4.38v6.46h-14.82v-3.07Z"/>
      <path class="cls-23" d="M377.6,75.9c-.63-.67-.94-1.6-.94-2.8v-13.31h4.86v12c0,.51.11.88.32,1.09.21.21.56.32,1.06.32h1.12v3.71h-3.71c-1.17,0-2.08-.34-2.7-1.01Z"/>
      <path class="cls-23" d="M387.54,66.7l-1.6-2.72c2.5-3.11,5.71-4.67,9.63-4.67,2.75,0,4.87.61,6.35,1.82,1.48,1.22,2.22,2.91,2.22,5.09v10.69h-4.86v-10.3c0-2.35-1.24-3.52-3.71-3.52-.92,0-1.73.13-2.45.38-.71.26-1.38.67-2,1.25l1.25,2.05v10.14h-4.83v-10.21Z"/>
      <path class="cls-23" d="M389.3,54.6h14.82v3.07h-14.82v-3.07Z"/>
      <path class="cls-23" d="M410.54,76.52c-1-.58-1.77-1.37-2.29-2.37-.52-1-.78-2.12-.78-3.36v-11.01h4.86v10.72c0,2.07,1.1,3.1,3.3,3.1.9,0,1.67-.19,2.32-.56.65-.37,1.22-.95,1.71-1.74v-11.52h4.83v17.12h-4.61v-1.92c-.75.79-1.63,1.39-2.64,1.79-1.01.4-2.05.61-3.12.61-1.39,0-2.58-.29-3.58-.86Z"/>
      <path class="cls-23" d="M427.73,67.49h4.8l1.44,5.79c1.47,0,2.69-.45,3.66-1.36.97-.91,1.46-2.15,1.46-3.73,0-1.71-.45-2.99-1.36-3.84-.91-.85-2.46-1.28-4.66-1.28-1.02,0-2.08.11-3.17.32-1.09.21-1.98.49-2.69.83v-3.74c.85-.36,1.87-.65,3.06-.86s2.38-.32,3.6-.32c3.31,0,5.83.75,7.57,2.26,1.74,1.5,2.61,3.7,2.61,6.58,0,1.75-.43,3.29-1.3,4.61-.86,1.32-2.03,2.35-3.49,3.07-1.46.73-3.07,1.09-4.82,1.09h-4.38l-2.34-9.41Z"/>
      <path class="cls-23" d="M449.34,77.01c-1.29-.24-2.31-.61-3.06-1.1v-3.71c.94.56,1.99.98,3.15,1.28,1.16.3,2.21.45,3.15.45,1.13,0,1.96-.11,2.48-.34s.78-.62.78-1.2c0-.51-.25-.91-.75-1.18-.5-.28-1.44-.63-2.8-1.06l-.8-.26c-1.83-.58-3.19-1.27-4.06-2.08-.88-.81-1.31-1.92-1.31-3.33,0-1.64.66-2.92,1.98-3.82,1.32-.91,3.1-1.36,5.34-1.36,1.22,0,2.39.13,3.52.38,1.13.26,2.04.59,2.72.99v3.81c-.68-.47-1.53-.85-2.54-1.14-1.01-.29-2.01-.43-2.99-.43-2.07,0-3.1.52-3.1,1.57,0,.51.24.91.74,1.18.49.28,1.37.61,2.62.99l1.15.35c1.34.43,2.39.9,3.15,1.41.76.51,1.28,1.09,1.58,1.73.3.64.45,1.42.45,2.34,0,1.47-.63,2.66-1.9,3.55-1.27.9-3.16,1.34-5.68,1.34-1.26,0-2.53-.12-3.82-.37Z"/>
      <path class="cls-23" d="M445.26,54.6h14.82v3.07h-14.82v-3.07Z"/>
      <path class="cls-23" d="M462.8,61.93h4.83l3.65,11.36c1.58,0,2.79-.47,3.65-1.42.85-.95,1.28-2.3,1.28-4.05,0-1.58-.3-2.76-.9-3.55-.6-.79-1.52-1.18-2.75-1.18-.68,0-1.37.11-2.05.32v-3.65c.9-.3,1.91-.45,3.04-.45,2.54,0,4.44.74,5.71,2.22,1.27,1.48,1.9,3.58,1.9,6.29,0,1.9-.42,3.53-1.25,4.9s-1.96,2.41-3.38,3.12c-1.42.71-2.97,1.07-4.66,1.07h-4.29l-4.8-14.98Z"/>
      <path class="cls-23" d="M229.31,120.91c-1.16-.98-1.74-2.37-1.74-4.16s.63-3.2,1.9-4.22c1.27-1.02,3.01-1.54,5.23-1.54,2.07,0,3.84.34,5.31,1.02v-.67c0-1.15-.38-2-1.14-2.56-.76-.55-1.98-.83-3.66-.83-1.05,0-2.07.11-3.07.32-1,.21-1.9.51-2.69.9v-3.65c.7-.34,1.67-.63,2.91-.86,1.24-.23,2.48-.35,3.74-.35,1.43,0,2.76.21,4,.64l1.25-1.44h5.28l-3.17,3.68c.92,1.05,1.38,2.42,1.38,4.13v10.59h-4.83v-6.37c-1.24-.64-2.69-.96-4.35-.96-1.09,0-1.88.18-2.38.54-.5.36-.75.93-.75,1.7,0,.7.23,1.23.69,1.58.46.35,1.19.53,2.19.53.7,0,1.3-.11,1.79-.32v3.36c-.83.28-1.9.42-3.2.42-1.96,0-3.53-.49-4.69-1.47Z"/>
      <path class="cls-23" d="M255.89,121.78c-1-.41-1.88-1-2.62-1.79v1.92h-4.64v-17.12h4.86v11.52c.47.79,1.03,1.37,1.7,1.74.66.37,1.44.56,2.34.56,2.2,0,3.3-1.03,3.3-3.1v-10.72h4.83v11.01c0,1.24-.26,2.36-.77,3.36-.51,1-1.27,1.79-2.27,2.37-1,.58-2.21.86-3.62.86-1.07,0-2.1-.2-3.1-.61Z"/>
      <path class="cls-23" d="M273.2,121.44c-1.32-.63-2.35-1.5-3.07-2.61-.73-1.11-1.09-2.37-1.09-3.78v-10.27h4.86v9.95c0,1.24.32,2.19.98,2.86.65.67,1.64,1.01,2.96,1.01s2.3-.34,2.94-1.01c.64-.67.96-1.63.96-2.86v-9.95h4.86v10.27c0,1.41-.36,2.67-1.09,3.78s-1.75,1.98-3.07,2.61c-1.32.63-2.86.94-4.61.94s-3.32-.31-4.64-.94Z"/>
      <path class="cls-23" d="M278.24,129.94c-.86-.62-1.3-1.44-1.3-2.46v-.58c0-.28-.05-.47-.14-.58-.1-.11-.27-.16-.53-.16h-1.06v-2.75h3.62c.64,0,1.08.14,1.33.43.25.29.37.74.37,1.36v1.76c0,.77.41,1.15,1.22,1.15s1.18-.38,1.18-1.15v-3.55h3.58v3.94c0,1.02-.4,1.87-1.2,2.53-.8.66-1.94.99-3.41.99-1.58,0-2.8-.31-3.66-.93Z"/>
      <path class="cls-23" d="M292.48,122.01c-1.29-.24-2.31-.61-3.06-1.1v-3.71c.94.56,1.99.98,3.15,1.28,1.16.3,2.21.45,3.15.45,1.13,0,1.96-.11,2.48-.34s.78-.62.78-1.2c0-.51-.25-.91-.75-1.18-.5-.28-1.44-.63-2.8-1.06l-.8-.26c-1.83-.58-3.19-1.27-4.06-2.08-.88-.81-1.31-1.92-1.31-3.33,0-1.64.66-2.92,1.98-3.82,1.32-.91,3.1-1.36,5.34-1.36,1.22,0,2.39.13,3.52.38,1.13.26,2.04.59,2.72.99v3.81c-.68-.47-1.53-.85-2.54-1.14-1.01-.29-2.01-.43-2.99-.43-2.07,0-3.1.52-3.1,1.57,0,.51.24.91.74,1.18.49.28,1.37.61,2.62.99l1.15.35c1.34.43,2.39.9,3.15,1.41.76.51,1.28,1.09,1.58,1.73.3.64.45,1.42.45,2.34,0,1.47-.63,2.66-1.9,3.55-1.27.9-3.16,1.34-5.68,1.34-1.26,0-2.53-.12-3.82-.37Z"/>
      <path class="cls-23" d="M320.24,120.53c-1.11-1.24-1.66-2.82-1.66-4.74v-4.19c0-1.19-.28-2.08-.83-2.66-.56-.58-1.41-.86-2.56-.86-.85,0-1.61.13-2.26.38-.65.26-1.27.67-1.87,1.25l1.25,2.05v5.02c0,.51.12.88.35,1.09.23.21.62.32,1.15.32h1.63v3.71h-4.29c-1.17,0-2.08-.34-2.72-1.01-.64-.67-.96-1.6-.96-2.8v-6.4l-1.6-2.72c1.22-1.51,2.58-2.67,4.1-3.47,1.51-.8,3.25-1.2,5.22-1.2,2.65,0,4.67.61,6.08,1.84,1.41,1.23,2.11,2.92,2.11,5.07v4.29c0,2.07,1.02,3.1,3.07,3.1.81,0,1.54-.2,2.18-.59.64-.39,1.16-.96,1.57-1.71v-11.52h4.83v17.12h-4.58v-1.89c-.7.79-1.53,1.38-2.46,1.78s-1.95.59-3.04.59c-2.03,0-3.6-.62-4.7-1.86Z"/>
      <path class="cls-23" d="M326.38,100.24c0-.94.25-1.64.75-2.11.5-.47,1.3-.7,2.38-.7h7.2v3.04h-5.12c-.32,0-.55.07-.69.21-.14.14-.21.37-.21.69v1.31h-4.32v-2.43Z"/>
      <path class="cls-23" d="M339.33,120.9c-.63-.67-.94-1.6-.94-2.8v-13.31h4.86v12c0,.51.11.88.32,1.09.21.21.56.32,1.06.32h1.12v3.71h-3.71c-1.17,0-2.08-.34-2.7-1.01ZM348.32,120.9c-.63-.67-.94-1.6-.94-2.8v-13.31h4.83v12c0,.51.11.88.32,1.09.21.21.58.32,1.09.32h1.12v3.71h-3.71c-1.17,0-2.08-.34-2.7-1.01Z"/>
      <path class="cls-23" d="M361.55,121.44c-1.32-.63-2.35-1.5-3.07-2.61-.73-1.11-1.09-2.37-1.09-3.78v-10.27h4.86v9.95c0,1.24.32,2.19.98,2.86.65.67,1.64,1.01,2.96,1.01s2.3-.34,2.94-1.01c.64-.67.96-1.63.96-2.86v-9.95h4.86v10.27c0,1.41-.36,2.67-1.09,3.78s-1.75,1.98-3.07,2.61c-1.32.63-2.86.94-4.61.94s-3.32-.31-4.64-.94Z"/>
      <path class="cls-23" d="M382.45,121.44c-1.32-.63-2.35-1.5-3.07-2.61-.73-1.11-1.09-2.37-1.09-3.78v-10.27h4.86v9.95c0,1.24.32,2.19.98,2.86.65.67,1.64,1.01,2.96,1.01s2.3-.34,2.94-1.01c.64-.67.96-1.63.96-2.86v-9.95h4.86v10.27c0,1.41-.36,2.67-1.09,3.78s-1.75,1.98-3.07,2.61c-1.32.63-2.86.94-4.61.94s-3.32-.31-4.64-.94Z"/>
      <path class="cls-23" d="M400.09,120.9c-.63-.67-.94-1.6-.94-2.8v-13.31h4.86v12c0,.51.11.88.32,1.09.21.21.56.32,1.06.32h1.12v3.71h-3.71c-1.17,0-2.08-.34-2.7-1.01Z"/>
      <path class="cls-23" d="M409.14,104.78h4.86v6.18l6.5-6.18h5.54l-4.61,4.38c1.66.47,2.83,1.19,3.5,2.18.67.98,1.01,2.28,1.01,3.9v6.66h-4.86v-6.24c0-1.09-.19-1.9-.56-2.43-.37-.53-1.05-.92-2.03-1.15l-4.48,4.19v5.63h-4.86v-17.12Z"/>
      <path class="cls-23" d="M436.56,121.78c-1-.41-1.88-1-2.62-1.79v1.92h-4.64v-17.12h4.86v11.52c.47.79,1.03,1.37,1.7,1.74.66.37,1.44.56,2.34.56,2.2,0,3.3-1.03,3.3-3.1v-10.72h4.83v11.01c0,1.24-.26,2.36-.77,3.36-.51,1-1.27,1.79-2.27,2.37-1,.58-2.21.86-3.62.86-1.07,0-2.1-.2-3.1-.61Z"/>
      <path class="cls-23" d="M431.57,99.6h5.95v-3.39h3.36v3.39h2.14v-3.39h3.33v6.46h-14.78v-3.07Z"/>
      <path class="cls-23" d="M452.5,121.95c-1.39-.29-2.54-.69-3.46-1.2v-8.99h8.1v3.55h-3.33v2.75c.66.36,1.63.54,2.91.54,3.39,0,5.09-1.77,5.09-5.31,0-1.81-.49-3.14-1.47-3.97-.98-.83-2.63-1.25-4.96-1.25-1.07,0-2.16.11-3.28.34-1.12.22-2.06.54-2.83.94v-3.78c.87-.41,1.93-.72,3.17-.94,1.24-.22,2.53-.34,3.87-.34,3.43,0,6.04.78,7.82,2.35s2.67,3.78,2.67,6.64-.88,5.03-2.62,6.66c-1.75,1.62-4.24,2.43-7.46,2.43-1.43,0-2.84-.14-4.22-.43Z"/>
      <path class="cls-23" d="M472.56,121.52c-1-.58-1.77-1.37-2.29-2.37-.52-1-.78-2.12-.78-3.36v-11.01h4.86v10.72c0,2.07,1.1,3.1,3.3,3.1.9,0,1.67-.19,2.32-.56.65-.37,1.22-.95,1.71-1.74v-11.52h4.83v17.12h-4.61v-1.92c-.75.79-1.63,1.39-2.64,1.79-1.01.4-2.05.61-3.12.61-1.39,0-2.58-.29-3.58-.86Z"/>
      <path class="cls-23" d="M491.54,120.18c-1.54-1.47-2.3-3.63-2.3-6.46s.89-5.27,2.66-6.93c1.77-1.65,4.21-2.48,7.33-2.48s5.59.75,7.12,2.24c1.52,1.49,2.29,3.46,2.29,5.89v9.47h-4.83v-9.5c0-1.41-.36-2.48-1.07-3.22-.72-.74-1.88-1.1-3.5-1.1-1.54,0-2.75.48-3.65,1.44-.9.96-1.34,2.36-1.34,4.19,0,1.69.37,2.92,1.1,3.71.74.79,1.86,1.18,3.38,1.18.81,0,1.54-.12,2.18-.35v3.71c-.83.28-1.86.42-3.07.42-2.65,0-4.74-.74-6.27-2.21Z"/>
      <path class="cls-23" d="M517.14,111.25c0-1.11-.23-1.91-.7-2.42s-1.29-.75-2.46-.75-2.27.29-3.42.86v-3.68c.51-.26,1.2-.48,2.06-.67.86-.19,1.7-.29,2.51-.29,2.24,0,3.95.6,5.12,1.79,1.17,1.2,1.76,2.92,1.76,5.18v10.62h-4.86v-10.66Z"/>
      <path class="cls-23" d="M527.9,122.01c-1.29-.24-2.31-.61-3.06-1.1v-3.71c.94.56,1.99.98,3.15,1.28,1.16.3,2.21.45,3.15.45,1.13,0,1.96-.11,2.48-.34s.78-.62.78-1.2c0-.51-.25-.91-.75-1.18-.5-.28-1.44-.63-2.8-1.06l-.8-.26c-1.83-.58-3.19-1.27-4.06-2.08-.88-.81-1.31-1.92-1.31-3.33,0-1.64.66-2.92,1.98-3.82,1.32-.91,3.1-1.36,5.34-1.36,1.22,0,2.39.13,3.52.38,1.13.26,2.04.59,2.72.99v3.81c-.68-.47-1.53-.85-2.54-1.14-1.01-.29-2.01-.43-2.99-.43-2.07,0-3.1.52-3.1,1.57,0,.51.24.91.74,1.18.49.28,1.37.61,2.62.99l1.15.35c1.34.43,2.39.9,3.15,1.41.76.51,1.28,1.09,1.58,1.73.3.64.45,1.42.45,2.34,0,1.47-.63,2.66-1.9,3.55-1.27.9-3.16,1.34-5.68,1.34-1.26,0-2.53-.12-3.82-.37Z"/>
      <path class="cls-23" d="M547.15,111.25c0-1.11-.23-1.91-.7-2.42s-1.29-.75-2.46-.75-2.27.29-3.42.86v-3.68c.51-.26,1.2-.48,2.06-.67.86-.19,1.7-.29,2.51-.29,2.24,0,3.95.6,5.12,1.79,1.17,1.2,1.76,2.92,1.76,5.18v10.62h-4.86v-10.66Z"/>
    </g>
    <path class="cls-23" d="M212.41,48.95l-16.11-6.71c-.13-1.07-1.03-1.91-2.14-1.91-1.19,0-2.16.97-2.16,2.16v26.25h-.64c-1.09,0-1.98.89-1.98,1.98s.89,1.98,1.98,1.98h5.9c1.09,0,1.98-.89,1.98-1.98s-.89-1.98-1.98-1.98h-.93v-6.68l16.24-7.95c1.01-.49,1.62-1.5,1.59-2.63-.03-1.13-.7-2.1-1.75-2.54ZM207.79,51.54l-11.46,5.61v-10.38l11.46,4.77Z"/>
    <path class="cls-31" d="M569.31,24.13c3.62,0,6.56,2.94,6.56,6.56v109.72c0,3.62-2.94,6.56-6.56,6.56H222.64c-.89,0-1.73.39-2.3,1.08l-8.56,10.24-8.56-10.24c-.57-.68-1.41-1.08-2.3-1.08h-27.39c-3.62,0-6.56-2.94-6.56-6.56V30.69c0-3.62,2.94-6.56,6.56-6.56h395.8M569.31,21.13H173.51c-5.28,0-9.56,4.28-9.56,9.56v109.72c0,5.28,4.28,9.56,9.56,9.56h27.39l9.25,11.06c.42.5,1.02.76,1.62.76s1.19-.25,1.62-.76l9.25-11.06h346.68c5.28,0,9.56-4.28,9.56-9.56V30.69c0-5.28-4.28-9.56-9.56-9.56h0Z"/>
  </g>
  <g>
    <rect class="cls-13" x="247.76" y="295.15" width="322.38" height="176.81" rx="9.56" ry="9.56"/>
    <path class="cls-13" d="M250.07,454.98v-27.14s-14.3,11.95-14.3,11.95c-1.01.84-1.01,2.39,0,3.23l14.3,11.95Z"/>
    <path class="cls-31" d="M560.58,298.15c3.62,0,6.56,2.94,6.56,6.56v157.69c0,3.62-2.94,6.56-6.56,6.56h-303.26c-3.62,0-6.56-2.94-6.56-6.56v-9.35c0-.89-.39-1.73-1.08-2.3l-11.17-9.34,11.17-9.34c.68-.57,1.08-1.41,1.08-2.3v-125.05c0-3.62,2.94-6.56,6.56-6.56h303.26M560.58,295.15h-303.26c-5.28,0-9.56,4.28-9.56,9.56v125.05l-11.99,10.03c-1.01.84-1.01,2.39,0,3.23l11.99,10.03v9.35c0,5.28,4.28,9.56,9.56,9.56h303.26c5.28,0,9.56-4.28,9.56-9.56v-157.69c0-5.28-4.28-9.56-9.56-9.56h0Z"/>
    <g>
      <path class="cls-23" d="M314.4,349.92c-.63-.67-.94-1.6-.94-2.8v-11.49c0-1.45-.28-2.59-.83-3.41-.56-.82-1.45-1.47-2.69-1.94v-3.42h11.42v3.74h-5.15c1.41,1.09,2.11,2.79,2.11,5.12v10.08c0,.51.11.88.32,1.09.21.21.56.32,1.06.32h1.12v3.71h-3.71c-1.17,0-2.08-.34-2.7-1.01Z"/>
      <path class="cls-23" d="M327.24,350.47c-1.32-.63-2.35-1.5-3.07-2.61-.73-1.11-1.09-2.37-1.09-3.78v-10.27h4.86v9.95c0,1.24.33,2.19.98,2.86.65.67,1.64,1.01,2.96,1.01s2.3-.34,2.94-1.01c.64-.67.96-1.63.96-2.86v-15.68h4.86v16c0,1.41-.36,2.67-1.09,3.78-.73,1.11-1.75,1.98-3.07,2.61s-2.86.94-4.61.94-3.32-.32-4.64-.94Z"/>
      <path class="cls-23" d="M346.56,351.04c-1.29-.25-2.31-.61-3.06-1.1v-3.71c.94.56,1.99.98,3.15,1.28,1.16.3,2.21.45,3.15.45,1.13,0,1.96-.11,2.48-.34.52-.22.78-.62.78-1.2,0-.51-.25-.91-.75-1.18-.5-.28-1.44-.63-2.8-1.06l-.8-.26c-1.83-.58-3.19-1.27-4.06-2.08-.88-.81-1.31-1.92-1.31-3.33,0-1.64.66-2.92,1.98-3.82,1.32-.91,3.1-1.36,5.34-1.36,1.22,0,2.39.13,3.52.38,1.13.26,2.04.59,2.72.99v3.81c-.68-.47-1.53-.85-2.54-1.14s-2.01-.43-2.99-.43c-2.07,0-3.1.52-3.1,1.57,0,.51.24.91.74,1.18.49.28,1.37.61,2.62.99l1.15.35c1.34.43,2.39.9,3.15,1.41.76.51,1.28,1.09,1.58,1.73.3.64.45,1.42.45,2.34,0,1.47-.63,2.66-1.9,3.55-1.27.9-3.16,1.34-5.68,1.34-1.26,0-2.53-.12-3.82-.37Z"/>
      <path class="cls-23" d="M362.59,349.92c-.63-.67-.94-1.6-.94-2.8v-11.04c0-2.52.74-4.34,2.21-5.47h-5.28v-3.74h11.42v3.42c-1.24.49-2.13,1.18-2.69,2.08-.55.9-.83,2.1-.83,3.62v9.82c0,.51.11.88.32,1.09.21.21.58.32,1.09.32h1.12v3.71h-3.71c-1.17,0-2.08-.34-2.7-1.01Z"/>
      <path class="cls-23" d="M370.76,333.81h4.86l2.4,10.46,2.94-10.46h3.52l2.94,10.46,3.36-16.19h4.7l-5.57,22.85h-4.13l-3.07-10.66-3.07,10.66h-4.13l-4.77-17.12Z"/>
      <path class="cls-23" d="M397.37,349.94c-1.16-.98-1.74-2.37-1.74-4.16s.63-3.2,1.9-4.22c1.27-1.02,3.01-1.54,5.23-1.54,2.07,0,3.84.34,5.31,1.02v-.67c0-1.15-.38-2-1.14-2.56-.76-.55-1.98-.83-3.66-.83-1.05,0-2.07.11-3.07.32-1,.21-1.9.51-2.69.9v-3.65c.7-.34,1.67-.63,2.91-.86,1.24-.23,2.48-.35,3.74-.35,2.86,0,5.03.63,6.51,1.9,1.48,1.27,2.22,2.97,2.22,5.1v10.59h-4.83v-6.37c-1.24-.64-2.69-.96-4.35-.96-1.09,0-1.88.18-2.38.54-.5.36-.75.93-.75,1.7,0,.7.23,1.23.69,1.58.46.35,1.19.53,2.19.53.7,0,1.3-.11,1.79-.32v3.36c-.83.28-1.9.42-3.2.42-1.96,0-3.53-.49-4.69-1.47Z"/>
      <path class="cls-23" d="M404.24,329.27c0-.94.25-1.64.75-2.11.5-.47,1.3-.7,2.38-.7h7.2v3.04h-5.12c-.32,0-.55.07-.69.21-.14.14-.21.37-.21.69v1.31h-4.32v-2.43Z"/>
      <path class="cls-23" d="M417.18,349.92c-.63-.67-.94-1.6-.94-2.8v-13.31h4.86v12c0,.51.11.88.32,1.09.21.21.56.32,1.06.32h1.12v3.71h-3.71c-1.17,0-2.08-.34-2.7-1.01Z"/>
      <path class="cls-23" d="M425.26,333.81h4.86l2.4,10.46,2.94-10.46h3.52l2.94,10.46,2.4-10.46h4.86l-4.77,17.12h-4.13l-3.07-10.66-3.07,10.66h-4.13l-4.77-17.12Z"/>
      <path class="cls-23" d="M429.68,328.63h14.82v3.07h-14.82v-3.07Z"/>
      <path class="cls-23" d="M440.14,321.07h4.35v4.51h-4.35v-4.51Z"/>
      <path class="cls-23" d="M450.92,335.95h4.83l3.65,11.36c1.58,0,2.79-.47,3.65-1.42.85-.95,1.28-2.3,1.28-4.05,0-1.58-.3-2.76-.9-3.55-.6-.79-1.52-1.18-2.75-1.18-.68,0-1.37.11-2.05.32v-3.65c.9-.3,1.91-.45,3.04-.45,2.54,0,4.44.74,5.71,2.22,1.27,1.48,1.9,3.58,1.9,6.29,0,1.9-.42,3.53-1.25,4.9s-1.96,2.41-3.38,3.12c-1.42.71-2.97,1.07-4.66,1.07h-4.29l-4.8-14.98Z"/>
      <path class="cls-23" d="M473.12,349.94c-1.16-.98-1.74-2.37-1.74-4.16s.63-3.2,1.9-4.22c1.27-1.02,3.01-1.54,5.23-1.54,2.07,0,3.84.34,5.31,1.02v-.67c0-1.15-.38-2-1.14-2.56-.76-.55-1.98-.83-3.66-.83-1.05,0-2.07.11-3.07.32-1,.21-1.9.51-2.69.9v-3.65c.7-.34,1.67-.63,2.91-.86,1.24-.23,2.48-.35,3.74-.35,1.43,0,2.76.21,4,.64l1.25-1.44h5.28l-3.17,3.68c.92,1.05,1.38,2.42,1.38,4.13v10.59h-4.83v-6.37c-1.24-.64-2.69-.96-4.35-.96-1.09,0-1.88.18-2.38.54-.5.36-.75.93-.75,1.7,0,.7.23,1.23.69,1.58.46.35,1.19.53,2.19.53.7,0,1.3-.11,1.79-.32v3.36c-.83.28-1.9.42-3.2.42-1.96,0-3.53-.49-4.69-1.47Z"/>
      <path class="cls-23" d="M495,351.04c-1.29-.25-2.31-.61-3.06-1.1v-3.71c.94.56,1.99.98,3.15,1.28,1.16.3,2.21.45,3.15.45,1.13,0,1.96-.11,2.48-.34.52-.22.78-.62.78-1.2,0-.51-.25-.91-.75-1.18-.5-.28-1.44-.63-2.8-1.06l-.8-.26c-1.83-.58-3.19-1.27-4.06-2.08-.88-.81-1.31-1.92-1.31-3.33,0-1.64.66-2.92,1.98-3.82,1.32-.91,3.1-1.36,5.34-1.36,1.22,0,2.39.13,3.52.38,1.13.26,2.04.59,2.72.99v3.81c-.68-.47-1.53-.85-2.54-1.14s-2.01-.43-2.99-.43c-2.07,0-3.1.52-3.1,1.57,0,.51.24.91.74,1.18.49.28,1.37.61,2.62.99l1.15.35c1.34.43,2.39.9,3.15,1.41.76.51,1.28,1.09,1.58,1.73.3.64.45,1.42.45,2.34,0,1.47-.63,2.66-1.9,3.55-1.27.9-3.16,1.34-5.68,1.34-1.26,0-2.53-.12-3.82-.37Z"/>
      <path class="cls-23" d="M497.93,329.65c0-.24-.05-.4-.14-.5-.1-.1-.26-.14-.5-.14h-1.5v-3.3h3.01c.79,0,1.36.18,1.71.54.35.36.53.82.53,1.38v.96h6.43v3.1h-9.54v-2.05Z"/>
      <path class="cls-23" d="M514.25,340.27c0-1.11-.23-1.92-.7-2.42-.47-.5-1.29-.75-2.46-.75s-2.27.29-3.42.86v-3.68c.51-.26,1.2-.48,2.06-.67.86-.19,1.7-.29,2.51-.29,2.24,0,3.95.6,5.12,1.79,1.17,1.2,1.76,2.92,1.76,5.18v10.62h-4.86v-10.66Z"/>
      <path class="cls-23" d="M521.8,335.95h4.83l3.65,11.36c1.58,0,2.79-.47,3.65-1.42.85-.95,1.28-2.3,1.28-4.05,0-1.58-.3-2.76-.9-3.55-.6-.79-1.52-1.18-2.75-1.18-.68,0-1.37.11-2.05.32v-3.65c.9-.3,1.91-.45,3.04-.45,2.54,0,4.44.74,5.71,2.22,1.27,1.48,1.9,3.58,1.9,6.29,0,1.9-.42,3.53-1.25,4.9s-1.96,2.41-3.38,3.12c-1.42.71-2.97,1.07-4.66,1.07h-4.29l-4.8-14.98Z"/>
      <path class="cls-23" d="M319.28,395.8c-1-.41-1.88-1-2.62-1.79v1.92h-4.64v-17.12h4.86v11.52c.47.79,1.03,1.37,1.7,1.74.66.37,1.44.56,2.34.56,2.2,0,3.3-1.03,3.3-3.1v-10.72h4.83v11.01c0,1.24-.26,2.36-.77,3.36-.51,1-1.27,1.79-2.27,2.37-1,.58-2.21.86-3.62.86-1.07,0-2.1-.2-3.1-.61Z"/>
      <path class="cls-23" d="M314.25,373.63h10.43v-3.39h4.38v6.46h-14.82v-3.07Z"/>
      <path class="cls-23" d="M332.27,386.52h4.8l1.44,5.79c1.47,0,2.69-.45,3.66-1.36.97-.91,1.46-2.15,1.46-3.73,0-1.71-.45-2.99-1.36-3.84-.91-.85-2.46-1.28-4.66-1.28-1.02,0-2.08.11-3.17.32-1.09.21-1.98.49-2.69.83v-3.74c.85-.36,1.87-.65,3.06-.86,1.18-.21,2.38-.32,3.6-.32,3.31,0,5.83.75,7.57,2.26,1.74,1.5,2.61,3.7,2.61,6.58,0,1.75-.43,3.29-1.3,4.61-.86,1.32-2.03,2.35-3.49,3.07-1.46.73-3.07,1.09-4.82,1.09h-4.38l-2.34-9.41Z"/>
      <path class="cls-23" d="M342.54,376.04c-.75-.74-1.12-1.65-1.12-2.74s.38-1.98,1.14-2.74c.76-.76,1.67-1.14,2.74-1.14s1.97.38,2.72,1.14c.75.76,1.12,1.67,1.12,2.74s-.37,2-1.12,2.74c-.75.74-1.65,1.1-2.72,1.1s-2-.37-2.75-1.1ZM346.17,374.25c.25-.27.37-.57.37-.91,0-.36-.12-.67-.37-.93-.24-.26-.54-.38-.88-.38-.36,0-.67.13-.91.38-.24.26-.37.57-.37.93,0,.34.12.65.37.91.25.27.55.4.91.4.34,0,.64-.13.88-.4Z"/>
      <path class="cls-23" d="M356.46,385.27c0-1.11-.23-1.92-.7-2.42-.47-.5-1.29-.75-2.46-.75s-2.27.29-3.42.86v-3.68c.51-.26,1.2-.48,2.06-.67.86-.19,1.7-.29,2.51-.29,2.24,0,3.95.6,5.12,1.79,1.17,1.2,1.76,2.92,1.76,5.18v10.62h-4.86v-10.66Z"/>
      <path class="cls-23" d="M367.72,395.55c-1-.58-1.77-1.37-2.29-2.37-.52-1-.78-2.12-.78-3.36v-11.01h4.86v10.72c0,2.07,1.1,3.1,3.3,3.1.9,0,1.67-.19,2.32-.56.65-.37,1.22-.96,1.71-1.74v-11.52h4.83v17.12h-4.61v-1.92c-.75.79-1.63,1.39-2.64,1.79-1.01.41-2.05.61-3.12.61-1.39,0-2.58-.29-3.58-.86Z"/>
      <path class="cls-23" d="M384.4,395.03v-3.78c1.32.92,3.14,1.38,5.44,1.38,1.79,0,3.18-.43,4.16-1.3.98-.86,1.47-2.18,1.47-3.95s-.49-3.09-1.47-3.97c-.98-.88-2.37-1.31-4.16-1.31-2.22,0-3.99.47-5.31,1.41v-3.78c.75-.47,1.67-.82,2.78-1.06,1.11-.23,2.3-.35,3.58-.35,2.99,0,5.33.79,7.02,2.38,1.7,1.59,2.54,3.81,2.54,6.67s-.85,5.08-2.54,6.66c-1.7,1.58-4.04,2.37-7.02,2.37s-5-.46-6.5-1.38Z"/>
      <path class="cls-23" d="M406.22,395.55c-1-.58-1.77-1.37-2.29-2.37-.52-1-.78-2.12-.78-3.36v-11.01h4.86v10.72c0,2.07,1.1,3.1,3.3,3.1.9,0,1.67-.19,2.32-.56.65-.37,1.22-.96,1.71-1.74v-11.52h4.83v17.12h-4.61v-1.92c-.75.79-1.63,1.39-2.64,1.79-1.01.41-2.05.61-3.12.61-1.39,0-2.58-.29-3.58-.86Z"/>
      <path class="cls-23" d="M435.68,394.92c-.63-.67-.94-1.6-.94-2.8v-13.31h4.86v12c0,.51.11.88.32,1.09.21.21.56.32,1.06.32h1.12v3.71h-3.71c-1.17,0-2.08-.34-2.7-1.01Z"/>
      <path class="cls-23" d="M443.76,378.81h4.86l2.4,10.46,2.94-10.46h3.52l2.94,10.46,2.4-10.46h4.86l-4.77,17.12h-4.13l-3.07-10.66-3.07,10.66h-4.13l-4.77-17.12Z"/>
      <path class="cls-23" d="M448.24,373.63h5.95v-3.39h3.36v3.39h2.14v-3.39h3.33v6.46h-14.78v-3.07Z"/>
      <path class="cls-23" d="M458.64,363.83h4.35v4.51h-4.35v-4.51Z"/>
      <path class="cls-23" d="M472.88,395.98c-1.39-.29-2.54-.69-3.46-1.2v-8.99h8.1v3.55h-3.33v2.75c.66.36,1.63.54,2.91.54,3.39,0,5.09-1.77,5.09-5.31,0-1.81-.49-3.14-1.47-3.97-.98-.83-2.63-1.25-4.96-1.25-1.07,0-2.16.11-3.28.34-1.12.22-2.06.54-2.83.94v-3.78c.87-.41,1.93-.72,3.17-.94,1.24-.22,2.53-.34,3.87-.34,3.43,0,6.04.78,7.82,2.35,1.78,1.57,2.67,3.78,2.67,6.64s-.88,5.03-2.62,6.66c-1.75,1.62-4.24,2.43-7.46,2.43-1.43,0-2.84-.14-4.22-.43Z"/>
      <path class="cls-23" d="M492.94,395.55c-1-.58-1.77-1.37-2.29-2.37-.52-1-.78-2.12-.78-3.36v-11.01h4.86v10.72c0,2.07,1.1,3.1,3.3,3.1.9,0,1.67-.19,2.32-.56.65-.37,1.22-.96,1.71-1.74v-11.52h4.83v17.12h-4.61v-1.92c-.75.79-1.63,1.39-2.64,1.79-1.01.41-2.05.61-3.12.61-1.39,0-2.58-.29-3.58-.86Z"/>
      <path class="cls-23" d="M312.96,439.92c-.63-.67-.94-1.6-.94-2.8v-13.31h4.86v12c0,.51.11.88.32,1.09.21.21.56.32,1.06.32h1.12v3.71h-3.71c-1.17,0-2.08-.34-2.7-1.01ZM321.95,439.92c-.63-.67-.94-1.6-.94-2.8v-13.31h4.83v12c0,.51.11.88.32,1.09.21.21.58.32,1.09.32h1.12v3.71h-3.71c-1.17,0-2.08-.34-2.7-1.01Z"/>
      <path class="cls-23" d="M332.09,439.94c-1.16-.98-1.74-2.37-1.74-4.16s.63-3.2,1.9-4.22c1.27-1.02,3.01-1.54,5.23-1.54,2.07,0,3.84.34,5.31,1.02v-.67c0-1.15-.38-2-1.14-2.56-.76-.55-1.98-.83-3.66-.83-1.05,0-2.07.11-3.07.32-1,.21-1.9.51-2.69.9v-3.65c.7-.34,1.67-.63,2.91-.86,1.24-.23,2.48-.35,3.74-.35,2.86,0,5.03.63,6.51,1.9,1.48,1.27,2.22,2.97,2.22,5.1v10.59h-4.83v-6.37c-1.24-.64-2.69-.96-4.35-.96-1.09,0-1.88.18-2.38.54-.5.36-.75.93-.75,1.7,0,.7.23,1.23.69,1.58.46.35,1.19.53,2.19.53.7,0,1.3-.11,1.79-.32v3.36c-.83.28-1.9.42-3.2.42-1.96,0-3.53-.49-4.69-1.47Z"/>
      <path class="cls-23" d="M351.02,430.19c-.47-.48-.7-1.21-.7-2.19v-2.5h4.35v1.38c0,.28.06.48.19.61s.35.19.67.19h3.78v3.23h-5.98c-1.07,0-1.84-.24-2.3-.72ZM351.02,438.82c-.47-.49-.7-1.23-.7-2.21v-2.5h4.35v1.38c0,.28.06.48.19.61s.35.19.67.19h3.78v3.26h-5.98c-1.07,0-1.84-.25-2.3-.74Z"/>
      <path class="cls-23" d="M364.38,439.92c-.63-.67-.94-1.6-.94-2.8v-11.49c0-1.45-.28-2.59-.83-3.41-.56-.82-1.45-1.47-2.69-1.94v-3.42h11.42v3.74h-5.15c1.41,1.09,2.11,2.79,2.11,5.12v10.08c0,.51.11.88.32,1.09.21.21.56.32,1.06.32h1.12v3.71h-3.71c-1.17,0-2.08-.34-2.7-1.01Z"/>
      <path class="cls-23" d="M372.11,423.81h4.86l2.4,10.46,2.94-10.46h3.52l2.94,10.46,2.4-10.46h4.86l-4.77,17.12h-4.13l-3.07-10.66-3.07,10.66h-4.13l-4.77-17.12Z"/>
      <path class="cls-23" d="M399.52,439.94c-1.16-.98-1.74-2.37-1.74-4.16s.63-3.2,1.9-4.22c1.27-1.02,3.01-1.54,5.23-1.54,2.07,0,3.84.34,5.31,1.02v-.67c0-1.15-.38-2-1.14-2.56-.76-.55-1.98-.83-3.66-.83-1.05,0-2.07.11-3.07.32-1,.21-1.9.51-2.69.9v-3.65c.7-.34,1.67-.63,2.91-.86,1.24-.23,2.48-.35,3.74-.35,1.43,0,2.76.21,4,.64l1.25-1.44h5.28l-3.17,3.68c.92,1.05,1.38,2.42,1.38,4.13v10.59h-4.83v-6.37c-1.24-.64-2.69-.96-4.35-.96-1.09,0-1.88.18-2.38.54-.5.36-.75.93-.75,1.7,0,.7.23,1.23.69,1.58.46.35,1.19.53,2.19.53.7,0,1.3-.11,1.79-.32v3.36c-.83.28-1.9.42-3.2.42-1.96,0-3.53-.49-4.69-1.47Z"/>
      <path class="cls-23" d="M420.49,439.22c-1.54-1.46-2.3-3.61-2.3-6.45,0-1.94.28-3.62.83-5.04.55-1.42,1.34-2.51,2.35-3.26,1.01-.76,2.18-1.14,3.5-1.14.79,0,1.48.15,2.06.45.59.3,1.06.71,1.42,1.25.4-.58.96-1,1.68-1.28s1.52-.42,2.42-.42c1.62,0,2.88.5,3.78,1.49.9.99,1.34,2.3,1.34,3.92v12.19h-4.83v-11.71c0-.72-.11-1.26-.34-1.6s-.6-.51-1.14-.51c-.94,0-1.53.58-1.76,1.73h-2.27c-.15-1.15-.65-1.73-1.5-1.73-.77,0-1.39.48-1.86,1.44-.47.96-.7,2.37-.7,4.22,0,1.66.36,2.89,1.07,3.68s1.85,1.18,3.41,1.18c.81,0,1.54-.12,2.18-.35v3.71c-.83.28-1.86.42-3.07.42-2.65,0-4.74-.73-6.27-2.19Z"/>
      <path class="cls-23" d="M428.94,419.27c0-.94.25-1.64.75-2.11.5-.47,1.3-.7,2.38-.7h7.2v3.04h-5.12c-.32,0-.55.07-.69.21-.14.14-.21.37-.21.69v1.31h-4.32v-2.43Z"/>
      <path class="cls-23" d="M444.01,440.55c-1-.58-1.77-1.37-2.29-2.37-.52-1-.78-2.12-.78-3.36v-11.01h4.86v10.72c0,2.07,1.1,3.1,3.3,3.1.9,0,1.67-.19,2.32-.56.65-.37,1.22-.96,1.71-1.74v-11.52h4.83v17.12h-4.61v-1.92c-.75.79-1.63,1.39-2.64,1.79-1.01.41-2.05.61-3.12.61-1.39,0-2.58-.29-3.58-.86Z"/>
      <path class="cls-23" d="M450.16,419.65c0-.24-.05-.4-.14-.5-.1-.1-.26-.14-.5-.14h-1.5v-3.3h3.01c.79,0,1.36.18,1.71.54.35.36.53.82.53,1.38v.96h6.43v3.1h-9.54v-2.05Z"/>
      <path class="cls-23" d="M464.14,440.98c-1.39-.29-2.54-.69-3.46-1.2v-8.99h8.1v3.55h-3.33v2.75c.66.36,1.63.54,2.91.54,3.39,0,5.09-1.77,5.09-5.31,0-1.81-.49-3.14-1.47-3.97-.98-.83-2.63-1.25-4.96-1.25-1.07,0-2.16.11-3.28.34-1.12.22-2.06.54-2.83.94v-3.78c.87-.41,1.93-.72,3.17-.94,1.24-.22,2.53-.34,3.87-.34,3.43,0,6.04.78,7.82,2.35,1.78,1.57,2.67,3.78,2.67,6.64s-.88,5.03-2.62,6.66c-1.75,1.62-4.24,2.43-7.46,2.43-1.43,0-2.84-.14-4.22-.43Z"/>
      <path class="cls-23" d="M482.89,439.95c-1.6-.97-2.4-2.36-2.4-4.18,0-.83.23-1.58.69-2.26.46-.67,1.07-1.16,1.84-1.46-.7-.36-1.27-.89-1.71-1.57-.44-.68-.66-1.43-.66-2.24,0-1.49.53-2.69,1.58-3.58,1.06-.9,2.59-1.34,4.59-1.34.62,0,1.23.04,1.84.13.61.08,1.07.18,1.39.29v3.65c-.3-.13-.66-.23-1.07-.32s-.79-.13-1.14-.13c-1.49,0-2.24.55-2.24,1.66,0,.58.19,1.01.56,1.3.37.29.95.43,1.74.43h2.14v3.42h-2.14c-1.62,0-2.43.64-2.43,1.92,0,.68.32,1.21.98,1.58.65.37,1.59.56,2.83.56,1.49,0,2.59-.3,3.28-.91.69-.61,1.04-1.52,1.04-2.74v-10.4h4.86v10.37c0,1.22-.31,2.37-.93,3.47-.62,1.1-1.61,2-2.98,2.72-1.37.71-3.13,1.07-5.28,1.07-2.67,0-4.8-.49-6.4-1.46Z"/>
    </g>
    <path class="cls-23" d="M296.22,322.98l-16.11-6.71c-.13-1.07-1.03-1.91-2.14-1.91-1.19,0-2.16.97-2.16,2.16v26.25h-.64c-1.09,0-1.98.89-1.98,1.98s.89,1.98,1.98,1.98h5.9c1.09,0,1.98-.89,1.98-1.98s-.89-1.98-1.98-1.98h-.93v-6.68l16.24-7.95c1.01-.49,1.62-1.5,1.59-2.63-.03-1.13-.7-2.1-1.75-2.54ZM291.59,325.57l-11.46,5.61v-10.38l11.46,4.77Z"/>
  </g>
</svg>