<?xml version="1.0" encoding="UTF-8"?>
<svg id="Layer_1" data-name="Layer 1" xmlns="http://www.w3.org/2000/svg" viewBox="0 0 800 600">
  <defs>
    <style>
      .cls-1 {
        fill: #5889ef;
      }

      .cls-2 {
        fill: #accdf8;
      }

      .cls-3 {
        fill: none;
        stroke: #5889ef;
        stroke-linecap: round;
        stroke-linejoin: round;
        stroke-width: 6.45px;
      }

      .cls-4 {
        fill: #7db0f2;
      }

      .cls-5 {
        fill: #f39b47;
      }

      .cls-6 {
        stroke: #fff;
        stroke-miterlimit: 10;
        stroke-width: 3.1px;
      }

      .cls-6, .cls-7 {
        fill: #024f85;
      }

      .cls-8 {
        fill: #0d2243;
      }

      .cls-9 {
        fill: #fff;
      }

      .cls-10 {
        fill: #1651b2;
      }

      .cls-11 {
        fill: #f7f8fd;
      }

      .cls-12 {
        fill: #8fe597;
      }
    </style>
  </defs>
  <rect class="cls-9" y="0" width="800" height="600" rx="30" ry="30"/>
  <path class="cls-4" d="M770,0H30C13.43,0,0,13.43,0,30v112.93h800V30c0-16.57-13.43-30-30-30Z"/>
  <g>
    <rect class="cls-2" x="344.38" y="106.67" width="111.24" height="17.21" rx="8.61" ry="8.61"/>
    <circle class="cls-9" cx="400" cy="57.05" r="38"/>
    <g>
      <path class="cls-7" d="M400,93.79c-10.8,0-20.94-4.69-27.94-12.89,3.82-8.87,12.2-12.26,13.51-12.74h28.86c1.31.48,9.69,3.87,13.51,12.75-7,8.2-17.14,12.89-27.94,12.89h0Z"/>
      <path class="cls-9" d="M414.2,69.42c1.62.63,8.68,3.75,12.26,11.27-6.74,7.55-16.3,11.84-26.46,11.84s-19.72-4.3-26.46-11.85c3.59-7.52,10.65-10.64,12.26-11.26h28.4M414.64,66.9h-29.29s-10.5,3.39-14.75,14.23c6.96,8.5,17.55,13.93,29.4,13.93s22.43-5.42,29.4-13.92c-4.24-10.84-14.75-14.23-14.75-14.23h0Z"/>
    </g>
    <circle class="cls-6" cx="400" cy="54.9" r="17.52"/>
    <circle class="cls-5" cx="430.63" cy="74.21" r="20.85"/>
    <path class="cls-11" d="M427.74,80.18c0-.65.01-1.21.04-1.68.03-.47.07-.88.15-1.23.07-.36.17-.67.3-.95.13-.28.29-.55.49-.83.2-.28.45-.57.74-.88.29-.31.64-.67,1.03-1.08.34-.31.67-.65.99-1,.32-.36.61-.73.87-1.12.26-.39.47-.8.62-1.22.16-.42.24-.87.24-1.33,0-.34-.04-.68-.12-.99-.08-.32-.22-.6-.41-.84-.19-.24-.46-.43-.79-.57-.33-.14-.75-.21-1.25-.21-.58,0-1.05.11-1.41.33-.37.22-.65.51-.86.88-.21.37-.35.8-.43,1.3-.08.5-.11,1.03-.1,1.59h-4.69c-.06-1.03.07-2.02.38-2.95.31-.93.8-1.75,1.45-2.45.65-.7,1.48-1.26,2.46-1.67.99-.41,2.13-.62,3.44-.62,1.09,0,2.08.14,2.98.43.89.29,1.65.7,2.29,1.23.64.53,1.13,1.18,1.47,1.93.34.76.52,1.6.52,2.53,0,.76-.09,1.44-.28,2.02-.18.58-.43,1.12-.74,1.62-.31.49-.67.97-1.08,1.42-.42.45-.85.93-1.31,1.42-.28.3-.54.56-.76.79-.22.22-.42.44-.58.64-.17.2-.31.41-.43.62-.12.21-.21.45-.28.71-.07.27-.11.57-.13.93-.02.35-.03.77-.01,1.26h-4.78ZM427.74,85.76v-4.01s4.83,0,4.83,0v4.01s-4.83,0-4.83,0Z"/>
  </g>
  <g>
    <g>
      <rect class="cls-12" x="58.53" y="201.46" width="559.85" height="230.31" rx="42.94" ry="42.94"/>
      <polygon class="cls-12" points="43.74 442.64 116.07 418.68 70.81 388.68 43.74 442.64"/>
    </g>
    <g>
      <path class="cls-8" d="M109.47,250.73h4.75l3.22,13.44,3.89-13.44h3.52l3.89,13.44,3.22-13.44h4.75l-5.58,20.02h-4.01l-4.04-13.77-4.04,13.77h-4.01l-5.58-20.02Z"/>
      <path class="cls-8" d="M122.11,247.1c-.54-.6-.8-1.5-.8-2.7v-2.17h4.27v1.72c0,.4.07.67.22.8.15.14.42.21.82.21h8.91v3.03h-10.85c-1.17,0-2.03-.3-2.56-.9Z"/>
      <path class="cls-8" d="M141.38,269.63c-1.36-1.12-2.04-2.71-2.04-4.75,0-1.35.34-2.53,1.03-3.56.69-1.02,1.66-1.82,2.92-2.4,1.26-.57,2.74-.86,4.44-.86,2.42,0,4.52.41,6.29,1.24v-.9c0-1.55-.46-2.69-1.37-3.42-.91-.74-2.38-1.1-4.4-1.1-1.22,0-2.43.13-3.61.37-1.19.25-2.21.59-3.09,1.01v-3.71c.8-.37,1.9-.7,3.31-.97,1.41-.27,2.79-.41,4.14-.41,2.02,0,3.77.31,5.24.94l1.65-1.87h5.24l-3.85,4.42c.97,1.1,1.46,2.65,1.46,4.64v12.46h-4.72v-7.71c-1.67-.85-3.58-1.27-5.73-1.27-1.4,0-2.44.27-3.13.8-.69.54-1.03,1.32-1.03,2.34,0,.92.31,1.6.94,2.04.62.44,1.61.66,2.96.66.85,0,1.58-.12,2.21-.37v3.63c-.92.3-2.08.45-3.48.45-2.22,0-4.01-.56-5.37-1.68Z"/>
      <path class="cls-8" d="M166.01,268.75c-1.76-1.71-2.64-4.21-2.64-7.5,0-2.3.46-4.27,1.37-5.93.91-1.66,2.22-2.93,3.93-3.82,1.71-.89,3.72-1.33,6.04-1.33,3.67,0,6.35.85,8.05,2.55,1.7,1.7,2.55,3.91,2.55,6.63v11.42h-4.75v-11.45c0-1.75-.46-3.09-1.37-4.02-.91-.94-2.4-1.4-4.47-1.4s-3.57.64-4.73,1.93c-1.16,1.29-1.74,3.1-1.74,5.45,0,2.15.5,3.74,1.5,4.79,1,1.05,2.43,1.57,4.3,1.57.92,0,1.78-.12,2.58-.37v3.63c-.97.3-2.11.45-3.41.45-3.04,0-5.45-.85-7.21-2.56Z"/>
      <path class="cls-8" d="M181.15,276.93c0-.45-.08-.76-.22-.94-.15-.18-.45-.26-.9-.26h-1.31v-3.03h3.48c1.25,0,2.1.23,2.55.69.45.46.67,1.3.67,2.53v4.87h-4.27v-3.86Z"/>
      <path class="cls-8" d="M193.62,270.36c-1.4-.64-2.47-1.52-3.22-2.66-.75-1.14-1.12-2.43-1.12-3.87v-.94c0-.87.18-1.67.54-2.4.36-.72.87-1.55,1.52-2.47.42-.6.74-1.07.94-1.42.2-.35.3-.69.3-1.01,0-.75-.46-1.12-1.38-1.12h-2.13v-3.74h4.64c1.12,0,2.01.32,2.68.95.66.64.99,1.49.99,2.56,0,.75-.14,1.44-.43,2.06-.29.62-.71,1.39-1.25,2.28-.55.9-.96,1.64-1.23,2.23-.27.59-.41,1.22-.41,1.89v.94c0,1.27.37,2.25,1.12,2.94.75.69,1.87,1.03,3.37,1.03,2.92,0,4.38-1.39,4.38-4.15v-12.73h4.75v11.94c0,2.65-.79,4.75-2.38,6.31-1.58,1.56-3.84,2.34-6.76,2.34-1.87,0-3.51-.32-4.9-.95Z"/>
      <path class="cls-8" d="M215.25,270.79c-1.55-.35-2.83-.84-3.86-1.46v-10.48h8.98v3.86h-4.23v4.15c.92.5,2.2.75,3.82.75,2.2,0,3.85-.6,4.98-1.8,1.12-1.2,1.68-2.94,1.68-5.24,0-1.57-.25-2.84-.75-3.82-.5-.97-1.32-1.7-2.47-2.17-1.15-.47-2.69-.71-4.64-.71-1.27,0-2.56.13-3.87.39s-2.4.64-3.28,1.14v-3.71c1-.5,2.19-.88,3.57-1.14s2.85-.39,4.4-.39c3.79,0,6.72.9,8.8,2.71,2.07,1.81,3.11,4.37,3.11,7.69s-.99,5.94-2.98,7.86c-1.98,1.92-4.83,2.88-8.55,2.88-1.6,0-3.17-.18-4.72-.52Z"/>
      <path class="cls-8" d="M234.49,253.24h4.75l4.38,13.81c2.1,0,3.71-.59,4.85-1.78,1.14-1.19,1.7-2.88,1.7-5.07s-.39-3.71-1.16-4.75c-.77-1.05-2.01-1.57-3.71-1.57-.92,0-1.78.13-2.58.37v-3.63c.97-.3,2.11-.45,3.41-.45,2.92,0,5.13.89,6.64,2.66,1.51,1.77,2.26,4.23,2.26,7.37,0,2.2-.48,4.09-1.44,5.69-.96,1.6-2.25,2.81-3.87,3.63s-3.42,1.24-5.39,1.24h-4.3l-5.54-17.52Z"/>
      <path class="cls-8" d="M258.78,250.73h4.57v2.47c.95-1,2.05-1.75,3.31-2.26,1.26-.51,2.53-.77,3.8-.77,2.47,0,4.35.69,5.65,2.08,1.3,1.39,1.95,3.16,1.95,5.33v13.18h-4.75v-12.95c0-2.62-1.4-3.93-4.19-3.93-2.42,0-4.28,1.02-5.58,3.07v13.81h-4.75v-20.02Z"/>
      <path class="cls-8" d="M273.34,241.56h4.75v6.44h-4.75v-6.44Z"/>
      <path class="cls-8" d="M288.99,257.95c0-1.47-.29-2.52-.88-3.14-.59-.62-1.64-.94-3.16-.94-1.4,0-2.82.36-4.27,1.09v-3.71c.6-.3,1.39-.55,2.38-.77.99-.21,1.95-.32,2.9-.32,2.57,0,4.51.7,5.82,2.1,1.31,1.4,1.97,3.39,1.97,5.99v12.5h-4.75v-12.8Z"/>
      <path class="cls-8" d="M301.82,270.32c-1.17-.66-2.06-1.57-2.68-2.73s-.92-2.45-.92-3.87v-12.99h4.75v12.76c0,2.75,1.46,4.12,4.38,4.12,2.3,0,4.09-1.02,5.39-3.07v-13.81h4.75v20.02h-4.57v-2.47c-.95,1-2.03,1.75-3.24,2.26-1.21.51-2.44.77-3.69.77-1.62,0-3.02-.33-4.19-.99Z"/>
      <path class="cls-8" d="M336.5,269.65c-.69-.74-1.03-1.76-1.03-3.09v-15.83h4.75v14.34c0,.65.14,1.1.41,1.35.27.25.72.37,1.35.37h1.31v3.97h-3.82c-1.3,0-2.29-.37-2.98-1.1Z"/>
      <path class="cls-8" d="M348.16,258.55l-1.87-3.11c1.37-1.72,2.95-3.03,4.73-3.93,1.78-.9,3.85-1.35,6.19-1.35,3.12,0,5.51.7,7.17,2.1,1.66,1.4,2.49,3.33,2.49,5.8v12.69h-4.75v-12.31c0-1.55-.41-2.69-1.24-3.44-.82-.75-2.05-1.12-3.67-1.12-1.22,0-2.3.17-3.24.52-.94.35-1.8.92-2.6,1.72l1.53,2.47v12.16h-4.75v-12.2Z"/>
      <path class="cls-8" d="M350.15,244.97h16.73v3.03h-16.73v-3.03Z"/>
      <path class="cls-8" d="M373.26,268.75c-1.76-1.71-2.64-4.21-2.64-7.5,0-2.3.46-4.27,1.37-5.93.91-1.66,2.22-2.93,3.93-3.82,1.71-.89,3.72-1.33,6.04-1.33,3.67,0,6.35.85,8.05,2.55,1.7,1.7,2.55,3.91,2.55,6.63v11.42h-4.75v-11.45c0-1.75-.46-3.09-1.37-4.02-.91-.94-2.4-1.4-4.47-1.4s-3.57.64-4.73,1.93c-1.16,1.29-1.74,3.1-1.74,5.45,0,2.15.5,3.74,1.5,4.79,1,1.05,2.43,1.57,4.3,1.57.92,0,1.78-.12,2.58-.37v3.63c-.97.3-2.11.45-3.41.45-3.04,0-5.45-.85-7.21-2.56Z"/>
      <path class="cls-8" d="M398.17,258.55l-1.87-3.11c1.37-1.72,2.95-3.03,4.73-3.93,1.78-.9,3.85-1.35,6.19-1.35,3.12,0,5.51.7,7.17,2.1,1.66,1.4,2.49,3.33,2.49,5.8v12.69h-4.75v-12.31c0-1.55-.41-2.69-1.24-3.44-.82-.75-2.05-1.12-3.67-1.12-1.22,0-2.3.17-3.24.52-.94.35-1.8.92-2.6,1.72l1.53,2.47v12.16h-4.75v-12.2Z"/>
      <path class="cls-8" d="M427.81,257.95c0-1.47-.29-2.52-.88-3.14-.59-.62-1.64-.94-3.16-.94-1.4,0-2.82.36-4.27,1.09v-3.71c.6-.3,1.39-.55,2.38-.77.99-.21,1.95-.32,2.9-.32,2.57,0,4.51.7,5.82,2.1,1.31,1.4,1.97,3.39,1.97,5.99v12.5h-4.75v-12.8Z"/>
      <path class="cls-8" d="M439.89,270.87c-1.46-.3-2.6-.75-3.42-1.35v-3.71c1.1.65,2.31,1.14,3.65,1.46,1.33.32,2.56.49,3.69.49,1.5,0,2.58-.15,3.24-.45.66-.3.99-.86.99-1.68,0-.57-.17-1.03-.52-1.37s-.82-.62-1.42-.84c-.6-.22-1.72-.59-3.37-1.09-2.15-.67-3.75-1.48-4.81-2.43-1.06-.95-1.59-2.23-1.59-3.86,0-1.87.75-3.32,2.25-4.34,1.5-1.02,3.52-1.53,6.06-1.53,1.35,0,2.64.14,3.87.43,1.24.29,2.25.67,3.05,1.14v3.89c-.82-.52-1.81-.95-2.98-1.27-1.16-.32-2.33-.49-3.5-.49-2.67,0-4,.72-4,2.17,0,.52.16.95.49,1.27.32.32.76.59,1.31.8.55.21,1.38.49,2.51.84l1.24.37c1.6.5,2.84,1.04,3.72,1.61.89.57,1.51,1.24,1.87,1.98.36.75.54,1.67.54,2.77,0,1.67-.71,3.03-2.13,4.06s-3.56,1.55-6.4,1.55c-1.42,0-2.86-.15-4.32-.45Z"/>
      <path class="cls-8" d="M457.51,269.65c-.69-.74-1.03-1.76-1.03-3.09v-15.83h4.75v14.34c0,.65.14,1.1.41,1.35.27.25.72.37,1.35.37h1.31v3.97h-3.82c-1.3,0-2.29-.37-2.98-1.1Z"/>
      <path class="cls-8" d="M469.34,269.63c-1.36-1.12-2.04-2.71-2.04-4.75,0-1.35.34-2.53,1.03-3.56.69-1.02,1.66-1.82,2.92-2.4,1.26-.57,2.74-.86,4.44-.86,2.42,0,4.52.41,6.29,1.24v-.9c0-1.55-.46-2.69-1.37-3.42-.91-.74-2.38-1.1-4.4-1.1-1.22,0-2.43.13-3.61.37-1.19.25-2.21.59-3.09,1.01v-3.71c.8-.37,1.9-.7,3.31-.97,1.41-.27,2.79-.41,4.14-.41,2.02,0,3.77.31,5.24.94l1.65-1.87h5.24l-3.85,4.42c.97,1.1,1.46,2.65,1.46,4.64v12.46h-4.72v-7.71c-1.67-.85-3.58-1.27-5.73-1.27-1.4,0-2.44.27-3.13.8-.69.54-1.03,1.32-1.03,2.34,0,.92.31,1.6.94,2.04.62.44,1.61.66,2.96.66.85,0,1.58-.12,2.21-.37v3.63c-.92.3-2.08.45-3.48.45-2.22,0-4.01-.56-5.37-1.68Z"/>
      <path class="cls-8" d="M470.03,244.97h12.46v-4.04h4.27v7.07h-16.73v-3.03Z"/>
      <path class="cls-8" d="M494.03,269.59c-1.8-1.15-2.69-2.77-2.69-4.87,0-1.02.3-1.95.9-2.77.6-.82,1.37-1.4,2.32-1.72-.9-.42-1.63-1.04-2.19-1.83-.56-.8-.84-1.7-.84-2.7,0-1.67.57-3.01,1.72-4.02,1.15-1.01,2.84-1.52,5.09-1.52.7,0,1.37.04,2.02.13.65.09,1.16.19,1.53.32v3.71c-.32-.15-.74-.26-1.25-.34-.51-.07-.97-.11-1.37-.11-1.92,0-2.88.71-2.88,2.13,0,.77.24,1.35.71,1.72.47.37,1.24.56,2.28.56h2.51v3.86h-2.51c-2.12,0-3.18.86-3.18,2.58,0,.9.44,1.6,1.33,2.11.89.51,2.1.77,3.65.77,1.95,0,3.37-.4,4.29-1.2.91-.8,1.37-1.97,1.37-3.52v-12.2h4.75v12.13c0,1.42-.34,2.78-1.03,4.06-.69,1.29-1.81,2.35-3.37,3.18-1.56.84-3.56,1.25-6.01,1.25-2.97,0-5.35-.57-7.15-1.72Z"/>
      <path class="cls-8" d="M516.07,250.73h4.75v8.01l8.65-8.01h5.46l-5.46,5.05c2.02.52,3.43,1.37,4.23,2.55.8,1.17,1.2,2.73,1.2,4.68v7.75h-4.75v-7.41c0-1.42-.26-2.49-.77-3.22-.51-.72-1.44-1.24-2.79-1.53l-5.76,5.35v6.81h-4.75v-20.02Z"/>
      <path class="cls-8" d="M545.87,257.95c0-1.47-.29-2.52-.88-3.14-.59-.62-1.64-.94-3.16-.94-1.4,0-2.82.36-4.27,1.09v-3.71c.6-.3,1.39-.55,2.38-.77.99-.21,1.95-.32,2.9-.32,2.57,0,4.51.7,5.82,2.1,1.31,1.4,1.97,3.39,1.97,5.99v12.5h-4.75v-12.8Z"/>
      <path class="cls-8" d="M557.06,269.59c-1.8-1.15-2.69-2.77-2.69-4.87,0-1.02.3-1.95.9-2.77.6-.82,1.37-1.4,2.32-1.72-.9-.42-1.63-1.04-2.19-1.83-.56-.8-.84-1.7-.84-2.7,0-1.67.57-3.01,1.72-4.02,1.15-1.01,2.84-1.52,5.09-1.52.7,0,1.37.04,2.02.13.65.09,1.16.19,1.53.32v3.71c-.32-.15-.74-.26-1.25-.34-.51-.07-.97-.11-1.37-.11-1.92,0-2.88.71-2.88,2.13,0,.77.24,1.35.71,1.72.47.37,1.24.56,2.28.56h2.51v3.86h-2.51c-2.12,0-3.18.86-3.18,2.58,0,.9.44,1.6,1.33,2.11.89.51,2.1.77,3.65.77,1.95,0,3.37-.4,4.29-1.2.91-.8,1.37-1.97,1.37-3.52v-12.2h4.75v12.13c0,1.42-.34,2.78-1.03,4.06-.69,1.29-1.81,2.35-3.37,3.18-1.56.84-3.56,1.25-6.01,1.25-2.97,0-5.35-.57-7.15-1.72Z"/>
      <path class="cls-8" d="M111.72,315.78l-1.87-3.11c1.37-1.72,2.95-3.03,4.73-3.93,1.78-.9,3.85-1.35,6.19-1.35,3.12,0,5.51.7,7.17,2.1,1.66,1.4,2.49,3.33,2.49,5.8v12.69h-4.75v-12.31c0-1.55-.41-2.69-1.24-3.44-.82-.75-2.05-1.12-3.67-1.12-1.22,0-2.3.17-3.24.52-.94.35-1.8.92-2.6,1.72l1.53,2.47v12.16h-4.75v-12.2Z"/>
      <path class="cls-8" d="M137.75,328.09c-1.46-.3-2.6-.75-3.42-1.35v-3.71c1.1.65,2.31,1.14,3.65,1.46,1.33.32,2.56.49,3.69.49,1.5,0,2.58-.15,3.24-.45.66-.3.99-.86.99-1.68,0-.57-.17-1.03-.52-1.37s-.82-.62-1.42-.84c-.6-.22-1.72-.59-3.37-1.09-2.15-.67-3.75-1.48-4.81-2.43-1.06-.95-1.59-2.23-1.59-3.86,0-1.87.75-3.32,2.25-4.34,1.5-1.02,3.52-1.53,6.06-1.53,1.35,0,2.64.14,3.87.43,1.24.29,2.25.67,3.05,1.14v3.89c-.82-.52-1.81-.95-2.98-1.27-1.16-.32-2.33-.49-3.5-.49-2.67,0-4,.72-4,2.17,0,.52.16.95.49,1.27.32.32.76.59,1.31.8.55.21,1.38.49,2.51.84l1.24.37c1.6.5,2.84,1.04,3.72,1.61.89.57,1.51,1.24,1.87,1.98.36.75.54,1.67.54,2.77,0,1.67-.71,3.03-2.13,4.06s-3.56,1.55-6.4,1.55c-1.42,0-2.86-.15-4.32-.45Z"/>
      <path class="cls-8" d="M145.71,334.15c0-.45-.08-.76-.22-.94-.15-.18-.45-.26-.9-.26h-1.31v-3.03h3.48c1.25,0,2.1.23,2.55.69.45.46.67,1.3.67,2.53v4.87h-4.27v-3.86Z"/>
      <path class="cls-8" d="M172.07,327.55c-1.11-.66-1.95-1.57-2.53-2.73-.57-1.16-.86-2.45-.86-3.87v-5.28c0-1.57-.37-2.73-1.12-3.46-.75-.74-1.88-1.1-3.41-1.1-1.15,0-2.16.17-3.03.52-.87.35-1.68.92-2.43,1.72l1.53,2.47v6.44c0,.65.14,1.1.43,1.37.29.26.77.39,1.44.39h2.02v3.97h-4.57c-1.32,0-2.33-.37-3.03-1.12-.7-.75-1.05-1.77-1.05-3.07v-8.01l-1.87-3.11c1.37-1.72,2.91-3.03,4.62-3.93,1.71-.9,3.69-1.35,5.93-1.35,3.02,0,5.31.69,6.89,2.08s2.36,3.33,2.36,5.82v5.43c0,1.4.32,2.43.97,3.11.65.67,1.67,1.01,3.07,1.01,1.1,0,2.1-.27,3.01-.8.91-.54,1.59-1.29,2.04-2.26v-13.81h4.72v20.02h-4.57v-2.36c-1.57,1.95-3.76,2.92-6.55,2.92-1.57,0-2.91-.33-4.02-.99Z"/>
      <path class="cls-8" d="M198.14,315.18c0-1.47-.29-2.52-.88-3.14-.59-.62-1.64-.94-3.16-.94-1.4,0-2.82.36-4.27,1.09v-3.71c.6-.3,1.39-.55,2.38-.77.99-.21,1.95-.32,2.9-.32,2.57,0,4.51.7,5.82,2.1,1.31,1.4,1.97,3.39,1.97,5.99v12.5h-4.75v-12.8Z"/>
      <path class="cls-8" d="M209.34,326.82c-1.8-1.15-2.69-2.77-2.69-4.87,0-1.02.3-1.95.9-2.77.6-.82,1.37-1.4,2.32-1.72-.9-.42-1.63-1.04-2.19-1.83-.56-.8-.84-1.7-.84-2.7,0-1.67.57-3.01,1.72-4.02,1.15-1.01,2.84-1.52,5.09-1.52.7,0,1.37.04,2.02.13.65.09,1.16.19,1.53.32v3.71c-.32-.15-.74-.26-1.25-.34-.51-.07-.97-.11-1.37-.11-1.92,0-2.88.71-2.88,2.13,0,.77.24,1.35.71,1.72.47.37,1.24.56,2.28.56h2.51v3.86h-2.51c-2.12,0-3.18.86-3.18,2.58,0,.9.44,1.6,1.33,2.11.89.51,2.1.77,3.65.77,1.95,0,3.37-.4,4.29-1.2.91-.8,1.37-1.97,1.37-3.52v-12.2h4.75v12.13c0,1.42-.34,2.78-1.03,4.06-.69,1.29-1.81,2.35-3.37,3.18-1.56.84-3.56,1.25-6.01,1.25-2.97,0-5.35-.57-7.15-1.72Z"/>
      <path class="cls-8" d="M210.27,302.19h7.26v-4.04h3.33v4.04h2.84v-4.04h3.29v7.07h-16.73v-3.03Z"/>
      <path class="cls-8" d="M222.7,291h4.27v5.13h-4.27v-5.13Z"/>
      <path class="cls-8" d="M234.98,327.55c-1.17-.66-2.06-1.57-2.68-2.73s-.92-2.45-.92-3.87v-12.99h4.75v12.76c0,2.75,1.46,4.12,4.38,4.12,2.3,0,4.09-1.02,5.39-3.07v-13.81h4.75v20.02h-4.57v-2.47c-.95,1-2.03,1.75-3.24,2.26-1.21.51-2.44.77-3.69.77-1.62,0-3.02-.33-4.19-.99Z"/>
      <path class="cls-8" d="M256.18,326.87c-.69-.74-1.03-1.76-1.03-3.09v-15.83h4.75v14.34c0,.65.14,1.1.41,1.35.27.25.72.37,1.35.37h1.31v3.97h-3.82c-1.3,0-2.29-.37-2.98-1.1Z"/>
      <path class="cls-8" d="M266.72,315.85c0-2.7.89-4.78,2.68-6.25,1.78-1.47,4.2-2.21,7.24-2.21s5.45.74,7.22,2.21c1.77,1.47,2.66,3.56,2.66,6.25v12.13h-4.75v-12.31c0-1.52-.44-2.66-1.33-3.42-.89-.76-2.15-1.14-3.8-1.14s-2.92.37-3.82,1.12c-.9.75-1.35,1.9-1.35,3.44v3.29c.32-.52.8-.95,1.44-1.27.64-.32,1.38-.49,2.23-.49h3.03v3.97h-3.37c-.97,0-1.77.32-2.4.95-.62.64-.94,1.4-.94,2.3v3.56h-4.75v-12.13Z"/>
      <path class="cls-8" d="M292.3,326.86c-1.36-1.12-2.04-2.71-2.04-4.75,0-1.35.34-2.53,1.03-3.56.69-1.02,1.66-1.82,2.92-2.4,1.26-.57,2.74-.86,4.44-.86,2.42,0,4.52.41,6.29,1.24v-.9c0-1.55-.46-2.69-1.37-3.42-.91-.74-2.38-1.1-4.4-1.1-1.22,0-2.43.13-3.61.37-1.19.25-2.21.59-3.09,1.01v-3.71c.8-.37,1.9-.7,3.31-.97,1.41-.27,2.79-.41,4.14-.41,2.02,0,3.77.31,5.24.94l1.65-1.87h5.24l-3.85,4.42c.97,1.1,1.46,2.65,1.46,4.64v12.46h-4.72v-7.71c-1.67-.85-3.58-1.27-5.73-1.27-1.4,0-2.44.27-3.13.8-.69.54-1.03,1.32-1.03,2.34,0,.92.31,1.6.94,2.04.62.44,1.61.66,2.96.66.85,0,1.58-.12,2.21-.37v3.63c-.92.3-2.08.45-3.48.45-2.22,0-4.01-.56-5.37-1.68Z"/>
      <path class="cls-8" d="M316.07,326.87c-.69-.74-1.03-1.76-1.03-3.09v-15.83h4.75v14.34c0,.65.14,1.1.41,1.35.27.25.72.37,1.35.37h1.31v3.97h-3.82c-1.3,0-2.29-.37-2.98-1.1Z"/>
      <path class="cls-8" d="M326.6,315.85c0-2.7.89-4.78,2.68-6.25,1.78-1.47,4.2-2.21,7.24-2.21s5.45.74,7.22,2.21c1.77,1.47,2.66,3.56,2.66,6.25v12.13h-4.75v-12.31c0-1.52-.44-2.66-1.33-3.42-.89-.76-2.15-1.14-3.8-1.14s-2.92.37-3.82,1.12c-.9.75-1.35,1.9-1.35,3.44v3.29c.32-.52.8-.95,1.44-1.27.64-.32,1.38-.49,2.23-.49h3.03v3.97h-3.37c-.97,0-1.77.32-2.4.95-.62.64-.94,1.4-.94,2.3v3.56h-4.75v-12.13Z"/>
      <path class="cls-8" d="M352.19,326.86c-1.36-1.12-2.04-2.71-2.04-4.75,0-1.35.34-2.53,1.03-3.56.69-1.02,1.66-1.82,2.92-2.4,1.26-.57,2.74-.86,4.44-.86,2.42,0,4.52.41,6.29,1.24v-.9c0-1.55-.46-2.69-1.37-3.42-.91-.74-2.38-1.1-4.4-1.1-1.22,0-2.43.13-3.61.37-1.19.25-2.21.59-3.09,1.01v-3.71c.8-.37,1.9-.7,3.31-.97,1.41-.27,2.79-.41,4.14-.41,3.24,0,5.68.74,7.3,2.21,1.62,1.47,2.43,3.44,2.43,5.91v12.46h-4.72v-7.71c-1.67-.85-3.58-1.27-5.73-1.27-1.4,0-2.44.27-3.13.8-.69.54-1.03,1.32-1.03,2.34,0,.92.31,1.6.94,2.04.62.44,1.61.66,2.96.66.85,0,1.58-.12,2.21-.37v3.63c-.92.3-2.08.45-3.48.45-2.22,0-4.01-.56-5.37-1.68Z"/>
      <path class="cls-8" d="M381.83,327.77c-1.21-.51-2.29-1.27-3.24-2.26v2.47h-4.57v-20.02h4.75v13.81c1.3,2.05,3.09,3.07,5.39,3.07,2.94,0,4.42-1.37,4.42-4.12v-12.76h4.72v12.99c0,1.42-.31,2.71-.92,3.87-.61,1.16-1.5,2.07-2.68,2.73s-2.57.99-4.19.99c-1.25,0-2.48-.26-3.69-.77Z"/>
      <path class="cls-8" d="M397.79,315.85c0-2.7.89-4.78,2.68-6.25,1.78-1.47,4.2-2.21,7.24-2.21s5.45.74,7.22,2.21c1.77,1.47,2.66,3.56,2.66,6.25v12.13h-4.75v-12.31c0-1.52-.44-2.66-1.33-3.42-.89-.76-2.15-1.14-3.8-1.14s-2.92.37-3.82,1.12c-.9.75-1.35,1.9-1.35,3.44v3.29c.32-.52.8-.95,1.44-1.27.64-.32,1.38-.49,2.23-.49h3.03v3.97h-3.37c-.97,0-1.77.32-2.4.95-.62.64-.94,1.4-.94,2.3v3.56h-4.75v-12.13Z"/>
      <path class="cls-8" d="M412.88,298.78h4.75v6.44h-4.75v-6.44Z"/>
      <path class="cls-8" d="M428.52,315.18c0-1.47-.29-2.52-.88-3.14-.59-.62-1.64-.94-3.16-.94-1.4,0-2.82.36-4.27,1.09v-3.71c.6-.3,1.39-.55,2.38-.77.99-.21,1.95-.32,2.9-.32,2.57,0,4.51.7,5.82,2.1,1.31,1.4,1.97,3.39,1.97,5.99v12.5h-4.75v-12.8Z"/>
      <path class="cls-8" d="M438.8,326.87c-.69-.74-1.03-1.76-1.03-3.09v-15.83h4.75v14.34c0,.65.14,1.1.41,1.35.27.25.72.37,1.35.37h1.31v3.97h-3.82c-1.3,0-2.29-.37-2.98-1.1Z"/>
      <path class="cls-8" d="M450.63,326.86c-1.36-1.12-2.04-2.71-2.04-4.75,0-1.35.34-2.53,1.03-3.56.69-1.02,1.66-1.82,2.92-2.4,1.26-.57,2.74-.86,4.44-.86,2.42,0,4.52.41,6.29,1.24v-.9c0-1.55-.46-2.69-1.37-3.42-.91-.74-2.38-1.1-4.4-1.1-1.22,0-2.43.13-3.61.37-1.19.25-2.21.59-3.09,1.01v-3.71c.8-.37,1.9-.7,3.31-.97,1.41-.27,2.79-.41,4.14-.41,2.02,0,3.77.31,5.24.94l1.65-1.87h5.24l-3.85,4.42c.97,1.1,1.46,2.65,1.46,4.64v12.46h-4.72v-7.71c-1.67-.85-3.58-1.27-5.73-1.27-1.4,0-2.44.27-3.13.8-.69.54-1.03,1.32-1.03,2.34,0,.92.31,1.6.94,2.04.62.44,1.61.66,2.96.66.85,0,1.58-.12,2.21-.37v3.63c-.92.3-2.08.45-3.48.45-2.22,0-4.01-.56-5.37-1.68Z"/>
      <path class="cls-8" d="M451.32,302.19h12.46v-4.04h4.27v7.07h-16.73v-3.03Z"/>
      <path class="cls-8" d="M475.31,326.82c-1.8-1.15-2.69-2.77-2.69-4.87,0-1.02.3-1.95.9-2.77.6-.82,1.37-1.4,2.32-1.72-.9-.42-1.63-1.04-2.19-1.83-.56-.8-.84-1.7-.84-2.7,0-1.67.57-3.01,1.72-4.02,1.15-1.01,2.84-1.52,5.09-1.52.7,0,1.37.04,2.02.13.65.09,1.16.19,1.53.32v3.71c-.32-.15-.74-.26-1.25-.34-.51-.07-.97-.11-1.37-.11-1.92,0-2.88.71-2.88,2.13,0,.77.24,1.35.71,1.72.47.37,1.24.56,2.28.56h2.51v3.86h-2.51c-2.12,0-3.18.86-3.18,2.58,0,.9.44,1.6,1.33,2.11.89.51,2.1.77,3.65.77,1.95,0,3.37-.4,4.29-1.2.91-.8,1.37-1.97,1.37-3.52v-12.2h4.75v12.13c0,1.42-.34,2.78-1.03,4.06-.69,1.29-1.81,2.35-3.37,3.18-1.56.84-3.56,1.25-6.01,1.25-2.97,0-5.35-.57-7.15-1.72Z"/>
      <path class="cls-8" d="M497.36,307.95h4.75v8.01l8.65-8.01h5.46l-5.46,5.05c2.02.52,3.43,1.37,4.23,2.55.8,1.17,1.2,2.73,1.2,4.68v7.75h-4.75v-7.41c0-1.42-.26-2.49-.77-3.22-.51-.72-1.44-1.24-2.79-1.53l-5.76,5.35v6.81h-4.75v-20.02Z"/>
      <path class="cls-8" d="M527.15,315.18c0-1.47-.29-2.52-.88-3.14-.59-.62-1.64-.94-3.16-.94-1.4,0-2.82.36-4.27,1.09v-3.71c.6-.3,1.39-.55,2.38-.77.99-.21,1.95-.32,2.9-.32,2.57,0,4.51.7,5.82,2.1,1.31,1.4,1.97,3.39,1.97,5.99v12.5h-4.75v-12.8Z"/>
      <path class="cls-8" d="M538.34,326.82c-1.8-1.15-2.69-2.77-2.69-4.87,0-1.02.3-1.95.9-2.77.6-.82,1.37-1.4,2.32-1.72-.9-.42-1.63-1.04-2.19-1.83-.56-.8-.84-1.7-.84-2.7,0-1.67.57-3.01,1.72-4.02,1.15-1.01,2.84-1.52,5.09-1.52.7,0,1.37.04,2.02.13.65.09,1.16.19,1.53.32v3.71c-.32-.15-.74-.26-1.25-.34-.51-.07-.97-.11-1.37-.11-1.92,0-2.88.71-2.88,2.13,0,.77.24,1.35.71,1.72.47.37,1.24.56,2.28.56h2.51v3.86h-2.51c-2.12,0-3.18.86-3.18,2.58,0,.9.44,1.6,1.33,2.11.89.51,2.1.77,3.65.77,1.95,0,3.37-.4,4.29-1.2.91-.8,1.37-1.97,1.37-3.52v-12.2h4.75v12.13c0,1.42-.34,2.78-1.03,4.06-.69,1.29-1.81,2.35-3.37,3.18-1.56.84-3.56,1.25-6.01,1.25-2.97,0-5.35-.57-7.15-1.72Z"/>
      <path class="cls-10" d="M118.34,385.15c-1.1-.41-2.16-1.09-3.18-2.04v2.1h-4.57v-27.66h4.72v11.45c.85-.77,1.88-1.35,3.09-1.74,1.21-.39,2.5-.58,3.87-.58,1.82,0,3.45.41,4.88,1.22,1.43.81,2.56,1.94,3.37,3.39.81,1.45,1.22,3.11,1.22,4.98s-.41,3.56-1.22,5c-.81,1.44-1.93,2.55-3.37,3.33-1.44.79-3.06,1.18-4.88,1.18-1.52,0-2.83-.21-3.93-.62ZM125.31,380.45c1.1-1.07,1.65-2.47,1.65-4.19s-.55-3.13-1.65-4.23c-1.1-1.1-2.5-1.65-4.19-1.65-1.35,0-2.55.37-3.61,1.1-1.06.74-1.79,1.72-2.19,2.94v3.63c.42,1.22,1.16,2.2,2.21,2.92,1.05.72,2.25,1.09,3.59,1.09,1.7,0,3.09-.54,4.19-1.61Z"/>
      <path class="cls-10" d="M136.25,363.34c-.51-.5-.77-1.12-.77-1.87s.26-1.38.77-1.89,1.14-.77,1.89-.77,1.38.26,1.91.77c.52.51.79,1.14.79,1.89s-.26,1.37-.79,1.87c-.52.5-1.16.75-1.91.75s-1.38-.25-1.89-.75ZM135.75,367.24h4.79v17.97h-4.79v-17.97Z"/>
      <path class="cls-10" d="M148.06,384.12c-1.02-1.1-1.53-2.64-1.53-4.64v-8.65h-2.69v-3.59h2.69v-5.39h4.72v5.39h4.3v3.59h-4.3v8.05c0,1.15.21,1.97.64,2.45s1.2.73,2.32.73c.77,0,1.53-.17,2.28-.52v3.59c-1.07.42-2.38.64-3.93.64-1.97,0-3.47-.55-4.49-1.65Z"/>
      <path class="cls-10" d="M159.67,384.66c-.37-.36-.56-.8-.56-1.33s.19-1.01.56-1.38c.37-.37.82-.56,1.35-.56s.97.19,1.35.56c.37.37.56.84.56,1.38s-.19.97-.56,1.33c-.37.36-.82.54-1.35.54s-.97-.18-1.35-.54Z"/>
      <path class="cls-10" d="M166.67,357.54h4.72v27.66h-4.72v-27.66Z"/>
      <path class="cls-10" d="M178.14,392.48c-.71-.09-1.27-.21-1.67-.36v-3.59c.62.25,1.4.37,2.32.37s1.66-.21,2.13-.64c.47-.42.89-1.1,1.24-2.02l.71-1.87-7.75-17.14h4.75l5.54,13.1,5.2-13.1h4.72l-7.86,19.58c-.8,1.97-1.77,3.43-2.9,4.38-1.14.95-2.6,1.42-4.4,1.42-.65,0-1.33-.04-2.04-.13Z"/>
      <path class="cls-10" d="M208.25,358.48h4.6l-10.67,26.72h-4.6l10.67-26.72Z"/>
      <path class="cls-10" d="M227.6,378.99h-12.5v-2.81l12.61-17.14h4.64v16.39h4.04v3.56h-4.04v6.21h-4.75v-6.21ZM228.28,375.43v-10.89l-7.97,10.89h7.97Z"/>
      <path class="cls-10" d="M242.09,385.24v-3.82c.97.45,2.2.67,3.67.67,2.45,0,4.38-.73,5.8-2.19s2.27-3.57,2.54-6.34c-1.6,1.7-3.85,2.55-6.77,2.55-1.7,0-3.2-.35-4.51-1.05-1.31-.7-2.33-1.7-3.07-2.99-.74-1.3-1.1-2.82-1.1-4.57s.39-3.27,1.16-4.64c.77-1.37,1.91-2.45,3.42-3.22,1.51-.77,3.3-1.16,5.37-1.16,1.95,0,3.69.45,5.24,1.35,1.55.9,2.76,2.21,3.65,3.93.89,1.72,1.33,3.78,1.33,6.18,0,3.37-.51,6.24-1.52,8.61-1.01,2.37-2.47,4.17-4.38,5.39-1.91,1.22-4.17,1.83-6.79,1.83-1.52,0-2.87-.18-4.04-.52ZM252.34,371.11c1-1.01,1.5-2.29,1.5-3.84,0-.95-.22-1.83-.66-2.64-.44-.81-1.05-1.46-1.83-1.95s-1.7-.73-2.75-.73c-1.6,0-2.88.49-3.84,1.46-.96.97-1.44,2.26-1.44,3.86s.48,2.92,1.44,3.89c.96.97,2.24,1.46,3.84,1.46,1.5,0,2.74-.51,3.74-1.52Z"/>
      <path class="cls-10" d="M266.4,384.58c-1.44-.79-2.56-1.9-3.37-3.33-.81-1.43-1.22-3.1-1.22-5s.41-3.53,1.22-4.98c.81-1.45,1.93-2.58,3.37-3.39,1.43-.81,3.06-1.22,4.88-1.22,2.94,0,5.26.77,6.96,2.32v-11.45h4.72v27.66h-4.57v-2.1c-1.02.95-2.08,1.63-3.18,2.04-1.1.41-2.41.62-3.93.62-1.82,0-3.45-.39-4.88-1.18ZM276.04,380.97c1.05-.72,1.78-1.7,2.21-2.92v-3.63c-.4-1.22-1.13-2.2-2.19-2.94-1.06-.74-2.26-1.1-3.61-1.1-1.7,0-3.09.55-4.19,1.65-1.1,1.1-1.65,2.51-1.65,4.23s.55,3.12,1.65,4.19c1.1,1.07,2.5,1.61,4.19,1.61,1.35,0,2.54-.36,3.59-1.09Z"/>
      <path class="cls-10" d="M285.77,367.24h4.75l4.87,12.43,4.87-12.43h4.75l-7.41,17.97h-4.42l-7.41-17.97Z"/>
      <path class="cls-10" d="M310.15,384.58c-1.44-.79-2.56-1.9-3.37-3.33-.81-1.43-1.22-3.1-1.22-5s.41-3.53,1.22-4.98c.81-1.45,1.93-2.58,3.37-3.39,1.43-.81,3.06-1.22,4.88-1.22,2.94,0,5.26.77,6.96,2.32v-11.45h4.72v27.66h-4.57v-2.1c-1.02.95-2.08,1.63-3.18,2.04-1.1.41-2.41.62-3.93.62-1.82,0-3.45-.39-4.88-1.18ZM319.79,380.97c1.05-.72,1.78-1.7,2.21-2.92v-3.63c-.4-1.22-1.13-2.2-2.19-2.94-1.06-.74-2.26-1.1-3.61-1.1-1.7,0-3.09.55-4.19,1.65-1.1,1.1-1.65,2.51-1.65,4.23s.55,3.12,1.65,4.19c1.1,1.07,2.5,1.61,4.19,1.61,1.35,0,2.54-.36,3.59-1.09Z"/>
      <path class="cls-10" d="M331.21,367.24h4.57v2.43c.85-1.02,1.86-1.78,3.03-2.26,1.17-.49,2.41-.73,3.71-.73,2.42,0,4.23.66,5.43,1.97s1.8,3.05,1.8,5.22v11.34h-4.72v-10.89c0-2.62-1.22-3.93-3.67-3.93-1.07,0-2.08.26-3.03.77-.95.51-1.75,1.28-2.4,2.3v11.75h-4.72v-17.97Z"/>
      <path class="cls-10" d="M354.04,357.54h4.72v11.98c1.7-1.9,3.89-2.84,6.59-2.84,2.42,0,4.23.66,5.43,1.97s1.8,3.05,1.8,5.22v11.34h-4.72v-10.89c0-2.62-1.22-3.93-3.67-3.93-1.07,0-2.08.26-3.03.77-.95.51-1.75,1.28-2.4,2.3v11.75h-4.72v-27.66Z"/>
      <path class="cls-10" d="M376.87,367.24h4.42v2.36c.8-.95,1.73-1.67,2.81-2.17,1.07-.5,2.16-.75,3.26-.75,1.4,0,2.52.23,3.37.69.85.46,1.48,1.15,1.91,2.08.8-.9,1.76-1.58,2.9-2.06,1.14-.47,2.26-.71,3.39-.71,2.25,0,3.85.56,4.83,1.68.97,1.12,1.46,2.77,1.46,4.94v11.9h-4.53v-11.27c0-1.27-.26-2.18-.77-2.73-.51-.55-1.33-.82-2.45-.82-.8,0-1.53.16-2.19.47-.66.31-1.27.84-1.82,1.59.05.8.07,1.45.07,1.95v10.82h-4.57v-11.34c0-1.3-.21-2.2-.64-2.71-.42-.51-1.2-.77-2.32-.77-1.7,0-3.22.96-4.57,2.88v11.94h-4.57v-17.97Z"/>
      <path class="cls-10" d="M108.35,388.95v-1.87h298.91v1.87H108.35Z"/>
    </g>
  </g>
  <g>
    <polyline class="cls-3" points="45.99 27.18 30.22 43.4 45.99 59.62"/>
    <rect class="cls-1" x="59.22" y="24.11" width="71.56" height="37.73" rx="18.86" ry="18.86"/>
    <g>
      <path class="cls-9" d="M78.57,50.05c1.5,0,2.64-.49,3.41-1.46.77-.97,1.19-2.28,1.25-3.92-.48.4-1.12.76-1.92,1.08-.8.32-1.74.48-2.83.48-.82,0-1.6-.12-2.33-.38-.73-.25-1.38-.63-1.94-1.14-.56-.51-1.01-1.16-1.34-1.94-.33-.78-.5-1.69-.5-2.74,0-.98.17-1.91.5-2.78.33-.87.8-1.63,1.41-2.27.61-.64,1.34-1.15,2.19-1.52.85-.37,1.81-.56,2.87-.56,2.42,0,4.33.84,5.73,2.52,1.39,1.68,2.09,4.16,2.09,7.42,0,1.68-.21,3.17-.62,4.45-.41,1.28-.98,2.36-1.71,3.23s-1.61,1.53-2.63,1.97c-1.02.44-2.13.66-3.34.66-.98,0-1.91-.09-2.8-.26-.88-.17-1.68-.46-2.4-.86l.96-2.92c1.08.6,2.39.9,3.94.9ZM79.3,43.23c.86,0,1.63-.15,2.3-.47.67-.31,1.25-.69,1.73-1.13-.02-.9-.14-1.7-.36-2.39-.22-.69-.51-1.28-.87-1.76s-.77-.84-1.23-1.08c-.46-.24-.94-.36-1.44-.36-.92,0-1.7.34-2.33,1.02-.63.68-.95,1.64-.95,2.89,0,.98.27,1.77.8,2.37.53.6,1.32.9,2.36.9Z"/>
      <path class="cls-9" d="M95.56,50.05c1.5,0,2.64-.49,3.41-1.46.77-.97,1.19-2.28,1.25-3.92-.48.4-1.12.76-1.92,1.08-.8.32-1.74.48-2.83.48-.82,0-1.6-.12-2.33-.38-.73-.25-1.38-.63-1.94-1.14-.56-.51-1.01-1.16-1.34-1.94-.33-.78-.5-1.69-.5-2.74,0-.98.17-1.91.5-2.78.33-.87.8-1.63,1.41-2.27.61-.64,1.34-1.15,2.19-1.52.85-.37,1.81-.56,2.87-.56,2.42,0,4.33.84,5.73,2.52,1.39,1.68,2.09,4.16,2.09,7.42,0,1.68-.21,3.17-.62,4.45-.41,1.28-.98,2.36-1.71,3.23s-1.61,1.53-2.63,1.97c-1.02.44-2.13.66-3.34.66-.98,0-1.91-.09-2.8-.26-.88-.17-1.68-.46-2.4-.86l.96-2.92c1.08.6,2.39.9,3.94.9ZM96.28,43.23c.86,0,1.63-.15,2.3-.47.67-.31,1.25-.69,1.73-1.13-.02-.9-.14-1.7-.36-2.39-.22-.69-.51-1.28-.87-1.76s-.77-.84-1.23-1.08c-.46-.24-.94-.36-1.44-.36-.92,0-1.7.34-2.33,1.02-.63.68-.95,1.64-.95,2.89,0,.98.27,1.77.8,2.37.53.6,1.32.9,2.36.9Z"/>
      <path class="cls-9" d="M120.45,45.81h-4.78v4.84h-3.67v-4.84h-4.78v-3.07h4.78v-4.84h3.67v4.84h4.78v3.07Z"/>
    </g>
  </g>
</svg>