<?xml version="1.0" encoding="UTF-8"?>
<svg id="Layer_1" data-name="Layer 1" xmlns="http://www.w3.org/2000/svg" viewBox="0 0 800 600">
  <defs>
    <style>
      .cls-1 {
        fill: #1a4175;
      }

      .cls-2 {
        fill: #4881b6;
      }

      .cls-3 {
        fill: #ff336d;
      }

      .cls-4 {
        fill: #7db0f2;
      }

      .cls-5 {
        fill: #123667;
      }

      .cls-6 {
        fill: #001a47;
      }

      .cls-6, .cls-7 {
        opacity: .5;
      }

      .cls-8 {
        fill: #326499;
      }

      .cls-9 {
        fill: #0d2243;
      }

      .cls-10 {
        fill: #fff;
      }

      .cls-7 {
        fill: none;
        stroke: #001a47;
        stroke-linecap: round;
        stroke-linejoin: round;
        stroke-width: 6.45px;
      }

      .cls-11 {
        fill: #1651b2;
      }

      .cls-12 {
        fill: #ff73b6;
      }

      .cls-13 {
        fill: #f7f8fd;
      }

      .cls-14 {
        fill: #8fe597;
      }
    </style>
  </defs>
  <g>
    <rect class="cls-8" y="0" width="800" height="600" rx="30" ry="30"/>
    <path class="cls-1" d="M770,0H30C13.43,0,0,13.43,0,30v112.93h800V30c0-16.57-13.43-30-30-30Z"/>
    <g>
      <rect class="cls-8" x="344.38" y="106.67" width="111.24" height="17.21" rx="8.61" ry="8.61"/>
      <circle class="cls-2" cx="400" cy="57.05" r="38"/>
      <g>
        <path class="cls-5" d="M429.4,81.13c-6.97,8.5-17.55,13.92-29.4,13.92s-22.43-5.43-29.4-13.93c4.25-10.84,14.75-14.23,14.75-14.23h29.29s10.51,3.39,14.75,14.23Z"/>
        <path class="cls-2" d="M414.2,69.42c1.62.63,8.68,3.75,12.26,11.27-6.74,7.55-16.3,11.84-26.46,11.84s-19.72-4.3-26.46-11.85c3.59-7.52,10.65-10.64,12.26-11.26h28.4M414.64,66.9h-29.29s-10.5,3.39-14.75,14.23c6.96,8.5,17.55,13.93,29.4,13.93s22.43-5.42,29.4-13.92c-4.24-10.84-14.75-14.23-14.75-14.23h0Z"/>
      </g>
      <g>
        <circle class="cls-5" cx="400" cy="54.9" r="17.52"/>
        <path class="cls-2" d="M400,73.97c-10.51,0-19.07-8.55-19.07-19.07s8.55-19.07,19.07-19.07,19.07,8.55,19.07,19.07-8.55,19.07-19.07,19.07ZM400,38.94c-8.8,0-15.96,7.16-15.96,15.96s7.16,15.96,15.96,15.96,15.96-7.16,15.96-15.96-7.16-15.96-15.96-15.96Z"/>
      </g>
      <circle class="cls-4" cx="430.63" cy="74.21" r="20.85"/>
      <path class="cls-13" d="M427.74,80.18c0-.65.01-1.21.04-1.68.03-.47.07-.88.15-1.23.07-.36.17-.67.3-.95.13-.28.29-.55.49-.83.2-.28.45-.57.74-.88.29-.31.64-.67,1.03-1.08.34-.31.67-.65.99-1,.32-.36.61-.73.87-1.12.26-.39.47-.8.62-1.22.16-.42.24-.87.24-1.33,0-.34-.04-.68-.12-.99-.08-.32-.22-.6-.41-.84-.19-.24-.46-.43-.79-.57-.33-.14-.75-.21-1.25-.21-.58,0-1.05.11-1.41.33-.37.22-.65.51-.86.88-.21.37-.35.8-.43,1.3-.08.5-.11,1.03-.1,1.59h-4.69c-.06-1.03.07-2.02.38-2.95.31-.93.8-1.75,1.45-2.45.65-.7,1.48-1.26,2.46-1.67.99-.41,2.13-.62,3.44-.62,1.09,0,2.08.14,2.98.43.89.29,1.65.7,2.29,1.23.64.53,1.13,1.18,1.47,1.93.34.76.52,1.6.52,2.53,0,.76-.09,1.44-.28,2.02-.18.58-.43,1.12-.74,1.62-.31.49-.67.97-1.08,1.42-.42.45-.85.93-1.31,1.42-.28.3-.54.56-.76.79-.22.22-.42.44-.58.64-.17.2-.31.41-.43.62-.12.21-.21.45-.28.71-.07.27-.11.57-.13.93-.02.35-.03.77-.01,1.26h-4.78ZM427.74,85.76v-4.01s4.83,0,4.83,0v4.01s-4.83,0-4.83,0Z"/>
    </g>
    <g>
      <polyline class="cls-7" points="45.99 27.18 30.22 43.4 45.99 59.62"/>
      <rect class="cls-6" x="59.22" y="24.11" width="71.56" height="37.73" rx="18.86" ry="18.86"/>
      <g>
        <path class="cls-2" d="M78.57,50.05c1.5,0,2.64-.49,3.41-1.46.77-.97,1.19-2.28,1.25-3.92-.48.4-1.12.76-1.92,1.08-.8.32-1.74.48-2.83.48-.82,0-1.6-.12-2.33-.38-.73-.25-1.38-.63-1.94-1.14-.56-.51-1.01-1.16-1.34-1.94-.33-.78-.5-1.69-.5-2.74,0-.98.17-1.91.5-2.78.33-.87.8-1.63,1.41-2.27.61-.64,1.34-1.15,2.19-1.52.85-.37,1.81-.56,2.87-.56,2.42,0,4.33.84,5.73,2.52,1.39,1.68,2.09,4.16,2.09,7.42,0,1.68-.21,3.17-.62,4.45-.41,1.28-.98,2.36-1.71,3.23s-1.61,1.53-2.63,1.97c-1.02.44-2.13.66-3.34.66-.98,0-1.91-.09-2.8-.26-.88-.17-1.68-.46-2.4-.86l.96-2.92c1.08.6,2.39.9,3.94.9ZM79.3,43.23c.86,0,1.63-.15,2.3-.47.67-.31,1.25-.69,1.73-1.13-.02-.9-.14-1.7-.36-2.39-.22-.69-.51-1.28-.87-1.76s-.77-.84-1.23-1.08c-.46-.24-.94-.36-1.44-.36-.92,0-1.7.34-2.33,1.02-.63.68-.95,1.64-.95,2.89,0,.98.27,1.77.8,2.37.53.6,1.32.9,2.36.9Z"/>
        <path class="cls-2" d="M95.56,50.05c1.5,0,2.64-.49,3.41-1.46.77-.97,1.19-2.28,1.25-3.92-.48.4-1.12.76-1.92,1.08-.8.32-1.74.48-2.83.48-.82,0-1.6-.12-2.33-.38-.73-.25-1.38-.63-1.94-1.14-.56-.51-1.01-1.16-1.34-1.94-.33-.78-.5-1.69-.5-2.74,0-.98.17-1.91.5-2.78.33-.87.8-1.63,1.41-2.27.61-.64,1.34-1.15,2.19-1.52.85-.37,1.81-.56,2.87-.56,2.42,0,4.33.84,5.73,2.52,1.39,1.68,2.09,4.16,2.09,7.42,0,1.68-.21,3.17-.62,4.45-.41,1.28-.98,2.36-1.71,3.23s-1.61,1.53-2.63,1.97c-1.02.44-2.13.66-3.34.66-.98,0-1.91-.09-2.8-.26-.88-.17-1.68-.46-2.4-.86l.96-2.92c1.08.6,2.39.9,3.94.9ZM96.28,43.23c.86,0,1.63-.15,2.3-.47.67-.31,1.25-.69,1.73-1.13-.02-.9-.14-1.7-.36-2.39-.22-.69-.51-1.28-.87-1.76s-.77-.84-1.23-1.08c-.46-.24-.94-.36-1.44-.36-.92,0-1.7.34-2.33,1.02-.63.68-.95,1.64-.95,2.89,0,.98.27,1.77.8,2.37.53.6,1.32.9,2.36.9Z"/>
        <path class="cls-2" d="M120.45,45.81h-4.78v4.84h-3.67v-4.84h-4.78v-3.07h4.78v-4.84h3.67v4.84h4.78v3.07Z"/>
      </g>
    </g>
  </g>
  <g>
    <g>
      <rect class="cls-14" x="58.53" y="201.46" width="559.85" height="230.31" rx="42.94" ry="42.94"/>
      <polygon class="cls-14" points="43.74 442.64 116.07 418.68 70.81 388.68 43.74 442.64"/>
    </g>
    <g>
      <path class="cls-9" d="M109.47,250.73h4.75l3.22,13.44,3.89-13.44h3.52l3.89,13.44,3.22-13.44h4.75l-5.58,20.02h-4.01l-4.04-13.77-4.04,13.77h-4.01l-5.58-20.02Z"/>
      <path class="cls-9" d="M122.11,247.1c-.54-.6-.8-1.5-.8-2.7v-2.17h4.27v1.72c0,.4.07.67.22.8.15.14.42.21.82.21h8.91v3.03h-10.85c-1.17,0-2.03-.3-2.56-.9Z"/>
      <path class="cls-9" d="M141.38,269.63c-1.36-1.12-2.04-2.71-2.04-4.75,0-1.35.34-2.53,1.03-3.56.69-1.02,1.66-1.82,2.92-2.4,1.26-.57,2.74-.86,4.44-.86,2.42,0,4.52.41,6.29,1.24v-.9c0-1.55-.46-2.69-1.37-3.42-.91-.74-2.38-1.1-4.4-1.1-1.22,0-2.43.13-3.61.37-1.19.25-2.21.59-3.09,1.01v-3.71c.8-.37,1.9-.7,3.31-.97,1.41-.27,2.79-.41,4.14-.41,2.02,0,3.77.31,5.24.94l1.65-1.87h5.24l-3.85,4.42c.97,1.1,1.46,2.65,1.46,4.64v12.46h-4.72v-7.71c-1.67-.85-3.58-1.27-5.73-1.27-1.4,0-2.44.27-3.13.8-.69.54-1.03,1.32-1.03,2.34,0,.92.31,1.6.94,2.04.62.44,1.61.66,2.96.66.85,0,1.58-.12,2.21-.37v3.63c-.92.3-2.08.45-3.48.45-2.22,0-4.01-.56-5.37-1.68Z"/>
      <path class="cls-9" d="M166.01,268.75c-1.76-1.71-2.64-4.21-2.64-7.5,0-2.3.46-4.27,1.37-5.93.91-1.66,2.22-2.93,3.93-3.82,1.71-.89,3.72-1.33,6.04-1.33,3.67,0,6.35.85,8.05,2.55,1.7,1.7,2.55,3.91,2.55,6.63v11.42h-4.75v-11.45c0-1.75-.46-3.09-1.37-4.02-.91-.94-2.4-1.4-4.47-1.4s-3.57.64-4.73,1.93c-1.16,1.29-1.74,3.1-1.74,5.45,0,2.15.5,3.74,1.5,4.79,1,1.05,2.43,1.57,4.3,1.57.92,0,1.78-.12,2.58-.37v3.63c-.97.3-2.11.45-3.41.45-3.04,0-5.45-.85-7.21-2.56Z"/>
      <path class="cls-9" d="M181.15,276.93c0-.45-.08-.76-.22-.94-.15-.18-.45-.26-.9-.26h-1.31v-3.03h3.48c1.25,0,2.1.23,2.55.69.45.46.67,1.3.67,2.53v4.87h-4.27v-3.86Z"/>
      <path class="cls-9" d="M193.62,270.36c-1.4-.64-2.47-1.52-3.22-2.66-.75-1.14-1.12-2.43-1.12-3.87v-.94c0-.87.18-1.67.54-2.4.36-.72.87-1.55,1.52-2.47.42-.6.74-1.07.94-1.42.2-.35.3-.69.3-1.01,0-.75-.46-1.12-1.38-1.12h-2.13v-3.74h4.64c1.12,0,2.01.32,2.68.95.66.64.99,1.49.99,2.56,0,.75-.14,1.44-.43,2.06-.29.62-.71,1.39-1.25,2.28-.55.9-.96,1.64-1.23,2.23-.27.59-.41,1.22-.41,1.89v.94c0,1.27.37,2.25,1.12,2.94.75.69,1.87,1.03,3.37,1.03,2.92,0,4.38-1.39,4.38-4.15v-12.73h4.75v11.94c0,2.65-.79,4.75-2.38,6.31-1.58,1.56-3.84,2.34-6.76,2.34-1.87,0-3.51-.32-4.9-.95Z"/>
      <path class="cls-9" d="M215.25,270.79c-1.55-.35-2.83-.84-3.86-1.46v-10.48h8.98v3.86h-4.23v4.15c.92.5,2.2.75,3.82.75,2.2,0,3.85-.6,4.98-1.8,1.12-1.2,1.68-2.94,1.68-5.24,0-1.57-.25-2.84-.75-3.82-.5-.97-1.32-1.7-2.47-2.17-1.15-.47-2.69-.71-4.64-.71-1.27,0-2.56.13-3.87.39s-2.4.64-3.28,1.14v-3.71c1-.5,2.19-.88,3.57-1.14s2.85-.39,4.4-.39c3.79,0,6.72.9,8.8,2.71,2.07,1.81,3.11,4.37,3.11,7.69s-.99,5.94-2.98,7.86c-1.98,1.92-4.83,2.88-8.55,2.88-1.6,0-3.17-.18-4.72-.52Z"/>
      <path class="cls-9" d="M234.49,253.24h4.75l4.38,13.81c2.1,0,3.71-.59,4.85-1.78,1.14-1.19,1.7-2.88,1.7-5.07s-.39-3.71-1.16-4.75c-.77-1.05-2.01-1.57-3.71-1.57-.92,0-1.78.13-2.58.37v-3.63c.97-.3,2.11-.45,3.41-.45,2.92,0,5.13.89,6.64,2.66,1.51,1.77,2.26,4.23,2.26,7.37,0,2.2-.48,4.09-1.44,5.69-.96,1.6-2.25,2.81-3.87,3.63s-3.42,1.24-5.39,1.24h-4.3l-5.54-17.52Z"/>
      <path class="cls-9" d="M258.78,250.73h4.57v2.47c.95-1,2.05-1.75,3.31-2.26,1.26-.51,2.53-.77,3.8-.77,2.47,0,4.35.69,5.65,2.08,1.3,1.39,1.95,3.16,1.95,5.33v13.18h-4.75v-12.95c0-2.62-1.4-3.93-4.19-3.93-2.42,0-4.28,1.02-5.58,3.07v13.81h-4.75v-20.02Z"/>
      <path class="cls-9" d="M273.34,241.56h4.75v6.44h-4.75v-6.44Z"/>
      <path class="cls-9" d="M288.99,257.95c0-1.47-.29-2.52-.88-3.14-.59-.62-1.64-.94-3.16-.94-1.4,0-2.82.36-4.27,1.09v-3.71c.6-.3,1.39-.55,2.38-.77.99-.21,1.95-.32,2.9-.32,2.57,0,4.51.7,5.82,2.1,1.31,1.4,1.97,3.39,1.97,5.99v12.5h-4.75v-12.8Z"/>
      <path class="cls-9" d="M301.82,270.32c-1.17-.66-2.06-1.57-2.68-2.73s-.92-2.45-.92-3.87v-12.99h4.75v12.76c0,2.75,1.46,4.12,4.38,4.12,2.3,0,4.09-1.02,5.39-3.07v-13.81h4.75v20.02h-4.57v-2.47c-.95,1-2.03,1.75-3.24,2.26-1.21.51-2.44.77-3.69.77-1.62,0-3.02-.33-4.19-.99Z"/>
      <path class="cls-9" d="M336.5,269.65c-.69-.74-1.03-1.76-1.03-3.09v-15.83h4.75v14.34c0,.65.14,1.1.41,1.35.27.25.72.37,1.35.37h1.31v3.97h-3.82c-1.3,0-2.29-.37-2.98-1.1Z"/>
      <path class="cls-9" d="M348.16,258.55l-1.87-3.11c1.37-1.72,2.95-3.03,4.73-3.93,1.78-.9,3.85-1.35,6.19-1.35,3.12,0,5.51.7,7.17,2.1,1.66,1.4,2.49,3.33,2.49,5.8v12.69h-4.75v-12.31c0-1.55-.41-2.69-1.24-3.44-.82-.75-2.05-1.12-3.67-1.12-1.22,0-2.3.17-3.24.52-.94.35-1.8.92-2.6,1.72l1.53,2.47v12.16h-4.75v-12.2Z"/>
      <path class="cls-9" d="M350.15,244.97h16.73v3.03h-16.73v-3.03Z"/>
      <path class="cls-9" d="M373.26,268.75c-1.76-1.71-2.64-4.21-2.64-7.5,0-2.3.46-4.27,1.37-5.93.91-1.66,2.22-2.93,3.93-3.82,1.71-.89,3.72-1.33,6.04-1.33,3.67,0,6.35.85,8.05,2.55,1.7,1.7,2.55,3.91,2.55,6.63v11.42h-4.75v-11.45c0-1.75-.46-3.09-1.37-4.02-.91-.94-2.4-1.4-4.47-1.4s-3.57.64-4.73,1.93c-1.16,1.29-1.74,3.1-1.74,5.45,0,2.15.5,3.74,1.5,4.79,1,1.05,2.43,1.57,4.3,1.57.92,0,1.78-.12,2.58-.37v3.63c-.97.3-2.11.45-3.41.45-3.04,0-5.45-.85-7.21-2.56Z"/>
      <path class="cls-9" d="M398.17,258.55l-1.87-3.11c1.37-1.72,2.95-3.03,4.73-3.93,1.78-.9,3.85-1.35,6.19-1.35,3.12,0,5.51.7,7.17,2.1,1.66,1.4,2.49,3.33,2.49,5.8v12.69h-4.75v-12.31c0-1.55-.41-2.69-1.24-3.44-.82-.75-2.05-1.12-3.67-1.12-1.22,0-2.3.17-3.24.52-.94.35-1.8.92-2.6,1.72l1.53,2.47v12.16h-4.75v-12.2Z"/>
      <path class="cls-9" d="M427.81,257.95c0-1.47-.29-2.52-.88-3.14-.59-.62-1.64-.94-3.16-.94-1.4,0-2.82.36-4.27,1.09v-3.71c.6-.3,1.39-.55,2.38-.77.99-.21,1.95-.32,2.9-.32,2.57,0,4.51.7,5.82,2.1,1.31,1.4,1.97,3.39,1.97,5.99v12.5h-4.75v-12.8Z"/>
      <path class="cls-9" d="M439.89,270.87c-1.46-.3-2.6-.75-3.42-1.35v-3.71c1.1.65,2.31,1.14,3.65,1.46,1.33.32,2.56.49,3.69.49,1.5,0,2.58-.15,3.24-.45.66-.3.99-.86.99-1.68,0-.57-.17-1.03-.52-1.37s-.82-.62-1.42-.84c-.6-.22-1.72-.59-3.37-1.09-2.15-.67-3.75-1.48-4.81-2.43-1.06-.95-1.59-2.23-1.59-3.86,0-1.87.75-3.32,2.25-4.34,1.5-1.02,3.52-1.53,6.06-1.53,1.35,0,2.64.14,3.87.43,1.24.29,2.25.67,3.05,1.14v3.89c-.82-.52-1.81-.95-2.98-1.27-1.16-.32-2.33-.49-3.5-.49-2.67,0-4,.72-4,2.17,0,.52.16.95.49,1.27.32.32.76.59,1.31.8.55.21,1.38.49,2.51.84l1.24.37c1.6.5,2.84,1.04,3.72,1.61.89.57,1.51,1.24,1.87,1.98.36.75.54,1.67.54,2.77,0,1.67-.71,3.03-2.13,4.06s-3.56,1.55-6.4,1.55c-1.42,0-2.86-.15-4.32-.45Z"/>
      <path class="cls-9" d="M457.51,269.65c-.69-.74-1.03-1.76-1.03-3.09v-15.83h4.75v14.34c0,.65.14,1.1.41,1.35.27.25.72.37,1.35.37h1.31v3.97h-3.82c-1.3,0-2.29-.37-2.98-1.1Z"/>
      <path class="cls-9" d="M469.34,269.63c-1.36-1.12-2.04-2.71-2.04-4.75,0-1.35.34-2.53,1.03-3.56.69-1.02,1.66-1.82,2.92-2.4,1.26-.57,2.74-.86,4.44-.86,2.42,0,4.52.41,6.29,1.24v-.9c0-1.55-.46-2.69-1.37-3.42-.91-.74-2.38-1.1-4.4-1.1-1.22,0-2.43.13-3.61.37-1.19.25-2.21.59-3.09,1.01v-3.71c.8-.37,1.9-.7,3.31-.97,1.41-.27,2.79-.41,4.14-.41,2.02,0,3.77.31,5.24.94l1.65-1.87h5.24l-3.85,4.42c.97,1.1,1.46,2.65,1.46,4.64v12.46h-4.72v-7.71c-1.67-.85-3.58-1.27-5.73-1.27-1.4,0-2.44.27-3.13.8-.69.54-1.03,1.32-1.03,2.34,0,.92.31,1.6.94,2.04.62.44,1.61.66,2.96.66.85,0,1.58-.12,2.21-.37v3.63c-.92.3-2.08.45-3.48.45-2.22,0-4.01-.56-5.37-1.68Z"/>
      <path class="cls-9" d="M470.03,244.97h12.46v-4.04h4.27v7.07h-16.73v-3.03Z"/>
      <path class="cls-9" d="M494.03,269.59c-1.8-1.15-2.69-2.77-2.69-4.87,0-1.02.3-1.95.9-2.77.6-.82,1.37-1.4,2.32-1.72-.9-.42-1.63-1.04-2.19-1.83-.56-.8-.84-1.7-.84-2.7,0-1.67.57-3.01,1.72-4.02,1.15-1.01,2.84-1.52,5.09-1.52.7,0,1.37.04,2.02.13.65.09,1.16.19,1.53.32v3.71c-.32-.15-.74-.26-1.25-.34-.51-.07-.97-.11-1.37-.11-1.92,0-2.88.71-2.88,2.13,0,.77.24,1.35.71,1.72.47.37,1.24.56,2.28.56h2.51v3.86h-2.51c-2.12,0-3.18.86-3.18,2.58,0,.9.44,1.6,1.33,2.11.89.51,2.1.77,3.65.77,1.95,0,3.37-.4,4.29-1.2.91-.8,1.37-1.97,1.37-3.52v-12.2h4.75v12.13c0,1.42-.34,2.78-1.03,4.06-.69,1.29-1.81,2.35-3.37,3.18-1.56.84-3.56,1.25-6.01,1.25-2.97,0-5.35-.57-7.15-1.72Z"/>
      <path class="cls-9" d="M516.07,250.73h4.75v8.01l8.65-8.01h5.46l-5.46,5.05c2.02.52,3.43,1.37,4.23,2.55.8,1.17,1.2,2.73,1.2,4.68v7.75h-4.75v-7.41c0-1.42-.26-2.49-.77-3.22-.51-.72-1.44-1.24-2.79-1.53l-5.76,5.35v6.81h-4.75v-20.02Z"/>
      <path class="cls-9" d="M545.87,257.95c0-1.47-.29-2.52-.88-3.14-.59-.62-1.64-.94-3.16-.94-1.4,0-2.82.36-4.27,1.09v-3.71c.6-.3,1.39-.55,2.38-.77.99-.21,1.95-.32,2.9-.32,2.57,0,4.51.7,5.82,2.1,1.31,1.4,1.97,3.39,1.97,5.99v12.5h-4.75v-12.8Z"/>
      <path class="cls-9" d="M557.06,269.59c-1.8-1.15-2.69-2.77-2.69-4.87,0-1.02.3-1.95.9-2.77.6-.82,1.37-1.4,2.32-1.72-.9-.42-1.63-1.04-2.19-1.83-.56-.8-.84-1.7-.84-2.7,0-1.67.57-3.01,1.72-4.02,1.15-1.01,2.84-1.52,5.09-1.52.7,0,1.37.04,2.02.13.65.09,1.16.19,1.53.32v3.71c-.32-.15-.74-.26-1.25-.34-.51-.07-.97-.11-1.37-.11-1.92,0-2.88.71-2.88,2.13,0,.77.24,1.35.71,1.72.47.37,1.24.56,2.28.56h2.51v3.86h-2.51c-2.12,0-3.18.86-3.18,2.58,0,.9.44,1.6,1.33,2.11.89.51,2.1.77,3.65.77,1.95,0,3.37-.4,4.29-1.2.91-.8,1.37-1.97,1.37-3.52v-12.2h4.75v12.13c0,1.42-.34,2.78-1.03,4.06-.69,1.29-1.81,2.35-3.37,3.18-1.56.84-3.56,1.25-6.01,1.25-2.97,0-5.35-.57-7.15-1.72Z"/>
      <path class="cls-9" d="M111.72,315.78l-1.87-3.11c1.37-1.72,2.95-3.03,4.73-3.93,1.78-.9,3.85-1.35,6.19-1.35,3.12,0,5.51.7,7.17,2.1,1.66,1.4,2.49,3.33,2.49,5.8v12.69h-4.75v-12.31c0-1.55-.41-2.69-1.24-3.44-.82-.75-2.05-1.12-3.67-1.12-1.22,0-2.3.17-3.24.52-.94.35-1.8.92-2.6,1.72l1.53,2.47v12.16h-4.75v-12.2Z"/>
      <path class="cls-9" d="M137.75,328.09c-1.46-.3-2.6-.75-3.42-1.35v-3.71c1.1.65,2.31,1.14,3.65,1.46,1.33.32,2.56.49,3.69.49,1.5,0,2.58-.15,3.24-.45.66-.3.99-.86.99-1.68,0-.57-.17-1.03-.52-1.37s-.82-.62-1.42-.84c-.6-.22-1.72-.59-3.37-1.09-2.15-.67-3.75-1.48-4.81-2.43-1.06-.95-1.59-2.23-1.59-3.86,0-1.87.75-3.32,2.25-4.34,1.5-1.02,3.52-1.53,6.06-1.53,1.35,0,2.64.14,3.87.43,1.24.29,2.25.67,3.05,1.14v3.89c-.82-.52-1.81-.95-2.98-1.27-1.16-.32-2.33-.49-3.5-.49-2.67,0-4,.72-4,2.17,0,.52.16.95.49,1.27.32.32.76.59,1.31.8.55.21,1.38.49,2.51.84l1.24.37c1.6.5,2.84,1.04,3.72,1.61.89.57,1.51,1.24,1.87,1.98.36.75.54,1.67.54,2.77,0,1.67-.71,3.03-2.13,4.06s-3.56,1.55-6.4,1.55c-1.42,0-2.86-.15-4.32-.45Z"/>
      <path class="cls-9" d="M145.71,334.15c0-.45-.08-.76-.22-.94-.15-.18-.45-.26-.9-.26h-1.31v-3.03h3.48c1.25,0,2.1.23,2.55.69.45.46.67,1.3.67,2.53v4.87h-4.27v-3.86Z"/>
      <path class="cls-9" d="M172.07,327.55c-1.11-.66-1.95-1.57-2.53-2.73-.57-1.16-.86-2.45-.86-3.87v-5.28c0-1.57-.37-2.73-1.12-3.46-.75-.74-1.88-1.1-3.41-1.1-1.15,0-2.16.17-3.03.52-.87.35-1.68.92-2.43,1.72l1.53,2.47v6.44c0,.65.14,1.1.43,1.37.29.26.77.39,1.44.39h2.02v3.97h-4.57c-1.32,0-2.33-.37-3.03-1.12-.7-.75-1.05-1.77-1.05-3.07v-8.01l-1.87-3.11c1.37-1.72,2.91-3.03,4.62-3.93,1.71-.9,3.69-1.35,5.93-1.35,3.02,0,5.31.69,6.89,2.08s2.36,3.33,2.36,5.82v5.43c0,1.4.32,2.43.97,3.11.65.67,1.67,1.01,3.07,1.01,1.1,0,2.1-.27,3.01-.8.91-.54,1.59-1.29,2.04-2.26v-13.81h4.72v20.02h-4.57v-2.36c-1.57,1.95-3.76,2.92-6.55,2.92-1.57,0-2.91-.33-4.02-.99Z"/>
      <path class="cls-9" d="M198.14,315.18c0-1.47-.29-2.52-.88-3.14-.59-.62-1.64-.94-3.16-.94-1.4,0-2.82.36-4.27,1.09v-3.71c.6-.3,1.39-.55,2.38-.77.99-.21,1.95-.32,2.9-.32,2.57,0,4.51.7,5.82,2.1,1.31,1.4,1.97,3.39,1.97,5.99v12.5h-4.75v-12.8Z"/>
      <path class="cls-9" d="M209.34,326.82c-1.8-1.15-2.69-2.77-2.69-4.87,0-1.02.3-1.95.9-2.77.6-.82,1.37-1.4,2.32-1.72-.9-.42-1.63-1.04-2.19-1.83-.56-.8-.84-1.7-.84-2.7,0-1.67.57-3.01,1.72-4.02,1.15-1.01,2.84-1.52,5.09-1.52.7,0,1.37.04,2.02.13.65.09,1.16.19,1.53.32v3.71c-.32-.15-.74-.26-1.25-.34-.51-.07-.97-.11-1.37-.11-1.92,0-2.88.71-2.88,2.13,0,.77.24,1.35.71,1.72.47.37,1.24.56,2.28.56h2.51v3.86h-2.51c-2.12,0-3.18.86-3.18,2.58,0,.9.44,1.6,1.33,2.11.89.51,2.1.77,3.65.77,1.95,0,3.37-.4,4.29-1.2.91-.8,1.37-1.97,1.37-3.52v-12.2h4.75v12.13c0,1.42-.34,2.78-1.03,4.06-.69,1.29-1.81,2.35-3.37,3.18-1.56.84-3.56,1.25-6.01,1.25-2.97,0-5.35-.57-7.15-1.72Z"/>
      <path class="cls-9" d="M210.27,302.19h7.26v-4.04h3.33v4.04h2.84v-4.04h3.29v7.07h-16.73v-3.03Z"/>
      <path class="cls-9" d="M222.7,291h4.27v5.13h-4.27v-5.13Z"/>
      <path class="cls-9" d="M234.98,327.55c-1.17-.66-2.06-1.57-2.68-2.73s-.92-2.45-.92-3.87v-12.99h4.75v12.76c0,2.75,1.46,4.12,4.38,4.12,2.3,0,4.09-1.02,5.39-3.07v-13.81h4.75v20.02h-4.57v-2.47c-.95,1-2.03,1.75-3.24,2.26-1.21.51-2.44.77-3.69.77-1.62,0-3.02-.33-4.19-.99Z"/>
      <path class="cls-9" d="M256.18,326.87c-.69-.74-1.03-1.76-1.03-3.09v-15.83h4.75v14.34c0,.65.14,1.1.41,1.35.27.25.72.37,1.35.37h1.31v3.97h-3.82c-1.3,0-2.29-.37-2.98-1.1Z"/>
      <path class="cls-9" d="M266.72,315.85c0-2.7.89-4.78,2.68-6.25,1.78-1.47,4.2-2.21,7.24-2.21s5.45.74,7.22,2.21c1.77,1.47,2.66,3.56,2.66,6.25v12.13h-4.75v-12.31c0-1.52-.44-2.66-1.33-3.42-.89-.76-2.15-1.14-3.8-1.14s-2.92.37-3.82,1.12c-.9.75-1.35,1.9-1.35,3.44v3.29c.32-.52.8-.95,1.44-1.27.64-.32,1.38-.49,2.23-.49h3.03v3.97h-3.37c-.97,0-1.77.32-2.4.95-.62.64-.94,1.4-.94,2.3v3.56h-4.75v-12.13Z"/>
      <path class="cls-9" d="M292.3,326.86c-1.36-1.12-2.04-2.71-2.04-4.75,0-1.35.34-2.53,1.03-3.56.69-1.02,1.66-1.82,2.92-2.4,1.26-.57,2.74-.86,4.44-.86,2.42,0,4.52.41,6.29,1.24v-.9c0-1.55-.46-2.69-1.37-3.42-.91-.74-2.38-1.1-4.4-1.1-1.22,0-2.43.13-3.61.37-1.19.25-2.21.59-3.09,1.01v-3.71c.8-.37,1.9-.7,3.31-.97,1.41-.27,2.79-.41,4.14-.41,2.02,0,3.77.31,5.24.94l1.65-1.87h5.24l-3.85,4.42c.97,1.1,1.46,2.65,1.46,4.64v12.46h-4.72v-7.71c-1.67-.85-3.58-1.27-5.73-1.27-1.4,0-2.44.27-3.13.8-.69.54-1.03,1.32-1.03,2.34,0,.92.31,1.6.94,2.04.62.44,1.61.66,2.96.66.85,0,1.58-.12,2.21-.37v3.63c-.92.3-2.08.45-3.48.45-2.22,0-4.01-.56-5.37-1.68Z"/>
      <path class="cls-9" d="M316.07,326.87c-.69-.74-1.03-1.76-1.03-3.09v-15.83h4.75v14.34c0,.65.14,1.1.41,1.35.27.25.72.37,1.35.37h1.31v3.97h-3.82c-1.3,0-2.29-.37-2.98-1.1Z"/>
      <path class="cls-9" d="M326.6,315.85c0-2.7.89-4.78,2.68-6.25,1.78-1.47,4.2-2.21,7.24-2.21s5.45.74,7.22,2.21c1.77,1.47,2.66,3.56,2.66,6.25v12.13h-4.75v-12.31c0-1.52-.44-2.66-1.33-3.42-.89-.76-2.15-1.14-3.8-1.14s-2.92.37-3.82,1.12c-.9.75-1.35,1.9-1.35,3.44v3.29c.32-.52.8-.95,1.44-1.27.64-.32,1.38-.49,2.23-.49h3.03v3.97h-3.37c-.97,0-1.77.32-2.4.95-.62.64-.94,1.4-.94,2.3v3.56h-4.75v-12.13Z"/>
      <path class="cls-9" d="M352.19,326.86c-1.36-1.12-2.04-2.71-2.04-4.75,0-1.35.34-2.53,1.03-3.56.69-1.02,1.66-1.82,2.92-2.4,1.26-.57,2.74-.86,4.44-.86,2.42,0,4.52.41,6.29,1.24v-.9c0-1.55-.46-2.69-1.37-3.42-.91-.74-2.38-1.1-4.4-1.1-1.22,0-2.43.13-3.61.37-1.19.25-2.21.59-3.09,1.01v-3.71c.8-.37,1.9-.7,3.31-.97,1.41-.27,2.79-.41,4.14-.41,3.24,0,5.68.74,7.3,2.21,1.62,1.47,2.43,3.44,2.43,5.91v12.46h-4.72v-7.71c-1.67-.85-3.58-1.27-5.73-1.27-1.4,0-2.44.27-3.13.8-.69.54-1.03,1.32-1.03,2.34,0,.92.31,1.6.94,2.04.62.44,1.61.66,2.96.66.85,0,1.58-.12,2.21-.37v3.63c-.92.3-2.08.45-3.48.45-2.22,0-4.01-.56-5.37-1.68Z"/>
      <path class="cls-9" d="M381.83,327.77c-1.21-.51-2.29-1.27-3.24-2.26v2.47h-4.57v-20.02h4.75v13.81c1.3,2.05,3.09,3.07,5.39,3.07,2.94,0,4.42-1.37,4.42-4.12v-12.76h4.72v12.99c0,1.42-.31,2.71-.92,3.87-.61,1.16-1.5,2.07-2.68,2.73s-2.57.99-4.19.99c-1.25,0-2.48-.26-3.69-.77Z"/>
      <path class="cls-9" d="M397.79,315.85c0-2.7.89-4.78,2.68-6.25,1.78-1.47,4.2-2.21,7.24-2.21s5.45.74,7.22,2.21c1.77,1.47,2.66,3.56,2.66,6.25v12.13h-4.75v-12.31c0-1.52-.44-2.66-1.33-3.42-.89-.76-2.15-1.14-3.8-1.14s-2.92.37-3.82,1.12c-.9.75-1.35,1.9-1.35,3.44v3.29c.32-.52.8-.95,1.44-1.27.64-.32,1.38-.49,2.23-.49h3.03v3.97h-3.37c-.97,0-1.77.32-2.4.95-.62.64-.94,1.4-.94,2.3v3.56h-4.75v-12.13Z"/>
      <path class="cls-9" d="M412.88,298.78h4.75v6.44h-4.75v-6.44Z"/>
      <path class="cls-9" d="M428.52,315.18c0-1.47-.29-2.52-.88-3.14-.59-.62-1.64-.94-3.16-.94-1.4,0-2.82.36-4.27,1.09v-3.71c.6-.3,1.39-.55,2.38-.77.99-.21,1.95-.32,2.9-.32,2.57,0,4.51.7,5.82,2.1,1.31,1.4,1.97,3.39,1.97,5.99v12.5h-4.75v-12.8Z"/>
      <path class="cls-9" d="M438.8,326.87c-.69-.74-1.03-1.76-1.03-3.09v-15.83h4.75v14.34c0,.65.14,1.1.41,1.35.27.25.72.37,1.35.37h1.31v3.97h-3.82c-1.3,0-2.29-.37-2.98-1.1Z"/>
      <path class="cls-9" d="M450.63,326.86c-1.36-1.12-2.04-2.71-2.04-4.75,0-1.35.34-2.53,1.03-3.56.69-1.02,1.66-1.82,2.92-2.4,1.26-.57,2.74-.86,4.44-.86,2.42,0,4.52.41,6.29,1.24v-.9c0-1.55-.46-2.69-1.37-3.42-.91-.74-2.38-1.1-4.4-1.1-1.22,0-2.43.13-3.61.37-1.19.25-2.21.59-3.09,1.01v-3.71c.8-.37,1.9-.7,3.31-.97,1.41-.27,2.79-.41,4.14-.41,2.02,0,3.77.31,5.24.94l1.65-1.87h5.24l-3.85,4.42c.97,1.1,1.46,2.65,1.46,4.64v12.46h-4.72v-7.71c-1.67-.85-3.58-1.27-5.73-1.27-1.4,0-2.44.27-3.13.8-.69.54-1.03,1.32-1.03,2.34,0,.92.31,1.6.94,2.04.62.44,1.61.66,2.96.66.85,0,1.58-.12,2.21-.37v3.63c-.92.3-2.08.45-3.48.45-2.22,0-4.01-.56-5.37-1.68Z"/>
      <path class="cls-9" d="M451.32,302.19h12.46v-4.04h4.27v7.07h-16.73v-3.03Z"/>
      <path class="cls-9" d="M475.31,326.82c-1.8-1.15-2.69-2.77-2.69-4.87,0-1.02.3-1.95.9-2.77.6-.82,1.37-1.4,2.32-1.72-.9-.42-1.63-1.04-2.19-1.83-.56-.8-.84-1.7-.84-2.7,0-1.67.57-3.01,1.72-4.02,1.15-1.01,2.84-1.52,5.09-1.52.7,0,1.37.04,2.02.13.65.09,1.16.19,1.53.32v3.71c-.32-.15-.74-.26-1.25-.34-.51-.07-.97-.11-1.37-.11-1.92,0-2.88.71-2.88,2.13,0,.77.24,1.35.71,1.72.47.37,1.24.56,2.28.56h2.51v3.86h-2.51c-2.12,0-3.18.86-3.18,2.58,0,.9.44,1.6,1.33,2.11.89.51,2.1.77,3.65.77,1.95,0,3.37-.4,4.29-1.2.91-.8,1.37-1.97,1.37-3.52v-12.2h4.75v12.13c0,1.42-.34,2.78-1.03,4.06-.69,1.29-1.81,2.35-3.37,3.18-1.56.84-3.56,1.25-6.01,1.25-2.97,0-5.35-.57-7.15-1.72Z"/>
      <path class="cls-9" d="M497.36,307.95h4.75v8.01l8.65-8.01h5.46l-5.46,5.05c2.02.52,3.43,1.37,4.23,2.55.8,1.17,1.2,2.73,1.2,4.68v7.75h-4.75v-7.41c0-1.42-.26-2.49-.77-3.22-.51-.72-1.44-1.24-2.79-1.53l-5.76,5.35v6.81h-4.75v-20.02Z"/>
      <path class="cls-9" d="M527.15,315.18c0-1.47-.29-2.52-.88-3.14-.59-.62-1.64-.94-3.16-.94-1.4,0-2.82.36-4.27,1.09v-3.71c.6-.3,1.39-.55,2.38-.77.99-.21,1.95-.32,2.9-.32,2.57,0,4.51.7,5.82,2.1,1.31,1.4,1.97,3.39,1.97,5.99v12.5h-4.75v-12.8Z"/>
      <path class="cls-9" d="M538.34,326.82c-1.8-1.15-2.69-2.77-2.69-4.87,0-1.02.3-1.95.9-2.77.6-.82,1.37-1.4,2.32-1.72-.9-.42-1.63-1.04-2.19-1.83-.56-.8-.84-1.7-.84-2.7,0-1.67.57-3.01,1.72-4.02,1.15-1.01,2.84-1.52,5.09-1.52.7,0,1.37.04,2.02.13.65.09,1.16.19,1.53.32v3.71c-.32-.15-.74-.26-1.25-.34-.51-.07-.97-.11-1.37-.11-1.92,0-2.88.71-2.88,2.13,0,.77.24,1.35.71,1.72.47.37,1.24.56,2.28.56h2.51v3.86h-2.51c-2.12,0-3.18.86-3.18,2.58,0,.9.44,1.6,1.33,2.11.89.51,2.1.77,3.65.77,1.95,0,3.37-.4,4.29-1.2.91-.8,1.37-1.97,1.37-3.52v-12.2h4.75v12.13c0,1.42-.34,2.78-1.03,4.06-.69,1.29-1.81,2.35-3.37,3.18-1.56.84-3.56,1.25-6.01,1.25-2.97,0-5.35-.57-7.15-1.72Z"/>
      <path class="cls-11" d="M118.34,385.15c-1.1-.41-2.16-1.09-3.18-2.04v2.1h-4.57v-27.66h4.72v11.45c.85-.77,1.88-1.35,3.09-1.74,1.21-.39,2.5-.58,3.87-.58,1.82,0,3.45.41,4.88,1.22,1.43.81,2.56,1.94,3.37,3.39.81,1.45,1.22,3.11,1.22,4.98s-.41,3.56-1.22,5c-.81,1.44-1.93,2.55-3.37,3.33-1.44.79-3.06,1.18-4.88,1.18-1.52,0-2.83-.21-3.93-.62ZM125.31,380.45c1.1-1.07,1.65-2.47,1.65-4.19s-.55-3.13-1.65-4.23c-1.1-1.1-2.5-1.65-4.19-1.65-1.35,0-2.55.37-3.61,1.1-1.06.74-1.79,1.72-2.19,2.94v3.63c.42,1.22,1.16,2.2,2.21,2.92,1.05.72,2.25,1.09,3.59,1.09,1.7,0,3.09-.54,4.19-1.61Z"/>
      <path class="cls-11" d="M136.25,363.34c-.51-.5-.77-1.12-.77-1.87s.26-1.38.77-1.89,1.14-.77,1.89-.77,1.38.26,1.91.77c.52.51.79,1.14.79,1.89s-.26,1.37-.79,1.87c-.52.5-1.16.75-1.91.75s-1.38-.25-1.89-.75ZM135.75,367.24h4.79v17.97h-4.79v-17.97Z"/>
      <path class="cls-11" d="M148.06,384.12c-1.02-1.1-1.53-2.64-1.53-4.64v-8.65h-2.69v-3.59h2.69v-5.39h4.72v5.39h4.3v3.59h-4.3v8.05c0,1.15.21,1.97.64,2.45s1.2.73,2.32.73c.77,0,1.53-.17,2.28-.52v3.59c-1.07.42-2.38.64-3.93.64-1.97,0-3.47-.55-4.49-1.65Z"/>
      <path class="cls-11" d="M159.67,384.66c-.37-.36-.56-.8-.56-1.33s.19-1.01.56-1.38c.37-.37.82-.56,1.35-.56s.97.19,1.35.56c.37.37.56.84.56,1.38s-.19.97-.56,1.33c-.37.36-.82.54-1.35.54s-.97-.18-1.35-.54Z"/>
      <path class="cls-11" d="M166.67,357.54h4.72v27.66h-4.72v-27.66Z"/>
      <path class="cls-11" d="M178.14,392.48c-.71-.09-1.27-.21-1.67-.36v-3.59c.62.25,1.4.37,2.32.37s1.66-.21,2.13-.64c.47-.42.89-1.1,1.24-2.02l.71-1.87-7.75-17.14h4.75l5.54,13.1,5.2-13.1h4.72l-7.86,19.58c-.8,1.97-1.77,3.43-2.9,4.38-1.14.95-2.6,1.42-4.4,1.42-.65,0-1.33-.04-2.04-.13Z"/>
      <path class="cls-11" d="M208.25,358.48h4.6l-10.67,26.72h-4.6l10.67-26.72Z"/>
      <path class="cls-11" d="M227.6,378.99h-12.5v-2.81l12.61-17.14h4.64v16.39h4.04v3.56h-4.04v6.21h-4.75v-6.21ZM228.28,375.43v-10.89l-7.97,10.89h7.97Z"/>
      <path class="cls-11" d="M242.09,385.24v-3.82c.97.45,2.2.67,3.67.67,2.45,0,4.38-.73,5.8-2.19s2.27-3.57,2.54-6.34c-1.6,1.7-3.85,2.55-6.77,2.55-1.7,0-3.2-.35-4.51-1.05-1.31-.7-2.33-1.7-3.07-2.99-.74-1.3-1.1-2.82-1.1-4.57s.39-3.27,1.16-4.64c.77-1.37,1.91-2.45,3.42-3.22,1.51-.77,3.3-1.16,5.37-1.16,1.95,0,3.69.45,5.24,1.35,1.55.9,2.76,2.21,3.65,3.93.89,1.72,1.33,3.78,1.33,6.18,0,3.37-.51,6.24-1.52,8.61-1.01,2.37-2.47,4.17-4.38,5.39-1.91,1.22-4.17,1.83-6.79,1.83-1.52,0-2.87-.18-4.04-.52ZM252.34,371.11c1-1.01,1.5-2.29,1.5-3.84,0-.95-.22-1.83-.66-2.64-.44-.81-1.05-1.46-1.83-1.95s-1.7-.73-2.75-.73c-1.6,0-2.88.49-3.84,1.46-.96.97-1.44,2.26-1.44,3.86s.48,2.92,1.44,3.89c.96.97,2.24,1.46,3.84,1.46,1.5,0,2.74-.51,3.74-1.52Z"/>
      <path class="cls-11" d="M266.4,384.58c-1.44-.79-2.56-1.9-3.37-3.33-.81-1.43-1.22-3.1-1.22-5s.41-3.53,1.22-4.98c.81-1.45,1.93-2.58,3.37-3.39,1.43-.81,3.06-1.22,4.88-1.22,2.94,0,5.26.77,6.96,2.32v-11.45h4.72v27.66h-4.57v-2.1c-1.02.95-2.08,1.63-3.18,2.04-1.1.41-2.41.62-3.93.62-1.82,0-3.45-.39-4.88-1.18ZM276.04,380.97c1.05-.72,1.78-1.7,2.21-2.92v-3.63c-.4-1.22-1.13-2.2-2.19-2.94-1.06-.74-2.26-1.1-3.61-1.1-1.7,0-3.09.55-4.19,1.65-1.1,1.1-1.65,2.51-1.65,4.23s.55,3.12,1.65,4.19c1.1,1.07,2.5,1.61,4.19,1.61,1.35,0,2.54-.36,3.59-1.09Z"/>
      <path class="cls-11" d="M285.77,367.24h4.75l4.87,12.43,4.87-12.43h4.75l-7.41,17.97h-4.42l-7.41-17.97Z"/>
      <path class="cls-11" d="M310.15,384.58c-1.44-.79-2.56-1.9-3.37-3.33-.81-1.43-1.22-3.1-1.22-5s.41-3.53,1.22-4.98c.81-1.45,1.93-2.58,3.37-3.39,1.43-.81,3.06-1.22,4.88-1.22,2.94,0,5.26.77,6.96,2.32v-11.45h4.72v27.66h-4.57v-2.1c-1.02.95-2.08,1.63-3.18,2.04-1.1.41-2.41.62-3.93.62-1.82,0-3.45-.39-4.88-1.18ZM319.79,380.97c1.05-.72,1.78-1.7,2.21-2.92v-3.63c-.4-1.22-1.13-2.2-2.19-2.94-1.06-.74-2.26-1.1-3.61-1.1-1.7,0-3.09.55-4.19,1.65-1.1,1.1-1.65,2.51-1.65,4.23s.55,3.12,1.65,4.19c1.1,1.07,2.5,1.61,4.19,1.61,1.35,0,2.54-.36,3.59-1.09Z"/>
      <path class="cls-11" d="M331.21,367.24h4.57v2.43c.85-1.02,1.86-1.78,3.03-2.26,1.17-.49,2.41-.73,3.71-.73,2.42,0,4.23.66,5.43,1.97s1.8,3.05,1.8,5.22v11.34h-4.72v-10.89c0-2.62-1.22-3.93-3.67-3.93-1.07,0-2.08.26-3.03.77-.95.51-1.75,1.28-2.4,2.3v11.75h-4.72v-17.97Z"/>
      <path class="cls-11" d="M354.04,357.54h4.72v11.98c1.7-1.9,3.89-2.84,6.59-2.84,2.42,0,4.23.66,5.43,1.97s1.8,3.05,1.8,5.22v11.34h-4.72v-10.89c0-2.62-1.22-3.93-3.67-3.93-1.07,0-2.08.26-3.03.77-.95.51-1.75,1.28-2.4,2.3v11.75h-4.72v-27.66Z"/>
      <path class="cls-11" d="M376.87,367.24h4.42v2.36c.8-.95,1.73-1.67,2.81-2.17,1.07-.5,2.16-.75,3.26-.75,1.4,0,2.52.23,3.37.69.85.46,1.48,1.15,1.91,2.08.8-.9,1.76-1.58,2.9-2.06,1.14-.47,2.26-.71,3.39-.71,2.25,0,3.85.56,4.83,1.68.97,1.12,1.46,2.77,1.46,4.94v11.9h-4.53v-11.27c0-1.27-.26-2.18-.77-2.73-.51-.55-1.33-.82-2.45-.82-.8,0-1.53.16-2.19.47-.66.31-1.27.84-1.82,1.59.05.8.07,1.45.07,1.95v10.82h-4.57v-11.34c0-1.3-.21-2.2-.64-2.71-.42-.51-1.2-.77-2.32-.77-1.7,0-3.22.96-4.57,2.88v11.94h-4.57v-17.97Z"/>
      <path class="cls-11" d="M108.35,388.95v-1.87h298.91v1.87H108.35Z"/>
    </g>
  </g>
  <g>
    <rect class="cls-3" x="198.92" y="413.22" width="557.05" height="142.43" rx="10.57" ry="10.57"/>
    <path class="cls-3" d="M236.78,418.04h30s-13.21-15.8-13.21-15.8c-.93-1.11-2.64-1.11-3.57,0l-13.21,15.8Z"/>
    <path class="cls-12" d="M252.29,404.16h0,0M251.78,404.78l8.67,10.36c.57.68,1.41,1.08,2.3,1.08h482.65c4.17,0,7.57,3.4,7.57,7.57v121.29c0,4.17-3.4,7.57-7.57,7.57H209.48c-4.17,0-7.57-3.4-7.57-7.57v-121.29c0-4.17,3.4-7.57,7.57-7.57h31.32c.89,0,1.73-.39,2.3-1.08l8.67-10.36M251.78,401.4c-.66,0-1.32.28-1.79.83l-9.18,10.98h-31.32c-5.84,0-10.57,4.73-10.57,10.57v121.29c0,5.84,4.73,10.57,10.57,10.57h535.91c5.84,0,10.57-4.73,10.57-10.57v-121.29c0-5.84-4.73-10.57-10.57-10.57h-482.65l-9.18-10.98c-.47-.56-1.13-.83-1.79-.83h0Z"/>
    <g>
      <path class="cls-10" d="M278.63,471.05c-1.25-.51-2.35-1.25-3.28-2.24v2.4h-5.8v-21.4h6.08v14.4c.59.99,1.29,1.71,2.12,2.18.83.47,1.8.7,2.92.7,2.75,0,4.12-1.29,4.12-3.88v-13.4h6.04v13.76c0,1.55-.32,2.95-.96,4.2-.64,1.25-1.59,2.24-2.84,2.96-1.25.72-2.76,1.08-4.52,1.08-1.33,0-2.63-.25-3.88-.76Z"/>
      <path class="cls-10" d="M272.35,443.33h13.04v-4.24h5.48v8.08h-18.52v-3.84Z"/>
      <path class="cls-10" d="M296.41,469.97c-1.45-1.23-2.18-2.96-2.18-5.2s.79-4,2.38-5.28c1.59-1.28,3.77-1.92,6.54-1.92,2.59,0,4.8.43,6.64,1.28v-.84c0-1.44-.47-2.51-1.42-3.2-.95-.69-2.47-1.04-4.58-1.04-1.31,0-2.59.13-3.84.4-1.25.27-2.37.64-3.36,1.12v-4.56c.88-.43,2.09-.79,3.64-1.08,1.55-.29,3.11-.44,4.68-.44,3.57,0,6.29.79,8.14,2.38,1.85,1.59,2.78,3.71,2.78,6.38v13.24h-6.04v-7.96c-1.55-.8-3.36-1.2-5.44-1.2-1.36,0-2.35.23-2.98.68-.63.45-.94,1.16-.94,2.12,0,.88.29,1.54.86,1.98.57.44,1.49.66,2.74.66.88,0,1.63-.13,2.24-.4v4.2c-1.04.35-2.37.52-4,.52-2.45,0-4.41-.61-5.86-1.84Z"/>
      <path class="cls-10" d="M297.27,443.33h18.52v3.84h-18.52v-3.84Z"/>
      <path class="cls-10" d="M319.19,452.49h6.04l4.56,14.2c1.97,0,3.49-.59,4.56-1.78s1.6-2.87,1.6-5.06c0-1.97-.37-3.45-1.12-4.44-.75-.99-1.89-1.48-3.44-1.48-.85,0-1.71.13-2.56.4v-4.56c1.12-.37,2.39-.56,3.8-.56,3.17,0,5.55.93,7.14,2.78,1.59,1.85,2.38,4.47,2.38,7.86,0,2.37-.52,4.41-1.56,6.12-1.04,1.71-2.45,3.01-4.22,3.9-1.77.89-3.71,1.34-5.82,1.34h-5.36l-6-18.72Z"/>
      <path class="cls-10" d="M346.67,458.45l-2-3.4c3.12-3.89,7.13-5.84,12.04-5.84,3.44,0,6.09.76,7.94,2.28,1.85,1.52,2.78,3.64,2.78,6.36v13.36h-6.08v-12.88c0-2.93-1.55-4.4-4.64-4.4-1.15,0-2.17.16-3.06.48-.89.32-1.73.84-2.5,1.56l1.56,2.56v12.68h-6.04v-12.76Z"/>
      <path class="cls-10" d="M356.59,444.13c0-1.17.31-2.05.94-2.64.63-.59,1.62-.88,2.98-.88h9v3.8h-6.4c-.4,0-.69.09-.86.26-.17.17-.26.46-.26.86v1.64h-5.4v-3.04Z"/>
      <path class="cls-10" d="M372.77,469.95c-.79-.84-1.18-2.01-1.18-3.5v-16.64h6.08v15c0,.64.13,1.09.4,1.36.27.27.71.4,1.32.4h1.4v4.64h-4.64c-1.47,0-2.59-.42-3.38-1.26ZM384.01,469.95c-.79-.84-1.18-2.01-1.18-3.5v-16.64h6.04v15c0,.64.13,1.09.4,1.36.27.27.72.4,1.36.4h1.4v4.64h-4.64c-1.47,0-2.59-.42-3.38-1.26Z"/>
      <path class="cls-10" d="M399.15,470.73c-1.25-.72-2.21-1.71-2.86-2.96-.65-1.25-.98-2.65-.98-4.2v-13.76h6.08v13.4c0,2.59,1.37,3.88,4.12,3.88,1.12,0,2.09-.23,2.9-.7.81-.47,1.53-1.19,2.14-2.18v-14.4h6.04v21.4h-5.76v-2.4c-.93.99-2.03,1.73-3.3,2.24-1.27.51-2.57.76-3.9.76-1.73,0-3.23-.36-4.48-1.08Z"/>
      <path class="cls-10" d="M426.03,470.63c-1.65-.79-2.93-1.87-3.84-3.26-.91-1.39-1.36-2.96-1.36-4.72v-12.84h6.08v12.44c0,1.55.41,2.74,1.22,3.58.81.84,2.05,1.26,3.7,1.26s2.88-.42,3.68-1.26c.8-.84,1.2-2.03,1.2-3.58v-12.44h6.08v12.84c0,1.76-.45,3.33-1.36,4.72-.91,1.39-2.19,2.47-3.84,3.26s-3.57,1.18-5.76,1.18-4.15-.39-5.8-1.18Z"/>
      <path class="cls-10" d="M455.99,471.05c-1.25-.51-2.35-1.25-3.28-2.24v2.4h-5.8v-21.4h6.08v14.4c.59.99,1.29,1.71,2.12,2.18.83.47,1.8.7,2.92.7,2.75,0,4.12-1.29,4.12-3.88v-13.4h6.04v13.76c0,1.55-.32,2.95-.96,4.2-.64,1.25-1.59,2.24-2.84,2.96-1.25.72-2.76,1.08-4.52,1.08-1.33,0-2.63-.25-3.88-.76Z"/>
      <path class="cls-10" d="M478.83,457.89c0-1.39-.29-2.39-.88-3.02-.59-.63-1.61-.94-3.08-.94s-2.84.36-4.28,1.08v-4.6c.64-.32,1.5-.6,2.58-.84,1.08-.24,2.13-.36,3.14-.36,2.8,0,4.93.75,6.4,2.24,1.47,1.49,2.2,3.65,2.2,6.48v13.28h-6.08v-13.32Z"/>
      <path class="cls-10" d="M504.25,469.95c-.79-.84-1.18-2.01-1.18-3.5v-16.64h6.08v15c0,.64.13,1.09.4,1.36.27.27.71.4,1.32.4h1.4v4.64h-4.64c-1.47,0-2.59-.42-3.38-1.26Z"/>
      <path class="cls-10" d="M524.63,471.05c-1.25-.51-2.35-1.25-3.28-2.24v2.4h-5.8v-21.4h6.08v14.4c.59.99,1.29,1.71,2.12,2.18.83.47,1.8.7,2.92.7,2.75,0,4.12-1.29,4.12-3.88v-13.4h6.04v13.76c0,1.55-.32,2.95-.96,4.2-.64,1.25-1.59,2.24-2.84,2.96-1.25.72-2.76,1.08-4.52,1.08-1.33,0-2.63-.25-3.88-.76Z"/>
      <path class="cls-10" d="M518.39,443.33h7.44v-4.24h4.2v4.24h2.68v-4.24h4.16v8.08h-18.48v-3.84Z"/>
      <path class="cls-10" d="M531.39,431.09h5.44v5.64h-5.44v-5.64Z"/>
      <path class="cls-10" d="M544.55,471.27c-1.73-.36-3.17-.86-4.32-1.5v-11.24h10.12v4.44h-4.16v3.44c.83.45,2.04.68,3.64.68,4.24,0,6.36-2.21,6.36-6.64,0-2.27-.61-3.92-1.84-4.96-1.23-1.04-3.29-1.56-6.2-1.56-1.33,0-2.7.14-4.1.42-1.4.28-2.58.67-3.54,1.18v-4.72c1.09-.51,2.41-.9,3.96-1.18,1.55-.28,3.16-.42,4.84-.42,4.29,0,7.55.98,9.78,2.94s3.34,4.73,3.34,8.3-1.09,6.29-3.28,8.32c-2.19,2.03-5.29,3.04-9.32,3.04-1.79,0-3.55-.18-5.28-.54Z"/>
      <path class="cls-10" d="M565.79,458.37c0-2.96.99-5.23,2.98-6.8,1.99-1.57,4.66-2.36,8.02-2.36s6.03.79,8,2.36c1.97,1.57,2.96,3.84,2.96,6.8v12.84h-6.08v-12.88c0-1.47-.42-2.57-1.26-3.3-.84-.73-2.05-1.1-3.62-1.1s-2.82.37-3.66,1.1c-.84.73-1.26,1.83-1.26,3.3v3.04c.32-.48.79-.86,1.42-1.14.63-.28,1.33-.42,2.1-.42h3.12v4.64h-3.44c-.93,0-1.7.29-2.3.88-.6.59-.9,1.35-.9,2.28v3.6h-6.08v-12.84Z"/>
      <path class="cls-10" d="M593.29,469.97c-1.45-1.23-2.18-2.96-2.18-5.2s.79-4,2.38-5.28c1.59-1.28,3.77-1.92,6.54-1.92,2.59,0,4.8.43,6.64,1.28v-.84c0-1.44-.47-2.51-1.42-3.2-.95-.69-2.47-1.04-4.58-1.04-1.31,0-2.59.13-3.84.4-1.25.27-2.37.64-3.36,1.12v-4.56c.88-.43,2.09-.79,3.64-1.08,1.55-.29,3.11-.44,4.68-.44,3.57,0,6.29.79,8.14,2.38,1.85,1.59,2.78,3.71,2.78,6.38v13.24h-6.04v-7.96c-1.55-.8-3.36-1.2-5.44-1.2-1.36,0-2.35.23-2.98.68-.63.45-.94,1.16-.94,2.12,0,.88.29,1.54.86,1.98.57.44,1.49.66,2.74.66.88,0,1.63-.13,2.24-.4v4.2c-1.04.35-2.37.52-4,.52-2.45,0-4.41-.61-5.86-1.84Z"/>
      <path class="cls-10" d="M594.15,443.33h18.52v3.84h-18.52v-3.84Z"/>
      <path class="cls-10" d="M617.99,458.45l-2-3.4c3.12-3.89,7.13-5.84,12.04-5.84,3.44,0,6.09.76,7.94,2.28s2.78,3.64,2.78,6.36v13.36h-6.08v-12.88c0-2.93-1.55-4.4-4.64-4.4-1.15,0-2.17.16-3.06.48-.89.32-1.73.84-2.5,1.56l1.56,2.56v12.68h-6.04v-12.76Z"/>
      <path class="cls-10" d="M642.75,459.45h6l1.8,7.24c1.84,0,3.37-.57,4.58-1.7,1.21-1.13,1.82-2.69,1.82-4.66,0-2.13-.57-3.73-1.7-4.8-1.13-1.07-3.07-1.6-5.82-1.6-1.28,0-2.6.13-3.96.4s-2.48.61-3.36,1.04v-4.68c1.07-.45,2.34-.81,3.82-1.08,1.48-.27,2.98-.4,4.5-.4,4.13,0,7.29.94,9.46,2.82,2.17,1.88,3.26,4.62,3.26,8.22,0,2.19-.54,4.11-1.62,5.76-1.08,1.65-2.53,2.93-4.36,3.84-1.83.91-3.83,1.36-6.02,1.36h-5.48l-2.92-11.76Z"/>
      <path class="cls-10" d="M666.63,457.79c-.59-.6-.88-1.51-.88-2.74v-3.12h5.44v1.72c0,.35.08.6.24.76.16.16.44.24.84.24h4.72v4.04h-7.48c-1.33,0-2.29-.3-2.88-.9ZM666.63,468.57c-.59-.61-.88-1.53-.88-2.76v-3.12h5.44v1.72c0,.35.08.6.24.76s.44.24.84.24h4.72v4.08h-7.48c-1.33,0-2.29-.31-2.88-.92Z"/>
      <path class="cls-10" d="M270.73,524.95c-.79-.84-1.18-2.01-1.18-3.5v-16.64h6.08v15c0,.64.13,1.09.4,1.36.27.27.71.4,1.32.4h1.4v4.64h-4.64c-1.47,0-2.59-.42-3.38-1.26Z"/>
      <path class="cls-10" d="M287.23,525.63c-1.65-.79-2.93-1.87-3.84-3.26-.91-1.39-1.36-2.96-1.36-4.72v-12.84h6.08v12.44c0,1.55.41,2.74,1.22,3.58.81.84,2.05,1.26,3.7,1.26s2.88-.42,3.68-1.26c.8-.84,1.2-2.03,1.2-3.58v-19.6h6.08v20c0,1.76-.45,3.33-1.36,4.72-.91,1.39-2.19,2.47-3.84,3.26-1.65.79-3.57,1.18-5.76,1.18s-4.15-.39-5.8-1.18Z"/>
      <path class="cls-10" d="M282.95,501.07c-.93-.84-1.4-1.97-1.4-3.38,0-1.79.52-3.13,1.56-4.04,1.04-.91,2.45-1.36,4.24-1.36h9.04v3.16h-8.64c-1.47,0-2.2.6-2.2,1.8,0,.56.15.99.46,1.3.31.31.74.46,1.3.46.61,0,1.08-.17,1.4-.52.32-.35.48-.81.48-1.4h3.12c0,1.17.67,1.76,2,1.76h1.48v3.32h-1.36c-.93,0-1.73-.17-2.4-.5-.67-.33-1.11-.75-1.32-1.26-.24.53-.73.99-1.48,1.36s-1.59.56-2.52.56c-1.57,0-2.83-.42-3.76-1.26Z"/>
      <path class="cls-10" d="M311.99,525.73c-1.25-.72-2.21-1.71-2.86-2.96-.65-1.25-.98-2.65-.98-4.2v-13.76h6.08v13.4c0,2.59,1.37,3.88,4.12,3.88,1.12,0,2.09-.23,2.9-.7.81-.47,1.53-1.19,2.14-2.18v-14.4h6.04v21.4h-5.76v-2.4c-.93.99-2.03,1.73-3.3,2.24-1.27.51-2.57.76-3.9.76-1.73,0-3.23-.36-4.48-1.08Z"/>
      <path class="cls-10" d="M334.75,513.45l-2-3.4c3.12-3.89,7.13-5.84,12.04-5.84,3.44,0,6.09.76,7.94,2.28,1.85,1.52,2.78,3.64,2.78,6.36v13.36h-6.08v-12.88c0-2.93-1.55-4.4-4.64-4.4-1.15,0-2.17.16-3.06.48-.89.32-1.73.84-2.5,1.56l1.56,2.56v12.68h-6.04v-12.76Z"/>
      <path class="cls-10" d="M366.11,512.89c0-1.39-.29-2.39-.88-3.02-.59-.63-1.61-.94-3.08-.94s-2.84.36-4.28,1.08v-4.6c.64-.32,1.5-.6,2.58-.84,1.08-.24,2.13-.36,3.14-.36,2.8,0,4.93.75,6.4,2.24,1.47,1.49,2.2,3.65,2.2,6.48v13.28h-6.08v-13.32Z"/>
      <path class="cls-10" d="M379.57,526.35c-1.61-.31-2.89-.77-3.82-1.38v-4.64c1.17.69,2.49,1.23,3.94,1.6s2.77.56,3.94.56c1.41,0,2.45-.14,3.1-.42.65-.28.98-.78.98-1.5,0-.64-.31-1.13-.94-1.48-.63-.35-1.79-.79-3.5-1.32l-1-.32c-2.29-.72-3.99-1.59-5.08-2.6-1.09-1.01-1.64-2.4-1.64-4.16,0-2.05.83-3.65,2.48-4.78,1.65-1.13,3.88-1.7,6.68-1.7,1.52,0,2.99.16,4.4.48s2.55.73,3.4,1.24v4.76c-.85-.59-1.91-1.06-3.18-1.42-1.27-.36-2.51-.54-3.74-.54-2.59,0-3.88.65-3.88,1.96,0,.64.31,1.13.92,1.48.61.35,1.71.76,3.28,1.24l1.44.44c1.68.53,2.99,1.12,3.94,1.76.95.64,1.61,1.36,1.98,2.16.37.8.56,1.77.56,2.92,0,1.84-.79,3.32-2.38,4.44-1.59,1.12-3.95,1.68-7.1,1.68-1.57,0-3.17-.15-4.78-.46Z"/>
      <path class="cls-10" d="M398.37,524.95c-.79-.84-1.18-2.01-1.18-3.5v-16.64h6.08v15c0,.64.13,1.09.4,1.36.27.27.71.4,1.32.4h1.4v4.64h-4.64c-1.47,0-2.59-.42-3.38-1.26Z"/>
      <path class="cls-10" d="M408.47,504.81h6.08l3,13.08,3.68-13.08h4.4l3.68,13.08,3-13.08h6.08l-5.96,21.4h-5.16l-3.84-13.32-3.84,13.32h-5.16l-5.96-21.4Z"/>
      <path class="cls-10" d="M413.99,498.33h18.52v3.84h-18.52v-3.84Z"/>
      <path class="cls-10" d="M427.07,488.89h5.44v5.64h-5.44v-5.64Z"/>
      <path class="cls-10" d="M450.43,526.05c-1.25-.51-2.35-1.25-3.28-2.24v2.4h-5.8v-21.4h6.08v14.4c.59.99,1.29,1.71,2.12,2.18.83.47,1.8.7,2.92.7,2.75,0,4.12-1.29,4.12-3.88v-13.4h6.04v13.76c0,1.55-.32,2.95-.96,4.2-.64,1.25-1.59,2.24-2.84,2.96-1.25.72-2.76,1.08-4.52,1.08-1.33,0-2.63-.25-3.88-.76Z"/>
      <path class="cls-10" d="M468.01,524.95c-.79-.84-1.18-2.01-1.18-3.5v-16.64h6.08v15c0,.64.13,1.09.4,1.36.27.27.71.4,1.32.4h1.4v4.64h-4.64c-1.47,0-2.59-.42-3.38-1.26Z"/>
      <path class="cls-10" d="M478.11,504.81h6.08l3,13.08,3.68-13.08h4.4l3.68,13.08,3-13.08h6.08l-5.96,21.4h-5.16l-3.84-13.32-3.84,13.32h-5.16l-5.96-21.4Z"/>
      <path class="cls-10" d="M483.71,498.33h7.44v-4.24h4.2v4.24h2.68v-4.24h4.16v8.08h-18.48v-3.84Z"/>
      <path class="cls-10" d="M496.71,486.09h5.44v5.64h-5.44v-5.64Z"/>
      <path class="cls-10" d="M514.51,526.27c-1.73-.36-3.17-.86-4.32-1.5v-11.24h10.12v4.44h-4.16v3.44c.83.45,2.04.68,3.64.68,4.24,0,6.36-2.21,6.36-6.64,0-2.27-.61-3.92-1.84-4.96-1.23-1.04-3.29-1.56-6.2-1.56-1.33,0-2.7.14-4.1.42-1.4.28-2.58.67-3.54,1.18v-4.72c1.09-.51,2.41-.9,3.96-1.18,1.55-.28,3.16-.42,4.84-.42,4.29,0,7.55.98,9.78,2.94s3.34,4.73,3.34,8.3-1.09,6.29-3.28,8.32c-2.19,2.03-5.29,3.04-9.32,3.04-1.79,0-3.55-.18-5.28-.54Z"/>
      <path class="cls-10" d="M536.69,524.95c-.79-.84-1.18-2.01-1.18-3.5v-9.64c0-1.25.24-2.33.72-3.24.48-.91,1.15-1.87,2-2.88.56-.64.98-1.19,1.26-1.64.28-.45.42-.92.42-1.4,0-.77-.2-1.33-.6-1.68-.4-.35-1.08-.52-2.04-.52-1.55,0-2.99.49-4.32,1.48v-4.64c.83-.51,1.8-.89,2.92-1.16,1.12-.27,2.27-.4,3.44-.4,2.29,0,4.01.53,5.14,1.58,1.13,1.05,1.7,2.42,1.7,4.1,0,.99-.19,1.85-.56,2.58-.37.73-.95,1.62-1.72,2.66-.75.96-1.31,1.82-1.7,2.58-.39.76-.58,1.62-.58,2.58v8c0,.64.13,1.09.4,1.36.27.27.71.4,1.32.4h1.4v4.64h-4.64c-1.47,0-2.59-.42-3.38-1.26Z"/>
      <path class="cls-10" d="M552.15,525.73c-1.25-.72-2.21-1.71-2.86-2.96-.65-1.25-.98-2.65-.98-4.2v-13.76h6.08v13.4c0,2.59,1.37,3.88,4.12,3.88,1.12,0,2.09-.23,2.9-.7.81-.47,1.53-1.19,2.14-2.18v-14.4h6.04v21.4h-5.76v-2.4c-.93.99-2.03,1.73-3.3,2.24-1.27.51-2.57.76-3.9.76-1.73,0-3.23-.36-4.48-1.08Z"/>
      <path class="cls-10" d="M574.97,524.95c-.79-.84-1.18-2.01-1.18-3.5v-16.64h6.08v15c0,.64.13,1.09.4,1.36.27.27.71.4,1.32.4h1.4v4.64h-4.64c-1.47,0-2.59-.42-3.38-1.26ZM586.21,524.95c-.79-.84-1.18-2.01-1.18-3.5v-16.64h6.04v15c0,.64.13,1.09.4,1.36.27.27.72.4,1.36.4h1.4v4.64h-4.64c-1.47,0-2.59-.42-3.38-1.26Z"/>
      <path class="cls-10" d="M601.03,526.27c-1.73-.36-3.17-.86-4.32-1.5v-11.24h10.12v4.44h-4.16v3.44c.83.45,2.04.68,3.64.68,4.24,0,6.36-2.21,6.36-6.64,0-2.27-.61-3.92-1.84-4.96-1.23-1.04-3.29-1.56-6.2-1.56-1.33,0-2.7.14-4.1.42-1.4.28-2.58.67-3.54,1.18v-4.72c1.09-.51,2.41-.9,3.96-1.18,1.55-.28,3.16-.42,4.84-.42,4.29,0,7.55.98,9.78,2.94,2.23,1.96,3.34,4.73,3.34,8.3s-1.09,6.29-3.28,8.32c-2.19,2.03-5.29,3.04-9.32,3.04-1.79,0-3.55-.18-5.28-.54Z"/>
      <path class="cls-10" d="M627.47,525.63c-1.65-.79-2.93-1.87-3.84-3.26-.91-1.39-1.36-2.96-1.36-4.72v-12.84h6.08v12.44c0,1.55.41,2.74,1.22,3.58.81.84,2.05,1.26,3.7,1.26s2.88-.42,3.68-1.26c.8-.84,1.2-2.03,1.2-3.58v-19.6h6.08v20c0,1.76-.45,3.33-1.36,4.72-.91,1.39-2.19,2.47-3.84,3.26-1.65.79-3.57,1.18-5.76,1.18s-4.15-.39-5.8-1.18Z"/>
      <path class="cls-10" d="M649.57,524.95c-.79-.84-1.18-2.01-1.18-3.5v-16.64h6.08v15c0,.64.13,1.09.4,1.36.27.27.71.4,1.32.4h1.4v4.64h-4.64c-1.47,0-2.59-.42-3.38-1.26ZM660.81,524.95c-.79-.84-1.18-2.01-1.18-3.5v-16.64h6.04v15c0,.64.13,1.09.4,1.36.27.27.72.4,1.36.4h1.4v4.64h-4.64c-1.47,0-2.59-.42-3.38-1.26Z"/>
      <path class="cls-10" d="M676.43,525.81c-1.57-.67-2.77-1.6-3.6-2.8-.83-1.2-1.24-2.56-1.24-4.08v-1c0-.96.19-1.83.56-2.6.37-.77.89-1.64,1.56-2.6.43-.59.73-1.06.92-1.42s.28-.69.28-.98c0-.75-.45-1.12-1.36-1.12h-2.24v-4.4h5.8c1.2,0,2.16.35,2.88,1.04.72.69,1.08,1.6,1.08,2.72,0,.8-.15,1.54-.44,2.22-.29.68-.73,1.46-1.32,2.34-.56.88-.98,1.63-1.26,2.24-.28.61-.42,1.28-.42,2v.84c0,1.25.37,2.21,1.12,2.88.75.67,1.81,1,3.2,1,1.47,0,2.58-.41,3.34-1.22s1.14-1.99,1.14-3.54c0-3.25-1.27-4.88-3.8-4.88v-2.92l3.88-5.32h6.44l-4.36,5.96c1.41.72,2.42,1.66,3.02,2.82.6,1.16.9,2.63.9,4.42s-.42,3.47-1.26,4.88c-.84,1.41-2.06,2.52-3.66,3.32-1.6.8-3.48,1.2-5.64,1.2s-3.95-.33-5.52-1Z"/>
      <path class="cls-10" d="M698.43,524.07c-1.92-1.83-2.88-4.51-2.88-8.06,0-2.43.35-4.53,1.04-6.3.69-1.77,1.67-3.13,2.94-4.08,1.27-.95,2.73-1.42,4.38-1.42.99,0,1.85.19,2.58.56.73.37,1.33.89,1.78,1.56.51-.72,1.21-1.25,2.1-1.6.89-.35,1.9-.52,3.02-.52,2.03,0,3.6.62,4.72,1.86,1.12,1.24,1.68,2.87,1.68,4.9v15.24h-6.04v-14.64c0-.91-.14-1.57-.42-2-.28-.43-.75-.64-1.42-.64-1.17,0-1.91.72-2.2,2.16h-2.84c-.19-1.44-.81-2.16-1.88-2.16-.96,0-1.73.6-2.32,1.8-.59,1.2-.88,2.96-.88,5.28,0,2.08.45,3.61,1.34,4.6.89.99,2.31,1.48,4.26,1.48,1.01,0,1.92-.15,2.72-.44v4.64c-1.04.35-2.32.52-3.84.52-3.31,0-5.92-.91-7.84-2.74Z"/>
    </g>
    <path class="cls-10" d="M252.49,444.95l-17.81-7.42c-.14-1.19-1.14-2.11-2.36-2.11-1.32,0-2.39,1.07-2.39,2.39v29.02h-.71c-1.21,0-2.19.98-2.19,2.19s.98,2.19,2.19,2.19h6.53c1.21,0,2.19-.98,2.19-2.19s-.98-2.19-2.19-2.19h-1.03v-7.38l17.95-8.79c1.12-.54,1.8-1.66,1.76-2.9-.04-1.25-.78-2.33-1.93-2.81ZM247.37,447.81l-12.67,6.2v-11.47l12.67,5.27Z"/>
  </g>
</svg>