<?xml version="1.0" encoding="UTF-8"?>
<svg id="Layer_1" data-name="Layer 1" xmlns="http://www.w3.org/2000/svg" viewBox="0 0 600 600">
  <defs>
    <style>
      .cls-1 {
        fill: #accdf8;
      }

      .cls-2 {
        fill: #bdd8fb;
      }

      .cls-3 {
        fill: #ddeafd;
        opacity: .5;
      }

      .cls-4 {
        fill: #326499;
      }

      .cls-5 {
        stroke-width: 2px;
      }

      .cls-5, .cls-6 {
        stroke: #bdd8fb;
        stroke-miterlimit: 10;
      }

      .cls-5, .cls-6, .cls-7 {
        fill: #f0f7ff;
      }

      .cls-6 {
        stroke-width: 2px;
      }
    </style>
  </defs>
  <rect class="cls-1" y="0" width="600" height="600" rx="30" ry="30"/>
  <g>
    <path class="cls-4" d="M84.2,103.99h-8.14v-8.43h8.14v-8.28h8.72v8.28h8.14v8.43h-8.14v8.28h-8.72v-8.28Z"/>
    <path class="cls-4" d="M115.73,120.01c-3.1-1.82-5.53-4.43-7.3-7.85-1.77-3.41-2.65-7.47-2.65-12.17,0-6.34,1.04-11.79,3.12-16.34,2.08-4.55,5.01-8,8.79-10.35,3.78-2.35,8.21-3.52,13.29-3.52,3.2,0,6.05.39,8.57,1.16v9.15c-2.03-1.02-4.6-1.53-7.7-1.53-4.17,0-7.51,1.2-10.03,3.6-2.52,2.4-4.04,5.9-4.58,10.5,1.4-1.45,3.22-2.57,5.45-3.34,2.23-.77,4.62-1.16,7.19-1.16,3.24,0,6.11.67,8.61,2,2.49,1.33,4.43,3.27,5.81,5.81,1.38,2.54,2.07,5.53,2.07,8.97s-.78,6.43-2.32,9.12c-1.55,2.69-3.84,4.81-6.87,6.36-3.03,1.55-6.65,2.33-10.86,2.33-3.97,0-7.51-.91-10.61-2.72ZM132.84,111.91c1.67-1.65,2.51-3.78,2.51-6.39s-.84-4.77-2.51-6.47c-1.67-1.69-3.81-2.54-6.43-2.54-2.47,0-4.55.86-6.25,2.58-1.7,1.72-2.54,3.86-2.54,6.43,0,2.42.84,4.5,2.51,6.25,1.67,1.74,3.77,2.62,6.28,2.62s4.76-.82,6.43-2.47Z"/>
    <path class="cls-4" d="M161.68,119.58c-3.41-2.11-6.04-5.16-7.88-9.15-1.84-4-2.76-8.71-2.76-14.13s.91-10.2,2.72-14.17c1.82-3.97,4.43-7.02,7.85-9.15,3.41-2.13,7.45-3.2,12.1-3.2s8.67,1.07,12.06,3.2c3.39,2.13,5.99,5.18,7.81,9.15,1.82,3.97,2.72,8.69,2.72,14.17s-.92,10.13-2.76,14.13c-1.84,4-4.46,7.05-7.85,9.15-3.39,2.11-7.39,3.16-11.99,3.16s-8.61-1.05-12.02-3.16ZM182.13,108.28c1.99-2.86,2.98-6.8,2.98-11.84s-.98-9.08-2.94-11.99c-1.96-2.91-4.78-4.36-8.46-4.36s-6.5,1.45-8.46,4.36c-1.96,2.91-2.94,6.9-2.94,11.99s.99,8.98,2.98,11.84c1.99,2.86,4.79,4.29,8.43,4.29s6.44-1.43,8.43-4.29Z"/>
    <path class="cls-4" d="M211.55,82.93l-10.53,7.63v-10.61l12.35-9.08h9.23v50.78h-11.04v-38.72Z"/>
    <path class="cls-4" d="M228.7,115.03l9.08-8.28c1.84-1.65,3.22-2.86,4.14-3.63,2.76-2.42,4.87-4.37,6.32-5.85,1.45-1.48,2.64-3.01,3.56-4.61.92-1.6,1.38-3.24,1.38-4.94,0-2.37-.69-4.24-2.07-5.59-1.38-1.36-3.52-2.03-6.43-2.03-2.42,0-4.84.42-7.26,1.27-2.42.85-4.65,2.05-6.68,3.6v-10.53c2.13-1.5,4.56-2.65,7.3-3.45,2.74-.8,5.7-1.2,8.9-1.2,3.68,0,6.85.68,9.52,2.03,2.66,1.36,4.7,3.27,6.1,5.74,1.4,2.47,2.11,5.3,2.11,8.5,0,3.58-.91,6.77-2.72,9.55-1.82,2.79-4.76,6.07-8.83,9.84l-7.77,7.12h21.07v9.08h-37.7v-6.61Z"/>
    <path class="cls-4" d="M278.39,121.97c-2.86-.51-5.3-1.27-7.34-2.29v-8.57c4.7,2.13,9.61,3.2,14.75,3.2,3.78,0,6.6-.63,8.46-1.89,1.86-1.26,2.8-3.05,2.8-5.38,0-2.47-.92-4.22-2.76-5.27-1.84-1.04-4.67-1.56-8.5-1.56h-6.68v-8.43h6.39c3.15,0,5.6-.57,7.37-1.71,1.77-1.14,2.65-2.82,2.65-5.05s-.8-3.92-2.4-5.08c-1.6-1.16-3.83-1.74-6.68-1.74s-5.22.33-7.52.98c-2.3.65-4.54,1.68-6.72,3.09v-8.72c2.18-1.21,4.62-2.14,7.34-2.8,2.71-.65,5.52-.98,8.43-.98,6.34,0,11.07,1.3,14.17,3.89,3.1,2.59,4.65,6.24,4.65,10.93,0,2.32-.59,4.49-1.78,6.5-1.19,2.01-2.94,3.62-5.27,4.83,5.67,2.08,8.5,5.96,8.5,11.62,0,10.12-6.95,15.18-20.85,15.18-3.15,0-6.15-.25-9.01-.76Z"/>
    <path class="cls-4" d="M335.34,110.39h-23.83v-6.68l24.26-32.84h10.9v31.02h7.48v8.5h-7.48v11.26h-11.33v-11.26ZM336.94,101.89v-17.87l-13.08,17.87h13.08Z"/>
    <path class="cls-4" d="M364.29,121.83c-2.74-.61-5.03-1.44-6.87-2.51v-9.52c2.13,1.36,4.52,2.41,7.16,3.16,2.64.75,5.15,1.13,7.52,1.13,3.78,0,6.61-.74,8.5-2.22,1.89-1.48,2.83-3.62,2.83-6.43s-.93-4.79-2.8-6.25c-1.87-1.45-4.49-2.18-7.88-2.18-1.7,0-3.48.17-5.34.51-1.87.34-3.5.8-4.9,1.38l-4.43-2.54,2.03-25.5h31.17v9.08h-20.78l-.8,9.81c2.66-.58,5.33-.87,7.99-.87,5.33,0,9.48,1.44,12.46,4.32,2.98,2.88,4.47,6.89,4.47,12.02,0,5.57-1.85,9.88-5.56,12.93-3.71,3.05-9.19,4.58-16.46,4.58-2.81,0-5.58-.3-8.32-.91Z"/>
    <path class="cls-4" d="M409.3,120.01c-3.1-1.82-5.53-4.43-7.3-7.85-1.77-3.41-2.65-7.47-2.65-12.17,0-6.34,1.04-11.79,3.12-16.34,2.08-4.55,5.01-8,8.79-10.35,3.78-2.35,8.21-3.52,13.29-3.52,3.2,0,6.05.39,8.57,1.16v9.15c-2.03-1.02-4.6-1.53-7.7-1.53-4.17,0-7.51,1.2-10.03,3.6-2.52,2.4-4.04,5.9-4.58,10.5,1.4-1.45,3.22-2.57,5.45-3.34,2.23-.77,4.62-1.16,7.19-1.16,3.24,0,6.11.67,8.61,2,2.49,1.33,4.43,3.27,5.81,5.81,1.38,2.54,2.07,5.53,2.07,8.97s-.78,6.43-2.32,9.12c-1.55,2.69-3.84,4.81-6.87,6.36-3.03,1.55-6.65,2.33-10.86,2.33-3.97,0-7.51-.91-10.61-2.72ZM426.41,111.91c1.67-1.65,2.51-3.78,2.51-6.39s-.84-4.77-2.51-6.47c-1.67-1.69-3.81-2.54-6.43-2.54-2.47,0-4.55.86-6.25,2.58-1.7,1.72-2.54,3.86-2.54,6.43,0,2.42.84,4.5,2.51,6.25,1.67,1.74,3.77,2.62,6.28,2.62s4.76-.82,6.43-2.47Z"/>
    <path class="cls-4" d="M468.14,79.95h-24.26v-9.08h35.96v7.48l-19.69,43.3h-10.97l18.96-41.7Z"/>
    <path class="cls-4" d="M489.21,118.74c-3.63-2.66-5.45-6.46-5.45-11.41,0-3,.73-5.53,2.18-7.59,1.45-2.06,3.39-3.55,5.81-4.47-1.99-1.11-3.52-2.64-4.61-4.58-1.09-1.94-1.63-4.09-1.63-6.46,0-4.5,1.66-8.04,4.98-10.61,3.32-2.57,7.78-3.85,13.4-3.85s10.07,1.28,13.37,3.85c3.29,2.57,4.94,6.1,4.94,10.61,0,2.42-.54,4.59-1.63,6.5s-2.63,3.43-4.61,4.54c2.42.92,4.36,2.41,5.81,4.47,1.45,2.06,2.18,4.59,2.18,7.59,0,4.94-1.8,8.74-5.41,11.41-3.61,2.66-8.49,4-14.64,4s-11.04-1.33-14.67-4ZM510.31,112.28c1.62-1.45,2.43-3.42,2.43-5.88s-.82-4.35-2.47-5.78c-1.65-1.43-3.78-2.14-6.39-2.14s-4.75.72-6.39,2.14c-1.65,1.43-2.47,3.35-2.47,5.78s.81,4.43,2.43,5.88c1.62,1.45,3.77,2.18,6.43,2.18s4.81-.73,6.43-2.18ZM509.48,90.48c1.45-1.31,2.18-3,2.18-5.08s-.73-3.86-2.18-5.19c-1.45-1.33-3.32-2-5.59-2s-4.13.67-5.56,2c-1.43,1.33-2.14,3.06-2.14,5.19s.71,3.78,2.14,5.08c1.43,1.31,3.28,1.96,5.56,1.96s4.14-.65,5.59-1.96Z"/>
  </g>
  <g>
    <path class="cls-4" d="M266.99,176.3c-1.47-.9-2.59-2.21-3.38-3.93-.79-1.71-1.18-3.74-1.18-6.06s.39-4.37,1.17-6.08c.78-1.7,1.9-3.01,3.37-3.93,1.46-.91,3.19-1.37,5.19-1.37s3.72.46,5.17,1.37c1.45.92,2.57,2.22,3.35,3.93s1.17,3.73,1.17,6.08-.4,4.35-1.18,6.06c-.79,1.71-1.91,3.02-3.37,3.93-1.45.9-3.17,1.36-5.14,1.36s-3.69-.45-5.16-1.36ZM275.77,171.45c.85-1.23,1.28-2.92,1.28-5.08s-.42-3.9-1.26-5.14c-.84-1.25-2.05-1.87-3.63-1.87s-2.79.62-3.63,1.87c-.84,1.25-1.26,2.96-1.26,5.14s.43,3.85,1.28,5.08c.85,1.23,2.06,1.84,3.62,1.84s2.76-.61,3.62-1.84Z"/>
    <path class="cls-4" d="M288.39,160.57l-4.52,3.27v-4.55l5.3-3.9h3.96v21.79h-4.74v-16.61Z"/>
    <path class="cls-4" d="M296.45,165.86c-.47-.47-.7-1.02-.7-1.67s.23-1.2.7-1.67,1.02-.7,1.67-.7,1.23.23,1.68.69.69,1.02.69,1.68-.23,1.2-.7,1.67c-.47.47-1.02.7-1.67.7s-1.2-.23-1.67-.7ZM296.45,176.11c-.47-.47-.7-1.02-.7-1.67s.23-1.2.7-1.67c.47-.47,1.02-.7,1.67-.7s1.23.23,1.68.69.69,1.02.69,1.68-.23,1.2-.7,1.67c-.47.47-1.02.7-1.67.7s-1.2-.23-1.67-.7Z"/>
    <path class="cls-4" d="M312.11,172.35h-10.22v-2.87l10.41-14.09h4.68v13.31h3.21v3.65h-3.21v4.83h-4.86v-4.83ZM312.79,168.71v-7.67l-5.61,7.67h5.61Z"/>
    <path class="cls-4" d="M324.53,177.26c-1.17-.26-2.16-.62-2.95-1.08v-4.08c.91.58,1.94,1.03,3.07,1.36,1.13.32,2.21.48,3.23.48,1.62,0,2.84-.32,3.65-.95s1.22-1.55,1.22-2.76-.4-2.06-1.2-2.68c-.8-.62-1.93-.94-3.38-.94-.73,0-1.49.07-2.29.22-.8.15-1.5.34-2.1.59l-1.9-1.09.87-10.94h13.37v3.9h-8.91l-.34,4.21c1.14-.25,2.29-.37,3.43-.37,2.29,0,4.07.62,5.35,1.85,1.28,1.24,1.92,2.96,1.92,5.16,0,2.39-.79,4.24-2.38,5.55-1.59,1.31-3.94,1.96-7.06,1.96-1.21,0-2.4-.13-3.57-.39Z"/>
  </g>
  <g>
    <g>
      <g>
        <circle class="cls-2" cx="134.67" cy="311.26" r="58.33"/>
        <circle class="cls-7" cx="465.33" cy="311.26" r="58.33"/>
        <circle class="cls-2" cx="300" cy="311.26" r="58.33"/>
        <rect class="cls-3" x="101.78" y="381.96" width="65.78" height="16" rx="5.98" ry="5.98"/>
        <rect class="cls-3" x="267.11" y="381.96" width="65.78" height="16" rx="5.98" ry="5.98"/>
        <rect class="cls-3" x="432.44" y="381.96" width="65.78" height="16" rx="5.98" ry="5.98"/>
      </g>
      <g>
        <circle class="cls-2" cx="134.67" cy="478.37" r="58.33"/>
        <circle class="cls-2" cx="465.33" cy="478.37" r="58.33"/>
        <circle class="cls-2" cx="300" cy="478.37" r="58.33"/>
        <rect class="cls-3" x="101.78" y="549.07" width="65.78" height="16" rx="5.98" ry="5.98"/>
        <rect class="cls-3" x="267.11" y="549.07" width="65.78" height="16" rx="5.98" ry="5.98"/>
        <rect class="cls-3" x="432.44" y="549.07" width="65.78" height="16" rx="5.98" ry="5.98"/>
      </g>
    </g>
    <g>
      <rect class="cls-7" x="130.29" y="457.81" width="8.75" height="41.11" rx="2.35" ry="2.35" transform="translate(269.33 956.74) rotate(180)"/>
      <rect class="cls-7" x="130.29" y="457.81" width="8.75" height="41.11" rx="2.35" ry="2.35" transform="translate(613.04 343.7) rotate(90)"/>
    </g>
    <g>
      <rect class="cls-7" x="270.85" y="460.46" width="35.82" height="35.82" rx="3.18" ry="3.18"/>
      <path class="cls-7" d="M313.01,489.29l12.03,3.69c2.04.63,4.11-.9,4.11-3.04v-23.15c0-2.14-2.07-3.66-4.11-3.04l-12.03,3.69c-1.33.41-2.24,1.64-2.24,3.04v15.77c0,1.4.91,2.63,2.24,3.04Z"/>
    </g>
    <g>
      <g>
        <path class="cls-2" d="M465.33,501.17c-12.57,0-22.8-10.23-22.8-22.8s10.23-22.8,22.8-22.8,22.8,10.23,22.8,22.8-10.23,22.8-22.8,22.8Z"/>
        <path class="cls-7" d="M465.33,457.23c11.66,0,21.14,9.48,21.14,21.14s-9.49,21.14-21.14,21.14-21.14-9.48-21.14-21.14,9.49-21.14,21.14-21.14M465.33,453.91c-13.51,0-24.46,10.95-24.46,24.46s10.95,24.46,24.46,24.46,24.46-10.95,24.46-24.46-10.95-24.46-24.46-24.46h0Z"/>
      </g>
      <g>
        <path class="cls-7" d="M465.33,502.02c-6.95,0-13.48-3.02-17.99-8.3.05-.12.11-.25.16-.37,2.21-4.76,7.2-7.84,12.71-7.84h10.23c5.51,0,10.5,3.08,12.71,7.84.05.12.11.24.16.36-4.51,5.28-11.03,8.3-17.99,8.3Z"/>
        <path class="cls-7" d="M470.45,486.33c5.15,0,9.81,2.84,11.92,7.25-4.34,4.86-10.49,7.62-17.03,7.62s-12.7-2.77-17.03-7.63c2.1-4.41,6.76-7.25,11.91-7.25h10.23M470.45,484.71h-10.23c-5.69,0-11.05,3.14-13.44,8.31-.13.28-.25.56-.36.85,4.48,5.47,11.3,8.97,18.92,8.97s14.44-3.49,18.92-8.96c-.11-.29-.23-.57-.36-.85-2.39-5.17-7.75-8.31-13.45-8.31h0Z"/>
      </g>
      <circle class="cls-5" cx="465.33" cy="471.91" r="11.28"/>
    </g>
    <g>
      <circle class="cls-7" cx="280.79" cy="293.18" r="6.59"/>
      <circle class="cls-7" cx="300" cy="293.18" r="6.59"/>
      <circle class="cls-7" cx="319.21" cy="293.18" r="6.59"/>
      <circle class="cls-7" cx="280.79" cy="311.26" r="6.59"/>
      <circle class="cls-7" cx="300" cy="311.26" r="6.59"/>
      <circle class="cls-7" cx="319.21" cy="311.26" r="6.59"/>
      <circle class="cls-7" cx="280.79" cy="329.34" r="6.59"/>
      <circle class="cls-7" cx="300" cy="329.34" r="6.59"/>
      <circle class="cls-7" cx="319.21" cy="329.34" r="6.59"/>
    </g>
    <g>
      <path class="cls-7" d="M144.02,306.71v2c0,2.48-.98,4.86-2.74,6.62-1.75,1.76-4.14,2.74-6.62,2.74-.61,0-1.22-.06-1.82-.18l-5.83-3.78c-1.12-1.58-1.71-3.46-1.71-5.39v-12.76c0-5.17,4.19-9.36,9.36-9.36s9.36,4.19,9.36,9.36v10.76Z"/>
      <path class="cls-7" d="M130.11,320.62c.65.25,1.32.44,2.01.58,1.68.35,3.42.35,5.1,0,6-1.36,10.25-6.71,10.21-12.87v-3.88c0-1.41,1.14-2.55,2.55-2.55s2.55,1.14,2.55,2.55v3.8c0,8.88-6.53,16.4-15.31,17.67v4.89h4.25c1.41,0,2.55,1.14,2.55,2.55s-1.14,2.55-2.55,2.55h-13.61c-1.41,0-2.55-1.14-2.55-2.55s1.14-2.55,2.55-2.55h4.25v-4.89c-1.93-.27-3.81-.87-5.55-1.77l-5.39-4.22c-2.82-3.24-4.38-7.39-4.37-11.69v-3.8c0-1.41,1.14-2.55,2.55-2.55s2.55,1.14,2.55,2.55v4.25c0,2.83.94,5.58,2.69,7.82l5.51,4.1Z"/>
      <path class="cls-6" d="M157.88,292.85l-7.91,7.91-8.74,8.74-2.62,2.62-22.36,22.36c-1,1-2.61,1-3.61,0l-1.2-1.2c-1-1-1-2.61,0-3.61l41.62-41.62c1-1,2.61-1,3.61,0l1.2,1.2c1,1,1,2.61,0,3.61Z"/>
    </g>
    <path class="cls-1" d="M465.35,329.43c0,1.03-.59,1.96-1.52,2.4-.36.17-.74.25-1.13.25-.61,0-1.2-.21-1.69-.61l-14.47-11.99h-7.71c-1.46,0-2.65-1.18-2.65-2.65v-10.55c0-1.46,1.19-2.65,2.65-2.65h7.71l14.47-11.99c.79-.66,1.89-.8,2.82-.36.93.44,1.52,1.37,1.52,2.4v35.75h0ZM475.52,325.29c-.06,0-.13,0-.19,0-.7,0-1.37-.28-1.87-.78l-.35-.36c-.93-.93-1.04-2.39-.26-3.45,1.98-2.67,3.03-5.84,3.03-9.17,0-3.58-1.19-6.93-3.44-9.7-.86-1.05-.78-2.58.18-3.54l.35-.35c.53-.53,1.24-.82,2-.77.75.04,1.44.39,1.92.97,3.12,3.82,4.77,8.45,4.77,13.4,0,4.61-1.46,8.99-4.21,12.68-.46.61-1.16,1-1.93,1.06ZM486.47,333.48c-.48.57-1.17.91-1.91.94-.04,0-.07,0-.11,0-.7,0-1.37-.28-1.87-.78l-.35-.35c-.97-.97-1.04-2.52-.15-3.58,4.27-5.08,6.62-11.53,6.62-18.16s-2.52-13.54-7.09-18.7c-.93-1.05-.88-2.63.11-3.62l.35-.35c.52-.52,1.18-.8,1.95-.78.73.02,1.42.34,1.9.89,5.53,6.22,8.57,14.23,8.57,22.56,0,8.01-2.84,15.8-8.01,21.92Z"/>
  </g>
</svg>