<?xml version="1.0" encoding="UTF-8"?>
<svg id="Layer_1" data-name="Layer 1" xmlns="http://www.w3.org/2000/svg" viewBox="0 0 544.42 84.77">
  <defs>
    <style>
      .cls-1 {
        fill: #ff336d;
      }

      .cls-2 {
        fill: #fff;
      }

      .cls-3 {
        fill: #ff73b6;
      }
    </style>
  </defs>
  <rect class="cls-1" x="16.73" y="12.18" width="487.85" height="57.27" rx="7.91" ry="7.91"/>
  <path class="cls-3" d="M496.66,15.18c2.71,0,4.91,2.2,4.91,4.91v41.45c0,2.71-2.2,4.91-4.91,4.91H24.64c-2.71,0-4.91-2.2-4.91-4.91V20.1c0-2.71,2.2-4.91,4.91-4.91h472.02M496.66,12.18H24.64c-4.37,0-7.91,3.54-7.91,7.91v41.45c0,4.37,3.54,7.91,7.91,7.91h472.02c4.37,0,7.91-3.54,7.91-7.91V20.1c0-4.37-3.54-7.91-7.91-7.91h0Z"/>
  <g>
    <path class="cls-2" d="M98.63,37.13h3.88v4.92l5.18-4.92h4.41l-3.67,3.49c1.33.38,2.26.95,2.79,1.73.54.78.8,1.82.8,3.11v5.3h-3.88v-4.97c0-.87-.15-1.51-.45-1.94s-.84-.73-1.62-.92l-3.57,3.34v4.49h-3.88v-13.64Z"/>
    <path class="cls-2" d="M105.8,33.82c0-.19-.04-.32-.11-.4-.08-.08-.21-.12-.4-.12h-1.2v-2.63h2.4c.63,0,1.08.14,1.36.43.28.29.42.65.42,1.1v.77h5.13v2.47h-7.6v-1.63Z"/>
    <path class="cls-2" d="M118.8,42.28c0-.88-.19-1.53-.56-1.93-.37-.4-1.03-.6-1.96-.6s-1.81.23-2.73.69v-2.93c.41-.2.96-.38,1.64-.54.69-.15,1.36-.23,2-.23,1.78,0,3.14.48,4.08,1.43s1.4,2.33,1.4,4.13v8.47h-3.88v-8.49Z"/>
    <path class="cls-2" d="M131.12,50.67c-.8-.32-1.5-.8-2.09-1.43v1.53h-3.7v-13.64h3.88v9.18c.37.63.82,1.09,1.35,1.39.53.3,1.15.45,1.86.45,1.75,0,2.63-.82,2.63-2.47v-8.54h3.85v8.77c0,.99-.2,1.88-.61,2.68-.41.8-1.01,1.43-1.81,1.89-.8.46-1.76.69-2.88.69-.85,0-1.67-.16-2.47-.48Z"/>
    <path class="cls-2" d="M142.29,42.64l-1.27-2.17c1.99-2.48,4.55-3.72,7.68-3.72,2.19,0,3.88.49,5.06,1.45,1.18.97,1.77,2.32,1.77,4.05v8.52h-3.88v-8.21c0-1.87-.99-2.8-2.96-2.8-.73,0-1.38.1-1.95.31-.57.2-1.1.54-1.59.99l.99,1.63v8.08h-3.85v-8.13Z"/>
    <path class="cls-2" d="M160.23,50.87c-1.03-.2-1.84-.49-2.44-.88v-2.96c.75.44,1.58.78,2.51,1.02s1.76.36,2.51.36c.9,0,1.56-.09,1.98-.27.42-.18.62-.5.62-.96,0-.41-.2-.72-.6-.94-.4-.22-1.14-.5-2.23-.84l-.64-.2c-1.46-.46-2.54-1.01-3.24-1.66-.7-.65-1.05-1.53-1.05-2.65,0-1.31.53-2.33,1.58-3.05,1.05-.72,2.47-1.08,4.26-1.08.97,0,1.9.1,2.81.31.9.2,1.62.47,2.17.79v3.04c-.54-.37-1.22-.68-2.03-.91s-1.6-.34-2.38-.34c-1.65,0-2.47.42-2.47,1.25,0,.41.2.72.59.94.39.22,1.09.48,2.09.79l.92.28c1.07.34,1.91.71,2.51,1.12.6.41,1.02.87,1.26,1.38.24.51.36,1.13.36,1.86,0,1.17-.51,2.12-1.52,2.83-1.01.71-2.52,1.07-4.53,1.07-1,0-2.02-.1-3.05-.29Z"/>
    <path class="cls-2" d="M173.7,50.81c-1.1-.23-2.02-.55-2.75-.96v-7.17h6.45v2.83h-2.65v2.19c.53.29,1.3.43,2.32.43,2.7,0,4.05-1.41,4.05-4.23,0-1.45-.39-2.5-1.17-3.16-.78-.66-2.1-.99-3.95-.99-.85,0-1.72.09-2.61.27-.89.18-1.65.43-2.26.75v-3.01c.7-.32,1.54-.57,2.52-.75.99-.18,2.01-.27,3.09-.27,2.74,0,4.81.62,6.23,1.88,1.42,1.25,2.13,3.01,2.13,5.29s-.7,4.01-2.09,5.3c-1.39,1.29-3.37,1.94-5.94,1.94-1.14,0-2.26-.12-3.37-.34Z"/>
    <path class="cls-2" d="M187.96,42.64l-1.27-2.17c1.99-2.48,4.55-3.72,7.68-3.72,2.19,0,3.88.49,5.06,1.45,1.18.97,1.77,2.32,1.77,4.05v8.52h-3.88v-8.21c0-1.87-.99-2.8-2.96-2.8-.73,0-1.38.1-1.95.31-.57.2-1.1.54-1.59.99l.99,1.63v8.08h-3.85v-8.13Z"/>
    <path class="cls-2" d="M205.9,50.87c-1.03-.2-1.84-.49-2.44-.88v-2.96c.75.44,1.58.78,2.51,1.02s1.76.36,2.51.36c.9,0,1.56-.09,1.98-.27.42-.18.62-.5.62-.96,0-.41-.2-.72-.6-.94-.4-.22-1.14-.5-2.23-.84l-.64-.2c-1.46-.46-2.54-1.01-3.24-1.66-.7-.65-1.05-1.53-1.05-2.65,0-1.31.53-2.33,1.58-3.05,1.05-.72,2.47-1.08,4.26-1.08.97,0,1.9.1,2.81.31.9.2,1.62.47,2.17.79v3.04c-.54-.37-1.22-.68-2.03-.91s-1.6-.34-2.38-.34c-1.65,0-2.47.42-2.47,1.25,0,.41.2.72.59.94.39.22,1.09.48,2.09.79l.92.28c1.07.34,1.91.71,2.51,1.12.6.41,1.02.87,1.26,1.38.24.51.36,1.13.36,1.86,0,1.17-.51,2.12-1.52,2.83-1.01.71-2.52,1.07-4.53,1.07-1,0-2.02-.1-3.05-.29Z"/>
    <path class="cls-2" d="M217.13,37.13h3.88v4.92l5.18-4.92h4.41l-3.67,3.49c1.33.38,2.26.95,2.79,1.73.54.78.8,1.82.8,3.11v5.3h-3.88v-4.97c0-.87-.15-1.51-.45-1.94s-.84-.73-1.62-.92l-3.57,3.34v4.49h-3.88v-13.64Z"/>
    <path class="cls-2" d="M222.81,32.98v-1.86h3.47v1.25c0,.24.05.4.14.5.09.09.27.14.52.14h5.81v2.45h-7.5c-1.63,0-2.45-.82-2.45-2.47Z"/>
    <path class="cls-2" d="M234.07,49.99c-.93-.78-1.39-1.89-1.39-3.32s.51-2.55,1.52-3.37c1.01-.82,2.4-1.22,4.17-1.22,1.65,0,3.06.27,4.23.82v-.54c0-.92-.3-1.6-.91-2.04-.6-.44-1.58-.66-2.92-.66-.83,0-1.65.08-2.45.25-.8.17-1.51.41-2.14.71v-2.91c.56-.27,1.33-.5,2.32-.69.99-.19,1.98-.28,2.98-.28,1.14,0,2.2.17,3.19.51l.99-1.15h4.21l-2.52,2.93c.73.83,1.1,1.93,1.1,3.29v8.44h-3.85v-5.07c-.99-.51-2.14-.77-3.47-.77-.87,0-1.5.14-1.9.43s-.6.74-.6,1.35c0,.56.18.98.55,1.26.37.28.95.42,1.75.42.56,0,1.04-.08,1.43-.26v2.68c-.66.22-1.51.33-2.55.33-1.56,0-2.81-.39-3.74-1.17Z"/>
    <path class="cls-2" d="M249.46,37.13h3.7v1.56c.61-.61,1.33-1.09,2.17-1.43s1.67-.51,2.5-.51c1.72,0,3.01.46,3.89,1.39s1.31,2.15,1.31,3.66v8.98h-3.85v-8.64c0-1.58-.83-2.37-2.5-2.37-.7,0-1.33.15-1.9.46-.57.31-1.05.77-1.44,1.4v9.15h-3.88v-13.64Z"/>
    <path class="cls-2" d="M251.25,33h8.31v-2.7h3.49v5.15h-11.81v-2.45Z"/>
    <path class="cls-2" d="M259.56,25.2h3.47v3.6h-3.47v-3.6Z"/>
    <path class="cls-2" d="M265.71,42.59c0-1.89.63-3.33,1.9-4.33s2.97-1.5,5.11-1.5,3.84.5,5.1,1.5c1.26,1,1.89,2.45,1.89,4.33v8.19h-3.88v-8.21c0-.93-.27-1.64-.8-2.1-.54-.47-1.31-.7-2.31-.7s-1.8.23-2.33.7c-.54.47-.8,1.17-.8,2.1v1.94c.2-.31.51-.55.91-.73.4-.18.85-.27,1.34-.27h1.99v2.96h-2.19c-.6,0-1.08.19-1.47.56-.38.37-.57.86-.57,1.45v2.29h-3.88v-8.19Z"/>
    <path class="cls-2" d="M276.34,55.26c0-.31-.06-.52-.18-.65-.12-.13-.33-.19-.64-.19h-.84v-2.45h2.68c.92,0,1.55.19,1.9.56.35.37.52,1.02.52,1.94v3.29h-3.44v-2.5Z"/>
    <path class="cls-2" d="M293.25,49.68c-.88-.99-1.33-2.24-1.33-3.77v-3.34c0-.95-.22-1.66-.66-2.12-.44-.46-1.12-.69-2.04-.69-.68,0-1.28.1-1.8.31s-1.02.54-1.49.99l.99,1.63v4c0,.41.09.7.28.87s.49.25.92.25h1.3v2.96h-3.42c-.94,0-1.66-.27-2.17-.8-.51-.54-.77-1.28-.77-2.23v-5.1l-1.27-2.17c.97-1.21,2.06-2.13,3.26-2.77,1.21-.64,2.59-.96,4.16-.96,2.11,0,3.72.49,4.84,1.47,1.12.98,1.68,2.33,1.68,4.04v3.42c0,1.65.82,2.47,2.45,2.47.65,0,1.22-.16,1.73-.47.51-.31.93-.77,1.25-1.36v-9.18h3.85v13.64h-3.65v-1.5c-.56.63-1.22,1.1-1.96,1.42-.75.31-1.56.47-2.42.47-1.62,0-2.86-.49-3.75-1.48Z"/>
    <path class="cls-2" d="M308.3,49.97c-.5-.54-.75-1.28-.75-2.23v-6.15c0-.8.15-1.49.46-2.07.31-.58.73-1.19,1.28-1.84.36-.41.62-.76.8-1.05.18-.29.27-.59.27-.89,0-.49-.13-.85-.38-1.07-.26-.22-.69-.33-1.3-.33-.99,0-1.9.31-2.75.94v-2.96c.53-.32,1.15-.57,1.86-.74.71-.17,1.44-.25,2.19-.25,1.46,0,2.55.34,3.28,1.01.72.67,1.08,1.54,1.08,2.61,0,.63-.12,1.18-.36,1.64-.24.47-.6,1.03-1.1,1.7-.48.61-.84,1.16-1.08,1.64-.25.49-.37,1.03-.37,1.65v5.1c0,.41.08.7.26.87.17.17.45.25.84.25h.89v2.96h-2.96c-.94,0-1.65-.27-2.15-.8Z"/>
    <path class="cls-2" d="M318.47,50.52c-1-.42-1.77-1.02-2.29-1.79-.53-.76-.79-1.63-.79-2.6v-.64c0-.61.12-1.16.36-1.66.24-.49.57-1.05.99-1.66.27-.37.47-.68.59-.91.12-.23.18-.44.18-.62,0-.48-.29-.71-.87-.71h-1.43v-2.8h3.7c.76,0,1.38.22,1.84.66.46.44.69,1.02.69,1.73,0,.51-.09.98-.28,1.42s-.47.93-.84,1.49c-.36.56-.62,1.04-.8,1.43-.18.39-.27.82-.27,1.27v.54c0,.8.24,1.41.71,1.84.48.42,1.16.64,2.04.64.93,0,1.64-.26,2.13-.78.48-.52.73-1.27.73-2.26,0-2.07-.81-3.11-2.42-3.11v-1.86l2.47-3.39h4.11l-2.78,3.8c.9.46,1.54,1.06,1.93,1.8.38.74.57,1.68.57,2.82s-.27,2.21-.8,3.11c-.54.9-1.31,1.61-2.33,2.12-1.02.51-2.22.77-3.6.77s-2.52-.21-3.52-.64Z"/>
    <path class="cls-2" d="M322.26,33.82c0-.19-.04-.32-.11-.4-.08-.08-.21-.12-.4-.12h-1.2v-2.63h2.4c.63,0,1.08.14,1.36.43.28.29.42.65.42,1.1v.77h5.13v2.47h-7.6v-1.63Z"/>
    <path class="cls-2" d="M331.06,43.28h3.82l1.15,4.62c1.17,0,2.15-.36,2.92-1.08.77-.72,1.16-1.71,1.16-2.97,0-1.36-.36-2.38-1.08-3.06-.72-.68-1.96-1.02-3.71-1.02-.82,0-1.66.08-2.52.25s-1.58.39-2.14.66v-2.98c.68-.29,1.49-.52,2.44-.69.94-.17,1.9-.26,2.87-.26,2.63,0,4.65.6,6.03,1.8,1.39,1.2,2.08,2.95,2.08,5.24,0,1.39-.34,2.62-1.03,3.67-.69,1.05-1.62,1.87-2.78,2.45-1.17.58-2.44.87-3.84.87h-3.49l-1.86-7.5Z"/>
    <path class="cls-2" d="M348.29,50.87c-1.03-.2-1.84-.49-2.44-.88v-2.96c.75.44,1.58.78,2.51,1.02s1.76.36,2.51.36c.9,0,1.56-.09,1.98-.27.42-.18.62-.5.62-.96,0-.41-.2-.72-.6-.94-.4-.22-1.14-.5-2.23-.84l-.64-.2c-1.46-.46-2.54-1.01-3.24-1.66-.7-.65-1.05-1.53-1.05-2.65,0-1.31.53-2.33,1.58-3.05,1.05-.72,2.47-1.08,4.26-1.08.97,0,1.9.1,2.81.31.9.2,1.62.47,2.17.79v3.04c-.54-.37-1.22-.68-2.03-.91s-1.6-.34-2.38-.34c-1.65,0-2.47.42-2.47,1.25,0,.41.2.72.59.94.39.22,1.09.48,2.09.79l.92.28c1.07.34,1.91.71,2.51,1.12.6.41,1.02.87,1.26,1.38.24.51.36,1.13.36,1.86,0,1.17-.51,2.12-1.52,2.83-1.01.71-2.52,1.07-4.53,1.07-1,0-2.02-.1-3.05-.29Z"/>
    <path class="cls-2" d="M345.04,33h11.81v2.45h-11.81v-2.45Z"/>
    <path class="cls-2" d="M359.01,38.84h3.85l2.91,9.05c1.26,0,2.23-.38,2.91-1.13.68-.76,1.02-1.83,1.02-3.23,0-1.26-.24-2.2-.71-2.83-.48-.63-1.21-.94-2.19-.94-.54,0-1.09.08-1.63.25v-2.91c.71-.24,1.52-.36,2.42-.36,2.02,0,3.54.59,4.55,1.77s1.52,2.85,1.52,5.01c0,1.51-.33,2.81-.99,3.9-.66,1.09-1.56,1.92-2.69,2.49-1.13.57-2.37.85-3.71.85h-3.42l-3.83-11.93Z"/>
    <path class="cls-2" d="M376.57,49.97c-.5-.54-.75-1.28-.75-2.23v-10.61h3.88v9.56c0,.41.08.7.25.87s.45.25.84.25h.89v2.96h-2.96c-.94,0-1.65-.27-2.15-.8Z"/>
    <path class="cls-2" d="M385.1,49.4c-1.22-1.17-1.84-2.89-1.84-5.15s.71-4.2,2.12-5.52c1.41-1.32,3.36-1.98,5.84-1.98s4.46.6,5.67,1.79c1.22,1.19,1.82,2.75,1.82,4.69v7.55h-3.85v-7.57c0-1.12-.28-1.98-.85-2.56-.57-.59-1.5-.88-2.79-.88-1.22,0-2.19.38-2.91,1.15-.71.76-1.07,1.88-1.07,3.34,0,1.34.29,2.33.88,2.96.59.63,1.48.94,2.69.94.65,0,1.22-.09,1.73-.28v2.96c-.66.22-1.48.33-2.45.33-2.11,0-3.77-.59-5-1.76Z"/>
    <path class="cls-2" d="M388.43,34.75c-.59-.54-.88-1.25-.88-2.16,0-1.14.33-2,.98-2.58s1.55-.87,2.69-.87h6.45v2.01h-6.17c-.94,0-1.4.38-1.4,1.15,0,.36.09.63.28.83s.46.29.82.29c.39,0,.69-.11.89-.33.2-.22.31-.52.31-.89h2.01c0,.75.43,1.12,1.27,1.12h1.56v2.12h-1.5c-.58,0-1.08-.11-1.52-.32-.43-.21-.72-.48-.85-.8-.15.34-.47.63-.94.87s-1.01.36-1.61.36c-1,0-1.8-.27-2.38-.8Z"/>
    <path class="cls-2" d="M402.72,49.4c-1.22-1.17-1.84-2.89-1.84-5.15s.71-4.2,2.12-5.52c1.41-1.32,3.36-1.98,5.84-1.98s4.46.6,5.67,1.79c1.22,1.19,1.82,2.75,1.82,4.69v7.55h-3.85v-7.57c0-1.12-.28-1.98-.85-2.56-.57-.59-1.5-.88-2.79-.88-1.22,0-2.19.38-2.91,1.15-.71.76-1.07,1.88-1.07,3.34,0,1.34.29,2.33.88,2.96.59.63,1.48.94,2.69.94.65,0,1.22-.09,1.73-.28v2.96c-.66.22-1.48.33-2.45.33-2.11,0-3.77-.59-5-1.76Z"/>
    <path class="cls-2" d="M421.75,50.52c-.99-.42-1.76-1.02-2.28-1.79-.53-.76-.79-1.63-.79-2.6v-.64c0-.61.12-1.16.36-1.64.24-.49.57-1.03.99-1.65.27-.37.47-.68.59-.91.12-.23.18-.45.18-.65,0-.48-.29-.71-.87-.71h-1.43v-2.8h3.7c.76,0,1.38.22,1.84.66.46.44.69,1.02.69,1.73,0,.51-.09.98-.28,1.42s-.47.93-.84,1.49c-.36.56-.62,1.04-.8,1.43-.18.39-.27.82-.27,1.27v.54c0,.8.23,1.41.7,1.84.47.42,1.15.64,2.05.64,1.78,0,2.68-.86,2.68-2.58v-8.44h3.88v8.03c0,1.85-.57,3.32-1.7,4.39-1.13,1.07-2.75,1.61-4.86,1.61-1.36,0-2.54-.21-3.53-.64Z"/>
    <path class="cls-2" d="M438.6,42.28c0-.88-.19-1.53-.56-1.93-.37-.4-1.03-.6-1.96-.6s-1.81.23-2.73.69v-2.93c.41-.2.96-.38,1.64-.54.69-.15,1.36-.23,2-.23,1.78,0,3.14.48,4.08,1.43s1.4,2.33,1.4,4.13v8.47h-3.88v-8.49Z"/>
    <path class="cls-2" d="M446.45,49.4c-1.22-1.17-1.84-2.89-1.84-5.15s.71-4.2,2.12-5.52c1.41-1.32,3.36-1.98,5.84-1.98s4.46.6,5.67,1.79c1.22,1.19,1.82,2.75,1.82,4.69v7.55h-3.85v-7.57c0-1.12-.28-1.98-.85-2.56-.57-.59-1.5-.88-2.79-.88-1.22,0-2.19.38-2.91,1.15-.71.76-1.07,1.88-1.07,3.34,0,1.34.29,2.33.88,2.96.59.63,1.48.94,2.69.94.65,0,1.22-.09,1.73-.28v2.96c-.66.22-1.48.33-2.45.33-2.11,0-3.77-.59-5-1.76Z"/>
    <path class="cls-2" d="M462.85,50.56c-.41-.4-.61-.89-.61-1.47s.2-1.07.61-1.47c.41-.4.91-.6,1.5-.6s1.07.2,1.48.6c.41.4.61.89.61,1.47s-.2,1.07-.61,1.47c-.41.4-.9.6-1.48.6s-1.1-.2-1.5-.6ZM462.46,32.95h3.77v12.24h-3.77v-12.24Z"/>
  </g>
  <path class="cls-2" d="M79.32,33.34l-13.34-5.55c-.1-.89-.85-1.58-1.77-1.58-.99,0-1.79.8-1.79,1.79v21.73h-.53c-.9,0-1.64.74-1.64,1.64s.74,1.64,1.64,1.64h4.89c.9,0,1.64-.74,1.64-1.64s-.74-1.64-1.64-1.64h-.77v-5.53l13.44-6.58c.84-.41,1.34-1.24,1.32-2.17-.03-.94-.58-1.74-1.45-2.1ZM75.5,35.49l-9.49,4.64v-8.59l9.49,3.95Z"/>
</svg>