<?xml version="1.0" encoding="UTF-8"?>
<svg id="Layer_1" data-name="Layer 1" xmlns="http://www.w3.org/2000/svg" viewBox="0 0 600 600">
  <defs>
    <style>
      .cls-1 {
        fill: #1a4175;
      }

      .cls-2, .cls-3 {
        fill: #00122d;
      }

      .cls-4 {
        fill: #ff336d;
      }

      .cls-5 {
        fill: #7db0f2;
      }

      .cls-6 {
        fill: #001a47;
      }

      .cls-6, .cls-3, .cls-7 {
        opacity: .5;
      }

      .cls-8 {
        fill: #fff;
      }

      .cls-9 {
        fill: #ff73b6;
      }

      .cls-10 {
        fill: none;
        stroke: #00122d;
        stroke-linecap: round;
        stroke-linejoin: round;
        stroke-width: 4.76px;
      }
    </style>
  </defs>
  <g>
    <g>
      <rect class="cls-1" width="600" height="600" rx="30" ry="30"/>
      <g>
        <path class="cls-6" d="M0,30v77.51h600V30c0-16.57-13.43-30-30-30H30C13.43,0,0,13.43,0,30Z"/>
        <g>
          <g>
            <path class="cls-2" d="M131.64,42.7v21.45h-4.98v-21.45h4.98ZM140.37,42.7v21.45h-4.98v-21.45h4.98Z"/>
            <path class="cls-2" d="M149.95,55.69c-.46,0-.69.24-.69.73v.11c0,2.73,1.52,4.1,4.56,4.1,1.81,0,3.24-.6,4.29-1.8,1.05-1.2,1.57-3.08,1.57-5.63,0-2.25-.57-3.97-1.7-5.17-1.14-1.2-2.62-1.8-4.46-1.8-1.56,0-2.96.27-4.21.82-1.25.55-2.36,1.19-3.33,1.93l-1.61-3.71c1.07-.77,2.39-1.46,3.94-2.09,1.56-.62,3.41-.94,5.55-.94,1.58,0,3.04.24,4.37.73,1.33.49,2.47,1.2,3.43,2.14.96.95,1.7,2.11,2.22,3.49.52,1.38.79,2.96.79,4.75,0,3.78-.94,6.6-2.81,8.46-1.88,1.86-4.42,2.8-7.64,2.8-1.63,0-3.06-.19-4.29-.57-1.23-.38-2.24-.93-3.04-1.65-.8-.71-1.41-1.57-1.82-2.57-.41-1-.61-2.09-.61-3.29v-.65c0-1.4.31-2.45.92-3.14s1.61-1.03,2.99-1.03h4.9v3.98h-3.29Z"/>
            <path class="cls-2" d="M183.46,64.15v-12.98c0-1.51-.44-2.71-1.32-3.6-.88-.89-2.09-1.34-3.62-1.34-1.86,0-3.3.67-4.31,2.01-1.01,1.34-1.51,3.16-1.51,5.46,0,1.28.13,2.34.4,3.2.27.86.62,1.55,1.05,2.09.43.54.91.92,1.44,1.15.52.23,1.04.34,1.55.34s.99-.04,1.44-.11c.45-.08.93-.23,1.44-.46l.88,3.6c-.54.33-1.13.57-1.78.73s-1.46.23-2.43.23c-1.15,0-2.26-.21-3.33-.63-1.07-.42-2.03-1.07-2.87-1.95-.84-.88-1.51-2-2.01-3.35-.5-1.35-.75-2.96-.75-4.83,0-1.61.24-3.11.71-4.5.47-1.39,1.16-2.6,2.05-3.64.89-1.03,2-1.84,3.33-2.43,1.33-.59,2.86-.88,4.6-.88,1.63,0,3.08.23,4.33.69,1.25.46,2.3,1.09,3.14,1.9s1.48,1.76,1.92,2.85c.43,1.1.65,2.27.65,3.52v12.94h-4.98Z"/>
            <path class="cls-2" d="M207.24,42.7h4.98v13.75c0,2.71-.65,4.74-1.95,6.11-1.3,1.37-3.1,2.05-5.4,2.05-.74,0-1.43-.1-2.07-.29-.64-.19-1.23-.43-1.78-.73-.55-.29-1.04-.63-1.47-1-.43-.37-.79-.73-1.07-1.09l-.54,2.64h-4.44v-21.45h4.98v14.44c.23.49.52.94.88,1.36.36.42.77.79,1.23,1.11.46.32.95.57,1.47.75.52.18,1.05.27,1.59.27,2.4,0,3.6-1.47,3.6-4.4v-13.52Z"/>
            <path class="cls-2" d="M194.8,40.02v-3.75h17.43v3.75h-17.43Z"/>
            <path class="cls-2" d="M222.18,56.61c0,1.46.31,2.49.92,3.1s1.48.92,2.6.92,2.13-.33,3.08-.98c.96-.65,1.68-1.49,2.16-2.51v-14.44h4.98v21.45h-4.44l-.54-2.64c-.28.38-.65.76-1.09,1.13s-.94.7-1.49,1c-.55.29-1.16.53-1.82.71-.66.18-1.35.27-2.07.27-2.27,0-4.05-.62-5.34-1.88-1.29-1.25-1.93-3.22-1.93-5.9v-14.13h4.98v13.9Z"/>
          </g>
          <polyline class="cls-10" points="37.89 41.57 26.25 53.54 37.89 65.51"/>
        </g>
        <circle class="cls-3" cx="84.09" cy="53.76" r="26.45"/>
        <g>
          <rect class="cls-3" x="542.03" y="62.46" width="31.53" height="6.8" rx="2.44" ry="2.44"/>
          <rect class="cls-3" x="542.03" y="50.36" width="31.53" height="6.8" rx="2.44" ry="2.44"/>
          <rect class="cls-3" x="542.03" y="38.26" width="31.53" height="6.8" rx="2.44" ry="2.44"/>
        </g>
        <g>
          <g class="cls-7">
            <rect class="cls-2" x="471.02" y="38.26" width="30.99" height="30.99" rx="2.75" ry="2.75"/>
          </g>
          <g class="cls-7">
            <path class="cls-2" d="M507.5,63.21l10.41,3.19c1.77.54,3.55-.78,3.55-2.63v-20.03c0-1.85-1.79-3.17-3.55-2.63l-10.41,3.19c-1.15.35-1.94,1.42-1.94,2.63v13.64c0,1.21.79,2.27,1.94,2.63Z"/>
          </g>
        </g>
        <path class="cls-3" d="M451.48,65.41s0,0,0,0h0s-1.5,1.48-1.5,1.48c-1.94,1.97-4.77,2.78-7.46,2.14-2.71-.73-5.29-1.88-7.63-3.42-2.18-1.39-4.2-3.02-6.02-4.85-1.68-1.66-3.18-3.49-4.5-5.46-1.44-2.11-2.57-4.41-3.38-6.84-.92-2.85-.16-5.98,1.98-8.08l1.76-1.76c.49-.49,1.28-.49,1.78,0,0,0,0,0,0,0l5.56,5.56c.49.49.49,1.28,0,1.78h0s-3.26,3.27-3.26,3.27c-.94.93-1.05,2.4-.28,3.46,1.18,1.62,2.49,3.14,3.9,4.56,1.58,1.59,3.3,3.03,5.14,4.32,1.06.74,2.5.62,3.42-.3l3.15-3.2c.49-.49,1.28-.49,1.78,0h0s5.57,5.58,5.57,5.58c.49.49.49,1.28,0,1.78Z"/>
      </g>
    </g>
    <g>
      <circle class="cls-1" cx="51.47" cy="321.08" r="25.22"/>
      <g>
        <circle class="cls-1" cx="51.47" cy="249.76" r="25.22"/>
        <g>
          <rect class="cls-1" x="102.99" y="224.54" width="372.5" height="50.44" rx="14.43" ry="14.43"/>
          <g>
            <path class="cls-1" d="M132.77,244.61h3.19v8.81c0,1.73-.42,3.04-1.25,3.91s-1.99,1.31-3.46,1.31c-.47,0-.92-.06-1.33-.18-.41-.12-.79-.28-1.14-.47-.35-.19-.67-.4-.94-.64-.28-.24-.51-.47-.69-.7l-.34,1.69h-2.85v-13.74h3.19v9.25c.15.31.33.6.56.87.23.27.49.51.78.71.29.21.61.36.94.48.33.11.67.17,1.02.17,1.54,0,2.31-.94,2.31-2.82v-8.66Z"/>
            <path class="cls-1" d="M124.8,242.89v-2.4h8.32v-2.33h2.85v4.74h-11.16Z"/>
            <path class="cls-1" d="M142.34,252.26c.2-.38.5-.69.92-.96.42-.26.98-.39,1.68-.39h1.37v2.65h-1.45c-.75,0-1.32.15-1.72.44-.39.29-.66.7-.81,1.23v3.12h-3.19v-8.54c0-.77.14-1.49.43-2.16.29-.67.69-1.25,1.23-1.74.53-.49,1.18-.88,1.95-1.17.77-.29,1.64-.43,2.62-.43s1.86.14,2.62.43c.77.29,1.42.67,1.95,1.17.53.49.94,1.07,1.23,1.74.29.67.43,1.39.43,2.16v8.54h-3.19v-8.51c0-.85-.26-1.56-.79-2.12s-1.28-.85-2.26-.85-1.73.28-2.26.85-.79,1.27-.79,2.12v2.43Z"/>
            <path class="cls-1" d="M157.99,253.51c0,.93.2,1.59.59,1.99s.95.59,1.67.59,1.36-.21,1.97-.63,1.08-.95,1.39-1.61v-9.25h3.19v13.74h-2.85l-.34-1.69c-.18.25-.41.49-.7.72s-.6.45-.96.64c-.35.19-.74.34-1.17.45-.43.11-.87.17-1.32.17-1.46,0-2.6-.4-3.42-1.2-.83-.8-1.24-2.06-1.24-3.78v-9.05h3.19v8.91Z"/>
            <path class="cls-1" d="M170.97,258.34v-12.63c0-.69.15-1.32.45-1.89.3-.57.64-1.11,1.01-1.61.37-.5.71-.97,1.02-1.42.31-.45.47-.9.47-1.34s-.13-.8-.39-1.12-.69-.48-1.28-.48c-.69,0-1.27.16-1.74.48-.47.32-.95.76-1.42,1.31l-1.18-1.94c.57-.74,1.27-1.32,2.1-1.74.83-.42,1.79-.64,2.91-.64.65,0,1.24.11,1.75.32.52.21.95.49,1.31.85.36.35.63.76.82,1.24.19.47.28.97.28,1.47,0,.75-.15,1.4-.45,1.95-.3.55-.63,1.07-.99,1.56-.36.49-.69.98-.99,1.47-.3.49-.45,1.05-.45,1.69v12.46h-3.21Z"/>
            <path class="cls-1" d="M180.63,253.51c0,.93.2,1.59.59,1.99s.95.59,1.67.59,1.36-.21,1.97-.63,1.08-.95,1.39-1.61v-9.25h3.19v13.74h-2.85l-.34-1.69c-.18.25-.41.49-.7.72s-.6.45-.96.64c-.35.19-.74.34-1.17.45-.43.11-.87.17-1.32.17-1.46,0-2.6-.4-3.42-1.2-.83-.8-1.24-2.06-1.24-3.78v-9.05h3.19v8.91Z"/>
            <path class="cls-1" d="M201.56,258.34v-8.54c0-.98-.27-1.72-.8-2.21-.53-.49-1.26-.74-2.17-.74-.34,0-.68.05-1.02.14-.34.09-.65.21-.93.37-.29.16-.54.34-.76.54-.22.2-.39.41-.5.63l2.06,1.74c-.51.18-.89.45-1.15.82-.26.37-.39.86-.39,1.48v5.76h-3.19v-5.74c0-.52.12-.99.37-1.4.25-.41.56-.73.93-.96l-1.99-1.62c.16-.56.45-1.09.85-1.61.4-.52.89-.97,1.46-1.37.57-.4,1.23-.72,1.96-.97.74-.25,1.53-.37,2.38-.37.98,0,1.85.13,2.6.4.75.27,1.39.65,1.9,1.13s.91,1.06,1.18,1.74c.27.68.4,1.42.4,2.22v8.54h-3.19Z"/>
            <path class="cls-1" d="M216.26,258.34v-6.01h-2.99c-.92,0-1.65.14-2.2.4-.55.27-.82.76-.82,1.48,0,.59.19,1.05.56,1.39.38.34.84.5,1.4.5.29,0,.6-.03.92-.09.32-.06.64-.17.97-.33l.52,2.33c-.43.2-.86.33-1.31.42-.45.08-.93.12-1.44.12-.67,0-1.29-.09-1.86-.27-.57-.18-1.07-.45-1.5-.81-.43-.36-.76-.81-1.01-1.35-.25-.54-.37-1.17-.37-1.89,0-1.52.53-2.63,1.58-3.32,1.06-.7,2.65-1.04,4.8-1.04h2.75v-.47c0-.79-.23-1.42-.67-1.91-.45-.49-1.16-.74-2.12-.74-1.01,0-1.9.15-2.66.44-.76.29-1.47.68-2.12,1.15l-1.01-2.21c.64-.47,1.47-.9,2.49-1.28,1.02-.38,2.17-.56,3.45-.56.88,0,1.68.12,2.39.37s1.32.59,1.82,1.03c.5.44.88.98,1.15,1.61.27.63.4,1.33.4,2.1v8.93h-3.12Z"/>
            <path class="cls-1" d="M216.48,262.88c0-.39-.2-.59-.59-.59h-.93v-2.36h2.06c.8,0,1.39.17,1.78.52.38.34.58.92.58,1.72v3.07h-2.9v-2.35Z"/>
            <path class="cls-1" d="M216.3,242.89v-4.76h2.94v4.76h-2.94Z"/>
            <path class="cls-1" d="M231.42,244.61h3.19v8.81c0,1.73-.42,3.04-1.25,3.91s-1.99,1.31-3.46,1.31c-.47,0-.92-.06-1.33-.18-.41-.12-.79-.28-1.14-.47-.35-.19-.67-.4-.94-.64-.28-.24-.51-.47-.69-.7l-.34,1.69h-2.85v-13.74h3.19v9.25c.15.31.33.6.56.87.23.27.49.51.78.71.29.21.61.36.94.48.33.11.67.17,1.02.17,1.54,0,2.31-.94,2.31-2.82v-8.66Z"/>
            <path class="cls-1" d="M246.11,258.34v-6.01h-2.99c-.92,0-1.65.14-2.2.4-.55.27-.82.76-.82,1.48,0,.59.19,1.05.56,1.39.38.34.84.5,1.4.5.29,0,.6-.03.92-.09.32-.06.64-.17.97-.33l.52,2.33c-.43.2-.86.33-1.31.42-.45.08-.93.12-1.44.12-.67,0-1.29-.09-1.86-.27-.57-.18-1.07-.45-1.5-.81-.43-.36-.76-.81-1.01-1.35-.25-.54-.37-1.17-.37-1.89,0-1.52.53-2.63,1.58-3.32,1.06-.7,2.65-1.04,4.8-1.04h2.75v-.47c0-.34-.06-.67-.17-.99-.11-.32-.29-.6-.52-.85s-.52-.44-.87-.59c-.35-.15-.76-.22-1.24-.22-1.01,0-1.9.15-2.66.44-.76.29-1.47.68-2.12,1.15l-1.01-2.21c.64-.47,1.47-.9,2.49-1.28,1.02-.38,2.17-.56,3.45-.56.38,0,.75.03,1.12.1.37.07.69.16.97.27l.83-1.03h3.51l-2.01,2.4c.42.46.76.97.99,1.55.24.57.36,1.18.36,1.82v8.93h-3.12Z"/>
            <path class="cls-1" d="M255.61,253.51c0,.93.2,1.59.59,1.99s.95.59,1.67.59,1.36-.21,1.97-.63,1.08-.95,1.39-1.61v-9.25h3.19v13.74h-2.85l-.34-1.69c-.18.25-.41.49-.7.72s-.6.45-.96.64c-.35.19-.74.34-1.17.45-.43.11-.87.17-1.32.17-1.46,0-2.6-.4-3.42-1.2-.83-.8-1.24-2.06-1.24-3.78v-9.05h3.19v8.91Z"/>
            <path class="cls-1" d="M268.58,258.34v-12.63c0-.69.15-1.32.45-1.89.3-.57.64-1.11,1.01-1.61.37-.5.71-.97,1.02-1.42.31-.45.47-.9.47-1.34s-.13-.8-.39-1.12-.69-.48-1.28-.48c-.69,0-1.27.16-1.74.48-.47.32-.95.76-1.42,1.31l-1.18-1.94c.57-.74,1.27-1.32,2.1-1.74.83-.42,1.79-.64,2.91-.64.65,0,1.24.11,1.75.32.52.21.95.49,1.31.85.36.35.63.76.82,1.24.19.47.28.97.28,1.47,0,.75-.15,1.4-.45,1.95-.3.55-.63,1.07-.99,1.56-.36.49-.69.98-.99,1.47-.3.49-.45,1.05-.45,1.69v12.46h-3.21Z"/>
            <path class="cls-1" d="M277.37,258.34l-1.23-4.86c-.08-.38-.32-.56-.71-.56h-.91v-2.55h1.79c.64,0,1.17.12,1.58.36.42.24.72.72.9,1.44l.91,3.63h.27c.36-.05.71-.19,1.04-.42.33-.23.63-.55.9-.96.26-.41.47-.89.63-1.45.16-.56.23-1.19.23-1.91,0-1.47-.31-2.54-.94-3.2-.63-.66-1.48-.99-2.56-.99-.78,0-1.59.14-2.4.43-.82.29-1.59.74-2.31,1.36l-.98-2.28c.69-.62,1.52-1.12,2.51-1.5.99-.38,2.11-.56,3.35-.56,2.11,0,3.72.6,4.85,1.79,1.12,1.19,1.68,2.85,1.68,4.98,0,1.01-.16,1.96-.48,2.83s-.75,1.64-1.3,2.31c-.55.66-1.19,1.18-1.91,1.56-.73.38-1.49.56-2.29.56h-2.6Z"/>
            <path class="cls-1" d="M302.44,258.34v-6.01h-2.99c-.92,0-1.65.14-2.2.4-.55.27-.82.76-.82,1.48,0,.59.19,1.05.56,1.39.38.34.84.5,1.4.5.29,0,.6-.03.92-.09.32-.06.64-.17.97-.33l.52,2.33c-.43.2-.86.33-1.31.42-.45.08-.93.12-1.44.12-.67,0-1.29-.09-1.86-.27-.57-.18-1.07-.45-1.5-.81-.43-.36-.76-.81-1.01-1.35-.25-.54-.37-1.17-.37-1.89,0-1.52.53-2.63,1.58-3.32,1.06-.7,2.65-1.04,4.8-1.04h2.75v-.47c0-.34-.06-.67-.17-.99-.11-.32-.29-.6-.52-.85s-.52-.44-.87-.59c-.35-.15-.76-.22-1.24-.22-1.01,0-1.9.15-2.66.44-.76.29-1.47.68-2.12,1.15l-1.01-2.21c.64-.47,1.47-.9,2.49-1.28,1.02-.38,2.17-.56,3.45-.56.38,0,.75.03,1.12.1.37.07.69.16.97.27l.83-1.03h3.51l-2.01,2.4c.42.46.76.97.99,1.55.24.57.36,1.18.36,1.82v8.93h-3.12Z"/>
            <path class="cls-1" d="M311.03,247.18c0,.38.19.56.56.56h2.5v2.4h-3.24c-.39,0-.76-.05-1.09-.15-.34-.1-.63-.26-.87-.48-.25-.22-.44-.51-.59-.86-.15-.35-.22-.79-.22-1.31v-1.13h2.94v.96ZM311.03,253.81c0,.38.19.56.56.56h2.5v2.4h-3.24c-.39,0-.76-.05-1.09-.15-.34-.1-.63-.26-.87-.48-.25-.22-.44-.51-.59-.86-.15-.35-.22-.79-.22-1.31v-1.13h2.94v.96Z"/>
            <path class="cls-1" d="M326.19,258.34v-8.32c0-.96-.28-1.73-.85-2.31-.56-.57-1.34-.86-2.32-.86-1.19,0-2.11.43-2.76,1.29-.65.86-.97,2.02-.97,3.5,0,.82.09,1.5.26,2.05s.4.99.67,1.34c.28.34.58.59.92.74.33.15.67.22.99.22s.63-.02.92-.07c.29-.05.59-.15.92-.29l.56,2.31c-.34.21-.72.37-1.14.47s-.94.15-1.56.15c-.74,0-1.45-.13-2.13-.4-.69-.27-1.3-.69-1.84-1.25-.54-.56-.97-1.28-1.29-2.15-.32-.87-.48-1.9-.48-3.09,0-1.03.15-1.99.45-2.88.3-.89.74-1.67,1.31-2.33.57-.66,1.28-1.18,2.13-1.56.85-.38,1.83-.56,2.94-.56,1.05,0,1.97.15,2.77.44.8.29,1.47.7,2.01,1.21s.95,1.12,1.23,1.83c.28.7.42,1.46.42,2.26v8.29h-3.19Z"/>
            <path class="cls-1" d="M332.32,254.91c.56.33,1.17.61,1.83.83.66.23,1.34.34,2.02.34,1.18,0,2.07-.39,2.69-1.17s.92-1.93.92-3.45-.32-2.75-.97-3.5c-.65-.74-1.53-1.12-2.66-1.12-.69,0-1.35.12-1.97.34-.63.23-1.25.56-1.85.98l-.74-2.4c.67-.44,1.43-.8,2.28-1.07.85-.27,1.72-.4,2.6-.4,2.06,0,3.66.6,4.8,1.82,1.14,1.21,1.71,2.94,1.71,5.18,0,2.45-.58,4.29-1.73,5.51-1.15,1.22-2.75,1.83-4.8,1.83-.98,0-1.89-.11-2.74-.32-.84-.21-1.55-.52-2.12-.93l.74-2.48Z"/>
            <path class="cls-1" d="M354.42,258.34v-8.54c0-.98-.27-1.72-.8-2.21-.53-.49-1.26-.74-2.17-.74-.34,0-.68.05-1.02.14-.34.09-.65.21-.93.37-.29.16-.54.34-.76.54-.22.2-.39.41-.5.63l2.06,1.74c-.51.18-.89.45-1.15.82-.26.37-.39.86-.39,1.48v5.76h-3.19v-5.74c0-.52.12-.99.37-1.4.25-.41.56-.73.93-.96l-1.99-1.62c.16-.56.45-1.09.85-1.61.4-.52.89-.97,1.46-1.37.57-.4,1.23-.72,1.96-.97.74-.25,1.53-.37,2.38-.37.98,0,1.85.13,2.6.4.75.27,1.39.65,1.9,1.13s.91,1.06,1.18,1.74c.27.68.4,1.42.4,2.22v8.54h-3.19Z"/>
            <path class="cls-1" d="M369.12,258.34v-6.01h-2.99c-.92,0-1.65.14-2.2.4-.55.27-.82.76-.82,1.48,0,.59.19,1.05.56,1.39.38.34.84.5,1.4.5.29,0,.6-.03.92-.09.32-.06.64-.17.97-.33l.52,2.33c-.43.2-.86.33-1.31.42-.45.08-.93.12-1.44.12-.67,0-1.29-.09-1.86-.27-.57-.18-1.07-.45-1.5-.81-.43-.36-.76-.81-1.01-1.35-.25-.54-.37-1.17-.37-1.89,0-1.52.53-2.63,1.58-3.32,1.06-.7,2.65-1.04,4.8-1.04h2.75v-.47c0-.79-.23-1.42-.67-1.91-.45-.49-1.16-.74-2.12-.74-1.01,0-1.9.15-2.66.44-.76.29-1.47.68-2.12,1.15l-1.01-2.21c.64-.47,1.47-.9,2.49-1.28,1.02-.38,2.17-.56,3.45-.56.88,0,1.68.12,2.39.37s1.32.59,1.82,1.03c.5.44.88.98,1.15,1.61.27.63.4,1.33.4,2.1v8.93h-3.12Z"/>
            <path class="cls-1" d="M377.98,258.34l-4.15-13.74h3.14l3.36,11.19h.27c.39,0,.77-.11,1.13-.34.36-.23.68-.55.97-.97.29-.42.51-.92.67-1.52.16-.6.25-1.25.25-1.97,0-1.49-.24-2.55-.72-3.18-.48-.63-1.1-.94-1.85-.94-.51,0-1.06.11-1.64.32l-.47-2.33c.33-.18.72-.31,1.19-.4.47-.09.95-.13,1.46-.13.74,0,1.42.15,2.06.44.64.29,1.19.73,1.66,1.3.47.57.83,1.27,1.1,2.1.27.83.4,1.77.4,2.83,0,1.14-.16,2.17-.47,3.08-.31.91-.75,1.68-1.31,2.32s-1.23,1.12-2,1.46c-.77.34-1.61.5-2.53.5h-2.53Z"/>
            <path class="cls-1" d="M392.16,253.78c0,.82.2,1.41.59,1.79.39.38.98.56,1.77.56s1.37-.2,1.77-.61c.39-.41.59-1.05.59-1.94v-8.98h3.19v8.95c0,1.6-.45,2.85-1.34,3.74s-2.29,1.34-4.21,1.34-3.32-.43-4.21-1.28c-.89-.85-1.34-2.05-1.34-3.61v-1.28c0-.52.11-.98.34-1.39.23-.4.48-.77.76-1.1.28-.33.53-.66.76-.98.23-.32.34-.65.34-.99v-.34c0-.38-.19-.56-.56-.56h-1.5v-2.5h1.89c.64,0,1.16.06,1.57.18.41.12.74.3.98.53.25.23.42.52.52.87.1.35.15.76.15,1.21v.61c0,.47-.11.89-.32,1.25-.21.36-.45.71-.71,1.04-.26.34-.5.67-.71,1.02-.21.34-.32.73-.32,1.15v1.3Z"/>
            <path class="cls-1" d="M408.84,258.34v-8.83c0-1.77-.74-2.65-2.21-2.65-.74,0-1.46.13-2.17.39-.71.26-1.35.57-1.9.93l-.81-2.28c.67-.44,1.45-.82,2.34-1.13.89-.31,1.83-.47,2.81-.47,1.68,0,2.96.47,3.83,1.42.87.95,1.3,2.24,1.3,3.88v8.73h-3.19Z"/>
            <path class="cls-1" d="M423.63,244.61h3.19v8.44c0,.83-.12,1.59-.37,2.28-.25.69-.63,1.28-1.15,1.77-.52.49-1.2.87-2.04,1.14-.83.27-1.84.41-3.02.41-.83,0-1.59-.09-2.28-.28-.69-.19-1.28-.47-1.78-.86s-.89-.87-1.17-1.45c-.28-.58-.42-1.26-.42-2.02s.23-1.46.7-2.02c.47-.56,1.06-.91,1.78-1.04-.31-.07-.61-.2-.91-.41-.29-.2-.56-.45-.8-.74-.24-.29-.43-.61-.56-.98-.14-.37-.21-.75-.21-1.14,0-.46.09-.89.26-1.29.17-.4.42-.75.74-1.04.32-.29.71-.53,1.18-.7.47-.17.99-.26,1.58-.26.62,0,1.17.05,1.63.13.47.09.87.22,1.21.38l-.32,2.38c-.28-.11-.55-.2-.81-.25-.26-.05-.51-.07-.74-.07-.54,0-.95.11-1.24.33s-.43.52-.43.9c0,.47.18.84.54,1.09.36.25.75.38,1.18.38h1.86l.27,2.45h-1.67c-.67,0-1.19.16-1.56.49-.37.33-.55.78-.55,1.35,0,.67.25,1.19.74,1.56s1.1.55,1.84.55c1.1,0,1.92-.28,2.48-.83s.83-1.3.83-2.23v-8.42Z"/>
            <path class="cls-1" d="M438.87,244.61h3.19v8.81c0,1.73-.42,3.04-1.25,3.91s-1.99,1.31-3.46,1.31c-.47,0-.92-.06-1.33-.18-.41-.12-.79-.28-1.14-.47-.35-.19-.67-.4-.94-.64-.28-.24-.51-.47-.69-.7l-.34,1.69h-2.85v-13.74h3.19v9.25c.15.31.33.6.56.87.23.27.49.51.78.71.29.21.61.36.94.48.33.11.67.17,1.02.17,1.54,0,2.31-.94,2.31-2.82v-8.66Z"/>
            <path class="cls-1" d="M438.79,239.92c0,.38.19.56.56.56h6.28v2.4h-7.02c-.39,0-.76-.05-1.09-.15-.33-.1-.63-.26-.87-.48-.25-.22-.44-.51-.59-.86-.15-.35-.22-.79-.22-1.31v-1.23h2.94v1.05Z"/>
            <path class="cls-1" d="M439.75,234.2c0,.25.11.37.34.37h3.29v2.26h-4.66c-.38,0-.68-.11-.91-.32-.23-.21-.34-.5-.34-.86v-.61c0-.25-.11-.37-.34-.37h-1.42v-2.28h2.48c.47,0,.85.11,1.14.32.29.21.43.56.43,1.03v.47Z"/>
            <path class="cls-1" d="M453.66,244.61h3.19v8.44c0,.83-.12,1.59-.37,2.28-.25.69-.63,1.28-1.15,1.77-.52.49-1.2.87-2.04,1.14-.83.27-1.84.41-3.02.41-.83,0-1.59-.09-2.28-.28-.69-.19-1.28-.47-1.78-.86s-.89-.87-1.17-1.45c-.28-.58-.42-1.26-.42-2.02s.23-1.46.7-2.02c.47-.56,1.06-.91,1.78-1.04-.31-.07-.61-.2-.91-.41-.29-.2-.56-.45-.8-.74-.24-.29-.43-.61-.56-.98-.14-.37-.21-.75-.21-1.14,0-.46.09-.89.26-1.29.17-.4.42-.75.74-1.04.32-.29.71-.53,1.18-.7.47-.17.99-.26,1.58-.26.62,0,1.17.05,1.63.13.47.09.87.22,1.21.38l-.32,2.38c-.28-.11-.55-.2-.81-.25-.26-.05-.51-.07-.74-.07-.54,0-.95.11-1.24.33s-.43.52-.43.9c0,.47.18.84.54,1.09.36.25.75.38,1.18.38h1.86l.27,2.45h-1.67c-.67,0-1.19.16-1.56.49-.37.33-.55.78-.55,1.35,0,.67.25,1.19.74,1.56s1.1.55,1.84.55c1.1,0,1.92-.28,2.48-.83s.83-1.3.83-2.23v-8.42Z"/>
          </g>
          <polygon class="cls-1" points="121.57 238.27 91.52 231.71 102.84 246.4 121.57 238.27"/>
        </g>
      </g>
    </g>
  </g>
  <g>
    <circle class="cls-5" cx="56.09" cy="183.05" r="29.84"/>
    <g>
      <rect class="cls-8" x="117.05" y="153.21" width="319.18" height="59.68" rx="14.43" ry="14.43"/>
      <g>
        <path d="M152.49,177.77l2,7.17c.08.35.16.7.25,1.06.09.36.16.75.23,1.18.07.43.13.9.19,1.41s.12,1.09.17,1.73h.09c.02-1.3.07-2.38.16-3.24.09-.86.18-1.57.28-2.13l1.28-7.98h3.69l-2.76,16.26h-4.15l-2.15-7.43c-.23-.81-.43-1.66-.6-2.54-.16-.88-.3-1.76-.39-2.63h-.09c-.1.87-.23,1.75-.39,2.63-.16.88-.36,1.73-.59,2.54l-2.15,7.43h-4.15l-2.76-16.26h3.69l1.28,7.98c.1.56.19,1.27.28,2.13.09.86.14,1.94.16,3.24h.09c.06-.64.12-1.21.17-1.73s.12-.98.19-1.41c.07-.43.14-.82.22-1.18.08-.36.16-.71.26-1.06l2-7.17h3.51Z"/>
        <path d="M168.31,190.54c1.01,0,1.79-.15,2.34-.44.55-.29.83-.74.83-1.34,0-.35-.1-.65-.3-.9-.2-.25-.47-.47-.81-.65-.34-.18-.72-.35-1.13-.49-.42-.15-.83-.29-1.23-.42-.72-.23-1.4-.49-2.05-.77-.65-.28-1.21-.62-1.7-1.03-.48-.41-.87-.89-1.16-1.44-.29-.55-.44-1.21-.44-1.99,0-.64.15-1.23.45-1.77.3-.54.72-1.02,1.26-1.42.54-.41,1.19-.72,1.93-.94.74-.22,1.56-.33,2.45-.33,1.24,0,2.33.14,3.27.41.94.27,1.81.62,2.63,1.04l-.99,2.67c-.75-.41-1.51-.69-2.28-.86-.76-.16-1.58-.25-2.45-.25-.74,0-1.35.11-1.86.33-.5.22-.75.59-.75,1.09,0,.56.32,1,.96,1.32s1.47.65,2.5,1c.81.27,1.55.56,2.21.87.66.31,1.22.67,1.7,1.09.47.42.84.91,1.09,1.48.25.57.38,1.24.38,2.02,0,.7-.14,1.33-.41,1.9-.27.57-.68,1.07-1.22,1.5s-1.22.75-2.03.99-1.77.35-2.87.35c-1.16,0-2.24-.12-3.24-.36-1-.24-1.88-.58-2.66-1.03l.9-2.87c.72.39,1.47.69,2.26.91.79.22,1.61.33,2.44.33Z"/>
        <path d="M171.22,171.59c0,.29.14.44.41.44h3.4v2.9h-5.17c-.44,0-.81-.13-1.09-.38-.28-.25-.42-.6-.42-1.05v-.73c0-.29-.14-.44-.41-.44h-1.71v-2.99h3.11c.58,0,1.04.13,1.38.39.34.26.51.67.51,1.23v.61Z"/>
        <path d="M181.58,186.8c-.35,0-.52.18-.52.55v.09c0,2.07,1.15,3.11,3.45,3.11,1.37,0,2.46-.45,3.25-1.36.79-.91,1.19-2.33,1.19-4.27,0-1.7-.43-3.01-1.29-3.92-.86-.91-1.99-1.36-3.38-1.36-1.18,0-2.25.21-3.19.62s-1.79.9-2.53,1.47l-1.22-2.82c.81-.58,1.81-1.11,2.99-1.58,1.18-.47,2.58-.71,4.21-.71,1.2,0,2.3.18,3.31.55,1.01.37,1.87.91,2.6,1.63.73.72,1.29,1.6,1.68,2.64.4,1.04.6,2.25.6,3.6,0,2.86-.71,5-2.13,6.42s-3.35,2.12-5.79,2.12c-1.24,0-2.32-.15-3.25-.44-.93-.29-1.7-.71-2.31-1.25-.61-.54-1.07-1.19-1.38-1.94s-.46-1.59-.46-2.5v-.49c0-1.06.23-1.86.7-2.38s1.22-.78,2.26-.78h3.72v3.02h-2.5Z"/>
        <path d="M206.25,176.96h3.77v10.42c0,2.05-.49,3.59-1.48,4.63-.99,1.04-2.35,1.55-4.09,1.55-.56,0-1.08-.07-1.57-.22-.48-.15-.93-.33-1.35-.55-.42-.22-.79-.47-1.12-.75-.33-.28-.6-.56-.81-.83l-.41,2h-3.37v-16.26h3.77v10.94c.17.37.4.71.67,1.03s.58.6.93.84c.35.24.72.43,1.12.57.4.14.8.2,1.2.2,1.82,0,2.73-1.11,2.73-3.34v-10.25Z"/>
        <path d="M224.57,182.73c0-1.05-.17-1.82-.51-2.34-.34-.51-.9-.77-1.7-.77-.89,0-1.74.22-2.55.67-.81.45-1.54,1.04-2.18,1.77v11.15h-3.77v-16.26h3.37l.41,2c.68-.58,1.48-1.12,2.41-1.61.93-.49,1.98-.74,3.16-.74,1.53,0,2.77.51,3.72,1.54.95,1.03,1.42,2.5,1.42,4.41v10.65h-3.77v-10.48Z"/>
        <path d="M226.4,175.36c-.45,0-.87-.08-1.26-.25-.4-.16-.74-.39-1.03-.68-.29-.29-.52-.63-.7-1.02-.17-.39-.26-.81-.26-1.28s.09-.89.26-1.28c.17-.39.41-.73.7-1.02s.63-.52,1.03-.68.82-.25,1.26-.25.9.08,1.29.25c.4.16.74.39,1.03.68s.52.63.7,1.02c.17.39.26.81.26,1.28s-.09.89-.26,1.28c-.17.39-.41.73-.7,1.02-.29.29-.63.52-1.03.68-.4.16-.83.25-1.29.25ZM226.4,173.27c.33,0,.6-.11.81-.33.21-.22.32-.5.32-.83s-.11-.6-.32-.81-.48-.32-.81-.32c-.29,0-.55.11-.77.32-.22.21-.33.48-.33.81s.11.6.33.83.48.33.77.33Z"/>
        <path d="M238.74,193.21v-10.45c0-2.09-.87-3.14-2.61-3.14-.87,0-1.73.16-2.57.46s-1.59.68-2.25,1.1l-.96-2.7c.79-.52,1.72-.97,2.77-1.34,1.05-.37,2.16-.55,3.32-.55,1.99,0,3.5.56,4.53,1.68,1.03,1.12,1.54,2.65,1.54,4.59v10.33h-3.77Z"/>
        <path d="M251.16,190.54c1.01,0,1.79-.15,2.34-.44.55-.29.83-.74.83-1.34,0-.35-.1-.65-.3-.9-.2-.25-.47-.47-.81-.65-.34-.18-.72-.35-1.13-.49-.42-.15-.83-.29-1.23-.42-.72-.23-1.4-.49-2.05-.77-.65-.28-1.21-.62-1.7-1.03-.48-.41-.87-.89-1.16-1.44-.29-.55-.44-1.21-.44-1.99,0-.64.15-1.23.45-1.77.3-.54.72-1.02,1.26-1.42.54-.41,1.19-.72,1.93-.94.74-.22,1.56-.33,2.45-.33,1.24,0,2.33.14,3.27.41.94.27,1.81.62,2.63,1.04l-.99,2.67c-.75-.41-1.51-.69-2.28-.86-.76-.16-1.58-.25-2.45-.25-.74,0-1.35.11-1.86.33-.5.22-.75.59-.75,1.09,0,.56.32,1,.96,1.32s1.47.65,2.5,1c.81.27,1.55.56,2.21.87.66.31,1.22.67,1.7,1.09.47.42.84.91,1.09,1.48.25.57.38,1.24.38,2.02,0,.7-.14,1.33-.41,1.9-.27.57-.68,1.07-1.22,1.5s-1.22.75-2.03.99-1.77.35-2.87.35c-1.16,0-2.24-.12-3.24-.36-1-.24-1.88-.58-2.66-1.03l.9-2.87c.72.39,1.47.69,2.26.91.79.22,1.61.33,2.44.33Z"/>
        <path d="M267.65,193.21v-10.45c0-2.09-.87-3.14-2.61-3.14-.87,0-1.73.16-2.57.46s-1.59.68-2.25,1.1l-.96-2.7c.79-.52,1.72-.97,2.77-1.34,1.05-.37,2.16-.55,3.32-.55,1.99,0,3.5.56,4.53,1.68,1.03,1.12,1.54,2.65,1.54,4.59v10.33h-3.77Z"/>
        <path d="M285.15,176.96h3.77v9.99c0,.99-.15,1.89-.44,2.7-.29.81-.75,1.51-1.36,2.09-.62.58-1.42,1.03-2.41,1.35-.99.32-2.18.48-3.57.48-.99,0-1.89-.11-2.7-.33-.81-.22-1.51-.56-2.1-1.02-.59-.45-1.05-1.03-1.38-1.71-.33-.69-.49-1.48-.49-2.39s.28-1.73.83-2.4c.55-.67,1.25-1.08,2.1-1.23-.37-.08-.73-.24-1.07-.48-.35-.24-.66-.53-.94-.87-.28-.34-.5-.73-.67-1.16s-.25-.89-.25-1.35c0-.54.1-1.05.3-1.52s.49-.89.87-1.23c.38-.35.84-.62,1.39-.83.55-.2,1.18-.31,1.87-.31.74,0,1.38.05,1.93.16.55.11,1.03.26,1.44.45l-.38,2.82c-.33-.13-.65-.23-.96-.29s-.6-.09-.87-.09c-.64,0-1.13.13-1.47.39-.34.26-.51.61-.51,1.06,0,.56.21.99.64,1.29.43.3.89.45,1.39.45h2.21l.32,2.9h-1.97c-.79,0-1.41.19-1.84.58-.44.39-.65.92-.65,1.6,0,.79.29,1.41.87,1.84s1.31.65,2.18.65c1.3,0,2.27-.33,2.93-.99s.99-1.54.99-2.64v-9.96Z"/>
        <path d="M303.21,193.21v-10.1c0-1.16-.31-2.03-.94-2.61s-1.49-.87-2.57-.87c-.41,0-.81.05-1.2.16-.4.11-.77.25-1.1.44-.34.18-.64.4-.9.64-.26.24-.46.49-.59.74l2.44,2.06c-.6.21-1.06.54-1.36.97-.31.44-.46,1.02-.46,1.76v6.82h-3.77v-6.79c0-.62.15-1.17.44-1.65.29-.48.66-.86,1.1-1.13l-2.35-1.92c.19-.66.53-1.29,1-1.9.47-.61,1.05-1.15,1.73-1.63s1.45-.86,2.32-1.15c.87-.29,1.81-.44,2.82-.44,1.16,0,2.19.16,3.08.48.89.32,1.64.77,2.25,1.34.61.57,1.07,1.26,1.39,2.06.32.8.48,1.68.48,2.63v10.1h-3.77Z"/>
        <path d="M317.37,193.21v-10.45c0-2.09-.87-3.14-2.61-3.14-.87,0-1.73.16-2.57.46s-1.59.68-2.25,1.1l-.96-2.7c.79-.52,1.72-.97,2.77-1.34,1.05-.37,2.16-.55,3.32-.55,1.99,0,3.5.56,4.53,1.68,1.03,1.12,1.54,2.65,1.54,4.59v10.33h-3.77Z"/>
        <path d="M329.8,190.54c1.01,0,1.79-.15,2.34-.44.55-.29.83-.74.83-1.34,0-.35-.1-.65-.3-.9-.2-.25-.47-.47-.81-.65-.34-.18-.72-.35-1.13-.49-.42-.15-.83-.29-1.23-.42-.72-.23-1.4-.49-2.05-.77-.65-.28-1.21-.62-1.7-1.03-.48-.41-.87-.89-1.16-1.44-.29-.55-.44-1.21-.44-1.99,0-.64.15-1.23.45-1.77.3-.54.72-1.02,1.26-1.42.54-.41,1.19-.72,1.93-.94.74-.22,1.56-.33,2.45-.33,1.24,0,2.33.14,3.27.41.94.27,1.81.62,2.63,1.04l-.99,2.67c-.75-.41-1.51-.69-2.28-.86-.76-.16-1.58-.25-2.45-.25-.74,0-1.35.11-1.86.33-.5.22-.75.59-.75,1.09,0,.56.32,1,.96,1.32s1.47.65,2.5,1c.81.27,1.55.56,2.21.87.66.31,1.22.67,1.7,1.09.47.42.84.91,1.09,1.48.25.57.38,1.24.38,2.02,0,.7-.14,1.33-.41,1.9-.27.57-.68,1.07-1.22,1.5s-1.22.75-2.03.99-1.77.35-2.87.35c-1.16,0-2.24-.12-3.24-.36-1-.24-1.88-.58-2.66-1.03l.9-2.87c.72.39,1.47.69,2.26.91.79.22,1.61.33,2.44.33Z"/>
        <path d="M343.44,187.49c0,1.1.23,1.89.7,2.35.46.46,1.12.7,1.97.7s1.61-.25,2.34-.74c.73-.49,1.27-1.13,1.64-1.9v-10.94h3.77v16.26h-3.37l-.41-2c-.21.29-.49.58-.83.86-.34.28-.72.53-1.13.75-.42.22-.88.4-1.38.54-.5.14-1.03.2-1.57.2-1.72,0-3.07-.47-4.05-1.42-.98-.95-1.47-2.44-1.47-4.47v-10.71h3.77v10.54Z"/>
        <path d="M360.39,180c0,.45.22.67.67.67h2.96v2.84h-3.83c-.46,0-.9-.06-1.29-.17s-.74-.3-1.03-.57c-.29-.26-.52-.6-.7-1.02-.17-.42-.26-.93-.26-1.55v-1.33h3.48v1.13ZM360.39,187.84c0,.45.22.67.67.67h2.96v2.84h-3.83c-.46,0-.9-.06-1.29-.17-.4-.12-.74-.3-1.03-.57-.29-.26-.52-.6-.7-1.02-.17-.42-.26-.93-.26-1.55v-1.34h3.48v1.13Z"/>
        <path d="M370.9,186.01c.23-.44.59-.82,1.09-1.13s1.16-.46,1.99-.46h1.63v3.13h-1.71c-.89,0-1.57.17-2.03.52-.46.35-.78.83-.96,1.45v3.69h-3.77v-10.1c0-.91.17-1.76.51-2.55.34-.79.82-1.48,1.45-2.06s1.4-1.04,2.31-1.38c.91-.34,1.95-.51,3.11-.51s2.2.17,3.11.51c.91.34,1.68.8,2.31,1.38.63.58,1.11,1.27,1.45,2.06.34.79.51,1.65.51,2.55v10.1h-3.77v-10.07c0-1.01-.31-1.84-.93-2.51-.62-.67-1.51-1-2.67-1s-2.05.33-2.67,1c-.62.67-.93,1.5-.93,2.51v2.87Z"/>
        <path d="M390.53,190.54c1.01,0,1.79-.15,2.34-.44.55-.29.83-.74.83-1.34,0-.35-.1-.65-.3-.9-.2-.25-.47-.47-.81-.65-.34-.18-.72-.35-1.13-.49-.42-.15-.83-.29-1.23-.42-.72-.23-1.4-.49-2.05-.77-.65-.28-1.21-.62-1.7-1.03-.48-.41-.87-.89-1.16-1.44-.29-.55-.44-1.21-.44-1.99,0-.64.15-1.23.45-1.77.3-.54.72-1.02,1.26-1.42.54-.41,1.19-.72,1.93-.94.74-.22,1.56-.33,2.45-.33,1.24,0,2.33.14,3.27.41.94.27,1.81.62,2.63,1.04l-.99,2.67c-.75-.41-1.51-.69-2.28-.86-.76-.16-1.58-.25-2.45-.25-.74,0-1.35.11-1.86.33-.5.22-.75.59-.75,1.09,0,.56.32,1,.96,1.32s1.47.65,2.5,1c.81.27,1.55.56,2.21.87.66.31,1.22.67,1.7,1.09.47.42.84.91,1.09,1.48.25.57.38,1.24.38,2.02,0,.7-.14,1.33-.41,1.9-.27.57-.68,1.07-1.22,1.5s-1.22.75-2.03.99-1.77.35-2.87.35c-1.16,0-2.24-.12-3.24-.36-1-.24-1.88-.58-2.66-1.03l.9-2.87c.72.39,1.47.69,2.26.91.79.22,1.61.33,2.44.33Z"/>
        <path d="M392.76,171.41c0,.45.22.67.67.67h7.43v2.84h-8.3c-.46,0-.9-.06-1.29-.17-.4-.12-.74-.3-1.03-.57-.29-.26-.52-.6-.7-1.02s-.26-.93-.26-1.55v-1.45h3.48v1.25Z"/>
        <path d="M407.57,193.56c-2.26,0-4.03-.54-5.28-1.63-1.26-1.08-1.89-2.72-1.89-4.91v-10.07h3.77v10.07c0,1.12.3,1.99.9,2.6.6.61,1.43.91,2.5.91s1.9-.31,2.5-.91c.6-.61.9-1.48.9-2.6v-10.07h3.77v10.07c0,2.19-.63,3.82-1.89,4.91-1.26,1.08-3.02,1.63-5.28,1.63Z"/>
      </g>
      <polygon class="cls-8" points="139.03 169.46 103.48 161.7 116.88 179.08 139.03 169.46"/>
    </g>
    <g>
      <rect class="cls-8" x="117.05" y="233.63" width="334.8" height="167.56" rx="14.43" ry="14.43"/>
      <g>
        <path d="M153.55,267.97c0,1.9-.53,3.37-1.6,4.43-1.06,1.06-2.73,1.58-4.99,1.58s-3.95-.5-5.01-1.49c-1.06-1-1.58-2.42-1.58-4.28v-1.51c0-.62.13-1.17.41-1.64.27-.47.57-.91.9-1.31.33-.4.63-.78.9-1.16.27-.38.41-.77.41-1.18v-.41c0-.44-.22-.67-.67-.67h-1.77v-2.96h2.24c.75,0,1.37.07,1.86.22.48.15.87.35,1.16.62.29.27.49.61.61,1.03.12.42.17.9.17,1.44v.73c0,.56-.13,1.05-.38,1.48-.25.43-.53.84-.84,1.23-.31.4-.59.8-.84,1.2-.25.41-.38.86-.38,1.36v1.54c0,.97.24,1.67.71,2.12.47.45,1.18.67,2.1.67s1.63-.24,2.1-.73c.47-.48.71-1.25.71-2.29v-3.02c0-.62-.1-1.06-.3-1.34-.2-.27-.53-.41-.97-.41h-.44l-.58-1.39,3.08-4.47h3.95l-3.28,4.21c.77.25,1.35.7,1.74,1.34.39.64.58,1.35.58,2.15v2.9Z"/>
        <path d="M149.87,255.35v-5.63h3.48v5.63h-3.48Z"/>
        <path d="M160.67,267.22c-.35,0-.52.18-.52.55v.09c0,2.07,1.15,3.11,3.45,3.11,1.37,0,2.46-.45,3.25-1.36.79-.91,1.19-2.33,1.19-4.27,0-1.7-.43-3.01-1.29-3.92-.86-.91-1.99-1.36-3.38-1.36-1.18,0-2.25.21-3.19.62s-1.79.9-2.53,1.47l-1.22-2.82c.81-.58,1.81-1.11,2.99-1.58,1.18-.47,2.58-.71,4.21-.71,1.2,0,2.3.18,3.31.55,1.01.37,1.87.91,2.6,1.63.73.72,1.29,1.6,1.68,2.64.4,1.04.6,2.25.6,3.6,0,2.86-.71,5-2.13,6.42s-3.35,2.12-5.79,2.12c-1.24,0-2.32-.15-3.25-.44-.93-.29-1.7-.71-2.31-1.25-.61-.54-1.07-1.19-1.38-1.94s-.46-1.59-.46-2.5v-.49c0-1.06.23-1.86.7-2.38s1.22-.78,2.26-.78h3.72v3.02h-2.5Z"/>
        <path d="M177.88,273.63l-4.91-16.26h3.72l3.98,13.24h.32c.46,0,.91-.14,1.34-.41.43-.27.81-.65,1.15-1.15.34-.49.6-1.09.8-1.8.19-.71.29-1.49.29-2.34,0-1.76-.29-3.01-.86-3.76-.57-.74-1.3-1.12-2.19-1.12-.6,0-1.25.13-1.94.38l-.55-2.76c.39-.21.86-.37,1.41-.48s1.13-.16,1.73-.16c.87,0,1.68.17,2.44.52.75.35,1.41.86,1.96,1.54.55.68.99,1.51,1.31,2.48.32.98.48,2.1.48,3.35,0,1.35-.18,2.57-.55,3.64-.37,1.07-.89,1.99-1.55,2.74s-1.46,1.33-2.37,1.73c-.91.4-1.91.6-2.99.6h-2.99Z"/>
        <path d="M202.09,263.16c0-1.05-.17-1.82-.51-2.34-.34-.51-.9-.77-1.7-.77-.89,0-1.74.22-2.55.67-.81.45-1.54,1.04-2.18,1.77v11.15h-3.77v-16.26h3.37l.41,2c.68-.58,1.48-1.12,2.41-1.61.93-.49,1.98-.74,3.16-.74,1.53,0,2.77.51,3.72,1.54.95,1.03,1.42,2.5,1.42,4.41v10.65h-3.77v-10.48Z"/>
        <path d="M216.26,273.63v-10.45c0-2.09-.87-3.14-2.61-3.14-.87,0-1.73.16-2.57.46s-1.59.68-2.25,1.1l-.96-2.7c.79-.52,1.72-.97,2.77-1.34,1.05-.37,2.16-.55,3.32-.55,1.99,0,3.5.56,4.53,1.68,1.03,1.12,1.54,2.65,1.54,4.59v10.33h-3.77Z"/>
        <path d="M226.82,273.63l-4.91-16.26h3.72l3.98,13.24h.32c.46,0,.91-.14,1.34-.41.43-.27.81-.65,1.15-1.15.34-.49.6-1.09.8-1.8.19-.71.29-1.49.29-2.34,0-1.76-.29-3.01-.86-3.76-.57-.74-1.3-1.12-2.19-1.12-.6,0-1.25.13-1.94.38l-.55-2.76c.39-.21.86-.37,1.41-.48s1.13-.16,1.73-.16c.87,0,1.68.17,2.44.52.75.35,1.41.86,1.96,1.54.55.68.99,1.51,1.31,2.48.32.98.48,2.1.48,3.35,0,1.35-.18,2.57-.55,3.64-.37,1.07-.89,1.99-1.55,2.74s-1.46,1.33-2.37,1.73c-.91.4-1.91.6-2.99.6h-2.99Z"/>
        <path d="M250.77,273.63v-10.1c0-1.16-.31-2.03-.94-2.61s-1.49-.87-2.57-.87c-.41,0-.81.05-1.2.16-.4.11-.77.25-1.1.44-.34.18-.64.4-.9.64-.26.24-.46.49-.59.74l2.44,2.06c-.6.21-1.06.54-1.36.97-.31.44-.46,1.02-.46,1.76v6.82h-3.77v-6.79c0-.62.15-1.17.44-1.65.29-.48.66-.86,1.1-1.13l-2.35-1.92c.19-.66.53-1.29,1-1.9.47-.61,1.05-1.15,1.73-1.63s1.45-.86,2.32-1.15c.87-.29,1.81-.44,2.82-.44,1.16,0,2.19.16,3.08.48.89.32,1.64.77,2.25,1.34.61.57,1.07,1.26,1.39,2.06.32.8.48,1.68.48,2.63v10.1h-3.77Z"/>
        <path d="M264.94,273.63v-10.45c0-2.09-.87-3.14-2.61-3.14-.87,0-1.73.16-2.57.46s-1.59.68-2.25,1.1l-.96-2.7c.79-.52,1.72-.97,2.77-1.34,1.05-.37,2.16-.55,3.32-.55,1.99,0,3.5.56,4.53,1.68,1.03,1.12,1.54,2.65,1.54,4.59v10.33h-3.77Z"/>
        <path d="M277.36,270.96c1.01,0,1.79-.15,2.34-.44.55-.29.83-.74.83-1.34,0-.35-.1-.65-.3-.9-.2-.25-.47-.47-.81-.65-.34-.18-.72-.35-1.13-.49-.42-.15-.83-.29-1.23-.42-.72-.23-1.4-.49-2.05-.77-.65-.28-1.21-.62-1.7-1.03-.48-.41-.87-.89-1.16-1.44-.29-.55-.44-1.21-.44-1.99,0-.64.15-1.23.45-1.77.3-.54.72-1.02,1.26-1.42.54-.41,1.19-.72,1.93-.94.74-.22,1.56-.33,2.45-.33,1.24,0,2.33.14,3.27.41.94.27,1.81.62,2.63,1.04l-.99,2.67c-.75-.41-1.51-.69-2.28-.86-.76-.16-1.58-.25-2.45-.25-.74,0-1.35.11-1.86.33-.5.22-.75.59-.75,1.09,0,.56.32,1,.96,1.32s1.47.65,2.5,1c.81.27,1.55.56,2.21.87.66.31,1.22.67,1.7,1.09.47.42.84.91,1.09,1.48.25.57.38,1.24.38,2.02,0,.7-.14,1.33-.41,1.9-.27.57-.68,1.07-1.22,1.5s-1.22.75-2.03.99-1.77.35-2.87.35c-1.16,0-2.24-.12-3.24-.36-1-.24-1.88-.58-2.66-1.03l.9-2.87c.72.39,1.47.69,2.26.91.79.22,1.61.33,2.44.33Z"/>
        <path d="M299.97,267.97c0,1.9-.53,3.37-1.6,4.43-1.06,1.06-2.73,1.58-4.99,1.58s-3.95-.5-5.01-1.49c-1.06-1-1.58-2.42-1.58-4.28v-1.51c0-.62.13-1.17.41-1.64.27-.47.57-.91.9-1.31.33-.4.63-.78.9-1.16.27-.38.41-.77.41-1.18v-.41c0-.44-.22-.67-.67-.67h-1.77v-2.96h2.24c.75,0,1.37.07,1.86.22.48.15.87.35,1.16.62.29.27.49.61.61,1.03.12.42.17.9.17,1.44v.73c0,.56-.13,1.05-.38,1.48-.25.43-.53.84-.84,1.23-.31.4-.59.8-.84,1.2-.25.41-.38.86-.38,1.36v1.54c0,.97.24,1.67.71,2.12.47.45,1.18.67,2.1.67s1.63-.24,2.1-.73c.47-.48.71-1.25.71-2.29v-3.02c0-.62-.1-1.06-.3-1.34-.2-.27-.53-.41-.97-.41h-.44l-.58-1.39,3.08-4.47h3.95l-3.28,4.21c.77.25,1.35.7,1.74,1.34.39.64.58,1.35.58,2.15v2.9Z"/>
        <path d="M297.97,255.78c-.45,0-.87-.08-1.26-.25-.4-.16-.74-.39-1.03-.68-.29-.29-.52-.63-.7-1.02-.17-.39-.26-.81-.26-1.28s.09-.89.26-1.28c.17-.39.41-.73.7-1.02s.63-.52,1.03-.68.82-.25,1.26-.25.9.08,1.29.25c.4.16.74.39,1.03.68s.52.63.7,1.02c.17.39.26.81.26,1.28s-.09.89-.26,1.28c-.17.39-.41.73-.7,1.02-.29.29-.63.52-1.03.68-.4.16-.83.25-1.29.25ZM297.97,253.69c.33,0,.6-.11.81-.33.21-.22.32-.5.32-.83s-.11-.6-.32-.81-.48-.32-.81-.32c-.29,0-.55.11-.77.32-.22.21-.33.48-.33.81s.11.6.33.83.48.33.77.33Z"/>
        <path d="M310.31,273.63v-10.45c0-2.09-.87-3.14-2.61-3.14-.87,0-1.73.16-2.57.46s-1.59.68-2.25,1.1l-.96-2.7c.79-.52,1.72-.97,2.77-1.34,1.05-.37,2.16-.55,3.32-.55,1.99,0,3.5.56,4.53,1.68,1.03,1.12,1.54,2.65,1.54,4.59v10.33h-3.77Z"/>
        <path d="M322.73,270.96c1.01,0,1.79-.15,2.34-.44.55-.29.83-.74.83-1.34,0-.35-.1-.65-.3-.9-.2-.25-.47-.47-.81-.65-.34-.18-.72-.35-1.13-.49-.42-.15-.83-.29-1.23-.42-.72-.23-1.4-.49-2.05-.77-.65-.28-1.21-.62-1.7-1.03-.48-.41-.87-.89-1.16-1.44-.29-.55-.44-1.21-.44-1.99,0-.64.15-1.23.45-1.77.3-.54.72-1.02,1.26-1.42.54-.41,1.19-.72,1.93-.94.74-.22,1.56-.33,2.45-.33,1.24,0,2.33.14,3.27.41.94.27,1.81.62,2.63,1.04l-.99,2.67c-.75-.41-1.51-.69-2.28-.86-.76-.16-1.58-.25-2.45-.25-.74,0-1.35.11-1.86.33-.5.22-.75.59-.75,1.09,0,.56.32,1,.96,1.32s1.47.65,2.5,1c.81.27,1.55.56,2.21.87.66.31,1.22.67,1.7,1.09.47.42.84.91,1.09,1.48.25.57.38,1.24.38,2.02,0,.7-.14,1.33-.41,1.9-.27.57-.68,1.07-1.22,1.5s-1.22.75-2.03.99-1.77.35-2.87.35c-1.16,0-2.24-.12-3.24-.36-1-.24-1.88-.58-2.66-1.03l.9-2.87c.72.39,1.47.69,2.26.91.79.22,1.61.33,2.44.33Z"/>
        <path d="M335.3,260.43c0,.45.22.67.67.67h2.96v2.84h-3.83c-.46,0-.9-.06-1.29-.17s-.74-.3-1.03-.57c-.29-.26-.52-.6-.7-1.02-.17-.42-.26-.93-.26-1.55v-1.33h3.48v1.13ZM335.3,268.26c0,.45.22.67.67.67h2.96v2.84h-3.83c-.46,0-.9-.06-1.29-.17-.4-.12-.74-.3-1.03-.57-.29-.26-.52-.6-.7-1.02-.17-.42-.26-.93-.26-1.55v-1.34h3.48v1.13Z"/>
        <path d="M345.9,257.38v16.26h-3.77v-16.26h3.77Z"/>
        <path d="M352.78,273.63l-4.91-16.26h3.72l3.98,13.24h.32c.46,0,.91-.14,1.34-.41.43-.27.81-.65,1.15-1.15.34-.49.6-1.09.8-1.8.19-.71.29-1.49.29-2.34,0-1.76-.29-3.01-.86-3.76-.57-.74-1.3-1.12-2.19-1.12-.6,0-1.25.13-1.94.38l-.55-2.76c.39-.21.86-.37,1.41-.48s1.13-.16,1.73-.16c.87,0,1.68.17,2.44.52.75.35,1.41.86,1.96,1.54.55.68.99,1.51,1.31,2.48.32.98.48,2.1.48,3.35,0,1.35-.18,2.57-.55,3.64-.37,1.07-.89,1.99-1.55,2.74s-1.46,1.33-2.37,1.73c-.91.4-1.91.6-2.99.6h-2.99Z"/>
        <path d="M349.23,255.35v-2.84h13.21v2.84h-13.21Z"/>
        <path d="M369.99,267.92c0,1.1.23,1.89.7,2.35.46.46,1.12.7,1.97.7s1.61-.25,2.34-.74c.73-.49,1.27-1.13,1.64-1.9v-10.94h3.77v16.26h-3.37l-.41-2c-.21.29-.49.58-.83.86-.34.28-.72.53-1.13.75-.42.22-.88.4-1.38.54-.5.14-1.03.2-1.57.2-1.72,0-3.07-.47-4.05-1.42-.98-.95-1.47-2.44-1.47-4.47v-10.71h3.77v10.54Z"/>
        <path d="M154.05,303.65c0,.93-.13,1.71-.39,2.35s-.68,1.16-1.25,1.57c-.57.41-1.3.7-2.18.89-.88.18-1.93.28-3.15.28s-2.3-.1-3.18-.3c-.88-.2-1.6-.52-2.16-.94-.56-.43-.97-.98-1.23-1.65-.26-.68-.39-1.49-.39-2.44v-1.54h3.6v1.54c0,.93.27,1.58.8,1.96s1.39.57,2.57.57,2.09-.16,2.6-.49.77-.92.77-1.77v-1.31c0-.39-.1-.67-.31-.84-.2-.17-.49-.29-.86-.35l-4.94-.7c-1.34-.19-2.39-.6-3.16-1.23-.77-.63-1.16-1.58-1.16-2.86,0-1.37.6-2.47,1.81-3.28,1.21-.81,2.93-1.22,5.15-1.22,1.22,0,2.36.11,3.41.32,1.05.21,2.05.56,2.98,1.05l-.67,2.79c-.93-.5-1.87-.85-2.83-1.04-.96-.19-1.9-.29-2.83-.29-1.12,0-1.97.16-2.55.46-.58.31-.87.69-.87,1.13,0,.72.48,1.15,1.45,1.31l4.85.7c1.3.19,2.31.6,3.03,1.23s1.09,1.6,1.09,2.92v1.22Z"/>
        <path d="M161.04,302.75c0,1.1.23,1.89.7,2.35.46.46,1.12.7,1.97.7s1.61-.25,2.34-.74c.73-.49,1.27-1.13,1.64-1.9v-10.94h3.77v16.26h-3.37l-.41-2c-.21.29-.49.58-.83.86-.34.28-.72.53-1.13.75-.42.22-.88.4-1.38.54-.5.14-1.03.2-1.57.2-1.72,0-3.07-.47-4.05-1.42-.98-.95-1.47-2.44-1.47-4.47v-10.71h3.77v10.54Z"/>
        <path d="M181.91,308.47v-10.45c0-2.09-.87-3.14-2.61-3.14-.87,0-1.73.16-2.57.46s-1.59.68-2.25,1.1l-.96-2.7c.79-.52,1.72-.97,2.77-1.34,1.05-.37,2.16-.55,3.32-.55,1.99,0,3.5.56,4.53,1.68,1.03,1.12,1.54,2.65,1.54,4.59v10.33h-3.77Z"/>
        <path d="M193.24,301.27c.23-.44.59-.82,1.09-1.13s1.16-.46,1.99-.46h1.63v3.13h-1.71c-.89,0-1.57.17-2.03.52-.46.35-.78.83-.96,1.45v3.69h-3.77v-10.1c0-.91.17-1.76.51-2.55.34-.79.82-1.48,1.45-2.06s1.4-1.04,2.31-1.38c.91-.34,1.95-.51,3.11-.51s2.2.17,3.11.51c.91.34,1.68.8,2.31,1.38.63.58,1.11,1.27,1.45,2.06.34.79.51,1.65.51,2.55v10.1h-3.77v-10.07c0-1.01-.31-1.84-.93-2.51-.62-.67-1.51-1-2.67-1s-2.05.33-2.67,1c-.62.67-.93,1.5-.93,2.51v2.87Z"/>
        <path d="M214.6,308.47v-10.45c0-2.09-.87-3.14-2.61-3.14-.87,0-1.73.16-2.57.46s-1.59.68-2.25,1.1l-.96-2.7c.79-.52,1.72-.97,2.77-1.34,1.05-.37,2.16-.55,3.32-.55,1.99,0,3.5.56,4.53,1.68,1.03,1.12,1.54,2.65,1.54,4.59v10.33h-3.77Z"/>
        <path d="M227.02,305.8c1.01,0,1.79-.15,2.34-.44.55-.29.83-.74.83-1.34,0-.35-.1-.65-.3-.9-.2-.25-.47-.47-.81-.65-.34-.18-.72-.35-1.13-.49-.42-.15-.83-.29-1.23-.42-.72-.23-1.4-.49-2.05-.77-.65-.28-1.21-.62-1.7-1.03-.48-.41-.87-.89-1.16-1.44-.29-.55-.44-1.21-.44-1.99,0-.64.15-1.23.45-1.77.3-.54.72-1.02,1.26-1.42.54-.41,1.19-.72,1.93-.94.74-.22,1.56-.33,2.45-.33,1.24,0,2.33.14,3.27.41.94.27,1.81.62,2.63,1.04l-.99,2.67c-.75-.41-1.51-.69-2.28-.86-.76-.16-1.58-.25-2.45-.25-.74,0-1.35.11-1.86.33-.5.22-.75.59-.75,1.09,0,.56.32,1,.96,1.32s1.47.65,2.5,1c.81.27,1.55.56,2.21.87.66.31,1.22.67,1.7,1.09.47.42.84.91,1.09,1.48.25.57.38,1.24.38,2.02,0,.7-.14,1.33-.41,1.9-.27.57-.68,1.07-1.22,1.5s-1.22.75-2.03.99-1.77.35-2.87.35c-1.16,0-2.24-.12-3.24-.36-1-.24-1.88-.58-2.66-1.03l.9-2.87c.72.39,1.47.69,2.26.91.79.22,1.61.33,2.44.33Z"/>
        <path d="M243.43,296.71c0-.6.2-1.13.61-1.58.41-.45.99-.68,1.74-.68s1.34.23,1.74.68c.41.45.61.98.61,1.58s-.2,1.13-.61,1.58c-.41.45-.99.68-1.74.68s-1.33-.23-1.74-.68c-.41-.45-.61-.98-.61-1.58ZM243.43,306.58c0-.6.2-1.13.61-1.58.41-.45.99-.68,1.74-.68s1.34.23,1.74.68c.41.45.61.98.61,1.58s-.2,1.13-.61,1.58c-.41.45-.99.68-1.74.68s-1.33-.23-1.74-.68c-.41-.45-.61-.98-.61-1.58Z"/>
        <path d="M257.59,298.69c0-1.43.19-2.77.58-4.01.39-1.24.96-2.31,1.73-3.22.76-.91,1.72-1.62,2.86-2.13,1.14-.51,2.47-.77,3.98-.77s2.83.26,3.98.77c1.14.51,2.09,1.22,2.86,2.13.76.91,1.34,1.98,1.73,3.22.39,1.24.58,2.57.58,4.01s-.19,2.77-.58,4.01c-.39,1.24-.96,2.31-1.73,3.22-.76.91-1.72,1.62-2.86,2.13-1.14.51-2.47.77-3.98.77s-2.84-.26-3.98-.77c-1.14-.51-2.09-1.22-2.86-2.13-.76-.91-1.34-1.98-1.73-3.22-.39-1.24-.58-2.57-.58-4.01ZM261.37,298.69c0,2.23.45,3.96,1.36,5.2.91,1.24,2.24,1.86,4.01,1.86s3.1-.62,4.01-1.86c.91-1.24,1.36-2.97,1.36-5.2s-.45-3.96-1.36-5.2c-.91-1.24-2.25-1.86-4.01-1.86s-3.1.62-4.01,1.86c-.91,1.24-1.36,2.97-1.36,5.2Z"/>
        <path d="M278.84,288.9h3.72v7.37c.19-.25.44-.5.74-.75.3-.25.64-.48,1.02-.7.38-.21.79-.39,1.23-.52.44-.13.92-.2,1.42-.2.93,0,1.74.2,2.42.6.69.4,1.26.92,1.71,1.58.45.66.79,1.42,1.02,2.28.22.86.33,1.76.33,2.69,0,1.22-.16,2.3-.46,3.24-.31.94-.73,1.73-1.26,2.37-.53.64-1.15,1.13-1.84,1.47-.7.34-1.43.51-2.21.51-1.08,0-1.94-.22-2.57-.67-.63-.44-1.15-.95-1.55-1.51l-.41,1.83h-3.31v-19.56ZM282.56,301.88c0,1.22.28,2.19.84,2.9.56.72,1.29,1.07,2.18,1.07.43,0,.83-.08,1.22-.25.39-.16.73-.43,1.02-.78.29-.36.52-.83.68-1.42.16-.59.25-1.31.25-2.16,0-1.32-.27-2.34-.81-3.08-.54-.74-1.25-1.1-2.12-1.1-.72,0-1.34.18-1.86.55s-.99.8-1.39,1.31v2.96Z"/>
        <path d="M294.28,304.52c0-.89.15-1.64.45-2.26.3-.62.73-1.12,1.28-1.51.55-.39,1.22-.67,2.02-.84.79-.17,1.68-.26,2.67-.26h1.97v-.46c0-1.49-.85-2.24-2.55-2.24-.79,0-1.52.1-2.19.31-.67.2-1.31.49-1.93.86l-.81-2.55c.6-.41,1.37-.75,2.32-1.03.95-.28,1.96-.42,3.05-.42,1.95,0,3.4.46,4.33,1.39s1.39,2.23,1.39,3.89v9.09h-3.19l-.41-1.83c-.17.27-.38.54-.61.8-.23.26-.51.49-.84.7-.33.2-.71.37-1.13.49-.43.13-.91.19-1.45.19-.6,0-1.16-.1-1.68-.29s-.98-.48-1.38-.86c-.4-.38-.71-.83-.94-1.35-.23-.52-.35-1.12-.35-1.8ZM302.67,302.08h-2c-.93,0-1.65.2-2.15.61-.5.41-.75.98-.75,1.71,0,.52.15.94.46,1.26.31.32.7.48,1.16.48s.93-.09,1.33-.28c.41-.18.75-.43,1.05-.74.29-.31.51-.67.67-1.07.15-.41.23-.83.23-1.28v-.7Z"/>
        <path d="M313.76,308.47h-3.72v-14.02h3.31l.41,1.83c.21-.23.48-.48.8-.74s.67-.5,1.06-.71c.39-.21.82-.39,1.29-.52.47-.13.97-.2,1.49-.2,1.37,0,2.47.48,3.29,1.45.82.97,1.23,2.33,1.23,4.09v8.82h-3.72v-8.71c0-.89-.16-1.56-.46-2.02-.31-.45-.83-.68-1.57-.68-.68,0-1.32.19-1.93.58-.61.39-1.11.81-1.5,1.28v9.55Z"/>
        <path d="M330.42,308.47h-3.72v-19.71h3.72v19.71ZM340.24,308.47h-4.01c-.72-.95-1.39-1.85-2.03-2.7-.56-.74-1.12-1.48-1.67-2.22-.55-.74-.98-1.34-1.29-1.79v-2.09l4.7-5.23h4.15l-5.69,6.27,5.83,7.75Z"/>
        <path d="M153.55,337.64c0,1.9-.53,3.37-1.6,4.43-1.06,1.06-2.73,1.58-4.99,1.58s-3.95-.5-5.01-1.49c-1.06-1-1.58-2.42-1.58-4.28v-1.51c0-.62.13-1.17.41-1.64.27-.47.57-.91.9-1.31.33-.4.63-.78.9-1.16.27-.38.41-.77.41-1.18v-.41c0-.44-.22-.67-.67-.67h-1.77v-2.96h2.24c.75,0,1.37.07,1.86.22.48.15.87.35,1.16.62.29.27.49.61.61,1.03.12.42.17.9.17,1.44v.73c0,.56-.13,1.05-.38,1.48-.25.43-.53.84-.84,1.23-.31.4-.59.8-.84,1.2-.25.41-.38.86-.38,1.36v1.54c0,.97.24,1.67.71,2.12.47.45,1.18.67,2.1.67s1.63-.24,2.1-.73c.47-.48.71-1.25.71-2.29v-3.02c0-.62-.1-1.06-.3-1.34-.2-.27-.53-.41-.97-.41h-.44l-.58-1.39,3.08-4.47h3.95l-3.28,4.21c.77.25,1.35.7,1.74,1.34.39.64.58,1.35.58,2.15v2.9Z"/>
        <path d="M140.29,325.01v-2.84h6.71v-2.76h2.61v2.9h1.28v-2.9h2.61v5.6h-13.21Z"/>
        <path d="M150.13,317.84v-4.76h3.37v4.76h-3.37Z"/>
        <path d="M160.67,336.89c-.35,0-.52.18-.52.55v.09c0,2.07,1.15,3.11,3.45,3.11,1.37,0,2.46-.45,3.25-1.36.79-.91,1.19-2.33,1.19-4.27,0-1.7-.43-3.01-1.29-3.92-.86-.91-1.99-1.36-3.38-1.36-1.18,0-2.25.21-3.19.62s-1.79.9-2.53,1.47l-1.22-2.82c.81-.58,1.81-1.11,2.99-1.58,1.18-.47,2.58-.71,4.21-.71,1.2,0,2.3.18,3.31.55,1.01.37,1.87.91,2.6,1.63.73.72,1.29,1.6,1.68,2.64.4,1.04.6,2.25.6,3.6,0,2.86-.71,5-2.13,6.42s-3.35,2.12-5.79,2.12c-1.24,0-2.32-.15-3.25-.44-.93-.29-1.7-.71-2.31-1.25-.61-.54-1.07-1.19-1.38-1.94s-.46-1.59-.46-2.5v-.49c0-1.06.23-1.86.7-2.38s1.22-.78,2.26-.78h3.72v3.02h-2.5Z"/>
        <path d="M181.39,331.55c0-.6.2-1.13.61-1.58.41-.45.99-.68,1.74-.68s1.34.23,1.74.68c.41.45.61.98.61,1.58s-.2,1.13-.61,1.58c-.41.45-.99.68-1.74.68s-1.33-.23-1.74-.68c-.41-.45-.61-.98-.61-1.58ZM181.39,341.42c0-.6.2-1.13.61-1.58.41-.45.99-.68,1.74-.68s1.34.23,1.74.68c.41.45.61.98.61,1.58s-.2,1.13-.61,1.58c-.41.45-.99.68-1.74.68s-1.33-.23-1.74-.68c-.41-.45-.61-.98-.61-1.58Z"/>
        <path d="M206.88,327.05h3.77v10.42c0,2.05-.49,3.59-1.48,4.63-.99,1.04-2.35,1.55-4.09,1.55-.56,0-1.08-.07-1.57-.22-.48-.15-.93-.33-1.35-.55-.42-.22-.79-.47-1.12-.75-.33-.28-.6-.56-.81-.83l-.41,2h-3.37v-16.26h3.77v10.94c.17.37.4.71.67,1.03s.58.6.93.84c.35.24.72.43,1.12.57.4.14.8.2,1.2.2,1.82,0,2.73-1.11,2.73-3.34v-10.25Z"/>
        <path d="M197.44,325.01v-2.84h13.21v2.84h-13.21Z"/>
        <path d="M227.17,337.64c0,1.9-.53,3.37-1.6,4.43-1.06,1.06-2.73,1.58-4.99,1.58s-3.95-.5-5.01-1.49c-1.06-1-1.58-2.42-1.58-4.28v-1.51c0-.62.13-1.17.41-1.64.27-.47.57-.91.9-1.31.33-.4.63-.78.9-1.16.27-.38.41-.77.41-1.18v-.41c0-.44-.22-.67-.67-.67h-1.77v-2.96h2.24c.75,0,1.37.07,1.86.22.48.15.87.35,1.16.62.29.27.49.61.61,1.03.12.42.17.9.17,1.44v.73c0,.56-.13,1.05-.38,1.48-.25.43-.53.84-.84,1.23-.31.4-.59.8-.84,1.2-.25.41-.38.86-.38,1.36v1.54c0,.97.24,1.67.71,2.12.47.45,1.18.67,2.1.67s1.63-.24,2.1-.73c.47-.48.71-1.25.71-2.29v-3.02c0-.62-.1-1.06-.3-1.34-.2-.27-.53-.41-.97-.41h-.44l-.58-1.39,3.08-4.47h3.95l-3.28,4.21c.77.25,1.35.7,1.74,1.34.39.64.58,1.35.58,2.15v2.9Z"/>
        <path d="M243.63,337.64c0,1.9-.53,3.37-1.6,4.43-1.06,1.06-2.73,1.58-4.99,1.58s-3.95-.5-5.01-1.49c-1.06-1-1.58-2.42-1.58-4.28v-1.51c0-.62.13-1.17.41-1.64.27-.47.57-.91.9-1.31.33-.4.63-.78.9-1.16.27-.38.41-.77.41-1.18v-.41c0-.44-.22-.67-.67-.67h-1.77v-2.96h2.24c.75,0,1.37.07,1.86.22.48.15.87.35,1.16.62.29.27.49.61.61,1.03.12.42.17.9.17,1.44v.73c0,.56-.13,1.05-.38,1.48-.25.43-.53.84-.84,1.23-.31.4-.59.8-.84,1.2-.25.41-.38.86-.38,1.36v1.54c0,.97.24,1.67.71,2.12.47.45,1.18.67,2.1.67s1.63-.24,2.1-.73c.47-.48.71-1.25.71-2.29v-3.02c0-.62-.1-1.06-.3-1.34-.2-.27-.53-.41-.97-.41h-.44l-.58-1.39,3.08-4.47h3.95l-3.28,4.21c.77.25,1.35.7,1.74,1.34.39.64.58,1.35.58,2.15v2.9Z"/>
        <path d="M253.96,343.3v-10.45c0-2.09-.87-3.14-2.61-3.14-.87,0-1.73.16-2.57.46s-1.59.68-2.25,1.1l-.96-2.7c.79-.52,1.72-.97,2.77-1.34,1.05-.37,2.16-.55,3.32-.55,1.99,0,3.5.56,4.53,1.68,1.03,1.12,1.54,2.65,1.54,4.59v10.33h-3.77Z"/>
        <path d="M278.14,327.05h3.77v9.99c0,.99-.15,1.89-.44,2.7-.29.81-.75,1.51-1.36,2.09-.62.58-1.42,1.03-2.41,1.35-.99.32-2.18.48-3.57.48-.99,0-1.89-.11-2.7-.33-.81-.22-1.51-.56-2.1-1.02-.59-.45-1.05-1.03-1.38-1.71-.33-.69-.49-1.48-.49-2.39s.28-1.73.83-2.4c.55-.67,1.25-1.08,2.1-1.23-.37-.08-.73-.24-1.07-.48-.35-.24-.66-.53-.94-.87-.28-.34-.5-.73-.67-1.16s-.25-.89-.25-1.35c0-.54.1-1.05.3-1.52s.49-.89.87-1.23c.38-.35.84-.62,1.39-.83.55-.2,1.18-.31,1.87-.31.74,0,1.38.05,1.93.16.55.11,1.03.26,1.44.45l-.38,2.82c-.33-.13-.65-.23-.96-.29s-.6-.09-.87-.09c-.64,0-1.13.13-1.47.39-.34.26-.51.61-.51,1.06,0,.56.21.99.64,1.29.43.3.89.45,1.39.45h2.21l.32,2.9h-1.97c-.79,0-1.41.19-1.84.58-.44.39-.65.92-.65,1.6,0,.79.29,1.41.87,1.84s1.31.65,2.18.65c1.3,0,2.27-.33,2.93-.99s.99-1.54.99-2.64v-9.96Z"/>
        <path d="M268.71,325.01v-2.84h13.21v2.84h-13.21Z"/>
        <path d="M278.55,317.84v-4.76h3.37v4.76h-3.37Z"/>
        <path d="M288.71,343.3l-4.91-16.26h3.72l3.98,13.24h.32c.46,0,.91-.14,1.34-.41.43-.27.81-.65,1.15-1.15.34-.49.6-1.09.8-1.8.19-.71.29-1.49.29-2.34,0-1.76-.29-3.01-.86-3.76-.57-.74-1.3-1.12-2.19-1.12-.6,0-1.25.13-1.94.38l-.55-2.76c.39-.21.86-.37,1.41-.48s1.13-.16,1.73-.16c.87,0,1.68.17,2.44.52.75.35,1.41.86,1.96,1.54.55.68.99,1.51,1.31,2.48.32.98.48,2.1.48,3.35,0,1.35-.18,2.57-.55,3.64-.37,1.07-.89,1.99-1.55,2.74s-1.46,1.33-2.37,1.73c-.91.4-1.91.6-2.99.6h-2.99Z"/>
        <path d="M314.89,337.64c0,1.9-.53,3.37-1.6,4.43-1.06,1.06-2.73,1.58-4.99,1.58s-3.95-.5-5.01-1.49c-1.06-1-1.58-2.42-1.58-4.28v-1.51c0-.62.13-1.17.41-1.64.27-.47.57-.91.9-1.31.33-.4.63-.78.9-1.16.27-.38.41-.77.41-1.18v-.41c0-.44-.22-.67-.67-.67h-1.77v-2.96h2.24c.75,0,1.37.07,1.86.22.48.15.87.35,1.16.62.29.27.49.61.61,1.03.12.42.17.9.17,1.44v.73c0,.56-.13,1.05-.38,1.48-.25.43-.53.84-.84,1.23-.31.4-.59.8-.84,1.2-.25.41-.38.86-.38,1.36v1.54c0,.97.24,1.67.71,2.12.47.45,1.18.67,2.1.67s1.63-.24,2.1-.73c.47-.48.71-1.25.71-2.29v-3.02c0-.62-.1-1.06-.3-1.34-.2-.27-.53-.41-.97-.41h-.44l-.58-1.39,3.08-4.47h3.95l-3.28,4.21c.77.25,1.35.7,1.74,1.34.39.64.58,1.35.58,2.15v2.9Z"/>
        <path d="M301.63,325.01v-2.84h9.84v-2.76h3.37v5.6h-13.21Z"/>
        <path d="M329.29,327.86l2,7.17c.08.35.16.7.25,1.06.09.36.16.75.23,1.18.07.43.13.9.19,1.41s.12,1.09.17,1.73h.09c.02-1.3.07-2.38.16-3.24.09-.86.18-1.57.28-2.13l1.28-7.98h3.69l-2.76,16.26h-4.15l-2.15-7.43c-.23-.81-.43-1.66-.6-2.54-.16-.88-.3-1.76-.39-2.63h-.09c-.1.87-.23,1.75-.39,2.63-.16.88-.36,1.73-.59,2.54l-2.15,7.43h-4.15l-2.76-16.26h3.69l1.28,7.98c.1.56.19,1.27.28,2.13.09.86.14,1.94.16,3.24h.09c.06-.64.12-1.21.17-1.73s.12-.98.19-1.41c.07-.43.14-.82.22-1.18.08-.36.16-.71.26-1.06l2-7.17h3.51Z"/>
        <path d="M144.67,361.88v16.26h-3.77v-16.26h3.77Z"/>
        <path d="M158.37,378.14v-7.11h-3.54c-1.08,0-1.95.16-2.6.48s-.97.9-.97,1.76c0,.7.22,1.24.67,1.64.44.4,1,.6,1.65.6.35,0,.71-.03,1.09-.1.38-.07.76-.2,1.15-.39l.61,2.76c-.5.23-1.02.4-1.55.49-.53.1-1.1.15-1.7.15-.79,0-1.53-.11-2.21-.32-.68-.21-1.27-.53-1.77-.96-.5-.43-.9-.96-1.19-1.6-.29-.64-.44-1.38-.44-2.23,0-1.8.62-3.11,1.87-3.93,1.25-.82,3.14-1.23,5.67-1.23h3.25v-.55c0-.93-.27-1.68-.8-2.26-.53-.58-1.37-.87-2.51-.87-1.2,0-2.25.17-3.15.52-.9.35-1.74.8-2.51,1.36l-1.19-2.61c.75-.56,1.74-1.06,2.95-1.51,1.21-.44,2.57-.67,4.08-.67,1.04,0,1.99.15,2.83.44.84.29,1.56.7,2.15,1.22.59.52,1.04,1.16,1.36,1.9.32.75.48,1.57.48,2.48v10.57h-3.69Z"/>
        <path d="M169.17,372.74c0,.97.23,1.67.7,2.12.46.45,1.16.67,2.09.67s1.63-.24,2.09-.73c.46-.48.7-1.25.7-2.29v-10.62h3.77v10.6c0,1.9-.53,3.37-1.58,4.43-1.06,1.06-2.71,1.58-4.98,1.58s-3.92-.5-4.98-1.51c-1.06-1.01-1.58-2.43-1.58-4.27v-1.51c0-.62.13-1.17.41-1.64.27-.47.57-.91.9-1.31.33-.4.63-.78.9-1.16.27-.38.41-.77.41-1.18v-.41c0-.44-.22-.67-.67-.67h-1.77v-2.96h2.24c.75,0,1.37.07,1.86.22.48.15.87.35,1.16.62.29.27.49.61.61,1.03.12.42.17.9.17,1.44v.73c0,.56-.13,1.05-.38,1.48-.25.43-.53.84-.84,1.23-.31.4-.59.8-.84,1.2-.25.41-.38.86-.38,1.36v1.54Z"/>
        <path d="M189.46,378.48c-2.26,0-4.03-.54-5.28-1.63-1.26-1.08-1.89-2.72-1.89-4.91v-10.07h3.77v10.07c0,1.12.3,1.99.9,2.6.6.61,1.43.91,2.5.91s1.9-.31,2.5-.91c.6-.61.9-1.48.9-2.6v-10.07h3.77v10.07c0,2.19-.63,3.82-1.89,4.91-1.26,1.08-3.02,1.63-5.28,1.63Z"/>
        <path d="M192.77,356.34c0,.45.22.67.67.67h7.43v2.84h-8.3c-.46,0-.9-.06-1.29-.17-.4-.12-.74-.3-1.03-.57-.29-.26-.52-.6-.7-1.02s-.26-.93-.26-1.55v-1.45h3.48v1.25Z"/>
        <path d="M220.03,375.79c-.21.27-.48.55-.8.83-.32.28-.68.53-1.07.75-.4.22-.82.41-1.28.55-.46.15-.92.22-1.41.22-1.61,0-2.88-.45-3.82-1.36-.94-.91-1.41-2.34-1.41-4.3v-4.44c0-1.16-.29-2.03-.87-2.61s-1.35-.87-2.32-.87c-.37,0-.73.05-1.07.16-.35.11-.68.25-.99.44-.31.18-.59.4-.83.64s-.43.49-.57.74l2.44,2.06c-.6.21-1.06.54-1.36.97-.31.44-.46,1.02-.46,1.76v3.4c0,.31.15.46.44.46h1.68v2.96h-2.55c-1.12,0-1.96-.29-2.51-.86-.55-.57-.83-1.35-.83-2.34v-3.6c0-.62.15-1.17.44-1.65.29-.48.66-.86,1.1-1.13l-2.35-1.92c.19-.66.52-1.29.97-1.9.45-.61,1.01-1.15,1.65-1.63s1.38-.86,2.21-1.15c.82-.29,1.72-.44,2.69-.44,1.1,0,2.08.16,2.95.48.86.32,1.58.77,2.16,1.34.58.57,1.02,1.26,1.32,2.06.3.8.45,1.68.45,2.63v4.27c0,1.04.18,1.78.55,2.19.37.42.9.62,1.6.62.87,0,1.63-.26,2.29-.77.66-.51,1.16-1.14,1.51-1.87v-10.6h3.77v15.12c0,1.05-.18,1.95-.55,2.73-.37.77-.87,1.41-1.51,1.92s-1.39.88-2.25,1.13c-.86.25-1.79.38-2.77.38-1.2,0-2.25-.12-3.16-.35-.91-.23-1.8-.57-2.67-1.02l.93-2.58c.72.37,1.49.65,2.32.84.83.19,1.59.29,2.26.29.54,0,1.04-.05,1.48-.15.45-.1.83-.27,1.16-.51.33-.24.59-.57.77-.97.18-.41.28-.92.28-1.54v-1.39Z"/>
        <path d="M240.26,372.48c0,1.9-.53,3.37-1.6,4.43-1.06,1.06-2.73,1.58-4.99,1.58s-3.95-.5-5.01-1.49c-1.06-1-1.58-2.42-1.58-4.28v-1.51c0-.62.13-1.17.41-1.64.27-.47.57-.91.9-1.31.33-.4.63-.78.9-1.16.27-.38.41-.77.41-1.18v-.41c0-.44-.22-.67-.67-.67h-1.77v-2.96h2.24c.75,0,1.37.07,1.86.22.48.15.87.35,1.16.62.29.27.49.61.61,1.03.12.42.17.9.17,1.44v.73c0,.56-.13,1.05-.38,1.48-.25.43-.53.84-.84,1.23-.31.4-.59.8-.84,1.2-.25.41-.38.86-.38,1.36v1.54c0,.97.24,1.67.71,2.12.47.45,1.18.67,2.1.67s1.63-.24,2.1-.73c.47-.48.71-1.25.71-2.29v-3.02c0-.62-.1-1.06-.3-1.34-.2-.27-.53-.41-.97-.41h-.44l-.58-1.39,3.08-4.47h3.95l-3.28,4.21c.77.25,1.35.7,1.74,1.34.39.64.58,1.35.58,2.15v2.9Z"/>
        <path d="M227,359.85v-2.84h9.84v-2.76h3.37v5.6h-13.21Z"/>
        <path d="M250.51,366.38c0-.6.2-1.13.61-1.58.41-.45.99-.68,1.74-.68s1.34.23,1.74.68c.41.45.61.98.61,1.58s-.2,1.13-.61,1.58c-.41.45-.99.68-1.74.68s-1.33-.23-1.74-.68c-.41-.45-.61-.98-.61-1.58ZM250.51,376.25c0-.6.2-1.13.61-1.58.41-.45.99-.68,1.74-.68s1.34.23,1.74.68c.41.45.61.98.61,1.58s-.2,1.13-.61,1.58c-.41.45-.99.68-1.74.68s-1.33-.23-1.74-.68c-.41-.45-.61-.98-.61-1.58Z"/>
        <path d="M270.94,375.47c1.45,0,2.55-.47,3.29-1.41.74-.94,1.15-2.2,1.2-3.79-.46.39-1.08.74-1.86,1.04-.77.31-1.68.46-2.73.46-.79,0-1.54-.12-2.25-.36-.71-.24-1.33-.61-1.87-1.1-.54-.49-.97-1.12-1.29-1.87-.32-.75-.48-1.64-.48-2.64,0-.95.16-1.84.48-2.69s.77-1.57,1.36-2.19c.59-.62,1.3-1.11,2.12-1.47.82-.36,1.75-.54,2.77-.54,2.34,0,4.18.81,5.53,2.44s2.02,4.02,2.02,7.17c0,1.63-.2,3.06-.6,4.3s-.95,2.28-1.65,3.12c-.71.84-1.55,1.48-2.54,1.9-.99.43-2.06.64-3.22.64-.95,0-1.85-.08-2.7-.25s-1.63-.44-2.32-.83l.93-2.82c1.05.58,2.31.87,3.8.87ZM271.64,368.88c.83,0,1.57-.15,2.22-.45.65-.3,1.2-.66,1.67-1.09-.02-.87-.14-1.64-.35-2.31-.21-.67-.49-1.23-.84-1.7-.35-.46-.75-.81-1.19-1.04-.45-.23-.91-.35-1.39-.35-.89,0-1.64.33-2.25.99-.61.66-.91,1.59-.91,2.79,0,.95.26,1.71.77,2.29s1.27.87,2.28.87Z"/>
        <path d="M288.07,375.47c1.45,0,2.55-.47,3.29-1.41.74-.94,1.15-2.2,1.2-3.79-.46.39-1.08.74-1.86,1.04-.77.31-1.68.46-2.73.46-.79,0-1.54-.12-2.25-.36-.71-.24-1.33-.61-1.87-1.1-.54-.49-.97-1.12-1.29-1.87-.32-.75-.48-1.64-.48-2.64,0-.95.16-1.84.48-2.69s.77-1.57,1.36-2.19c.59-.62,1.3-1.11,2.12-1.47.82-.36,1.75-.54,2.77-.54,2.34,0,4.18.81,5.53,2.44s2.02,4.02,2.02,7.17c0,1.63-.2,3.06-.6,4.3s-.95,2.28-1.65,3.12c-.71.84-1.55,1.48-2.54,1.9-.99.43-2.06.64-3.22.64-.95,0-1.85-.08-2.7-.25s-1.63-.44-2.32-.83l.93-2.82c1.05.58,2.31.87,3.8.87ZM288.77,368.88c.83,0,1.57-.15,2.22-.45.65-.3,1.2-.66,1.67-1.09-.02-.87-.14-1.64-.35-2.31-.21-.67-.49-1.23-.84-1.7-.35-.46-.75-.81-1.19-1.04-.45-.23-.91-.35-1.39-.35-.89,0-1.64.33-2.25.99-.61.66-.91,1.59-.91,2.79,0,.95.26,1.71.77,2.29s1.27.87,2.28.87Z"/>
        <path d="M306.45,358.92c2.07,0,3.68.45,4.82,1.35,1.14.9,1.71,2.16,1.71,3.79,0,.97-.24,1.8-.73,2.5-.48.7-1.13,1.26-1.94,1.68.41.15.8.37,1.19.65.39.28.73.61,1.02,1,.29.39.53.83.71,1.32s.28,1.01.28,1.55c0,1.82-.63,3.23-1.9,4.22s-2.99,1.49-5.15,1.49-3.89-.5-5.15-1.49-1.9-2.4-1.9-4.22c0-.54.09-1.06.28-1.55.18-.49.42-.93.71-1.32.29-.39.63-.72,1.02-1,.39-.28.78-.5,1.19-.65-.81-.43-1.46-.99-1.94-1.68-.48-.7-.73-1.53-.73-2.5,0-1.63.57-2.89,1.71-3.79,1.14-.9,2.75-1.35,4.82-1.35ZM306.45,375.52c1.03,0,1.85-.25,2.47-.75.62-.5.93-1.19.93-2.06s-.29-1.54-.87-2.02c-.58-.47-1.42-.71-2.53-.71s-1.94.24-2.53.71c-.58.47-.87,1.15-.87,2.02s.31,1.56.93,2.06c.62.5,1.44.75,2.47.75ZM306.45,367.08c.87,0,1.58-.24,2.12-.71.54-.47.81-1.14.81-1.99,0-.79-.28-1.42-.83-1.87-.55-.45-1.25-.68-2.1-.68s-1.55.23-2.1.68c-.55.46-.83,1.08-.83,1.87,0,.85.27,1.51.81,1.99.54.47,1.25.71,2.12.71Z"/>
        <path d="M324.01,369.17v2.96h-8.42v-2.96h8.42Z"/>
        <path d="M326.68,359.27h13.3v2.32l-7.43,16.55h-3.86l7.08-15.68h-9.09v-3.19Z"/>
        <path d="M351.53,361.94c-.72,0-1.34.13-1.87.38-.53.25-.98.6-1.35,1.06s-.66,1-.87,1.64c-.21.64-.35,1.35-.41,2.12.46-.39,1.08-.73,1.86-1.04.77-.31,1.68-.46,2.73-.46.77,0,1.52.12,2.24.36.72.24,1.34.61,1.89,1.1.54.49.97,1.12,1.29,1.87.32.75.48,1.64.48,2.64s-.16,1.87-.48,2.7-.77,1.56-1.36,2.18c-.59.62-1.3,1.11-2.13,1.47-.83.36-1.75.54-2.76.54-2.34,0-4.19-.81-5.53-2.44-1.35-1.63-2.02-4.02-2.02-7.17,0-1.61.2-3.03.6-4.27.4-1.24.95-2.28,1.65-3.12.71-.84,1.55-1.48,2.54-1.92.99-.44,2.06-.65,3.22-.65.95,0,1.8.13,2.57.38.76.25,1.48.57,2.16.96l-.93,2.82c-.5-.35-1.05-.62-1.63-.83s-1.21-.3-1.89-.3ZM350.83,368.53c-.83,0-1.57.15-2.22.45-.65.3-1.2.66-1.67,1.09.02.87.14,1.64.35,2.31.21.67.49,1.23.84,1.7.35.46.75.81,1.19,1.04.44.23.91.35,1.39.35.89,0,1.64-.33,2.25-.99.61-.66.91-1.59.91-2.79,0-.95-.26-1.71-.77-2.29s-1.27-.87-2.28-.87Z"/>
        <path d="M365.75,362.81l-3.77.93v-2.79l4.73-1.68h2.82v15.73l4.18-.06v3.19h-12.31v-3.19l4.35.06v-12.19Z"/>
        <path d="M384.97,369.17v2.96h-8.42v-2.96h8.42Z"/>
        <path d="M396.14,359.27h3.16v12.45h2.09v3.02h-2.09v3.4h-3.72v-3.4h-8.97v-2.41l9.52-13.06ZM395.65,371.72v-6.94l-5.02,6.94h5.02Z"/>
        <path d="M410.22,375.41c.64,0,1.19-.09,1.65-.26.46-.17.86-.42,1.18-.73.32-.31.56-.66.71-1.06.15-.4.23-.82.23-1.26,0-.99-.29-1.75-.86-2.28-.57-.53-1.5-.8-2.8-.8h-5.23v-2.24l.75-7.52h10.8v3.25h-7.66l-.26,3.25h1.63c2.42,0,4.26.55,5.52,1.65,1.26,1.1,1.89,2.65,1.89,4.64,0,.97-.17,1.85-.52,2.64s-.85,1.47-1.5,2.03c-.65.56-1.44.99-2.37,1.29s-1.97.45-3.14.45c-1.33,0-2.52-.13-3.54-.38-1.03-.25-1.89-.6-2.58-1.05l.96-2.93c.66.37,1.42.67,2.28.91.86.24,1.81.36,2.86.36Z"/>
      </g>
      <polygon class="cls-8" points="139.03 249.88 103.48 242.13 116.88 259.5 139.03 249.88"/>
    </g>
    <g>
      <rect class="cls-8" x="114.48" y="423.5" width="342.79" height="59.68" rx="14.43" ry="14.43"/>
      <g>
        <path d="M140.34,463.5v-17.42c0-.75-.1-1.43-.3-2.02-.2-.59-.46-1.09-.75-1.51-.3-.42-.63-.76-1-1.03-.37-.27-.73-.48-1.07-.64l-.06-.99c.62-1.01,1.55-1.86,2.79-2.57,1.24-.71,2.74-1.06,4.5-1.06,1.22,0,2.24.1,3.06.29.82.19,1.59.43,2.31.7l-.61,3.05c-.79-.39-1.56-.66-2.29-.81-.74-.15-1.5-.23-2.29-.23-.93,0-1.69.14-2.28.41-.59.27-1.06.57-1.41.9.99.58,1.77,1.34,2.35,2.26.58.93.87,2.09.87,3.48v17.18h-3.8Z"/>
        <path d="M151.4,457.08c-.35,0-.52.18-.52.55v.09c0,2.07,1.15,3.11,3.45,3.11,1.37,0,2.46-.45,3.25-1.36.79-.91,1.19-2.33,1.19-4.27,0-1.7-.43-3.01-1.29-3.92-.86-.91-1.99-1.36-3.38-1.36-1.18,0-2.25.21-3.19.62s-1.79.9-2.53,1.47l-1.22-2.82c.81-.58,1.81-1.11,2.99-1.58,1.18-.47,2.58-.71,4.21-.71,1.2,0,2.3.18,3.31.55,1.01.37,1.87.91,2.6,1.63.73.72,1.29,1.6,1.68,2.64.4,1.04.6,2.25.6,3.6,0,2.86-.71,5-2.13,6.42s-3.35,2.12-5.79,2.12c-1.24,0-2.32-.15-3.25-.44-.93-.29-1.7-.71-2.31-1.25-.61-.54-1.07-1.19-1.38-1.94s-.46-1.59-.46-2.5v-.49c0-1.06.23-1.86.7-2.38s1.22-.78,2.26-.78h3.72v3.02h-2.5Z"/>
        <path d="M169.37,457.78c0,1.1.23,1.89.7,2.35.46.46,1.12.7,1.97.7s1.61-.25,2.34-.74c.73-.49,1.27-1.13,1.64-1.9v-10.94h3.77v16.26h-3.37l-.41-2c-.21.29-.49.58-.83.86-.34.28-.72.53-1.13.75-.42.22-.88.4-1.38.54-.5.14-1.03.2-1.57.2-1.72,0-3.07-.47-4.05-1.42-.98-.95-1.47-2.44-1.47-4.47v-10.71h3.77v10.54Z"/>
        <path d="M187.49,447.24v16.26h-3.77v-16.26h3.77ZM194.1,447.24v16.26h-3.77v-16.26h3.77Z"/>
        <path d="M207.81,463.5v-7.11h-3.54c-1.08,0-1.95.16-2.6.48s-.97.9-.97,1.76c0,.7.22,1.24.67,1.64.44.4,1,.6,1.65.6.35,0,.71-.03,1.09-.1.38-.07.76-.2,1.15-.39l.61,2.76c-.5.23-1.02.4-1.55.49-.53.1-1.1.15-1.7.15-.79,0-1.53-.11-2.21-.32-.68-.21-1.27-.53-1.77-.96-.5-.43-.9-.96-1.19-1.6-.29-.64-.44-1.38-.44-2.23,0-1.8.62-3.11,1.87-3.93,1.25-.82,3.14-1.23,5.67-1.23h3.25v-.55c0-.93-.27-1.68-.8-2.26-.53-.58-1.37-.87-2.51-.87-1.2,0-2.25.17-3.15.52-.9.35-1.74.8-2.51,1.36l-1.19-2.61c.75-.56,1.74-1.06,2.95-1.51,1.21-.44,2.57-.67,4.08-.67,1.04,0,1.99.15,2.83.44.84.29,1.56.7,2.15,1.22.59.52,1.04,1.16,1.36,1.9.32.75.48,1.57.48,2.48v10.57h-3.69Z"/>
        <path d="M208.3,441.87c0,.29.14.44.41.44h3.4v2.9h-5.17c-.44,0-.81-.13-1.09-.38-.28-.25-.42-.6-.42-1.05v-.73c0-.29-.14-.44-.41-.44h-1.71v-2.99h3.11c.58,0,1.04.13,1.38.39.34.26.51.67.51,1.23v.61Z"/>
        <path d="M214.98,459.44c.66.39,1.38.72,2.16.99.78.27,1.58.41,2.39.41,1.39,0,2.45-.46,3.18-1.38.73-.92,1.09-2.28,1.09-4.08s-.38-3.26-1.15-4.14c-.76-.88-1.81-1.32-3.15-1.32-.81,0-1.59.14-2.34.41s-1.48.66-2.19,1.16l-.87-2.84c.79-.52,1.69-.94,2.7-1.26,1.01-.32,2.03-.48,3.08-.48,2.44,0,4.33.72,5.67,2.15s2.02,3.47,2.02,6.12c0,2.9-.68,5.08-2.05,6.52-1.36,1.44-3.26,2.16-5.68,2.16-1.16,0-2.24-.13-3.24-.38-1-.25-1.83-.62-2.51-1.1l.87-2.93Z"/>
        <path d="M234.48,447.24v16.26h-3.77v-16.26h3.77ZM241.1,447.24v16.26h-3.77v-16.26h3.77Z"/>
        <path d="M247.69,463.5l-1.45-5.75c-.1-.44-.38-.67-.84-.67h-1.07v-3.02h2.12c.75,0,1.38.14,1.87.42.49.28.85.85,1.06,1.7l1.07,4.3h.32c.43-.06.84-.22,1.23-.49.4-.27.75-.65,1.06-1.13.31-.48.56-1.05.74-1.71.18-.66.28-1.41.28-2.26,0-1.74-.37-3-1.12-3.79-.75-.78-1.76-1.18-3.03-1.18-.93,0-1.88.17-2.84.51-.97.34-1.88.88-2.73,1.61l-1.16-2.7c.81-.73,1.8-1.33,2.98-1.77,1.17-.44,2.49-.67,3.96-.67,2.5,0,4.41.71,5.73,2.12,1.33,1.41,1.99,3.38,1.99,5.89,0,1.2-.19,2.32-.57,3.35-.38,1.04-.89,1.94-1.54,2.73-.65.78-1.4,1.4-2.26,1.84-.86.45-1.77.67-2.71.67h-3.08Z"/>
        <path d="M253.87,441.87c0,.29.14.44.41.44h3.4v2.9h-5.17c-.44,0-.81-.13-1.09-.38-.28-.25-.42-.6-.42-1.05v-.73c0-.29-.14-.44-.41-.44h-1.71v-2.99h3.11c.58,0,1.04.13,1.38.39.34.26.51.67.51,1.23v.61Z"/>
        <path d="M263.86,463.5l-4.91-16.26h3.72l3.98,13.24h.32c.46,0,.91-.14,1.34-.41.43-.27.81-.65,1.15-1.15.34-.49.6-1.09.8-1.8.19-.71.29-1.49.29-2.34,0-1.76-.29-3.01-.86-3.76-.57-.74-1.3-1.12-2.19-1.12-.6,0-1.25.13-1.94.38l-.55-2.76c.39-.21.86-.37,1.41-.48s1.13-.16,1.73-.16c.87,0,1.68.17,2.44.52.75.35,1.41.86,1.96,1.54.55.68.99,1.51,1.31,2.48.32.98.48,2.1.48,3.35,0,1.35-.18,2.57-.55,3.64-.37,1.07-.89,1.99-1.55,2.74s-1.46,1.33-2.37,1.73c-.91.4-1.91.6-2.99.6h-2.99Z"/>
        <path d="M287.14,463.5v-7.11h-3.54c-1.08,0-1.95.16-2.6.48s-.97.9-.97,1.76c0,.7.22,1.24.67,1.64.44.4,1,.6,1.65.6.35,0,.71-.03,1.09-.1.38-.07.76-.2,1.15-.39l.61,2.76c-.5.23-1.02.4-1.55.49-.53.1-1.1.15-1.7.15-.79,0-1.53-.11-2.21-.32-.68-.21-1.27-.53-1.77-.96-.5-.43-.9-.96-1.19-1.6-.29-.64-.44-1.38-.44-2.23,0-1.8.62-3.11,1.87-3.93,1.25-.82,3.14-1.23,5.67-1.23h3.25v-.55c0-.41-.07-.8-.2-1.18-.14-.38-.34-.71-.61-1-.27-.29-.61-.52-1.03-.7-.42-.17-.9-.26-1.47-.26-1.2,0-2.25.17-3.15.52-.9.35-1.74.8-2.51,1.36l-1.19-2.61c.75-.56,1.74-1.06,2.95-1.51,1.21-.44,2.57-.67,4.08-.67.44,0,.89.04,1.32.12.44.08.82.18,1.15.32l.99-1.22h4.15l-2.38,2.84c.5.54.9,1.15,1.18,1.83.28.68.42,1.39.42,2.15v10.57h-3.69Z"/>
        <path d="M304.44,463.5v-7.11h-3.54c-1.08,0-1.95.16-2.6.48s-.97.9-.97,1.76c0,.7.22,1.24.67,1.64.44.4,1,.6,1.65.6.35,0,.71-.03,1.09-.1.38-.07.76-.2,1.15-.39l.61,2.76c-.5.23-1.02.4-1.55.49-.53.1-1.1.15-1.7.15-.79,0-1.53-.11-2.21-.32-.68-.21-1.27-.53-1.77-.96-.5-.43-.9-.96-1.19-1.6-.29-.64-.44-1.38-.44-2.23,0-1.8.62-3.11,1.87-3.93,1.25-.82,3.14-1.23,5.67-1.23h3.25v-.55c0-.93-.27-1.68-.8-2.26-.53-.58-1.37-.87-2.51-.87-1.2,0-2.25.17-3.15.52-.9.35-1.74.8-2.51,1.36l-1.19-2.61c.75-.56,1.74-1.06,2.95-1.51,1.21-.44,2.57-.67,4.08-.67,1.04,0,1.99.15,2.83.44.84.29,1.56.7,2.15,1.22.59.52,1.04,1.16,1.36,1.9.32.75.48,1.57.48,2.48v10.57h-3.69Z"/>
        <path d="M294.92,445.21v-2.84h13.21v2.84h-13.21Z"/>
        <path d="M319.07,463.85c-2.26,0-4.03-.54-5.28-1.63-1.26-1.08-1.89-2.72-1.89-4.91v-10.07h3.77v10.07c0,1.12.3,1.99.9,2.6.6.61,1.43.91,2.5.91s1.9-.31,2.5-.91c.6-.61.9-1.48.9-2.6v-15.59h3.77v15.59c0,2.19-.63,3.82-1.89,4.91-1.26,1.08-3.02,1.63-5.28,1.63Z"/>
        <path d="M341.22,463.5v-9.84c0-1.14-.33-2.05-1-2.73-.67-.68-1.58-1.02-2.74-1.02-1.41,0-2.5.51-3.27,1.52-.76,1.02-1.15,2.4-1.15,4.14,0,.97.1,1.78.3,2.42.2.65.47,1.18.8,1.58.33.41.69.7,1.09.87.4.17.79.26,1.18.26s.75-.03,1.09-.09c.34-.06.7-.17,1.09-.35l.67,2.73c-.41.25-.86.44-1.35.55-.49.12-1.11.17-1.84.17-.87,0-1.71-.16-2.53-.48-.81-.32-1.54-.81-2.18-1.48-.64-.67-1.15-1.51-1.52-2.54-.38-1.03-.57-2.24-.57-3.66,0-1.22.18-2.36.54-3.41.36-1.05.88-1.97,1.55-2.76s1.52-1.4,2.53-1.84c1.01-.44,2.17-.67,3.48-.67,1.24,0,2.33.17,3.28.52.95.35,1.74.83,2.38,1.44.64.61,1.12,1.33,1.45,2.16.33.83.49,1.72.49,2.67v9.81h-3.77Z"/>
        <path d="M341.8,441.87c0,.29.14.44.41.44h3.4v2.9h-5.17c-.44,0-.81-.13-1.09-.38-.28-.25-.42-.6-.42-1.05v-.73c0-.29-.14-.44-.41-.44h-1.71v-2.99h3.11c.58,0,1.04.13,1.38.39.34.26.51.67.51,1.23v.61Z"/>
        <path d="M348.48,459.44c.66.39,1.38.72,2.16.99.78.27,1.58.41,2.39.41,1.39,0,2.45-.46,3.18-1.38.73-.92,1.09-2.28,1.09-4.08s-.38-3.26-1.15-4.14c-.76-.88-1.81-1.32-3.15-1.32-.81,0-1.59.14-2.34.41s-1.48.66-2.19,1.16l-.87-2.84c.79-.52,1.69-.94,2.7-1.26,1.01-.32,2.03-.48,3.08-.48,2.44,0,4.33.72,5.67,2.15s2.02,3.47,2.02,6.12c0,2.9-.68,5.08-2.05,6.52-1.36,1.44-3.26,2.16-5.68,2.16-1.16,0-2.24-.13-3.24-.38-1-.25-1.83-.62-2.51-1.1l.87-2.93Z"/>
        <path d="M374.08,447.24h3.77v9.99c0,.99-.15,1.89-.44,2.7-.29.81-.75,1.51-1.36,2.09-.62.58-1.42,1.03-2.41,1.35-.99.32-2.18.48-3.57.48-.99,0-1.89-.11-2.7-.33-.81-.22-1.51-.56-2.1-1.02-.59-.45-1.05-1.03-1.38-1.71-.33-.69-.49-1.48-.49-2.39s.28-1.73.83-2.4c.55-.67,1.25-1.08,2.1-1.23-.37-.08-.73-.24-1.07-.48-.35-.24-.66-.53-.94-.87-.28-.34-.5-.73-.67-1.16s-.25-.89-.25-1.35c0-.54.1-1.05.3-1.52s.49-.89.87-1.23c.38-.35.84-.62,1.39-.83.55-.2,1.18-.31,1.87-.31.74,0,1.38.05,1.93.16.55.11,1.03.26,1.44.45l-.38,2.82c-.33-.13-.65-.23-.96-.29s-.6-.09-.87-.09c-.64,0-1.13.13-1.47.39-.34.26-.51.61-.51,1.06,0,.56.21.99.64,1.29.43.3.89.45,1.39.45h2.21l.32,2.9h-1.97c-.79,0-1.41.19-1.84.58-.44.39-.65.92-.65,1.6,0,.79.29,1.41.87,1.84s1.31.65,2.18.65c1.3,0,2.27-.33,2.93-.99s.99-1.54.99-2.64v-9.96Z"/>
        <path d="M385.4,456.3c.23-.44.59-.82,1.09-1.13s1.16-.46,1.99-.46h1.63v3.13h-1.71c-.89,0-1.57.17-2.03.52-.46.35-.78.83-.96,1.45v3.69h-3.77v-10.1c0-.91.17-1.76.51-2.55.34-.79.82-1.48,1.45-2.06s1.4-1.04,2.31-1.38c.91-.34,1.95-.51,3.11-.51s2.2.17,3.11.51c.91.34,1.68.8,2.31,1.38.63.58,1.11,1.27,1.45,2.06.34.79.51,1.65.51,2.55v10.1h-3.77v-10.07c0-1.01-.31-1.84-.93-2.51-.62-.67-1.51-1-2.67-1s-2.05.33-2.67,1c-.62.67-.93,1.5-.93,2.51v2.87Z"/>
        <path d="M405.03,460.83c1.01,0,1.79-.15,2.34-.44.55-.29.83-.74.83-1.34,0-.35-.1-.65-.3-.9-.2-.25-.47-.47-.81-.65-.34-.18-.72-.35-1.13-.49-.42-.15-.83-.29-1.23-.42-.72-.23-1.4-.49-2.05-.77-.65-.28-1.21-.62-1.7-1.03-.48-.41-.87-.89-1.16-1.44-.29-.55-.44-1.21-.44-1.99,0-.64.15-1.23.45-1.77.3-.54.72-1.02,1.26-1.42.54-.41,1.19-.72,1.93-.94.74-.22,1.56-.33,2.45-.33,1.24,0,2.33.14,3.27.41.94.27,1.81.62,2.63,1.04l-.99,2.67c-.75-.41-1.51-.69-2.28-.86-.76-.16-1.58-.25-2.45-.25-.74,0-1.35.11-1.86.33-.5.22-.75.59-.75,1.09,0,.56.32,1,.96,1.32s1.47.65,2.5,1c.81.27,1.55.56,2.21.87.66.31,1.22.67,1.7,1.09.47.42.84.91,1.09,1.48.25.57.38,1.24.38,2.02,0,.7-.14,1.33-.41,1.9-.27.57-.68,1.07-1.22,1.5s-1.22.75-2.03.99-1.77.35-2.87.35c-1.16,0-2.24-.12-3.24-.36-1-.24-1.88-.58-2.66-1.03l.9-2.87c.72.39,1.47.69,2.26.91.79.22,1.61.33,2.44.33Z"/>
        <path d="M407.26,441.7c0,.45.22.67.67.67h7.43v2.84h-8.3c-.46,0-.9-.06-1.29-.17-.4-.12-.74-.3-1.03-.57-.29-.26-.52-.6-.7-1.02s-.26-.93-.26-1.55v-1.45h3.48v1.25Z"/>
        <path d="M422.06,463.85c-2.26,0-4.03-.54-5.28-1.63-1.26-1.08-1.89-2.72-1.89-4.91v-10.07h3.77v10.07c0,1.12.3,1.99.9,2.6.6.61,1.43.91,2.5.91s1.9-.31,2.5-.91c.6-.61.9-1.48.9-2.6v-10.07h3.77v10.07c0,2.19-.63,3.82-1.89,4.91-1.26,1.08-3.02,1.63-5.28,1.63Z"/>
      </g>
      <polygon class="cls-8" points="136.47 439.74 100.91 431.99 114.31 449.36 136.47 439.74"/>
    </g>
  </g>
  <circle class="cls-5" cx="57.65" cy="446.36" r="29.84"/>
  <g>
    <rect class="cls-4" x="27.81" y="410.9" width="557.05" height="142.43" rx="10.57" ry="10.57"/>
    <path class="cls-4" d="M65.67,415.72h30s-13.21-15.8-13.21-15.8c-.93-1.11-2.64-1.11-3.57,0l-13.21,15.8Z"/>
    <path class="cls-9" d="M81.18,401.84h0,0M80.67,402.46l8.67,10.36c.57.68,1.41,1.08,2.3,1.08h482.65c4.17,0,7.57,3.4,7.57,7.57v121.29c0,4.17-3.4,7.57-7.57,7.57H38.38c-4.17,0-7.57-3.4-7.57-7.57v-121.29c0-4.17,3.4-7.57,7.57-7.57h31.32c.89,0,1.73-.39,2.3-1.08l8.67-10.36M80.67,399.08c-.66,0-1.32.28-1.79.83l-9.18,10.98h-31.32c-5.84,0-10.57,4.73-10.57,10.57v121.29c0,5.84,4.73,10.57,10.57,10.57h535.91c5.84,0,10.57-4.73,10.57-10.57v-121.29c0-5.84-4.73-10.57-10.57-10.57H91.63l-9.18-10.98c-.47-.56-1.13-.83-1.79-.83h0Z"/>
    <g>
      <path class="cls-8" d="M111.44,466.51c-1.5-.63-2.64-1.52-3.42-2.66-.79-1.14-1.18-2.43-1.18-3.88v-.95c0-.91.18-1.73.53-2.47.35-.73.85-1.56,1.48-2.47.4-.56.7-1.01.87-1.35.18-.34.27-.65.27-.93,0-.71-.43-1.06-1.29-1.06h-2.13v-4.18h5.51c1.14,0,2.05.33,2.74.99s1.03,1.52,1.03,2.58c0,.76-.14,1.46-.42,2.11s-.7,1.39-1.25,2.22c-.53.84-.93,1.55-1.2,2.13-.27.58-.4,1.22-.4,1.9v.8c0,1.19.35,2.1,1.06,2.74.71.63,1.72.95,3.04.95,1.39,0,2.45-.39,3.17-1.16.72-.77,1.08-1.89,1.08-3.36,0-3.09-1.2-4.64-3.61-4.64v-2.77l3.69-5.05h6.12l-4.14,5.66c1.34.68,2.3,1.58,2.87,2.68s.85,2.5.85,4.2-.4,3.29-1.2,4.64c-.8,1.34-1.96,2.39-3.48,3.15-1.52.76-3.31,1.14-5.36,1.14s-3.75-.32-5.24-.95Z"/>
      <path class="cls-8" d="M108.85,440.4h7.07v-4.03h3.99v4.03h2.55v-4.03h3.95v7.68h-17.56v-3.65Z"/>
      <path class="cls-8" d="M121.2,428.77h5.17v5.36h-5.17v-5.36Z"/>
      <path class="cls-8" d="M133.71,466.95c-1.65-.34-3.01-.82-4.1-1.43v-10.68h9.61v4.22h-3.95v3.27c.79.43,1.94.65,3.46.65,4.03,0,6.04-2.1,6.04-6.31,0-2.15-.58-3.72-1.75-4.71-1.17-.99-3.13-1.48-5.89-1.48-1.27,0-2.57.13-3.9.4-1.33.27-2.45.64-3.36,1.12v-4.48c1.04-.48,2.29-.85,3.76-1.12,1.47-.27,3-.4,4.6-.4,4.08,0,7.18.93,9.29,2.79,2.12,1.86,3.17,4.49,3.17,7.88s-1.04,5.98-3.12,7.9c-2.08,1.93-5.03,2.89-8.85,2.89-1.7,0-3.37-.17-5.02-.51Z"/>
      <path class="cls-8" d="M158.86,466.34c-1.57-.75-2.79-1.78-3.65-3.1-.86-1.32-1.29-2.81-1.29-4.48v-12.2h5.78v11.82c0,1.47.39,2.6,1.16,3.4.77.8,1.94,1.2,3.51,1.2s2.74-.4,3.5-1.2c.76-.8,1.14-1.93,1.14-3.4v-11.82h5.78v12.2c0,1.67-.43,3.17-1.29,4.48-.86,1.32-2.08,2.35-3.65,3.1-1.57.75-3.4,1.12-5.47,1.12s-3.94-.37-5.51-1.12Z"/>
      <path class="cls-8" d="M163.23,440.36v-2.77h5.17v1.86c0,.35.07.6.21.74s.4.21.78.21h8.66v3.65h-11.17c-2.43,0-3.65-1.23-3.65-3.69Z"/>
      <path class="cls-8" d="M198.95,470.21c-1.39-.27-2.53-.63-3.42-1.08v-4.45c2.33,1.22,4.89,1.82,7.68,1.82,1.57,0,2.84-.19,3.8-.57.96-.38,1.44-.95,1.44-1.71,0-.35-.09-.7-.27-1.03-1.55.71-3.31,1.06-5.28,1.06-2.08,0-3.87-.35-5.38-1.06-1.51-.71-2.65-1.71-3.42-3-.77-1.29-1.16-2.79-1.16-4.48v-1.06c0-1.42-.33-2.47-.99-3.15s-1.67-1.03-3.04-1.03c-1.01,0-1.91.15-2.68.46-.77.3-1.51.8-2.22,1.48l1.48,2.43v5.97c0,.61.14,1.04.42,1.29.28.25.73.38,1.37.38h1.94v4.41h-5.09c-1.39,0-2.47-.4-3.23-1.2-.76-.8-1.14-1.91-1.14-3.33v-7.6l-1.9-3.23c1.44-1.8,3.06-3.17,4.86-4.12,1.8-.95,3.86-1.42,6.19-1.42,3.14,0,5.55.73,7.22,2.19,1.67,1.46,2.51,3.46,2.51,6.02v.99c0,1.5.33,2.64.99,3.42.66.79,1.75,1.18,3.27,1.18,2.84,0,4.26-1.53,4.26-4.6v-8.63h5.78v9.16c0,1.72-.43,3.26-1.29,4.6.63.58,1.1,1.2,1.39,1.86.29.66.44,1.39.44,2.2,0,1.98-.96,3.51-2.89,4.6-1.93,1.09-4.38,1.63-7.37,1.63-1.44,0-2.86-.13-4.26-.4Z"/>
      <path class="cls-8" d="M221.07,466.51c-1.5-.63-2.64-1.52-3.42-2.66-.79-1.14-1.18-2.43-1.18-3.88v-.95c0-.91.18-1.73.53-2.47.35-.73.85-1.56,1.48-2.47.4-.56.7-1.01.87-1.35.18-.34.27-.65.27-.93,0-.71-.43-1.06-1.29-1.06h-2.13v-4.18h5.51c1.14,0,2.05.33,2.74.99s1.03,1.52,1.03,2.58c0,.76-.14,1.46-.42,2.11s-.7,1.39-1.25,2.22c-.53.84-.93,1.55-1.2,2.13-.27.58-.4,1.22-.4,1.9v.8c0,1.19.35,2.1,1.06,2.74.71.63,1.72.95,3.04.95,1.39,0,2.45-.39,3.17-1.16.72-.77,1.08-1.89,1.08-3.36,0-3.09-1.2-4.64-3.61-4.64v-2.77l3.69-5.05h6.12l-4.14,5.66c1.34.68,2.3,1.58,2.87,2.68s.85,2.5.85,4.2-.4,3.29-1.2,4.64c-.8,1.34-1.96,2.39-3.48,3.15-1.52.76-3.31,1.14-5.36,1.14s-3.75-.32-5.24-.95Z"/>
      <path class="cls-8" d="M218.45,440.4h12.39v-4.03h5.21v7.68h-17.59v-3.65Z"/>
      <path class="cls-8" d="M239.99,451.23c0-1.49.4-2.65,1.22-3.46s1.96-1.22,3.46-1.22h4.1v4.45h-1.37c-.61,0-1.04.13-1.29.38-.25.25-.38.71-.38,1.37v6.61l3.84-5.85h2.01l3.84,5.85v-12.81h5.7v20.33h-5.17l-5.4-8.21-5.4,8.21h-5.17v-15.66Z"/>
      <path class="cls-8" d="M251.26,476.43c-1.03-.74-1.54-1.71-1.54-2.93v-.68c0-.33-.06-.56-.17-.68-.11-.13-.32-.19-.63-.19h-1.25v-3.27h4.29c.76,0,1.29.17,1.58.51.29.34.44.88.44,1.62v2.09c0,.91.48,1.37,1.44,1.37s1.41-.46,1.41-1.37v-4.22h4.26v4.67c0,1.22-.48,2.22-1.43,3-.95.79-2.3,1.18-4.05,1.18-1.87,0-3.33-.37-4.35-1.1Z"/>
      <path class="cls-8" d="M251.85,441.62c0-.28-.06-.48-.17-.59-.11-.11-.31-.17-.59-.17h-1.79v-3.91h3.57c.94,0,1.61.22,2.03.65.42.43.63.98.63,1.63v1.14h7.64v3.69h-11.32v-2.43Z"/>
      <path class="cls-8" d="M268.17,467.02c-1.53-.29-2.74-.73-3.63-1.31v-4.41c1.11.66,2.36,1.17,3.74,1.52,1.38.35,2.63.53,3.74.53,1.34,0,2.32-.13,2.94-.4.62-.27.93-.74.93-1.42,0-.61-.3-1.08-.89-1.41-.6-.33-1.7-.75-3.33-1.25l-.95-.3c-2.18-.68-3.79-1.51-4.83-2.47-1.04-.96-1.56-2.28-1.56-3.95,0-1.95.79-3.46,2.36-4.54,1.57-1.08,3.69-1.61,6.35-1.61,1.44,0,2.84.15,4.18.46,1.34.3,2.42.7,3.23,1.18v4.52c-.81-.56-1.82-1.01-3.02-1.35-1.2-.34-2.39-.51-3.55-.51-2.46,0-3.69.62-3.69,1.86,0,.61.29,1.08.87,1.41.58.33,1.62.72,3.12,1.18l1.37.42c1.6.51,2.84,1.06,3.74,1.67.9.61,1.53,1.29,1.88,2.05.35.76.53,1.69.53,2.77,0,1.75-.75,3.15-2.26,4.22s-3.76,1.6-6.74,1.6c-1.5,0-3.01-.15-4.54-.44Z"/>
      <path class="cls-8" d="M269.44,440.36v-2.77h5.17v1.86c0,.35.07.6.21.74s.4.21.78.21h8.66v3.65h-11.17c-2.43,0-3.65-1.23-3.65-3.69Z"/>
      <path class="cls-8" d="M289.89,466.34c-1.57-.75-2.79-1.78-3.65-3.1-.86-1.32-1.29-2.81-1.29-4.48v-12.2h5.78v11.82c0,1.47.39,2.6,1.16,3.4.77.8,1.94,1.2,3.51,1.2s2.74-.4,3.5-1.2c.76-.8,1.14-1.93,1.14-3.4v-11.82h5.78v12.2c0,1.67-.43,3.17-1.29,4.48-.86,1.32-2.08,2.35-3.65,3.1-1.57.75-3.4,1.12-5.47,1.12s-3.94-.37-5.51-1.12Z"/>
      <path class="cls-8" d="M312.55,465.69c-.75-.8-1.12-1.91-1.12-3.33v-13.64c0-1.72-.33-3.07-.99-4.05-.66-.98-1.72-1.74-3.19-2.3v-4.07h13.57v4.45h-6.12c1.67,1.29,2.51,3.32,2.51,6.08v11.97c0,.61.13,1.04.38,1.29.25.25.67.38,1.25.38h1.33v4.41h-4.41c-1.39,0-2.46-.4-3.21-1.2Z"/>
      <path class="cls-8" d="M326.21,466.95c-1.65-.34-3.01-.82-4.1-1.43v-10.68h9.61v4.22h-3.95v3.27c.79.43,1.94.65,3.46.65,4.03,0,6.04-2.1,6.04-6.31,0-2.15-.58-3.72-1.75-4.71-1.17-.99-3.13-1.48-5.89-1.48-1.27,0-2.57.13-3.9.4-1.33.27-2.45.64-3.36,1.12v-4.48c1.04-.48,2.29-.85,3.76-1.12,1.47-.27,3-.4,4.6-.4,4.08,0,7.18.93,9.29,2.79,2.12,1.86,3.17,4.49,3.17,7.88s-1.04,5.98-3.12,7.9c-2.08,1.93-5.03,2.89-8.85,2.89-1.7,0-3.37-.17-5.02-.51Z"/>
      <path class="cls-8" d="M350.04,466.43c-1.19-.68-2.1-1.62-2.72-2.81-.62-1.19-.93-2.52-.93-3.99v-13.07h5.78v12.73c0,2.46,1.3,3.69,3.91,3.69,1.06,0,1.98-.22,2.75-.67.77-.44,1.45-1.13,2.03-2.07v-13.68h5.74v20.33h-5.47v-2.28c-.89.94-1.93,1.65-3.14,2.13-1.2.48-2.44.72-3.71.72-1.65,0-3.07-.34-4.26-1.03Z"/>
      <path class="cls-8" d="M371.72,465.69c-.75-.8-1.12-1.91-1.12-3.33v-15.81h5.78v14.25c0,.61.13,1.04.38,1.29.25.25.67.38,1.25.38h1.33v4.41h-4.41c-1.39,0-2.46-.4-3.21-1.2Z"/>
      <path class="cls-8" d="M387.39,466.34c-1.57-.75-2.79-1.78-3.65-3.1-.86-1.32-1.29-2.81-1.29-4.48v-12.2h5.78v11.82c0,1.47.39,2.6,1.16,3.4.77.8,1.94,1.2,3.51,1.2s2.74-.4,3.5-1.2c.76-.8,1.14-1.93,1.14-3.4v-18.62h5.78v19c0,1.67-.43,3.17-1.29,4.48-.86,1.32-2.08,2.35-3.65,3.1-1.57.75-3.4,1.12-5.47,1.12s-3.94-.37-5.51-1.12Z"/>
      <path class="cls-8" d="M383.33,443.01c-.89-.8-1.33-1.87-1.33-3.21,0-1.7.49-2.98,1.48-3.84.99-.86,2.33-1.29,4.03-1.29h8.59v3h-8.21c-1.39,0-2.09.57-2.09,1.71,0,.53.15.94.44,1.24s.7.44,1.24.44c.58,0,1.03-.16,1.33-.49.3-.33.46-.77.46-1.33h2.96c0,1.12.63,1.67,1.9,1.67h1.41v3.15h-1.29c-.89,0-1.65-.16-2.28-.48-.63-.32-1.05-.72-1.25-1.2-.23.51-.7.94-1.41,1.29-.71.35-1.51.53-2.39.53-1.49,0-2.69-.4-3.57-1.2Z"/>
      <path class="cls-8" d="M410.92,466.43c-1.19-.68-2.1-1.62-2.72-2.81-.62-1.19-.93-2.52-.93-3.99v-13.07h5.78v12.73c0,2.46,1.3,3.69,3.91,3.69,1.06,0,1.98-.22,2.75-.67.77-.44,1.45-1.13,2.03-2.07v-13.68h5.74v20.33h-5.47v-2.28c-.89.94-1.93,1.65-3.14,2.13-1.2.48-2.44.72-3.71.72-1.65,0-3.07-.34-4.26-1.03Z"/>
      <path class="cls-8" d="M436.45,466.34c-1.57-.75-2.79-1.78-3.65-3.1-.86-1.32-1.29-2.81-1.29-4.48v-12.2h5.78v11.82c0,1.47.39,2.6,1.16,3.4.77.8,1.94,1.2,3.51,1.2s2.74-.4,3.5-1.2c.76-.8,1.14-1.93,1.14-3.4v-11.82h5.78v12.2c0,1.67-.43,3.17-1.29,4.48-.86,1.32-2.08,2.35-3.65,3.1-1.57.75-3.4,1.12-5.47,1.12s-3.94-.37-5.51-1.12Z"/>
      <path class="cls-8" d="M447.32,473.58c0-.46-.09-.78-.27-.97-.18-.19-.49-.29-.95-.29h-1.25v-3.65h3.99c1.37,0,2.31.28,2.83.84.52.56.78,1.52.78,2.89v4.9h-5.13v-3.72Z"/>
      <path class="cls-8" d="M456.29,454.69c0-2.81.94-4.96,2.83-6.46,1.89-1.49,4.43-2.24,7.62-2.24s5.73.75,7.6,2.24c1.87,1.5,2.81,3.65,2.81,6.46v12.2h-5.78v-12.24c0-1.39-.4-2.44-1.2-3.14-.8-.7-1.94-1.04-3.44-1.04s-2.68.35-3.48,1.04c-.8.7-1.2,1.74-1.2,3.14v2.89c.3-.46.75-.82,1.35-1.08.59-.27,1.26-.4,2-.4h2.96v4.41h-3.27c-.89,0-1.62.28-2.19.84-.57.56-.85,1.28-.85,2.17v3.42h-5.78v-12.2Z"/>
      <path class="cls-8" d="M481.1,454.69c0-2.81.94-4.96,2.83-6.46,1.89-1.49,4.43-2.24,7.62-2.24s5.73.75,7.6,2.24c1.87,1.5,2.81,3.65,2.81,6.46v12.2h-5.78v-12.24c0-1.39-.4-2.44-1.2-3.14-.8-.7-1.94-1.04-3.44-1.04s-2.68.35-3.48,1.04c-.8.7-1.2,1.74-1.2,3.14v2.89c.3-.46.75-.82,1.35-1.08.59-.27,1.26-.4,2-.4h2.96v4.41h-3.27c-.89,0-1.62.28-2.19.84-.57.56-.85,1.28-.85,2.17v3.42h-5.78v-12.2Z"/>
      <path class="cls-8" d="M507.23,465.71c-1.38-1.16-2.07-2.81-2.07-4.94s.75-3.8,2.26-5.02c1.51-1.22,3.58-1.82,6.21-1.82,2.46,0,4.56.41,6.31,1.22v-.8c0-1.37-.45-2.38-1.35-3.04-.9-.66-2.35-.99-4.35-.99-1.24,0-2.46.13-3.65.38-1.19.25-2.25.61-3.19,1.06v-4.33c.84-.4,1.99-.75,3.46-1.03,1.47-.28,2.95-.42,4.45-.42,3.39,0,5.97.75,7.73,2.26,1.76,1.51,2.64,3.53,2.64,6.06v12.58h-5.74v-7.56c-1.47-.76-3.19-1.14-5.17-1.14-1.29,0-2.24.22-2.83.65-.6.43-.89,1.1-.89,2.01,0,.84.27,1.46.82,1.88.54.42,1.41.63,2.6.63.84,0,1.54-.13,2.13-.38v3.99c-.99.33-2.25.49-3.8.49-2.33,0-4.19-.58-5.57-1.75Z"/>
      <path class="cls-8" d="M109.2,520.79c-1.7-1.11-2.55-2.62-2.55-4.52v-2.43h5.66v1.94c0,.91.34,1.57,1.03,1.98.68.41,1.62.61,2.81.61s2.06-.19,2.68-.57c.62-.38.93-.95.93-1.71,0-.68-.16-1.21-.48-1.58-.32-.37-.83-.67-1.54-.89-.71-.23-1.89-.53-3.53-.91-2.61-.58-4.54-1.29-5.78-2.13-1.24-.84-1.86-2.09-1.86-3.76,0-1.95.86-3.41,2.58-4.37,1.72-.96,3.95-1.44,6.69-1.44,1.6,0,3.19.16,4.77.48,1.58.32,2.83.72,3.74,1.2v4.52c-.91-.56-2.08-1.01-3.5-1.37-1.42-.35-2.83-.53-4.22-.53s-2.48.1-3.17.3-1.04.61-1.04,1.22c0,.53.3.93.89,1.2.6.27,1.68.59,3.25.97.33.05,1,.22,2.01.49,1.75.46,3.12.96,4.12,1.52,1,.56,1.73,1.24,2.19,2.05.46.81.68,1.82.68,3.04,0,1.9-.82,3.44-2.45,4.62-1.63,1.18-3.96,1.77-6.97,1.77s-5.26-.56-6.95-1.67Z"/>
      <path class="cls-8" d="M131.86,522.02c-1.53-.29-2.74-.73-3.63-1.31v-4.41c1.11.66,2.36,1.17,3.74,1.52,1.38.35,2.63.53,3.74.53,1.34,0,2.32-.13,2.94-.4.62-.27.93-.74.93-1.42,0-.61-.3-1.08-.89-1.41-.6-.33-1.7-.75-3.33-1.25l-.95-.3c-2.18-.68-3.79-1.51-4.83-2.47-1.04-.96-1.56-2.28-1.56-3.95,0-1.95.79-3.46,2.36-4.54,1.57-1.08,3.69-1.61,6.35-1.61,1.44,0,2.84.15,4.18.46,1.34.3,2.42.7,3.23,1.18v4.52c-.81-.56-1.82-1.01-3.02-1.35-1.2-.34-2.39-.51-3.55-.51-2.46,0-3.69.62-3.69,1.86,0,.61.29,1.08.87,1.41.58.33,1.62.72,3.12,1.18l1.37.42c1.6.51,2.84,1.06,3.74,1.67.9.61,1.53,1.29,1.88,2.05.35.76.53,1.69.53,2.77,0,1.75-.75,3.15-2.26,4.22s-3.76,1.6-6.74,1.6c-1.5,0-3.01-.15-4.54-.44Z"/>
      <path class="cls-8" d="M151.66,522.02c-1.53-.29-2.74-.73-3.63-1.31v-4.41c1.11.66,2.36,1.17,3.74,1.52,1.38.35,2.63.53,3.74.53,1.34,0,2.32-.13,2.94-.4.62-.27.93-.74.93-1.42,0-.61-.3-1.08-.89-1.41-.6-.33-1.7-.75-3.33-1.25l-.95-.3c-2.18-.68-3.79-1.51-4.83-2.47-1.04-.96-1.56-2.28-1.56-3.95,0-1.95.79-3.46,2.36-4.54,1.57-1.08,3.69-1.61,6.35-1.61,1.44,0,2.84.15,4.18.46,1.34.3,2.42.7,3.23,1.18v4.52c-.81-.56-1.82-1.01-3.02-1.35-1.2-.34-2.39-.51-3.55-.51-2.46,0-3.69.62-3.69,1.86,0,.61.29,1.08.87,1.41.58.33,1.62.72,3.12,1.18l1.37.42c1.6.51,2.84,1.06,3.74,1.67.9.61,1.53,1.29,1.88,2.05.35.76.53,1.69.53,2.77,0,1.75-.75,3.15-2.26,4.22s-3.76,1.6-6.74,1.6c-1.5,0-3.01-.15-4.54-.44Z"/>
      <path class="cls-8" d="M177.03,521.74c-1.19-.48-2.23-1.19-3.12-2.13v2.28h-5.51v-20.33h5.78v13.68c.56.94,1.23,1.63,2.01,2.07.78.44,1.71.67,2.77.67,2.61,0,3.91-1.23,3.91-3.69v-12.73h5.74v13.07c0,1.47-.3,2.8-.91,3.99-.61,1.19-1.51,2.13-2.7,2.81-1.19.68-2.62,1.03-4.29,1.03-1.27,0-2.5-.24-3.69-.72Z"/>
      <path class="cls-8" d="M194.58,519.84c-1.82-1.75-2.74-4.31-2.74-7.68s1.05-6.26,3.15-8.23c2.1-1.96,5-2.94,8.7-2.94s6.64.89,8.46,2.66c1.81,1.77,2.72,4.1,2.72,6.99v11.25h-5.74v-11.29c0-1.67-.42-2.94-1.27-3.82-.85-.87-2.24-1.31-4.16-1.31-1.82,0-3.27.57-4.33,1.71-1.06,1.14-1.6,2.8-1.6,4.98,0,2,.44,3.47,1.31,4.41.87.94,2.21,1.41,4.01,1.41.96,0,1.82-.14,2.58-.42v4.41c-.99.33-2.2.49-3.65.49-3.14,0-5.62-.87-7.45-2.62Z"/>
      <path class="cls-8" d="M224.98,509.23c0-1.32-.28-2.27-.84-2.87-.56-.6-1.53-.89-2.93-.89s-2.7.34-4.07,1.03v-4.37c.61-.3,1.42-.57,2.45-.8,1.03-.23,2.02-.34,2.98-.34,2.66,0,4.69.71,6.08,2.13,1.39,1.42,2.09,3.47,2.09,6.16v12.62h-5.78v-12.65Z"/>
      <path class="cls-8" d="M239.69,520.69c-.75-.8-1.12-1.91-1.12-3.33v-13.11c0-2.99.87-5.16,2.62-6.5h-6.27v-4.45h13.57v4.07c-1.47.58-2.53,1.41-3.19,2.47-.66,1.06-.99,2.5-.99,4.29v11.67c0,.61.13,1.04.38,1.29.25.25.68.38,1.29.38h1.33v4.41h-4.41c-1.39,0-2.46-.4-3.21-1.2Z"/>
      <path class="cls-8" d="M259.17,521.74c-1.19-.48-2.23-1.19-3.12-2.13v2.28h-5.51v-20.33h5.78v13.68c.56.94,1.23,1.63,2.01,2.07.78.44,1.71.67,2.77.67,2.61,0,3.91-1.23,3.91-3.69v-12.73h5.74v13.07c0,1.47-.3,2.8-.91,3.99-.61,1.19-1.51,2.13-2.7,2.81-1.19.68-2.62,1.03-4.29,1.03-1.27,0-2.5-.24-3.69-.72Z"/>
      <path class="cls-8" d="M265.02,492.29h5.78v6.76h-5.78v-6.76Z"/>
      <path class="cls-8" d="M276.73,519.85c-1.82-1.73-2.74-4.29-2.74-7.66,0-2.31.33-4.3.99-5.98.66-1.68,1.59-2.98,2.79-3.88,1.2-.9,2.59-1.35,4.16-1.35.94,0,1.75.18,2.45.53.7.36,1.26.85,1.69,1.48.48-.68,1.15-1.19,2-1.52.85-.33,1.81-.49,2.87-.49,1.92,0,3.42.59,4.48,1.77,1.06,1.18,1.6,2.73,1.6,4.65v14.48h-5.74v-13.91c0-.86-.13-1.49-.4-1.9-.27-.4-.72-.61-1.35-.61-1.11,0-1.81.68-2.09,2.05h-2.7c-.18-1.37-.77-2.05-1.79-2.05-.91,0-1.65.57-2.2,1.71-.56,1.14-.84,2.81-.84,5.02,0,1.98.42,3.43,1.27,4.37.85.94,2.2,1.41,4.05,1.41.96,0,1.82-.14,2.58-.42v4.41c-.99.33-2.2.49-3.65.49-3.14,0-5.62-.87-7.45-2.6Z"/>
      <path class="cls-8" d="M304.07,522.02c-1.53-.29-2.74-.73-3.63-1.31v-4.41c1.11.66,2.36,1.17,3.74,1.52,1.38.35,2.63.53,3.74.53,1.34,0,2.32-.13,2.94-.4.62-.27.93-.74.93-1.42,0-.61-.3-1.08-.89-1.41-.6-.33-1.7-.75-3.33-1.25l-.95-.3c-2.18-.68-3.79-1.51-4.83-2.47-1.04-.96-1.56-2.28-1.56-3.95,0-1.95.79-3.46,2.36-4.54,1.57-1.08,3.69-1.61,6.35-1.61,1.44,0,2.84.15,4.18.46,1.34.3,2.42.7,3.23,1.18v4.52c-.81-.56-1.82-1.01-3.02-1.35-1.2-.34-2.39-.51-3.55-.51-2.46,0-3.69.62-3.69,1.86,0,.61.29,1.08.87,1.41.58.33,1.62.72,3.12,1.18l1.37.42c1.6.51,2.84,1.06,3.74,1.67.9.61,1.53,1.29,1.88,2.05.35.76.53,1.69.53,2.77,0,1.75-.75,3.15-2.26,4.22s-3.76,1.6-6.74,1.6c-1.5,0-3.01-.15-4.54-.44Z"/>
      <path class="cls-8" d="M320.05,504.1h5.74l4.33,13.49c1.87,0,3.32-.56,4.33-1.69,1.01-1.13,1.52-2.73,1.52-4.81,0-1.87-.36-3.28-1.06-4.22-.71-.94-1.8-1.41-3.27-1.41-.81,0-1.62.13-2.43.38v-4.33c1.06-.35,2.27-.53,3.61-.53,3.01,0,5.28.88,6.78,2.64,1.51,1.76,2.26,4.25,2.26,7.47,0,2.25-.49,4.19-1.48,5.81-.99,1.62-2.32,2.86-4.01,3.71-1.69.85-3.53,1.27-5.53,1.27h-5.09l-5.7-17.78Z"/>
      <path class="cls-8" d="M346.15,509.77l-1.9-3.23c2.96-3.7,6.78-5.55,11.44-5.55,3.27,0,5.78.72,7.54,2.17,1.76,1.44,2.64,3.46,2.64,6.04v12.69h-5.78v-12.24c0-2.79-1.47-4.18-4.41-4.18-1.09,0-2.06.15-2.91.46-.85.3-1.64.8-2.38,1.48l1.48,2.43v12.05h-5.74v-12.12Z"/>
      <path class="cls-8" d="M354.36,495.36v-2.77h5.17v1.86c0,.35.07.6.21.74s.4.21.78.21h8.66v3.65h-11.17c-2.43,0-3.65-1.23-3.65-3.69Z"/>
      <path class="cls-8" d="M374.8,521.34c-1.57-.75-2.79-1.78-3.65-3.1-.86-1.32-1.29-2.81-1.29-4.48v-12.2h5.78v11.82c0,1.47.39,2.6,1.16,3.4.77.8,1.94,1.2,3.51,1.2s2.74-.4,3.5-1.2c.76-.8,1.14-1.93,1.14-3.4v-11.82h5.78v12.2c0,1.67-.43,3.17-1.29,4.48-.86,1.32-2.08,2.35-3.65,3.1-1.57.75-3.4,1.12-5.47,1.12s-3.94-.37-5.51-1.12Z"/>
      <path class="cls-8" d="M398.74,521.51c-1.5-.63-2.64-1.52-3.42-2.66-.79-1.14-1.18-2.43-1.18-3.88v-.95c0-.91.18-1.73.53-2.47.35-.73.85-1.56,1.48-2.47.4-.56.7-1.01.87-1.35.18-.34.27-.65.27-.93,0-.71-.43-1.06-1.29-1.06h-2.13v-4.18h5.51c1.14,0,2.05.33,2.74.99s1.03,1.52,1.03,2.58c0,.76-.14,1.46-.42,2.11s-.7,1.39-1.25,2.22c-.53.84-.93,1.55-1.2,2.13-.27.58-.4,1.22-.4,1.9v.8c0,1.19.35,2.1,1.06,2.74.71.63,1.72.95,3.04.95,1.39,0,2.45-.39,3.17-1.16.72-.77,1.08-1.89,1.08-3.36,0-3.09-1.2-4.64-3.61-4.64v-2.77l3.69-5.05h6.12l-4.14,5.66c1.34.68,2.3,1.58,2.87,2.68s.85,2.5.85,4.2-.4,3.29-1.2,4.64c-.8,1.34-1.96,2.39-3.48,3.15-1.52.76-3.31,1.14-5.36,1.14s-3.75-.32-5.24-.95Z"/>
      <path class="cls-8" d="M396.16,495.4h7.07v-4.03h3.99v4.03h2.55v-4.03h3.95v7.68h-17.56v-3.65Z"/>
      <path class="cls-8" d="M408.51,483.77h5.17v5.36h-5.17v-5.36Z"/>
      <path class="cls-8" d="M421.01,521.95c-1.65-.34-3.01-.82-4.1-1.43v-10.68h9.61v4.22h-3.95v3.27c.79.43,1.94.65,3.46.65,4.03,0,6.04-2.1,6.04-6.31,0-2.15-.58-3.72-1.75-4.71-1.17-.99-3.13-1.48-5.89-1.48-1.27,0-2.57.13-3.9.4-1.33.27-2.45.64-3.36,1.12v-4.48c1.04-.48,2.29-.85,3.76-1.12,1.47-.27,3-.4,4.6-.4,4.08,0,7.18.93,9.29,2.79,2.12,1.86,3.17,4.49,3.17,7.88s-1.04,5.98-3.12,7.9c-2.08,1.93-5.03,2.89-8.85,2.89-1.7,0-3.37-.17-5.02-.51Z"/>
      <path class="cls-8" d="M446.17,521.34c-1.57-.75-2.79-1.78-3.65-3.1-.86-1.32-1.29-2.81-1.29-4.48v-12.2h5.78v11.82c0,1.47.39,2.6,1.16,3.4.77.8,1.94,1.2,3.51,1.2s2.74-.4,3.5-1.2c.76-.8,1.14-1.93,1.14-3.4v-11.82h5.78v12.2c0,1.67-.43,3.17-1.29,4.48-.86,1.32-2.08,2.35-3.65,3.1-1.57.75-3.4,1.12-5.47,1.12s-3.94-.37-5.51-1.12Z"/>
      <path class="cls-8" d="M469.06,522.02c-1.53-.29-2.74-.73-3.63-1.31v-4.41c1.11.66,2.36,1.17,3.74,1.52,1.38.35,2.63.53,3.74.53,1.34,0,2.32-.13,2.94-.4.62-.27.93-.74.93-1.42,0-.61-.3-1.08-.89-1.41-.6-.33-1.7-.75-3.33-1.25l-.95-.3c-2.18-.68-3.79-1.51-4.83-2.47-1.04-.96-1.56-2.28-1.56-3.95,0-1.95.79-3.46,2.36-4.54,1.57-1.08,3.69-1.61,6.35-1.61,1.44,0,2.84.15,4.18.46,1.34.3,2.42.7,3.23,1.18v4.52c-.81-.56-1.82-1.01-3.02-1.35-1.2-.34-2.39-.51-3.55-.51-2.46,0-3.69.62-3.69,1.86,0,.61.29,1.08.87,1.41.58.33,1.62.72,3.12,1.18l1.37.42c1.6.51,2.84,1.06,3.74,1.67.9.61,1.53,1.29,1.88,2.05.35.76.53,1.69.53,2.77,0,1.75-.75,3.15-2.26,4.22s-3.76,1.6-6.74,1.6c-1.5,0-3.01-.15-4.54-.44Z"/>
      <path class="cls-8" d="M464.22,495.4h17.59v3.65h-17.59v-3.65Z"/>
      <path class="cls-8" d="M490.74,521.34c-1.57-.75-2.79-1.78-3.65-3.1-.86-1.32-1.29-2.81-1.29-4.48v-12.2h5.78v11.82c0,1.47.39,2.6,1.16,3.4.77.8,1.94,1.2,3.51,1.2s2.74-.4,3.5-1.2c.76-.8,1.14-1.93,1.14-3.4v-1.37h-4.07v-4.41h4.07v-6.04h5.78v6.04h1.9v4.41h-1.9v1.75c0,1.67-.43,3.17-1.29,4.48-.86,1.32-2.08,2.35-3.65,3.1-1.57.75-3.4,1.12-5.47,1.12s-3.94-.37-5.51-1.12Z"/>
      <path class="cls-8" d="M495.38,495.36v-2.77h5.17v1.86c0,.35.07.6.21.74s.4.21.78.21h8.66v3.65h-11.17c-2.43,0-3.65-1.23-3.65-3.69Z"/>
      <path class="cls-8" d="M510.84,501.56h5.51v2.32c.91-.91,1.99-1.62,3.23-2.13,1.24-.51,2.48-.76,3.72-.76,2.56,0,4.49.69,5.79,2.07,1.3,1.38,1.96,3.2,1.96,5.45v13.38h-5.74v-12.88c0-2.36-1.24-3.53-3.72-3.53-1.04,0-1.98.23-2.83.68-.85.46-1.56,1.15-2.15,2.09v13.64h-5.78v-20.33Z"/>
    </g>
    <path class="cls-8" d="M81.38,442.63l-17.81-7.42c-.14-1.19-1.14-2.11-2.36-2.11-1.32,0-2.39,1.07-2.39,2.39v29.02h-.71c-1.21,0-2.19.98-2.19,2.19s.98,2.19,2.19,2.19h6.53c1.21,0,2.19-.98,2.19-2.19s-.98-2.19-2.19-2.19h-1.03v-7.38l17.95-8.79c1.12-.54,1.8-1.66,1.76-2.9-.04-1.25-.78-2.33-1.93-2.81ZM76.26,445.49l-12.67,6.2v-11.47l12.67,5.27Z"/>
  </g>
</svg>