<?xml version="1.0" encoding="UTF-8"?>
<svg id="Layer_1" data-name="Layer 1" xmlns="http://www.w3.org/2000/svg" xmlns:xlink="http://www.w3.org/1999/xlink" viewBox="0 0 600 600">
  <defs>
    <style>
      .cls-1, .cls-2 {
        fill: none;
      }

      .cls-3 {
        fill: #ff6b6b;
      }

      .cls-4 {
        font-family: Tahoma-Bold, Tahoma;
        font-size: 19.48px;
        font-weight: 700;
      }

      .cls-4, .cls-5 {
        fill: #1a1a1a;
      }

      .cls-6 {
        fill: #ff4757;
      }

      .cls-7, .cls-8, .cls-9 {
        fill: #ff6b6b;
      }

      .cls-2 {
        stroke: #ff6b6b;
        stroke-miterlimit: 10;
        stroke-width: 2.23px;
      }

      .cls-2, .cls-9 {
        opacity: .2;
      }

      .cls-10 {
        fill: #ff7675;
      }

      .cls-11 {
        fill: #fd79a8;
      }

      .cls-12 {
        fill: #ff4757;
        opacity: .3;
      }

      .cls-13 {
        font-size: 49.58px;
      }

      .cls-13, .cls-14, .cls-15 {
        fill: #2d3436;
        font-family: Kanit-SemiBold, Kanit;
        font-weight: 600;
      }

      .cls-16 {
        fill: #636e72;
      }

      .cls-17 {
        fill: #2d3436;
      }

      .cls-18, .cls-8 {
        opacity: .5;
      }

      .cls-14 {
        font-size: 21.1px;
      }

      .cls-19 {
        fill: #e17055;
      }

      .cls-20 {
        fill: #fab1a0;
      }

      .cls-21 {
        clip-path: url(#clippath);
      }

      .cls-15 {
        font-size: 32.72px;
      }

      /* เพิ่ม class สำหรับ warning highlights */
      .warning-highlight {
        fill: #ffeaa7;
        opacity: 0.8;
      }

      .scam-overlay {
        fill: #d63031;
        opacity: 0.9;
      }

      .scam-text {
        fill: #ffffff;
        font-family: Kanit-Bold, Kanit;
        font-weight: 700;
        font-size: 28px;
      }
    </style>
    <clipPath id="clippath">
      <path class="cls-1" d="M-75.22-155.22h619.22c7.56,0,13.7,6.14,13.7,13.7v663.69c0,7.56-6.14,13.7-13.7,13.7H-75.22V-155.22h0Z" transform="translate(431.57 -50.91) rotate(90)"/>
    </clipPath>
  </defs>
  <g>
    <!-- Main background เปลี่ยนเป็นสีเทาเข้ม -->
    <rect class="cls-17" x="1.49" y="-.06" width="597.02" height="600.4" rx="15.19" ry="15.19"/>
    <rect class="cls-16" x="13.56" y="86.29" width="573.32" height="420.16" rx="5.24" ry="5.24"/>
    <rect class="cls-9" x="90.7" y="23.08" width="115.76" height="21.84" rx="6.83" ry="6.83"/>
    <rect class="cls-9" x="90.7" y="55.57" width="191.39" height="13.38" rx="6.69" ry="6.69"/>
    <g class="cls-18">
      <path class="cls-7" d="M46.19,19.81h0c15.24,0,27.6,12.37,27.6,27.6h0c0,15.24-12.37,27.6-27.6,27.6h0c-15.23,0-27.6-12.37-27.6-27.6h0c0-15.24,12.37-27.61,27.6-27.61Z"/>
    </g>
    <g>
      <g>
        <g>
          <path class="cls-7" d="M62.73,571.97h-3.95c-.67,0-1.21.54-1.21,1.21v12.96c0,.66.54,1.21,1.21,1.21h3.95c.67,0,1.21-.55,1.21-1.21v-12.96c0-.67-.55-1.21-1.21-1.21Z"/>
          <path class="cls-7" d="M83.68,576.47c0-1.81-1.5-1.81-1.5-1.81,0,0,1.5-.6,1.5-2.41,0-2.12-1.52-2.42-2.42-2.42h-6.64c1.5-3.33,1.51-5.44,1.51-6.65s-.91-3.62-2.71-3.62-2.12,1.21-2.12,1.21c0,0,.46,3.17,0,3.62-.45.45-5.73,6.65-5.73,7.86,0,.9,0,2.14,0,2.7h0v9.37c0,.83.67,1.51,1.51,1.51h11.55c2.75-.08,3.87-.95,3.87-2.11s-.91-1.51-.91-1.51c0,0,1.2-.3,1.2-1.81s-.9-1.81-.9-1.81c0,0,1.8-.31,1.8-2.12Z"/>
        </g>
        <rect class="cls-9" x="93.9" y="570.87" width="46.44" height="13.87" rx="3.48" ry="3.48"/>
      </g>
      <g>
        <path class="cls-7" d="M252.95,565.44h-16.93c-2.14,0-3.88,1.74-3.88,3.87v11.69c0,2.13,1.74,3.87,3.88,3.87h3.13v4.35s0,1.19.58.9c.43-.09,1.36-.9,1.36-.9l4.82-4.35h7.04c2.13,0,3.87-1.74,3.87-3.87v-11.69c0-2.13-1.74-3.87-3.87-3.87"/>
        <rect class="cls-9" x="267.05" y="571.12" width="87.01" height="13.87" rx="3.48" ry="3.48"/>
      </g>
      <g>
        <path class="cls-7" d="M467.55,577.13l-10.32-10.32c-.36-.37-.97-.37-1.34,0v6.08s-14.77-.55-16.1,16.17c0,0,4.73-8.12,16.1-7.23v6.95c.37.36.98.36,1.34,0l10.32-10.31c.37-.37.37-.97,0-1.35"/>
        <rect class="cls-9" x="478.05" y="572.63" width="46.44" height="13.87" rx="3.48" ry="3.48"/>
      </g>
    </g>
    <g>
      <path class="cls-12" d="M73.52,528.6c0,7.7-6.24,13.94-13.93,13.94s-13.94-6.24-13.94-13.94,6.24-13.93,13.94-13.93,13.93,6.24,13.93,13.93Z"/>
      <path class="cls-5" d="M64.04,523.55c-2.08-.47-3.82.34-4.45,2.34-.63-1.99-2.38-2.81-4.46-2.34-1.65.38-3.92,2.97-1.92,6.44,2,3.47,6.38,5.64,6.38,5.64,0,0,4.37-2.17,6.37-5.64,2-3.47-.27-6.06-1.92-6.44Z"/>
    </g>
    <g>
      <path class="cls-5" d="M49.5,528.6c0,8.45-6.85,15.31-15.32,15.31s-15.32-6.86-15.32-15.31,6.86-15.32,15.32-15.32,15.32,6.86,15.32,15.32Z"/>
      <path class="cls-8" d="M48.12,528.6c0,7.69-6.24,13.93-13.94,13.93s-13.94-6.24-13.94-13.93,6.24-13.94,13.94-13.94,13.94,6.24,13.94,13.94Z"/>
      <g>
        <path class="cls-5" d="M29.63,526.98h-2.17c-.31,0-.56.24-.56.55v6.45c0,.31.25.56.56.56h2.17c.31,0,.56-.25.56-.56v-6.45c0-.31-.25-.55-.56-.55Z"/>
        <path class="cls-5" d="M39.33,525.19h-3.05v-3.11c0-.54-.6-1.52-1.08-1.52h-1.14c-.21,0-.48.42-.48,1.11v1.88c0,.39-.57,1.49-.99,2.06-.42.57-1.26,1.07-1.26,1.85v5.5c0,.54.45,1.23,1.62,1.23h5.2c.71,0,1.28-.12,2-1.73.72-1.61,1.05-2.33,1.05-3.65v-2.22c0-.68-.6-1.4-1.89-1.4Z"/>
      </g>
    </g>
    <line class="cls-2" x1="23.79" y1="549.95" x2="576.11" y2="549.95"/>
  </g>
  <g class="cls-21">
    <g class="cls-18">
      <path class="cls-11" d="M491.06,141.6s44.19-10.43,50.38,14.53c6.19,24.96,9.54,29.61,17.4,45.88,7.86,16.28-12.94,51.78-3.7,65.65,9.25,13.87,54.55,57.94,40.68,88.91-13.87,30.97-169.81,4.47-169.81,4.47,0,0,23.72-49.93,21.87-73.04-1.07-13.44,3.24-31.44.46-46.69-2.77-15.26-24.14-98.18,42.71-99.71Z"/>
      <g>
        <g>
          <path class="cls-20" d="M311.34,376.64l-15.56-17.3s5.78-13.28,2.28-23.38c-3.5-10.1-13.33-21.13-12.65-15.03.69,6.1,3.1,21.55-2.79,19.26-5.89-2.3-13.06-22.42-22.48-31.05-9.42-8.63-26.76,13.06-11.76,39.21,14.99,26.15,49.47,57.74,49.47,57.74l13.48-29.44Z"/>
          <path class="cls-3" d="M468.86,404.46s-.29.45-.85,1.3c-3.85,5.81-20.21,30.18-38.21,51.24-1.26,1.47-2.52,2.93-3.78,4.35-8.96,10.12-18.14,19.05-26.22,24.19-5.35,3.39-10.21,5.13-14.22,4.45-24.97-4.28-101.08-94.16-101.08-94.16l21.22-27.23,63.42,48.04c4.4,3.08,10.52,1.34,12.63-3.61,19.84-46.5,52.41-110.69,52.41-110.69,50.4,11.16,34.68,102.13,34.68,102.13Z"/>
        </g>
        <path class="cls-10" d="M426.01,461.35c-8.96,10.12-18.14,19.05-26.22,24.19l18.87-92.36,7.34,68.17Z"/>
      </g>
      <path class="cls-11" d="M447.07,212.76s-17.46-13.14-14.07-45.15c3.39-32.02,46.18-30.26,58.05-26.01l-2.5,33.43-41.49,37.73Z"/>
      <path class="cls-3" d="M601.5,591.17c-129.45,27.11-198.99,4.74-198.99,4.74l15.22-110.02,1.41-10.23c.11-2.42.18-4.79.2-7.11.99-66.86-27.08-95.04,15.02-166.24l44.04-12.54,43.36-12.36,4.72,2.58,43.28,28.42-7.13,170.16-.26,6.33,2.17,5.89,36.96,100.38Z"/>
      <path class="cls-20" d="M526.91,282.91c-10.81,16.91-25.36,19.82-35.49,19.36-6.72-.31-12.11-5.65-12.45-12.37l-.32-6.45-1.2-24.01,46.34-33.89c-1.01,6.63-1.17,14.24-.9,21.7.68,18.26,4.01,35.64,4.01,35.64Z"/>
      <path class="cls-3" d="M519.19,228.93l-41.73,30.52,1.2,24.01c9-1.68,47.84-12.45,40.53-54.52"/>
      <path class="cls-20" d="M523.84,169.02l-5.22,67.23c-.67,8.68-4.2,16.46-9.59,22.48-7.66,8.54-19.07,13.56-31.39,12.6-21-1.63-36.71-19.98-35.08-40.98l.61-7.92,4.59-59.31,76.06,5.89Z"/>
      <path class="cls-20" d="M464.09,208.7c0,1.62-1.31,2.93-2.93,2.93s-2.93-1.31-2.93-2.93,1.31-2.93,2.93-2.93,2.93,1.31,2.93,2.93Z"/>
      <path class="cls-20" d="M496.91,208.7c0,1.62-1.31,2.93-2.93,2.93s-2.93-1.31-2.93-2.93,1.31-2.93,2.93-2.93,2.93,1.31,2.93,2.93Z"/>
      <path class="cls-20" d="M468.36,196.7c-4.11-3.89-9.09-2.39-10.98-1.6-.45.19-.97,0-1.21-.43h0c-.28-.51-.06-1.15.48-1.36,2.3-.92,8.19-2.6,13.02,1.94.42.39.42,1.06,0,1.44h0c-.37.34-.93.35-1.29.01Z"/>
      <path class="cls-20" d="M490.01,197.63c4.85-2.91,9.39-.38,11.07.81.4.28.95.21,1.27-.16h0c.38-.44.31-1.11-.17-1.43-2.05-1.4-7.44-4.3-13.13-.91-.49.29-.64.94-.31,1.41h0c.29.41.84.55,1.26.29Z"/>
      <path class="cls-20" d="M475.8,214.83c-.63,2.86-1.31,5.69-2.04,8.52-.37,1.41-.78,2.8-1.09,4.23-.29,1.44-.72,2.83-1.37,4.14l-1.06-1.83c.8.25,1.59.54,2.37.89.78.35,1.56.74,2.3,1.26l-.05.29c-.89.22-1.75.29-2.6.34-.86.05-1.7.03-2.54-.03l-1.42-.1.36-1.73c.29-1.43.81-2.79,1.47-4.1.64-1.32,1.17-2.67,1.75-4.01,1.17-2.67,2.38-5.33,3.64-7.96l.28.1Z"/>
      <path class="cls-20" d="M467.73,242.71h17.83v8.12c0,1.49-1.21,2.69-2.69,2.69h-12.44c-1.49,0-2.69-1.21-2.69-2.69v-8.12h0Z" transform="translate(-18.96 40.45) rotate(-4.76)"/>
      <path class="cls-11" d="M480.1,154.59s-6.9,31.83,40,49.59h8.76l5.99-49.59h-54.75Z"/>
      <path class="cls-11" d="M486.09,166.09s-20.34,22.59-43.64,24.64v-41.07h46.57l-2.93,16.43Z"/>
      <g>
        <circle class="cls-20" cx="526.91" cy="218.71" r="14.53" transform="translate(-42.19 258.67) rotate(-26.56)"/>
        <g>
          <path class="cls-3" d="M522.86,211.82c1.31-.82,2.83-1.07,4.34-.96.77.03,1.51.25,2.26.48.73.29,1.44.65,2.09,1.12l.47.37.43.42c.27.3.6.54.8.88l.64,1c.21.33.33.71.47,1.07.33.7.38,1.48.49,2.21.02.75-.05,1.5-.22,2.22l-.19.04c-.19-.64-.33-1.3-.56-1.92-.28-.6-.47-1.25-.85-1.8-.63-1.17-1.57-2.15-2.62-2.92-1.05-.79-2.27-1.36-3.56-1.68-1.29-.32-2.64-.45-3.96-.34l-.03-.19Z"/>
          <path class="cls-3" d="M530.28,212.77c.28.67.29,1.38.17,2.06-.11.69-.41,1.33-.8,1.92-.2.29-.45.55-.69.8-.29.21-.54.46-.87.61-.61.36-1.32.52-2.02.47l-.04-.09c.56-.27,1.11-.56,1.58-.97.48-.39.9-.85,1.24-1.37.72-1,1.18-2.2,1.33-3.43h.1Z"/>
        </g>
      </g>
      <polygon class="cls-10" points="478.98 289.9 458.24 304.97 468.31 316.67 458.24 329.61 472.05 423.25 478.98 289.9"/>
      <path class="cls-16" d="M526.04,284.22s-11.05,17.48-32.62,18.09c0,0-12.25-.17-14.44-12.41l-4.66,13.63-2.27,119.72s50.95-92.19,53.99-139.03Z"/>
      <path class="cls-10" d="M475.08,452.08c0,2.15-1.75,3.9-3.9,3.9s-3.9-1.75-3.9-3.9,1.75-3.9,3.9-3.9,3.9,1.75,3.9,3.9Z"/>
      <path class="cls-10" d="M472.51,496.1c0,2.15-1.75,3.9-3.9,3.9s-3.9-1.75-3.9-3.9,1.75-3.9,3.9-3.9,3.9,1.75,3.9,3.9Z"/>
      <path class="cls-19" d="M469.94,540.13c0,2.15-1.75,3.9-3.9,3.9s-3.9-1.75-3.9-3.9,1.75-3.9,3.9-3.9,3.9,1.75,3.9,3.9Z"/>
      <path class="cls-20" d="M578.39,599.9s-4.84,15.17-10.26,18.15c-5.07,2.78-15.75,4.11-19.35,21.23-.44,2.09,1.53,3.86,3.55,3.19,1.48-.49,3.42-1.3,5.91-2.64,0,0-1.07,13-5.78,15.91-4.72,2.91,16.24,11.28,31.02,7.5,14.78-3.78,10.6-25.4,18.6-45.04,8-19.64,7.23-22.15,7.23-22.15l-25.36-8.84-5.56,12.68Z"/>
      <path class="cls-3" d="M569.83,308.45s43.07,65.24,62.4,125.89c19.34,60.64-25.54,184.15-25.54,184.15l-34.85-14.8s20.01-102.22,8.55-141.73c-8.46-29.16-36.1-62.98-50-78.69-6.15-6.95-9.99-15.65-10.82-24.89-1.88-20.89,10-48.26,50.26-49.92Z"/>
      <polygon class="cls-10" points="538.78 288.05 538.78 325.3 515.31 337.62 526.04 364.11 472.05 423.25 526.49 279.98 538.78 288.05"/>
    </g>
  </g>
  
  <!-- Warning Highlight Overlays บนข้อความที่เป็นสัญญาณเตือน -->
  <!-- Highlight 1: "ไม่ตรวจสอบเครดิต" -->
  <rect class="warning-highlight" x="35" y="235" width="360" height="35" rx="8" ry="8"/>
  
  <!-- Highlight 2: "ไม่ต้องใช้เอกสาร" -->
  <rect class="warning-highlight" x="35" y="295" width="460" height="45" rx="8" ry="8"/>
  
  <!-- Highlight 3: "อนุมัติไม่ถึง 5 นาที" -->
  <rect class="warning-highlight" x="35" y="360" width="420" height="35" rx="8" ry="8"/>

  <!-- Text content ที่แก้สีให้เข้มขึ้น -->
  <text class="cls-14" transform="translate(40.92 156.74)"><tspan x="0" y="0">รับยอดเงินกู้ได้ตั้งแต่</tspan></text>
  <text class="cls-15" transform="translate(41.54 249.47)"><tspan x="0" y="0">ไม่ตรวจสอบเครดิตสินเชื่อ</tspan></text>
  <text class="cls-13" transform="translate(41.86 314.74)"><tspan x="0" y="0">ไม่ต้องใช้เอกสารใดๆ</tspan></text>
  <text class="cls-15" transform="translate(41.54 374.74)"><tspan x="0" y="0">ใช้เวลาอนุมัติไม่ถึง 5 นาที</tspan></text>
  
  <!-- ปุ่มที่เปลี่ยนเป็นสีแดงเตือนภัย -->
  <g>
    <rect class="cls-6" x="49.5" y="448.05" width="217.16" height="34.37" rx="17.18" ry="17.18"/>
    <text class="cls-4" transform="translate(95.75 473.17)"><tspan x="0" y="0">กู้สินเชื่อตอนนี้</tspan></text>
  </g>

  <!-- SCAM Warning Overlay -->
  <g id="scam-warning-overlay">
    <rect class="scam-overlay" x="150" y="100" width="300" height="80" rx="20" ry="20"/>
    <text class="scam-text" x="300" y="135" text-anchor="middle" dominant-baseline="middle">⚠️ การหลอกลวง</text>
    <text class="scam-text" x="300" y="165" text-anchor="middle" dominant-baseline="middle" font-size="20">สัญญาณเตือนภัย!</text>
  </g>
</svg> 