<?xml version="1.0" encoding="UTF-8"?>
<svg id="Layer_1" data-name="Layer 1" xmlns="http://www.w3.org/2000/svg" xmlns:xlink="http://www.w3.org/1999/xlink" viewBox="0 0 600 600">
  <defs>
    <style>
      .cls-1, .cls-2, .cls-3 {
        fill: none;
      }

      .cls-4 {
        fill: #1a4175;
      }

      .cls-5, .cls-6 {
        fill: #accdf8;
      }

      .cls-7, .cls-8, .cls-9, .cls-10 {
        fill: #7db0f2;
      }

      .cls-2 {
        stroke: #7db0f2;
        stroke-width: 2.23px;
      }

      .cls-2, .cls-11, .cls-10 {
        opacity: .2;
      }

      .cls-2, .cls-12 {
        stroke-miterlimit: 10;
      }

      .cls-13, .cls-14 {
        fill: #fff;
      }

      .cls-13, .cls-9 {
        opacity: .5;
      }

      .cls-15 {
        fill: #0d2243;
      }

      .cls-16 {
        clip-path: url(#clippath-2);
      }

      .cls-6 {
        fill-rule: evenodd;
      }

      .cls-17 {
        fill: #ff7bac;
        opacity: .3;
      }

      .cls-3 {
        stroke-linecap: round;
        stroke-linejoin: round;
        stroke-width: 12px;
      }

      .cls-3, .cls-12 {
        stroke: #fff;
      }

      .cls-18 {
        fill: #dceaff;
      }

      .cls-12 {
        fill: #ffcc5a;
        stroke-width: 2px;
      }

      .cls-19 {
        fill: #ff517d;
      }

      .cls-8 {
        opacity: .1;
      }

      .cls-20 {
        clip-path: url(#clippath);
      }

      .cls-21 {
        fill: #f4b2a0;
      }
    </style>
    <clipPath id="clippath">
      <rect class="cls-1" x="94.85" y="-1071.68" width="410.75" height="758.17" transform="translate(992.81 -392.37) rotate(-90)"/>
    </clipPath>
    <clipPath id="clippath-2">
      <rect class="cls-1" x="94.85" y="18.55" width="410.75" height="558.17" transform="translate(2.59 597.85) rotate(-90)"/>
    </clipPath>
  </defs>
  <g class="cls-20">
    <g>
      <path class="cls-15" d="M263.93-210.42l644.37-255.02,30.22,76.37c45.7,115.48-18.5,250.23-129.31,306.33L624.81,14.53l-354.33-54.65-6.55-170.3Z"/>
      <path class="cls-21" d="M251.52-263.64s-58.59-18.13-72.86,6.74c-14.27,24.87-5.74,59.51-5.74,59.51,0,0-14.69,19.64,16.7,112.04C220.99,7.05,238.14,50.37,231.34,59.4c-6.8,9.02-37.67,48.89-37.67,48.89l-20.05,17.73s-24.47,19.68-19.57,30.6c4.9,10.92,37.11,7.84,48.07.62,10.97-7.22,16.08-13.15,19.59-20.3,3.51-7.15,21.79-29.36,21.79-29.36l51.53-31.34s.56-17.5-7.17-25.39c-7.73-7.88-20.81-48.21-20.54-67.9.27-19.69,2.89-82.93-2.63-96.87-5.52-13.94-30.03-55.5-31.39-64.76-1.36-9.25,29.12-41.46,29.12-41.46l-10.9-43.51Z"/>
      <path class="cls-21" d="M194.53-361.93s-49.27-7.25-58.2,31.23c-8.92,38.47-4.92,61.29-4.92,61.29l-10.51,108.61s3.74,104.74-4.29,118.16c-8.03,13.43-11.8,18.97-28.58,32.5-10.21,8.24-15.9,22.37-35.34,35.03-9.86,6.42-15.67,23.4-4.31,26.43,13.81,3.68,17.96,6.98,32.91-1.02,26.03-13.92,55.83-39.48,55.83-39.48,0,0,28.31-7.14,33.87-20.07,5.56-12.93-7.24-33.01-7.24-33.01,0,0,3.55-4.41,4.93-10.45,1.39-6.04-3.33-13.33-3.33-13.33l43.52-220.72-14.36-75.16Z"/>
      <path class="cls-15" d="M24.9,74.69s-3.38-12.01-2.13-13.56c.42-.51,1.39-.91,2.49-1.22-2.96-8.66,2.3-19.02,7.31-22.75,7.08-5.27,76.56-68.09,76.56-68.09,0,0,5.57-2.09,17.52,2.25,11.95,4.34,15.96,9.99,24.09,5.49,8.13-4.5,14.39-20.52,14.39-20.52l2.95-1.13s10.08,14.23,10.57,23.05c.49,8.82-.3,14.86-.3,14.86l3.33,1.06.39,7.05s-20.57,11.5-34.29,20.37c-13.72,8.87-26.89,22.4-60.38,40.54-33.48,18.14-62.52,12.59-62.52,12.59Z"/>
      <path class="cls-15" d="M280.33,38.85s7.69,1.92,12.12,10.62c4.44,8.7,8.11,27.4,8.11,27.4l3.11.51,1.83,11.97c4.81-.62-21.84,20.32-48.22,32.54-17.18,7.96-26.16,30.12-58.49,51.23-27.4,17.89-53.69,2.73-53.69,2.73,0,0-13.16-18.12,17.11-46.03,30.27-27.91,54.89-61.98,54.89-61.98,0,0-.5-5.03,13.45-.6,13.95,4.43,31.04,11.44,40.55,3.11,16.08-14.08,9.22-31.51,9.22-31.51Z"/>
      <path class="cls-15" d="M32.44,61.64l6.33-2.51s-9.13-5.73,9.94-23.48C67.77,17.9,100.24,2.76,109.28-6.77c7-7.38,16.63-16.76,20.62-20.62,9.52,4.05,13.5,8.27,20.85,4.2,8.13-4.5,14.39-20.52,14.39-20.52l2.95-1.13s10.08,14.23,10.57,23.05c.49,8.82-.3,14.86-.3,14.86l3.33,1.06.39,7.05s-20.57,11.5-34.29,20.37c-13.72,8.87-26.89,22.4-60.38,40.54-24.27,13.15-46.19,13.85-56.43,13.24l1.44-13.7Z"/>
      <path class="cls-15" d="M151.95,170.45l3.56-1.41s-.65-16.68,3.64-22.04c4.29-5.36,27.2-24.96,36.56-31.41,9.35-6.45,19.32-31,24.71-34.5,5.39-3.51,26.07,4.33,36.44,2.06,10.37-2.27,18.75-7.42,27.18-20.83,3.24-5.16,4.46-11.82,4.74-18.07,1.31,1.39,2.58,3.1,3.67,5.22,4.44,8.7,8.11,27.4,8.11,27.4l3.11.51,1.83,11.97c4.81-.62-21.84,20.32-48.22,32.54-17.18,7.96-26.16,30.12-58.49,51.23-18.02,11.76-35.56,9.24-45.46,6.13l-1.37-8.8Z"/>
    </g>
  </g>
  <g>
    <g>
      <g>
        <rect class="cls-14" y="0" width="600" height="600" rx="30" ry="30"/>
        <g>
          <rect class="cls-8" x="75.66" y="518.05" width="46.67" height="13.94" rx="3.48" ry="3.48"/>
          <rect class="cls-8" x="496.7" y="518.05" width="82.6" height="13.94" rx="3.48" ry="3.48"/>
          <rect class="cls-8" x="361.17" y="518.05" width="116.89" height="13.94" rx="3.48" ry="3.48"/>
        </g>
        <g>
          <g>
            <path class="cls-5" d="M70.56,566.85h-3.97c-.67,0-1.21.54-1.21,1.22v13.02c0,.67.54,1.22,1.21,1.22h3.97c.67,0,1.22-.55,1.22-1.22v-13.02c0-.68-.55-1.22-1.22-1.22Z"/>
            <path class="cls-5" d="M91.61,571.37c0-1.82-1.51-1.82-1.51-1.82,0,0,1.51-.6,1.51-2.42,0-2.13-1.52-2.43-2.43-2.43h-6.67c1.51-3.35,1.52-5.47,1.52-6.68s-.91-3.64-2.73-3.64-2.13,1.21-2.13,1.21c0,0,.46,3.18,0,3.64-.46.46-5.76,6.68-5.76,7.9,0,.9,0,2.15,0,2.72h0v9.42c0,.84.68,1.52,1.52,1.52h11.6c2.76-.08,3.89-.96,3.89-2.12s-.91-1.52-.91-1.52c0,0,1.2-.3,1.2-1.82s-.91-1.82-.91-1.82c0,0,1.81-.31,1.81-2.13Z"/>
          </g>
          <rect class="cls-10" x="101.88" y="565.74" width="46.67" height="13.94" rx="3.48" ry="3.48"/>
          <g>
            <path class="cls-5" d="M261.73,560.28h-17.01c-2.15,0-3.9,1.75-3.9,3.89v11.74c0,2.14,1.75,3.89,3.9,3.89h3.15v4.38s0,1.2.58.91c.43-.09,1.37-.91,1.37-.91l4.85-4.38h7.07c2.14,0,3.89-1.75,3.89-3.89v-11.74c0-2.14-1.75-3.89-3.89-3.89"/>
            <rect class="cls-10" x="275.89" y="566" width="87.45" height="13.94" rx="3.48" ry="3.48"/>
          </g>
          <g>
            <path class="cls-5" d="M477.4,572.04l-10.37-10.37c-.37-.37-.97-.37-1.35,0v6.11s-14.85-.55-16.18,16.26c0,0,4.75-8.16,16.18-7.27v6.99c.37.37.98.37,1.35,0l10.37-10.36c.37-.37.37-.98,0-1.35"/>
            <rect class="cls-10" x="487.95" y="567.51" width="46.67" height="13.94" rx="3.48" ry="3.48"/>
          </g>
        </g>
        <g>
          <path class="cls-17" d="M65.12,523.12c0,6.71-5.44,12.15-12.15,12.15s-12.15-5.44-12.15-12.15,5.44-12.15,12.15-12.15,12.15,5.44,12.15,12.15Z"/>
          <path class="cls-14" d="M56.86,518.72c-1.81-.41-3.33.3-3.88,2.04-.55-1.74-2.07-2.45-3.89-2.04-1.44.33-3.42,2.59-1.67,5.62,1.75,3.02,5.56,4.91,5.56,4.91,0,0,3.81-1.89,5.56-4.91,1.74-3.03-.23-5.29-1.67-5.62Z"/>
        </g>
        <g>
          <path class="cls-14" d="M44.18,523.13c0,7.37-5.98,13.35-13.36,13.35s-13.36-5.98-13.36-13.35,5.98-13.36,13.36-13.36,13.36,5.98,13.36,13.36Z"/>
          <path class="cls-9" d="M42.97,523.13c0,6.71-5.44,12.15-12.15,12.15s-12.15-5.44-12.15-12.15,5.44-12.15,12.15-12.15,12.15,5.44,12.15,12.15Z"/>
          <g>
            <path class="cls-14" d="M26.85,521.72h-1.9c-.27,0-.49.21-.49.48v5.63c0,.27.22.49.49.49h1.9c.27,0,.48-.22.48-.49v-5.63c0-.27-.22-.48-.48-.48Z"/>
            <path class="cls-14" d="M35.31,520.16h-2.66v-2.71c0-.47-.52-1.33-.94-1.33h-.99c-.18,0-.42.37-.42.97v1.64c0,.34-.49,1.3-.86,1.8-.36.5-1.1.94-1.1,1.61v4.8c0,.47.4,1.07,1.41,1.07h4.54c.62,0,1.12-.1,1.75-1.51.63-1.41.92-2.03.92-3.18v-1.93c0-.6-.52-1.22-1.65-1.22Z"/>
          </g>
        </g>
        <line class="cls-2" x1="22.41" y1="545.3" x2="577.49" y2="545.3"/>
        <rect class="cls-10" x="96.49" y="24.56" width="168.96" height="22.83" rx="5.78" ry="5.78"/>
        <rect class="cls-10" x="96.49" y="58.78" width="258.59" height="17.24" rx="4.44" ry="4.44"/>
        <path class="cls-5" d="M49.98,21.13h0c15.92,0,28.85,12.93,28.85,28.85h0c0,15.92-12.93,28.85-28.85,28.85h0c-15.92,0-28.84-12.92-28.84-28.84h0c0-15.92,12.93-28.85,28.85-28.85Z"/>
      </g>
      <rect class="cls-18" x="94.85" y="18.55" width="410.75" height="558.17" transform="translate(2.59 597.85) rotate(-90)"/>
    </g>
    <g class="cls-11">
      <g class="cls-16">
        <g>
          <g>
            <polygon class="cls-6" points="300 300 242.4 85.04 175.89 85.04 300 300"/>
            <polygon class="cls-6" points="300 85.04 300 300 357.6 85.04 300 85.04"/>
            <polygon class="cls-6" points="424.11 85.04 300 300 514.96 85.04 424.11 85.04"/>
            <polygon class="cls-6" points="622.44 113.84 300 300 622.44 213.6 622.44 113.84"/>
            <polygon class="cls-6" points="622.44 300 300 300 622.44 386.4 622.44 300"/>
            <polygon class="cls-6" points="622.44 486.16 300 300 514.96 514.96 622.44 514.96 622.44 486.16"/>
            <polygon class="cls-6" points="424.11 514.96 300 300 357.6 514.96 424.11 514.96"/>
            <polygon class="cls-6" points="300 514.96 300 300 242.4 514.96 300 514.96"/>
            <polygon class="cls-6" points="175.89 514.96 300 300 85.04 514.96 175.89 514.96"/>
            <polygon class="cls-6" points="-22.44 486.16 300 300 -22.44 386.4 -22.44 486.16"/>
            <polygon class="cls-6" points="-22.44 300 300 300 -22.44 213.6 -22.44 300"/>
            <polygon class="cls-6" points="-22.44 113.84 300 300 85.04 85.04 -22.44 85.04 -22.44 113.84"/>
          </g>
          <path class="cls-5" d="M301.44,390.34c2.26-13.32,8.88-26.88,20.81-34.54,11.93-7.66,29.65-7.41,38.09,2.89-6.56-11.68-5.2-27.29,3.36-38.5,8.56-11.21,23.88-17.45,37.8-15.4-22.58-11.65-20.26-55.46-.17-74.35-11.75,12.01-37.57,16.7-46.8,8.97-9.23-7.73-13.15-19.78-14.99-31.56-4.7,14.5-22.73,22.7-38.23,21-15.51-1.69-28.57-10.97-39.3-21.39,3.03,14.52-8.68,30.09-23.61,35.44-14.93,5.35-31.66,2.03-44.89-5.38,15.6,22.97,3.07,59.51-24.33,70.97,16.81,3.74,31.19,15.14,38.01,30.13,6.82,14.99,5.93,33.28-2.33,48.33,4.27-3.96,7.95-6.45,13.15-9.16,12.57-6.55,25.95-12.68,39.99-13.25,14.04-.57,38.67,13.45,43.43,25.8Z"/>
        </g>
      </g>
    </g>
    <g>
      <g>
        <path class="cls-4" d="M57.27,180.28c-2.8-.53-5.01-1.33-6.63-2.39v-8.05c2.04,1.2,4.31,2.13,6.83,2.78,2.52.65,4.8.97,6.83.97,2.45,0,4.24-.24,5.38-.73,1.13-.49,1.7-1.35,1.7-2.6,0-1.11-.54-1.97-1.63-2.57-1.09-.6-3.11-1.36-6.07-2.29l-1.73-.56c-3.98-1.25-6.92-2.75-8.81-4.51-1.9-1.76-2.84-4.16-2.84-7.21,0-3.56,1.43-6.33,4.3-8.29,2.87-1.97,6.73-2.95,11.59-2.95,2.64,0,5.18.28,7.63.83,2.45.55,4.42,1.27,5.9,2.15v8.26c-1.48-1.02-3.32-1.84-5.52-2.46-2.2-.62-4.36-.94-6.49-.94-4.49,0-6.73,1.13-6.73,3.4,0,1.11.53,1.97,1.6,2.57,1.06.6,2.96,1.32,5.69,2.15l2.5.76c2.91.93,5.19,1.94,6.83,3.05,1.64,1.11,2.79,2.36,3.43,3.75.65,1.39.97,3.08.97,5.06,0,3.19-1.38,5.76-4.13,7.7-2.75,1.94-6.86,2.91-12.31,2.91-2.73,0-5.49-.27-8.29-.8Z"/>
        <path class="cls-4" d="M59.59,131.61v-5.07h9.44v3.4c0,.65.13,1.1.38,1.35s.73.38,1.42.38h15.82v6.66h-20.4c-4.44,0-6.66-2.24-6.66-6.73Z"/>
        <path class="cls-4" d="M96.92,179.03c-2.87-1.36-5.09-3.25-6.66-5.65-1.57-2.4-2.36-5.13-2.36-8.19v-22.27h10.55v21.58c0,2.68.7,4.75,2.12,6.21,1.41,1.46,3.55,2.19,6.42,2.19s5-.73,6.38-2.19c1.39-1.46,2.08-3.53,2.08-6.21v-21.58h10.55v22.27c0,3.05-.79,5.78-2.36,8.19-1.57,2.41-3.79,4.29-6.66,5.65-2.87,1.36-6.2,2.05-9.99,2.05s-7.19-.68-10.06-2.05Z"/>
        <path class="cls-4" d="M135.53,177.89c-2.52-2.13-3.78-5.13-3.78-9.02s1.38-6.94,4.13-9.16c2.75-2.22,6.53-3.33,11.34-3.33,4.49,0,8.33.74,11.52,2.22v-1.46c0-2.5-.82-4.35-2.46-5.55-1.64-1.2-4.29-1.8-7.94-1.8-2.27,0-4.49.23-6.66.69-2.17.46-4.12,1.11-5.83,1.94v-7.91c1.53-.74,3.63-1.36,6.31-1.87,2.68-.51,5.39-.76,8.12-.76,3.1,0,5.99.46,8.67,1.39l2.71-3.12h11.45l-6.87,7.98c1.99,2.27,2.98,5.25,2.98,8.95v22.96h-10.48v-13.81c-2.68-1.39-5.83-2.08-9.44-2.08-2.36,0-4.08.39-5.17,1.18-1.09.79-1.63,2.01-1.63,3.68,0,1.53.5,2.67,1.49,3.43.99.76,2.58,1.14,4.75,1.14,1.53,0,2.82-.23,3.89-.69v7.29c-1.8.6-4.12.9-6.94.9-4.26,0-7.64-1.06-10.16-3.19Z"/>
        <path class="cls-4" d="M193.15,179.76c-2.17-.88-4.07-2.17-5.69-3.89v4.16h-10.06v-37.12h10.55v24.98c1.02,1.71,2.24,2.97,3.68,3.78,1.43.81,3.12,1.21,5.06,1.21,4.76,0,7.15-2.24,7.15-6.73v-23.24h10.48v23.87c0,2.68-.55,5.11-1.67,7.29-1.11,2.17-2.75,3.89-4.93,5.13-2.17,1.25-4.79,1.87-7.84,1.87-2.31,0-4.56-.44-6.73-1.32Z"/>
        <path class="cls-4" d="M193.35,131.61v-5.07h9.44v3.4c0,.65.13,1.1.38,1.35s.73.38,1.42.38h15.82v6.66h-20.4c-4.44,0-6.66-2.24-6.66-6.73Z"/>
        <path class="cls-4" d="M221.59,157.77c0-5.13,1.72-9.07,5.17-11.79,3.45-2.73,8.08-4.09,13.91-4.09s10.45,1.37,13.88,4.09c3.42,2.73,5.13,6.66,5.13,11.79v22.27h-10.55v-22.34c0-2.54-.73-4.45-2.19-5.72-1.46-1.27-3.55-1.91-6.28-1.91s-4.89.64-6.35,1.91c-1.46,1.27-2.19,3.18-2.19,5.72v5.27c.56-.83,1.38-1.49,2.46-1.98,1.09-.49,2.3-.73,3.64-.73h5.41v8.05h-5.97c-1.62,0-2.95.51-3.99,1.53-1.04,1.02-1.56,2.34-1.56,3.96v6.24h-10.55v-22.27Z"/>
        <path class="cls-4" d="M272.48,180.28c-2.8-.53-5.01-1.33-6.63-2.39v-8.05c2.04,1.2,4.31,2.13,6.83,2.78,2.52.65,4.8.97,6.83.97,2.45,0,4.24-.24,5.38-.73,1.13-.49,1.7-1.35,1.7-2.6,0-1.11-.54-1.97-1.63-2.57-1.09-.6-3.11-1.36-6.07-2.29l-1.73-.56c-3.98-1.25-6.92-2.75-8.81-4.51-1.9-1.76-2.84-4.16-2.84-7.21,0-3.56,1.43-6.33,4.3-8.29,2.87-1.97,6.73-2.95,11.59-2.95,2.64,0,5.18.28,7.63.83,2.45.55,4.42,1.27,5.9,2.15v8.26c-1.48-1.02-3.32-1.84-5.52-2.46-2.2-.62-4.36-.94-6.49-.94-4.49,0-6.73,1.13-6.73,3.4,0,1.11.53,1.97,1.6,2.57,1.06.6,2.96,1.32,5.69,2.15l2.5.76c2.91.93,5.19,1.94,6.83,3.05,1.64,1.11,2.79,2.36,3.43,3.75.65,1.39.97,3.08.97,5.06,0,3.19-1.38,5.76-4.13,7.7-2.75,1.94-6.86,2.91-12.31,2.91-2.73,0-5.49-.27-8.29-.8Z"/>
        <path class="cls-4" d="M306.65,176.29c-3.33-3.19-5-7.86-5-14.01s1.92-11.44,5.76-15.02c3.84-3.58,9.13-5.38,15.89-5.38s12.13,1.62,15.44,4.86c3.31,3.24,4.96,7.49,4.96,12.77v20.54h-10.48v-20.61c0-3.05-.78-5.38-2.32-6.97-1.55-1.6-4.08-2.39-7.6-2.39-3.33,0-5.97,1.04-7.91,3.12-1.94,2.08-2.91,5.11-2.91,9.09,0,3.65.8,6.34,2.39,8.05,1.6,1.71,4.03,2.57,7.32,2.57,1.76,0,3.33-.25,4.72-.76v8.05c-1.8.6-4.02.9-6.66.9-5.74,0-10.27-1.6-13.6-4.79Z"/>
        <path class="cls-4" d="M333.22,125.99h10.55v12.35h-10.55v-12.35Z"/>
        <path class="cls-4" d="M349.6,178.1v-8.19c2.87,1.99,6.8,2.98,11.79,2.98,3.89,0,6.89-.94,9.02-2.81,2.13-1.87,3.19-4.73,3.19-8.57s-1.06-6.71-3.19-8.6c-2.13-1.9-5.13-2.84-9.02-2.84-4.81,0-8.65,1.02-11.52,3.05v-8.19c1.62-1.02,3.63-1.78,6.04-2.29,2.4-.51,5-.76,7.77-.76,6.48,0,11.55,1.72,15.23,5.17,3.68,3.45,5.52,8.27,5.52,14.47s-1.84,11.01-5.52,14.43c-3.68,3.42-8.75,5.13-15.23,5.13s-10.85-1-14.08-2.98Z"/>
        <path class="cls-4" d="M396.91,179.2c-2.17-1.25-3.83-2.96-4.96-5.13-1.13-2.17-1.7-4.6-1.7-7.29v-23.87h10.55v23.24c0,4.49,2.38,6.73,7.15,6.73,1.94,0,3.62-.4,5.03-1.21,1.41-.81,2.65-2.07,3.71-3.78v-24.98h10.48v37.12h-9.99v-4.16c-1.62,1.71-3.53,3.01-5.72,3.89-2.2.88-4.45,1.32-6.76,1.32-3.01,0-5.6-.62-7.77-1.87Z"/>
      </g>
      <g>
        <path class="cls-3" d="M57.27,180.28c-2.8-.53-5.01-1.33-6.63-2.39v-8.05c2.04,1.2,4.31,2.13,6.83,2.78,2.52.65,4.8.97,6.83.97,2.45,0,4.24-.24,5.38-.73,1.13-.49,1.7-1.35,1.7-2.6,0-1.11-.54-1.97-1.63-2.57-1.09-.6-3.11-1.36-6.07-2.29l-1.73-.56c-3.98-1.25-6.92-2.75-8.81-4.51-1.9-1.76-2.84-4.16-2.84-7.21,0-3.56,1.43-6.33,4.3-8.29,2.87-1.97,6.73-2.95,11.59-2.95,2.64,0,5.18.28,7.63.83,2.45.55,4.42,1.27,5.9,2.15v8.26c-1.48-1.02-3.32-1.84-5.52-2.46-2.2-.62-4.36-.94-6.49-.94-4.49,0-6.73,1.13-6.73,3.4,0,1.11.53,1.97,1.6,2.57,1.06.6,2.96,1.32,5.69,2.15l2.5.76c2.91.93,5.19,1.94,6.83,3.05,1.64,1.11,2.79,2.36,3.43,3.75.65,1.39.97,3.08.97,5.06,0,3.19-1.38,5.76-4.13,7.7-2.75,1.94-6.86,2.91-12.31,2.91-2.73,0-5.49-.27-8.29-.8Z"/>
        <path class="cls-3" d="M59.59,131.61v-5.07h9.44v3.4c0,.65.13,1.1.38,1.35s.73.38,1.42.38h15.82v6.66h-20.4c-4.44,0-6.66-2.24-6.66-6.73Z"/>
        <path class="cls-3" d="M96.92,179.03c-2.87-1.36-5.09-3.25-6.66-5.65-1.57-2.4-2.36-5.13-2.36-8.19v-22.27h10.55v21.58c0,2.68.7,4.75,2.12,6.21,1.41,1.46,3.55,2.19,6.42,2.19s5-.73,6.38-2.19c1.39-1.46,2.08-3.53,2.08-6.21v-21.58h10.55v22.27c0,3.05-.79,5.78-2.36,8.19-1.57,2.41-3.79,4.29-6.66,5.65-2.87,1.36-6.2,2.05-9.99,2.05s-7.19-.68-10.06-2.05Z"/>
        <path class="cls-3" d="M135.53,177.89c-2.52-2.13-3.78-5.13-3.78-9.02s1.38-6.94,4.13-9.16c2.75-2.22,6.53-3.33,11.34-3.33,4.49,0,8.33.74,11.52,2.22v-1.46c0-2.5-.82-4.35-2.46-5.55-1.64-1.2-4.29-1.8-7.94-1.8-2.27,0-4.49.23-6.66.69-2.17.46-4.12,1.11-5.83,1.94v-7.91c1.53-.74,3.63-1.36,6.31-1.87,2.68-.51,5.39-.76,8.12-.76,3.1,0,5.99.46,8.67,1.39l2.71-3.12h11.45l-6.87,7.98c1.99,2.27,2.98,5.25,2.98,8.95v22.96h-10.48v-13.81c-2.68-1.39-5.83-2.08-9.44-2.08-2.36,0-4.08.39-5.17,1.18-1.09.79-1.63,2.01-1.63,3.68,0,1.53.5,2.67,1.49,3.43.99.76,2.58,1.14,4.75,1.14,1.53,0,2.82-.23,3.89-.69v7.29c-1.8.6-4.12.9-6.94.9-4.26,0-7.64-1.06-10.16-3.19Z"/>
        <path class="cls-3" d="M193.15,179.76c-2.17-.88-4.07-2.17-5.69-3.89v4.16h-10.06v-37.12h10.55v24.98c1.02,1.71,2.24,2.97,3.68,3.78,1.43.81,3.12,1.21,5.06,1.21,4.76,0,7.15-2.24,7.15-6.73v-23.24h10.48v23.87c0,2.68-.55,5.11-1.67,7.29-1.11,2.17-2.75,3.89-4.93,5.13-2.17,1.25-4.79,1.87-7.84,1.87-2.31,0-4.56-.44-6.73-1.32Z"/>
        <path class="cls-3" d="M193.35,131.61v-5.07h9.44v3.4c0,.65.13,1.1.38,1.35s.73.38,1.42.38h15.82v6.66h-20.4c-4.44,0-6.66-2.24-6.66-6.73Z"/>
        <path class="cls-3" d="M221.59,157.77c0-5.13,1.72-9.07,5.17-11.79,3.45-2.73,8.08-4.09,13.91-4.09s10.45,1.37,13.88,4.09c3.42,2.73,5.13,6.66,5.13,11.79v22.27h-10.55v-22.34c0-2.54-.73-4.45-2.19-5.72-1.46-1.27-3.55-1.91-6.28-1.91s-4.89.64-6.35,1.91c-1.46,1.27-2.19,3.18-2.19,5.72v5.27c.56-.83,1.38-1.49,2.46-1.98,1.09-.49,2.3-.73,3.64-.73h5.41v8.05h-5.97c-1.62,0-2.95.51-3.99,1.53-1.04,1.02-1.56,2.34-1.56,3.96v6.24h-10.55v-22.27Z"/>
        <path class="cls-3" d="M272.48,180.28c-2.8-.53-5.01-1.33-6.63-2.39v-8.05c2.04,1.2,4.31,2.13,6.83,2.78,2.52.65,4.8.97,6.83.97,2.45,0,4.24-.24,5.38-.73,1.13-.49,1.7-1.35,1.7-2.6,0-1.11-.54-1.97-1.63-2.57-1.09-.6-3.11-1.36-6.07-2.29l-1.73-.56c-3.98-1.25-6.92-2.75-8.81-4.51-1.9-1.76-2.84-4.16-2.84-7.21,0-3.56,1.43-6.33,4.3-8.29,2.87-1.97,6.73-2.95,11.59-2.95,2.64,0,5.18.28,7.63.83,2.45.55,4.42,1.27,5.9,2.15v8.26c-1.48-1.02-3.32-1.84-5.52-2.46-2.2-.62-4.36-.94-6.49-.94-4.49,0-6.73,1.13-6.73,3.4,0,1.11.53,1.97,1.6,2.57,1.06.6,2.96,1.32,5.69,2.15l2.5.76c2.91.93,5.19,1.94,6.83,3.05,1.64,1.11,2.79,2.36,3.43,3.75.65,1.39.97,3.08.97,5.06,0,3.19-1.38,5.76-4.13,7.7-2.75,1.94-6.86,2.91-12.31,2.91-2.73,0-5.49-.27-8.29-.8Z"/>
        <path class="cls-3" d="M306.65,176.29c-3.33-3.19-5-7.86-5-14.01s1.92-11.44,5.76-15.02c3.84-3.58,9.13-5.38,15.89-5.38s12.13,1.62,15.44,4.86c3.31,3.24,4.96,7.49,4.96,12.77v20.54h-10.48v-20.61c0-3.05-.78-5.38-2.32-6.97-1.55-1.6-4.08-2.39-7.6-2.39-3.33,0-5.97,1.04-7.91,3.12-1.94,2.08-2.91,5.11-2.91,9.09,0,3.65.8,6.34,2.39,8.05,1.6,1.71,4.03,2.57,7.32,2.57,1.76,0,3.33-.25,4.72-.76v8.05c-1.8.6-4.02.9-6.66.9-5.74,0-10.27-1.6-13.6-4.79Z"/>
        <path class="cls-3" d="M333.22,125.99h10.55v12.35h-10.55v-12.35Z"/>
        <path class="cls-3" d="M349.6,178.1v-8.19c2.87,1.99,6.8,2.98,11.79,2.98,3.89,0,6.89-.94,9.02-2.81,2.13-1.87,3.19-4.73,3.19-8.57s-1.06-6.71-3.19-8.6c-2.13-1.9-5.13-2.84-9.02-2.84-4.81,0-8.65,1.02-11.52,3.05v-8.19c1.62-1.02,3.63-1.78,6.04-2.29,2.4-.51,5-.76,7.77-.76,6.48,0,11.55,1.72,15.23,5.17,3.68,3.45,5.52,8.27,5.52,14.47s-1.84,11.01-5.52,14.43c-3.68,3.42-8.75,5.13-15.23,5.13s-10.85-1-14.08-2.98Z"/>
        <path class="cls-3" d="M396.91,179.2c-2.17-1.25-3.83-2.96-4.96-5.13-1.13-2.17-1.7-4.6-1.7-7.29v-23.87h10.55v23.24c0,4.49,2.38,6.73,7.15,6.73,1.94,0,3.62-.4,5.03-1.21,1.41-.81,2.65-2.07,3.71-3.78v-24.98h10.48v37.12h-9.99v-4.16c-1.62,1.71-3.53,3.01-5.72,3.89-2.2.88-4.45,1.32-6.76,1.32-3.01,0-5.6-.62-7.77-1.87Z"/>
      </g>
      <g>
        <path class="cls-19" d="M57.27,180.28c-2.8-.53-5.01-1.33-6.63-2.39v-8.05c2.04,1.2,4.31,2.13,6.83,2.78,2.52.65,4.8.97,6.83.97,2.45,0,4.24-.24,5.38-.73,1.13-.49,1.7-1.35,1.7-2.6,0-1.11-.54-1.97-1.63-2.57-1.09-.6-3.11-1.36-6.07-2.29l-1.73-.56c-3.98-1.25-6.92-2.75-8.81-4.51-1.9-1.76-2.84-4.16-2.84-7.21,0-3.56,1.43-6.33,4.3-8.29,2.87-1.97,6.73-2.95,11.59-2.95,2.64,0,5.18.28,7.63.83,2.45.55,4.42,1.27,5.9,2.15v8.26c-1.48-1.02-3.32-1.84-5.52-2.46-2.2-.62-4.36-.94-6.49-.94-4.49,0-6.73,1.13-6.73,3.4,0,1.11.53,1.97,1.6,2.57,1.06.6,2.96,1.32,5.69,2.15l2.5.76c2.91.93,5.19,1.94,6.83,3.05,1.64,1.11,2.79,2.36,3.43,3.75.65,1.39.97,3.08.97,5.06,0,3.19-1.38,5.76-4.13,7.7-2.75,1.94-6.86,2.91-12.31,2.91-2.73,0-5.49-.27-8.29-.8Z"/>
        <path class="cls-19" d="M59.59,131.61v-5.07h9.44v3.4c0,.65.13,1.1.38,1.35s.73.38,1.42.38h15.82v6.66h-20.4c-4.44,0-6.66-2.24-6.66-6.73Z"/>
        <path class="cls-19" d="M96.92,179.03c-2.87-1.36-5.09-3.25-6.66-5.65-1.57-2.4-2.36-5.13-2.36-8.19v-22.27h10.55v21.58c0,2.68.7,4.75,2.12,6.21,1.41,1.46,3.55,2.19,6.42,2.19s5-.73,6.38-2.19c1.39-1.46,2.08-3.53,2.08-6.21v-21.58h10.55v22.27c0,3.05-.79,5.78-2.36,8.19-1.57,2.41-3.79,4.29-6.66,5.65-2.87,1.36-6.2,2.05-9.99,2.05s-7.19-.68-10.06-2.05Z"/>
        <path class="cls-19" d="M135.53,177.89c-2.52-2.13-3.78-5.13-3.78-9.02s1.38-6.94,4.13-9.16c2.75-2.22,6.53-3.33,11.34-3.33,4.49,0,8.33.74,11.52,2.22v-1.46c0-2.5-.82-4.35-2.46-5.55-1.64-1.2-4.29-1.8-7.94-1.8-2.27,0-4.49.23-6.66.69-2.17.46-4.12,1.11-5.83,1.94v-7.91c1.53-.74,3.63-1.36,6.31-1.87,2.68-.51,5.39-.76,8.12-.76,3.1,0,5.99.46,8.67,1.39l2.71-3.12h11.45l-6.87,7.98c1.99,2.27,2.98,5.25,2.98,8.95v22.96h-10.48v-13.81c-2.68-1.39-5.83-2.08-9.44-2.08-2.36,0-4.08.39-5.17,1.18-1.09.79-1.63,2.01-1.63,3.68,0,1.53.5,2.67,1.49,3.43.99.76,2.58,1.14,4.75,1.14,1.53,0,2.82-.23,3.89-.69v7.29c-1.8.6-4.12.9-6.94.9-4.26,0-7.64-1.06-10.16-3.19Z"/>
        <path class="cls-19" d="M193.15,179.76c-2.17-.88-4.07-2.17-5.69-3.89v4.16h-10.06v-37.12h10.55v24.98c1.02,1.71,2.24,2.97,3.68,3.78,1.43.81,3.12,1.21,5.06,1.21,4.76,0,7.15-2.24,7.15-6.73v-23.24h10.48v23.87c0,2.68-.55,5.11-1.67,7.29-1.11,2.17-2.75,3.89-4.93,5.13-2.17,1.25-4.79,1.87-7.84,1.87-2.31,0-4.56-.44-6.73-1.32Z"/>
        <path class="cls-19" d="M193.35,131.61v-5.07h9.44v3.4c0,.65.13,1.1.38,1.35s.73.38,1.42.38h15.82v6.66h-20.4c-4.44,0-6.66-2.24-6.66-6.73Z"/>
        <path class="cls-19" d="M221.59,157.77c0-5.13,1.72-9.07,5.17-11.79,3.45-2.73,8.08-4.09,13.91-4.09s10.45,1.37,13.88,4.09c3.42,2.73,5.13,6.66,5.13,11.79v22.27h-10.55v-22.34c0-2.54-.73-4.45-2.19-5.72-1.46-1.27-3.55-1.91-6.28-1.91s-4.89.64-6.35,1.91c-1.46,1.27-2.19,3.18-2.19,5.72v5.27c.56-.83,1.38-1.49,2.46-1.98,1.09-.49,2.3-.73,3.64-.73h5.41v8.05h-5.97c-1.62,0-2.95.51-3.99,1.53-1.04,1.02-1.56,2.34-1.56,3.96v6.24h-10.55v-22.27Z"/>
        <path class="cls-19" d="M272.48,180.28c-2.8-.53-5.01-1.33-6.63-2.39v-8.05c2.04,1.2,4.31,2.13,6.83,2.78,2.52.65,4.8.97,6.83.97,2.45,0,4.24-.24,5.38-.73,1.13-.49,1.7-1.35,1.7-2.6,0-1.11-.54-1.97-1.63-2.57-1.09-.6-3.11-1.36-6.07-2.29l-1.73-.56c-3.98-1.25-6.92-2.75-8.81-4.51-1.9-1.76-2.84-4.16-2.84-7.21,0-3.56,1.43-6.33,4.3-8.29,2.87-1.97,6.73-2.95,11.59-2.95,2.64,0,5.18.28,7.63.83,2.45.55,4.42,1.27,5.9,2.15v8.26c-1.48-1.02-3.32-1.84-5.52-2.46-2.2-.62-4.36-.94-6.49-.94-4.49,0-6.73,1.13-6.73,3.4,0,1.11.53,1.97,1.6,2.57,1.06.6,2.96,1.32,5.69,2.15l2.5.76c2.91.93,5.19,1.94,6.83,3.05,1.64,1.11,2.79,2.36,3.43,3.75.65,1.39.97,3.08.97,5.06,0,3.19-1.38,5.76-4.13,7.7-2.75,1.94-6.86,2.91-12.31,2.91-2.73,0-5.49-.27-8.29-.8Z"/>
        <path class="cls-19" d="M306.65,176.29c-3.33-3.19-5-7.86-5-14.01s1.92-11.44,5.76-15.02c3.84-3.58,9.13-5.38,15.89-5.38s12.13,1.62,15.44,4.86c3.31,3.24,4.96,7.49,4.96,12.77v20.54h-10.48v-20.61c0-3.05-.78-5.38-2.32-6.97-1.55-1.6-4.08-2.39-7.6-2.39-3.33,0-5.97,1.04-7.91,3.12-1.94,2.08-2.91,5.11-2.91,9.09,0,3.65.8,6.34,2.39,8.05,1.6,1.71,4.03,2.57,7.32,2.57,1.76,0,3.33-.25,4.72-.76v8.05c-1.8.6-4.02.9-6.66.9-5.74,0-10.27-1.6-13.6-4.79Z"/>
        <path class="cls-19" d="M333.22,125.99h10.55v12.35h-10.55v-12.35Z"/>
        <path class="cls-19" d="M349.6,178.1v-8.19c2.87,1.99,6.8,2.98,11.79,2.98,3.89,0,6.89-.94,9.02-2.81,2.13-1.87,3.19-4.73,3.19-8.57s-1.06-6.71-3.19-8.6c-2.13-1.9-5.13-2.84-9.02-2.84-4.81,0-8.65,1.02-11.52,3.05v-8.19c1.62-1.02,3.63-1.78,6.04-2.29,2.4-.51,5-.76,7.77-.76,6.48,0,11.55,1.72,15.23,5.17,3.68,3.45,5.52,8.27,5.52,14.47s-1.84,11.01-5.52,14.43c-3.68,3.42-8.75,5.13-15.23,5.13s-10.85-1-14.08-2.98Z"/>
        <path class="cls-19" d="M396.91,179.2c-2.17-1.25-3.83-2.96-4.96-5.13-1.13-2.17-1.7-4.6-1.7-7.29v-23.87h10.55v23.24c0,4.49,2.38,6.73,7.15,6.73,1.94,0,3.62-.4,5.03-1.21,1.41-.81,2.65-2.07,3.71-3.78v-24.98h10.48v37.12h-9.99v-4.16c-1.62,1.71-3.53,3.01-5.72,3.89-2.2.88-4.45,1.32-6.76,1.32-3.01,0-5.6-.62-7.77-1.87Z"/>
      </g>
    </g>
    <g>
      <g>
        <path class="cls-4" d="M50.28,215.61h6.9l2.07,8.33c2.12,0,3.87-.65,5.27-1.95,1.4-1.3,2.09-3.09,2.09-5.36,0-2.45-.65-4.29-1.96-5.52-1.3-1.23-3.53-1.84-6.69-1.84-1.47,0-2.99.15-4.55.46s-2.85.71-3.86,1.2v-5.38c1.23-.52,2.69-.94,4.39-1.24,1.7-.31,3.43-.46,5.17-.46,4.75,0,8.38,1.08,10.88,3.24,2.5,2.16,3.75,5.31,3.75,9.45,0,2.51-.62,4.72-1.86,6.62-1.24,1.9-2.91,3.38-5.01,4.42-2.1,1.04-4.41,1.56-6.92,1.56h-6.3l-3.36-13.52Z"/>
        <path class="cls-4" d="M65.05,200.54c-1.07-1.06-1.61-2.37-1.61-3.93s.54-2.84,1.63-3.93c1.09-1.09,2.4-1.63,3.93-1.63s2.84.54,3.91,1.63c1.07,1.09,1.61,2.4,1.61,3.93s-.54,2.88-1.61,3.93c-1.07,1.06-2.38,1.59-3.91,1.59s-2.88-.53-3.96-1.59ZM70.27,197.97c.35-.38.53-.82.53-1.31,0-.52-.18-.96-.53-1.33-.35-.37-.77-.55-1.26-.55-.52,0-.96.18-1.31.55-.35.37-.53.81-.53,1.33,0,.49.18.93.53,1.31.35.38.79.58,1.31.58.49,0,.91-.19,1.26-.58Z"/>
        <path class="cls-4" d="M85.06,213.81c0-1.59-.34-2.75-1.01-3.47-.67-.72-1.86-1.08-3.54-1.08s-3.27.41-4.92,1.24v-5.29c.74-.37,1.73-.69,2.97-.97,1.24-.28,2.45-.41,3.61-.41,3.22,0,5.67.86,7.36,2.58,1.69,1.72,2.53,4.2,2.53,7.45v15.27h-6.99v-15.32Z"/>
        <path class="cls-4" d="M101.25,228.58c-1.44-.83-2.54-1.96-3.29-3.4-.75-1.44-1.13-3.05-1.13-4.83v-15.82h6.99v15.41c0,2.98,1.58,4.46,4.74,4.46,1.29,0,2.4-.27,3.33-.8.94-.54,1.76-1.37,2.46-2.51v-16.56h6.95v24.61h-6.62v-2.76c-1.07,1.13-2.34,1.99-3.8,2.58s-2.95.87-4.48.87c-1.99,0-3.71-.41-5.15-1.24Z"/>
        <path class="cls-4" d="M125.22,227.84v-5.43c1.9,1.32,4.51,1.98,7.82,1.98,2.58,0,4.57-.62,5.98-1.86,1.41-1.24,2.12-3.13,2.12-5.68s-.71-4.45-2.12-5.7c-1.41-1.26-3.4-1.89-5.98-1.89-3.19,0-5.73.67-7.64,2.02v-5.43c1.07-.67,2.41-1.18,4-1.52,1.59-.34,3.31-.51,5.15-.51,4.29,0,7.66,1.14,10.1,3.43,2.44,2.29,3.66,5.48,3.66,9.59s-1.22,7.3-3.66,9.57c-2.44,2.27-5.8,3.4-10.1,3.4s-7.19-.66-9.34-1.98Z"/>
        <path class="cls-4" d="M156.59,228.58c-1.44-.83-2.54-1.96-3.29-3.4-.75-1.44-1.13-3.05-1.13-4.83v-15.82h6.99v15.41c0,2.98,1.58,4.46,4.74,4.46,1.29,0,2.4-.27,3.33-.8.94-.54,1.76-1.37,2.46-2.51v-16.56h6.95v24.61h-6.62v-2.76c-1.07,1.13-2.34,1.99-3.8,2.58s-2.95.87-4.48.87c-1.99,0-3.71-.41-5.15-1.24Z"/>
        <path class="cls-4" d="M181.29,215.61h6.9l2.07,8.33c2.12,0,3.87-.65,5.27-1.95,1.4-1.3,2.09-3.09,2.09-5.36,0-2.45-.65-4.29-1.96-5.52-1.3-1.23-3.53-1.84-6.69-1.84-1.47,0-2.99.15-4.55.46s-2.85.71-3.86,1.2v-5.38c1.23-.52,2.69-.94,4.39-1.24,1.7-.31,3.43-.46,5.17-.46,4.75,0,8.38,1.08,10.88,3.24,2.5,2.16,3.75,5.31,3.75,9.45,0,2.51-.62,4.72-1.86,6.62-1.24,1.9-2.91,3.38-5.01,4.42-2.1,1.04-4.41,1.56-6.92,1.56h-6.3l-3.36-13.52Z"/>
        <path class="cls-4" d="M196.06,200.54c-1.07-1.06-1.61-2.37-1.61-3.93s.54-2.84,1.63-3.93c1.09-1.09,2.4-1.63,3.93-1.63s2.84.54,3.91,1.63c1.07,1.09,1.61,2.4,1.61,3.93s-.54,2.88-1.61,3.93c-1.07,1.06-2.38,1.59-3.91,1.59s-2.88-.53-3.96-1.59ZM201.28,197.97c.35-.38.53-.82.53-1.31,0-.52-.18-.96-.53-1.33-.35-.37-.77-.55-1.26-.55-.52,0-.96.18-1.31.55-.35.37-.53.81-.53,1.33,0,.49.18.93.53,1.31.35.38.79.58,1.31.58.49,0,.91-.19,1.26-.58Z"/>
        <path class="cls-4" d="M216.07,213.81c0-1.59-.34-2.75-1.01-3.47-.67-.72-1.86-1.08-3.54-1.08s-3.27.41-4.92,1.24v-5.29c.74-.37,1.73-.69,2.97-.97,1.24-.28,2.45-.41,3.61-.41,3.22,0,5.67.86,7.36,2.58,1.69,1.72,2.53,4.2,2.53,7.45v15.27h-6.99v-15.32Z"/>
        <path class="cls-4" d="M229.13,214.46l-2.3-3.91c3.59-4.48,8.2-6.72,13.85-6.72,3.96,0,7,.87,9.13,2.62,2.13,1.75,3.2,4.19,3.2,7.31v15.36h-6.99v-14.81c0-3.37-1.78-5.06-5.34-5.06-1.32,0-2.49.18-3.52.55-1.03.37-1.99.97-2.88,1.79l1.79,2.94v14.58h-6.95v-14.67Z"/>
        <path class="cls-4" d="M239.07,197.03v-3.36h6.26v2.25c0,.43.08.73.25.9.17.17.48.25.94.25h10.49v4.42h-13.52c-2.94,0-4.42-1.49-4.42-4.46Z"/>
        <path class="cls-4" d="M260.18,226.65c-2.21-2.12-3.31-5.21-3.31-9.29s1.27-7.58,3.82-9.96c2.54-2.38,6.06-3.57,10.53-3.57s8.04,1.07,10.23,3.22c2.19,2.15,3.29,4.97,3.29,8.46v13.62h-6.95v-13.66c0-2.02-.51-3.56-1.54-4.62-1.03-1.06-2.71-1.59-5.04-1.59-2.21,0-3.96.69-5.24,2.07s-1.93,3.39-1.93,6.03c0,2.42.53,4.2,1.59,5.34s2.68,1.7,4.85,1.7c1.17,0,2.21-.17,3.13-.51v5.34c-1.2.4-2.67.6-4.42.6-3.8,0-6.81-1.06-9.02-3.17Z"/>
      </g>
      <g>
        <path class="cls-3" d="M50.28,215.61h6.9l2.07,8.33c2.12,0,3.87-.65,5.27-1.95,1.4-1.3,2.09-3.09,2.09-5.36,0-2.45-.65-4.29-1.96-5.52-1.3-1.23-3.53-1.84-6.69-1.84-1.47,0-2.99.15-4.55.46s-2.85.71-3.86,1.2v-5.38c1.23-.52,2.69-.94,4.39-1.24,1.7-.31,3.43-.46,5.17-.46,4.75,0,8.38,1.08,10.88,3.24,2.5,2.16,3.75,5.31,3.75,9.45,0,2.51-.62,4.72-1.86,6.62-1.24,1.9-2.91,3.38-5.01,4.42-2.1,1.04-4.41,1.56-6.92,1.56h-6.3l-3.36-13.52Z"/>
        <path class="cls-3" d="M65.05,200.54c-1.07-1.06-1.61-2.37-1.61-3.93s.54-2.84,1.63-3.93c1.09-1.09,2.4-1.63,3.93-1.63s2.84.54,3.91,1.63c1.07,1.09,1.61,2.4,1.61,3.93s-.54,2.88-1.61,3.93c-1.07,1.06-2.38,1.59-3.91,1.59s-2.88-.53-3.96-1.59ZM70.27,197.97c.35-.38.53-.82.53-1.31,0-.52-.18-.96-.53-1.33-.35-.37-.77-.55-1.26-.55-.52,0-.96.18-1.31.55-.35.37-.53.81-.53,1.33,0,.49.18.93.53,1.31.35.38.79.58,1.31.58.49,0,.91-.19,1.26-.58Z"/>
        <path class="cls-3" d="M85.06,213.81c0-1.59-.34-2.75-1.01-3.47-.67-.72-1.86-1.08-3.54-1.08s-3.27.41-4.92,1.24v-5.29c.74-.37,1.73-.69,2.97-.97,1.24-.28,2.45-.41,3.61-.41,3.22,0,5.67.86,7.36,2.58,1.69,1.72,2.53,4.2,2.53,7.45v15.27h-6.99v-15.32Z"/>
        <path class="cls-3" d="M101.25,228.58c-1.44-.83-2.54-1.96-3.29-3.4-.75-1.44-1.13-3.05-1.13-4.83v-15.82h6.99v15.41c0,2.98,1.58,4.46,4.74,4.46,1.29,0,2.4-.27,3.33-.8.94-.54,1.76-1.37,2.46-2.51v-16.56h6.95v24.61h-6.62v-2.76c-1.07,1.13-2.34,1.99-3.8,2.58s-2.95.87-4.48.87c-1.99,0-3.71-.41-5.15-1.24Z"/>
        <path class="cls-3" d="M125.22,227.84v-5.43c1.9,1.32,4.51,1.98,7.82,1.98,2.58,0,4.57-.62,5.98-1.86,1.41-1.24,2.12-3.13,2.12-5.68s-.71-4.45-2.12-5.7c-1.41-1.26-3.4-1.89-5.98-1.89-3.19,0-5.73.67-7.64,2.02v-5.43c1.07-.67,2.41-1.18,4-1.52,1.59-.34,3.31-.51,5.15-.51,4.29,0,7.66,1.14,10.1,3.43,2.44,2.29,3.66,5.48,3.66,9.59s-1.22,7.3-3.66,9.57c-2.44,2.27-5.8,3.4-10.1,3.4s-7.19-.66-9.34-1.98Z"/>
        <path class="cls-3" d="M156.59,228.58c-1.44-.83-2.54-1.96-3.29-3.4-.75-1.44-1.13-3.05-1.13-4.83v-15.82h6.99v15.41c0,2.98,1.58,4.46,4.74,4.46,1.29,0,2.4-.27,3.33-.8.94-.54,1.76-1.37,2.46-2.51v-16.56h6.95v24.61h-6.62v-2.76c-1.07,1.13-2.34,1.99-3.8,2.58s-2.95.87-4.48.87c-1.99,0-3.71-.41-5.15-1.24Z"/>
        <path class="cls-3" d="M181.29,215.61h6.9l2.07,8.33c2.12,0,3.87-.65,5.27-1.95,1.4-1.3,2.09-3.09,2.09-5.36,0-2.45-.65-4.29-1.96-5.52-1.3-1.23-3.53-1.84-6.69-1.84-1.47,0-2.99.15-4.55.46s-2.85.71-3.86,1.2v-5.38c1.23-.52,2.69-.94,4.39-1.24,1.7-.31,3.43-.46,5.17-.46,4.75,0,8.38,1.08,10.88,3.24,2.5,2.16,3.75,5.31,3.75,9.45,0,2.51-.62,4.72-1.86,6.62-1.24,1.9-2.91,3.38-5.01,4.42-2.1,1.04-4.41,1.56-6.92,1.56h-6.3l-3.36-13.52Z"/>
        <path class="cls-3" d="M196.06,200.54c-1.07-1.06-1.61-2.37-1.61-3.93s.54-2.84,1.63-3.93c1.09-1.09,2.4-1.63,3.93-1.63s2.84.54,3.91,1.63c1.07,1.09,1.61,2.4,1.61,3.93s-.54,2.88-1.61,3.93c-1.07,1.06-2.38,1.59-3.91,1.59s-2.88-.53-3.96-1.59ZM201.28,197.97c.35-.38.53-.82.53-1.31,0-.52-.18-.96-.53-1.33-.35-.37-.77-.55-1.26-.55-.52,0-.96.18-1.31.55-.35.37-.53.81-.53,1.33,0,.49.18.93.53,1.31.35.38.79.58,1.31.58.49,0,.91-.19,1.26-.58Z"/>
        <path class="cls-3" d="M216.07,213.81c0-1.59-.34-2.75-1.01-3.47-.67-.72-1.86-1.08-3.54-1.08s-3.27.41-4.92,1.24v-5.29c.74-.37,1.73-.69,2.97-.97,1.24-.28,2.45-.41,3.61-.41,3.22,0,5.67.86,7.36,2.58,1.69,1.72,2.53,4.2,2.53,7.45v15.27h-6.99v-15.32Z"/>
        <path class="cls-3" d="M229.13,214.46l-2.3-3.91c3.59-4.48,8.2-6.72,13.85-6.72,3.96,0,7,.87,9.13,2.62,2.13,1.75,3.2,4.19,3.2,7.31v15.36h-6.99v-14.81c0-3.37-1.78-5.06-5.34-5.06-1.32,0-2.49.18-3.52.55-1.03.37-1.99.97-2.88,1.79l1.79,2.94v14.58h-6.95v-14.67Z"/>
        <path class="cls-3" d="M239.07,197.03v-3.36h6.26v2.25c0,.43.08.73.25.9.17.17.48.25.94.25h10.49v4.42h-13.52c-2.94,0-4.42-1.49-4.42-4.46Z"/>
        <path class="cls-3" d="M260.18,226.65c-2.21-2.12-3.31-5.21-3.31-9.29s1.27-7.58,3.82-9.96c2.54-2.38,6.06-3.57,10.53-3.57s8.04,1.07,10.23,3.22c2.19,2.15,3.29,4.97,3.29,8.46v13.62h-6.95v-13.66c0-2.02-.51-3.56-1.54-4.62-1.03-1.06-2.71-1.59-5.04-1.59-2.21,0-3.96.69-5.24,2.07s-1.93,3.39-1.93,6.03c0,2.42.53,4.2,1.59,5.34s2.68,1.7,4.85,1.7c1.17,0,2.21-.17,3.13-.51v5.34c-1.2.4-2.67.6-4.42.6-3.8,0-6.81-1.06-9.02-3.17Z"/>
      </g>
      <g>
        <path class="cls-19" d="M50.28,215.61h6.9l2.07,8.33c2.12,0,3.87-.65,5.27-1.95,1.4-1.3,2.09-3.09,2.09-5.36,0-2.45-.65-4.29-1.96-5.52-1.3-1.23-3.53-1.84-6.69-1.84-1.47,0-2.99.15-4.55.46s-2.85.71-3.86,1.2v-5.38c1.23-.52,2.69-.94,4.39-1.24,1.7-.31,3.43-.46,5.17-.46,4.75,0,8.38,1.08,10.88,3.24,2.5,2.16,3.75,5.31,3.75,9.45,0,2.51-.62,4.72-1.86,6.62-1.24,1.9-2.91,3.38-5.01,4.42-2.1,1.04-4.41,1.56-6.92,1.56h-6.3l-3.36-13.52Z"/>
        <path class="cls-19" d="M65.05,200.54c-1.07-1.06-1.61-2.37-1.61-3.93s.54-2.84,1.63-3.93c1.09-1.09,2.4-1.63,3.93-1.63s2.84.54,3.91,1.63c1.07,1.09,1.61,2.4,1.61,3.93s-.54,2.88-1.61,3.93c-1.07,1.06-2.38,1.59-3.91,1.59s-2.88-.53-3.96-1.59ZM70.27,197.97c.35-.38.53-.82.53-1.31,0-.52-.18-.96-.53-1.33-.35-.37-.77-.55-1.26-.55-.52,0-.96.18-1.31.55-.35.37-.53.81-.53,1.33,0,.49.18.93.53,1.31.35.38.79.58,1.31.58.49,0,.91-.19,1.26-.58Z"/>
        <path class="cls-19" d="M85.06,213.81c0-1.59-.34-2.75-1.01-3.47-.67-.72-1.86-1.08-3.54-1.08s-3.27.41-4.92,1.24v-5.29c.74-.37,1.73-.69,2.97-.97,1.24-.28,2.45-.41,3.61-.41,3.22,0,5.67.86,7.36,2.58,1.69,1.72,2.53,4.2,2.53,7.45v15.27h-6.99v-15.32Z"/>
        <path class="cls-19" d="M101.25,228.58c-1.44-.83-2.54-1.96-3.29-3.4-.75-1.44-1.13-3.05-1.13-4.83v-15.82h6.99v15.41c0,2.98,1.58,4.46,4.74,4.46,1.29,0,2.4-.27,3.33-.8.94-.54,1.76-1.37,2.46-2.51v-16.56h6.95v24.61h-6.62v-2.76c-1.07,1.13-2.34,1.99-3.8,2.58s-2.95.87-4.48.87c-1.99,0-3.71-.41-5.15-1.24Z"/>
        <path class="cls-19" d="M125.22,227.84v-5.43c1.9,1.32,4.51,1.98,7.82,1.98,2.58,0,4.57-.62,5.98-1.86,1.41-1.24,2.12-3.13,2.12-5.68s-.71-4.45-2.12-5.7c-1.41-1.26-3.4-1.89-5.98-1.89-3.19,0-5.73.67-7.64,2.02v-5.43c1.07-.67,2.41-1.18,4-1.52,1.59-.34,3.31-.51,5.15-.51,4.29,0,7.66,1.14,10.1,3.43,2.44,2.29,3.66,5.48,3.66,9.59s-1.22,7.3-3.66,9.57c-2.44,2.27-5.8,3.4-10.1,3.4s-7.19-.66-9.34-1.98Z"/>
        <path class="cls-19" d="M156.59,228.58c-1.44-.83-2.54-1.96-3.29-3.4-.75-1.44-1.13-3.05-1.13-4.83v-15.82h6.99v15.41c0,2.98,1.58,4.46,4.74,4.46,1.29,0,2.4-.27,3.33-.8.94-.54,1.76-1.37,2.46-2.51v-16.56h6.95v24.61h-6.62v-2.76c-1.07,1.13-2.34,1.99-3.8,2.58s-2.95.87-4.48.87c-1.99,0-3.71-.41-5.15-1.24Z"/>
        <path class="cls-19" d="M181.29,215.61h6.9l2.07,8.33c2.12,0,3.87-.65,5.27-1.95,1.4-1.3,2.09-3.09,2.09-5.36,0-2.45-.65-4.29-1.96-5.52-1.3-1.23-3.53-1.84-6.69-1.84-1.47,0-2.99.15-4.55.46s-2.85.71-3.86,1.2v-5.38c1.23-.52,2.69-.94,4.39-1.24,1.7-.31,3.43-.46,5.17-.46,4.75,0,8.38,1.08,10.88,3.24,2.5,2.16,3.75,5.31,3.75,9.45,0,2.51-.62,4.72-1.86,6.62-1.24,1.9-2.91,3.38-5.01,4.42-2.1,1.04-4.41,1.56-6.92,1.56h-6.3l-3.36-13.52Z"/>
        <path class="cls-19" d="M196.06,200.54c-1.07-1.06-1.61-2.37-1.61-3.93s.54-2.84,1.63-3.93c1.09-1.09,2.4-1.63,3.93-1.63s2.84.54,3.91,1.63c1.07,1.09,1.61,2.4,1.61,3.93s-.54,2.88-1.61,3.93c-1.07,1.06-2.38,1.59-3.91,1.59s-2.88-.53-3.96-1.59ZM201.28,197.97c.35-.38.53-.82.53-1.31,0-.52-.18-.96-.53-1.33-.35-.37-.77-.55-1.26-.55-.52,0-.96.18-1.31.55-.35.37-.53.81-.53,1.33,0,.49.18.93.53,1.31.35.38.79.58,1.31.58.49,0,.91-.19,1.26-.58Z"/>
        <path class="cls-19" d="M216.07,213.81c0-1.59-.34-2.75-1.01-3.47-.67-.72-1.86-1.08-3.54-1.08s-3.27.41-4.92,1.24v-5.29c.74-.37,1.73-.69,2.97-.97,1.24-.28,2.45-.41,3.61-.41,3.22,0,5.67.86,7.36,2.58,1.69,1.72,2.53,4.2,2.53,7.45v15.27h-6.99v-15.32Z"/>
        <path class="cls-19" d="M229.13,214.46l-2.3-3.91c3.59-4.48,8.2-6.72,13.85-6.72,3.96,0,7,.87,9.13,2.62,2.13,1.75,3.2,4.19,3.2,7.31v15.36h-6.99v-14.81c0-3.37-1.78-5.06-5.34-5.06-1.32,0-2.49.18-3.52.55-1.03.37-1.99.97-2.88,1.79l1.79,2.94v14.58h-6.95v-14.67Z"/>
        <path class="cls-19" d="M239.07,197.03v-3.36h6.26v2.25c0,.43.08.73.25.9.17.17.48.25.94.25h10.49v4.42h-13.52c-2.94,0-4.42-1.49-4.42-4.46Z"/>
        <path class="cls-19" d="M260.18,226.65c-2.21-2.12-3.31-5.21-3.31-9.29s1.27-7.58,3.82-9.96c2.54-2.38,6.06-3.57,10.53-3.57s8.04,1.07,10.23,3.22c2.19,2.15,3.29,4.97,3.29,8.46v13.62h-6.95v-13.66c0-2.02-.51-3.56-1.54-4.62-1.03-1.06-2.71-1.59-5.04-1.59-2.21,0-3.96.69-5.24,2.07s-1.93,3.39-1.93,6.03c0,2.42.53,4.2,1.59,5.34s2.68,1.7,4.85,1.7c1.17,0,2.21-.17,3.13-.51v5.34c-1.2.4-2.67.6-4.42.6-3.8,0-6.81-1.06-9.02-3.17Z"/>
      </g>
    </g>
    <g>
      <g>
        <path class="cls-4" d="M385.02,411.58c0-2.4.81-4.24,2.42-5.51,1.61-1.28,3.78-1.91,6.5-1.91s4.89.64,6.49,1.91c1.6,1.28,2.4,3.11,2.4,5.51v10.41h-4.93v-10.44c0-1.19-.34-2.08-1.02-2.67-.68-.59-1.66-.89-2.93-.89s-2.29.3-2.97.89c-.68.59-1.02,1.49-1.02,2.67v2.46c.26-.39.64-.7,1.15-.92.51-.23,1.08-.34,1.7-.34h2.53v3.76h-2.79c-.76,0-1.38.24-1.86.71-.49.48-.73,1.09-.73,1.85v2.92h-4.93v-10.41Z"/>
        <path class="cls-4" d="M397.9,396.72h4.93v5.77h-4.93v-5.77Z"/>
        <path class="cls-4" d="M411.42,411.19c0-1.12-.24-1.94-.71-2.45s-1.31-.76-2.5-.76-2.3.29-3.47.88v-3.73c.52-.26,1.22-.49,2.09-.68.88-.2,1.72-.29,2.55-.29,2.27,0,4,.61,5.19,1.82,1.19,1.21,1.78,2.96,1.78,5.25v10.77h-4.93v-10.8Z"/>
        <path class="cls-4" d="M419.72,411.58c0-2.4.81-4.24,2.42-5.51,1.61-1.28,3.78-1.91,6.5-1.91s4.89.64,6.49,1.91c1.6,1.28,2.4,3.11,2.4,5.51v10.41h-4.93v-10.44c0-1.19-.34-2.08-1.02-2.67-.68-.59-1.66-.89-2.93-.89s-2.29.3-2.97.89c-.68.59-1.02,1.49-1.02,2.67v2.46c.26-.39.64-.7,1.15-.92.51-.23,1.08-.34,1.7-.34h2.53v3.76h-2.79c-.76,0-1.38.24-1.86.71-.49.48-.73,1.09-.73,1.85v2.92h-4.93v-10.41Z"/>
        <path class="cls-4" d="M443.75,422.03c-1.41-.29-2.57-.7-3.5-1.22v-9.11h8.2v3.6h-3.37v2.79c.67.37,1.65.55,2.95.55,3.44,0,5.16-1.79,5.16-5.38,0-1.84-.5-3.18-1.49-4.02-.99-.84-2.67-1.26-5.03-1.26-1.08,0-2.19.11-3.32.34-1.14.23-2.09.55-2.87.96v-3.83c.89-.41,1.96-.73,3.21-.96,1.25-.23,2.56-.34,3.92-.34,3.48,0,6.12.79,7.93,2.38,1.8,1.59,2.71,3.83,2.71,6.73s-.89,5.1-2.66,6.75c-1.77,1.64-4.29,2.46-7.56,2.46-1.45,0-2.88-.15-4.28-.44Z"/>
        <path class="cls-4" d="M468.33,421.86c-1.02-.41-1.9-1.02-2.66-1.82v1.95h-4.7v-17.35h4.93v11.67c.48.8,1.05,1.39,1.72,1.77.67.38,1.46.57,2.37.57,2.23,0,3.34-1.05,3.34-3.15v-10.86h4.9v11.16c0,1.25-.26,2.39-.78,3.41-.52,1.02-1.29,1.82-2.3,2.4-1.02.58-2.24.88-3.66.88-1.08,0-2.13-.21-3.15-.62Z"/>
        <path class="cls-4" d="M488.99,421.86c-1.02-.41-1.9-1.02-2.66-1.82v1.95h-4.7v-17.35h4.93v11.67c.48.8,1.05,1.39,1.72,1.77.67.38,1.46.57,2.37.57,2.23,0,3.34-1.05,3.34-3.15v-10.86h4.9v11.16c0,1.25-.26,2.39-.78,3.41-.52,1.02-1.29,1.82-2.3,2.4-1.02.58-2.24.88-3.66.88-1.08,0-2.13-.21-3.15-.62Z"/>
        <path class="cls-4" d="M483.87,399.38h15.01v3.11h-15.01v-3.11Z"/>
        <path class="cls-4" d="M505.79,421.66c-1.28-.54-2.25-1.3-2.92-2.27-.67-.97-1.01-2.08-1.01-3.31v-.81c0-.78.15-1.48.45-2.11.3-.63.72-1.33,1.26-2.11.35-.48.59-.86.75-1.15.15-.29.23-.56.23-.79,0-.61-.37-.91-1.1-.91h-1.82v-3.57h4.7c.97,0,1.75.28,2.33.84.58.56.88,1.3.88,2.21,0,.65-.12,1.25-.36,1.8-.24.55-.59,1.18-1.07,1.9-.45.71-.79,1.32-1.02,1.82s-.34,1.04-.34,1.62v.68c0,1.02.3,1.79.91,2.33.6.54,1.47.81,2.59.81,1.19,0,2.09-.33,2.71-.99s.92-1.62.92-2.87c0-2.64-1.03-3.96-3.08-3.96v-2.37l3.15-4.31h5.22l-3.53,4.83c1.15.58,1.96,1.35,2.45,2.29s.73,2.13.73,3.58-.34,2.81-1.02,3.96c-.68,1.15-1.67,2.04-2.97,2.69-1.3.65-2.82.97-4.57.97s-3.2-.27-4.48-.81Z"/>
        <path class="cls-4" d="M525.44,421.66c-1.28-.54-2.25-1.3-2.92-2.27-.67-.97-1.01-2.08-1.01-3.31v-.81c0-.78.15-1.48.45-2.11.3-.63.72-1.33,1.26-2.11.35-.48.59-.86.75-1.15.15-.29.23-.56.23-.79,0-.61-.37-.91-1.1-.91h-1.82v-3.57h4.7c.97,0,1.75.28,2.33.84.58.56.88,1.3.88,2.21,0,.65-.12,1.25-.36,1.8-.24.55-.59,1.18-1.07,1.9-.45.71-.79,1.32-1.02,1.82s-.34,1.04-.34,1.62v.68c0,1.02.3,1.79.91,2.33.6.54,1.47.81,2.59.81,1.19,0,2.09-.33,2.71-.99s.92-1.62.92-2.87c0-2.64-1.03-3.96-3.08-3.96v-2.37l3.15-4.31h5.22l-3.53,4.83c1.15.58,1.96,1.35,2.45,2.29s.73,2.13.73,3.58-.34,2.81-1.02,3.96c-.68,1.15-1.67,2.04-2.97,2.69-1.3.65-2.82.97-4.57.97s-3.2-.27-4.48-.81Z"/>
        <path class="cls-4" d="M528.39,399.35v-2.37h4.41v1.59c0,.3.06.51.18.63.12.12.34.18.67.18h7.39v3.11h-9.53c-2.08,0-3.11-1.05-3.11-3.15Z"/>
        <path class="cls-4" d="M544.7,421.6c-1.02-.58-1.79-1.38-2.32-2.4-.53-1.02-.79-2.15-.79-3.41v-11.16h4.93v10.86c0,2.1,1.11,3.15,3.34,3.15.91,0,1.69-.19,2.35-.57.66-.38,1.24-.97,1.73-1.77v-11.67h4.9v17.35h-4.67v-1.95c-.76.8-1.65,1.41-2.68,1.82s-2.08.62-3.16.62c-1.41,0-2.62-.29-3.63-.88Z"/>
      </g>
      <g>
        <path class="cls-4" d="M387.39,464.48c-1.7-1.44-2.55-3.47-2.55-6.09s.93-4.68,2.79-6.18c1.86-1.5,4.41-2.25,7.66-2.25,3.03,0,5.62.5,7.77,1.5v-.98c0-1.69-.55-2.93-1.66-3.75-1.11-.81-2.9-1.22-5.36-1.22-1.53,0-3.03.16-4.5.47-1.47.31-2.78.75-3.93,1.31v-5.34c1.03-.5,2.45-.92,4.26-1.26,1.81-.34,3.64-.52,5.48-.52,2.09,0,4.04.31,5.85.94l1.83-2.11h7.73l-4.64,5.39c1.34,1.53,2.01,3.54,2.01,6.04v15.5h-7.07v-9.32c-1.81-.94-3.93-1.41-6.37-1.41-1.59,0-2.76.27-3.49.8-.73.53-1.1,1.36-1.1,2.48,0,1.03.33,1.8,1.01,2.32.67.52,1.74.77,3.21.77,1.03,0,1.9-.16,2.62-.47v4.92c-1.22.41-2.78.61-4.68.61-2.87,0-5.16-.72-6.86-2.15Z"/>
        <path class="cls-4" d="M398.58,477.69c-1.26-.91-1.9-2.11-1.9-3.61v-.84c0-.41-.07-.69-.21-.84s-.4-.23-.77-.23h-1.55v-4.03h5.29c.94,0,1.58.21,1.94.63.36.42.54,1.08.54,1.99v2.58c0,1.12.59,1.69,1.78,1.69s1.73-.56,1.73-1.69v-5.2h5.25v5.76c0,1.5-.59,2.73-1.76,3.7s-2.83,1.45-4.99,1.45c-2.31,0-4.1-.45-5.36-1.36Z"/>
        <path class="cls-4" d="M414.71,444.01h7.07l5.34,16.63c2.31,0,4.09-.7,5.34-2.08,1.25-1.39,1.87-3.36,1.87-5.92,0-2.31-.44-4.04-1.31-5.2-.87-1.16-2.22-1.73-4.03-1.73-1,0-2,.16-3,.47v-5.34c1.31-.44,2.79-.66,4.45-.66,3.72,0,6.5,1.08,8.36,3.25,1.86,2.17,2.79,5.24,2.79,9.2,0,2.78-.61,5.17-1.83,7.17-1.22,2-2.86,3.52-4.94,4.57-2.08,1.05-4.35,1.57-6.81,1.57h-6.28l-7.03-21.92Z"/>
        <path class="cls-4" d="M465.77,466.14c-1.84-.33-3.42-.82-4.73-1.48v-5.53c3.03,1.37,6.2,2.06,9.51,2.06,2.44,0,4.25-.41,5.46-1.22,1.2-.81,1.8-1.97,1.8-3.47,0-1.59-.59-2.72-1.78-3.4-1.19-.67-3.01-1.01-5.48-1.01h-4.31v-5.43h4.12c2.03,0,3.61-.37,4.75-1.1,1.14-.73,1.71-1.82,1.71-3.26s-.52-2.53-1.55-3.28c-1.03-.75-2.47-1.12-4.31-1.12s-3.36.21-4.85.63c-1.48.42-2.93,1.08-4.33,1.99v-5.62c1.41-.78,2.98-1.38,4.73-1.8,1.75-.42,3.56-.63,5.43-.63,4.09,0,7.13.84,9.13,2.51,2,1.67,3,4.02,3,7.05,0,1.5-.38,2.9-1.15,4.19-.77,1.3-1.9,2.33-3.4,3.11,3.65,1.34,5.48,3.84,5.48,7.49,0,6.53-4.48,9.79-13.44,9.79-2.03,0-3.97-.16-5.81-.49Z"/>
        <path class="cls-4" d="M494.92,464.59c-2.2-1.36-3.9-3.33-5.08-5.9-1.19-2.58-1.78-5.61-1.78-9.11s.59-6.57,1.76-9.13c1.17-2.56,2.86-4.53,5.06-5.9,2.2-1.37,4.8-2.06,7.8-2.06s5.59.69,7.77,2.06c2.19,1.37,3.86,3.34,5.03,5.9,1.17,2.56,1.76,5.6,1.76,9.13s-.59,6.53-1.78,9.11c-1.19,2.58-2.87,4.54-5.06,5.9-2.19,1.36-4.76,2.04-7.73,2.04s-5.55-.68-7.75-2.04ZM508.1,457.31c1.28-1.84,1.92-4.39,1.92-7.63s-.63-5.85-1.9-7.73c-1.26-1.87-3.08-2.81-5.46-2.81s-4.19.94-5.46,2.81c-1.26,1.87-1.9,4.45-1.9,7.73s.64,5.79,1.92,7.63c1.28,1.84,3.09,2.76,5.43,2.76s4.15-.92,5.43-2.76Z"/>
        <path class="cls-4" d="M524.68,448.53c-1.31-.76-2.35-1.8-3.11-3.11-.77-1.31-1.15-2.75-1.15-4.31s.38-3,1.15-4.33c.76-1.33,1.8-2.37,3.11-3.14,1.31-.76,2.75-1.15,4.31-1.15s3,.38,4.33,1.15c1.33.77,2.37,1.81,3.14,3.14.76,1.33,1.15,2.77,1.15,4.33s-.38,3-1.15,4.31c-.77,1.31-1.81,2.35-3.14,3.11-1.33.77-2.77,1.15-4.33,1.15s-3-.38-4.31-1.15ZM531.78,443.99c.73-.73,1.1-1.65,1.1-2.74s-.37-2.06-1.1-2.81c-.73-.75-1.66-1.12-2.79-1.12s-2.01.37-2.74,1.12c-.73.75-1.1,1.69-1.1,2.81,0,1.06.37,1.97,1.12,2.72s1.65,1.12,2.72,1.12c1.12,0,2.05-.37,2.79-1.1ZM545.29,433.19h7.07l-18.13,32.74h-7.07l18.12-32.74ZM546.09,465.48c-1.31-.76-2.35-1.8-3.11-3.11s-1.15-2.75-1.15-4.31.38-3,1.15-4.33,1.8-2.37,3.11-3.14c1.31-.76,2.75-1.15,4.31-1.15s3,.38,4.33,1.15c1.33.77,2.37,1.81,3.14,3.14.76,1.33,1.15,2.77,1.15,4.33s-.38,3-1.15,4.31c-.77,1.31-1.81,2.35-3.14,3.11-1.33.76-2.77,1.15-4.33,1.15s-3-.38-4.31-1.15ZM553.14,460.94c.73-.73,1.1-1.65,1.1-2.74s-.37-2.06-1.1-2.81c-.73-.75-1.66-1.12-2.79-1.12s-2.01.38-2.74,1.12c-.73.75-1.1,1.69-1.1,2.81,0,1.06.38,1.97,1.12,2.72.75.75,1.65,1.12,2.72,1.12,1.12,0,2.05-.37,2.79-1.1Z"/>
      </g>
    </g>
    <g>
      <path class="cls-13" d="M21.13,268.43h326.19c9.83,0,17.81,7.98,17.81,17.81v175.47c0,9.83-7.98,17.81-17.81,17.81H21.13v-211.1h0Z"/>
      <g>
        <g>
          <path class="cls-4" d="M82.28,317.59c-.94-.38-1.76-.94-2.46-1.68v1.8h-4.35v-16.05h4.56v10.8c.44.74.97,1.29,1.59,1.63.62.35,1.35.53,2.19.53,2.06,0,3.09-.97,3.09-2.91v-10.05h4.53v10.32c0,1.16-.24,2.21-.72,3.15s-1.19,1.68-2.13,2.22c-.94.54-2.07.81-3.39.81-1,0-1.97-.19-2.91-.57Z"/>
          <path class="cls-4" d="M77.57,296.8h9.78v-3.18h4.11v6.06h-13.89v-2.88Z"/>
          <path class="cls-4" d="M95.47,316.76c-.59-.63-.88-1.51-.88-2.62v-12.48h4.56v11.25c0,.48.1.82.3,1.02.2.2.53.3.99.3h1.05v3.48h-3.48c-1.1,0-1.95-.32-2.54-.94Z"/>
          <path class="cls-4" d="M103.34,316.87v-3.54c1.24.86,2.94,1.29,5.1,1.29,1.68,0,2.98-.41,3.9-1.22.92-.81,1.38-2.04,1.38-3.7s-.46-2.9-1.38-3.72-2.22-1.23-3.9-1.23c-2.08,0-3.74.44-4.98,1.32v-3.54c.7-.44,1.57-.77,2.61-.99,1.04-.22,2.16-.33,3.36-.33,2.8,0,5,.75,6.58,2.24,1.59,1.49,2.39,3.57,2.39,6.25s-.79,4.76-2.39,6.24c-1.59,1.48-3.79,2.22-6.58,2.22s-4.69-.43-6.09-1.29Z"/>
          <path class="cls-4" d="M121.96,316.78c-1.09-.92-1.64-2.22-1.64-3.9s.59-3,1.79-3.96c1.19-.96,2.82-1.44,4.9-1.44,1.94,0,3.6.32,4.98.96v-.63c0-1.08-.35-1.88-1.06-2.4s-1.86-.78-3.44-.78c-.98,0-1.94.1-2.88.3-.94.2-1.78.48-2.52.84v-3.42c.66-.32,1.57-.59,2.73-.81,1.16-.22,2.33-.33,3.51-.33,2.68,0,4.71.59,6.1,1.79,1.39,1.19,2.08,2.79,2.08,4.78v9.93h-4.53v-5.97c-1.16-.6-2.52-.9-4.08-.9-1.02,0-1.77.17-2.23.51-.47.34-.71.87-.71,1.59,0,.66.21,1.16.65,1.49s1.11.5,2.06.5c.66,0,1.22-.1,1.68-.3v3.15c-.78.26-1.78.39-3,.39-1.84,0-3.31-.46-4.4-1.38Z"/>
          <path class="cls-4" d="M144.47,307.72c0-1.04-.22-1.79-.66-2.26-.44-.47-1.21-.71-2.31-.71s-2.13.27-3.21.81v-3.45c.48-.24,1.12-.45,1.94-.63.81-.18,1.59-.27,2.35-.27,2.1,0,3.7.56,4.8,1.68,1.1,1.12,1.65,2.74,1.65,4.86v9.96h-4.56v-9.99Z"/>
          <path class="cls-4" d="M151.55,316.87v-3.54c1.24.86,2.94,1.29,5.1,1.29,1.68,0,2.98-.41,3.9-1.22.92-.81,1.38-2.04,1.38-3.7s-.46-2.9-1.38-3.72-2.22-1.23-3.9-1.23c-2.08,0-3.74.44-4.98,1.32v-3.54c.7-.44,1.57-.77,2.61-.99,1.04-.22,2.16-.33,3.36-.33,2.8,0,5,.75,6.58,2.24,1.59,1.49,2.39,3.57,2.39,6.25s-.79,4.76-2.39,6.24c-1.59,1.48-3.79,2.22-6.58,2.22s-4.69-.43-6.09-1.29Z"/>
          <path class="cls-4" d="M161.45,294.34h4.56v5.34h-4.56v-5.34Z"/>
          <path class="cls-4" d="M173.96,307.72c0-1.04-.22-1.79-.66-2.26-.44-.47-1.21-.71-2.31-.71s-2.13.27-3.21.81v-3.45c.48-.24,1.12-.45,1.94-.63.81-.18,1.59-.27,2.35-.27,2.1,0,3.7.56,4.8,1.68,1.1,1.12,1.65,2.74,1.65,4.86v9.96h-4.56v-9.99Z"/>
          <path class="cls-4" d="M181.04,303.67h4.53l3.42,10.65c1.48,0,2.62-.45,3.42-1.34.8-.89,1.2-2.15,1.2-3.79,0-1.48-.28-2.59-.84-3.33-.56-.74-1.42-1.11-2.58-1.11-.64,0-1.28.1-1.92.3v-3.42c.84-.28,1.79-.42,2.85-.42,2.38,0,4.17.7,5.35,2.08,1.19,1.39,1.79,3.36,1.79,5.89,0,1.78-.39,3.31-1.17,4.59-.78,1.28-1.83,2.26-3.16,2.93-1.33.67-2.79,1-4.37,1h-4.02l-4.5-14.04Z"/>
        </g>
        <circle class="cls-7" cx="53.33" cy="309.59" r="5.26"/>
      </g>
      <g>
        <g>
          <path class="cls-4" d="M77.29,361.73c-.59-.63-.88-1.5-.88-2.62v-10.35c0-2.36.69-4.07,2.07-5.13h-4.95v-3.51h10.71v3.21c-1.16.46-2,1.11-2.52,1.95s-.78,1.97-.78,3.39v9.21c0,.48.1.82.3,1.02.2.2.54.3,1.02.3h1.05v3.48h-3.48c-1.1,0-1.95-.32-2.54-.95Z"/>
          <path class="cls-4" d="M92.66,362.55c-.94-.38-1.76-.94-2.46-1.68v1.8h-4.35v-16.05h4.56v10.8c.44.74.97,1.29,1.59,1.63.62.35,1.35.53,2.19.53,2.06,0,3.09-.97,3.09-2.91v-10.05h4.53v10.32c0,1.16-.24,2.21-.72,3.15-.48.94-1.19,1.68-2.13,2.22-.94.54-2.07.81-3.39.81-1,0-1.97-.19-2.91-.57Z"/>
          <path class="cls-4" d="M97.28,339.3h4.56v5.34h-4.56v-5.34Z"/>
          <path class="cls-4" d="M106.52,361.07c-1.44-1.37-2.16-3.38-2.16-6.04,0-1.82.26-3.39.78-4.72.52-1.33,1.25-2.35,2.2-3.06.95-.71,2.04-1.06,3.29-1.06.74,0,1.38.14,1.94.42.55.28.99.67,1.33,1.17.38-.54.9-.94,1.58-1.2.67-.26,1.42-.39,2.26-.39,1.52,0,2.7.46,3.54,1.39.84.93,1.26,2.16,1.26,3.67v11.43h-4.53v-10.98c0-.68-.1-1.18-.31-1.5s-.57-.48-1.06-.48c-.88,0-1.43.54-1.65,1.62h-2.13c-.14-1.08-.61-1.62-1.41-1.62-.72,0-1.3.45-1.74,1.35s-.66,2.22-.66,3.96c0,1.56.33,2.71,1,3.45.67.74,1.73,1.11,3.19,1.11.76,0,1.44-.11,2.04-.33v3.48c-.78.26-1.74.39-2.88.39-2.48,0-4.44-.68-5.88-2.05Z"/>
          <path class="cls-4" d="M115.22,342.72c0-.22-.04-.38-.13-.46s-.24-.13-.46-.13h-1.41v-3.09h2.82c.74,0,1.27.17,1.6.51.33.34.5.77.5,1.29v.9h6.03v2.91h-8.94v-1.92Z"/>
          <path class="cls-4" d="M128.33,362.72c-1.3-.27-2.38-.65-3.24-1.12v-8.43h7.59v3.33h-3.12v2.58c.62.34,1.53.51,2.73.51,3.18,0,4.77-1.66,4.77-4.98,0-1.7-.46-2.94-1.38-3.72-.92-.78-2.47-1.17-4.65-1.17-1,0-2.02.11-3.07.32-1.05.21-1.94.5-2.66.89v-3.54c.82-.38,1.81-.67,2.97-.88,1.16-.21,2.37-.31,3.63-.31,3.22,0,5.67.73,7.33,2.21,1.67,1.47,2.5,3.54,2.5,6.22s-.82,4.72-2.46,6.24c-1.64,1.52-3.97,2.28-6.99,2.28-1.34,0-2.66-.13-3.96-.4Z"/>
          <path class="cls-4" d="M143.66,348.63h4.53l3.42,10.65c1.48,0,2.62-.45,3.42-1.33.8-.89,1.2-2.16,1.2-3.79,0-1.48-.28-2.59-.84-3.33-.56-.74-1.42-1.11-2.58-1.11-.64,0-1.28.1-1.92.3v-3.42c.84-.28,1.79-.42,2.85-.42,2.38,0,4.17.7,5.35,2.08,1.19,1.39,1.79,3.36,1.79,5.9,0,1.78-.39,3.31-1.17,4.59-.78,1.28-1.83,2.25-3.16,2.92-1.33.67-2.79,1.01-4.37,1.01h-4.02l-4.5-14.04Z"/>
          <path class="cls-4" d="M170.24,362.55c-.94-.38-1.76-.94-2.46-1.68v1.8h-4.35v-16.05h4.56v10.8c.44.74.97,1.29,1.59,1.63.62.35,1.35.53,2.19.53,2.06,0,3.09-.97,3.09-2.91v-10.05h4.53v10.32c0,1.16-.24,2.21-.72,3.15-.48.94-1.19,1.68-2.13,2.22-.94.54-2.07.81-3.39.81-1,0-1.97-.19-2.91-.57Z"/>
          <path class="cls-4" d="M165.53,341.76h9.78v-3.18h4.11v6.06h-13.89v-2.88Z"/>
          <path class="cls-4" d="M186.44,362.24c-1.24-.59-2.2-1.4-2.88-2.45-.68-1.04-1.02-2.22-1.02-3.54v-9.63h4.56v9.33c0,1.16.3,2.05.92,2.69.61.63,1.53.95,2.77.95s2.16-.32,2.76-.95c.6-.63.9-1.53.9-2.69v-14.7h4.56v15c0,1.32-.34,2.5-1.02,3.54-.68,1.04-1.64,1.86-2.88,2.45-1.24.59-2.68.88-4.32.88s-3.11-.29-4.35-.88Z"/>
          <path class="cls-4" d="M204.55,362.78c-1.21-.23-2.17-.58-2.87-1.04v-3.48c.88.52,1.86.92,2.96,1.2,1.09.28,2.07.42,2.96.42,1.06,0,1.83-.1,2.33-.31.49-.21.73-.58.73-1.12,0-.48-.24-.85-.71-1.11-.47-.26-1.35-.59-2.62-.99l-.75-.24c-1.72-.54-2.99-1.19-3.81-1.95-.82-.76-1.23-1.8-1.23-3.12,0-1.54.62-2.73,1.86-3.58,1.24-.85,2.91-1.27,5.01-1.27,1.14,0,2.24.12,3.3.36s1.91.55,2.55.93v3.57c-.64-.44-1.44-.79-2.39-1.06-.95-.27-1.89-.41-2.8-.41-1.94,0-2.91.49-2.91,1.47,0,.48.23.85.69,1.11.46.26,1.28.57,2.46.93l1.08.33c1.26.4,2.24.84,2.96,1.32.71.48,1.2,1.02,1.48,1.62.28.6.42,1.33.42,2.19,0,1.38-.6,2.49-1.79,3.33s-2.96,1.26-5.32,1.26c-1.18,0-2.38-.12-3.58-.34Z"/>
          <path class="cls-4" d="M217.82,352.61c-.44-.45-.66-1.13-.66-2.06v-2.34h4.08v1.29c0,.26.06.45.18.57.12.12.33.18.63.18h3.54v3.03h-5.61c-1,0-1.72-.22-2.16-.67ZM217.82,360.69c-.44-.46-.66-1.15-.66-2.07v-2.34h4.08v1.29c0,.26.06.45.18.57.12.12.33.18.63.18h3.54v3.06h-5.61c-1,0-1.72-.23-2.16-.69Z"/>
          <path class="cls-4" d="M229.15,361.74c-1.09-.92-1.64-2.22-1.64-3.9s.59-3,1.79-3.96c1.19-.96,2.82-1.44,4.9-1.44,1.94,0,3.6.32,4.98.96v-.63c0-1.08-.35-1.88-1.06-2.4-.71-.52-1.86-.78-3.44-.78-.98,0-1.94.1-2.88.3-.94.2-1.78.48-2.52.84v-3.42c.66-.32,1.57-.59,2.73-.81,1.16-.22,2.33-.33,3.51-.33,1.34,0,2.59.2,3.75.6l1.17-1.35h4.95l-2.97,3.45c.86.98,1.29,2.27,1.29,3.87v9.93h-4.53v-5.97c-1.16-.6-2.52-.9-4.08-.9-1.02,0-1.77.17-2.23.51-.47.34-.71.87-.71,1.59,0,.66.21,1.16.65,1.49s1.11.49,2.06.49c.66,0,1.22-.1,1.68-.3v3.15c-.78.26-1.78.39-3,.39-1.84,0-3.31-.46-4.4-1.38Z"/>
          <path class="cls-4" d="M251.18,362.24c-1.24-.59-2.2-1.4-2.88-2.45-.68-1.04-1.02-2.22-1.02-3.54v-9.63h4.56v9.33c0,1.16.3,2.05.92,2.69.61.63,1.53.95,2.77.95s2.16-.32,2.76-.95c.6-.63.9-1.53.9-2.69v-9.33h4.56v9.63c0,1.32-.34,2.5-1.02,3.54-.68,1.04-1.64,1.86-2.88,2.45-1.24.59-2.68.88-4.32.88s-3.11-.29-4.35-.88Z"/>
          <path class="cls-4" d="M267.68,353.1l-1.5-2.55c2.34-2.92,5.35-4.38,9.03-4.38,2.58,0,4.56.57,5.95,1.71,1.39,1.14,2.09,2.73,2.09,4.77v10.02h-4.56v-9.66c0-2.2-1.16-3.3-3.48-3.3-.86,0-1.63.12-2.3.36-.67.24-1.29.63-1.88,1.17l1.17,1.92v9.51h-4.53v-9.57Z"/>
          <path class="cls-4" d="M291.2,352.68c0-1.04-.22-1.79-.66-2.27-.44-.47-1.21-.71-2.31-.71s-2.13.27-3.21.81v-3.45c.48-.24,1.12-.45,1.94-.63s1.59-.27,2.35-.27c2.1,0,3.7.56,4.8,1.68s1.65,2.74,1.65,4.86v9.96h-4.56v-9.99Z"/>
          <path class="cls-4" d="M301.3,362.78c-1.21-.23-2.17-.58-2.87-1.04v-3.48c.88.52,1.86.92,2.96,1.2,1.09.28,2.07.42,2.96.42,1.06,0,1.83-.1,2.33-.31.49-.21.73-.58.73-1.12,0-.48-.24-.85-.71-1.11-.47-.26-1.35-.59-2.62-.99l-.75-.24c-1.72-.54-2.99-1.19-3.81-1.95-.82-.76-1.23-1.8-1.23-3.12,0-1.54.62-2.73,1.86-3.58,1.24-.85,2.91-1.27,5.01-1.27,1.14,0,2.24.12,3.3.36s1.91.55,2.55.93v3.57c-.64-.44-1.44-.79-2.39-1.06-.95-.27-1.89-.41-2.8-.41-1.94,0-2.91.49-2.91,1.47,0,.48.23.85.69,1.11.46.26,1.28.57,2.46.93l1.08.33c1.26.4,2.24.84,2.96,1.32.71.48,1.2,1.02,1.48,1.62.28.6.42,1.33.42,2.19,0,1.38-.6,2.49-1.79,3.33s-2.96,1.26-5.32,1.26c-1.18,0-2.38-.12-3.58-.34Z"/>
          <path class="cls-4" d="M327.32,361.38c-1.04-1.16-1.56-2.64-1.56-4.44v-3.93c0-1.12-.26-1.95-.78-2.49s-1.32-.81-2.4-.81c-.8,0-1.5.12-2.11.36-.61.24-1.2.63-1.76,1.17l1.17,1.92v4.71c0,.48.11.82.33,1.02s.58.3,1.08.3h1.53v3.48h-4.02c-1.1,0-1.95-.32-2.55-.95-.6-.63-.9-1.5-.9-2.62v-6l-1.5-2.55c1.14-1.42,2.42-2.5,3.84-3.25,1.42-.75,3.05-1.12,4.89-1.12,2.48,0,4.38.57,5.7,1.72,1.32,1.15,1.98,2.73,1.98,4.75v4.02c0,1.94.96,2.91,2.88,2.91.76,0,1.44-.19,2.04-.56s1.09-.91,1.47-1.6v-10.8h4.53v16.05h-4.29v-1.77c-.66.74-1.43,1.3-2.31,1.67-.88.37-1.83.55-2.85.55-1.9,0-3.37-.58-4.41-1.74Z"/>
          <path class="cls-4" d="M333.08,342.36c0-.88.24-1.54.71-1.98.47-.44,1.21-.66,2.23-.66h6.75v2.85h-4.8c-.3,0-.51.07-.65.2-.13.13-.2.34-.2.65v1.23h-4.05v-2.28Z"/>
        </g>
        <circle class="cls-7" cx="53.33" cy="354.56" r="5.26"/>
      </g>
      <g>
        <g>
          <path class="cls-4" d="M75.47,391.58h4.35v1.83c.72-.72,1.57-1.28,2.55-1.68.98-.4,1.96-.6,2.94-.6,2.02,0,3.54.54,4.58,1.63,1.03,1.09,1.54,2.53,1.54,4.3v10.56h-4.53v-10.17c0-1.86-.98-2.79-2.94-2.79-.82,0-1.56.18-2.23.54-.67.36-1.23.91-1.69,1.65v10.77h-4.56v-16.05Z"/>
          <path class="cls-4" d="M86.36,388.99c-.7-.69-1.05-1.54-1.05-2.57s.36-1.85,1.06-2.57c.71-.71,1.56-1.06,2.56-1.06s1.85.36,2.55,1.06c.7.71,1.05,1.57,1.05,2.57s-.35,1.88-1.05,2.57c-.7.69-1.55,1.04-2.55,1.04s-1.88-.35-2.58-1.04ZM89.77,387.31c.23-.25.34-.53.34-.85,0-.34-.11-.63-.34-.87-.23-.24-.5-.36-.83-.36-.34,0-.62.12-.85.36-.23.24-.34.53-.34.87,0,.32.12.61.34.85.23.25.52.38.85.38.32,0,.6-.12.83-.38Z"/>
          <path class="cls-4" d="M99.41,397.64c0-1.04-.22-1.79-.66-2.26s-1.21-.71-2.31-.71-2.13.27-3.21.81v-3.45c.48-.24,1.12-.45,1.94-.63.81-.18,1.59-.27,2.35-.27,2.1,0,3.7.56,4.8,1.68,1.1,1.12,1.65,2.74,1.65,4.86v9.96h-4.56v-9.99Z"/>
          <path class="cls-4" d="M106.49,393.59h4.53l3.42,10.65c1.48,0,2.62-.44,3.42-1.33.8-.89,1.2-2.16,1.2-3.79,0-1.48-.28-2.59-.84-3.33-.56-.74-1.42-1.11-2.58-1.11-.64,0-1.28.1-1.92.3v-3.42c.84-.28,1.79-.42,2.85-.42,2.38,0,4.17.7,5.35,2.08,1.19,1.39,1.79,3.36,1.79,5.9,0,1.78-.39,3.31-1.17,4.59-.78,1.28-1.83,2.25-3.16,2.92-1.33.67-2.79,1-4.37,1h-4.02l-4.5-14.04Z"/>
          <path class="cls-4" d="M131.09,397.64c0-1.04-.22-1.79-.66-2.26s-1.21-.71-2.31-.71-2.13.27-3.21.81v-3.45c.48-.24,1.12-.45,1.94-.63.81-.18,1.59-.27,2.35-.27,2.1,0,3.7.56,4.8,1.68,1.1,1.12,1.65,2.74,1.65,4.86v9.96h-4.56v-9.99Z"/>
          <path class="cls-4" d="M141.65,407.28c-.94-.54-1.66-1.28-2.15-2.22-.49-.94-.73-1.99-.73-3.15v-10.32h4.56v10.05c0,1.94,1.03,2.91,3.09,2.91.84,0,1.56-.17,2.17-.53.61-.35,1.15-.89,1.61-1.63v-10.8h4.53v16.05h-4.32v-1.8c-.7.74-1.53,1.3-2.48,1.68-.95.38-1.93.57-2.93.57-1.3,0-2.42-.27-3.36-.81Z"/>
          <path class="cls-4" d="M157.88,391.58h4.35v1.83c.72-.72,1.57-1.28,2.55-1.68.98-.4,1.96-.6,2.94-.6,2.02,0,3.54.54,4.58,1.63,1.03,1.09,1.54,2.53,1.54,4.3v10.56h-4.53v-10.17c0-1.86-.98-2.79-2.94-2.79-.82,0-1.56.18-2.23.54-.67.36-1.23.91-1.69,1.65v10.77h-4.56v-16.05Z"/>
          <path class="cls-4" d="M159.98,386.72h9.78v-3.18h4.11v6.06h-13.89v-2.88Z"/>
          <path class="cls-4" d="M169.76,377.54h4.08v4.23h-4.08v-4.23Z"/>
          <path class="cls-4" d="M180.92,407.2c-1.24-.59-2.2-1.4-2.88-2.44-.68-1.04-1.02-2.22-1.02-3.54v-9.63h4.56v9.33c0,1.16.3,2.06.92,2.69.61.63,1.53.95,2.77.95s2.16-.31,2.76-.95c.6-.63.9-1.53.9-2.69v-9.33h4.56v9.63c0,1.32-.34,2.5-1.02,3.54-.68,1.04-1.64,1.85-2.88,2.44-1.24.59-2.68.89-4.32.89s-3.11-.3-4.35-.89Z"/>
          <path class="cls-4" d="M186.11,387.68c0-.22-.04-.38-.13-.46s-.24-.13-.46-.13h-1.41v-3.09h2.82c.74,0,1.27.17,1.6.51.33.34.5.77.5,1.29v.9h6.03v2.91h-8.94v-1.92Z"/>
          <path class="cls-4" d="M201.41,397.64c0-1.04-.22-1.79-.66-2.26s-1.21-.71-2.31-.71-2.13.27-3.21.81v-3.45c.48-.24,1.12-.45,1.94-.63.81-.18,1.59-.27,2.35-.27,2.1,0,3.7.56,4.8,1.68,1.1,1.12,1.65,2.74,1.65,4.86v9.96h-4.56v-9.99Z"/>
          <path class="cls-4" d="M211.97,407.28c-.94-.54-1.66-1.28-2.15-2.22-.49-.94-.73-1.99-.73-3.15v-10.32h4.56v10.05c0,1.94,1.03,2.91,3.09,2.91.84,0,1.56-.17,2.17-.53.61-.35,1.15-.89,1.61-1.63v-10.8h4.53v16.05h-4.32v-1.8c-.7.74-1.53,1.3-2.48,1.68-.95.38-1.93.57-2.93.57-1.3,0-2.42-.27-3.36-.81Z"/>
          <path class="cls-4" d="M230.02,406.69c-.59-.63-.88-1.5-.88-2.62v-10.35c0-2.36.69-4.07,2.07-5.13h-4.95v-3.51h10.71v3.21c-1.16.46-2,1.11-2.52,1.95s-.78,1.97-.78,3.39v9.21c0,.48.1.82.3,1.02.2.2.54.3,1.02.3h1.05v3.48h-3.48c-1.1,0-1.95-.31-2.54-.95Z"/>
          <path class="cls-4" d="M240.14,406.01c-1.44-1.38-2.16-3.4-2.16-6.06s.83-4.95,2.49-6.5c1.66-1.55,3.95-2.33,6.87-2.33s5.25.7,6.68,2.1c1.43,1.4,2.15,3.24,2.15,5.52v8.88h-4.53v-8.91c0-1.32-.33-2.32-1-3.01-.67-.69-1.77-1.04-3.29-1.04-1.44,0-2.58.45-3.42,1.35-.84.9-1.26,2.21-1.26,3.93,0,1.58.34,2.74,1.03,3.48.69.74,1.75,1.11,3.17,1.11.76,0,1.44-.11,2.04-.33v3.48c-.78.26-1.74.39-2.88.39-2.48,0-4.44-.69-5.88-2.07Z"/>
          <path class="cls-4" d="M248.84,387.68c0-.22-.04-.38-.13-.46s-.24-.13-.46-.13h-1.41v-3.09h2.82c.74,0,1.27.17,1.6.51.33.34.5.77.5,1.29v.9h6.03v2.91h-8.94v-1.92Z"/>
          <path class="cls-4" d="M74.87,446.79v-3.54c1.24.86,2.94,1.29,5.1,1.29,1.68,0,2.98-.41,3.9-1.21.92-.81,1.38-2.04,1.38-3.71s-.46-2.9-1.38-3.72c-.92-.82-2.22-1.23-3.9-1.23-2.08,0-3.74.44-4.98,1.32v-3.54c.7-.44,1.57-.77,2.61-.99,1.04-.22,2.16-.33,3.36-.33,2.8,0,5,.75,6.58,2.23,1.59,1.49,2.39,3.58,2.39,6.26s-.79,4.76-2.39,6.24c-1.59,1.48-3.79,2.22-6.58,2.22s-4.69-.43-6.09-1.29Z"/>
          <path class="cls-4" d="M80.24,426.7v-2.19h4.08v1.47c0,.28.06.48.17.58.11.11.31.17.61.17h6.84v2.88h-8.82c-1.92,0-2.88-.97-2.88-2.91Z"/>
          <path class="cls-4" d="M95.33,447.28c-.94-.54-1.66-1.28-2.15-2.22-.49-.94-.73-1.99-.73-3.15v-10.32h4.56v10.05c0,1.94,1.03,2.91,3.09,2.91.84,0,1.56-.17,2.17-.53.61-.35,1.15-.89,1.61-1.63v-10.8h4.53v16.05h-4.32v-1.8c-.7.74-1.53,1.3-2.48,1.68-.95.38-1.93.57-2.93.57-1.3,0-2.42-.27-3.36-.81Z"/>
          <path class="cls-4" d="M112.6,446.7c-1.09-.92-1.64-2.22-1.64-3.9s.59-3,1.79-3.96c1.19-.96,2.82-1.44,4.9-1.44,1.94,0,3.6.32,4.98.96v-.63c0-1.08-.35-1.88-1.06-2.4s-1.86-.78-3.44-.78c-.98,0-1.94.1-2.88.3-.94.2-1.78.48-2.52.84v-3.42c.66-.32,1.57-.59,2.73-.81,1.16-.22,2.33-.33,3.51-.33,2.68,0,4.71.6,6.1,1.79,1.39,1.19,2.08,2.79,2.08,4.79v9.93h-4.53v-5.97c-1.16-.6-2.52-.9-4.08-.9-1.02,0-1.77.17-2.23.51-.47.34-.71.87-.71,1.59,0,.66.21,1.15.65,1.48s1.11.5,2.06.5c.66,0,1.22-.1,1.68-.3v3.15c-.78.26-1.78.39-3,.39-1.84,0-3.31-.46-4.4-1.38Z"/>
          <path class="cls-4" d="M130.34,437.57c-.44-.45-.66-1.13-.66-2.06v-2.34h4.08v1.29c0,.26.06.45.18.57.12.12.33.18.63.18h3.54v3.03h-5.61c-1,0-1.72-.22-2.16-.67ZM130.34,445.65c-.44-.46-.66-1.15-.66-2.07v-2.34h4.08v1.29c0,.26.06.45.18.57.12.12.33.18.63.18h3.54v3.06h-5.61c-1,0-1.72-.23-2.16-.69Z"/>
          <path class="cls-4" d="M154.88,431.64l-4.35,3.15v-4.38l5.1-3.75h3.81v20.97h-4.56v-15.99Z"/>
          <path class="cls-4" d="M161.96,436.8h10.32v3.6h-10.32v-3.6Z"/>
          <path class="cls-4" d="M174.23,444.9l3.75-3.42c.76-.68,1.33-1.18,1.71-1.5,1.14-1,2.01-1.8,2.61-2.41.6-.61,1.09-1.25,1.47-1.91.38-.66.57-1.34.57-2.04,0-.98-.28-1.75-.85-2.31-.57-.56-1.46-.84-2.65-.84-1,0-2,.18-3,.53-1,.35-1.92.84-2.76,1.48v-4.35c.88-.62,1.89-1.1,3.02-1.42,1.13-.33,2.35-.5,3.68-.5,1.52,0,2.83.28,3.93.84,1.1.56,1.94,1.35,2.52,2.37s.87,2.19.87,3.51c0,1.48-.38,2.8-1.12,3.95-.75,1.15-1.96,2.5-3.65,4.07l-3.21,2.94h8.7v3.75h-15.57v-2.73Z"/>
          <path class="cls-4" d="M206.06,447.33c-1.18-.5-2.08-1.2-2.7-2.1-.62-.9-.93-1.92-.93-3.06v-.75c0-.72.14-1.37.42-1.95.28-.58.67-1.23,1.17-1.95.32-.44.55-.79.69-1.07.14-.27.21-.51.21-.74,0-.56-.34-.84-1.02-.84h-1.68v-3.3h4.35c.9,0,1.62.26,2.16.78.54.52.81,1.2.81,2.04,0,.6-.11,1.16-.33,1.67-.22.51-.55,1.09-.99,1.75-.42.66-.73,1.22-.94,1.68s-.31.96-.31,1.5v.63c0,.94.28,1.66.84,2.16.56.5,1.36.75,2.4.75,1.1,0,1.94-.3,2.5-.92.57-.61.85-1.5.85-2.66,0-2.44-.95-3.66-2.85-3.66v-2.19l2.91-3.99h4.83l-3.27,4.47c1.06.54,1.81,1.24,2.27,2.11.45.87.67,1.98.67,3.32s-.31,2.6-.94,3.66c-.63,1.06-1.54,1.89-2.75,2.49-1.2.6-2.61.9-4.23.9s-2.96-.25-4.14-.75Z"/>
          <path class="cls-4" d="M227.81,447.51c-.94-.38-1.76-.94-2.46-1.68v1.8h-4.35v-16.05h4.56v10.8c.44.74.97,1.29,1.59,1.63.62.35,1.35.53,2.19.53,2.06,0,3.09-.97,3.09-2.91v-10.05h4.53v10.32c0,1.16-.24,2.21-.72,3.15-.48.94-1.19,1.68-2.13,2.22-.94.54-2.07.81-3.39.81-1,0-1.97-.19-2.91-.57Z"/>
          <path class="cls-4" d="M240.01,447.15c-.33-.32-.5-.72-.5-1.2s.17-.89.51-1.23c.34-.34.74-.51,1.2-.51s.89.17,1.23.51c.34.34.51.75.51,1.23s-.17.88-.51,1.2c-.34.32-.75.48-1.23.48s-.88-.16-1.21-.48Z"/>
        </g>
        <circle class="cls-7" cx="53.33" cy="399.52" r="5.26"/>
      </g>
    </g>
    <polygon class="cls-12" points="499.23 190.73 519.38 188.07 527.15 206.85 546.99 211.25 547.88 231.55 565.02 242.46 558.9 261.84 571.28 277.96 558.9 294.09 565.02 313.47 547.88 324.38 546.99 344.68 527.15 349.08 519.38 367.86 499.23 365.2 485.51 380.18 467.48 370.8 449.46 380.18 435.73 365.2 415.58 367.86 407.81 349.08 387.97 344.68 387.09 324.38 369.94 313.47 376.06 294.09 363.68 277.96 376.06 261.84 369.94 242.46 387.09 231.55 387.97 211.25 407.81 206.85 415.58 188.07 435.73 190.73 449.46 175.75 467.48 185.13 485.51 175.75 499.23 190.73"/>
    <g>
      <path class="cls-4" d="M429.84,239.48l-1.37-2.32c2.13-2.66,4.87-3.99,8.22-3.99,2.35,0,4.15.52,5.42,1.56,1.27,1.04,1.9,2.49,1.9,4.34v9.12h-4.15v-8.79c0-2-1.06-3-3.17-3-.78,0-1.48.11-2.09.33-.61.22-1.18.57-1.71,1.07l1.06,1.75v8.66h-4.12v-8.71Z"/>
      <path class="cls-4" d="M451.25,239.1c0-.95-.2-1.63-.6-2.06-.4-.43-1.1-.64-2.1-.64s-1.94.25-2.92.74v-3.14c.44-.22,1.02-.41,1.76-.57s1.45-.25,2.14-.25c1.91,0,3.37.51,4.37,1.53,1,1.02,1.5,2.49,1.5,4.42v9.07h-4.15v-9.09Z"/>
      <path class="cls-4" d="M460.44,248.28c-1.1-.21-1.97-.52-2.61-.94v-3.17c.8.47,1.7.84,2.69,1.09.99.25,1.89.38,2.69.38.96,0,1.67-.09,2.12-.29.45-.19.67-.53.67-1.02,0-.44-.21-.77-.64-1.01-.43-.24-1.22-.54-2.39-.9l-.68-.22c-1.57-.49-2.72-1.08-3.47-1.78-.75-.69-1.12-1.64-1.12-2.84,0-1.4.56-2.49,1.69-3.26,1.13-.77,2.65-1.16,4.56-1.16,1.04,0,2.04.11,3,.33.96.22,1.74.5,2.32.85v3.25c-.58-.4-1.31-.72-2.17-.97-.86-.25-1.72-.37-2.55-.37-1.77,0-2.65.45-2.65,1.34,0,.44.21.77.63,1.01.42.24,1.16.52,2.24.85l.98.3c1.15.36,2.04.76,2.69,1.2.65.44,1.1.93,1.35,1.47.25.55.38,1.21.38,1.99,0,1.26-.54,2.27-1.62,3.03s-2.7,1.15-4.85,1.15c-1.07,0-2.16-.1-3.26-.31Z"/>
      <path class="cls-4" d="M461.35,229.13v-1.99h3.71v1.34c0,.25.05.43.15.53s.29.15.56.15h6.23v2.62h-8.03c-1.75,0-2.62-.88-2.62-2.65Z"/>
      <path class="cls-4" d="M475.09,247.86c-.86-.49-1.51-1.16-1.95-2.02-.45-.86-.67-1.81-.67-2.87v-9.39h4.15v9.15c0,1.77.94,2.65,2.81,2.65.76,0,1.42-.16,1.98-.48.56-.32,1.04-.81,1.46-1.49v-9.83h4.12v14.61h-3.93v-1.64c-.64.67-1.39,1.18-2.25,1.53-.87.35-1.75.52-2.66.52-1.18,0-2.2-.25-3.06-.74Z"/>
      <path class="cls-4" d="M491.28,246.73c-1.31-1.25-1.97-3.08-1.97-5.5,0-1.66.24-3.09.71-4.3.47-1.21,1.14-2.14,2.01-2.79s1.86-.97,2.99-.97c.67,0,1.26.13,1.76.38.5.25.91.61,1.21,1.06.35-.49.82-.86,1.43-1.09s1.3-.36,2.06-.36c1.38,0,2.46.42,3.22,1.27.76.85,1.15,1.96,1.15,3.35v10.4h-4.12v-10c0-.62-.1-1.07-.29-1.37-.19-.29-.51-.44-.97-.44-.8,0-1.3.49-1.5,1.47h-1.94c-.13-.98-.56-1.47-1.28-1.47-.66,0-1.18.41-1.58,1.23-.4.82-.6,2.02-.6,3.6,0,1.42.3,2.47.92,3.14.61.67,1.58,1.01,2.91,1.01.69,0,1.31-.1,1.86-.3v3.17c-.71.24-1.58.35-2.62.35-2.26,0-4.04-.62-5.35-1.87Z"/>
      <path class="cls-4" d="M493.25,229.16h8.9v-2.89h3.74v5.52h-12.64v-2.62Z"/>
      <path class="cls-4" d="M396.24,289.8c-1.14-.25-2.08-.6-2.81-1.04v-4.5c.87.56,1.85,1,2.94,1.32,1.09.32,2.12.48,3.09.48,1.35,0,2.36-.26,3.02-.78.66-.52.99-1.24.99-2.15s-.33-1.55-1-2.03-1.6-.73-2.8-.73c-.68,0-1.39.06-2.13.19-.74.13-1.39.3-1.93.54l-1.97-1.13.81-10.5h12.99v4.21h-8.03l-.26,3.19c.89-.23,1.84-.35,2.84-.35,2.11,0,3.76.56,4.94,1.67,1.19,1.11,1.78,2.71,1.78,4.8,0,2.26-.76,4.03-2.29,5.29-1.53,1.27-3.77,1.9-6.73,1.9-1.16,0-2.31-.13-3.45-.38Z"/>
      <path class="cls-4" d="M414.57,288.92c-1.41-.84-2.5-2.05-3.26-3.64-.76-1.58-1.15-3.47-1.15-5.66s.38-4.07,1.13-5.66c.75-1.58,1.83-2.8,3.23-3.65s3.06-1.28,4.97-1.28,3.57.43,4.97,1.28c1.4.85,2.48,2.07,3.23,3.65.75,1.59,1.13,3.47,1.13,5.66s-.38,4.07-1.15,5.66-1.85,2.8-3.26,3.64c-1.41.84-3.06,1.26-4.93,1.26s-3.52-.42-4.93-1.26ZM422.52,283.86c.71-1,1.07-2.4,1.07-4.18s-.35-3.21-1.06-4.25-1.72-1.55-3.03-1.55-2.33.52-3.03,1.55c-.71,1.03-1.06,2.45-1.06,4.25s.36,3.17,1.07,4.18,1.72,1.51,3.02,1.51,2.3-.5,3.02-1.51Z"/>
      <path class="cls-4" d="M434.7,288.92c-1.41-.84-2.5-2.05-3.26-3.64-.76-1.58-1.15-3.47-1.15-5.66s.38-4.07,1.13-5.66c.75-1.58,1.83-2.8,3.23-3.65s3.06-1.28,4.97-1.28,3.57.43,4.97,1.28c1.4.85,2.48,2.07,3.23,3.65.75,1.59,1.13,3.47,1.13,5.66s-.38,4.07-1.15,5.66-1.85,2.8-3.26,3.64c-1.41.84-3.06,1.26-4.93,1.26s-3.52-.42-4.93-1.26ZM442.64,283.86c.71-1,1.07-2.4,1.07-4.18s-.35-3.21-1.06-4.25-1.72-1.55-3.03-1.55-2.33.52-3.03,1.55c-.71,1.03-1.06,2.45-1.06,4.25s.36,3.17,1.07,4.18,1.72,1.51,3.02,1.51,2.3-.5,3.02-1.51Z"/>
      <path class="cls-4" d="M450.42,278.93h10.32v4.06h-10.32v-4.06Z"/>
      <path class="cls-4" d="M466.31,275.19l-4.12,2.99v-5.05l4.99-3.65h4.26v20.27h-5.13v-14.56Z"/>
      <path class="cls-4" d="M475.88,287.95h5.28l-3.04,6.12h-4.64l2.41-6.12Z"/>
      <path class="cls-4" d="M487.01,288.92c-1.41-.84-2.5-2.05-3.26-3.64-.76-1.58-1.15-3.47-1.15-5.66s.38-4.07,1.13-5.66c.75-1.58,1.83-2.8,3.23-3.65s3.06-1.28,4.97-1.28,3.57.43,4.97,1.28c1.4.85,2.48,2.07,3.23,3.65.75,1.59,1.13,3.47,1.13,5.66s-.38,4.07-1.15,5.66-1.85,2.8-3.26,3.64c-1.41.84-3.06,1.26-4.93,1.26s-3.52-.42-4.93-1.26ZM494.96,283.86c.71-1,1.07-2.4,1.07-4.18s-.35-3.21-1.06-4.25-1.72-1.55-3.03-1.55-2.33.52-3.03,1.55c-.71,1.03-1.06,2.45-1.06,4.25s.36,3.17,1.07,4.18,1.72,1.51,3.02,1.51,2.3-.5,3.02-1.51Z"/>
      <path class="cls-4" d="M507.14,288.92c-1.41-.84-2.5-2.05-3.26-3.64-.76-1.58-1.15-3.47-1.15-5.66s.38-4.07,1.13-5.66c.75-1.58,1.83-2.8,3.23-3.65s3.06-1.28,4.97-1.28,3.57.43,4.97,1.28c1.4.85,2.48,2.07,3.23,3.65.75,1.59,1.13,3.47,1.13,5.66s-.38,4.07-1.15,5.66-1.85,2.8-3.26,3.64c-1.41.84-3.06,1.26-4.93,1.26s-3.52-.42-4.93-1.26ZM515.09,283.86c.71-1,1.07-2.4,1.07-4.18s-.35-3.21-1.06-4.25-1.72-1.55-3.03-1.55-2.33.52-3.03,1.55c-.71,1.03-1.06,2.45-1.06,4.25s.36,3.17,1.07,4.18,1.72,1.51,3.02,1.51,2.3-.5,3.02-1.51Z"/>
      <path class="cls-4" d="M527.27,288.92c-1.41-.84-2.5-2.05-3.26-3.64-.76-1.58-1.15-3.47-1.15-5.66s.38-4.07,1.13-5.66c.75-1.58,1.83-2.8,3.23-3.65s3.06-1.28,4.97-1.28,3.57.43,4.97,1.28c1.4.85,2.48,2.07,3.23,3.65.75,1.59,1.13,3.47,1.13,5.66s-.38,4.07-1.15,5.66-1.85,2.8-3.26,3.64c-1.41.84-3.06,1.26-4.93,1.26s-3.52-.42-4.93-1.26ZM535.21,283.86c.71-1,1.07-2.4,1.07-4.18s-.35-3.21-1.06-4.25-1.72-1.55-3.03-1.55-2.33.52-3.03,1.55c-.71,1.03-1.06,2.45-1.06,4.25s.36,3.17,1.07,4.18,1.72,1.51,3.02,1.51,2.3-.5,3.02-1.51Z"/>
      <path class="cls-4" d="M436.01,329.84c-1.31-1.25-1.97-3.08-1.97-5.5,0-1.66.24-3.09.71-4.3.47-1.21,1.14-2.14,2.01-2.79s1.86-.97,2.99-.97c.67,0,1.26.13,1.76.38.5.25.91.61,1.21,1.06.35-.49.82-.86,1.43-1.09s1.3-.36,2.06-.36c1.38,0,2.46.42,3.22,1.27.76.85,1.15,1.96,1.15,3.35v10.4h-4.12v-10c0-.62-.1-1.07-.29-1.37-.19-.29-.51-.44-.97-.44-.8,0-1.3.49-1.5,1.47h-1.94c-.13-.98-.56-1.47-1.28-1.47-.66,0-1.18.41-1.58,1.23-.4.82-.6,2.02-.6,3.6,0,1.42.3,2.47.92,3.14.61.67,1.58,1.01,2.91,1.01.69,0,1.31-.1,1.86-.3v3.17c-.71.24-1.58.35-2.62.35-2.26,0-4.04-.62-5.35-1.87Z"/>
      <path class="cls-4" d="M446.47,310.03h4.15v4.86h-4.15v-4.86Z"/>
      <path class="cls-4" d="M455.86,331.34c-1.18-.25-2.17-.59-2.95-1.02v-7.67h6.91v3.03h-2.84v2.35c.56.31,1.39.46,2.48.46,2.89,0,4.34-1.51,4.34-4.53,0-1.55-.42-2.68-1.26-3.39-.84-.71-2.25-1.06-4.23-1.06-.91,0-1.84.1-2.8.29-.96.19-1.76.46-2.42.81v-3.22c.75-.35,1.65-.61,2.7-.81,1.06-.19,2.16-.29,3.3-.29,2.93,0,5.16.67,6.68,2.01,1.52,1.34,2.28,3.23,2.28,5.67s-.75,4.3-2.24,5.68c-1.49,1.38-3.61,2.08-6.36,2.08-1.22,0-2.42-.12-3.6-.37Z"/>
      <path class="cls-4" d="M469.82,330.54v-3.22c1.13.78,2.68,1.17,4.64,1.17,1.53,0,2.71-.37,3.55-1.11.84-.74,1.26-1.86,1.26-3.37s-.42-2.64-1.26-3.39c-.84-.75-2.02-1.12-3.55-1.12-1.89,0-3.4.4-4.53,1.2v-3.22c.64-.4,1.43-.7,2.38-.9.95-.2,1.97-.3,3.06-.3,2.55,0,4.55.68,5.99,2.03,1.45,1.36,2.17,3.25,2.17,5.69s-.72,4.33-2.17,5.68c-1.45,1.35-3.45,2.02-5.99,2.02s-4.27-.39-5.54-1.17Z"/>
      <path class="cls-4" d="M474.7,312.24v-1.99h3.71v1.34c0,.25.05.43.15.53s.29.15.56.15h6.23v2.62h-8.03c-1.75,0-2.62-.88-2.62-2.65Z"/>
      <path class="cls-4" d="M488.44,330.97c-.86-.49-1.51-1.16-1.95-2.02-.45-.86-.67-1.81-.67-2.87v-9.39h4.15v9.15c0,1.77.94,2.65,2.81,2.65.76,0,1.42-.16,1.98-.48.56-.32,1.04-.81,1.46-1.49v-9.83h4.12v14.61h-3.93v-1.64c-.64.67-1.39,1.18-2.25,1.53-.87.35-1.75.52-2.66.52-1.18,0-2.2-.25-3.06-.74Z"/>
    </g>
  </g>
</svg>