<?xml version="1.0" encoding="UTF-8"?>
<svg id="Layer_1" data-name="Layer 1" xmlns="http://www.w3.org/2000/svg" xmlns:xlink="http://www.w3.org/1999/xlink" viewBox="0 0 600 600">
  <defs>
    <style>
      .cls-1 {
        fill: #e0a022;
      }

      .cls-2, .cls-3, .cls-4, .cls-5, .cls-6 {
        fill: none;
      }

      .cls-7 {
        fill: #1a4175;
      }

      .cls-8 {
        fill: #f1b633;
      }

      .cls-3 {
        stroke: #0d2243;
        stroke-linecap: round;
        stroke-linejoin: round;
        stroke-width: 10.21px;
      }

      .cls-9, .cls-10 {
        fill: #accdf8;
      }

      .cls-11 {
        fill: #f28181;
      }

      .cls-12, .cls-13 {
        fill: #ffcc5a;
      }

      .cls-4 {
        stroke: #7db0f2;
        stroke-width: 2.23px;
      }

      .cls-4, .cls-5, .cls-6 {
        stroke-miterlimit: 10;
      }

      .cls-4, .cls-14 {
        opacity: .2;
      }

      .cls-15, .cls-13, .cls-16, .cls-17, .cls-10 {
        opacity: .5;
      }

      .cls-15, .cls-18 {
        fill: #fff;
      }

      .cls-5 {
        stroke-width: .91px;
      }

      .cls-5, .cls-6 {
        stroke: #060a25;
      }

      .cls-19 {
        fill: #0d2243;
      }

      .cls-6 {
        stroke-width: .45px;
      }

      .cls-20 {
        fill: #ff7bac;
        opacity: .3;
      }

      .cls-21 {
        fill: #193d70;
      }

      .cls-22 {
        fill: #101e35;
      }

      .cls-23 {
        fill: #fac55d;
      }

      .cls-24 {
        fill: #ff517d;
      }

      .cls-25 {
        opacity: .1;
      }

      .cls-25, .cls-17, .cls-14 {
        fill: #7db0f2;
      }

      .cls-26 {
        clip-path: url(#clippath);
      }

      .cls-27 {
        fill: #f4b2a0;
      }
    </style>
    <clipPath id="clippath">
      <rect class="cls-2" x="94.85" y="18.55" width="410.75" height="558.17" transform="translate(2.59 597.85) rotate(-90)"/>
    </clipPath>
  </defs>
  <g>
    <g>
      <rect class="cls-18" width="600" height="600" rx="30" ry="30"/>
      <g>
        <rect class="cls-25" x="75.66" y="518.05" width="46.67" height="13.94" rx="3.48" ry="3.48"/>
        <rect class="cls-25" x="496.7" y="518.05" width="82.6" height="13.94" rx="3.48" ry="3.48"/>
        <rect class="cls-25" x="361.17" y="518.05" width="116.89" height="13.94" rx="3.48" ry="3.48"/>
      </g>
      <g>
        <g>
          <path class="cls-9" d="M70.56,566.85h-3.97c-.67,0-1.21.54-1.21,1.22v13.02c0,.67.54,1.22,1.21,1.22h3.97c.67,0,1.22-.55,1.22-1.22v-13.02c0-.68-.55-1.22-1.22-1.22Z"/>
          <path class="cls-9" d="M91.61,571.37c0-1.82-1.51-1.82-1.51-1.82,0,0,1.51-.6,1.51-2.42,0-2.13-1.52-2.43-2.43-2.43h-6.67c1.51-3.35,1.52-5.47,1.52-6.68s-.91-3.64-2.73-3.64-2.13,1.21-2.13,1.21c0,0,.46,3.18,0,3.64-.46.46-5.76,6.68-5.76,7.9,0,.9,0,2.15,0,2.72h0v9.42c0,.84.68,1.52,1.52,1.52h11.6c2.76-.08,3.89-.96,3.89-2.12s-.91-1.52-.91-1.52c0,0,1.2-.3,1.2-1.82s-.91-1.82-.91-1.82c0,0,1.81-.31,1.81-2.13Z"/>
        </g>
        <rect class="cls-14" x="101.88" y="565.74" width="46.67" height="13.94" rx="3.48" ry="3.48"/>
        <g>
          <path class="cls-9" d="M261.73,560.28h-17.01c-2.15,0-3.9,1.75-3.9,3.89v11.74c0,2.14,1.75,3.89,3.9,3.89h3.15v4.38s0,1.2.58.91c.43-.09,1.37-.91,1.37-.91l4.85-4.38h7.07c2.14,0,3.89-1.75,3.89-3.89v-11.74c0-2.14-1.75-3.89-3.89-3.89"/>
          <rect class="cls-14" x="275.89" y="566" width="87.45" height="13.94" rx="3.48" ry="3.48"/>
        </g>
        <g>
          <path class="cls-9" d="M477.4,572.04l-10.37-10.37c-.37-.37-.97-.37-1.35,0v6.11s-14.85-.55-16.18,16.26c0,0,4.75-8.16,16.18-7.27v6.99c.37.37.98.37,1.35,0l10.37-10.36c.37-.37.37-.98,0-1.35"/>
          <rect class="cls-14" x="487.95" y="567.51" width="46.67" height="13.94" rx="3.48" ry="3.48"/>
        </g>
      </g>
      <g>
        <path class="cls-20" d="M65.12,523.12c0,6.71-5.44,12.15-12.15,12.15s-12.15-5.44-12.15-12.15,5.44-12.15,12.15-12.15,12.15,5.44,12.15,12.15Z"/>
        <path class="cls-18" d="M56.86,518.72c-1.81-.41-3.33.3-3.88,2.04-.55-1.74-2.07-2.45-3.89-2.04-1.44.33-3.42,2.59-1.67,5.62,1.75,3.02,5.56,4.91,5.56,4.91,0,0,3.81-1.89,5.56-4.91,1.74-3.03-.23-5.29-1.67-5.62Z"/>
      </g>
      <g>
        <path class="cls-18" d="M44.18,523.13c0,7.37-5.98,13.35-13.36,13.35s-13.36-5.98-13.36-13.35,5.98-13.36,13.36-13.36,13.36,5.98,13.36,13.36Z"/>
        <path class="cls-17" d="M42.97,523.13c0,6.71-5.44,12.15-12.15,12.15s-12.15-5.44-12.15-12.15,5.44-12.15,12.15-12.15,12.15,5.44,12.15,12.15Z"/>
        <g>
          <path class="cls-18" d="M26.85,521.72h-1.9c-.27,0-.49.21-.49.48v5.63c0,.27.22.49.49.49h1.9c.27,0,.48-.22.48-.49v-5.63c0-.27-.22-.48-.48-.48Z"/>
          <path class="cls-18" d="M35.31,520.16h-2.66v-2.71c0-.47-.52-1.33-.94-1.33h-.99c-.18,0-.42.37-.42.97v1.64c0,.34-.49,1.3-.86,1.8-.36.5-1.1.94-1.1,1.61v4.8c0,.47.4,1.07,1.41,1.07h4.54c.62,0,1.12-.1,1.75-1.51.63-1.41.92-2.03.92-3.18v-1.93c0-.6-.52-1.22-1.65-1.22Z"/>
        </g>
      </g>
      <line class="cls-4" x1="22.41" y1="545.3" x2="577.49" y2="545.3"/>
      <rect class="cls-14" x="96.49" y="24.56" width="168.96" height="22.83" rx="5.78" ry="5.78"/>
      <rect class="cls-14" x="96.49" y="58.78" width="258.59" height="17.24" rx="4.44" ry="4.44"/>
      <path class="cls-9" d="M49.98,21.13h0c15.92,0,28.85,12.93,28.85,28.85h0c0,15.92-12.93,28.85-28.85,28.85h0c-15.92,0-28.84-12.92-28.84-28.84h0c0-15.92,12.93-28.85,28.85-28.85Z"/>
    </g>
    <rect class="cls-13" x="94.85" y="18.55" width="410.75" height="558.17" transform="translate(2.59 597.85) rotate(-90)"/>
  </g>
  <g class="cls-16">
    <g class="cls-26">
      <path class="cls-12" d="M180.73,338.51c3.93-23.21,15.47-46.83,36.25-60.18,20.79-13.35,51.65-12.91,66.37,5.04-11.43-20.36-9.05-47.54,5.86-67.07,14.91-19.53,41.61-30.4,65.87-26.84-39.35-20.3-35.31-96.63-.29-129.55-20.47,20.92-65.46,29.1-81.54,15.63-16.08-13.46-22.92-34.47-26.11-54.99-8.2,25.26-39.59,39.54-66.61,36.6-27.02-2.95-49.78-19.12-68.47-37.27,5.27,25.3-15.12,52.43-41.14,61.74-26.02,9.31-55.15,3.53-78.22-9.37,27.18,40.03,5.35,103.69-42.39,123.65,29.29,6.51,54.34,26.37,66.22,52.5,11.88,26.12,10.34,57.98-4.07,84.21,7.44-6.9,13.85-11.23,22.92-15.96,21.91-11.42,45.21-22.09,69.67-23.09,24.46-.99,67.37,23.44,75.67,44.95Z"/>
      <g class="cls-16">
        <g>
          <g>
            <path class="cls-8" d="M3.65,514.39h56.71c1.57,0,2.84,1.27,2.84,2.84v5.44c0,1.57-1.27,2.84-2.84,2.84H3.65c-1.57,0-2.84-1.27-2.84-2.84v-5.44c0-1.57,1.27-2.84,2.84-2.84Z"/>
            <path class="cls-23" d="M60.84,514.39h-10.5v11.11h10.5c1.3,0,2.36-1.05,2.36-2.36v-6.4c0-1.3-1.05-2.36-2.36-2.36Z"/>
            <rect class="cls-23" x="11.15" y="514.39" width="29.38" height="11.11"/>
            <path class="cls-1" d="M62.82,515.48c-.42-.65-1.15-1.09-1.98-1.09H3.17c-.83,0-1.56.44-1.98,1.09h61.63Z"/>
            <path class="cls-1" d="M1.19,524.4c.41.66,1.14,1.11,1.98,1.11h57.67c.84,0,1.56-.45,1.98-1.11H1.19Z"/>
          </g>
          <g>
            <rect class="cls-8" x="-1.92" y="503.4" width="62.38" height="11.11" rx="2.84" ry="2.84"/>
            <path class="cls-23" d="M58.11,503.4h-10.5v11.11h10.5c1.3,0,2.36-1.06,2.36-2.36v-6.4c0-1.3-1.06-2.36-2.36-2.36Z"/>
            <rect class="cls-23" x="8.42" y="503.4" width="29.38" height="11.11"/>
            <path class="cls-1" d="M60.09,504.49c-.42-.65-1.15-1.09-1.98-1.09H.44c-.83,0-1.56.43-1.98,1.09h61.63Z"/>
            <path class="cls-1" d="M-1.54,513.4c.41.66,1.14,1.11,1.98,1.11h57.67c.84,0,1.56-.45,1.98-1.11H-1.54Z"/>
          </g>
          <g>
            <path class="cls-8" d="M3.35,492.4h56.71c1.57,0,2.84,1.27,2.84,2.84v5.44c0,1.57-1.27,2.84-2.84,2.84H3.35c-1.57,0-2.84-1.27-2.84-2.84v-5.44c0-1.57,1.27-2.84,2.84-2.84Z"/>
            <path class="cls-23" d="M60.54,492.4h-10.5v11.11h10.5c1.3,0,2.36-1.05,2.36-2.36v-6.4c0-1.3-1.06-2.36-2.36-2.36Z"/>
            <rect class="cls-23" x="10.85" y="492.4" width="29.38" height="11.11"/>
            <path class="cls-1" d="M62.52,493.49c-.42-.65-1.15-1.09-1.98-1.09H2.87c-.83,0-1.56.44-1.98,1.09h61.63Z"/>
            <path class="cls-1" d="M.89,502.41c.41.66,1.14,1.11,1.98,1.11h57.67c.84,0,1.56-.44,1.98-1.11H.89Z"/>
          </g>
          <g>
            <rect class="cls-8" x="3.24" y="481.41" width="62.38" height="11.11" rx="2.84" ry="2.84"/>
            <path class="cls-23" d="M63.27,481.41h-10.5v11.11h10.5c1.3,0,2.36-1.06,2.36-2.36v-6.4c0-1.3-1.05-2.36-2.36-2.36Z"/>
            <rect class="cls-23" x="13.58" y="481.41" width="29.38" height="11.11"/>
            <path class="cls-1" d="M65.25,482.5c-.42-.65-1.15-1.09-1.98-1.09H5.6c-.83,0-1.56.44-1.98,1.09h61.63Z"/>
            <path class="cls-1" d="M3.62,491.42c.41.66,1.14,1.11,1.98,1.11h57.67c.84,0,1.56-.45,1.98-1.11H3.62Z"/>
          </g>
          <g>
            <path class="cls-8" d="M.62,470.42h56.71c1.57,0,2.84,1.27,2.84,2.84v5.44c0,1.57-1.27,2.84-2.84,2.84H.62c-1.57,0-2.84-1.27-2.84-2.84v-5.44c0-1.57,1.27-2.84,2.84-2.84Z"/>
            <path class="cls-23" d="M57.8,470.42h-10.5v11.11h10.5c1.3,0,2.36-1.06,2.36-2.36v-6.4c0-1.3-1.06-2.36-2.36-2.36Z"/>
            <rect class="cls-23" x="8.12" y="470.42" width="29.38" height="11.11"/>
            <path class="cls-1" d="M59.78,471.51c-.42-.65-1.15-1.09-1.98-1.09H.14c-.83,0-1.56.43-1.98,1.09h61.63Z"/>
            <path class="cls-1" d="M-1.84,480.42c.42.66,1.14,1.11,1.98,1.11h57.67c.84,0,1.56-.45,1.98-1.11H-1.84Z"/>
          </g>
          <g>
            <path class="cls-8" d="M4.56,459.43h56.71c1.57,0,2.84,1.27,2.84,2.84v5.44c0,1.57-1.27,2.84-2.84,2.84H4.56c-1.57,0-2.84-1.27-2.84-2.84v-5.44c0-1.57,1.27-2.84,2.84-2.84Z"/>
            <path class="cls-23" d="M61.75,459.43h-10.5v11.11h10.5c1.3,0,2.36-1.05,2.36-2.36v-6.4c0-1.3-1.06-2.36-2.36-2.36Z"/>
            <rect class="cls-23" x="12.06" y="459.43" width="29.38" height="11.11"/>
            <path class="cls-1" d="M63.73,460.51c-.42-.65-1.15-1.09-1.98-1.09H4.08c-.83,0-1.56.44-1.98,1.09h61.63Z"/>
            <path class="cls-1" d="M2.1,469.43c.41.66,1.14,1.11,1.98,1.11h57.67c.84,0,1.56-.45,1.98-1.11H2.1Z"/>
          </g>
          <g>
            <path class="cls-8" d="M8.81,448.43h56.71c1.57,0,2.84,1.27,2.84,2.84v5.44c0,1.57-1.27,2.84-2.84,2.84H8.81c-1.57,0-2.84-1.27-2.84-2.84v-5.44c0-1.57,1.27-2.84,2.84-2.84Z"/>
            <path class="cls-23" d="M66,448.43h-10.5v11.11h10.5c1.3,0,2.36-1.06,2.36-2.36v-6.4c0-1.3-1.05-2.36-2.36-2.36Z"/>
            <rect class="cls-23" x="16.31" y="448.43" width="29.38" height="11.11"/>
            <path class="cls-1" d="M67.98,449.52c-.42-.65-1.15-1.09-1.98-1.09H8.33c-.83,0-1.56.43-1.98,1.09h61.63Z"/>
            <path class="cls-1" d="M6.35,458.44c.41.66,1.14,1.11,1.98,1.11h57.67c.84,0,1.56-.45,1.98-1.11H6.35Z"/>
          </g>
          <g>
            <path class="cls-8" d="M6.99,437.44h56.71c1.57,0,2.84,1.27,2.84,2.84v5.44c0,1.57-1.27,2.84-2.84,2.84H6.99c-1.57,0-2.84-1.27-2.84-2.84v-5.44c0-1.57,1.27-2.84,2.84-2.84Z"/>
            <path class="cls-23" d="M64.18,437.44h-10.5v11.11h10.5c1.3,0,2.36-1.06,2.36-2.36v-6.4c0-1.3-1.06-2.36-2.36-2.36Z"/>
            <rect class="cls-23" x="14.49" y="437.44" width="29.38" height="11.11"/>
            <path class="cls-1" d="M66.16,438.53c-.42-.65-1.15-1.09-1.98-1.09H6.51c-.83,0-1.56.44-1.98,1.09h61.63Z"/>
            <path class="cls-1" d="M4.53,447.45c.42.66,1.14,1.11,1.98,1.11h57.67c.84,0,1.56-.45,1.98-1.11H4.53Z"/>
          </g>
          <g>
            <rect class="cls-8" x="-.7" y="426.45" width="62.38" height="11.11" rx="2.84" ry="2.84"/>
            <path class="cls-23" d="M59.32,426.45h-10.5v11.11h10.5c1.3,0,2.36-1.06,2.36-2.36v-6.4c0-1.3-1.05-2.36-2.36-2.36Z"/>
            <rect class="cls-23" x="9.63" y="426.45" width="29.38" height="11.11"/>
            <path class="cls-1" d="M61.3,427.53c-.42-.65-1.15-1.09-1.98-1.09H1.65c-.83,0-1.56.44-1.98,1.09h61.63Z"/>
            <path class="cls-1" d="M-.32,436.45c.41.66,1.14,1.11,1.98,1.11h57.67c.84,0,1.56-.45,1.98-1.11H-.32Z"/>
          </g>
          <g>
            <path class="cls-8" d="M6.99,415.06h56.71c1.57,0,2.84,1.27,2.84,2.84v5.44c0,1.57-1.27,2.84-2.84,2.84H6.99c-1.57,0-2.84-1.27-2.84-2.84v-5.44c0-1.57,1.27-2.84,2.84-2.84Z"/>
            <path class="cls-23" d="M64.18,415.06h-10.5v11.11h10.5c1.3,0,2.36-1.05,2.36-2.36v-6.4c0-1.3-1.06-2.36-2.36-2.36Z"/>
            <rect class="cls-23" x="14.49" y="415.06" width="29.38" height="11.11"/>
            <path class="cls-1" d="M66.16,416.15c-.42-.65-1.15-1.09-1.98-1.09H6.51c-.83,0-1.56.44-1.98,1.09h61.63Z"/>
            <path class="cls-1" d="M4.53,425.07c.42.66,1.14,1.11,1.98,1.11h57.67c.84,0,1.56-.44,1.98-1.11H4.53Z"/>
          </g>
          <g>
            <rect class="cls-8" x="-.7" y="404.07" width="62.38" height="11.11" rx="2.84" ry="2.84"/>
            <path class="cls-23" d="M59.32,404.07h-10.5v11.11h10.5c1.3,0,2.36-1.06,2.36-2.36v-6.4c0-1.3-1.05-2.36-2.36-2.36Z"/>
            <rect class="cls-23" x="9.63" y="404.07" width="29.38" height="11.11"/>
            <path class="cls-1" d="M61.3,405.16c-.42-.65-1.15-1.09-1.98-1.09H1.65c-.83,0-1.56.44-1.98,1.09h61.63Z"/>
            <path class="cls-1" d="M-.32,414.07c.41.66,1.14,1.11,1.98,1.11h57.67c.84,0,1.56-.45,1.98-1.11H-.32Z"/>
          </g>
        </g>
        <g>
          <g>
            <rect class="cls-8" x="288.07" y="499.35" width="62.38" height="11.11" rx="2.84" ry="2.84"/>
            <path class="cls-23" d="M348.09,499.35h-10.5v11.11h10.5c1.3,0,2.36-1.05,2.36-2.36v-6.4c0-1.3-1.05-2.36-2.36-2.36Z"/>
            <rect class="cls-23" x="298.41" y="499.35" width="29.38" height="11.11"/>
            <path class="cls-1" d="M350.08,500.44c-.42-.65-1.15-1.09-1.98-1.09h-57.67c-.83,0-1.56.44-1.98,1.09h61.63Z"/>
            <path class="cls-1" d="M288.45,509.36c.41.66,1.14,1.11,1.98,1.11h57.67c.84,0,1.56-.45,1.98-1.11h-61.62Z"/>
          </g>
          <g>
            <rect class="cls-8" x="285.34" y="488.36" width="62.38" height="11.11" rx="2.84" ry="2.84"/>
            <path class="cls-23" d="M345.36,488.36h-10.5v11.11h10.5c1.3,0,2.36-1.06,2.36-2.36v-6.4c0-1.3-1.06-2.36-2.36-2.36Z"/>
            <rect class="cls-23" x="295.68" y="488.36" width="29.38" height="11.11"/>
            <path class="cls-1" d="M347.34,489.45c-.42-.65-1.15-1.09-1.98-1.09h-57.67c-.83,0-1.56.43-1.98,1.09h61.63Z"/>
            <path class="cls-1" d="M285.72,498.37c.42.66,1.14,1.11,1.98,1.11h57.67c.84,0,1.56-.45,1.98-1.11h-61.62Z"/>
          </g>
          <g>
            <path class="cls-8" d="M290.6,477.37h56.71c1.57,0,2.84,1.27,2.84,2.84v5.44c0,1.57-1.27,2.84-2.84,2.84h-56.71c-1.57,0-2.84-1.27-2.84-2.84v-5.44c0-1.57,1.27-2.84,2.84-2.84Z"/>
            <path class="cls-23" d="M347.79,477.37h-10.5v11.11h10.5c1.3,0,2.36-1.05,2.36-2.36v-6.4c0-1.3-1.06-2.36-2.36-2.36Z"/>
            <rect class="cls-23" x="298.1" y="477.37" width="29.38" height="11.11"/>
            <path class="cls-1" d="M349.77,478.46c-.42-.65-1.15-1.09-1.98-1.09h-57.67c-.83,0-1.56.44-1.98,1.09h61.63Z"/>
            <path class="cls-1" d="M288.15,487.37c.42.66,1.14,1.11,1.98,1.11h57.67c.84,0,1.56-.44,1.98-1.11h-61.62Z"/>
          </g>
          <g>
            <rect class="cls-8" x="290.5" y="466.38" width="62.38" height="11.11" rx="2.84" ry="2.84"/>
            <path class="cls-23" d="M350.52,466.38h-10.5v11.11h10.5c1.3,0,2.36-1.06,2.36-2.36v-6.4c0-1.3-1.05-2.36-2.36-2.36Z"/>
            <rect class="cls-23" x="300.83" y="466.38" width="29.38" height="11.11"/>
            <path class="cls-1" d="M352.5,467.46c-.42-.65-1.15-1.09-1.98-1.09h-57.67c-.83,0-1.56.44-1.98,1.09h61.63Z"/>
            <path class="cls-1" d="M290.88,476.38c.41.66,1.14,1.11,1.98,1.11h57.67c.84,0,1.56-.45,1.98-1.11h-61.62Z"/>
          </g>
          <g>
            <path class="cls-8" d="M287.87,455.38h56.71c1.57,0,2.84,1.27,2.84,2.84v5.44c0,1.57-1.27,2.84-2.84,2.84h-56.71c-1.57,0-2.84-1.27-2.84-2.84v-5.44c0-1.57,1.27-2.84,2.84-2.84Z"/>
            <path class="cls-23" d="M345.06,455.38h-10.5v11.11h10.5c1.3,0,2.36-1.06,2.36-2.36v-6.4c0-1.3-1.06-2.36-2.36-2.36Z"/>
            <rect class="cls-23" x="295.37" y="455.38" width="29.38" height="11.11"/>
            <path class="cls-1" d="M347.04,456.47c-.42-.65-1.15-1.09-1.98-1.09h-57.67c-.83,0-1.56.43-1.98,1.09h61.63Z"/>
            <path class="cls-1" d="M285.42,465.39c.41.66,1.14,1.11,1.98,1.11h57.67c.84,0,1.56-.45,1.98-1.11h-61.62Z"/>
          </g>
          <g>
            <path class="cls-8" d="M291.82,444.39h56.71c1.57,0,2.84,1.27,2.84,2.84v5.44c0,1.57-1.27,2.84-2.84,2.84h-56.71c-1.57,0-2.84-1.27-2.84-2.84v-5.44c0-1.57,1.27-2.84,2.84-2.84Z"/>
            <path class="cls-23" d="M349,444.39h-10.5v11.11h10.5c1.3,0,2.36-1.05,2.36-2.36v-6.4c0-1.3-1.06-2.36-2.36-2.36Z"/>
            <rect class="cls-23" x="299.32" y="444.39" width="29.38" height="11.11"/>
            <path class="cls-1" d="M350.99,445.48c-.42-.65-1.15-1.09-1.98-1.09h-57.67c-.83,0-1.56.44-1.98,1.09h61.63Z"/>
            <path class="cls-1" d="M289.36,454.4c.41.66,1.14,1.11,1.98,1.11h57.67c.84,0,1.56-.45,1.98-1.11h-61.62Z"/>
          </g>
        </g>
        <g>
          <g>
            <rect class="cls-8" x="230.99" y="546.38" width="62.38" height="11.11" rx="2.84" ry="2.84"/>
            <path class="cls-23" d="M291.02,546.38h-10.5v11.11h10.5c1.3,0,2.36-1.05,2.36-2.36v-6.4c0-1.3-1.05-2.36-2.36-2.36Z"/>
            <rect class="cls-23" x="241.33" y="546.38" width="29.38" height="11.11"/>
            <path class="cls-1" d="M293,547.47c-.42-.65-1.15-1.09-1.98-1.09h-57.67c-.83,0-1.56.44-1.98,1.09h61.63Z"/>
            <path class="cls-1" d="M231.37,556.39c.41.66,1.14,1.11,1.98,1.11h57.67c.84,0,1.56-.45,1.98-1.11h-61.62Z"/>
          </g>
          <g>
            <rect class="cls-8" x="228.26" y="535.39" width="62.38" height="11.11" rx="2.84" ry="2.84"/>
            <path class="cls-23" d="M288.28,535.39h-10.5v11.11h10.5c1.3,0,2.36-1.06,2.36-2.36v-6.4c0-1.3-1.06-2.36-2.36-2.36Z"/>
            <rect class="cls-23" x="238.6" y="535.39" width="29.38" height="11.11"/>
            <path class="cls-1" d="M290.27,536.48c-.42-.65-1.15-1.09-1.98-1.09h-57.67c-.83,0-1.56.43-1.98,1.09h61.63Z"/>
            <path class="cls-1" d="M228.64,545.4c.42.66,1.14,1.11,1.98,1.11h57.67c.84,0,1.56-.45,1.98-1.11h-61.62Z"/>
          </g>
          <g>
            <path class="cls-8" d="M233.52,524.4h56.71c1.57,0,2.84,1.27,2.84,2.84v5.44c0,1.57-1.27,2.84-2.84,2.84h-56.71c-1.57,0-2.84-1.27-2.84-2.84v-5.44c0-1.57,1.27-2.84,2.84-2.84Z"/>
            <path class="cls-23" d="M290.71,524.4h-10.5v11.11h10.5c1.3,0,2.36-1.05,2.36-2.36v-6.4c0-1.3-1.06-2.36-2.36-2.36Z"/>
            <rect class="cls-23" x="241.03" y="524.4" width="29.38" height="11.11"/>
            <path class="cls-1" d="M292.69,525.49c-.42-.65-1.15-1.09-1.98-1.09h-57.67c-.83,0-1.56.44-1.98,1.09h61.63Z"/>
            <path class="cls-1" d="M231.07,534.4c.42.66,1.14,1.11,1.98,1.11h57.67c.84,0,1.56-.44,1.98-1.11h-61.62Z"/>
          </g>
          <g>
            <rect class="cls-8" x="233.42" y="513.41" width="62.38" height="11.11" rx="2.84" ry="2.84"/>
            <path class="cls-23" d="M293.44,513.41h-10.5v11.11h10.5c1.3,0,2.36-1.06,2.36-2.36v-6.4c0-1.3-1.05-2.36-2.36-2.36Z"/>
            <rect class="cls-23" x="243.76" y="513.41" width="29.38" height="11.11"/>
            <path class="cls-1" d="M295.42,514.49c-.42-.65-1.15-1.09-1.98-1.09h-57.67c-.83,0-1.56.44-1.98,1.09h61.63Z"/>
            <path class="cls-1" d="M233.8,523.41c.41.66,1.14,1.11,1.98,1.11h57.67c.84,0,1.56-.45,1.98-1.11h-61.62Z"/>
          </g>
          <g>
            <path class="cls-8" d="M230.8,502.41h56.71c1.57,0,2.84,1.27,2.84,2.84v5.44c0,1.57-1.27,2.84-2.84,2.84h-56.71c-1.57,0-2.84-1.27-2.84-2.84v-5.44c0-1.57,1.27-2.84,2.84-2.84Z"/>
            <path class="cls-23" d="M287.98,502.41h-10.5v11.11h10.5c1.3,0,2.36-1.06,2.36-2.36v-6.4c0-1.3-1.06-2.36-2.36-2.36Z"/>
            <rect class="cls-23" x="238.29" y="502.41" width="29.38" height="11.11"/>
            <path class="cls-1" d="M289.96,503.5c-.42-.65-1.15-1.09-1.98-1.09h-57.67c-.83,0-1.56.43-1.98,1.09h61.63Z"/>
            <path class="cls-1" d="M228.34,512.42c.41.66,1.14,1.11,1.98,1.11h57.67c.84,0,1.56-.45,1.98-1.11h-61.62Z"/>
          </g>
          <g>
            <path class="cls-8" d="M234.74,491.42h56.71c1.57,0,2.84,1.27,2.84,2.84v5.44c0,1.57-1.27,2.84-2.84,2.84h-56.71c-1.57,0-2.84-1.27-2.84-2.84v-5.44c0-1.57,1.27-2.84,2.84-2.84Z"/>
            <path class="cls-23" d="M291.93,491.42h-10.5v11.11h10.5c1.3,0,2.36-1.05,2.36-2.36v-6.4c0-1.3-1.06-2.36-2.36-2.36Z"/>
            <rect class="cls-23" x="242.24" y="491.42" width="29.38" height="11.11"/>
            <path class="cls-1" d="M293.91,492.51c-.42-.65-1.15-1.09-1.98-1.09h-57.67c-.83,0-1.56.44-1.98,1.09h61.63Z"/>
            <path class="cls-1" d="M232.28,501.42c.41.66,1.14,1.11,1.98,1.11h57.67c.84,0,1.56-.45,1.98-1.11h-61.62Z"/>
          </g>
        </g>
        <g>
          <g>
            <rect class="cls-8" x="176.01" y="535.33" width="62.38" height="11.11" rx="2.84" ry="2.84"/>
            <path class="cls-23" d="M236.03,535.33h-10.5v11.11h10.5c1.3,0,2.36-1.05,2.36-2.36v-6.4c0-1.3-1.05-2.36-2.36-2.36Z"/>
            <rect class="cls-23" x="186.35" y="535.33" width="29.38" height="11.11"/>
            <path class="cls-1" d="M238.02,536.42c-.42-.65-1.15-1.09-1.98-1.09h-57.67c-.83,0-1.56.44-1.98,1.09h61.63Z"/>
            <path class="cls-1" d="M176.39,545.34c.41.66,1.14,1.11,1.98,1.11h57.67c.84,0,1.56-.45,1.98-1.11h-61.62Z"/>
          </g>
          <g>
            <rect class="cls-8" x="173.28" y="524.34" width="62.38" height="11.11" rx="2.84" ry="2.84"/>
            <path class="cls-23" d="M233.3,524.34h-10.5v11.11h10.5c1.3,0,2.36-1.06,2.36-2.36v-6.4c0-1.3-1.06-2.36-2.36-2.36Z"/>
            <rect class="cls-23" x="183.62" y="524.34" width="29.38" height="11.11"/>
            <path class="cls-1" d="M235.28,525.43c-.42-.65-1.15-1.09-1.98-1.09h-57.67c-.83,0-1.56.43-1.98,1.09h61.63Z"/>
            <path class="cls-1" d="M173.66,534.35c.42.66,1.14,1.11,1.98,1.11h57.67c.84,0,1.56-.45,1.98-1.11h-61.62Z"/>
          </g>
          <g>
            <path class="cls-8" d="M178.54,513.35h56.71c1.57,0,2.84,1.27,2.84,2.84v5.44c0,1.57-1.27,2.84-2.84,2.84h-56.71c-1.57,0-2.84-1.27-2.84-2.84v-5.44c0-1.57,1.27-2.84,2.84-2.84Z"/>
            <path class="cls-23" d="M235.73,513.35h-10.5v11.11h10.5c1.3,0,2.36-1.05,2.36-2.36v-6.4c0-1.3-1.06-2.36-2.36-2.36Z"/>
            <rect class="cls-23" x="186.04" y="513.35" width="29.38" height="11.11"/>
            <path class="cls-1" d="M237.71,514.43c-.42-.65-1.15-1.09-1.98-1.09h-57.67c-.83,0-1.56.44-1.98,1.09h61.63Z"/>
            <path class="cls-1" d="M176.09,523.35c.42.66,1.14,1.11,1.98,1.11h57.67c.84,0,1.56-.44,1.98-1.11h-61.62Z"/>
          </g>
          <g>
            <rect class="cls-8" x="178.44" y="502.35" width="62.38" height="11.11" rx="2.84" ry="2.84"/>
            <path class="cls-23" d="M238.46,502.35h-10.5v11.11h10.5c1.3,0,2.36-1.06,2.36-2.36v-6.4c0-1.3-1.05-2.36-2.36-2.36Z"/>
            <rect class="cls-23" x="188.77" y="502.35" width="29.38" height="11.11"/>
            <path class="cls-1" d="M240.44,503.44c-.42-.65-1.15-1.09-1.98-1.09h-57.67c-.83,0-1.56.44-1.98,1.09h61.63Z"/>
            <path class="cls-1" d="M178.82,512.36c.41.66,1.14,1.11,1.98,1.11h57.67c.84,0,1.56-.45,1.98-1.11h-61.62Z"/>
          </g>
          <g>
            <path class="cls-8" d="M175.81,491.36h56.71c1.57,0,2.84,1.27,2.84,2.84v5.44c0,1.57-1.27,2.84-2.84,2.84h-56.71c-1.57,0-2.84-1.27-2.84-2.84v-5.44c0-1.57,1.27-2.84,2.84-2.84Z"/>
            <path class="cls-23" d="M233,491.36h-10.5v11.11h10.5c1.3,0,2.36-1.06,2.36-2.36v-6.4c0-1.3-1.06-2.36-2.36-2.36Z"/>
            <rect class="cls-23" x="183.31" y="491.36" width="29.38" height="11.11"/>
            <path class="cls-1" d="M234.98,492.45c-.42-.65-1.15-1.09-1.98-1.09h-57.67c-.83,0-1.56.43-1.98,1.09h61.63Z"/>
            <path class="cls-1" d="M173.36,501.36c.41.66,1.14,1.11,1.98,1.11h57.67c.84,0,1.56-.45,1.98-1.11h-61.62Z"/>
          </g>
          <g>
            <path class="cls-8" d="M179.76,480.37h56.71c1.57,0,2.84,1.27,2.84,2.84v5.44c0,1.57-1.27,2.84-2.84,2.84h-56.71c-1.57,0-2.84-1.27-2.84-2.84v-5.44c0-1.57,1.27-2.84,2.84-2.84Z"/>
            <path class="cls-23" d="M236.94,480.37h-10.5v11.11h10.5c1.3,0,2.36-1.05,2.36-2.36v-6.4c0-1.3-1.06-2.36-2.36-2.36Z"/>
            <rect class="cls-23" x="187.26" y="480.37" width="29.38" height="11.11"/>
            <path class="cls-1" d="M238.93,481.45c-.42-.65-1.15-1.09-1.98-1.09h-57.67c-.83,0-1.56.44-1.98,1.09h61.63Z"/>
            <path class="cls-1" d="M177.3,490.37c.41.66,1.14,1.11,1.98,1.11h57.67c.84,0,1.56-.45,1.98-1.11h-61.62Z"/>
          </g>
        </g>
      </g>
    </g>
  </g>
  <g>
    <ellipse class="cls-19" cx="488.47" cy="313.42" rx="32.67" ry="30.79"/>
    <polygon class="cls-27" points="442.31 312.01 442.31 304.36 491.89 291.61 492.42 312.01 459.96 335.22 447.08 329.72 442.31 312.01"/>
    <path class="cls-11" d="M491.89,291.61l-49.57,12.75v7.65l.55,2.03c2.85,1.87,10.16,6.01,19.41,5.68,12.29-.43,22.57-8.56,29.87-18.45l-.25-9.66Z"/>
    <path class="cls-22" d="M405.75,467.97c-2.46,4.11-5.01,9-7.32,14.65-3.09,7.56-4.95,14.53-6.1,20.38h140.2c-1.81-6.36-3.96-13.1-6.55-20.13-2.3-6.27-4.71-12.13-7.14-17.58-37.7.89-75.4,1.79-113.1,2.68Z"/>
    <path class="cls-18" d="M442.31,312.01l-8.65,12.48c-6.79,2-14.49,4.79-22.69,8.7-5.57,2.66-10.55,5.46-14.94,8.2v89.15l9.73,37.43c14.21,1.21,29.49,1.96,45.72,1.98,24.59.04,47.17-1.59,67.35-4.06,3.34-15.54,6.69-31.08,10.03-46.62l25.56-77.28h0c-4.53-3.6-9.64-6.38-15.12-8.23l-33.38-11.29-11.47-15.09-34.48,27.84-17.64-23.21Z"/>
    <path class="cls-18" d="M396.03,341.39c-1.76,1.31-4.33,3.39-7.06,6.29-5.45,5.78-8,11.04-11.07,16.9-6.72,12.87-6.92,11.46-12.19,21.68-12.56,24.35-22.04,52.9-24.15,59.37l-3.62,7.04c.61,1.78,2.51,6.5,7.36,9.58,6.32,4.01,13.14,2.36,15.16,1.88,5.49-1.32,9.33-4.28,17.98-14.22,7.22-8.3,13.05-15.34,17.59-20.98,5.32-10.87,10.64-21.73,15.97-32.6l-15.97-54.94Z"/>
    <path class="cls-27" d="M361.88,350.04l5.26-13.69c2.87-7.47,2.68-15.77-.5-23.12-1.19-2.74-2.4-5.5-3.65-8.28-4.2-9.34-8.47-18.26-12.77-26.76-1.56-1.73-4-2.08-5.64-1.01-1.79,1.16-1.8,3.46-1.8,3.63,2.43,7.22,4.85,14.44,7.28,21.66.2.61-.09,1.27-.67,1.53-3.16,1.41-6.32,2.81-9.47,4.22-4.28,1.9-7.66,5.42-9.27,9.82-.02.04-.03.08-.05.13-1.43,4.01-1.3,7.49-1.1,9.33l8.45,20.12c-.87,7.76-1.75,15.51-2.62,23.27-1.05,4.07-1.87,7.89-2.54,11.44,11.11-2.38,21.68-6.81,30.28-14.65-.54-5.29-.97-11.18-1.17-17.65Z"/>
    <path class="cls-18" d="M371.34,439.6l-33.41,13.08c-.94-1.91-2.23-4.74-3.5-8.27-6.59-18.29-5.07-34.68-3.65-48.35.67-6.43,1.93-15.07,4.53-25.16.02-.15.04-.3.05-.46,4.34-.29,8.93-.74,13.74-1.39,4.9-.67,9.52-1.48,13.86-2.37.77,7.89,1.81,14.47,2.75,19.58,2.12,11.47,4.51,19.47,5.49,33.1.62,8.59.41,15.66.14,20.23Z"/>
    <path class="cls-6" d="M362.95,366.68c.77,7.89,1.81,14.47,2.75,19.58,2.12,11.47,4.51,19.47,5.49,33.1.62,8.59.41,15.66.14,20.23"/>
    <path class="cls-18" d="M532.54,503.01c-.23-19.97-1.08-40.95-2.72-62.84-1-13.29-2.23-26.19-3.66-38.67,8.91-20.24,17.81-40.48,26.72-60.71,1.51,1.14,4.06,3.25,6.52,6.41,7.28,9.35,7.86,20.21,8.05,24.95,1.11,27.77.13,77.05.41,98.21.1,7.36.45,18.68,1.77,32.65h-37.1Z"/>
    <path class="cls-6" d="M530.24,446c-.13-1.94-.27-3.88-.42-5.83-1-13.29-2.23-26.19-3.66-38.67"/>
    <path class="cls-19" d="M417.83,248.55c2.3,24.66,21.38,56.65,49.64,56.65,30.02,0,46.64-35.05,49.64-56.65.86-6.18,2.54-19.7-5.19-33.01-13.22-22.78-42.1-23.61-44.45-23.64-4.44-.06-21.42-.29-34.98,12.24-17.32,15.99-15.09,39.86-14.66,44.41Z"/>
    <ellipse class="cls-19" cx="426.92" cy="267.74" rx="15.76" ry="15.4" transform="translate(120.63 667.91) rotate(-84.66)"/>
    <path class="cls-27" d="M424.38,231.47c-6.34,15.11-2.86,28.57,1.54,45.62,3.22,12.46,6.08,22.92,15.97,29.99,1.68,1.2,9.75,6.72,20.38,6.35,19.92-.7,34.54-21.59,39.79-37.47.6-1.82,9.67-30.88-8.72-53.87-3.12-3.9-16.9-21.12-36.49-19.05-20.67,2.18-30.61,24.01-32.47,28.44Z"/>
    <path class="cls-19" d="M425.92,277.08c-.6-2.84-1.3-6.91-1.53-11.85-.43-8.82-1.38-28.66,11.67-41.96,2.83-2.88,9.76-8.97,22.44-11.27.75-1.91,1.5-3.81,2.25-5.72.39,2.14.78,4.28,1.17,6.42,4.8,1.19,15.9,4.66,24.95,14.89,15.23,17.2,11.9,39.03,11.37,42.15,2.98-6.39,5.95-12.77,8.93-19.16l-10.2-33.76-15.56-16.77-21.26-4.29c-5.73,2.52-10.58,3.97-14.02,4.83-4.72,1.19-6.75,1.26-9.6,2.72-4.92,2.51-7.78,6.82-9.45,10.16-2.91,6.82-5.82,13.64-8.73,20.46.31,4.58.63,9.17.94,13.75,1.39,3.85,1.76,6.99,1.86,9.14.15,3.47-.43,4.75.32,7.86.5,2.05,1.05,2.68,2.36,6.1,1.03,2.67,1.7,4.89,2.1,6.3Z"/>
    <path class="cls-19" d="M448.06,244.52c-.61,1.06-3.82-.48-8.69-.51-1.92-.01-3.31-.02-5.02.6-3.03,1.1-4.55,3.26-5.03,2.89-.39-.29.15-2.01,1.12-3.38,3.18-4.48,10.09-4,10.5-3.97.33.03,6.14.57,7.09,3.45.09.29.2.63.04.91Z"/>
    <path class="cls-19" d="M467.16,244.87c.7,1,3.76-.82,8.61-1.3,1.91-.19,3.29-.32,5.06.15,3.11.82,4.82,2.84,5.27,2.42.36-.33-.33-1.98-1.42-3.26-3.58-4.17-10.41-3.07-10.82-3-.33.06-6.07,1.12-6.74,4.07-.07.29-.14.64.05.91Z"/>
    <ellipse class="cls-19" cx="441.29" cy="257.52" rx="3.57" ry="4.98"/>
    <ellipse class="cls-19" cx="475.6" cy="257.52" rx="3.57" ry="4.98"/>
    <path class="cls-5" d="M455.8,253.48c-.37,1.46-1.04,3.82-2.1,6.63-2.66,7.01-5.08,9.59-4.02,13.08.14.46.88,2.74,3.15,3.96,2.33,1.25,4.73.56,5.29.38"/>
    <path class="cls-18" d="M448.25,285.17c3.02.23,6.5.3,10.34.03,5.22-.38,9.76-1.3,13.44-2.31-2.14,7.89-9.33,12.27-15.25,10.89-6.01-1.39-8.38-8.17-8.53-8.61Z"/>
    <path class="cls-6" d="M432.52,325.66s3.52,20.53,8.85,29.18l17.95-18.31s13.65,16.39,18.98,23.54c0,0,21.53-20.43,26.77-37.13"/>
    <path class="cls-6" d="M459.32,336.53c-.54,6.38-1.57,15.95-3.69,27.53-2.01,10.95-3.39,14.91-4.96,24.02-2.18,12.62-2.49,22.04-2.82,32.33-.4,12.31-.21,28.49,1.95,47.56"/>
    <circle class="cls-10" cx="454.66" cy="434.97" r="2.31"/>
    <circle class="cls-10" cx="456.4" cy="399.01" r="2.31"/>
    <circle class="cls-10" cx="462.3" cy="361.51" r="2.31"/>
    <path class="cls-6" d="M392.34,359.2c.63,3.65,1.31,8.33,1.81,13.82.26,2.86.65,7.17.67,11.81.06,13.95-3.31,17.45-2.55,28.58.19,2.8.7,6.91,2.21,11.87"/>
    <path class="cls-6" d="M544.68,349.07s-16.3,15.29-18.51,39.65"/>
    <path class="cls-6" d="M335.05,389.89s16.6-1.11,28.28-5.53"/>
    <path class="cls-5" d="M351.12,337.16l5.46-13.31c.82-1.99.34-4.28-1.2-5.78l-4.24-4.12c-.47-.46-.77-1.07-.83-1.72-.13-1.46.54-3.49,6.32-1.33,8.35,3.12,9.36,1.8,9.36,1.8"/>
    <path class="cls-5" d="M336.79,321.57l3.12,5.65c1.39,2.51,4.75,3.07,6.88,1.14l.14-.13c1.4-1.27,1.84-3.29,1.1-5.03l-5-11.68"/>
    <path class="cls-5" d="M348.38,324.87c1.82,1.55,4.47,1.73,6.49.37.52-.35,1.04-.7,1.56-1.05"/>
    <line class="cls-5" x1="352.28" y1="309.96" x2="349.27" y2="305.37"/>
    <path class="cls-19" d="M499.49,281.97l-10.77,13.81c-1.37,1.75-3.49,2.76-5.71,2.7-2.43-.06-4.44-.11-5.92-.16-3.88-.12-5.25-.2-5.96.77-1.14,1.54-.08,4.97,2.08,6.1.71.37,1.7.58,4.55-.17,2.03-.53,4.92-1.52,8.19-3.52,1.66-1.32,3.4-2.86,5.15-4.65,4.43-4.53,7.42-9.13,9.42-12.89-1.06-.69.02-1.31-1.03-2Z"/>
    <path class="cls-19" d="M505.81,253.48c-9.2,7.31-10.66,30.18-2.68,34.61,1.64.91,3.34.84,4.02.81,7.36-.33,11.9-10.15,12.91-12.33,3.32-7.18,5.32-19.12-.4-23.76-1.64-1.33-4.22-2.3-6.87-2.21-3.5.12-5.95,2.06-6.98,2.88Z"/>
    <ellipse class="cls-21" cx="513.49" cy="268.04" rx="13.33" ry="8.45" transform="translate(198.85 754.38) rotate(-84.66)"/>
    <path class="cls-21" d="M509.83,254.01s1.48-32.43-16.5-47.73c.87.21,1.7.48,2.49.8,16.4,6.65,18.05,36.82,18.31,45.36-1.43.53-2.86,1.05-4.29,1.58Z"/>
  </g>
  <path class="cls-15" d="M21.13,214.04h326.19c9.83,0,17.81,7.98,17.81,17.81v91.04c0,9.83-7.98,17.81-17.81,17.81H21.13v-126.66h0Z"/>
  <g>
    <g>
      <path class="cls-7" d="M49.34,164.89c-1.16-1.24-1.74-2.96-1.74-5.16v-24.55h8.97v22.13c0,.94.2,1.61.59,2.01.39.39,1.04.59,1.95.59h2.07v6.85h-6.85c-2.16,0-3.83-.62-4.99-1.86Z"/>
      <path class="cls-7" d="M64.83,139.13h8.91l6.73,20.95c2.91,0,5.15-.88,6.73-2.63,1.57-1.75,2.36-4.24,2.36-7.47,0-2.91-.55-5.1-1.65-6.55-1.1-1.46-2.79-2.18-5.08-2.18-1.26,0-2.52.2-3.78.59v-6.73c1.65-.55,3.52-.83,5.61-.83,4.68,0,8.19,1.37,10.54,4.1,2.34,2.74,3.51,6.6,3.51,11.6,0,3.5-.77,6.51-2.3,9.03-1.53,2.52-3.61,4.44-6.23,5.75-2.62,1.32-5.48,1.98-8.59,1.98h-7.91l-8.85-27.62Z"/>
      <path class="cls-7" d="M70.2,125.61h27.33v5.67h-27.33v-5.67Z"/>
      <path class="cls-7" d="M109.39,166.04c-1.85-1.06-3.26-2.52-4.22-4.37-.96-1.85-1.45-3.91-1.45-6.2v-20.3h8.97v19.77c0,3.82,2.03,5.72,6.08,5.72,1.65,0,3.08-.34,4.28-1.03,1.2-.69,2.25-1.76,3.16-3.22v-21.25h8.91v31.58h-8.5v-3.54c-1.38,1.46-3,2.56-4.87,3.3-1.87.75-3.79,1.12-5.75,1.12-2.56,0-4.76-.53-6.61-1.59Z"/>
      <path class="cls-7" d="M143.36,164.92c-2.15-1.81-3.22-4.37-3.22-7.67s1.17-5.9,3.51-7.79c2.34-1.89,5.56-2.83,9.65-2.83,3.82,0,7.08.63,9.8,1.89v-1.24c0-2.12-.7-3.7-2.1-4.72-1.4-1.02-3.65-1.54-6.76-1.54-1.93,0-3.82.2-5.67.59-1.85.39-3.5.94-4.96,1.65v-6.73c1.3-.63,3.09-1.16,5.37-1.59,2.28-.43,4.58-.65,6.91-.65,2.64,0,5.1.39,7.38,1.18l2.3-2.66h9.74l-5.84,6.79c1.69,1.93,2.54,4.47,2.54,7.61v19.54h-8.91v-11.75c-2.28-1.18-4.96-1.77-8.03-1.77-2.01,0-3.47.33-4.4,1-.92.67-1.39,1.71-1.39,3.13,0,1.3.42,2.27,1.27,2.92.85.65,2.19.97,4.04.97,1.3,0,2.4-.2,3.31-.59v6.2c-1.53.51-3.5.77-5.9.77-3.62,0-6.5-.91-8.65-2.72Z"/>
      <path class="cls-7" d="M182.05,163.56c-2.83-2.71-4.25-6.69-4.25-11.92s1.63-9.73,4.9-12.78c3.27-3.05,7.77-4.57,13.52-4.57s10.32,1.38,13.13,4.13c2.81,2.75,4.22,6.37,4.22,10.86v17.47h-8.91v-17.53c0-2.6-.66-4.57-1.98-5.93-1.32-1.36-3.47-2.04-6.46-2.04-2.83,0-5.08.89-6.73,2.66-1.65,1.77-2.48,4.35-2.48,7.73,0,3.11.68,5.39,2.04,6.85,1.36,1.46,3.43,2.18,6.23,2.18,1.49,0,2.83-.22,4.01-.65v6.85c-1.53.51-3.42.77-5.67.77-4.88,0-8.73-1.36-11.57-4.07Z"/>
      <path class="cls-7" d="M222.83,163.56c-2.83-2.71-4.25-6.69-4.25-11.92s1.63-9.73,4.9-12.78c3.27-3.05,7.77-4.57,13.52-4.57s10.32,1.38,13.13,4.13c2.81,2.75,4.22,6.37,4.22,10.86v17.47h-8.91v-17.53c0-2.6-.66-4.57-1.98-5.93-1.32-1.36-3.47-2.04-6.46-2.04-2.83,0-5.08.89-6.73,2.66-1.65,1.77-2.48,4.35-2.48,7.73,0,3.11.68,5.39,2.04,6.85,1.36,1.46,3.43,2.18,6.23,2.18,1.49,0,2.83-.22,4.01-.65v6.85c-1.53.51-3.42.77-5.67.77-4.88,0-8.73-1.36-11.57-4.07Z"/>
      <path class="cls-7" d="M245.44,120.77h8.97v10.5h-8.97v-10.5Z"/>
      <path class="cls-7" d="M259.36,165.1v-6.96c2.44,1.69,5.78,2.54,10.03,2.54,3.31,0,5.86-.8,7.67-2.39,1.81-1.59,2.71-4.02,2.71-7.29s-.91-5.7-2.71-7.32c-1.81-1.61-4.37-2.42-7.67-2.42-4.09,0-7.36.87-9.8,2.6v-6.96c1.38-.87,3.09-1.51,5.14-1.95,2.05-.43,4.25-.65,6.61-.65,5.51,0,9.83,1.47,12.96,4.4,3.13,2.93,4.69,7.03,4.69,12.31s-1.56,9.37-4.69,12.28c-3.13,2.91-7.45,4.37-12.96,4.37s-9.23-.85-11.98-2.54Z"/>
      <path class="cls-7" d="M299.62,166.04c-1.85-1.06-3.26-2.52-4.22-4.37-.96-1.85-1.45-3.91-1.45-6.2v-20.3h8.97v19.77c0,3.82,2.03,5.72,6.08,5.72,1.65,0,3.08-.34,4.28-1.03,1.2-.69,2.25-1.76,3.16-3.22v-21.25h8.91v31.58h-8.5v-3.54c-1.38,1.46-3,2.56-4.87,3.3-1.87.75-3.79,1.12-5.75,1.12-2.56,0-4.76-.53-6.61-1.59Z"/>
      <path class="cls-7" d="M357.4,166.84c-2.56-.53-4.68-1.27-6.37-2.21v-16.58h14.93v6.55h-6.14v5.08c1.22.67,3.01,1,5.37,1,6.26,0,9.38-3.27,9.38-9.8,0-3.34-.91-5.78-2.71-7.32-1.81-1.53-4.86-2.3-9.15-2.3-1.97,0-3.98.21-6.05.62-2.07.41-3.81.99-5.22,1.74v-6.96c1.61-.75,3.56-1.33,5.84-1.74,2.28-.41,4.66-.62,7.14-.62,6.33,0,11.15,1.45,14.43,4.34,3.28,2.89,4.93,6.97,4.93,12.25s-1.61,9.29-4.84,12.28c-3.23,2.99-7.81,4.49-13.75,4.49-2.64,0-5.23-.27-7.79-.8Z"/>
      <path class="cls-7" d="M394.4,166.04c-1.85-1.06-3.26-2.52-4.22-4.37-.96-1.85-1.45-3.91-1.45-6.2v-20.3h8.97v19.77c0,3.82,2.03,5.72,6.08,5.72,1.65,0,3.08-.34,4.28-1.03,1.2-.69,2.25-1.76,3.16-3.22v-21.25h8.91v31.58h-8.5v-3.54c-1.38,1.46-3,2.56-4.87,3.3-1.87.75-3.79,1.12-5.75,1.12-2.56,0-4.76-.53-6.61-1.59Z"/>
      <path class="cls-7" d="M412.4,177.14c0-.71-.14-1.21-.41-1.5-.27-.29-.77-.44-1.48-.44h-1.95v-5.67h6.2c2.12,0,3.59.43,4.4,1.3.81.87,1.21,2.36,1.21,4.49v7.61h-7.97v-5.78Z"/>
      <path class="cls-7" d="M439.73,166.51c-1.85-.75-3.46-1.85-4.84-3.3v3.54h-8.56v-31.58h8.97v21.25c.87,1.46,1.91,2.53,3.13,3.22,1.22.69,2.66,1.03,4.31,1.03,4.05,0,6.08-1.91,6.08-5.72v-19.77h8.91v20.3c0,2.28-.47,4.35-1.42,6.2-.94,1.85-2.34,3.31-4.19,4.37-1.85,1.06-4.07,1.59-6.67,1.59-1.97,0-3.88-.38-5.73-1.12Z"/>
      <path class="cls-7" d="M439.91,125.55v-4.31h8.03v2.89c0,.55.11.94.32,1.15s.62.32,1.21.32h13.46v5.67h-17.35c-3.78,0-5.67-1.91-5.67-5.72Z"/>
      <path class="cls-7" d="M467,163.59c-2.83-2.7-4.25-6.66-4.25-11.89,0-3.58.51-6.68,1.53-9.3,1.02-2.62,2.47-4.62,4.34-6.02,1.87-1.4,4.02-2.09,6.46-2.09,1.46,0,2.72.28,3.81.83,1.08.55,1.96,1.32,2.63,2.3.75-1.06,1.78-1.85,3.1-2.36,1.32-.51,2.8-.77,4.46-.77,2.99,0,5.31.91,6.96,2.74,1.65,1.83,2.48,4.24,2.48,7.23v22.49h-8.91v-21.6c0-1.34-.21-2.32-.62-2.95-.41-.63-1.11-.94-2.1-.94-1.73,0-2.81,1.06-3.25,3.19h-4.19c-.28-2.12-1.2-3.19-2.77-3.19-1.42,0-2.56.89-3.42,2.66-.87,1.77-1.3,4.37-1.3,7.79,0,3.07.66,5.33,1.98,6.79,1.32,1.46,3.41,2.18,6.29,2.18,1.49,0,2.83-.22,4.01-.65v6.85c-1.53.51-3.42.77-5.67.77-4.88,0-8.73-1.35-11.57-4.04Z"/>
      <path class="cls-7" d="M471.19,125.61h27.33v5.67h-27.33v-5.67Z"/>
      <path class="cls-7" d="M508.28,164.89c-1.16-1.24-1.74-2.96-1.74-5.16v-20.36c0-4.64,1.36-8.01,4.07-10.09h-9.74v-6.91h21.07v6.32c-2.28.91-3.94,2.18-4.96,3.84-1.02,1.65-1.53,3.88-1.53,6.67v18.12c0,.94.2,1.61.59,2.01.39.39,1.06.59,2.01.59h2.07v6.85h-6.85c-2.16,0-3.83-.62-4.99-1.86Z"/>
      <path class="cls-7" d="M523.95,165.1v-6.96c2.44,1.69,5.78,2.54,10.03,2.54,3.31,0,5.86-.8,7.67-2.39,1.81-1.59,2.71-4.02,2.71-7.29s-.91-5.7-2.71-7.32c-1.81-1.61-4.37-2.42-7.67-2.42-4.09,0-7.36.87-9.8,2.6v-6.96c1.38-.87,3.09-1.51,5.14-1.95,2.05-.43,4.25-.65,6.61-.65,5.51,0,9.83,1.47,12.96,4.4,3.13,2.93,4.69,7.03,4.69,12.31s-1.56,9.37-4.69,12.28c-3.13,2.91-7.45,4.37-12.96,4.37s-9.23-.85-11.98-2.54Z"/>
    </g>
    <g>
      <path class="cls-3" d="M49.34,164.89c-1.16-1.24-1.74-2.96-1.74-5.16v-24.55h8.97v22.13c0,.94.2,1.61.59,2.01.39.39,1.04.59,1.95.59h2.07v6.85h-6.85c-2.16,0-3.83-.62-4.99-1.86Z"/>
      <path class="cls-3" d="M64.83,139.13h8.91l6.73,20.95c2.91,0,5.15-.88,6.73-2.63,1.57-1.75,2.36-4.24,2.36-7.47,0-2.91-.55-5.1-1.65-6.55-1.1-1.46-2.79-2.18-5.08-2.18-1.26,0-2.52.2-3.78.59v-6.73c1.65-.55,3.52-.83,5.61-.83,4.68,0,8.19,1.37,10.54,4.1,2.34,2.74,3.51,6.6,3.51,11.6,0,3.5-.77,6.51-2.3,9.03-1.53,2.52-3.61,4.44-6.23,5.75-2.62,1.32-5.48,1.98-8.59,1.98h-7.91l-8.85-27.62Z"/>
      <path class="cls-3" d="M70.2,125.61h27.33v5.67h-27.33v-5.67Z"/>
      <path class="cls-3" d="M109.39,166.04c-1.85-1.06-3.26-2.52-4.22-4.37-.96-1.85-1.45-3.91-1.45-6.2v-20.3h8.97v19.77c0,3.82,2.03,5.72,6.08,5.72,1.65,0,3.08-.34,4.28-1.03,1.2-.69,2.25-1.76,3.16-3.22v-21.25h8.91v31.58h-8.5v-3.54c-1.38,1.46-3,2.56-4.87,3.3-1.87.75-3.79,1.12-5.75,1.12-2.56,0-4.76-.53-6.61-1.59Z"/>
      <path class="cls-3" d="M143.36,164.92c-2.15-1.81-3.22-4.37-3.22-7.67s1.17-5.9,3.51-7.79c2.34-1.89,5.56-2.83,9.65-2.83,3.82,0,7.08.63,9.8,1.89v-1.24c0-2.12-.7-3.7-2.1-4.72-1.4-1.02-3.65-1.54-6.76-1.54-1.93,0-3.82.2-5.67.59-1.85.39-3.5.94-4.96,1.65v-6.73c1.3-.63,3.09-1.16,5.37-1.59,2.28-.43,4.58-.65,6.91-.65,2.64,0,5.1.39,7.38,1.18l2.3-2.66h9.74l-5.84,6.79c1.69,1.93,2.54,4.47,2.54,7.61v19.54h-8.91v-11.75c-2.28-1.18-4.96-1.77-8.03-1.77-2.01,0-3.47.33-4.4,1-.92.67-1.39,1.71-1.39,3.13,0,1.3.42,2.27,1.27,2.92.85.65,2.19.97,4.04.97,1.3,0,2.4-.2,3.31-.59v6.2c-1.53.51-3.5.77-5.9.77-3.62,0-6.5-.91-8.65-2.72Z"/>
      <path class="cls-3" d="M182.05,163.56c-2.83-2.71-4.25-6.69-4.25-11.92s1.63-9.73,4.9-12.78c3.27-3.05,7.77-4.57,13.52-4.57s10.32,1.38,13.13,4.13c2.81,2.75,4.22,6.37,4.22,10.86v17.47h-8.91v-17.53c0-2.6-.66-4.57-1.98-5.93-1.32-1.36-3.47-2.04-6.46-2.04-2.83,0-5.08.89-6.73,2.66-1.65,1.77-2.48,4.35-2.48,7.73,0,3.11.68,5.39,2.04,6.85,1.36,1.46,3.43,2.18,6.23,2.18,1.49,0,2.83-.22,4.01-.65v6.85c-1.53.51-3.42.77-5.67.77-4.88,0-8.73-1.36-11.57-4.07Z"/>
      <path class="cls-3" d="M222.83,163.56c-2.83-2.71-4.25-6.69-4.25-11.92s1.63-9.73,4.9-12.78c3.27-3.05,7.77-4.57,13.52-4.57s10.32,1.38,13.13,4.13c2.81,2.75,4.22,6.37,4.22,10.86v17.47h-8.91v-17.53c0-2.6-.66-4.57-1.98-5.93-1.32-1.36-3.47-2.04-6.46-2.04-2.83,0-5.08.89-6.73,2.66-1.65,1.77-2.48,4.35-2.48,7.73,0,3.11.68,5.39,2.04,6.85,1.36,1.46,3.43,2.18,6.23,2.18,1.49,0,2.83-.22,4.01-.65v6.85c-1.53.51-3.42.77-5.67.77-4.88,0-8.73-1.36-11.57-4.07Z"/>
      <path class="cls-3" d="M245.44,120.77h8.97v10.5h-8.97v-10.5Z"/>
      <path class="cls-3" d="M259.36,165.1v-6.96c2.44,1.69,5.78,2.54,10.03,2.54,3.31,0,5.86-.8,7.67-2.39,1.81-1.59,2.71-4.02,2.71-7.29s-.91-5.7-2.71-7.32c-1.81-1.61-4.37-2.42-7.67-2.42-4.09,0-7.36.87-9.8,2.6v-6.96c1.38-.87,3.09-1.51,5.14-1.95,2.05-.43,4.25-.65,6.61-.65,5.51,0,9.83,1.47,12.96,4.4,3.13,2.93,4.69,7.03,4.69,12.31s-1.56,9.37-4.69,12.28c-3.13,2.91-7.45,4.37-12.96,4.37s-9.23-.85-11.98-2.54Z"/>
      <path class="cls-3" d="M299.62,166.04c-1.85-1.06-3.26-2.52-4.22-4.37-.96-1.85-1.45-3.91-1.45-6.2v-20.3h8.97v19.77c0,3.82,2.03,5.72,6.08,5.72,1.65,0,3.08-.34,4.28-1.03,1.2-.69,2.25-1.76,3.16-3.22v-21.25h8.91v31.58h-8.5v-3.54c-1.38,1.46-3,2.56-4.87,3.3-1.87.75-3.79,1.12-5.75,1.12-2.56,0-4.76-.53-6.61-1.59Z"/>
      <path class="cls-3" d="M357.4,166.84c-2.56-.53-4.68-1.27-6.37-2.21v-16.58h14.93v6.55h-6.14v5.08c1.22.67,3.01,1,5.37,1,6.26,0,9.38-3.27,9.38-9.8,0-3.34-.91-5.78-2.71-7.32-1.81-1.53-4.86-2.3-9.15-2.3-1.97,0-3.98.21-6.05.62-2.07.41-3.81.99-5.22,1.74v-6.96c1.61-.75,3.56-1.33,5.84-1.74,2.28-.41,4.66-.62,7.14-.62,6.33,0,11.15,1.45,14.43,4.34,3.28,2.89,4.93,6.97,4.93,12.25s-1.61,9.29-4.84,12.28c-3.23,2.99-7.81,4.49-13.75,4.49-2.64,0-5.23-.27-7.79-.8Z"/>
      <path class="cls-3" d="M394.4,166.04c-1.85-1.06-3.26-2.52-4.22-4.37-.96-1.85-1.45-3.91-1.45-6.2v-20.3h8.97v19.77c0,3.82,2.03,5.72,6.08,5.72,1.65,0,3.08-.34,4.28-1.03,1.2-.69,2.25-1.76,3.16-3.22v-21.25h8.91v31.58h-8.5v-3.54c-1.38,1.46-3,2.56-4.87,3.3-1.87.75-3.79,1.12-5.75,1.12-2.56,0-4.76-.53-6.61-1.59Z"/>
      <path class="cls-3" d="M412.4,177.14c0-.71-.14-1.21-.41-1.5-.27-.29-.77-.44-1.48-.44h-1.95v-5.67h6.2c2.12,0,3.59.43,4.4,1.3.81.87,1.21,2.36,1.21,4.49v7.61h-7.97v-5.78Z"/>
      <path class="cls-3" d="M439.73,166.51c-1.85-.75-3.46-1.85-4.84-3.3v3.54h-8.56v-31.58h8.97v21.25c.87,1.46,1.91,2.53,3.13,3.22,1.22.69,2.66,1.03,4.31,1.03,4.05,0,6.08-1.91,6.08-5.72v-19.77h8.91v20.3c0,2.28-.47,4.35-1.42,6.2-.94,1.85-2.34,3.31-4.19,4.37-1.85,1.06-4.07,1.59-6.67,1.59-1.97,0-3.88-.38-5.73-1.12Z"/>
      <path class="cls-3" d="M439.91,125.55v-4.31h8.03v2.89c0,.55.11.94.32,1.15s.62.32,1.21.32h13.46v5.67h-17.35c-3.78,0-5.67-1.91-5.67-5.72Z"/>
      <path class="cls-3" d="M467,163.59c-2.83-2.7-4.25-6.66-4.25-11.89,0-3.58.51-6.68,1.53-9.3,1.02-2.62,2.47-4.62,4.34-6.02,1.87-1.4,4.02-2.09,6.46-2.09,1.46,0,2.72.28,3.81.83,1.08.55,1.96,1.32,2.63,2.3.75-1.06,1.78-1.85,3.1-2.36,1.32-.51,2.8-.77,4.46-.77,2.99,0,5.31.91,6.96,2.74,1.65,1.83,2.48,4.24,2.48,7.23v22.49h-8.91v-21.6c0-1.34-.21-2.32-.62-2.95-.41-.63-1.11-.94-2.1-.94-1.73,0-2.81,1.06-3.25,3.19h-4.19c-.28-2.12-1.2-3.19-2.77-3.19-1.42,0-2.56.89-3.42,2.66-.87,1.77-1.3,4.37-1.3,7.79,0,3.07.66,5.33,1.98,6.79,1.32,1.46,3.41,2.18,6.29,2.18,1.49,0,2.83-.22,4.01-.65v6.85c-1.53.51-3.42.77-5.67.77-4.88,0-8.73-1.35-11.57-4.04Z"/>
      <path class="cls-3" d="M471.19,125.61h27.33v5.67h-27.33v-5.67Z"/>
      <path class="cls-3" d="M508.28,164.89c-1.16-1.24-1.74-2.96-1.74-5.16v-20.36c0-4.64,1.36-8.01,4.07-10.09h-9.74v-6.91h21.07v6.32c-2.28.91-3.94,2.18-4.96,3.84-1.02,1.65-1.53,3.88-1.53,6.67v18.12c0,.94.2,1.61.59,2.01.39.39,1.06.59,2.01.59h2.07v6.85h-6.85c-2.16,0-3.83-.62-4.99-1.86Z"/>
      <path class="cls-3" d="M523.95,165.1v-6.96c2.44,1.69,5.78,2.54,10.03,2.54,3.31,0,5.86-.8,7.67-2.39,1.81-1.59,2.71-4.02,2.71-7.29s-.91-5.7-2.71-7.32c-1.81-1.61-4.37-2.42-7.67-2.42-4.09,0-7.36.87-9.8,2.6v-6.96c1.38-.87,3.09-1.51,5.14-1.95,2.05-.43,4.25-.65,6.61-.65,5.51,0,9.83,1.47,12.96,4.4,3.13,2.93,4.69,7.03,4.69,12.31s-1.56,9.37-4.69,12.28c-3.13,2.91-7.45,4.37-12.96,4.37s-9.23-.85-11.98-2.54Z"/>
    </g>
    <g>
      <path class="cls-24" d="M49.34,164.89c-1.16-1.24-1.74-2.96-1.74-5.16v-24.55h8.97v22.13c0,.94.2,1.61.59,2.01.39.39,1.04.59,1.95.59h2.07v6.85h-6.85c-2.16,0-3.83-.62-4.99-1.86Z"/>
      <path class="cls-24" d="M64.83,139.13h8.91l6.73,20.95c2.91,0,5.15-.88,6.73-2.63,1.57-1.75,2.36-4.24,2.36-7.47,0-2.91-.55-5.1-1.65-6.55-1.1-1.46-2.79-2.18-5.08-2.18-1.26,0-2.52.2-3.78.59v-6.73c1.65-.55,3.52-.83,5.61-.83,4.68,0,8.19,1.37,10.54,4.1,2.34,2.74,3.51,6.6,3.51,11.6,0,3.5-.77,6.51-2.3,9.03-1.53,2.52-3.61,4.44-6.23,5.75-2.62,1.32-5.48,1.98-8.59,1.98h-7.91l-8.85-27.62Z"/>
      <path class="cls-24" d="M70.2,125.61h27.33v5.67h-27.33v-5.67Z"/>
      <path class="cls-24" d="M109.39,166.04c-1.85-1.06-3.26-2.52-4.22-4.37-.96-1.85-1.45-3.91-1.45-6.2v-20.3h8.97v19.77c0,3.82,2.03,5.72,6.08,5.72,1.65,0,3.08-.34,4.28-1.03,1.2-.69,2.25-1.76,3.16-3.22v-21.25h8.91v31.58h-8.5v-3.54c-1.38,1.46-3,2.56-4.87,3.3-1.87.75-3.79,1.12-5.75,1.12-2.56,0-4.76-.53-6.61-1.59Z"/>
      <path class="cls-24" d="M143.36,164.92c-2.15-1.81-3.22-4.37-3.22-7.67s1.17-5.9,3.51-7.79c2.34-1.89,5.56-2.83,9.65-2.83,3.82,0,7.08.63,9.8,1.89v-1.24c0-2.12-.7-3.7-2.1-4.72-1.4-1.02-3.65-1.54-6.76-1.54-1.93,0-3.82.2-5.67.59-1.85.39-3.5.94-4.96,1.65v-6.73c1.3-.63,3.09-1.16,5.37-1.59,2.28-.43,4.58-.65,6.91-.65,2.64,0,5.1.39,7.38,1.18l2.3-2.66h9.74l-5.84,6.79c1.69,1.93,2.54,4.47,2.54,7.61v19.54h-8.91v-11.75c-2.28-1.18-4.96-1.77-8.03-1.77-2.01,0-3.47.33-4.4,1-.92.67-1.39,1.71-1.39,3.13,0,1.3.42,2.27,1.27,2.92.85.65,2.19.97,4.04.97,1.3,0,2.4-.2,3.31-.59v6.2c-1.53.51-3.5.77-5.9.77-3.62,0-6.5-.91-8.65-2.72Z"/>
      <path class="cls-24" d="M182.05,163.56c-2.83-2.71-4.25-6.69-4.25-11.92s1.63-9.73,4.9-12.78c3.27-3.05,7.77-4.57,13.52-4.57s10.32,1.38,13.13,4.13c2.81,2.75,4.22,6.37,4.22,10.86v17.47h-8.91v-17.53c0-2.6-.66-4.57-1.98-5.93-1.32-1.36-3.47-2.04-6.46-2.04-2.83,0-5.08.89-6.73,2.66-1.65,1.77-2.48,4.35-2.48,7.73,0,3.11.68,5.39,2.04,6.85,1.36,1.46,3.43,2.18,6.23,2.18,1.49,0,2.83-.22,4.01-.65v6.85c-1.53.51-3.42.77-5.67.77-4.88,0-8.73-1.36-11.57-4.07Z"/>
      <path class="cls-24" d="M222.83,163.56c-2.83-2.71-4.25-6.69-4.25-11.92s1.63-9.73,4.9-12.78c3.27-3.05,7.77-4.57,13.52-4.57s10.32,1.38,13.13,4.13c2.81,2.75,4.22,6.37,4.22,10.86v17.47h-8.91v-17.53c0-2.6-.66-4.57-1.98-5.93-1.32-1.36-3.47-2.04-6.46-2.04-2.83,0-5.08.89-6.73,2.66-1.65,1.77-2.48,4.35-2.48,7.73,0,3.11.68,5.39,2.04,6.85,1.36,1.46,3.43,2.18,6.23,2.18,1.49,0,2.83-.22,4.01-.65v6.85c-1.53.51-3.42.77-5.67.77-4.88,0-8.73-1.36-11.57-4.07Z"/>
      <path class="cls-24" d="M245.44,120.77h8.97v10.5h-8.97v-10.5Z"/>
      <path class="cls-24" d="M259.36,165.1v-6.96c2.44,1.69,5.78,2.54,10.03,2.54,3.31,0,5.86-.8,7.67-2.39,1.81-1.59,2.71-4.02,2.71-7.29s-.91-5.7-2.71-7.32c-1.81-1.61-4.37-2.42-7.67-2.42-4.09,0-7.36.87-9.8,2.6v-6.96c1.38-.87,3.09-1.51,5.14-1.95,2.05-.43,4.25-.65,6.61-.65,5.51,0,9.83,1.47,12.96,4.4,3.13,2.93,4.69,7.03,4.69,12.31s-1.56,9.37-4.69,12.28c-3.13,2.91-7.45,4.37-12.96,4.37s-9.23-.85-11.98-2.54Z"/>
      <path class="cls-24" d="M299.62,166.04c-1.85-1.06-3.26-2.52-4.22-4.37-.96-1.85-1.45-3.91-1.45-6.2v-20.3h8.97v19.77c0,3.82,2.03,5.72,6.08,5.72,1.65,0,3.08-.34,4.28-1.03,1.2-.69,2.25-1.76,3.16-3.22v-21.25h8.91v31.58h-8.5v-3.54c-1.38,1.46-3,2.56-4.87,3.3-1.87.75-3.79,1.12-5.75,1.12-2.56,0-4.76-.53-6.61-1.59Z"/>
      <path class="cls-24" d="M357.4,166.84c-2.56-.53-4.68-1.27-6.37-2.21v-16.58h14.93v6.55h-6.14v5.08c1.22.67,3.01,1,5.37,1,6.26,0,9.38-3.27,9.38-9.8,0-3.34-.91-5.78-2.71-7.32-1.81-1.53-4.86-2.3-9.15-2.3-1.97,0-3.98.21-6.05.62-2.07.41-3.81.99-5.22,1.74v-6.96c1.61-.75,3.56-1.33,5.84-1.74,2.28-.41,4.66-.62,7.14-.62,6.33,0,11.15,1.45,14.43,4.34,3.28,2.89,4.93,6.97,4.93,12.25s-1.61,9.29-4.84,12.28c-3.23,2.99-7.81,4.49-13.75,4.49-2.64,0-5.23-.27-7.79-.8Z"/>
      <path class="cls-24" d="M394.4,166.04c-1.85-1.06-3.26-2.52-4.22-4.37-.96-1.85-1.45-3.91-1.45-6.2v-20.3h8.97v19.77c0,3.82,2.03,5.72,6.08,5.72,1.65,0,3.08-.34,4.28-1.03,1.2-.69,2.25-1.76,3.16-3.22v-21.25h8.91v31.58h-8.5v-3.54c-1.38,1.46-3,2.56-4.87,3.3-1.87.75-3.79,1.12-5.75,1.12-2.56,0-4.76-.53-6.61-1.59Z"/>
      <path class="cls-24" d="M412.4,177.14c0-.71-.14-1.21-.41-1.5-.27-.29-.77-.44-1.48-.44h-1.95v-5.67h6.2c2.12,0,3.59.43,4.4,1.3.81.87,1.21,2.36,1.21,4.49v7.61h-7.97v-5.78Z"/>
      <path class="cls-24" d="M439.73,166.51c-1.85-.75-3.46-1.85-4.84-3.3v3.54h-8.56v-31.58h8.97v21.25c.87,1.46,1.91,2.53,3.13,3.22,1.22.69,2.66,1.03,4.31,1.03,4.05,0,6.08-1.91,6.08-5.72v-19.77h8.91v20.3c0,2.28-.47,4.35-1.42,6.2-.94,1.85-2.34,3.31-4.19,4.37-1.85,1.06-4.07,1.59-6.67,1.59-1.97,0-3.88-.38-5.73-1.12Z"/>
      <path class="cls-24" d="M439.91,125.55v-4.31h8.03v2.89c0,.55.11.94.32,1.15s.62.32,1.21.32h13.46v5.67h-17.35c-3.78,0-5.67-1.91-5.67-5.72Z"/>
      <path class="cls-24" d="M467,163.59c-2.83-2.7-4.25-6.66-4.25-11.89,0-3.58.51-6.68,1.53-9.3,1.02-2.62,2.47-4.62,4.34-6.02,1.87-1.4,4.02-2.09,6.46-2.09,1.46,0,2.72.28,3.81.83,1.08.55,1.96,1.32,2.63,2.3.75-1.06,1.78-1.85,3.1-2.36,1.32-.51,2.8-.77,4.46-.77,2.99,0,5.31.91,6.96,2.74,1.65,1.83,2.48,4.24,2.48,7.23v22.49h-8.91v-21.6c0-1.34-.21-2.32-.62-2.95-.41-.63-1.11-.94-2.1-.94-1.73,0-2.81,1.06-3.25,3.19h-4.19c-.28-2.12-1.2-3.19-2.77-3.19-1.42,0-2.56.89-3.42,2.66-.87,1.77-1.3,4.37-1.3,7.79,0,3.07.66,5.33,1.98,6.79,1.32,1.46,3.41,2.18,6.29,2.18,1.49,0,2.83-.22,4.01-.65v6.85c-1.53.51-3.42.77-5.67.77-4.88,0-8.73-1.35-11.57-4.04Z"/>
      <path class="cls-24" d="M471.19,125.61h27.33v5.67h-27.33v-5.67Z"/>
      <path class="cls-24" d="M508.28,164.89c-1.16-1.24-1.74-2.96-1.74-5.16v-20.36c0-4.64,1.36-8.01,4.07-10.09h-9.74v-6.91h21.07v6.32c-2.28.91-3.94,2.18-4.96,3.84-1.02,1.65-1.53,3.88-1.53,6.67v18.12c0,.94.2,1.61.59,2.01.39.39,1.06.59,2.01.59h2.07v6.85h-6.85c-2.16,0-3.83-.62-4.99-1.86Z"/>
      <path class="cls-24" d="M523.95,165.1v-6.96c2.44,1.69,5.78,2.54,10.03,2.54,3.31,0,5.86-.8,7.67-2.39,1.81-1.59,2.71-4.02,2.71-7.29s-.91-5.7-2.71-7.32c-1.81-1.61-4.37-2.42-7.67-2.42-4.09,0-7.36.87-9.8,2.6v-6.96c1.38-.87,3.09-1.51,5.14-1.95,2.05-.43,4.25-.65,6.61-.65,5.51,0,9.83,1.47,12.96,4.4,3.13,2.93,4.69,7.03,4.69,12.31s-1.56,9.37-4.69,12.28c-3.13,2.91-7.45,4.37-12.96,4.37s-9.23-.85-11.98-2.54Z"/>
    </g>
  </g>
  <g>
    <g>
      <path class="cls-7" d="M77.29,256.77c-.59-.63-.88-1.5-.88-2.62v-10.35c0-2.36.69-4.07,2.07-5.13h-4.95v-3.51h10.71v3.21c-1.16.46-2,1.11-2.52,1.95s-.78,1.97-.78,3.39v9.21c0,.48.1.82.3,1.02.2.2.54.3,1.02.3h1.05v3.48h-3.48c-1.1,0-1.95-.32-2.54-.95Z"/>
      <path class="cls-7" d="M92.66,257.59c-.94-.38-1.76-.94-2.46-1.68v1.8h-4.35v-16.05h4.56v10.8c.44.74.97,1.29,1.59,1.63.62.35,1.35.53,2.19.53,2.06,0,3.09-.97,3.09-2.91v-10.05h4.53v10.32c0,1.16-.24,2.21-.72,3.15s-1.19,1.68-2.13,2.22c-.94.54-2.07.81-3.39.81-1,0-1.97-.19-2.91-.57Z"/>
      <path class="cls-7" d="M97.28,234.34h4.56v5.34h-4.56v-5.34Z"/>
      <path class="cls-7" d="M106.52,256.11c-1.44-1.37-2.16-3.38-2.16-6.04,0-1.82.26-3.39.78-4.72.52-1.33,1.25-2.35,2.2-3.06.95-.71,2.04-1.06,3.29-1.06.74,0,1.38.14,1.94.42.55.28.99.67,1.33,1.17.38-.54.9-.94,1.58-1.2.67-.26,1.42-.39,2.26-.39,1.52,0,2.7.46,3.54,1.39.84.93,1.26,2.16,1.26,3.67v11.43h-4.53v-10.98c0-.68-.1-1.18-.31-1.5-.21-.32-.57-.48-1.06-.48-.88,0-1.43.54-1.65,1.62h-2.13c-.14-1.08-.61-1.62-1.41-1.62-.72,0-1.3.45-1.74,1.35-.44.9-.66,2.22-.66,3.96,0,1.56.33,2.71,1,3.45.67.74,1.73,1.11,3.19,1.11.76,0,1.44-.11,2.04-.33v3.48c-.78.26-1.74.39-2.88.39-2.48,0-4.44-.69-5.88-2.06Z"/>
      <path class="cls-7" d="M128.11,257.82c-1.21-.23-2.17-.57-2.87-1.04v-3.48c.88.52,1.86.92,2.96,1.2,1.09.28,2.07.42,2.96.42,1.06,0,1.83-.11,2.33-.32.49-.21.73-.58.73-1.12,0-.48-.24-.85-.71-1.11-.47-.26-1.35-.59-2.62-.99l-.75-.24c-1.72-.54-2.99-1.19-3.81-1.95-.82-.76-1.23-1.8-1.23-3.12,0-1.54.62-2.73,1.86-3.58,1.24-.85,2.91-1.27,5.01-1.27,1.14,0,2.24.12,3.3.36,1.06.24,1.91.55,2.55.93v3.57c-.64-.44-1.44-.79-2.39-1.06-.95-.27-1.89-.41-2.8-.41-1.94,0-2.91.49-2.91,1.47,0,.48.23.85.69,1.11.46.26,1.28.57,2.46.93l1.08.33c1.26.4,2.24.84,2.96,1.32.71.48,1.2,1.02,1.48,1.62.28.6.42,1.33.42,2.19,0,1.38-.6,2.49-1.79,3.33s-2.96,1.26-5.32,1.26c-1.18,0-2.38-.12-3.58-.35Z"/>
      <path class="cls-7" d="M140.72,256.87v-3.54c1.24.86,2.94,1.29,5.1,1.29,1.68,0,2.98-.41,3.9-1.22.92-.81,1.38-2.04,1.38-3.7s-.46-2.9-1.38-3.72c-.92-.82-2.22-1.23-3.9-1.23-2.08,0-3.74.44-4.98,1.32v-3.54c.7-.44,1.57-.77,2.61-.99,1.04-.22,2.16-.33,3.36-.33,2.8,0,5,.75,6.58,2.23,1.59,1.49,2.39,3.58,2.39,6.26s-.79,4.76-2.39,6.24c-1.59,1.48-3.79,2.22-6.58,2.22s-4.69-.43-6.09-1.29Z"/>
      <path class="cls-7" d="M158.18,248.89h4.5l1.35,5.43c1.38,0,2.52-.42,3.44-1.27.91-.85,1.36-2.01,1.36-3.5,0-1.6-.42-2.8-1.27-3.6s-2.31-1.2-4.36-1.2c-.96,0-1.95.1-2.97.3s-1.86.46-2.52.78v-3.51c.8-.34,1.75-.61,2.87-.81,1.11-.2,2.23-.3,3.38-.3,3.1,0,5.46.71,7.09,2.12,1.63,1.41,2.45,3.46,2.45,6.16,0,1.64-.41,3.08-1.22,4.32-.81,1.24-1.9,2.2-3.27,2.88-1.37.68-2.88,1.02-4.51,1.02h-4.11l-2.19-8.82Z"/>
      <path class="cls-7" d="M177.07,256.78c-1.09-.92-1.64-2.22-1.64-3.9s.59-3,1.79-3.96c1.19-.96,2.82-1.44,4.9-1.44,1.94,0,3.6.32,4.98.96v-.63c0-1.08-.35-1.88-1.06-2.4-.71-.52-1.86-.78-3.44-.78-.98,0-1.94.1-2.88.3-.94.2-1.78.48-2.52.84v-3.42c.66-.32,1.57-.59,2.73-.81,1.16-.22,2.33-.33,3.51-.33,1.34,0,2.59.2,3.75.6l1.17-1.35h4.95l-2.97,3.45c.86.98,1.29,2.27,1.29,3.87v9.93h-4.53v-5.97c-1.16-.6-2.52-.9-4.08-.9-1.02,0-1.77.17-2.23.51-.47.34-.71.87-.71,1.59,0,.66.21,1.16.65,1.49s1.11.5,2.06.5c.66,0,1.22-.1,1.68-.3v3.15c-.78.26-1.78.39-3,.39-1.84,0-3.31-.46-4.4-1.38Z"/>
      <path class="cls-7" d="M197.81,257.76c-1.3-.27-2.38-.65-3.24-1.12v-8.43h7.59v3.33h-3.12v2.58c.62.34,1.53.51,2.73.51,3.18,0,4.77-1.66,4.77-4.98,0-1.7-.46-2.94-1.38-3.72s-2.47-1.17-4.65-1.17c-1,0-2.02.1-3.07.31-1.05.21-1.94.51-2.66.89v-3.54c.82-.38,1.81-.68,2.97-.89,1.16-.21,2.37-.31,3.63-.31,3.22,0,5.67.73,7.33,2.21,1.67,1.47,2.5,3.54,2.5,6.22s-.82,4.72-2.46,6.24c-1.64,1.52-3.97,2.28-6.99,2.28-1.34,0-2.66-.14-3.96-.41Z"/>
      <path class="cls-7" d="M217.67,257.28c-1.24-.59-2.2-1.4-2.88-2.44-.68-1.04-1.02-2.22-1.02-3.54v-9.63h4.56v9.33c0,1.16.3,2.06.92,2.69.61.63,1.53.95,2.77.95s2.16-.32,2.76-.95.9-1.53.9-2.69v-9.33h4.56v9.63c0,1.32-.34,2.5-1.02,3.54-.68,1.04-1.64,1.85-2.88,2.44-1.24.59-2.68.89-4.32.89s-3.11-.3-4.35-.89Z"/>
      <path class="cls-7" d="M234.22,256.77c-.59-.63-.88-1.5-.88-2.62v-12.48h4.56v11.25c0,.48.1.82.3,1.02.2.2.53.3.99.3h1.05v3.48h-3.48c-1.1,0-1.95-.32-2.54-.95Z"/>
      <path class="cls-7" d="M242.69,248.08c0-2.22.74-3.92,2.23-5.1,1.49-1.18,3.5-1.77,6.02-1.77s4.52.59,6,1.77c1.48,1.18,2.22,2.88,2.22,5.1v9.63h-4.56v-9.66c0-1.1-.32-1.92-.95-2.47-.63-.55-1.54-.83-2.71-.83s-2.12.27-2.75.83c-.63.55-.94,1.38-.94,2.47v2.28c.24-.36.59-.65,1.06-.86.47-.21.99-.31,1.57-.31h2.34v3.48h-2.58c-.7,0-1.27.22-1.73.66-.45.44-.67,1.01-.67,1.71v2.7h-4.56v-9.63Z"/>
      <path class="cls-7" d="M264.7,257.82c-1.21-.23-2.17-.57-2.87-1.04v-3.48c.88.52,1.86.92,2.96,1.2,1.09.28,2.07.42,2.96.42,1.06,0,1.83-.11,2.33-.32.49-.21.73-.58.73-1.12,0-.48-.24-.85-.71-1.11-.47-.26-1.35-.59-2.62-.99l-.75-.24c-1.72-.54-2.99-1.19-3.81-1.95-.82-.76-1.23-1.8-1.23-3.12,0-1.54.62-2.73,1.86-3.58,1.24-.85,2.91-1.27,5.01-1.27,1.14,0,2.24.12,3.3.36,1.06.24,1.91.55,2.55.93v3.57c-.64-.44-1.44-.79-2.39-1.06-.95-.27-1.89-.41-2.8-.41-1.94,0-2.91.49-2.91,1.47,0,.48.23.85.69,1.11.46.26,1.28.57,2.46.93l1.08.33c1.26.4,2.24.84,2.96,1.32.71.48,1.2,1.02,1.48,1.62.28.6.42,1.33.42,2.19,0,1.38-.6,2.49-1.79,3.33s-2.96,1.26-5.32,1.26c-1.18,0-2.38-.12-3.58-.35Z"/>
      <path class="cls-7" d="M279.47,256.09c-1.44-1.38-2.16-3.4-2.16-6.06s.83-4.94,2.49-6.49c1.66-1.55,3.95-2.33,6.87-2.33s5.25.7,6.68,2.1c1.43,1.4,2.15,3.24,2.15,5.52v8.88h-4.53v-8.91c0-1.32-.33-2.33-1-3.01-.67-.69-1.77-1.04-3.29-1.04-1.44,0-2.58.45-3.42,1.35-.84.9-1.26,2.21-1.26,3.93,0,1.58.34,2.74,1.03,3.48.69.74,1.75,1.11,3.17,1.11.76,0,1.44-.11,2.04-.33v3.48c-.78.26-1.74.39-2.88.39-2.48,0-4.44-.69-5.88-2.07Z"/>
      <path class="cls-7" d="M281.6,236.8h13.89v2.88h-13.89v-2.88Z"/>
      <path class="cls-7" d="M300.2,256.11c-1.44-1.37-2.16-3.38-2.16-6.04,0-1.82.26-3.39.78-4.72.52-1.33,1.25-2.35,2.2-3.06.95-.71,2.04-1.06,3.29-1.06.74,0,1.38.14,1.94.42.55.28.99.67,1.33,1.17.38-.54.9-.94,1.58-1.2.67-.26,1.42-.39,2.26-.39,1.52,0,2.7.46,3.54,1.39.84.93,1.26,2.16,1.26,3.67v11.43h-4.53v-10.98c0-.68-.1-1.18-.31-1.5-.21-.32-.57-.48-1.06-.48-.88,0-1.43.54-1.65,1.62h-2.13c-.14-1.08-.61-1.62-1.41-1.62-.72,0-1.3.45-1.74,1.35-.44.9-.66,2.22-.66,3.96,0,1.56.33,2.71,1,3.45.67.74,1.73,1.11,3.19,1.11.76,0,1.44-.11,2.04-.33v3.48c-.78.26-1.74.39-2.88.39-2.48,0-4.44-.69-5.88-2.06Z"/>
    </g>
    <circle class="cls-7" cx="53.33" cy="249.6" r="5.26"/>
  </g>
  <g>
    <g>
      <path class="cls-7" d="M77.29,310.51c-.59-.63-.88-1.5-.88-2.62v-10.35c0-2.36.69-4.07,2.07-5.13h-4.95v-3.51h10.71v3.21c-1.16.46-2,1.11-2.52,1.95s-.78,1.97-.78,3.39v9.21c0,.48.1.82.3,1.02.2.2.54.3,1.02.3h1.05v3.48h-3.48c-1.1,0-1.95-.32-2.54-.95Z"/>
      <path class="cls-7" d="M92.66,311.34c-.94-.38-1.76-.94-2.46-1.68v1.8h-4.35v-16.05h4.56v10.8c.44.74.97,1.29,1.59,1.63.62.35,1.35.53,2.19.53,2.06,0,3.09-.97,3.09-2.91v-10.05h4.53v10.32c0,1.16-.24,2.21-.72,3.15-.48.94-1.19,1.68-2.13,2.22-.94.54-2.07.81-3.39.81-1,0-1.97-.19-2.91-.57Z"/>
      <path class="cls-7" d="M97.28,288.09h4.56v5.34h-4.56v-5.34Z"/>
      <path class="cls-7" d="M106.52,309.85c-1.44-1.37-2.16-3.38-2.16-6.04,0-1.82.26-3.39.78-4.72.52-1.33,1.25-2.35,2.2-3.06.95-.71,2.04-1.06,3.29-1.06.74,0,1.38.14,1.94.42.55.28.99.67,1.33,1.17.38-.54.9-.94,1.58-1.2.67-.26,1.42-.39,2.26-.39,1.52,0,2.7.46,3.54,1.39.84.93,1.26,2.16,1.26,3.67v11.43h-4.53v-10.98c0-.68-.1-1.18-.31-1.5s-.57-.48-1.06-.48c-.88,0-1.43.54-1.65,1.62h-2.13c-.14-1.08-.61-1.62-1.41-1.62-.72,0-1.3.45-1.74,1.35s-.66,2.22-.66,3.96c0,1.56.33,2.71,1,3.45.67.74,1.73,1.11,3.19,1.11.76,0,1.44-.11,2.04-.33v3.48c-.78.26-1.74.39-2.88.39-2.48,0-4.44-.68-5.88-2.05Z"/>
      <path class="cls-7" d="M115.22,291.51c0-.22-.04-.38-.13-.46s-.24-.13-.46-.13h-1.41v-3.09h2.82c.74,0,1.27.17,1.6.51.33.34.5.77.5,1.29v.9h6.03v2.91h-8.94v-1.92Z"/>
      <path class="cls-7" d="M128.33,311.5c-1.3-.27-2.38-.65-3.24-1.12v-8.43h7.59v3.33h-3.12v2.58c.62.34,1.53.51,2.73.51,3.18,0,4.77-1.66,4.77-4.98,0-1.7-.46-2.94-1.38-3.72-.92-.78-2.47-1.17-4.65-1.17-1,0-2.02.11-3.07.32-1.05.21-1.94.5-2.66.89v-3.54c.82-.38,1.81-.67,2.97-.88,1.16-.21,2.37-.31,3.63-.31,3.22,0,5.67.73,7.33,2.21,1.67,1.47,2.5,3.54,2.5,6.22s-.82,4.72-2.46,6.24c-1.64,1.52-3.97,2.28-6.99,2.28-1.34,0-2.66-.13-3.96-.4Z"/>
      <path class="cls-7" d="M143.66,297.42h4.53l3.42,10.65c1.48,0,2.62-.45,3.42-1.33.8-.89,1.2-2.16,1.2-3.79,0-1.48-.28-2.59-.84-3.33-.56-.74-1.42-1.11-2.58-1.11-.64,0-1.28.1-1.92.3v-3.42c.84-.28,1.79-.42,2.85-.42,2.38,0,4.17.7,5.35,2.08,1.19,1.39,1.79,3.36,1.79,5.9,0,1.78-.39,3.31-1.17,4.59-.78,1.28-1.83,2.25-3.16,2.92-1.33.67-2.79,1.01-4.37,1.01h-4.02l-4.5-14.04Z"/>
      <path class="cls-7" d="M164.14,310.51c-.59-.63-.89-1.5-.89-2.62v-7.23c0-.94.18-1.75.54-2.43s.86-1.4,1.5-2.16c.42-.48.73-.89.95-1.23.21-.34.31-.69.31-1.05,0-.58-.15-1-.45-1.26-.3-.26-.81-.39-1.53-.39-1.16,0-2.24.37-3.24,1.11v-3.48c.62-.38,1.35-.67,2.19-.87.84-.2,1.7-.3,2.58-.3,1.72,0,3,.4,3.85,1.18.85.79,1.27,1.82,1.27,3.08,0,.74-.14,1.39-.42,1.93-.28.55-.71,1.21-1.29,2-.56.72-.99,1.36-1.27,1.93-.29.57-.44,1.21-.44,1.93v6c0,.48.1.82.3,1.02.2.2.53.3.99.3h1.05v3.48h-3.48c-1.1,0-1.95-.32-2.53-.95Z"/>
      <path class="cls-7" d="M176.09,311.16c-1.18-.5-2.08-1.2-2.7-2.1-.62-.9-.93-1.92-.93-3.06v-.75c0-.72.14-1.37.42-1.95.28-.58.67-1.23,1.17-1.95.32-.44.55-.79.69-1.07.14-.27.21-.51.21-.73,0-.56-.34-.84-1.02-.84h-1.68v-3.3h4.35c.9,0,1.62.26,2.16.78.54.52.81,1.2.81,2.04,0,.6-.11,1.15-.33,1.67-.22.51-.55,1.09-.99,1.75-.42.66-.73,1.22-.94,1.68-.21.46-.31.96-.31,1.5v.63c0,.94.28,1.66.84,2.16.56.5,1.36.75,2.4.75,1.1,0,1.94-.3,2.5-.92.57-.61.85-1.49.85-2.65,0-2.44-.95-3.66-2.85-3.66v-2.19l2.91-3.99h4.83l-3.27,4.47c1.06.54,1.81,1.25,2.27,2.11.45.87.67,1.98.67,3.32s-.31,2.6-.94,3.66-1.54,1.89-2.75,2.49c-1.2.6-2.61.9-4.23.9s-2.96-.25-4.14-.75Z"/>
      <path class="cls-7" d="M180.56,291.51c0-.22-.04-.38-.13-.46s-.24-.13-.46-.13h-1.41v-3.09h2.82c.74,0,1.27.17,1.6.51.33.34.5.77.5,1.29v.9h6.03v2.91h-8.94v-1.92Z"/>
      <path class="cls-7" d="M191.92,310.51c-.59-.63-.88-1.5-.88-2.62v-12.48h4.56v11.25c0,.48.1.82.3,1.02.2.2.53.3.99.3h1.05v3.48h-3.48c-1.1,0-1.95-.32-2.54-.95Z"/>
      <path class="cls-7" d="M203.03,311.5c-1.3-.27-2.38-.65-3.24-1.12v-8.43h7.59v3.33h-3.12v2.58c.62.34,1.53.51,2.73.51,3.18,0,4.77-1.66,4.77-4.98,0-1.7-.46-2.94-1.38-3.72-.92-.78-2.47-1.17-4.65-1.17-1,0-2.02.11-3.07.32-1.05.21-1.94.5-2.66.89v-3.54c.82-.38,1.81-.67,2.97-.88,1.16-.21,2.37-.31,3.63-.31,3.22,0,5.67.73,7.33,2.21,1.67,1.47,2.5,3.54,2.5,6.22s-.82,4.72-2.46,6.24c-1.64,1.52-3.97,2.28-6.99,2.28-1.34,0-2.66-.13-3.96-.4Z"/>
      <path class="cls-7" d="M219.8,301.89l-1.5-2.55c2.34-2.92,5.35-4.38,9.03-4.38,2.58,0,4.56.57,5.95,1.71,1.39,1.14,2.09,2.73,2.09,4.77v10.02h-4.56v-9.66c0-2.2-1.16-3.3-3.48-3.3-.86,0-1.63.12-2.3.36-.67.24-1.29.63-1.88,1.17l1.17,1.92v9.51h-4.53v-9.57Z"/>
      <path class="cls-7" d="M239.53,310.53c-1.09-.92-1.64-2.22-1.64-3.9s.59-3,1.79-3.96c1.19-.96,2.82-1.44,4.9-1.44,1.94,0,3.6.32,4.98.96v-.63c0-1.08-.35-1.88-1.06-2.4-.71-.52-1.86-.78-3.44-.78-.98,0-1.94.1-2.88.3-.94.2-1.78.48-2.52.84v-3.42c.66-.32,1.57-.59,2.73-.81,1.16-.22,2.33-.33,3.51-.33,1.34,0,2.59.2,3.75.6l1.17-1.35h4.95l-2.97,3.45c.86.98,1.29,2.27,1.29,3.87v9.93h-4.53v-5.97c-1.16-.6-2.52-.9-4.08-.9-1.02,0-1.77.17-2.23.51-.47.34-.71.87-.71,1.59,0,.66.21,1.16.65,1.49s1.11.49,2.06.49c.66,0,1.22-.1,1.68-.3v3.15c-.78.26-1.78.39-3,.39-1.84,0-3.31-.46-4.4-1.38Z"/>
      <path class="cls-7" d="M262.46,301.47c0-1.04-.22-1.79-.66-2.27-.44-.47-1.21-.71-2.31-.71s-2.13.27-3.21.81v-3.45c.48-.24,1.12-.45,1.94-.63s1.59-.27,2.35-.27c2.1,0,3.7.56,4.8,1.68s1.65,2.74,1.65,4.86v9.96h-4.56v-9.99Z"/>
      <path class="cls-7" d="M272.56,311.56c-1.21-.23-2.17-.58-2.87-1.04v-3.48c.88.52,1.86.92,2.96,1.2,1.09.28,2.07.42,2.96.42,1.06,0,1.83-.1,2.33-.31.49-.21.73-.58.73-1.12,0-.48-.24-.85-.71-1.11-.47-.26-1.35-.59-2.62-.99l-.75-.24c-1.72-.54-2.99-1.19-3.81-1.95-.82-.76-1.23-1.8-1.23-3.12,0-1.54.62-2.73,1.86-3.58,1.24-.85,2.91-1.27,5.01-1.27,1.14,0,2.24.12,3.3.36s1.91.55,2.55.93v3.57c-.64-.44-1.44-.79-2.39-1.06-.95-.27-1.89-.41-2.8-.41-1.94,0-2.91.49-2.91,1.47,0,.48.23.85.69,1.11.46.26,1.28.57,2.46.93l1.08.33c1.26.4,2.24.84,2.96,1.32.71.48,1.2,1.02,1.48,1.62.28.6.42,1.33.42,2.19,0,1.38-.6,2.49-1.79,3.33s-2.96,1.26-5.32,1.26c-1.18,0-2.38-.12-3.58-.34Z"/>
      <path class="cls-7" d="M286.48,310.51c-.59-.63-.89-1.5-.89-2.62v-7.23c0-.94.18-1.75.54-2.43s.86-1.4,1.5-2.16c.42-.48.73-.89.95-1.23.21-.34.31-.69.31-1.05,0-.58-.15-1-.45-1.26-.3-.26-.81-.39-1.53-.39-1.16,0-2.24.37-3.24,1.11v-3.48c.62-.38,1.35-.67,2.19-.87.84-.2,1.7-.3,2.58-.3,1.72,0,3,.4,3.85,1.18.85.79,1.27,1.82,1.27,3.08,0,.74-.14,1.39-.42,1.93-.28.55-.71,1.21-1.29,2-.56.72-.99,1.36-1.27,1.93-.29.57-.44,1.21-.44,1.93v6c0,.48.1.82.3,1.02.2.2.53.3.99.3h1.05v3.48h-3.48c-1.1,0-1.95-.32-2.53-.95Z"/>
      <path class="cls-7" d="M296.75,309.84c-1.44-1.38-2.16-3.4-2.16-6.06s.83-4.94,2.49-6.5c1.66-1.55,3.95-2.32,6.87-2.32s5.25.7,6.68,2.1c1.43,1.4,2.15,3.24,2.15,5.52v8.88h-4.53v-8.91c0-1.32-.33-2.33-1-3.02-.67-.69-1.77-1.04-3.29-1.04-1.44,0-2.58.45-3.42,1.35-.84.9-1.26,2.21-1.26,3.93,0,1.58.34,2.74,1.03,3.48.69.74,1.75,1.11,3.17,1.11.76,0,1.44-.11,2.04-.33v3.48c-.78.26-1.74.39-2.88.39-2.48,0-4.44-.69-5.88-2.07Z"/>
      <path class="cls-7" d="M327.26,300.3c0-.62-.1-1.08-.3-1.37-.2-.29-.55-.44-1.05-.44-.82,0-1.32.54-1.5,1.62h-2.13c-.06-.54-.17-.95-.33-1.22s-.45-.41-.87-.41c-.96,0-1.44.77-1.44,2.31,0,1.42.74,2.13,2.22,2.13.7,0,1.38-.11,2.04-.33v3.48c-.92.26-1.88.39-2.88.39-1.74,0-3.19-.46-4.33-1.38-1.15-.92-1.73-2.31-1.73-4.17,0-1.74.44-3.17,1.32-4.29.88-1.12,2.18-1.68,3.9-1.68.74,0,1.38.14,1.92.42.54.28.97.67,1.29,1.17.32-.52.77-.92,1.35-1.19s1.26-.4,2.04-.4c1.66,0,2.91.49,3.77,1.48.85.99,1.27,2.31,1.27,3.95v11.07h-4.56v-11.16Z"/>
    </g>
    <circle class="cls-7" cx="53.33" cy="303.34" r="5.26"/>
  </g>
  <g>
    <path class="cls-7" d="M86.15,411.29c-2.3-2.2-3.45-5.43-3.45-9.67s1.32-7.89,3.97-10.37c2.65-2.47,6.3-3.71,10.96-3.71s8.37,1.12,10.65,3.35c2.28,2.23,3.42,5.17,3.42,8.81v14.17h-7.23v-14.22c0-2.11-.53-3.71-1.6-4.81-1.07-1.1-2.82-1.65-5.24-1.65-2.3,0-4.12.72-5.46,2.15-1.34,1.44-2.01,3.53-2.01,6.27,0,2.52.55,4.37,1.65,5.55,1.1,1.18,2.78,1.77,5.05,1.77,1.21,0,2.3-.17,3.26-.53v5.55c-1.25.41-2.78.62-4.6.62-3.96,0-7.09-1.1-9.38-3.3Z"/>
    <path class="cls-7" d="M120.96,413.95c-2.08-.43-3.8-1.03-5.17-1.8v-13.46h12.11v5.32h-4.98v4.12c.99.54,2.44.81,4.36.81,5.08,0,7.61-2.65,7.61-7.95,0-2.71-.73-4.69-2.2-5.94-1.47-1.25-3.94-1.87-7.42-1.87-1.6,0-3.23.17-4.91.5s-3.09.81-4.24,1.41v-5.65c1.31-.61,2.89-1.08,4.74-1.41,1.85-.33,3.78-.5,5.79-.5,5.14,0,9.04,1.17,11.71,3.52,2.67,2.35,4,5.66,4,9.94s-1.31,7.53-3.93,9.96c-2.62,2.43-6.34,3.64-11.16,3.64-2.14,0-4.25-.21-6.32-.65Z"/>
    <path class="cls-7" d="M147.73,398.6l-2.39-4.07c3.73-4.66,8.54-6.99,14.41-6.99,4.12,0,7.29.91,9.5,2.73,2.22,1.82,3.33,4.36,3.33,7.61v15.99h-7.28v-15.42c0-3.51-1.85-5.27-5.55-5.27-1.37,0-2.59.19-3.66.57-1.07.38-2.07,1.01-2.99,1.87l1.87,3.06v15.18h-7.23v-15.27Z"/>
    <path class="cls-7" d="M182.16,413.3c-1.5-.86-2.64-2.04-3.42-3.54-.78-1.5-1.17-3.18-1.17-5.03v-16.47h7.28v16.04c0,3.1,1.64,4.64,4.93,4.64,1.34,0,2.5-.28,3.47-.84.97-.56,1.83-1.43,2.56-2.61v-17.24h7.23v25.62h-6.9v-2.87c-1.12,1.18-2.43,2.08-3.95,2.68-1.52.61-3.07.91-4.67.91-2.08,0-3.86-.43-5.36-1.29Z"/>
    <path class="cls-7" d="M191.35,382.03c0-.35-.07-.6-.22-.74s-.39-.22-.74-.22h-2.25v-4.93h4.5c1.18,0,2.03.27,2.56.81s.79,1.23.79,2.06v1.44h9.62v4.64h-14.27v-3.06Z"/>
    <path class="cls-7" d="M212.27,413.95c-2.08-.43-3.8-1.03-5.17-1.8v-13.46h12.11v5.32h-4.98v4.12c.99.54,2.44.81,4.36.81,5.08,0,7.61-2.65,7.61-7.95,0-2.71-.73-4.69-2.2-5.94-1.47-1.25-3.94-1.87-7.42-1.87-1.6,0-3.23.17-4.91.5s-3.09.81-4.24,1.41v-5.65c1.31-.61,2.89-1.08,4.74-1.41,1.85-.33,3.78-.5,5.79-.5,5.14,0,9.04,1.17,11.71,3.52,2.67,2.35,4,5.66,4,9.94s-1.31,7.53-3.93,9.96c-2.62,2.43-6.34,3.64-11.16,3.64-2.14,0-4.25-.21-6.32-.65Z"/>
    <path class="cls-7" d="M240.33,412.41c-2.39-1.45-3.59-3.54-3.59-6.25,0-1.25.34-2.37,1.03-3.38.69-1.01,1.6-1.73,2.75-2.18-1.05-.54-1.91-1.32-2.56-2.35-.65-1.02-.98-2.14-.98-3.35,0-2.23.79-4.02,2.37-5.36s3.87-2.01,6.87-2.01c.93,0,1.84.06,2.75.19s1.6.27,2.08.43v5.46c-.45-.19-.98-.35-1.6-.48-.62-.13-1.19-.19-1.7-.19-2.23,0-3.35.83-3.35,2.49,0,.86.28,1.51.84,1.94.56.43,1.43.65,2.61.65h3.21v5.12h-3.21c-2.43,0-3.64.96-3.64,2.87,0,1.02.49,1.81,1.46,2.37.97.56,2.39.84,4.24.84,2.23,0,3.87-.46,4.91-1.36,1.04-.91,1.56-2.27,1.56-4.09v-15.56h7.28v15.51c0,1.82-.46,3.55-1.39,5.19-.93,1.64-2.41,3-4.45,4.07-2.04,1.07-4.68,1.6-7.9,1.6-3.99,0-7.18-.73-9.58-2.18Z"/>
    <path class="cls-7" d="M73.9,451.6c0-1.88.51-3.34,1.53-4.36,1.02-1.02,2.47-1.53,4.36-1.53h5.17v5.6h-1.72c-.77,0-1.31.16-1.63.48-.32.32-.48.89-.48,1.72v8.33l4.84-7.37h2.54l4.84,7.37v-16.14h7.18v25.62h-6.51l-6.8-10.34-6.8,10.34h-6.51v-19.73Z"/>
    <path class="cls-7" d="M93.29,434.03h7.28v8.52h-7.28v-8.52Z"/>
    <path class="cls-7" d="M109.76,471.4c-2.08-.43-3.8-1.03-5.17-1.8v-13.46h12.11v5.32h-4.98v4.12c.99.54,2.44.81,4.36.81,5.08,0,7.61-2.65,7.61-7.95,0-2.71-.73-4.69-2.2-5.94-1.47-1.25-3.94-1.87-7.42-1.87-1.6,0-3.23.17-4.91.5s-3.09.81-4.24,1.41v-5.65c1.31-.61,2.89-1.08,4.74-1.41,1.85-.33,3.78-.5,5.79-.5,5.14,0,9.04,1.17,11.71,3.52,2.67,2.35,4,5.66,4,9.94s-1.31,7.53-3.93,9.96c-2.62,2.43-6.34,3.64-11.16,3.64-2.14,0-4.25-.21-6.32-.65Z"/>
    <path class="cls-7" d="M139.78,470.76c-1.5-.86-2.64-2.04-3.42-3.54-.78-1.5-1.17-3.18-1.17-5.03v-16.47h7.28v16.04c0,3.1,1.64,4.64,4.93,4.64,1.34,0,2.5-.28,3.47-.84.97-.56,1.83-1.43,2.56-2.61v-17.24h7.23v25.62h-6.9v-2.87c-1.12,1.18-2.43,2.08-3.95,2.68-1.52.61-3.07.91-4.67.91-2.08,0-3.86-.43-5.36-1.29Z"/>
    <path class="cls-7" d="M167.34,469.85c-1.74-1.47-2.61-3.54-2.61-6.22s.95-4.79,2.85-6.32c1.9-1.53,4.51-2.3,7.83-2.3,3.1,0,5.75.51,7.95,1.53v-1.01c0-1.72-.57-3-1.7-3.83-1.13-.83-2.96-1.25-5.48-1.25-1.56,0-3.1.16-4.6.48-1.5.32-2.84.77-4.02,1.34v-5.46c1.05-.51,2.51-.94,4.36-1.29,1.85-.35,3.72-.53,5.6-.53,2.14,0,4.13.32,5.98.96l1.87-2.15h7.9l-4.74,5.51c1.37,1.56,2.06,3.62,2.06,6.18v15.85h-7.23v-9.53c-1.85-.96-4.02-1.44-6.51-1.44-1.63,0-2.82.27-3.57.81-.75.54-1.13,1.39-1.13,2.54,0,1.05.34,1.84,1.03,2.37.69.53,1.78.79,3.28.79,1.05,0,1.95-.16,2.68-.48v5.03c-1.25.41-2.84.62-4.79.62-2.94,0-5.27-.73-7.01-2.2Z"/>
    <path class="cls-7" d="M202.5,470.64c-1.98-.94-3.51-2.24-4.6-3.9-1.09-1.66-1.63-3.54-1.63-5.65v-15.37h7.28v14.89c0,1.85.49,3.28,1.46,4.29.97,1.01,2.45,1.51,4.43,1.51s3.45-.5,4.4-1.51c.96-1,1.44-2.43,1.44-4.29v-14.89h7.28v15.37c0,2.11-.54,3.99-1.63,5.65-1.09,1.66-2.62,2.96-4.6,3.9-1.98.94-4.28,1.41-6.89,1.41s-4.96-.47-6.94-1.41Z"/>
    <path class="cls-7" d="M235.21,455.39c0-1.66-.35-2.86-1.05-3.62-.7-.75-1.93-1.12-3.69-1.12s-3.4.43-5.12,1.29v-5.51c.77-.38,1.8-.72,3.09-1,1.29-.29,2.55-.43,3.76-.43,3.35,0,5.91.89,7.66,2.68,1.75,1.79,2.63,4.37,2.63,7.76v15.9h-7.28v-15.94Z"/>
    <path class="cls-7" d="M250.1,469.87c-2.39-1.45-3.59-3.54-3.59-6.25,0-1.25.34-2.37,1.03-3.38.69-1.01,1.6-1.73,2.75-2.18-1.05-.54-1.91-1.32-2.56-2.35-.65-1.02-.98-2.14-.98-3.35,0-2.23.79-4.02,2.37-5.36s3.87-2.01,6.87-2.01c.93,0,1.84.06,2.75.19s1.6.27,2.08.43v5.46c-.45-.19-.98-.35-1.6-.48-.62-.13-1.19-.19-1.7-.19-2.23,0-3.35.83-3.35,2.49,0,.86.28,1.51.84,1.94.56.43,1.43.65,2.61.65h3.21v5.12h-3.21c-2.43,0-3.64.96-3.64,2.87,0,1.02.49,1.81,1.46,2.37.97.56,2.39.84,4.24.84,2.23,0,3.87-.46,4.91-1.36,1.04-.91,1.56-2.27,1.56-4.09v-15.56h7.28v15.51c0,1.82-.46,3.55-1.39,5.19-.93,1.64-2.41,3-4.45,4.07-2.04,1.07-4.68,1.6-7.9,1.6-3.99,0-7.18-.73-9.58-2.18Z"/>
  </g>
</svg>